<svg width="161" height="11" viewBox="0 0 161 11" fill="none" xmlns="http://www.w3.org/2000/svg">
<path d="M5.15296 10.208C2.51396 10.208 0.758963 7.959 0.758963 5.489C0.758963 3.201 2.20196 0.692 5.21796 0.692C6.62196 0.692 6.81696 0.899999 7.33696 0.899999C8.01296 0.899999 7.92196 0.692 8.33796 0.692C9.54696 0.692 9.41696 0.757 10.548 0.757C11.471 0.757 11.588 0.692 12.394 0.692C12.459 0.692 12.498 0.744 12.498 0.796C12.498 0.847999 12.459 0.899999 12.394 0.899999C11.263 0.899999 10.834 1.082 10.834 2.057L10.821 8.674C10.821 9.74 11.263 9.805 12.381 9.805C12.446 9.805 12.485 9.857 12.485 9.896C12.485 9.948 12.446 10 12.381 10C11.497 10 11.276 9.935 10.548 9.935C9.45596 9.935 9.41696 10 8.18196 10C8.09096 10 8.03896 9.948 8.03896 9.896C8.03896 9.857 8.09096 9.805 8.18196 9.805C9.41696 9.805 10.236 9.805 10.236 8.947L10.249 5.632C10.249 5.32 10.002 5.112 9.68996 5.112H5.90696C5.59496 5.112 5.38696 5.424 5.38696 5.619V6.1C5.38696 6.945 6.08896 6.945 7.49296 6.945C7.55796 6.945 7.59696 6.997 7.59696 7.036C7.59696 7.088 7.55796 7.14 7.49296 7.14C6.28396 7.14 5.95896 7.075 5.11396 7.075C4.30796 7.075 4.16496 7.14 3.26796 7.14C3.17696 7.14 3.12496 7.088 3.12496 7.036C3.12496 6.997 3.17696 6.945 3.26796 6.945C4.35996 6.945 4.80196 6.828 4.80196 5.853V4.462C4.80196 3.435 4.25596 3.227 3.26796 3.227C3.17696 3.227 3.12496 3.175 3.12496 3.123C3.12496 3.071 3.17696 3.019 3.26796 3.019C4.42496 3.019 4.16496 3.084 5.11396 3.084C6.23196 3.084 6.28396 3.032 7.49296 3.032C7.55796 3.032 7.59696 3.084 7.59696 3.123C7.59696 3.175 7.55796 3.227 7.49296 3.227C5.93296 3.227 5.38696 3.409 5.38696 4.02V4.293C5.38696 4.566 5.59496 4.891 5.90696 4.891H9.70296C10.002 4.891 10.249 4.566 10.249 4.28V1.745C10.249 0.939 9.62496 0.899999 8.67596 0.899999C8.40296 0.899999 8.32496 1.043 8.32496 1.251C8.32496 1.355 8.35096 1.472 8.36396 1.589C8.45496 2.239 8.54596 2.421 8.84496 3.877C8.84496 3.903 8.85796 3.942 8.85796 3.968C8.85796 4.059 8.81896 4.137 8.76696 4.137C8.71496 4.137 8.63696 4.059 8.57196 3.851C8.36396 3.123 8.12996 0.899999 5.29596 0.899999C3.67096 0.899999 1.48696 2.343 1.48696 5.489C1.48696 8.089 3.46296 9.74 5.60796 9.74C8.24696 9.74 8.63696 7.062 8.63696 6.334C8.63696 6.139 8.74096 6.048 8.85796 6.048C8.97496 6.048 9.10496 6.152 9.10496 6.36C9.10496 7.426 8.35096 10.208 5.15296 10.208ZM16.4886 10.208C13.8366 10.208 12.4326 7.855 12.4326 5.411C12.4326 3.266 13.7196 0.692 16.4886 0.692C17.9316 0.692 18.2306 1.251 18.6466 1.251C19.0106 1.251 19.2966 0.692 20.6486 0.692C23.6646 0.692 24.8736 3.266 24.8736 5.359C24.8736 7.855 23.6386 10.208 20.6486 10.208C19.2966 10.208 19.0496 9.675 18.6596 9.675C18.2436 9.675 18.0616 10.208 16.4886 10.208ZM16.4886 9.974C16.9826 9.974 17.5416 9.87 18.1006 9.558C18.1916 9.506 18.2306 9.454 18.2306 9.402C18.2306 9.35 18.1656 9.285 18.0746 9.22C16.9176 8.401 16.5926 6.867 16.5926 5.411C16.5926 3.812 17.3466 2.317 18.0616 1.693C18.1136 1.641 18.1396 1.602 18.1396 1.563C18.1396 1.485 18.0356 1.433 17.9706 1.381C17.5416 1.082 16.9436 0.899999 16.4886 0.899999C15.4876 0.899999 13.1606 2.122 13.1606 5.437C13.1606 8.843 15.1756 9.974 16.4886 9.974ZM18.6596 9.142C19.0236 9.142 19.9986 7.296 19.9986 5.385C19.9986 3.721 19.1016 1.875 18.6596 1.875C18.2046 1.875 17.3206 3.747 17.3206 5.437C17.3206 7.283 18.2306 9.142 18.6596 9.142ZM20.6486 9.974C22.0656 9.974 24.1586 9.012 24.1586 5.385C24.1586 2.122 21.8576 0.899999 20.6486 0.899999C20.3106 0.899999 19.8036 1.043 19.3226 1.355C19.1926 1.433 19.1276 1.485 19.1276 1.537C19.1276 1.589 19.1666 1.628 19.2316 1.693C20.2586 2.642 20.7136 4.085 20.7136 5.359C20.7136 6.893 20.2196 8.401 19.2056 9.272C19.1276 9.324 19.0886 9.376 19.0886 9.428C19.0886 9.454 19.1146 9.493 19.1926 9.545C19.6736 9.844 20.2066 9.974 20.6486 9.974ZM28.869 10.208C27.751 10.208 27.413 10 26.854 10C26.529 10 26.412 10.117 26.282 10.117C26.178 10.117 26.178 10 26.165 9.909C26.087 9.48 25.723 7.322 25.606 6.542V6.49C25.606 6.425 25.632 6.386 25.671 6.386C25.723 6.386 25.775 6.438 25.814 6.542C26.633 10 27.387 10 28.908 10C30.429 10 30.975 9.012 30.975 7.998C30.975 6.841 29.571 6.1 28.518 5.541C27.283 4.865 25.879 4.124 25.879 2.655C25.879 1.173 27.075 0.483999 28.336 0.483999C29.636 0.483999 29.779 0.705 30.286 0.705C30.78 0.705 30.741 0.483999 30.936 0.483999C31.001 0.483999 31.066 0.497 31.092 0.705C31.105 0.874 31.625 3.357 31.625 3.89C31.625 3.981 31.586 4.02 31.547 4.02C31.508 4.02 31.469 3.981 31.443 3.89C30.715 0.705 29.571 0.705 28.284 0.705C27.543 0.705 26.542 1.433 26.542 2.46C26.542 3.825 27.738 4.371 28.882 4.982C30.065 5.606 31.625 6.321 31.625 7.738C31.625 9.714 30.143 10.208 28.869 10.208ZM38.0563 10.13C37.9003 10.13 37.8483 10 37.3933 10H31.8683C31.7903 10 31.7513 9.948 31.7513 9.909C31.7513 9.857 31.7903 9.805 31.8813 9.805C33.3633 9.805 33.4283 9.532 33.4283 8.115V2.421C33.4283 1.42 33.3633 0.899999 31.8683 0.899999C31.7903 0.899999 31.7513 0.847999 31.7513 0.796C31.7513 0.744 31.7903 0.692 31.8683 0.692H37.0423C37.4193 0.692 37.5233 0.562 37.6663 0.562C37.7963 0.562 37.8093 0.692 37.8353 0.899999C37.9263 1.602 38.3293 3.734 38.3553 4.02V4.033C38.3553 4.098 38.3163 4.15 38.2643 4.15C38.2253 4.15 38.1733 4.111 38.1603 4.033C37.4063 0.926 36.8473 0.899999 35.1573 0.899999C34.2343 0.899999 34.0133 1.472 34.0133 2.434V4.189C34.0133 4.722 34.1043 5.099 34.8193 5.099C36.0933 5.099 36.3533 5.099 36.3533 4.358C36.3533 4.163 36.3403 3.929 36.3143 3.63V3.617C36.3143 3.539 36.3663 3.487 36.4053 3.487C36.4443 3.487 36.4833 3.513 36.4963 3.591C36.5353 3.838 36.8603 5.216 37.7703 6.62C37.7833 6.646 37.7963 6.672 37.7963 6.685C37.7963 6.737 37.7573 6.776 37.6923 6.776C37.6923 6.776 37.5623 6.672 37.4713 6.542C36.6523 5.333 36.4703 5.242 34.8193 5.242C34.0783 5.242 34.0133 5.71 34.0133 6.295V7.868C34.0133 8.856 34.2733 9.805 35.3133 9.805C37.6013 9.805 37.9003 9.792 38.5503 6.659C38.5633 6.581 38.6153 6.542 38.6543 6.542C38.7193 6.542 38.7843 6.62 38.7583 6.724C38.6413 7.296 38.3683 8.726 38.2253 9.831C38.2123 9.909 38.2123 10.13 38.0563 10.13ZM42.6156 10C42.5376 10 42.4986 9.948 42.4986 9.909C42.4986 9.857 42.5376 9.805 42.6286 9.805C44.1106 9.805 44.1756 9.493 44.1756 8.115V2.395C44.1756 1.121 43.8246 0.899999 42.6156 0.899999C42.5376 0.899999 42.4986 0.847999 42.4986 0.796C42.4986 0.744 42.5376 0.692 42.6156 0.692H47.7896C48.1666 0.692 48.2706 0.562 48.4136 0.562C48.5436 0.562 48.5566 0.692 48.5826 0.899999C48.6736 1.602 49.0766 3.734 49.1026 4.02V4.033C49.1026 4.098 49.0636 4.15 49.0116 4.15C48.9726 4.15 48.9206 4.111 48.9076 4.033C48.1406 0.899999 47.5946 0.899999 45.9046 0.899999C44.8256 0.899999 44.7606 1.55 44.7606 2.434V4.189C44.7606 4.722 44.8516 5.099 45.5666 5.099C46.8406 5.099 47.1006 5.099 47.1006 4.358C47.1006 4.163 47.0876 3.929 47.0616 3.63V3.617C47.0616 3.539 47.1136 3.487 47.1526 3.487C47.1916 3.487 47.2306 3.513 47.2436 3.591C47.2826 3.838 47.6076 5.216 48.5176 6.62C48.5306 6.646 48.5436 6.672 48.5436 6.685C48.5436 6.737 48.5046 6.776 48.4396 6.776C48.4396 6.776 48.3096 6.672 48.2186 6.542C47.3996 5.333 47.2176 5.242 45.5666 5.242C44.8256 5.242 44.7606 5.71 44.7606 6.295V8.115C44.7606 8.947 44.9686 9.805 46.3206 9.805C46.4246 9.805 46.4766 9.857 46.4766 9.896C46.4766 9.948 46.4246 10 46.3206 10H42.6156ZM53.626 10.208C50.909 10.208 49.479 7.803 49.479 5.307C49.479 3.11 50.792 0.483999 53.626 0.483999C56.707 0.483999 57.942 3.11 57.942 5.255C57.942 7.803 56.681 10.208 53.626 10.208ZM53.626 9.974C55.069 9.974 57.214 8.986 57.214 5.281C57.214 1.953 54.861 0.705 53.626 0.705C52.599 0.705 50.22 1.953 50.22 5.333C50.22 8.817 52.287 9.974 53.626 9.974ZM62.8261 10.208C60.0051 10.208 59.4201 8.336 59.4201 6.867V1.81C59.4201 0.939 58.5881 0.899999 57.6911 0.899999C57.6261 0.899999 57.5871 0.847999 57.5871 0.796C57.5871 0.744 57.6261 0.692 57.6911 0.692C59.0821 0.692 58.9781 0.757 59.7061 0.757C60.6031 0.757 60.7981 0.692 62.7481 0.692C62.8521 0.692 62.9041 0.744 62.9041 0.796C62.9041 0.847999 62.8521 0.899999 62.7481 0.899999C60.3561 0.899999 60.0051 0.939 60.0051 1.81V6.451C60.0051 9.181 61.3831 9.805 63.2031 9.805C65.1921 9.805 65.7121 7.842 65.7121 6.503V1.992C65.7121 1.004 65.5301 0.899999 63.4761 0.899999C63.3851 0.899999 63.3461 0.847999 63.3461 0.796C63.3461 0.744 63.3851 0.692 63.4761 0.692C64.9451 0.692 65.0621 0.757 65.9461 0.757C66.4921 0.757 66.5051 0.692 67.6491 0.692C67.7141 0.692 67.7531 0.744 67.7531 0.796C67.7531 0.847999 67.7141 0.899999 67.6491 0.899999C66.3881 0.899999 66.0631 1.004 66.0631 1.992L66.0371 6.503C66.0371 8.687 65.0101 10.208 62.8261 10.208ZM66.8711 10C66.7801 10 66.7411 9.948 66.7411 9.896C66.7411 9.857 66.7801 9.805 66.8711 9.805C67.9891 9.805 68.4181 9.675 68.4181 8.635V2.278C68.4181 1.29 68.1581 0.899999 66.9101 0.899999C66.7931 0.899999 66.7411 0.847999 66.7411 0.796C66.7411 0.744 66.7931 0.692 66.9101 0.692C68.0021 0.692 68.0801 0.757 68.7041 0.757C69.2241 0.757 69.2761 0.692 70.3941 0.692C72.6041 0.692 74.0731 1.693 74.0731 3.604C74.0731 6.204 71.4471 6.022 71.4471 6.308C71.4471 6.347 71.5121 6.399 71.6681 6.477C72.3831 6.841 73.4361 7.92 74.0601 8.96L74.1381 9.09C74.6711 9.805 75.1651 9.805 75.7241 9.805C75.8281 9.805 75.8671 9.857 75.8671 9.896C75.8671 9.948 75.8281 10 75.7241 10C74.7361 10 74.7231 9.935 74.0731 9.935C73.4881 9.935 73.3841 10 71.4731 10C71.3821 10 71.3431 9.948 71.3431 9.909C71.3431 9.857 71.3821 9.805 71.4731 9.805C72.8511 9.805 73.5271 9.727 73.5271 9.363C73.5271 9.259 73.4751 9.142 73.3841 8.999L73.3581 8.96C71.9931 6.919 70.2511 6.178 69.4581 6.178C69.1851 6.178 69.0291 6.269 69.0291 6.412V8.96C69.0291 9.805 69.7571 9.805 70.5631 9.805C70.6281 9.805 70.6671 9.857 70.6671 9.909C70.6671 9.948 70.6281 10 70.5631 10C69.5621 10 69.2891 9.935 68.8211 9.935C68.2881 9.935 68.1061 10 66.8711 10ZM70.6411 5.97C72.2011 5.97 73.3841 5.294 73.3841 3.552C73.3841 1.693 71.6551 0.782999 69.9391 0.912999C69.3931 0.951999 69.0291 0.964999 69.0291 2.122V5.541C69.0291 5.853 69.6791 5.97 70.6411 5.97ZM78.6975 10C78.6195 10 78.5675 9.948 78.5675 9.896C78.5675 9.857 78.6195 9.805 78.6975 9.805C79.3865 9.805 80.2445 9.805 80.2445 8.96V1.862C80.2445 0.991 79.3735 0.899999 78.6975 0.899999C78.6195 0.899999 78.5805 0.847999 78.5805 0.796C78.5805 0.744 78.6195 0.692 78.6975 0.692C80.0495 0.692 80.0885 0.744 80.5435 0.744C81.2325 0.744 81.3495 0.692 82.2595 0.692C84.1315 0.692 85.7045 1.576 85.7045 3.188C85.7045 4.709 83.6505 5.125 83.2345 5.242C83.1435 5.268 83.1305 5.346 83.2345 5.346C84.1835 5.346 86.0555 5.84 86.0555 7.621C86.0555 9.48 83.9365 10 82.2335 10H78.6975ZM82.3505 9.805C82.6495 9.805 85.4575 9.675 85.4575 7.569C85.4575 6.217 83.6505 5.437 81.9995 5.437C81.4145 5.437 80.8295 5.645 80.8295 5.996V8.999C80.8295 9.805 81.3495 9.805 82.3505 9.805ZM81.9995 5.242C83.2345 5.242 85.1195 4.566 85.1195 3.097C85.1195 1.576 83.0265 0.822 81.9605 0.912999C81.3105 0.964999 80.8295 0.964999 80.8295 2.057V4.722C80.8295 5.307 81.8695 5.242 81.9995 5.242ZM92.2043 10.13C92.0483 10.13 91.9963 10 91.5413 10H86.0163C85.9383 10 85.8993 9.948 85.8993 9.909C85.8993 9.857 85.9383 9.805 86.0293 9.805C87.5113 9.805 87.5763 9.532 87.5763 8.115V2.421C87.5763 1.42 87.5113 0.899999 86.0163 0.899999C85.9383 0.899999 85.8993 0.847999 85.8993 0.796C85.8993 0.744 85.9383 0.692 86.0163 0.692H91.1903C91.5673 0.692 91.6713 0.562 91.8143 0.562C91.9443 0.562 91.9573 0.692 91.9833 0.899999C92.0743 1.602 92.4773 3.734 92.5033 4.02V4.033C92.5033 4.098 92.4643 4.15 92.4123 4.15C92.3733 4.15 92.3213 4.111 92.3083 4.033C91.5543 0.926 90.9953 0.899999 89.3053 0.899999C88.3823 0.899999 88.1613 1.472 88.1613 2.434V4.189C88.1613 4.722 88.2523 5.099 88.9673 5.099C90.2413 5.099 90.5013 5.099 90.5013 4.358C90.5013 4.163 90.4883 3.929 90.4623 3.63V3.617C90.4623 3.539 90.5143 3.487 90.5533 3.487C90.5923 3.487 90.6313 3.513 90.6443 3.591C90.6833 3.838 91.0083 5.216 91.9183 6.62C91.9313 6.646 91.9443 6.672 91.9443 6.685C91.9443 6.737 91.9053 6.776 91.8403 6.776C91.8403 6.776 91.7103 6.672 91.6193 6.542C90.8003 5.333 90.6183 5.242 88.9673 5.242C88.2263 5.242 88.1613 5.71 88.1613 6.295V7.868C88.1613 8.856 88.4213 9.805 89.4613 9.805C91.7493 9.805 92.0483 9.792 92.6983 6.659C92.7113 6.581 92.7633 6.542 92.8023 6.542C92.8673 6.542 92.9323 6.62 92.9063 6.724C92.7893 7.296 92.5163 8.726 92.3733 9.831C92.3603 9.909 92.3603 10.13 92.2043 10.13ZM93.0187 10C92.9277 10 92.8757 9.948 92.8757 9.896C92.8757 9.857 92.9277 9.805 93.0187 9.805C94.2017 9.805 94.5527 9.493 94.5527 8.154V2.304C94.5527 1.225 94.2147 0.899999 93.0317 0.899999C92.9277 0.899999 92.8627 0.847999 92.8627 0.796C92.8627 0.744 92.9277 0.692 93.0317 0.692H94.7997C94.9817 0.692 95.1247 0.822 95.1767 0.899999C96.7757 3.188 96.9967 3.968 100.559 9.116C100.624 9.207 100.676 9.285 100.702 9.285C100.741 9.285 100.754 9.233 100.754 9.064L100.741 2.499C100.741 0.964999 100.26 0.899999 98.8817 0.899999C98.7647 0.899999 98.6997 0.847999 98.6997 0.796C98.6997 0.744 98.7647 0.692 98.8817 0.692C100.143 0.692 100.156 0.757 100.91 0.757C101.677 0.757 101.443 0.692 102.6 0.692C102.691 0.692 102.73 0.744 102.73 0.796C102.73 0.847999 102.691 0.899999 102.6 0.899999C101.17 0.899999 101.079 1.251 101.079 2.473V8.648C101.079 9.558 101.3 9.805 102.613 9.805C102.704 9.805 102.743 9.857 102.743 9.896C102.743 9.948 102.704 10 102.613 10H100.611C100.494 10 100.455 9.948 100.403 9.883C100.273 9.727 95.4237 2.317 95.0727 1.771C95.0077 1.667 94.9557 1.615 94.9427 1.615C94.9037 1.615 94.9037 1.68 94.9037 1.784L94.8777 8.375C94.9297 9.805 95.4887 9.805 96.8277 9.805C96.9057 9.805 96.9447 9.857 96.9447 9.896C96.9447 9.948 96.9057 10 96.8277 10C95.5537 10 95.5277 9.935 94.7997 9.935C93.9807 9.935 94.1367 10 93.0187 10ZM108.264 10.13C108.108 10.13 108.056 10 107.601 10H102.076C101.998 10 101.959 9.948 101.959 9.909C101.959 9.857 101.998 9.805 102.089 9.805C103.571 9.805 103.636 9.532 103.636 8.115V2.421C103.636 1.42 103.571 0.899999 102.076 0.899999C101.998 0.899999 101.959 0.847999 101.959 0.796C101.959 0.744 101.998 0.692 102.076 0.692H107.25C107.627 0.692 107.731 0.562 107.874 0.562C108.004 0.562 108.017 0.692 108.043 0.899999C108.134 1.602 108.537 3.734 108.563 4.02V4.033C108.563 4.098 108.524 4.15 108.472 4.15C108.433 4.15 108.381 4.111 108.368 4.033C107.614 0.926 107.055 0.899999 105.365 0.899999C104.442 0.899999 104.221 1.472 104.221 2.434V4.189C104.221 4.722 104.312 5.099 105.027 5.099C106.301 5.099 106.561 5.099 106.561 4.358C106.561 4.163 106.548 3.929 106.522 3.63V3.617C106.522 3.539 106.574 3.487 106.613 3.487C106.652 3.487 106.691 3.513 106.704 3.591C106.743 3.838 107.068 5.216 107.978 6.62C107.991 6.646 108.004 6.672 108.004 6.685C108.004 6.737 107.965 6.776 107.9 6.776C107.9 6.776 107.77 6.672 107.679 6.542C106.86 5.333 106.678 5.242 105.027 5.242C104.286 5.242 104.221 5.71 104.221 6.295V7.868C104.221 8.856 104.481 9.805 105.521 9.805C107.809 9.805 108.108 9.792 108.758 6.659C108.771 6.581 108.823 6.542 108.862 6.542C108.927 6.542 108.992 6.62 108.966 6.724C108.849 7.296 108.576 8.726 108.433 9.831C108.42 9.909 108.42 10.13 108.264 10.13ZM109.053 10C108.975 10 108.936 9.948 108.936 9.909C108.936 9.857 108.975 9.805 109.066 9.805C110.548 9.805 110.613 9.493 110.613 8.115V2.395C110.613 1.121 110.262 0.899999 109.053 0.899999C108.975 0.899999 108.936 0.847999 108.936 0.796C108.936 0.744 108.975 0.692 109.053 0.692H114.227C114.604 0.692 114.708 0.562 114.851 0.562C114.981 0.562 114.994 0.692 115.02 0.899999C115.111 1.602 115.514 3.734 115.54 4.02V4.033C115.54 4.098 115.501 4.15 115.449 4.15C115.41 4.15 115.358 4.111 115.345 4.033C114.578 0.899999 114.032 0.899999 112.342 0.899999C111.263 0.899999 111.198 1.55 111.198 2.434V4.189C111.198 4.722 111.289 5.099 112.004 5.099C113.278 5.099 113.538 5.099 113.538 4.358C113.538 4.163 113.525 3.929 113.499 3.63V3.617C113.499 3.539 113.551 3.487 113.59 3.487C113.629 3.487 113.668 3.513 113.681 3.591C113.72 3.838 114.045 5.216 114.955 6.62C114.968 6.646 114.981 6.672 114.981 6.685C114.981 6.737 114.942 6.776 114.877 6.776C114.877 6.776 114.747 6.672 114.656 6.542C113.837 5.333 113.655 5.242 112.004 5.242C111.263 5.242 111.198 5.71 111.198 6.295V8.115C111.198 8.947 111.406 9.805 112.758 9.805C112.862 9.805 112.914 9.857 112.914 9.896C112.914 9.948 112.862 10 112.758 10H109.053ZM115.344 10C115.253 10 115.201 9.948 115.201 9.896C115.201 9.857 115.253 9.805 115.344 9.805C116.618 9.805 116.878 9.597 116.878 8.544V2.109C116.878 1.277 116.592 0.899999 115.357 0.899999C115.266 0.899999 115.214 0.847999 115.214 0.796C115.214 0.744 115.266 0.692 115.357 0.692C116.28 0.692 116.475 0.757 117.164 0.757C117.931 0.757 118.048 0.692 118.984 0.692C119.075 0.692 119.127 0.744 119.127 0.796C119.127 0.847999 119.075 0.899999 118.984 0.899999C117.658 0.899999 117.463 1.277 117.463 2.109V8.544C117.463 9.597 117.658 9.805 119.023 9.805C119.088 9.805 119.127 9.857 119.127 9.896C119.127 9.948 119.088 10 119.023 10C118.1 10 117.931 9.935 117.203 9.935C116.527 9.935 116.306 10 115.344 10ZM123.543 10.208C120.852 10.208 119.058 7.907 119.058 5.385C119.058 3.045 120.54 0.483999 123.608 0.483999C125.051 0.483999 125.246 0.692 125.779 0.692C126.429 0.692 126.416 0.483999 126.65 0.483999C126.715 0.483999 126.754 0.548999 126.754 0.692C126.754 1.433 126.988 2.122 127.313 3.734C127.313 3.76 127.326 3.799 127.326 3.825C127.326 3.916 127.287 3.994 127.235 3.994C127.183 3.994 127.105 3.916 127.04 3.708C126.819 2.967 126.585 0.692 123.699 0.692C122.035 0.692 119.812 2.174 119.812 5.385C119.812 8.05 121.827 9.727 124.011 9.727C126.702 9.727 127.105 6.997 127.105 6.256C127.105 6.061 127.209 5.957 127.326 5.957C127.443 5.957 127.586 6.074 127.586 6.282C127.586 7.374 126.806 10.208 123.543 10.208ZM127.735 10C127.644 10 127.592 9.948 127.592 9.896C127.592 9.857 127.644 9.805 127.735 9.805C129.009 9.805 129.269 9.597 129.269 8.544V2.109C129.269 1.277 128.983 0.899999 127.748 0.899999C127.657 0.899999 127.605 0.847999 127.605 0.796C127.605 0.744 127.657 0.692 127.748 0.692C128.671 0.692 128.866 0.757 129.555 0.757C130.322 0.757 130.439 0.692 131.375 0.692C131.466 0.692 131.518 0.744 131.518 0.796C131.518 0.847999 131.466 0.899999 131.375 0.899999C130.049 0.899999 129.854 1.277 129.854 2.109V8.544C129.854 9.597 130.049 9.805 131.414 9.805C131.479 9.805 131.518 9.857 131.518 9.896C131.518 9.948 131.479 10 131.414 10C130.491 10 130.322 9.935 129.594 9.935C128.918 9.935 128.697 10 127.735 10ZM130.553 10C130.488 10 130.449 9.948 130.449 9.896C130.449 9.857 130.488 9.805 130.553 9.805C131.203 9.805 131.762 9.701 131.944 9.22L134.687 1.94C134.713 1.862 134.726 1.797 134.726 1.732C134.726 1.186 133.777 0.899999 132.23 0.899999C132.126 0.899999 132.074 0.847999 132.074 0.796C132.074 0.744 132.126 0.692 132.23 0.692C134.102 0.692 134.141 0.757 134.726 0.757C135.519 0.757 135.558 0.692 136.91 0.692C139.12 0.692 141.07 1.758 141.07 3.955C141.07 6.035 138.925 5.853 138.925 6.113C138.925 6.165 139.003 6.243 139.211 6.347C140.329 6.932 141.421 7.959 142.383 8.96C142.994 9.597 143.475 9.805 144.047 9.805C144.151 9.805 144.19 9.857 144.19 9.896C144.19 9.948 144.151 10 144.047 10C142.994 10 143.514 9.935 142.682 9.935C141.772 9.935 141.824 10 140.316 10C140.251 10 140.212 9.948 140.212 9.909C140.212 9.857 140.251 9.805 140.316 9.805C141.044 9.805 141.772 9.701 141.772 9.337C141.772 9.233 141.72 9.116 141.577 8.96C139.549 6.854 138.028 6.126 137.417 6.126C137.287 6.126 137.209 6.152 137.17 6.204C137.105 6.282 137.144 6.347 137.17 6.438C137.69 7.842 137.742 7.972 138.028 8.713C138.327 9.493 138.548 9.805 139.458 9.805C139.523 9.805 139.562 9.857 139.562 9.896C139.562 9.948 139.523 10 139.458 10C138.613 10 138.6 9.935 137.989 9.935C137.209 9.935 137.508 10 135.298 10C135.233 10 135.194 9.948 135.194 9.896C135.194 9.857 135.233 9.805 135.298 9.805C137.001 9.805 137.547 9.701 137.547 9.272C137.547 9.168 137.521 9.038 137.456 8.882C137.222 8.271 137.313 8.466 137.118 7.933C136.858 7.244 136.767 7.166 136.039 7.166H133.855C133.075 7.166 132.958 7.361 132.841 7.686C132.75 7.946 132.646 8.167 132.503 8.635C132.425 8.882 132.373 9.077 132.373 9.233C132.373 9.688 132.841 9.805 134.596 9.805C134.687 9.805 134.739 9.857 134.739 9.896C134.739 9.948 134.687 10 134.596 10C132.386 10 132.477 9.935 131.931 9.935C131.385 9.935 131.58 10 130.553 10ZM136.117 6.958C136.416 6.958 136.559 6.867 136.559 6.633C136.559 6.49 136.507 6.308 136.416 6.061L135.064 2.473C135.025 2.356 134.986 2.304 134.947 2.304C134.882 2.304 134.817 2.434 134.739 2.642L133.439 6.1C133.361 6.308 133.322 6.477 133.322 6.594C133.322 6.867 133.53 6.958 133.998 6.958H136.117ZM138.418 5.892C139.536 5.892 140.381 5.463 140.381 3.76C140.381 1.979 138.405 0.899999 136.455 0.899999C135.766 0.899999 135.467 1.199 135.467 1.628C135.467 1.784 135.506 1.953 135.571 2.122L136.793 5.398C136.819 5.489 136.832 5.528 136.858 5.554C137.053 5.801 137.547 5.892 138.418 5.892ZM143.262 10C143.171 10 143.119 9.948 143.119 9.896C143.119 9.857 143.171 9.805 143.262 9.805C144.536 9.805 144.796 9.597 144.796 8.544V2.109C144.796 1.277 144.51 0.899999 143.275 0.899999C143.184 0.899999 143.132 0.847999 143.132 0.796C143.132 0.744 143.184 0.692 143.275 0.692C144.198 0.692 144.393 0.757 145.082 0.757C145.849 0.757 145.966 0.692 146.902 0.692C146.993 0.692 147.045 0.744 147.045 0.796C147.045 0.847999 146.993 0.899999 146.902 0.899999C145.576 0.899999 145.381 1.277 145.381 2.109V8.544C145.381 9.597 145.576 9.805 146.941 9.805C147.006 9.805 147.045 9.857 147.045 9.896C147.045 9.948 147.006 10 146.941 10C146.018 10 145.849 9.935 145.121 9.935C144.445 9.935 144.224 10 143.262 10ZM152.566 10.13C152.41 10.13 152.358 10 151.903 10H146.378C146.3 10 146.261 9.948 146.261 9.909C146.261 9.857 146.3 9.805 146.391 9.805C147.873 9.805 147.938 9.532 147.938 8.115V2.421C147.938 1.42 147.873 0.899999 146.378 0.899999C146.3 0.899999 146.261 0.847999 146.261 0.796C146.261 0.744 146.3 0.692 146.378 0.692H151.552C151.929 0.692 152.033 0.562 152.176 0.562C152.306 0.562 152.319 0.692 152.345 0.899999C152.436 1.602 152.839 3.734 152.865 4.02V4.033C152.865 4.098 152.826 4.15 152.774 4.15C152.735 4.15 152.683 4.111 152.67 4.033C151.916 0.926 151.357 0.899999 149.667 0.899999C148.744 0.899999 148.523 1.472 148.523 2.434V4.189C148.523 4.722 148.614 5.099 149.329 5.099C150.603 5.099 150.863 5.099 150.863 4.358C150.863 4.163 150.85 3.929 150.824 3.63V3.617C150.824 3.539 150.876 3.487 150.915 3.487C150.954 3.487 150.993 3.513 151.006 3.591C151.045 3.838 151.37 5.216 152.28 6.62C152.293 6.646 152.306 6.672 152.306 6.685C152.306 6.737 152.267 6.776 152.202 6.776C152.202 6.776 152.072 6.672 151.981 6.542C151.162 5.333 150.98 5.242 149.329 5.242C148.588 5.242 148.523 5.71 148.523 6.295V7.868C148.523 8.856 148.783 9.805 149.823 9.805C152.111 9.805 152.41 9.792 153.06 6.659C153.073 6.581 153.125 6.542 153.164 6.542C153.229 6.542 153.294 6.62 153.268 6.724C153.151 7.296 152.878 8.726 152.735 9.831C152.722 9.909 152.722 10.13 152.566 10.13ZM157.294 10.208C156.176 10.208 155.838 10 155.279 10C154.954 10 154.837 10.117 154.707 10.117C154.603 10.117 154.603 10 154.59 9.909C154.512 9.48 154.148 7.322 154.031 6.542V6.49C154.031 6.425 154.057 6.386 154.096 6.386C154.148 6.386 154.2 6.438 154.239 6.542C155.058 10 155.812 10 157.333 10C158.854 10 159.4 9.012 159.4 7.998C159.4 6.841 157.996 6.1 156.943 5.541C155.708 4.865 154.304 4.124 154.304 2.655C154.304 1.173 155.5 0.483999 156.761 0.483999C158.061 0.483999 158.204 0.705 158.711 0.705C159.205 0.705 159.166 0.483999 159.361 0.483999C159.426 0.483999 159.491 0.497 159.517 0.705C159.53 0.874 160.05 3.357 160.05 3.89C160.05 3.981 160.011 4.02 159.972 4.02C159.933 4.02 159.894 3.981 159.868 3.89C159.14 0.705 157.996 0.705 156.709 0.705C155.968 0.705 154.967 1.433 154.967 2.46C154.967 3.825 156.163 4.371 157.307 4.982C158.49 5.606 160.05 6.321 160.05 7.738C160.05 9.714 158.568 10.208 157.294 10.208Z" fill="black"/>
</svg>
