<?xml version="1.0" encoding="utf-8"?>
<!-- Generator: Adobe Illustrator 28.0.0, SVG Export Plug-In . SVG Version: 6.00 Build 0)  -->
<svg version="1.1" id="Ebene_1" xmlns="http://www.w3.org/2000/svg" xmlns:xlink="http://www.w3.org/1999/xlink" x="0px" y="0px"
	 viewBox="0 0 326.1 408.3" style="enable-background:new 0 0 326.1 408.3;" xml:space="preserve">
<style type="text/css">
	
		.st0{fill:none;stroke:#000000;stroke-width:2;stroke-linecap:round;stroke-miterlimit:10;stroke-dasharray:12.198,5.0825,10.165,15.2475,4.066,16.264;}
	
		.st1{fill:none;stroke:#000000;stroke-width:3;stroke-linecap:round;stroke-linejoin:round;stroke-miterlimit:10;stroke-dasharray:2,6,2,6,2,6;}
	
		.st2{fill:none;stroke:#000000;stroke-width:3;stroke-linecap:round;stroke-linejoin:round;stroke-miterlimit:10;stroke-dasharray:20,40,20,25,20,25;}
	
		.st3{fill:none;stroke:#000000;stroke-width:3;stroke-linecap:round;stroke-linejoin:round;stroke-miterlimit:10;stroke-dasharray:12,5,10,15,4,16;}
	
		.st4{fill:none;stroke:#000000;stroke-width:4;stroke-linecap:round;stroke-linejoin:round;stroke-miterlimit:10;stroke-dasharray:1,10,1,10,1,5;}
	.st5{fill:none;}
	.st6{fill:none;stroke:#000000;stroke-width:0.2;stroke-miterlimit:10;}
	.st7{fill:#FF00FF;}
	
		.st8{fill:none;stroke:#000000;stroke-width:3;stroke-linecap:round;stroke-linejoin:round;stroke-miterlimit:10;stroke-dasharray:2,3,2,3,2,6;}
	.st9{opacity:0.49;fill:#FF00FF;}
	
		.st10{fill:none;stroke:#000000;stroke-width:3;stroke-linecap:square;stroke-linejoin:round;stroke-miterlimit:10;stroke-dasharray:20,30,20,30,20,30;}
	.st11{fill:none;stroke:#000000;stroke-linecap:round;stroke-linejoin:round;stroke-miterlimit:10;}
	.st12{clip-path:url(#SVGID_00000133531130527641430760000014994687802706427576_);fill:#1D1D1B;}
	.st13{fill:#FFFFFF;}
	.st14{filter:url(#Adobe_OpacityMaskFilter);}
	.st15{opacity:9.000000e-02;mask:url(#SVGID_00000106140024173703887280000000348860183609101234_);}
	.st16{filter:url(#Adobe_OpacityMaskFilter_00000104664820315396352440000011102482824644647589_);}
	.st17{opacity:9.000000e-02;mask:url(#SVGID_00000031921936838317225690000014939131805277015950_);}
	.st18{fill:#F4F4F5;}
	.st19{filter:url(#Adobe_OpacityMaskFilter_00000034074306002628777520000012738118288036617146_);}
	.st20{opacity:0.12;mask:url(#SVGID_00000044176632201803938550000010017243036341371839_);}
	.st21{filter:url(#Adobe_OpacityMaskFilter_00000129163430015941586570000001136479937384803995_);}
	.st22{opacity:0.12;mask:url(#SVGID_00000095312682416919217270000006636833518293741498_);}
	.st23{fill:#202020;}
	
		.st24{fill:#FFFFFF;stroke:#000000;stroke-width:2;stroke-linecap:round;stroke-linejoin:round;stroke-miterlimit:10;stroke-dasharray:12,5,10,15,4,16;}
	.st25{filter:url(#Adobe_OpacityMaskFilter_00000006688688855359615480000017712112654859646627_);}
	.st26{opacity:0.12;mask:url(#SVGID_00000034769148323845535050000010363053665434216588_);}
	.st27{filter:url(#Adobe_OpacityMaskFilter_00000089560405741056200400000008327061121021677967_);}
	.st28{opacity:0.12;mask:url(#SVGID_00000112593167483361607330000007614606443535177890_);}
	.st29{filter:url(#Adobe_OpacityMaskFilter_00000146473073276810652510000007200267719875411362_);}
	.st30{opacity:0.12;mask:url(#SVGID_00000142874466907437336070000014896112817952222351_);}
	.st31{clip-path:url(#SVGID_00000099628211217670611820000000563058563972020618_);fill:#1D1D1B;}
	.st32{fill:#1D1D1B;}
	.st33{opacity:0.25;fill:#FF7BA7;}
	.st34{fill:none;stroke:#FFFFFF;stroke-width:14;stroke-linecap:round;stroke-miterlimit:10;}
</style>
<g>
	<path d="M314.8,236.4L314.8,236.4c-5.7-39.3-22.1-56.3-28.9-61.8c-8.6-6.9-13.9-17.1-14.7-28.1c-0.8-11,2.9-21.8,10.3-30
		c0.3-0.3,0.5-0.6,0.7-0.9c4.1-5,6.4-11.8,6.4-19.2c0-7.4-2.3-14.2-6.4-19.2c-3.9-4.7-9.2-7.5-14.5-7.5c-1.2,0-2.5,0.1-3.7,0.4
		c-3.7,0.9-7.1,2.6-10.1,5.2c-7.3,6.2-16.5,9.5-25.8,9.5c-3.5,0-7.1-0.5-10.6-1.4c-12.7-3.5-22.9-13.1-27.2-25.5
		c-2.8-8.1-7-15.9-12.7-23.4c-14-18.6-35.4-29.2-58.7-29.2c-23.8,0-46.1,11.5-61.4,31.7C43.2,56,34.7,79.3,33.7,102.7
		c-0.9,20.5,4.2,38.8,14,50c7.6,8.7,11.1,20.3,9.5,31.7c-1.6,11.4-8,21.7-17.7,28c-16,10.5-27.7,29.2-29.8,47.7c0,0,0,0,0,0.1
		c-1.2,11.5,2.7,23.5,10.9,33.7c8.3,10.4,20.6,18.1,34.4,21.6c0.8,0.2,1.7,0.4,2.5,0.6c13,2.5,23.8,11.3,29.1,23.4
		c5.2,12.1,4.2,26.1-2.9,37.2c-1.8,2.8-3.2,5.7-4.3,8.7c-2.6,7.1-3.3,14.6-2.2,22.9H266v0c-2.9-13.7-8.9-26-17.9-36.5
		c-9.7-11.3-12.3-27.1-6.8-40.9c5.5-13.8,18.3-23.5,33.1-25c13.4-1.4,25.1-8.2,32.2-18.7c0.1-0.1,0.1-0.2,0.2-0.3
		C315,275.1,317.8,257.6,314.8,236.4z M261.8,146.7c-1.3,11.5-7.5,21.9-17,28.5c-5.5,3.8-10.6,8.7-15.4,14.5
		c-10.5,13-18,29.4-21.1,46.3c-2.8,15.1,0.1,29.6,8.3,41.9c8.5,12.8,8.9,29.4,1,42.6c-7.3,12.2-20.3,19.5-34.3,19.5
		c-1.2,0-2.4-0.1-3.6-0.2c-3.9-0.3-7.8-0.5-11.8-0.5c-6.9,0-13.8,0.5-20.5,1.6c-2.1,0.3-4.1,0.5-6.2,0.5c-11.9,0-23.3-5.3-30.9-14.6
		c-9-11-11.5-25.9-6.6-39.2c2.6-7,3.8-14.6,3.7-22.9c0-1.3-0.1-2.7-0.2-4c-1-14-5.5-27.3-12.7-37.4c-7.4-10.4-9.4-23.7-5.3-35.8
		c4-12.1,13.6-21.6,25.8-25.4c14.4-4.6,29-11.8,43.5-21.4c0,0,0,0,0,0c10.5-7.1,19-15.6,25.1-25.3c7-11.2,19.1-18.1,32.3-18.6
		c0.5,0,1,0,1.5,0c12.6,0,24.6,6,32.1,16.2c0.6,0.8,1.3,1.6,1.9,2.3C259.3,123.7,263.1,135.2,261.8,146.7z"/>
	<defs>
		<filter id="Adobe_OpacityMaskFilter" filterUnits="userSpaceOnUse" x="9.5" y="5.4" width="306.5" height="402.8">
			
				<feColorMatrix  type="matrix" values="-1 0 0 0 1  0 -1 0 0 1  0 0 -1 0 1  0 0 0 1 0" color-interpolation-filters="sRGB" result="source"/>
		</filter>
	</defs>
	
		<mask maskUnits="userSpaceOnUse" x="9.5" y="5.4" width="306.5" height="402.8" id="SVGID_00000102512120817451539990000007106925803200188550_">
		<g class="st14">
			
				<image style="overflow:visible;" width="311" height="407" xlink:href="BFB5047B63B515B9.jpg"  transform="matrix(1 0 0 1 7.1 3.2148)">
			</image>
		</g>
	</mask>
	<path style="opacity:0.12;mask:url(#SVGID_00000102512120817451539990000007106925803200188550_);" d="M314.8,236.4L314.8,236.4
		c-5.7-39.3-22.1-56.3-28.9-61.8c-8.6-6.9-13.9-17.1-14.7-28.1c-0.8-11,2.9-21.8,10.3-30c0.3-0.3,0.5-0.6,0.7-0.9
		c4.1-5,6.4-11.8,6.4-19.2c0-7.4-2.3-14.2-6.4-19.2c-3.9-4.7-9.2-7.5-14.5-7.5c-1.2,0-2.5,0.1-3.7,0.4c-3.7,0.9-7.1,2.6-10.1,5.2
		c-7.3,6.2-16.5,9.5-25.8,9.5c-3.5,0-7.1-0.5-10.6-1.4c-12.7-3.5-22.9-13.1-27.2-25.5c-2.8-8.1-7-15.9-12.7-23.4
		c-14-18.6-35.4-29.2-58.7-29.2c-23.8,0-46.1,11.5-61.4,31.7C43.2,56,34.7,79.3,33.7,102.7c-0.9,20.5,4.2,38.8,14,50
		c7.6,8.7,11.1,20.3,9.5,31.7c-1.6,11.4-8,21.7-17.7,28c-16,10.5-27.7,29.2-29.8,47.7c0,0,0,0,0,0.1c-1.2,11.5,2.7,23.5,10.9,33.7
		c8.3,10.4,20.6,18.1,34.4,21.6c0.8,0.2,1.7,0.4,2.5,0.6c13,2.5,23.8,11.3,29.1,23.4c5.2,12.1,4.2,26.1-2.9,37.2
		c-1.8,2.8-3.2,5.7-4.3,8.7c-2.6,7.1-3.3,14.6-2.2,22.9H266v0c-2.9-13.7-8.9-26-17.9-36.5c-9.7-11.3-12.3-27.1-6.8-40.9
		c5.5-13.8,18.3-23.5,33.1-25c13.4-1.4,25.1-8.2,32.2-18.7c0.1-0.1,0.1-0.2,0.2-0.3C315,275.1,317.8,257.6,314.8,236.4z
		 M261.8,146.7c-1.3,11.5-7.5,21.9-17,28.5c-5.5,3.8-10.6,8.7-15.4,14.5c-10.5,13-18,29.4-21.1,46.3c-2.8,15.1,0.1,29.6,8.3,41.9
		c8.5,12.8,8.9,29.4,1,42.6c-7.3,12.2-20.3,19.5-34.3,19.5c-1.2,0-2.4-0.1-3.6-0.2c-3.9-0.3-7.8-0.5-11.8-0.5
		c-6.9,0-13.8,0.5-20.5,1.6c-2.1,0.3-4.1,0.5-6.2,0.5c-11.9,0-23.3-5.3-30.9-14.6c-9-11-11.5-25.9-6.6-39.2c2.6-7,3.8-14.6,3.7-22.9
		c0-1.3-0.1-2.7-0.2-4c-1-14-5.5-27.3-12.7-37.4c-7.4-10.4-9.4-23.7-5.3-35.8c4-12.1,13.6-21.6,25.8-25.4
		c14.4-4.6,29-11.8,43.5-21.4c0,0,0,0,0,0c10.5-7.1,19-15.6,25.1-25.3c7-11.2,19.1-18.1,32.3-18.6c0.5,0,1,0,1.5,0
		c12.6,0,24.6,6,32.1,16.2c0.6,0.8,1.3,1.6,1.9,2.3C259.3,123.7,263.1,135.2,261.8,146.7z"/>
</g>
<g>
	<path class="st13" d="M267.8,113.2c-0.5,0-0.9-0.1-1.4-0.2c-8-1.9-12.3-9.9-12.4-16.5c0.1-6.6,4.4-14.6,12.4-16.5
		c0.5-0.1,0.9-0.2,1.4-0.2c5.2,0,11,6.8,11,16.7C278.7,106.4,273,113.2,267.8,113.2C267.8,113.2,267.8,113.2,267.8,113.2z"/>
	<path class="st13" d="M267.8,113.2c-0.5,0-0.9-0.1-1.4-0.2c-8-1.9-12.3-9.9-12.4-16.5c0.1-6.6,4.4-14.6,12.4-16.5
		c0.5-0.1,0.9-0.2,1.4-0.2c5.2,0,11,6.8,11,16.7C278.7,106.4,273,113.2,267.8,113.2C267.8,113.2,267.8,113.2,267.8,113.2z"/>
</g>
<path class="st13" d="M84.1,147.4c-8.3,0-14.8-1.9-19.3-5.7C50,129.2,47.1,84,73.5,49.2c11.6-15.3,27.7-23.8,45.4-23.8
	c16.9,0,32.5,7.8,42.7,21.3c10,13.1,14.1,27,11.9,40.3c-2.3,14-11.6,27.1-26.1,37C125.3,138.6,101.6,147.4,84.1,147.4
	C84.1,147.4,84.1,147.4,84.1,147.4z"/>
<path class="st13" d="M269.5,291.1c-1.3,0-2.5-0.1-3.8-0.2c-14.9-1.9-27.5-8.8-35.3-19.5c-6.9-9.5-9.4-20.7-7.2-32.7
	c5.7-30.7,26.9-54.4,42.5-56.6c0.4,0,0.7,0,1,0c13.9,0,28.9,25.3,33.4,56.4c2.4,17.3,0.4,31.2-5.6,40c0,0.1-0.1,0.1-0.1,0.2
	C289,286.6,279.9,291.1,269.5,291.1L269.5,291.1z"/>
<g>
	<path d="M199.6,268.9c-2,0.4-3.7-0.1-4.1-1.9c-0.3-1.4,0.5-2.3,1.8-2.7l0.1,0.7c-1.1,0.3-1.5,0.9-1.4,1.8l0,0.1
		c0.3,1.3,1.5,1.7,3.3,1.3c1.7-0.4,2.8-1.2,2.5-2.5l0-0.1c-0.2-0.9-0.9-1.5-2-1.2l-0.5,0.1l0.3,1.6l-0.6,0.1l-0.3-1.6
		c-0.1-0.4,0.1-0.7,0.5-0.8l2.8-0.6l0.1,0.6l-0.8,0.2c0.5,0.2,1,0.6,1.2,1.5C202.9,267.3,201.8,268.5,199.6,268.9z"/>
	<path d="M196.8,261.8l-0.1-0.6l1-0.1c-0.5-0.1-1.1-0.4-1.2-1.5l-0.1-1l0.6-0.1l0.1,1.1c0.1,1.1,1,1.4,2.1,1.3l2.5-0.3l0.1,0.6
		L196.8,261.8z"/>
	<path d="M202,256.5l0-0.7c0.6-0.1,0.9-0.7,0.9-1.6l0-0.1c0-0.8-0.5-1.6-1.8-1.6l-0.8,0c0.6,0.3,0.9,0.8,0.9,1.6
		c0,1.2-0.8,2.2-2.4,2.2c-1.6,0-2.6-0.8-2.6-2.1c0-0.8,0.3-1.4,0.9-1.7l-0.8,0l0-0.6l5-0.1c1.3,0,2.3,0.8,2.3,2.3
		S202.8,256.4,202,256.5z M200.6,254.2c0-0.9-0.7-1.5-2-1.5c-1.2,0-2,0.7-2,1.6l0,0.1c0,0.9,0.8,1.5,2.1,1.5
		C200,255.8,200.7,255.2,200.6,254.2L200.6,254.2z"/>
	<path d="M195.5,247.2l-0.1,0.9l-1-0.1l0.1-0.9L195.5,247.2z M200.9,245.9l0.5,0l-0.3,4.3l-0.5,0l0.1-1.8l-3.9-0.2l-0.1,1.7l-0.5,0
		l0.2-2.3l4.4,0.3L200.9,245.9z"/>
	<path d="M199.2,244.2c-1.5-0.2-2.5-1.2-2.2-2.7c0.2-1.1,0.9-1.7,2-1.7l-0.1,0.6c-0.7,0-1.2,0.4-1.3,1.1l0,0.1
		c-0.2,1.1,0.7,1.7,1.8,1.9c1.1,0.2,2.1-0.2,2.3-1.3l0-0.1c0.1-0.7-0.3-1.2-1-1.4l0.1-0.6c1,0.3,1.6,1.1,1.4,2.2
		C201.9,243.8,200.6,244.4,199.2,244.2z"/>
	<path d="M200.2,234l3.2,0.7l-0.1,0.6l-3-0.6c-0.9-0.2-1.5,0.1-1.7,0.9l0,0.1c-0.2,0.8,0.4,1.7,1.5,1.9l2.6,0.6l-0.1,0.6l-6.8-1.4
		l0.1-0.6l2.8,0.6c-0.5-0.5-0.7-1.1-0.6-2C198.3,234.2,199.2,233.7,200.2,234z"/>
	<path d="M198.6,225.3l0.2-0.7l3,0.9l0.9-2.9l-3-0.9l0.2-0.7l6.7,2l-0.2,0.7l-3-0.9l-0.9,2.9l3,0.9l-0.2,0.7L198.6,225.3z"/>
	<path d="M202.5,216.9l-0.3,0.8l-0.9-0.3l0.3-0.9L202.5,216.9z M208.1,217.1l0.5,0.2l-1.4,4l-0.5-0.2l0.6-1.7l-3.7-1.3l-0.6,1.6
		l-0.5-0.2l0.8-2.2l4.2,1.5L208.1,217.1z"/>
	<path d="M210.1,211.8l0.5,0.2l-1.6,4l-0.5-0.2l0.7-1.7l-5.5-2.2l-0.6,1.5l-0.5-0.2l0.8-2.1l6,2.4L210.1,211.8z"/>
	<path d="M212.5,206.4l0.5,0.2l-1.7,3.9l-0.5-0.2l0.8-1.7l-5.4-2.4l-0.6,1.5l-0.5-0.2l0.9-2l5.9,2.6L212.5,206.4z"/>
	<path d="M212.5,204.2l0.3-0.6c0.6,0.2,1.2-0.1,1.5-0.7l0-0.1c0.3-0.6,0.2-1.2-0.3-1.4c-0.3-0.2-0.7-0.1-1.1,0.4l-0.5,0.6
		c-0.5,0.6-1.1,1-1.8,0.6c-0.9-0.4-0.9-1.4-0.5-2.3c0.6-1.1,1.5-1.3,2.3-1l-0.3,0.6c-0.5-0.2-1.2,0-1.5,0.6l0,0.1
		c-0.3,0.6-0.1,1.2,0.3,1.4c0.3,0.2,0.7,0,1.1-0.5l0.5-0.6c0.5-0.6,1-0.9,1.8-0.6c0.9,0.4,1,1.3,0.5,2.3
		C214.2,204.3,213.3,204.6,212.5,204.2z"/>
	<path d="M213.4,190.9l2.2-3.6l0.6,0.3l-1.9,3l2.1,1.3l1.6-2.6l0.6,0.3l-1.6,2.6l2.2,1.4l1.9-3.1l0.6,0.3l-2.3,3.7L213.4,190.9z"/>
	<path d="M221.3,188.6l0.4-0.5c0.6,0.3,1.2,0.1,1.6-0.5l0.1-0.1c0.4-0.6,0.3-1.1-0.1-1.4c-0.3-0.2-0.6-0.2-1.1,0.3l-0.5,0.5
		c-0.6,0.5-1.2,0.8-1.9,0.4c-0.8-0.5-0.7-1.5-0.2-2.3c0.7-1.1,1.7-1.1,2.4-0.7l-0.4,0.5c-0.5-0.3-1.2-0.2-1.5,0.4l-0.1,0.1
		c-0.4,0.6-0.3,1.1,0.1,1.4c0.3,0.2,0.7,0.1,1.1-0.3l0.6-0.6c0.5-0.5,1.1-0.8,1.8-0.3c0.8,0.5,0.8,1.4,0.2,2.4
		C223,188.9,222.1,189,221.3,188.6z"/>
	<path d="M226,182.9l-2.8-2.1l-1,1.4l-0.4-0.3l1-1.4l-1.3-1l0.4-0.5l1.3,1l1.1-1.5l0.4,0.3l-1.1,1.5l2.8,2.1
		c0.2,0.2,0.4,0.2,0.6-0.1l1-1.4l0.4,0.3l-1.1,1.5C226.9,183.2,226.5,183.3,226,182.9z"/>
	<path d="M232,176.8l-0.4,0.5c-0.2-0.1-0.4-0.3-0.6-0.5c0.2,0.4,0.1,1.3-0.4,1.9c-0.6,0.7-1.5,0.8-2.1,0.3c-0.8-0.7-0.5-1.7-0.1-2.3
		l0.9-1.3l-0.2-0.1c-0.7-0.5-1.3-0.5-1.8,0.1l0,0c-0.4,0.5-0.5,1.1-0.1,1.6l-0.4,0.5c-0.6-0.6-0.6-1.6,0.1-2.4
		c0.8-1,1.9-0.9,2.7-0.3l1.6,1.3C231.3,176.3,231.7,176.6,232,176.8z M230.1,176.2l-0.5-0.4l-0.8,1.2c-0.4,0.6-0.5,1.2,0,1.5
		s1,0.3,1.4-0.2l0.1-0.1C230.6,177.7,230.7,176.7,230.1,176.2z"/>
	<path d="M233.5,173.7l-2.6-2.4l-1.1,1.2l-0.4-0.4l1.1-1.2l-1.2-1.1l0.4-0.5l1.2,1.1l1.3-1.4l0.4,0.4l-1.3,1.4l2.6,2.4
		c0.2,0.2,0.4,0.2,0.6,0l1.2-1.3l0.4,0.4l-1.2,1.3C234.4,174.1,234,174.1,233.5,173.7z"/>
	<path d="M238.6,166.4l-2.6,2.5c1,1,1.9,0.9,2.5,0.3l0,0c0.4-0.4,0.6-1,0.3-1.6l0.5-0.5c0.5,0.9,0.4,1.8-0.4,2.5
		c-0.9,0.9-2.2,0.9-3.4-0.3c-1.2-1.3-1-2.6-0.2-3.4c0.9-0.8,2.1-0.7,3,0.2L238.6,166.4z M235.6,168.5l2.1-2c-0.6-0.6-1.5-0.7-2-0.2
		l-0.1,0.1C235.2,166.8,234.9,167.5,235.6,168.5z"/>
</g>
<g>
	<path class="st13" d="M65.2,301.8c-2.1,0-4.3-0.3-6.5-0.8c-20.8-5.3-35.8-22.5-34.1-39.2c2.1-18.7,17.5-37.5,34.2-41.9
		c1.3-0.3,2.5-0.5,3.8-0.5c6,0,12.6,3.7,17.9,10.2c6.7,8.1,10.9,19.5,11.7,32.1c0.1,1.1,0.1,2.1,0.1,3.2
		c0.2,12.2-3.5,22.7-10.3,29.5C77.4,299.3,71.5,301.8,65.2,301.8C65.2,301.8,65.2,301.8,65.2,301.8z"/>
	<path class="st13" d="M65.2,301.8c-2.1,0-4.3-0.3-6.5-0.8c-20.8-5.3-35.8-22.5-34.1-39.2c2.1-18.7,17.5-37.5,34.2-41.9
		c1.3-0.3,2.5-0.5,3.8-0.5c6,0,12.6,3.7,17.9,10.2c6.7,8.1,10.9,19.5,11.7,32.1c0.1,1.1,0.1,2.1,0.1,3.2
		c0.2,12.2-3.5,22.7-10.3,29.5C77.4,299.3,71.5,301.8,65.2,301.8C65.2,301.8,65.2,301.8,65.2,301.8z"/>
</g>
<g>
	<path d="M21.5,141.5l-1.2-3.9l0.6-0.2l1,3.3l2.2-0.7l-0.9-2.8l0.6-0.2l0.9,2.8l2.4-0.8l-1.1-3.3l0.6-0.2l1.3,4L21.5,141.5z"/>
	<path d="M24.8,130.3l0.5-0.1l0.9,4l-0.5,0.1l-0.4-1.7l-5.4,1.3l0.4,1.5l-0.5,0.1l-0.5-2.1l6-1.4L24.8,130.3z"/>
	<path d="M20.8,123.8c-2,0.2-3.5-0.4-3.7-2.2c-0.2-1.4,0.7-2.2,2-2.4l0.1,0.7c-1,0.2-1.5,0.8-1.4,1.6l0,0.1c0.1,1.2,1.2,1.8,3,1.6
		c1.6-0.2,2.7-0.9,2.6-2.2l0-0.1c-0.1-0.8-0.7-1.5-1.8-1.4l-0.5,0.1l0.2,1.5l-0.6,0.1l-0.2-1.5c0-0.4,0.1-0.6,0.5-0.7l2.7-0.3
		l0.1,0.6l-0.7,0.1c0.5,0.2,0.9,0.7,1,1.6C24.1,122.5,22.9,123.5,20.8,123.8z"/>
	<path d="M22.7,113.4l0.5,0l0.3,4.1l-0.5,0l-0.1-1.8l-5.6,0.4l0.1,1.5l-0.5,0l-0.1-2.1l6.1-0.4L22.7,113.4z"/>
	<path d="M20.8,112c-1.5,0-2.5-0.9-2.5-2.2c0-1.3,1-2.3,2.4-2.3c1.5,0,2.5,0.9,2.5,2.2S22.2,112,20.8,112z M22.7,109.7
		c0-0.9-0.8-1.6-2-1.5s-1.9,0.7-1.9,1.6l0,0.1c0,0.9,0.8,1.6,2,1.5S22.7,110.6,22.7,109.7L22.7,109.7z"/>
	<path d="M19.1,105.3c-0.5-0.3-0.8-1-0.8-1.6c0-1.2,1-2.1,2.5-2.1c1.5,0,2.4,1,2.4,2.2c0,0.6-0.4,1.3-0.9,1.6l0.8,0l0,0.6l-6.6-0.2
		l0-0.6L19.1,105.3z M18.9,103.7c0,1,0.9,1.6,1.9,1.6s2-0.4,2-1.5l0,0c0-1-0.9-1.6-1.9-1.6S18.9,102.7,18.9,103.7L18.9,103.7z"/>
	<path d="M20.9,100.4c-1.5-0.1-2.4-1.2-2.3-2.4c0.1-1.3,1.2-2.2,2.6-2.1c1.5,0.1,2.4,1.2,2.3,2.4C23.5,99.6,22.4,100.5,20.9,100.4z
		 M23,98.2c0.1-0.9-0.6-1.6-1.8-1.7s-2,0.6-2.1,1.4l0,0.1c-0.1,0.9,0.6,1.6,1.8,1.7S23,99.2,23,98.2L23,98.2z"/>
	<path d="M17.9,88.1l0.1-0.7l3,0.5l0.5-2.8l-3-0.5l0.1-0.7l6.6,1L25,85.6l-3-0.5L21.6,88l3,0.5l-0.1,0.7L17.9,88.1z"/>
	<path d="M26.2,79.5l-0.1,0.6c-0.2,0-0.5-0.1-0.8-0.1c0.4,0.3,0.7,1,0.5,1.8c-0.2,0.8-0.9,1.4-1.7,1.2c-1-0.2-1.2-1.2-1.1-1.9
		l0.2-1.5l-0.2,0c-0.8-0.2-1.3,0.2-1.5,0.9l0,0c-0.1,0.6,0.1,1.2,0.6,1.4l-0.1,0.6c-0.8-0.2-1.2-1.1-1-2.1c0.2-1.2,1.2-1.7,2.1-1.5
		l2,0.4C25.4,79.4,25.8,79.5,26.2,79.5z M24.4,79.9l-0.6-0.1l-0.2,1.4c-0.1,0.7,0.1,1.2,0.7,1.3c0.5,0.1,1-0.2,1.1-0.8l0-0.1
		C25.5,80.9,25,80,24.4,79.9z"/>
	<path d="M22.8,76.2c-0.4-0.4-0.6-1.2-0.5-1.8c0.3-1.2,1.4-1.9,2.9-1.5s2.2,1.4,1.9,2.7C27,76.2,26.5,76.8,26,77l0.7,0.2l-0.1,0.6
		l-6.5-1.6l0.1-0.6L22.8,76.2z M22.9,74.7c-0.2,1,0.5,1.7,1.5,2c1,0.2,2,0,2.3-1l0,0c0.2-1-0.5-1.7-1.5-1.9
		C24.1,73.3,23.1,73.6,22.9,74.7L22.9,74.7z"/>
	<path d="M23.3,68.1L23,68.9l-0.9-0.3l0.2-0.8L23.3,68.1z M28.6,68l0.5,0.1l-1.1,4l-0.5-0.1l0.5-1.7l-3.6-1L24,70.8l-0.5-0.1
		l0.6-2.2l4.1,1.2L28.6,68z"/>
	<path d="M29.1,65.2l-3.2-1l-0.5,1.5l-0.5-0.2l0.5-1.5L24,63.5l0.2-0.6l1.5,0.5l0.6-1.7l0.5,0.2l-0.6,1.7l3.2,1
		c0.3,0.1,0.4,0,0.5-0.2l0.5-1.6l0.5,0.2l-0.5,1.7C30,65.1,29.7,65.3,29.1,65.2z"/>
	<path d="M32.7,57.7l-0.2,0.5c-0.2,0-0.5-0.1-0.7-0.2c0.3,0.3,0.5,1.1,0.2,1.9c-0.3,0.8-1.1,1.2-1.8,0.9c-1-0.4-1-1.3-0.8-2l0.4-1.5
		l-0.2-0.1c-0.8-0.3-1.4,0-1.6,0.7l0,0c-0.2,0.6-0.1,1.2,0.4,1.4L28.2,60c-0.8-0.3-1.1-1.3-0.7-2.2c0.4-1.2,1.4-1.4,2.3-1.1l1.9,0.7
		C31.9,57.5,32.3,57.6,32.7,57.7z M30.8,57.8l-0.6-0.2l-0.4,1.3c-0.2,0.7,0,1.2,0.4,1.4c0.5,0.2,1-0.1,1.2-0.6l0-0.1
		C31.7,59,31.5,58,30.8,57.8z"/>
	<path d="M33.1,54.4L30,53.1l-0.6,1.5l-0.5-0.2l0.6-1.5l-1.4-0.6l0.2-0.6l1.4,0.6l0.7-1.7l0.5,0.2l-0.7,1.7l3.1,1.3
		c0.3,0.1,0.4,0.1,0.5-0.2l0.6-1.5l0.5,0.2l-0.7,1.6C34,54.5,33.6,54.6,33.1,54.4z"/>
	<path d="M32,42.6l1.1-2.1c0.5-1,1.4-1.3,2.4-0.8c0.7,0.4,1,1,0.9,1.7c0.4-0.5,1.1-0.8,1.9-0.4c1,0.5,1.3,1.5,0.8,2.6L38,45.6
		L32,42.6z M35.7,42c0.3-0.6,0.2-1.3-0.5-1.6c-0.7-0.3-1.2-0.2-1.6,0.6l-0.7,1.4l2.1,1.1L35.7,42z M38.4,43.3
		c0.4-0.8,0.3-1.4-0.5-1.8c-0.7-0.4-1.3,0-1.7,0.7l-0.7,1.4l2.2,1.1L38.4,43.3z"/>
	<path d="M42.5,37.2l-0.3,0.5c-0.2-0.1-0.5-0.2-0.7-0.3c0.3,0.4,0.3,1.2-0.1,1.9c-0.4,0.7-1.3,1-2,0.6c-0.9-0.5-0.7-1.5-0.4-2.1
		l0.6-1.4l-0.2-0.1c-0.7-0.4-1.3-0.2-1.7,0.4l0,0c-0.3,0.5-0.3,1.1,0.2,1.5l-0.3,0.5c-0.7-0.5-0.8-1.4-0.3-2.3
		c0.6-1.1,1.6-1.2,2.5-0.7l1.7,1C41.8,36.8,42.2,37,42.5,37.2z M40.6,36.9l-0.6-0.3l-0.6,1.3c-0.3,0.6-0.2,1.2,0.2,1.4
		c0.5,0.3,1,0.1,1.3-0.4l0-0.1C41.4,38.3,41.3,37.3,40.6,36.9z"/>
	<path d="M39.4,33.1l0.3-0.5l0.7,0.4c-0.3-0.5-0.3-1.2,0.1-1.9c0.5-0.8,1.4-1.1,2.4-0.5l2.6,1.6l-0.3,0.5l-2.5-1.5
		c-0.8-0.5-1.4-0.4-1.8,0.2l0,0c-0.5,0.9,0,1.8,0.9,2.3l2,1.2l-0.3,0.5L39.4,33.1z"/>
	<path d="M45.3,28l0.2,1.1l1.4,0.9l-0.3,0.5L41,26.8l0.3-0.5l3.5,2.3l-0.6-3.3l0.5-0.7l0.5,2.7l3.5-0.2l-0.4,0.6L45.3,28z"/>
</g>
<g>
	<g>
		<path d="M98.8,200l1.6,1.8c0.8,0.9,0.7,1.9-0.1,2.6c-0.6,0.6-1.4,0.6-2,0.2c0.3,0.6,0.4,1.4-0.4,2c-0.9,0.8-1.9,0.7-2.8-0.2
			l-1.6-1.8L98.8,200z M95.5,205.9c0.7,0.7,1.3,0.8,1.9,0.2c0.6-0.6,0.6-1.3,0-1.9l-1.1-1.2l-1.9,1.7L95.5,205.9z M97.9,203.8
			c0.5,0.6,1.2,0.7,1.8,0.2c0.6-0.5,0.7-1.1,0.1-1.8l-1.1-1.2l-1.9,1.6L97.9,203.8z"/>
		<path d="M103.8,209.3l-4,3l-0.4-0.5l0.8-0.6c-0.7,0.2-1.3-0.1-1.8-0.7c-0.7-0.9-0.4-1.8,0.4-2.5l2.7-2l0.4,0.5l-2.5,1.8
			c-0.8,0.6-0.9,1.2-0.5,1.8l0.1,0.1c0.4,0.6,1.4,0.8,2.4,0.1l2.2-1.6L103.8,209.3z"/>
		<path d="M105,216l-1.9-3c-1.2,0.8-1.3,1.7-0.9,2.4l0,0.1c0.3,0.5,0.9,0.8,1.5,0.6l0.3,0.6c-1,0.3-1.8,0-2.4-0.9
			c-0.7-1.1-0.4-2.4,1-3.3c1.5-0.9,2.8-0.5,3.4,0.5c0.6,1,0.3,2.2-0.8,2.9L105,216z M103.6,212.7l1.6,2.5c0.7-0.5,1-1.3,0.6-1.9
			l-0.1-0.1C105.4,212.6,104.7,212.2,103.6,212.7z"/>
		<path d="M108.2,216.5l0.3,0.6l-0.7,0.4c0.6,0,1.3,0.4,1.7,1.1c0.5,0.9,0.3,1.8-0.8,2.4l-2.9,1.5l-0.3-0.6l2.7-1.4
			c0.9-0.5,1.1-1,0.7-1.8l0-0.1c-0.5-1-1.6-0.9-2.6-0.4l-2.2,1.2l-0.3-0.6L108.2,216.5z"/>
		<path d="M108.2,227.7l-0.2-0.5c0.2-0.1,0.5-0.3,0.7-0.4c-0.5,0-1.2-0.4-1.5-1.2s-0.1-1.7,0.7-2c1-0.5,1.7,0.3,2.1,1l0.8,1.4
			l0.2-0.1c0.8-0.4,1-1,0.7-1.7l0,0c-0.3-0.6-0.8-0.9-1.4-0.8l-0.3-0.6c0.8-0.3,1.7,0.2,2.2,1.1c0.5,1.2,0,2.1-0.9,2.5l-1.9,0.9
			C108.9,227.4,108.5,227.5,108.2,227.7z M109.5,226.3l0.6-0.3l-0.7-1.3c-0.3-0.6-0.9-0.9-1.4-0.7c-0.5,0.2-0.7,0.8-0.5,1.3l0,0.1
			C107.9,226.1,108.9,226.7,109.5,226.3z"/>
		<path d="M119,237.4l-7.3,0l-0.3-0.9l6.1-4.1l0.2,0.7l-5.5,3.6l6.5-0.1L119,237.4z"/>
		<path d="M114.2,244.9l-0.5,0.1l-1-4.2l0.5-0.1l0.4,1.8l3.8-0.9L117,240l0.5-0.1l0.6,2.3l-4.3,1.1L114.2,244.9z M119,242l-0.2-0.9
			l1-0.2l0.2,0.9L119,242z"/>
		<path d="M115.5,246.3l0.1,0.6c-0.7,0.2-0.9,0.8-0.8,1.5l0,0.1c0.1,0.7,0.6,1,1.1,0.9c0.4-0.1,0.6-0.3,0.6-1l0-0.7
			c0-0.8,0.2-1.4,1.1-1.6c0.9-0.2,1.6,0.5,1.8,1.5c0.2,1.3-0.4,1.9-1.2,2.2l-0.1-0.6c0.5-0.2,0.9-0.7,0.8-1.4l0-0.1
			c-0.1-0.7-0.6-1-1.1-0.9c-0.4,0.1-0.5,0.4-0.6,1l0,0.8c0,0.7-0.2,1.3-1.1,1.5c-0.9,0.2-1.6-0.4-1.8-1.5
			C114.1,247.3,114.6,246.5,115.5,246.3z"/>
		<path d="M116.2,253.6l3.5-0.5l-0.2-1.7l0.5-0.1l0.2,1.7l1.6-0.2l0.1,0.6l-1.6,0.2l0.3,1.9l-0.5,0.1l-0.3-1.9l-3.5,0.5
			c-0.3,0-0.4,0.2-0.3,0.5l0.2,1.7l-0.5,0.1l-0.2-1.8C115.3,254,115.5,253.7,116.2,253.6z"/>
		<path d="M116.2,262.1l-0.1-0.6c0.2-0.1,0.5-0.1,0.8-0.1c-0.5-0.2-1-0.8-1.1-1.7c-0.1-0.9,0.5-1.6,1.3-1.7c1.1-0.1,1.5,0.8,1.6,1.6
			l0.3,1.6l0.2,0c0.9-0.1,1.3-0.6,1.2-1.4l0,0c-0.1-0.6-0.4-1.1-1.1-1.2l-0.1-0.6c0.9,0,1.6,0.7,1.7,1.8c0.1,1.3-0.7,2-1.7,2.1
			l-2.1,0.2C117,262,116.5,262.1,116.2,262.1z M117.9,261.3l0.7-0.1l-0.2-1.4c-0.1-0.7-0.5-1.2-1.1-1.1s-0.9,0.5-0.9,1.1l0,0.1
			C116.5,260.5,117.2,261.3,117.9,261.3z"/>
		<path d="M123.4,270l0,0.7l-3.2-0.1l-0.1,3l3.2,0.1l0,0.7l-7-0.2l0-0.7l3.2,0.1l0.1-3l-3.2-0.1l0-0.7L123.4,270z"/>
		<path d="M118.3,280.2l0.3-3.6c-1.4-0.1-2.1,0.6-2.1,1.4l0,0.1c-0.1,0.6,0.2,1.1,0.9,1.4l-0.1,0.6c-1-0.3-1.4-1.1-1.3-2.1
			c0.1-1.2,1.1-2.1,2.8-2c1.7,0.2,2.5,1.3,2.4,2.5c-0.1,1.2-1.1,1.9-2.4,1.8L118.3,280.2z M119.2,276.7l-0.3,2.9
			c0.9,0.1,1.6-0.4,1.7-1.2l0-0.1C120.6,277.7,120.3,276.9,119.2,276.7z"/>
		<path d="M115.5,286.2l-0.5-0.1l0.7-4.2l0.5,0.1l-0.3,1.8l3.8,0.6l0.3-1.7l0.5,0.1l-0.4,2.3l-4.4-0.7L115.5,286.2z M121,285.4
			l0.1-0.9l1,0.2l-0.1,0.9L121,285.4z"/>
		<path d="M114.1,287l-0.2,0.6c-0.6,0-1.1,0.5-1.3,1.3l0,0.1c-0.2,0.8,0.1,1.7,1.3,2l0.8,0.2c-0.5-0.4-0.7-1-0.5-1.8
			c0.3-1.2,1.4-1.9,2.9-1.5c1.6,0.4,2.3,1.5,2,2.7c-0.2,0.8-0.7,1.2-1.3,1.4l0.8,0.2l-0.1,0.6l-4.8-1.1c-1.3-0.3-2-1.4-1.6-2.8
			S113.2,286.9,114.1,287z M114.7,289.6c-0.2,0.9,0.3,1.7,1.5,1.9s2.1-0.2,2.4-1l0-0.1c0.2-0.9-0.4-1.7-1.6-2S115,288.6,114.7,289.6
			L114.7,289.6z"/>
		<path d="M115.1,298.2l-3.1-1l0.2-0.6l3,1c0.9,0.3,1.5,0.1,1.7-0.7l0-0.1c0.2-0.7-0.2-1.7-1.3-2l-2.6-0.8l0.2-0.6l6.7,2.1l-0.2,0.6
			l-2.7-0.9c0.5,0.5,0.6,1.2,0.4,2C117,298.2,116.1,298.5,115.1,298.2z"/>
		<path d="M111.6,300.4l3.3,1.4l0.7-1.6l0.5,0.2l-0.7,1.6l1.5,0.6l-0.3,0.6l-1.5-0.6l-0.7,1.7l-0.5-0.2l0.7-1.7l-3.2-1.4
			c-0.3-0.1-0.4-0.1-0.5,0.2l-0.7,1.6l-0.5-0.2l0.7-1.7C110.7,300.3,111,300.2,111.6,300.4z"/>
		<path d="M110.3,304.9l-0.3,0.6c-0.6-0.3-1.2,0-1.5,0.6l0,0.1c-0.3,0.6-0.2,1.2,0.3,1.4c0.3,0.2,0.7,0.1,1.1-0.4l0.5-0.6
			c0.5-0.6,1.1-1,1.8-0.6c0.8,0.4,0.9,1.4,0.5,2.3c-0.6,1.1-1.6,1.2-2.3,0.9l0.3-0.6c0.5,0.2,1.2,0.1,1.5-0.5l0-0.1
			c0.3-0.6,0.1-1.2-0.3-1.4c-0.3-0.2-0.7,0-1.1,0.4l-0.5,0.6c-0.5,0.6-1,0.9-1.8,0.5c-0.8-0.4-1-1.4-0.5-2.3
			C108.6,304.8,109.5,304.5,110.3,304.9z"/>
	</g>
</g>
<g>
	<path class="st5" d="M269.4,133.9c-1,0-1.9-0.1-2.9-0.3c-16.9-4-26.2-21-26.3-35c0.2-14,9.4-31,26.3-35c1-0.2,2-0.4,2.9-0.4
		c11,0,23.2,14.5,23.2,35.3C292.6,119.4,280.3,133.9,269.4,133.9C269.4,133.9,269.4,133.9,269.4,133.9z"/>
	<g>
		<path d="M257.6,59.2l2.8,6.4l-0.8,0.4l-3-3.3l1.1,4.3l-0.8,0.4l-3.8-5.9l0.6-0.3l3.3,5.2l-1.1-4.2l0.8-0.4l2.8,3.2l-2.6-5.6
			L257.6,59.2z"/>
		<path d="M265.8,63.7l-0.6,0.2c-0.1-0.2-0.2-0.5-0.3-0.7c0,0.5-0.6,1.1-1.4,1.4c-0.8,0.3-1.7-0.1-2-0.9c-0.3-1,0.5-1.7,1.2-2
			l1.5-0.6l-0.1-0.2c-0.3-0.8-0.9-1.1-1.6-0.9l0,0c-0.6,0.2-1,0.7-0.9,1.3l-0.6,0.2c-0.2-0.9,0.3-1.7,1.4-2c1.2-0.4,2.1,0.2,2.4,1.2
			l0.6,2C265.5,62.9,265.7,63.3,265.8,63.7z M264.6,62.2l-0.2-0.6l-1.3,0.5c-0.7,0.3-1,0.8-0.8,1.3c0.2,0.5,0.7,0.8,1.2,0.6l0.1,0
			C264.2,63.7,264.8,62.9,264.6,62.2z"/>
		<path d="M271.5,62.7l0,0.5l-4.3,0l0-0.5l1.8,0l0-5.9l-1.6,0l0-0.5l2.2,0l0,6.4L271.5,62.7z"/>
		<path d="M275.3,61.8l-1.1,0.4l-0.6,1.6l-0.6-0.2l2.6-6.5l0.6,0.2l-1.6,4.1l3.2-1.3l0.8,0.3l-2.7,1.1l0.9,3.6l-0.8-0.3L275.3,61.8z
			"/>
		<path d="M282.6,66.4l-2.9-2.2c-0.8,1.1-0.6,2,0,2.5l0,0c0.5,0.4,1.1,0.4,1.6,0l0.5,0.4c-0.8,0.7-1.7,0.6-2.5,0
			c-1-0.8-1.2-2.1-0.2-3.4c1.1-1.4,2.4-1.4,3.4-0.7c1,0.7,1,2,0.2,3L282.6,66.4z M280.1,63.8l2.3,1.8c0.5-0.7,0.5-1.6-0.1-2
			l-0.1-0.1C281.7,63.1,280.9,62.9,280.1,63.8z"/>
		<path d="M286.5,66.8l0.4,0.5l-0.7,0.6c0.5-0.2,1.1-0.3,1.8,0.6l0.7,0.8l-0.5,0.4l-0.7-0.8c-0.7-0.8-1.6-0.6-2.5,0.1l-1.9,1.6
			l-0.4-0.5L286.5,66.8z"/>
		<path d="M287.1,73.2l0.3,0.6c-0.6,0.4-0.6,1-0.3,1.6l0.1,0.1c0.4,0.6,0.9,0.8,1.3,0.5c0.3-0.2,0.4-0.5,0.2-1.1l-0.2-0.7
			c-0.2-0.7-0.2-1.4,0.5-1.9c0.8-0.5,1.7,0,2.2,0.8c0.6,1.1,0.3,2-0.4,2.4l-0.3-0.6c0.4-0.3,0.7-1,0.3-1.5l-0.1-0.1
			c-0.4-0.6-0.9-0.7-1.3-0.5c-0.3,0.2-0.4,0.5-0.2,1.2l0.2,0.8c0.2,0.7,0.2,1.3-0.5,1.8c-0.8,0.5-1.7,0.1-2.2-0.8
			C286,74.6,286.3,73.7,287.1,73.2z"/>
		<path d="M294,87.8l-2.4,0.6l-0.2-0.7l2.4-0.6c0.3-0.1,0.4-0.3,0.3-0.5l-0.6-2.3l-2.9,0.7l-0.2-0.7l6.8-1.7l0.5,2.1
			c0.3,1.2-0.2,2.3-1.3,2.5c-0.8,0.2-1.5-0.1-1.9-0.6l0,0.1C294.9,87.3,294.7,87.6,294,87.8z M296.3,86.6c0.8-0.2,1.1-0.9,0.9-1.8
			l-0.3-1.3l-2.7,0.7l0.3,1.3C294.8,86.2,295.5,86.8,296.3,86.6z"/>
		<path d="M294.9,93.8l-0.5-3.6c-1.4,0.2-1.9,1-1.8,1.8l0,0.1c0.1,0.6,0.5,1.1,1.1,1.2l0.1,0.6c-1-0.1-1.6-0.8-1.8-1.8
			c-0.2-1.2,0.6-2.3,2.3-2.5c1.7-0.2,2.7,0.7,2.9,1.9c0.2,1.2-0.7,2.1-2,2.3L294.9,93.8z M295,90.2l0.4,2.9c0.9-0.1,1.5-0.7,1.4-1.5
			l0-0.1C296.6,90.9,296.2,90.2,295,90.2z"/>
		<path d="M294.1,95.9l0,0.6c-0.7,0.1-1,0.6-1,1.3l0,0.1c0,0.7,0.4,1.1,0.9,1.1c0.4,0,0.6-0.2,0.8-0.9l0.1-0.7
			c0.1-0.8,0.5-1.4,1.3-1.4c0.9,0,1.5,0.8,1.5,1.8c0,1.3-0.8,1.8-1.6,1.9l0-0.6c0.5-0.1,1-0.5,1-1.2l0-0.1c0-0.7-0.4-1.1-0.9-1.1
			c-0.4,0-0.6,0.3-0.7,0.9l-0.2,0.8c-0.1,0.7-0.5,1.3-1.3,1.3c-0.9,0-1.5-0.7-1.5-1.8C292.5,96.6,293.1,95.9,294.1,95.9z"/>
		<path d="M294.6,106l0.4-3.6c-1.4-0.1-2.1,0.6-2.1,1.4l0,0.1c-0.1,0.6,0.2,1.1,0.8,1.4l-0.1,0.6c-1-0.3-1.4-1.1-1.3-2.1
			c0.1-1.2,1.1-2.1,2.8-2c1.7,0.2,2.5,1.3,2.4,2.5c-0.1,1.2-1.2,1.9-2.4,1.8L294.6,106z M295.5,102.5l-0.3,2.9
			c0.9,0.1,1.6-0.4,1.7-1.2l0-0.1C296.9,103.5,296.6,102.7,295.5,102.5z"/>
		<path d="M296.6,109.2l-0.1,0.6l-0.9-0.2c0.5,0.2,0.9,0.7,0.6,1.8l-0.2,1l-0.6-0.1l0.2-1c0.2-1.1-0.5-1.7-1.5-1.9l-2.5-0.5l0.1-0.6
			L296.6,109.2z"/>
		<path d="M293.7,118.8l-4-3.5l0.3-0.8l5.4-0.1l-0.2,0.6l-4.7,0l3.6,3L293.7,118.8z"/>
		<path d="M288.6,123.2l1.7-3.2c-1.3-0.6-2.1-0.3-2.5,0.4l0,0.1c-0.3,0.5-0.3,1.1,0.2,1.6l-0.3,0.6c-0.8-0.7-0.9-1.6-0.4-2.5
			c0.6-1.1,1.8-1.5,3.4-0.7c1.5,0.8,1.8,2.2,1.2,3.2c-0.6,1.1-1.8,1.3-2.9,0.7L288.6,123.2z M290.8,120.3l-1.4,2.6
			c0.8,0.4,1.6,0.3,2-0.4l0-0.1C291.8,121.8,291.8,121,290.8,120.3z"/>
	</g>
</g>
</svg>
