<?xml version="1.0" encoding="utf-8"?>
<!-- Generator: Adobe Illustrator 28.0.0, SVG Export Plug-In . SVG Version: 6.00 Build 0)  -->
<svg version="1.1" id="Ebene_1" xmlns="http://www.w3.org/2000/svg" xmlns:xlink="http://www.w3.org/1999/xlink" x="0px" y="0px"
	 viewBox="0 0 541 971.2" style="enable-background:new 0 0 541 971.2;" xml:space="preserve">
<style type="text/css">
	
		.st0{fill:none;stroke:#000000;stroke-width:2;stroke-linecap:round;stroke-miterlimit:10;stroke-dasharray:12.198,5.0825,10.165,15.2475,4.066,16.264;}
	
		.st1{fill:none;stroke:#000000;stroke-width:3;stroke-linecap:round;stroke-linejoin:round;stroke-miterlimit:10;stroke-dasharray:2,6,2,6,2,6;}
	
		.st2{fill:none;stroke:#000000;stroke-width:3;stroke-linecap:round;stroke-linejoin:round;stroke-miterlimit:10;stroke-dasharray:20,40,20,25,20,25;}
	
		.st3{fill:none;stroke:#000000;stroke-width:3;stroke-linecap:round;stroke-linejoin:round;stroke-miterlimit:10;stroke-dasharray:12,5,10,15,4,16;}
	
		.st4{fill:none;stroke:#000000;stroke-width:4;stroke-linecap:round;stroke-linejoin:round;stroke-miterlimit:10;stroke-dasharray:1,10,1,10,1,5;}
	.st5{fill:none;}
	.st6{fill:none;stroke:#000000;stroke-width:0.2;stroke-miterlimit:10;}
	.st7{fill:#FF00FF;}
	
		.st8{fill:none;stroke:#000000;stroke-width:3;stroke-linecap:round;stroke-linejoin:round;stroke-miterlimit:10;stroke-dasharray:2,3,2,3,2,6;}
	.st9{opacity:0.49;fill:#FF00FF;}
	
		.st10{fill:none;stroke:#000000;stroke-width:3;stroke-linecap:square;stroke-linejoin:round;stroke-miterlimit:10;stroke-dasharray:20,30,20,30,20,30;}
	.st11{fill:none;stroke:#000000;stroke-linecap:round;stroke-linejoin:round;stroke-miterlimit:10;}
	.st12{clip-path:url(#SVGID_00000112592735901212699320000007811425688161824656_);fill:#1D1D1B;}
	.st13{fill:#FFFFFF;}
	.st14{filter:url(#Adobe_OpacityMaskFilter);}
	.st15{opacity:9.000000e-02;mask:url(#SVGID_00000174573693276005679480000001232159849459081872_);}
	.st16{filter:url(#Adobe_OpacityMaskFilter_00000040547028939416248230000017867543790112155565_);}
	.st17{opacity:9.000000e-02;mask:url(#SVGID_00000129168661963971208220000002337355744375453623_);}
	.st18{fill:#F4F4F5;}
	.st19{filter:url(#Adobe_OpacityMaskFilter_00000026860683541270655700000015384746785823805574_);}
	.st20{opacity:0.12;mask:url(#SVGID_00000160884017285147565220000008796636877075668639_);}
	.st21{filter:url(#Adobe_OpacityMaskFilter_00000045618245696322170210000014565006725152150953_);}
	.st22{opacity:0.12;mask:url(#SVGID_00000058570992696764894500000002192355455855265157_);}
	.st23{filter:url(#Adobe_OpacityMaskFilter_00000088848332790423754630000008053683724840070017_);}
	.st24{opacity:0.12;mask:url(#SVGID_00000040537632866841215880000006105312311919240378_);}
	.st25{fill:#202020;}
	
		.st26{fill:#FFFFFF;stroke:#000000;stroke-width:2;stroke-linecap:round;stroke-linejoin:round;stroke-miterlimit:10;stroke-dasharray:12,5,10,15,4,16;}
	.st27{filter:url(#Adobe_OpacityMaskFilter_00000144310750805174010180000012185381338249730996_);}
	.st28{opacity:0.12;mask:url(#SVGID_00000018194779475135773490000014357654799327760009_);}
	.st29{filter:url(#Adobe_OpacityMaskFilter_00000002367396906589761060000013426525582782579128_);}
	.st30{opacity:0.12;mask:url(#SVGID_00000128482780515206401970000005367160558286897031_);}
	.st31{filter:url(#Adobe_OpacityMaskFilter_00000151527547596933943060000013184821559268999846_);}
	.st32{opacity:0.12;mask:url(#SVGID_00000175288437039353088650000008574550924904980881_);}
	.st33{filter:url(#Adobe_OpacityMaskFilter_00000180333535617300553080000014442141827794130312_);}
	.st34{opacity:0.12;mask:url(#SVGID_00000105420786634810574750000013766141161287159962_);}
	.st35{clip-path:url(#SVGID_00000165942385731973080340000010111180189746430618_);fill:#1D1D1B;}
	.st36{fill:#1D1D1B;}
	.st37{opacity:0.25;fill:#FF7BA6;}
	.st38{fill:none;stroke:#FFFFFF;stroke-width:14;stroke-linecap:round;stroke-miterlimit:10;}
	.st39{fill:#00FF00;}
	.st40{fill:#FF7BA6;}
	.st41{opacity:0.14;fill:#00A498;}
	.st42{fill:#00A498;}
	.st43{opacity:0.78;fill:#FFFFFF;stroke:#000000;stroke-miterlimit:10;}
	.st44{fill:#FFFFFF;stroke:#000000;stroke-miterlimit:10;}
	.st45{fill:none;stroke:#FF7BA6;stroke-width:21;stroke-miterlimit:10;}
</style>
<g>
	<path d="M305,227.2c5.8-5.1,12.5-9.3,20-12.3c4.6-1.9,9.6-2.7,14.5-2.7h37c2.3,0,4.5-0.1,6.7-0.2c41.5-2.9,75.7-31.9,86.4-70.7
		c2.6-9.6,11.3-16.3,21.2-16.3H541v-18h-50.1c-9.9,0-18.7-6.6-21.2-16.2c-11-41.2-48.6-71.5-93.2-71.5H371c-6.6,0-12-5.4-12-12V0
		h-18v7.2c0,6.6-5.4,12-12,12H210c-6.6,0-12-5.4-12-12V0h-18v7.2c0,6.6-5.4,12-12,12h-4.5c-44.6,0-82.1,30.2-93.2,71.3
		c-2.6,9.6-11.3,16.2-21.2,16.2H0v18h49.1c10,0,18.6,6.7,21.3,16.3c10.6,38.9,44.9,68.1,86.4,70.9c2.2,0.2,4.4,0.2,6.7,0.2H202
		c5.5,0,11,1.1,16,3.3c6.9,3,13.1,7,18.5,11.8c23,20.5,8.4,58.6-22.4,58.6h-55.6c-15.2,0-27.5,12.3-27.5,27.5c0,0.1,0,0.2,0,0.3
		c0.1,12.2-9.5,22.2-21.7,22.2h-7.4c-8.3,0-16.1,6.7-16.8,15c-0.9,9.8,6.8,18,16.4,18h81.2c6.7,0,12.5,4.9,13.3,11.5
		c0.9,7.8-5.3,14.5-12.9,14.5H74.6C33.4,395,0,428.4,0,469.6v157.9C0,668.6,33.4,702,74.6,702H121c3.4,0.7-1.5,29.3-18.8,32.4
		c-12.4,2.2-21.6,12.5-21.6,25v0.4c0,22.8-4.8,45.5-14.8,66c-1.7,3.6-3.3,7.2-4.5,10.9c-17.4,47.9,0.5,112.9,52.4,130.8
		c7.6,2.5,15.9,4,24,3.6c11.7-1.2,20.2-11.6,19-23.3c-1.2-11.7-11.6-20.2-23.3-19c-12.8,1.4-25.1-5.9-33.6-16.2
		c-15.3-18.5-19.9-45.4-14.9-68.9c4.9-23.9,22.7-47.7,48.5-49.6c8.7-0.7,8.8-13.2,0-14c-3.4-0.2-6.7-0.1-10,0.3
		c-13.2,1.5-27.8-9.1-24.9-22.1c3.8-17.2,32.3-30.8,61.7-40.4c25.9-8.4,52.7-13.4,79.8-15.2c10.1-0.7,18.8,7.2,19.2,17.3
		c0,0.2,0,0.5,0,0.7c0.4,14.1-3.7,27.8-10.7,40.1c-1.7,3.1-2.6,6.7-2.2,10.5c0.9,8.4,7.9,15.1,16.4,15.6c9.5,0.6,17.6-6.6,18.4-15.8
		c0.4-4.1-0.7-7.9-2.6-11c-7.2-11.4-10.6-24.9-10.3-38.4c0-0.6,0-1.1,0.1-1.7c0.3-10.1,9.1-18,19.2-17.3c27.1,1.8,54,6.8,79.8,15.2
		c29.4,9.6,57.9,23.2,61.7,40.4c2.9,13-11.6,23.6-24.9,22.1c-3.3-0.4-6.6-0.5-10-0.3c-8.8,0.8-8.7,13.3,0,14
		c25.8,1.8,43.6,25.7,48.5,49.6c5,23.5,0.4,50.3-14.9,68.9c-8.5,10.4-20.8,17.6-33.6,16.2c-11.7-1.2-22.1,7.3-23.3,19
		c-1.2,11.7,7.3,22.1,19,23.3c8.1,0.4,16.4-1.2,24-3.6c51.9-17.9,69.8-82.8,52.4-130.8c-1.2-3.7-2.8-7.4-4.5-10.9
		c-10-20.5-14.8-43.2-14.8-66v-0.4c0-12.5-9.3-22.8-21.6-25c-17.3-3-22.2-31.7-18.8-32.4h57.6h2c41.2,0,74.6-33.4,74.6-74.6V469.6
		c0-41.2-33.4-74.6-74.6-74.6H358.3c-6.7,0-12.5-4.9-13.3-11.5c-0.9-7.8,5.3-14.5,12.9-14.5h81.1c8.3,0,16.1-6.7,16.8-15
		c0.9-9.8-6.8-18-16.4-18h-7.8c-12.2,0-21.8-10-21.7-22.2c0-0.1,0-0.2,0-0.3c0-15.2-12.3-27.5-27.5-27.5h-55.2
		C296.3,286,281.8,247.6,305,227.2z"/>
	<ellipse transform="matrix(0.7071 -0.7071 0.7071 0.7071 -35.0951 44.2729)" cx="35.9" cy="64.5" rx="17.5" ry="17.5"/>
	<ellipse transform="matrix(0.7071 -0.7071 0.7071 0.7071 -106.5129 73.8551)" cx="35.9" cy="165.5" rx="17.5" ry="17.5"/>
	<ellipse transform="matrix(0.7071 -0.7071 0.7071 0.7071 98.1713 366.0065)" cx="490.9" cy="64.5" rx="17.5" ry="17.5"/>
	<ellipse transform="matrix(0.7071 -0.7071 0.7071 0.7071 26.7535 395.5887)" cx="490.9" cy="165.5" rx="17.5" ry="17.5"/>
</g>
</svg>
