<?xml version="1.0" encoding="utf-8"?>
<!-- Generator: Adobe Illustrator 28.0.0, SVG Export Plug-In . SVG Version: 6.00 Build 0)  -->
<svg version="1.1" id="Ebene_1" xmlns="http://www.w3.org/2000/svg" xmlns:xlink="http://www.w3.org/1999/xlink" x="0px" y="0px"
	 viewBox="0 0 326.1 408.3" style="enable-background:new 0 0 326.1 408.3;" xml:space="preserve">
<style type="text/css">
	
		.st0{fill:none;stroke:#000000;stroke-width:2;stroke-linecap:round;stroke-miterlimit:10;stroke-dasharray:12.198,5.0825,10.165,15.2475,4.066,16.264;}
	
		.st1{fill:none;stroke:#000000;stroke-width:3;stroke-linecap:round;stroke-linejoin:round;stroke-miterlimit:10;stroke-dasharray:2,6,2,6,2,6;}
	
		.st2{fill:none;stroke:#000000;stroke-width:3;stroke-linecap:round;stroke-linejoin:round;stroke-miterlimit:10;stroke-dasharray:20,40,20,25,20,25;}
	
		.st3{fill:none;stroke:#000000;stroke-width:3;stroke-linecap:round;stroke-linejoin:round;stroke-miterlimit:10;stroke-dasharray:12,5,10,15,4,16;}
	
		.st4{fill:none;stroke:#000000;stroke-width:4;stroke-linecap:round;stroke-linejoin:round;stroke-miterlimit:10;stroke-dasharray:1,10,1,10,1,5;}
	.st5{fill:none;}
	.st6{fill:none;stroke:#000000;stroke-width:0.2;stroke-miterlimit:10;}
	.st7{fill:#FF00FF;}
	
		.st8{fill:none;stroke:#000000;stroke-width:3;stroke-linecap:round;stroke-linejoin:round;stroke-miterlimit:10;stroke-dasharray:2,3,2,3,2,6;}
	.st9{opacity:0.49;fill:#FF00FF;}
	
		.st10{fill:none;stroke:#000000;stroke-width:3;stroke-linecap:square;stroke-linejoin:round;stroke-miterlimit:10;stroke-dasharray:20,30,20,30,20,30;}
	.st11{fill:none;stroke:#000000;stroke-linecap:round;stroke-linejoin:round;stroke-miterlimit:10;}
	.st12{clip-path:url(#SVGID_00000010273852499614090590000002226434896567601065_);fill:#1D1D1B;}
	.st13{fill:#FFFFFF;}
	.st14{filter:url(#Adobe_OpacityMaskFilter);}
	.st15{opacity:9.000000e-02;mask:url(#SVGID_00000056392856673994928380000018230396072938640042_);}
	.st16{filter:url(#Adobe_OpacityMaskFilter_00000063620599057489902700000014112157480003423408_);}
	.st17{opacity:9.000000e-02;mask:url(#SVGID_00000031914380489865786150000014603307370172090296_);}
	.st18{fill:#F4F4F5;}
	.st19{filter:url(#Adobe_OpacityMaskFilter_00000132062900207442423150000009549939802550014382_);}
	.st20{opacity:0.12;mask:url(#SVGID_00000160876144804793265890000015950663121654520457_);}
	.st21{filter:url(#Adobe_OpacityMaskFilter_00000049187452232290542760000004480468030974882749_);}
	.st22{opacity:0.12;mask:url(#SVGID_00000113352688708600386490000015882545935468339350_);}
	.st23{filter:url(#Adobe_OpacityMaskFilter_00000087391861390517477840000001772576785232397493_);}
	.st24{opacity:0.12;mask:url(#SVGID_00000090281944376931852090000000024500575527815058_);}
	.st25{fill:#202020;}
	
		.st26{fill:#FFFFFF;stroke:#000000;stroke-width:2;stroke-linecap:round;stroke-linejoin:round;stroke-miterlimit:10;stroke-dasharray:12,5,10,15,4,16;}
	.st27{filter:url(#Adobe_OpacityMaskFilter_00000152984880220771591350000015930883686785459115_);}
	.st28{opacity:0.12;mask:url(#SVGID_00000036945703247592738040000009593085863157205934_);}
	.st29{filter:url(#Adobe_OpacityMaskFilter_00000178898021839870078410000015758596309165015686_);}
	.st30{opacity:0.12;mask:url(#SVGID_00000107558757506946500390000011818153854010652551_);}
	.st31{filter:url(#Adobe_OpacityMaskFilter_00000165947080418272964400000004697288433814407332_);}
	.st32{opacity:0.12;mask:url(#SVGID_00000109751969850381768100000010451808494986286260_);}
	.st33{filter:url(#Adobe_OpacityMaskFilter_00000041296332265364999720000002751408988209835683_);}
	.st34{opacity:0.12;mask:url(#SVGID_00000103953421430854453440000014936856430661521831_);}
	.st35{clip-path:url(#SVGID_00000091722440880761166300000012082398327880575110_);fill:#1D1D1B;}
	.st36{fill:#1D1D1B;}
	.st37{opacity:0.25;fill:#FF7BA6;}
	.st38{fill:none;stroke:#FFFFFF;stroke-width:14;stroke-linecap:round;stroke-miterlimit:10;}
	.st39{fill:#00FF00;}
	.st40{fill:#FF7BA6;}
	.st41{opacity:0.14;fill:#00A498;}
	.st42{fill:#00A498;}
	.st43{opacity:0.78;fill:#FFFFFF;stroke:#000000;stroke-miterlimit:10;}
	.st44{fill:#FFFFFF;stroke:#000000;stroke-miterlimit:10;}
	.st45{fill:none;stroke:#FF7BA6;stroke-width:21;stroke-miterlimit:10;}
</style>
<g>
	<g>
		<g>
			<path d="M63.2,408.2c-1.1-8.3-0.4-15.7,2.2-22.9c1.4-4,3.5-7.8,6.2-11.5c7.5-10.3,9.7-23.5,5.8-35.6s-13.2-21.7-25.2-25.8
				c-13.7-4.7-25.9-13.1-34.4-23.6c-9.7-12-14.2-26.1-12.8-39.7c0,0,0,0,0-0.1c2.2-19,12.7-38.1,28.1-51c10.2-8.6,15.5-21.7,14.1-35
				c-1.5-13.3-9.4-25-21.3-31.1c-2.1-1.1-4-2.4-5.8-3.9c-9.4-7.9-14.8-23-14.5-40.6c0.3-19.1,7-38.3,18.9-54
				c12-15.9,29.6-25,48.4-25c18.1,0,35.3,8.6,46.2,23c3.4,4.4,6.1,9,8.2,13.7c6.2,14,19.8,23.2,35.1,23.8c0.5,0,1,0,1.5,0
				c14.7,0,28.3-8.1,35.3-21.2c9.8-18.3,26.2-31.4,45.1-35.9c3.3-0.8,6.6-1.2,9.9-1.2c14.3,0,28.5,7.3,39,20
				c11.2,13.5,17.3,31.8,17.3,51.6c0,19.8-6.2,38.1-17.3,51.6c-3.6,4.3-7.6,8.1-12,11.1c-10.6,7.4-17,19.5-17.1,32.4
				c-0.1,12.9,6,25.2,16.5,32.8c15.2,11.1,26.8,35,31,64l0,0c3,21.4,0.1,39.1-8.2,51.2c-0.1,0.1-0.1,0.2-0.2,0.3
				c-6,8.9-15.3,15.2-26.3,17.8c-11.1,2.7-20.6,9.9-25.9,20c-5.4,10.1-6.2,22-2.3,32.7c1.4,3.8,2.5,7.7,3.4,11.8l0,0H63.2z
				 M153.9,339.4c2.5,0,4.9,0.1,7.4,0.2c0.7,0,1.5,0.1,2.2,0.1c11.2,0,22-4.7,29.6-13.1c8.1-8.9,11.8-21,10-32.9
				c-1-6.4-0.8-13,0.4-19.7c3.2-17.1,10.8-33.8,21.4-46.9c3.8-4.7,7.9-8.8,12.1-12.2c10.7-8.5,16.3-21.8,14.9-35.4
				s-9.6-25.5-21.8-31.6c-16.6-8.4-29.7-23.7-35.9-42.1c-4.9-14.4-17.5-24.9-32.7-26.9c-1.8-0.2-3.5-0.3-5.2-0.3
				c-13.3,0-25.8,6.6-33.3,17.8c-4.7,7.1-11.1,13.4-19,18.7c0,0,0,0,0,0c-3.8,2.5-7.7,4.9-11.5,7c-12.3,6.7-20.2,19.4-20.8,33.4
				c-0.6,14,6.2,27.3,17.9,35c4.5,3,8.7,6.8,12.4,11.2c10.2,12.4,16.6,29.4,17.8,47.9c0.1,1.6,0.2,3.2,0.2,4.8
				c0.1,10.7-1.7,20.6-5.4,29.5c-5.2,12.4-3.8,26.6,3.8,37.8c7.4,11,19.9,17.6,33.1,17.6c0.2,0,0.3,0,0.5,0
				C152.7,339.4,153.3,339.4,153.9,339.4z"/>
			<path d="M63.2,408.2c-1.1-8.3-0.4-15.7,2.2-22.9c1.4-4,3.5-7.8,6.2-11.5c7.5-10.3,9.7-23.5,5.8-35.6s-13.2-21.7-25.2-25.8
				c-13.7-4.7-25.9-13.1-34.4-23.6c-9.7-12-14.2-26.1-12.8-39.7c0,0,0,0,0-0.1c2.2-19,12.7-38.1,28.1-51c10.2-8.6,15.5-21.7,14.1-35
				c-1.5-13.3-9.4-25-21.3-31.1c-2.1-1.1-4-2.4-5.8-3.9c-9.4-7.9-14.8-23-14.5-40.6c0.3-19.1,7-38.3,18.9-54
				c12-15.9,29.6-25,48.4-25c18.1,0,35.3,8.6,46.2,23c3.4,4.4,6.1,9,8.2,13.7c6.2,14,19.8,23.2,35.1,23.8c0.5,0,1,0,1.5,0
				c14.7,0,28.3-8.1,35.3-21.2c9.8-18.3,26.2-31.4,45.1-35.9c3.3-0.8,6.6-1.2,9.9-1.2c14.3,0,28.5,7.3,39,20
				c11.2,13.5,17.3,31.8,17.3,51.6c0,19.8-6.2,38.1-17.3,51.6c-3.6,4.3-7.6,8.1-12,11.1c-10.6,7.4-17,19.5-17.1,32.4
				c-0.1,12.9,6,25.2,16.5,32.8c15.2,11.1,26.8,35,31,64l0,0c3,21.4,0.1,39.1-8.2,51.2c-0.1,0.1-0.1,0.2-0.2,0.3
				c-6,8.9-15.3,15.2-26.3,17.8c-11.1,2.7-20.6,9.9-25.9,20c-5.4,10.1-6.2,22-2.3,32.7c1.4,3.8,2.5,7.7,3.4,11.8l0,0H63.2z
				 M153.9,339.4c2.5,0,4.9,0.1,7.4,0.2c0.7,0,1.5,0.1,2.2,0.1c11.2,0,22-4.7,29.6-13.1c8.1-8.9,11.8-21,10-32.9
				c-1-6.4-0.8-13,0.4-19.7c3.2-17.1,10.8-33.8,21.4-46.9c3.8-4.7,7.9-8.8,12.1-12.2c10.7-8.5,16.3-21.8,14.9-35.4
				s-9.6-25.5-21.8-31.6c-16.6-8.4-29.7-23.7-35.9-42.1c-4.9-14.4-17.5-24.9-32.7-26.9c-1.8-0.2-3.5-0.3-5.2-0.3
				c-13.3,0-25.8,6.6-33.3,17.8c-4.7,7.1-11.1,13.4-19,18.7c0,0,0,0,0,0c-3.8,2.5-7.7,4.9-11.5,7c-12.3,6.7-20.2,19.4-20.8,33.4
				c-0.6,14,6.2,27.3,17.9,35c4.5,3,8.7,6.8,12.4,11.2c10.2,12.4,16.6,29.4,17.8,47.9c0.1,1.6,0.2,3.2,0.2,4.8
				c0.1,10.7-1.7,20.6-5.4,29.5c-5.2,12.4-3.8,26.6,3.8,37.8c7.4,11,19.9,17.6,33.1,17.6c0.2,0,0.3,0,0.5,0
				C152.7,339.4,153.3,339.4,153.9,339.4z"/>
		</g>
	</g>
</g>
</svg>
