<?xml version="1.0" encoding="utf-8"?>
<!-- Generator: Adobe Illustrator 28.0.0, SVG Export Plug-In . SVG Version: 6.00 Build 0)  -->
<svg version="1.1" id="Ebene_1" xmlns="http://www.w3.org/2000/svg" xmlns:xlink="http://www.w3.org/1999/xlink" x="0px" y="0px"
	 viewBox="0 0 864.6 957.2" style="enable-background:new 0 0 864.6 957.2;" xml:space="preserve">
<g>
	<path d="M375.3,957.2c0.6-4.5,1.8-9.1,1.7-13.6c-0.3-11.5-1-22.9-1.8-34.4c-1.2-19.2-2.6-38.5-3.7-57.7c-0.6-10-0.7-20-1.3-29.9
		c-1.1-18.8-2.6-37.5-3.8-56.2c-0.8-13.4-1.7-26.9-2.2-40.4c-0.8-24.8-1.4-49.6-2.1-74.4c0-1.1-0.4-2.2-0.6-3.3
		c-4.9,0.8-26.7,17.5-28.9,20.2c-3,1.8-7.2,3-8.7,5.7c-1.5,2.7-0.3,6.9-1.2,10.5c-0.3-0.7-0.5-1.3-0.8-2c-1.1-3.1-1.2-7.1-6.3-5.7
		c-5.3,1.5-6.9,4.4-5.7,9.2c0.5,1.8,0.7,3.7,1,5.6c-0.4,0.2-0.9,0.4-1.3,0.5c-0.9-1.6-1.7-3.2-2.6-4.8c-0.8-1.3-1.8-2.5-2.8-3.8
		c-1.5,1.2-3.7,2.2-4.3,3.8c-0.9,2.2-0.6,4.8-0.8,7.3c-0.2,0-0.7,0.2-0.7,0.1c-3.1-6.9-8.1-6.8-14.4-4.8
		c-17.7,5.7-31.4-2.5-43.9-13.6c-2.8-2.5-4-6.8-5.9-10.3c-0.8-1.4-1.4-2.8-2.7-5.3c-6.2,11.1-6.1,22.4-8.2,33.2
		c-2.2,11.5,7.6,20.6,7.3,31.8c-0.5,0.2-1,0.5-1.6,0.7c-3.2-5.9-6.4-11.8-10.4-19.3c-2.2,3.9-3.7,6.6-5.2,9.4
		c-0.4,0.7-0.6,1.6-0.5,2.4c0.4,11.5-6.2,18.6-15.2,24.3c-2.9,1.8-5.5,4.3-8.1,6.6c-3.6,3.2-7.5,4.9-12.4,3.7
		c-3-0.8-4.7,0.3-5.7,3.2c-0.9,2.3-1.9,4.9-3.6,6.4c-1.3,1.2-3.9,1.3-5.9,1.4c-1.6,0.1-3.2-1.1-4.7-1c-7.8,0.2-12.3-4.9-11.1-12.8
		c0.6-3.7,1.4-7.4,2.2-11.5c-2.1-0.2-3.5-0.3-3.8-0.3c2.7-7.7,5.7-15.2,8-22.8c1.1-3.5,1.6-7.7-3.1-9.9c-2.6-1.2-4.5-1.3-6.3,1.6
		c-1,1.5-3.4,2.2-5.2,3.2c-1.2,0.7-2.7,1.2-3.5,2.2c-5.7,6.9-11.2,14-16.8,21c-1.6,1.9-3.1,4.1-5.1,5.5c-1.6,1.1-4.4,2.1-5.7,1.4
		c-1.4-0.7-2.7-3.6-2.5-5.4c0.5-3.9,1.9-7.7,3.2-11.5c1-3,2.3-6,3.5-9c-0.6-0.4-1.2-0.8-1.7-1.2c-1.6,1.7-3.3,3.4-4.8,5.2
		c-3,3.8-5.7,7.7-8.7,11.4c-2,2.4-4.6,2.1-5.4-0.7c-1-3.6-1.7-7.7-1.2-11.4c0.8-5.6-0.7-8.1-6.3-7.4c-3.3,0.4-7.4,1.1-7.8-2.7
		c-0.3-2.7,2.2-6.3,4.4-8.5c6.6-6.5,13.9-12.2,20.6-18.6c2.1-2,4.8-5.5,1.1-8.1c-3.1-2.2-6.4-1.6-9.8,1.4
		c-7,6.3-14.7,11.9-22.2,17.7c-1,0.8-2.7,1.7-3.7,1.3c-7.4-2.7-11.6,2.8-16.8,6c-0.4,0.3-0.9,0.4-1.7,0.7c-6.2-8.1-2-15.1,2.6-22.3
		c-1.3-0.7-2.2-1.4-3.3-1.6c-3.7-0.7-5.2-2.8-5.4-6.6c-0.2-4.7-1.6-5.3-5.5-2.7c-5.1,3.4-10.7,3.3-16.4,2.7
		c-1.2-0.1-2.5-1.5-3.1-2.6c-0.2-0.5,1.3-1.9,2.1-2.9c2.5-2.8,4.9-5.7,7.6-8.2c3.1-2.9,6.3-5.7,9.8-8.1c8.2-5.7,16.8-10.8,24.6-16.9
		c2.4-1.8,4.8-7.3,3.8-9.1c-2.3-4-7.2-1.9-10.2,0.1c-4.1,2.7-7.2,6.9-11.1,9.9c-6.4,4.9-13,9.7-19.8,14.1c-4.5,2.9-9.2,2-13.8-0.5
		c-4.5-2.5-4.8-4.8-1.4-8.6c4.7-5.3,9.4-10.7,14.1-16.1c0.6-0.7,1-1.6,2.3-3.7c-5,0-9.1,0-13.1,0c-1.8,0-3.9,0.1-5.4-0.6
		c-1.9-0.9-3.4-2.6-5.1-4c1.8-1.5,3.3-3.5,5.4-4.3c4.6-1.7,9.9-2,14.1-4.4c6.8-3.9,13-8.9,19.8-13.8c-1.3-0.9-1.9-1.7-2.2-1.6
		c-5.6,1.5-10.4-0.7-15.3-2.8c-3.9-1.6-7.7-2.2-12-0.6c-3.9,1.5-6.2-0.6-5.4-4.9c0.8-4-0.4-6.7-3.3-9.2c-2.8-2.4-2.5-4.5,1.1-5.9
		c1.2-0.5,2.9-0.9,3.4-1.9c4.7-8,13-7.7,20.5-9.3c1.5-0.3,2.9-1,4.4-1.5c0-0.5,0-1-0.1-1.5c-1.9-0.3-3.9-0.9-5.8-0.7
		c-5.8,0.6-10.4-2.3-14.5-5.7c-1.2-1-1.6-3.8-1.2-5.4c0.4-1.8,3.2-3.4,3.2-4.9c-0.2-3.7-0.5-8-2.4-10.9c-2.9-4.3-1.9-7.4,1.4-9.9
		c3.1-2.4,6.9-3.9,10.5-5.6c3.6-1.7,7.5-2.9,11-4.7c3.4-1.8,3.4-4.3,0.5-6.7c-3.1-2.5-6.5-4.6-9.5-7.3c-1.3-1.2-1.7-3.2-2.5-4.9
		c1.5-0.7,3-1.4,4.5-2.1c1.5-0.6,3.1-1,4.6-1.7c1.7-0.7,3.2-2.2,4.9-2.4c5.5-0.5,9.5-1.4,6.8-8.7c-1.1-3,2-4.8,4.9-5
		c4.9-0.3,5.3-2.6,3.9-6.7c-0.6-1.8-0.6-4.7,0.5-5.8c1.1-1.1,4.3-1.4,5.8-0.5c7.2,4.1,14.2,8.6,21.2,13.1c1.3,0.8,2.6,1.7,3.8,2.6
		c0.4-0.2,0.8-0.5,1.2-0.7c-0.2-1.5-0.2-3.1-0.8-4.4c-2.6-6.1-5.4-12.2-8-18.2c-0.7-1.7-1.8-3.4-1.8-5.1c0-1.9,0.7-5.2,1.5-5.4
		c2.1-0.4,4.9,0,6.7,1.2c2.4,1.6,4,4.2,6,6.4c0.5-0.2,0.9-0.3,1.4-0.5c0-1.7,0.1-3.3,0-5c-0.4-5.1-0.9-10.3-1.1-15.4
		c0-1,0.9-2,1.3-3c1,0.7,2.5,1.1,2.9,2c1.6,3.5,2.9,7.2,4.8,12.1c3.4-4.9,5.7-8.7,8.5-12c1.7-2,4.3-3.3,6.5-4.8
		c2.2-1.5,4.5-2.9,7-4.5c0.6,2,1.7,4.3,2,6.7c0.8,6.7,6,8.8,11,11c3.3,1.4,3.4-1.1,3.3-3.5c-0.2-3.6-0.6-7.3-0.1-10.9
		c0.2-1.8,2.3-3.3,3.5-4.9c1,1.9,2.2,3.7,2.8,5.8c0.4,1.2-0.3,2.6-0.4,3.9c-0.5,7.2,2.3,11.1,9.3,12.1c12.8,1.7,21,8.5,25.8,20.5
		c4.8,11.9,13.1,20.7,26,24.3c5.1,1.4,10.1,3.5,15.2,4.9c5,1.4,10,0.7,14.4-2.3c14.8-9.9,29.6-19.7,44.2-29.8
		c11.3-7.9,22.3-16.2,33.5-24.3c0.7-0.5,1.3-1,2-1.5c7.8-6.8,8-9.1,0.7-16.3c-5.5-5.5-8.1-11.7-5.6-19.5c1.5-4.6-0.6-6.4-4.9-7.2
		c-7.9-1.5-16.5-9.9-17.6-17.2c-1.1-6.7,1.6-11.6,7.9-14.4c13.4-6,26.1-3,38.2,3.8c5.7,3.2,6.1,3.2,9.1-2.9
		c2.4-5.1,5.4-9.9,7.8-15.1c0.8-1.8,0.6-4.1,0.9-6.2c-1.7-0.2-3.5-0.8-5.1-0.4c-15,3.4-30.1,1-45.1,0.1c-5.2-0.3-10.3-2.6-15.4-4.1
		c-4.8-1.4-9.7-2.7-14.1-4.9c-3.5-1.7-6.4-4.6-9.3-7.3c-4.1-3.8-8.2-7.7-12-11.9c-5.2-5.8-7.9-12.5-9-20.5
		c-1.4-10.3-2.2-20.5,0.8-30.2c3.3-10.5,2.5-18.5-5.4-26.6c-3.1-3.2-3.5-9-5-13.7c-1.3-3.9-1.8-8.2-3.6-11.9c-1.3-2.6-4-4.6-6.4-7.1
		c2.8-2.3,1.4-5.8-0.1-9.5c-4.3-10.4-7.2-21.1-6.9-32.5c0.2-10.9,0.4-21.9,1.1-32.8c0.2-3.2,1.6-6.4,2.9-9.5
		c3.3-7.8,6.2-15.8,10.4-23.1c5.1-9,13.3-14.1,23.8-14.7c5.8-0.3,6.9-4.8,9.2-8.6c4.3-7.3,8.2-14.9,13.5-21.4
		c7.6-9.4,19.1-12.8,30-16.9c7.9-2.9,16.2-3.6,24.6-3.3c2.2,0.1,4.5-1.5,5.7-1.9c4.7,1.3,8.7,3.2,12.9,3.5
		c11.2,1,20.7,6.5,30.7,10.7c11.9,5,22.8,11.8,32.5,20.1c7,5.9,13.1,12.8,19.2,19.6c3.9,4.4,8.6,5.8,14.1,6.1
		c4.6,0.2,9.3,1,13.9,1.3c2.7,0.2,5.4-0.2,8.9-0.3c2.3,5.2,8.8,5,14,7c2.6,1,5.5,1.5,8.2,2.4c4.6,1.5,9.2,3.5,11.3-4.1
		c3.6,10.5,5.5,11.7,10.8,9.8c3.6,2.5,6.2,4.7,9.2,6.3c3.7,2,7.6,3.3,11.4,5.1c3.2,1.5,5.2,0.5,7.3-2c4.9-5.6,10-11.1,15.3-16.4
		c2.9-2.9,5.5-5.5,2.2-10.9c12.5,3.8,12.2-7.7,17.2-12.6c1.4-1.4,0.5-5.1,0.7-7.8c0.4-0.1,0.8-0.3,1.3-0.4c1,1.5,1.9,3,3.2,5.1
		c7.2-1.9,11-6.6,10.4-14.8c1.5,0.4,2.5,0.5,3.3,1c3.6,2.3,5.4,0.5,5.9-3c0.5-3.3,1.5-4.9,5.3-3.6c0.8,0.3,2.9-1.5,3.6-2.7
		c0.8-1.2,0.6-3,0.9-4.7c8.7,3.6,8.7,3.6,11-3.1c3.4,3.1,6.6,2.8,9.4-0.8c0.3-0.4,1.2-0.6,1.9-0.5c9.3,0.3,9.7-5.5,9.8-14.2
		c0-2.7,0.3-5.4,0.5-8.1c0.8-0.1,1.7-0.1,2.5-0.2c0.7,3,1.6,6.1,2.2,9.1c0.7,3.4-0.7,7.9,4.4,8.9c4,0.7,7.3-2.6,9-8
		c0.2-0.5,0.7-1,0.8-1.1c2.1,1.9,3.9,3.6,5.8,5.3c1.6-2.4,3.3-4.8,5-7.2c-0.1,0,0.5,0.1,0.5,0.2c-0.3,3.5,0.5,6.6,4.6,6.8
		c4.1,0.2,6.9-1.9,8-6.1c0.8-2.9,1.8-5.8,2.7-8.7c0.6,0,1.2,0,1.7,0.1c0.4,1.3,1.3,2.7,1.1,4c-1.7,11,0,13.1,10.6,10.9
		c3.5-0.7,5.8-0.6,8.5,1.7c2.6,2.2,4.6,1.5,5.7-2.3c1.1-4,3-7.7,4.5-11.6c0.7,0.2,1.5,0.3,2.2,0.5c0.1,1.7,0.7,3.7,0.1,5.2
		c-2.4,6.3,4,9,5.2,13.7c1.4-0.6,3.4-0.9,4.2-1.9c4.6-6.7,4.6-6.8,11.6-2.8c2.8,1.6,3.4,3.7,2.4,6.7c-0.6,1.7-0.5,3.5-0.8,5.3
		c1.6-0.9,3.1-1.8,4.7-2.7c0.4-0.2,0.9-0.4,2.1-1c0.2,1.7,0.1,3.1,0.5,4.3c0.6,2,1.1,4.6,2.6,5.5c1.2,0.8,3.7-0.4,5.6-0.8
		c0.6-0.1,1-1,1.6-1.2c2.1-0.5,4.2-0.9,6.3-1.3c-0.7,1.9-1.3,3.9-2.2,5.8c-0.5,1-2,1.6-2.2,2.6c-0.3,1.4,0.1,2.9,0.3,4.4
		c1.6-0.2,3.4,0,4.8-0.6c1-0.4,1.5-2,2.2-3c0.4,0.1,0.8,0.2,1.3,0.3c-0.3,1.9-0.4,3.9-0.8,5.8c-1,3.8,0.4,5.7,4.4,5.4
		c3-0.2,6-0.7,8.9-0.7c4.3,0.1,5,1.7,2.8,5.3c-0.5,0.8-1.4,1.6-1.6,2.5c-0.4,1.6-0.3,3.3-0.5,5c1.5-0.2,3.1-0.2,4.4-0.8
		c2.9-1.3,5.6-3.1,8.5-4.1c1.2-0.4,2.9,0.5,4.3,0.8c-0.7,1.1-1.2,2.5-2.2,3.3c-1.7,1.4-3.6,2.4-5.4,3.5c-3.5,1.9-3.8,4.6-2.3,8
		c2.6,6.4,4.2,7.1,10.3,3.8c0.4-0.2,0.9-0.6,1.3-0.7c2-0.2,4-0.3,6-0.4c-1.1,1.6-2.2,3.2-3.5,4.7c-0.5,0.6-1.5,0.8-2,1.5
		c-1.1,1.5-2,3.2-2.9,4.8c1.7,0.1,3.5,0.3,5.2,0.2c1.7-0.1,3.4-0.5,5.1-0.7c0.2,0.4,0.4,0.8,0.6,1.1c-0.8,0.9-1.6,1.7-2.3,2.7
		c-0.8,1.2-2.1,3.1-1.8,3.6c0.9,1.1,2.6,2.1,4,2.1c2.6,0.1,5.3-0.8,7.9-0.8c1.3,0,2.6,0.9,3.9,1.4c-0.8,1.1-1.4,2.6-2.5,3.2
		c-2.3,1.2-4.9,1.9-7.5,2.8c-3,1.1-3.7,2.9-2.3,5.8c2.3,5,6.7,6.4,11.6,7.5c2.6,0.5,5,1.9,7.5,2.9c-2.3,1.2-4.5,2.5-6.9,3.7
		c-0.7,0.4-1.8,0.3-2.3,0.8c-0.9,0.8-1.5,1.9-2.3,2.9c0.9,0.5,1.9,1.5,2.8,1.5c7.5,0,15,0.2,22.5-0.3c5.9-0.4,11.8-2,17.7-2.6
		c1.8-0.2,4.7,0.8,5.3,2c0.7,1.4-0.1,4.6-1.3,5.5c-3.2,2.3-6.8,4.4-10.5,5.3c-9.2,2.3-18.5,4.1-27.9,5.8c-4.1,0.8-5.7,2.9-5.1,7
		c0.5,3.6,2.7,5,6.1,5.3c3,0.3,5.9,0.9,8.8,1.4c-0.1,0.6-0.1,1.2-0.2,1.9c-1.3,0-2.7-0.2-3.9,0.1c-2.3,0.5-5.1,0.8-6.7,2.3
		c-1.4,1.3-1.8,4.1-1.6,6.2c0.1,0.9,2.7,2,4.3,2.1c4.7,0.4,8.4,2.3,10.3,7.6c-2.1-0.4-4.2-0.9-6.4-1.1c-2.7-0.3-5.9-1.4-6.7,2.9
		c-1.2,5.8,0.2,9.1,4.4,9.7c3.4,0.5,4.4,1.9,4.3,5.3c-0.1,6.4,0.4,12.8,0.8,19.2c0.2,2.9-1,3.7-3.6,2.9c-1.1-0.3-2.1-1-3.2-1.4
		c-3.8-1.4-5.5,0-5.7,4.1c-0.2,3.3-0.4,6.6-1.3,9.7c-1.2,4.2-0.6,6.8,4,7.8c1.5,0.3,2.8,1.5,4.2,2.2c0,0.5,0,1.1,0,1.6
		c-2.4,0.4-4.8,1.4-7.1,1.2c-3.1-0.4-5.2,0.6-5.7,3.4c-0.4,2.1,0.2,4.7,1.2,6.6c0.6,1.2,2.8,1.5,3.7,3.1c-5.5,1.2-6.5,6.9-11.7,7.3
		c-3.6,0.3-3.9,5.6-1,8.9c2.3,2.6,4.5,5.2,6.7,7.8c-0.4,0.4-0.8,0.8-1.1,1.2c-0.9-0.2-1.9-0.1-2.7-0.5c-5.9-2.9-6.8-2.6-9.1,3.3
		c-2.8,7.2-6.4,14.3-4.6,22.6c0.2,1-1.2,2.4-2,3.5c-0.5,0.6-2,0.8-2,1.3c-1.2,8.2-10.4,14.3-6.5,23.8c0.1,0.2-0.1,0.6-0.2,0.9
		c-7.9-1.2-8.5-0.3-5.4,9.9c-2.1-0.6-3.6-1.3-5.2-1.4c-1.6-0.1-3.9-0.1-4.7,0.9c-0.8,0.9-0.4,3.2,0,4.7c0.4,1.5,1.4,2.9,2.5,5.1
		c-4.6-0.6-4.7-8.4-9.9-4.2c-2.5,2-5.9,3.6-7,6.1c-1,2.3,0.5,5.8,1.1,9.7c-1.5-2-2.3-3.4-3.4-4.5c-0.9-0.8-2.6-1.8-3.4-1.4
		c-4.6,2.1-9,4.7-13.6,7c-0.9,0.4-2.1,0.2-3.1,0.5c-5,1.3-10,2.7-16.7,4.6c-2.4-0.2-6.9-0.8-11.4-0.7c-1.3,0-2.9,2.1-3.6,3.6
		c-0.7,1.4,0,3.4-0.6,4.9c-1.1,2.9-2.9,4.2-5.5,1.3c-0.8-0.8-2.2-2.3-2.4-2.1c-4,2.5-8.2,4.9-11.6,8.1c-1.2,1.2-0.7,4.4-0.6,6.7
		c0,1.4,0.6,2.9,1,4.3c-0.6,0.3-1.1,0.5-1.7,0.8c-1-1.4-2.1-2.8-2.9-4.3c-1.3-2.9-3.9-4.3-5.8-2.1c-5.1,6-12.8,6.8-19.2,10.1
		c-4.9,2.5-6.8,5.4-5.4,10.6c0.2,0.6-0.1,1.2-0.1,1.8c-0.6,0-1.1,0.1-1.2,0c-2.2-5.2-5.2-6.5-10.2-3.2c-2.4,1.6-5.8,1.5-8.5,2.7
		c-5.2,2.2-5.2,2.5-4.5,8.1c-1.2-0.7-2-1.4-3-1.9c-0.8-0.4-1.7-0.7-2.6-1.1c-2.4,5.8-0.3,12.3,4.6,14.5c2.7,1.2,3.8,2.8,1.4,5.2
		c-1.5,1.5-3.2,2.7-4.9,4.1c1.8,0.7,3.7,1.4,5.5,2.1c-0.2,0.4-0.3,0.8-0.5,0.9c-2,0.7-4.1,1.2-6.1,1.9c0.8,2.4,1.4,4.8,2.3,7.2
		c0.6,1.5,1.9,2.8,2.3,4.4c0.2,0.8-0.9,2.6-1.7,2.8c-8.2,2.2-8.2,2.1-3.5,9c-2.3,1-4.6,2-7,3.1c1.1,2.1,2.1,4.2,3.6,7.1
		c-5.3-3.8-7.5-0.7-10.8,2.7c-7.2,7.3-16.1,13.7-26,15.1c-14.1,2-28.5,0.5-42.1-5.1c-1.5-0.6-3.1-1.2-4.7-1.6
		c-0.4-0.1-1,0.1-2.4,0.2c1.1,2.1,1.8,4,2.9,5.8c2.2,3.6,1.4,7.1-1.5,9.5c-7.3,5.8-14.4,12-22.5,16.5c-16,8.9-32.6,7.2-49,0.1
		c-18.6-8-31.2-21.6-39.1-40.1c-1-2.3-3.4-4.5-5.7-5.4c-5.1-1.9-10.5-2.9-15.8-4.4c-3.7-1-5.2,0.8-4.6,4.1
		c1.2,6.3,2.4,12.7,4.3,18.8c3.7,12,7.8,23.9,11.8,35.8c1.3,3.8,2.6,7.5,4.3,11.1c0.5,0.9,2.4,1.8,3.6,1.7
		c19.2-2.1,37.9,1.6,56.5,5.2c12.8,2.5,25.1,7.6,37.3,12.4c13.1,5.2,26,10.9,38.6,17.2c17.5,8.7,35.4,15.8,55.1,15.6
		c13.1-0.1,26.2-1,39.2-5.8c10.5-3.9,19.9-8.7,29.4-14.3c5.5-3.2,12.4-5,18.9-5.4c17.2-1.3,34.1,1.8,50.8,6.2
		c4.6,1.2,9.5,1.4,14.2,2.6c1.7,0.4,3,2.5,4.5,3.8c-1.6,1-3,2.7-4.7,3.1c-22.2,5-41.5,15.9-60.1,28.6c-3.4,2.3-3.9,4.9-2.6,8.5
		c0.9,2.5,1.1,5.3,1.6,8c-0.8,0.2-1.6,0.5-2.4,0.7c-0.9-2.3-2-4.5-2.8-6.8c-2.2-6.1-4.2-7-10.1-4.3c-5.3,2.5-10.5,5.2-15.8,7.7
		c-0.6,0.3-1.6,0.1-2.4,0.1c-2.3,0-4.7-0.3-6.9,0.1c-6.5,1.3-13.8,1.4-16.7,10c-1.8-6-5.9-9.5-10.9-6.9c-3.6,1.9-5.5,6.9-8.6,11
		c-0.7-2.7-1.4-5.2-2.4-8.8c-2.3,2.9-3.9,5-5.5,7.1c-0.5-0.3-1-0.5-1.5-0.8c0.4-1.4,1.1-2.8,1.2-4.2c0.1-2,0.6-4.9-0.4-6
		c-1.3-1.3-4.3-2-6.2-1.5c-2.5,0.5-4.7,2.3-6.9,3.7c-1.4,0.9-2.7,2.2-4,3.3c-0.4-0.3-0.8-0.5-1.2-0.8c0.5-1.4,1.3-2.8,1.4-4.2
		c0.1-1.9-0.3-3.7-0.5-5.6c-1.4,1.1-2.8,2.1-4.1,3.3c-0.5,0.5-0.8,1.3-2,2.3c2.2-6,0.4-9.5-5.3-11.6c-5.5-2-4.6,3.9-6.6,5.1
		c-2.4-3.1-4.5-5.9-6.6-8.7c-2.7,2.1-5.4,4.2-8.6,6.7c0.2-4.7,7.9-8.4,0.6-13c-6.8-4.3-9.8,0.6-13.3,5.1c-0.5-0.2-0.9-0.4-1.3-0.6
		c-0.3-2.5-0.2-5-0.8-7.3c-0.7-2.6-1.2-6.1-3.1-7.3c-8.6-5.4-17.5-10.1-26.4-15c-3.6-1.9-6.7-1.8-8.3,2.8c-0.4,1.2-1.7,2-2.7,3
		c-0.4-0.3-0.8-0.5-1.2-0.8c0.6-1.6,1.1-3.2,1.8-4.8c1.2-2.8,0.5-4.9-2.3-6.1c-6.6-2.6-13.2-5.2-19.9-7.6c-5.6-1.9-11-2.8-13.8,4.4
		c0-2,0.8-4.7-0.2-5.8c-1.2-1.4-3.8-1.7-5.9-2c-11.2-1.7-22.4-3.3-33.7-4.8c-1.7-0.2-3.4,0.3-5.2,0.4c-0.2,0.5-0.5,1-0.7,1.5
		c4,3.5,7.8,7.4,12.1,10.6c8.8,6.6,14.4,15.6,19.6,24.8c4.6,8.2,11.3,14,18.9,18.8c16.6,10.7,31.9,23.2,45.1,37.7
		c13.4,14.7,25.4,30.7,37.5,46.6c12.3,16.1,25.6,31.1,41.9,43.2c15.4,11.3,32.8,17.1,52,18.4c22.6,1.6,43.5-3.4,64.1-12.2
		c8.8-3.8,18.3-6.2,27.7-8.4c12.4-3,25,3.1,29.2,13.3c3.3,8,0.7,16.2-7.1,21.9c-8.1,5.8-17.6,6.6-27.1,7.3c-3.8,0.3-7.9,1.2-11.3,3
		c-1.8,0.9-2.6,4.2-3.5,6.5c-0.1,0.3,2.4,2.3,2.7,2.1c1.9-1.3,3.5-2.9,5.1-4.5c0.5-0.4,0.9-0.9,1.3-1.4c3.2,3,2.2,8.4-1.8,9.9
		c-5.7,2.2-12.3-0.6-14.1-6c-2-6.1,0.9-12.1,7.3-13.6c5.8-1.3,11.9-1.7,17.7-3.1c5.6-1.4,11-3.5,16.4-5.6c3.8-1.5,5.6-4.7,4.6-8.9
		c-1-4.4-4-7.6-8.4-7.2c-7.7,0.7-15.6,1.6-22.9,3.8c-8.4,2.5-16.3,6.6-24.5,10c-20.8,8.5-42.2,13.6-64.8,11.8
		c-7.2-0.6-14.2-3.3-21.2-5.5c-18.4-5.6-33.5-16.4-47.7-29.2c-14.4-13-25.1-28.7-36.5-44.2c-17-23.2-35.7-44.8-58.7-62.3
		c-3.8-2.9-7.7-5.6-12-8.8c-0.4,1.7-0.9,2.8-0.8,3.8c1.9,11.5,3.4,23.1,6.1,34.4c7,29.6,23.3,53.2,48.3,70.3
		c20,13.7,40.6,26.6,60.9,40c13.7,9.1,27.4,18.3,41,27.7c13.3,9.2,26.2,18.8,39.5,27.9c13.8,9.4,28.3,17.7,41.6,27.7
		c9.9,7.4,21,9.6,32.5,11.5c1.2,0.2,2.2,1.9,3.2,2.8c-1.2,0.5-2.4,1.3-3.7,1.6c-0.9,0.2-2-0.5-2.9-0.3c-1.1,0.3-2.9,0.9-3.1,1.7
		c-0.2,1,0.7,2.6,1.6,3.2c1.6,1.2,3.7,1.6,5.3,2.7c5.6,4,11.2,8.1,16.6,12.5c1,0.8,1.9,3.3,1.4,4.3c-3.7,7.4,0.5,12.7,4,18.4
		c1.3,2.1,2.5,4.3,3.1,6.7c0.3,1.1-0.9,2.6-1.4,3.9c-1.2-0.7-2.7-1.1-3.4-2.1c-1.6-2.1-2.9-4.5-4-6.9c-4.6-10.6-12.2-19-20.5-26.7
		c-3.8-3.5-8.3-6.1-14.1-4.9c-0.9,0.2-2.6-0.5-2.8-1.2c-1.6-4.2-4.7-3.5-8.2-3.5c-4-0.1-8.1-1.4-12-2.9c-0.8-0.3-1.5-3.7-0.9-4.8
		c2.3-4,1.5-7.1-1.8-9.6c-5.1-3.9-10.3-7.6-15.5-11.3c-0.5,0.3-1,0.6-1.5,0.9c0,1.8-0.2,3.7,0,5.5c1.5,9.5-1.3,18.1-5.1,26.6
		c-0.6,1.3-1.5,2.7-2.6,3.6c-0.9,0.7-2.3,0.7-3.5,1.1c0-1.2-0.5-2.6,0-3.5c6.2-11.4,5-23.3,2.7-35.3c-1.1-5.6-4.5-9.6-9.3-12.4
		c-18.8-11.3-37.8-22.5-56.5-34.1c-22.2-13.7-44.5-27.5-66.4-41.8c-12.5-8.2-24.8-16.8-36.5-26.2c-14.1-11.3-25.1-25.4-33.8-41.5
		c-10.1-18.7-13.2-38.8-14.7-59.5c-0.4-5.3-1.1-10.6-2-15.8c-0.3-1.6-1.5-3.9-2.7-4.3c-10.3-3.1-20.6-5.9-31-8.5
		c-1.7-0.4-3.8,0.9-5.6,1.6c-5.5,2.3-6.8,1.6-6.9-5.8c-1.2,2.1-2.2,3-2.2,3.9c-0.3,7.1-0.6,14.2-0.7,21.3c0,2,0.3,4,0.4,6
		c1.6,27.2,3.3,54.4,4.8,81.7c0.5,8.3,0.6,16.6,1.2,24.9c1.1,16.4,2.4,32.8,3.7,49.2c1.1,14.1,2.2,28.2,3.3,42.3
		c1.9,24,4,48,5.7,72.1c0.8,11.6,0.8,23.3,1.4,34.9c0.1,2.5,1.3,5,1.9,7.5C403.3,957.2,389.3,957.2,375.3,957.2z M756.2,68.1
		c-0.6-0.1-1.2-0.2-1.9-0.4c0.4-2.5,0.6-5,1.1-7.4c0.9-4.4-1.8-7.1-4.9-9c-3.1-2-4,1.6-5.6,3.2c-1.5,1.4-3.4,2.4-5.1,3.5
		c-0.4-0.5-0.8-1.1-1.3-1.6c1.1-1.5,2.6-3,3.2-4.7c0.6-1.8,0.2-3.9,0.3-5.8c-1.9,0.5-3.9,0.6-5.6,1.4c-1.6,0.8-2.8,2.3-4.2,3.5
		c-0.4-0.2-0.9-0.4-1.3-0.7c0.2-1.6,0-3.4,0.5-4.9c1-3.1,1.7-5.9-2.1-7.6c-3.6-1.6-6.8-1.6-8.9,2.4c-0.6,1.1-1.5,2-2.1,2.8
		c-2-4.1-3-9-5.9-11.5c-3.2-2.6-8.3-4-12.5-3.8c-3.9,0.2-7.8,3.1-11.3,4.6c0.5-7.2,0.5-7.2-7.9-6.7c-1.3,0.1-2.7,0.2-4,0
		c-3.6-0.6-5.6,0.7-6.6,4.3c-0.4,1.7-1.9,3.1-3.5,5.7c-0.9-2.8-1.3-4.1-1.7-5.5c-0.7-2.7-2.2-3.9-5.1-3.1c-9.5,2.6-19,5.2-28.4,7.8
		c-0.6,0.2-1.2,0.6-1.8,0.9c-6.4,3.4-13.1,6.4-19.2,10.3c-7.4,4.7-14.5,9.9-21.4,15.2c-1.2,1-1.4,3.7-1.5,5.6
		c-0.1,1.6,0.6,3.3,0.9,5c-1.9-0.3-3.9-0.2-5.5-0.9c-4-1.7-6.2-0.2-8,3.4c-0.9,1.7-2.6,3.1-4.2,4.4c-2.2,1.9-4.9,3.5-6.9,5.6
		c-5.1,5.4-9.9,11.2-14.9,16.7c-3.9,4.2-3.6,6,1.8,8.2c5.7,2.3,11.5,4.4,17.2,6.8c7.7,3.2,15.5,6.4,23.1,9.8c3.5,1.6,5-0.1,6.9-2.7
		c2.1-3,4.9-5.5,7.4-8.3c0.6,0.5,1.1,0.9,1.7,1.4c-1.1,1.9-2,4-3.3,5.7c-4.8,6.5-4.9,6.4,1.9,10.5c0.7,0.4,1.5,0.8,2.2,1.2
		c2.9,1.6,5.3,1.4,7.3-1.5c1-1.4,2.7-2.4,4.1-3.5c0.4,0.3,0.8,0.6,1.2,1c-0.8,1.7-1.7,3.3-2.3,5.1c-0.4,1.2-0.5,3.6,0,3.8
		c6.6,2.8,12.1,9.9,20,6.1c0.9,2,1.4,5,2.6,5.4c1.7,0.5,4.2-0.7,6-1.8c4.1-2.6,7.8-5.7,11.8-8.4c2.9-1.9,6.2-3.3,9.3-4.9
		c0.4,0.5,0.7,1,1.1,1.5c-1.4,1.5-2.7,3-4.2,4.4c-3,2.6-6.3,4.9-9.1,7.7c-3,3-2.7,6.8,0.2,9.2c4,3.3,8.7,3,12.4-0.6
		c0.7-0.7,1.8-1,3.8-2c-0.4,2.3-0.4,3.6-1,4.6c-2.2,3.9-0.2,6,3,7.5c3.3,1.6,4.6-0.5,6.1-3.1c0.8-1.4,2.8-2.1,4.3-3.1
		c0.2,1.7,0.5,3.5,0.6,5.2c0.1,1.7-0.1,3.3-0.2,5c1.7-0.7,4-0.9,5-2.1c4-5.1,7.7-10.5,11.2-15.9c10.4-16.1,23.9-26.9,44.1-26
		c10.1,0.4,20.2,1.7,30.3,2.4c5.6,0.4,11.3,0.8,16.9,0.3c2-0.2,4.9-2.6,5.5-4.5c0.5-2-0.7-5.3-2.3-6.9c-0.9-0.8-4.2,0.9-6.3,1.5
		c-0.9,0.3-1.7,0.7-2.7,1.2c-1.6-4.2-0.1-7.1,2.3-9.9c4.4-5,4.1-7.7-1.4-12.5c-1,1.1-2.1,2-2.9,3.2c-0.9,1.4-1.3,3-2,4.6
		c-3.7-6.6-2.8-8.6,3.6-13.2c-1.1-2-2-5.7-3.5-6c-3.3-0.6-6.9,0.6-11.4,1.2c1.1-3.1,2.4-6.1,3-9.1c0.3-1.6-0.8-3.4-1.2-5.2
		c-1.4,0.6-3.3,0.9-4.2,2c-1.3,1.4-1.8,3.6-2.9,5.2c-0.6,0.8-1.8,1.2-2.7,1.8c-0.4-1.1-1.5-2.4-1.2-3.3c0.6-2.2,1.5-4.4,2.7-6.4
		c3.4-5.6,2-9.6-4.9-12.8C758.5,63.3,757.3,65.7,756.2,68.1z M367,614.8c-4.7-0.5-8.3-1.6-11.4-1c-9,1.9-13.7-2.9-10.2-13.1
		c1.1-3.2,0.3-5.1-2.4-6.7c-3-1.8-6-3.6-8.8-5.7c-14.6-10.8-13.9-26.8-4.9-37.5c4.4-5.3,9.2-9.9,4.4-17.6c7-2.1,9.5-7.4,10.8-13.5
		c1.2-5.7,3.7-11.7-4.1-16.5c3-0.7,4.5-0.8,5.7-1.4c1-0.5,1.8-1.6,2.6-2.4c-1-0.7-2-2.1-2.9-2.1c-2.2,0.1-4.6,0.4-6.6,1.4
		c-3.1,1.6-5.2,0.8-6.8-1.8c-1.6-2.8-2.8-5.8-4.4-9.2c3.7-0.6,7.1-1.1,10.5-1.7c3.4-0.7,4.7-3.3,2.8-5.9
		c-7.4-9.9-7.4-22.3-11.9-33.1c-1.4-3.4-2.3-3.8-5.1-1.5c-13.7,11-27.4,22.2-41.5,32.8c-16.5,12.4-28.3,27.6-34.5,47.6
		c-5.1,16.2-11.3,32-18,47.7c-5.7,13.5-8.5,26.6-1,40.2c0.7,1.3,1.3,2.7,1.8,4.1c3.1,8.1,5.7,16.3,4.3,25.2
		c-0.8,4.8-0.6,9.5,1.5,14.5c6.9,16.9,24.8,26.1,42.3,21c10.2-3,10.2-3,11.1-12.4c3.1,0,7.2,1.2,9.1-0.3c2.1-1.7,2.2-5.8,3.3-9.5
		c4.4,3.5,8.1,2.4,12.1-0.8c5.3-4.2-2.1-8.5,0-12c3.9,1.4,7.7,4.2,10.8,3.5c3-0.7,5.2-4.9,8.3-8.1c3.5,1.7,6.9-2,10.7-4.2
		c6-3.4,5.9-3.8,0.6-8.5c-0.4-0.3-0.5-1-0.4-0.8c4.3-0.1,9.1,1,12.5-0.7C361.2,623,363.6,618.6,367,614.8z M738.8,226.8
		c-2.1-6.8-13.8-14-20-11.2c-3.1-6.8-8.7-9.6-15.9-8.6c-1.1,0.2-2.7-0.7-3.5-1.6c-2.5-3.2-4.1-2.4-6,0.6c-0.7,1.2-2.2,1.9-3.4,2.7
		c-1.4,1-3.7,1.7-4.2,3c-3.8,10.7-17.6,11.4-21.7,21.7c-0.1,0.2-0.7,0.1-0.9,0.2c-3,1.6-6.2,2.9-8.8,4.9c-1.1,0.8-1.7,3.2-1.5,4.7
		c1.1,5.9,1,6.1-5,5.5c-5.3-0.5-7.5,1.4-7.7,7c-0.1,1.2-0.4,2.9-1.2,3.4c-3,2-6.2,3.5-9.3,5.2c-3.7,2-6.3,4.7-6,9.4
		c0.1,1-1.6,3.2-2,3c-4.7-1.4-7.1,2.4-10.5,4c-5.3,2.5-4.9,8.3-7.8,12.2c-0.5,0.7,0.8,3.2,1.9,4.2c1.5,1.5,3.5,2.6,5.4,3.4
		c8.4,3.6,16.6,7.9,25.3,10.2c14.4,3.8,27.9,10.4,43.1,12.1c18.6,2.1,36.1,1.1,53.4-7.2c11.1-5.3,20-13,29.2-20.6
		c4.2-3.5,9-6.5,12.4-10.7c5.1-6.1,8.9-13.8,4.3-22.6c-7.5-14.5-18.6-25.4-31.6-34.6C745.2,226.3,742.2,227,738.8,226.8z
		 M369.2,275.5c2.2-1.5,4.3-3.4,6.7-4.6c8.5-4.3,13.1-13.4,12.2-22.7c-2.2-23.6-1.4-46.8,8.6-69c2.7-5.9,5.4-12.1,6.2-18.4
		c1.7-15,2.3-30.1,3.3-45.2c0.1-1.1-0.9-2.3-1.3-3.5c-1.1,0.5-2.6,0.7-3.3,1.5c-4,5.2-8.1,10.5-11.8,16c-5.2,7.7-9.6,16-15.1,23.4
		c-11.8,15.8-28.3,19.9-46.6,15.5c-11.1-2.7-21.6-7.6-30.8-15c-4.4-3.6-6.2-3.2-9.2,1.6c-6.7,10.8-13.2,21.8-19.5,32.9
		c-1.8,3.1-4.2,7.1-3.5,10c1.5,6.4,3.9,12.9,7.6,18.2c9.9,14.1,22.7,25.3,38.1,33c14.6,7.3,29.6,13.7,44.4,20.4
		C359.6,271.6,364.1,273.4,369.2,275.5z M330.5,47.4c-3-6.1-4.8-7.1-11.7-5.9c-4.9,0.9-9.7,2.4-14.6,3.4c-12.4,2.5-21.4,9.4-28,20
		c-2.2,3.5-1.5,5.8,1.7,8c15,10.2,22.7,24.4,22.4,42.6c-0.1,4.5,1.2,8,5.2,10c8,4,16.1,7.8,24.2,11.6c7.5,3.5,15.2,1.4,20.8-2.5
		c10.5-7.2,21.4-14.9,26.4-27.6c3.9-10,10.1-17.8,19.3-23.3c2.9-1.8,3.5-3.6,0.9-6.3c-16.5-16.7-35.2-29.2-58.8-33.4
		C334.5,43.3,331.9,43,330.5,47.4z M435.2,149.7c-0.7,1.1-2.4,2.5-2.7,4.2c-0.8,6-1.1,11.8-3.6,17.7c-3.7,8.7-6.4,17.9-8.7,27.1
		c-2.8,11.1-5.2,22.3-6.7,33.7c-1,7.4,2.6,9.1,9.3,5.7c10.6-5.3,21-11.3,32-15.5c12.9-4.9,21.9-12.8,26.3-25.9
		c1.2-3.6,3.2-6.9,5-10.4c0.7-1.3,1.6-2.5,2.4-3.8c3.2-5.4,6.5-10.8,9.6-16.3c2-3.6,1.3-6.9-1.9-9.8c-5.4-5-10.5-10.3-15.6-15.5
		c-6.9-7.1-13.5-14.7-20.7-21.5c-4.7-4.4-6.8-12.6-16-11c0.3-1.5,0.8-2.6,0.5-3.4c-0.8-2.6-1.3-6.1-3.2-7.5
		c-1.8-1.4-5.5-1.3-7.9-0.4c-1,0.4-1.5,4.3-1.1,6.5c2.2,12.7,2.8,25.4,1.4,38.3C433.4,144.2,434.6,146.7,435.2,149.7z M451.5,384.2
		c-0.2,0.7-0.4,1.3-0.7,2c-3,0.3-5.9,0.4-8.9,0.8c-0.9,0.1-2.2,0.6-2.4,1.2c-0.3,0.9-0.2,2.7,0.3,3.1c2,1.3,4.2,2.5,6.5,3.2
		c3.9,1.2,6.9,3,7.9,7.3c1.2,4.9,2.6,9.8,4.4,14.5c2.6,6.7,15.5,8.5,20.6,3.3c4.6-4.7,9.6-9.2,14.6-14.1c0.2,2,0.3,3.9,0.6,5.8
		c1.4,11.5,3.2,12.6,14.9,9.9c7.6-1.7,15.3-3,23-4.2c7.6-1.1,7.7-1,9.3-8.7c0.1-0.4,0.5-0.8,1.3-1.9c2.9,6.8,7.8,5.8,12.9,3.8
		c0.3-0.1,0.7-0.1,1-0.1c7.9-1,15.7-1.9,23.5-3.1c1.2-0.2,2.3-1.5,3.4-2.3c-1.1-1.1-2-2.6-3.3-3.1c-2.1-0.9-4.7-0.7-6.6-1.8
		c-7.2-4.1-14.1-8.6-19.1-15.6c-1.4-2-3.8-3.6-6.1-4.9c-9.6-5.6-11.8-11.9-8.2-22.8c0.4-1.3-0.4-3.5-1.4-4.8c-2-2.7-4.2-5.1-6.6-7.4
		c-0.9-0.8-2.5-0.9-3.8-1.3c0.1,1.2-0.1,2.5,0.3,3.6c0.8,2.2,1.8,4.3,3.2,7.3c-8.9-4.8-9.3-4.7-10.6-1.2c-3.6,1.8-6.1,2.9-8.5,4.3
		c-3.1,1.8-5.9,4.9-9.2,5.6c-5.1,1.1-7.9,2.6-7,8.5c-1.2-1.7-2.3-3.3-3.8-5.4c-2.8,3.7-9.7,1.3-9.8,6.2c-4.6,2-10.2,2.6-11.7,5.4
		c-2.5,4.7-4.4,4.4-8.3,2.8c-4-1.7-6.1,0.2-5.8,4.6c0.1,1-0.3,2.5-0.9,2.9c-0.8,0.4-2.3,0.1-3.1-0.5
		C452.5,386.4,452.1,385.1,451.5,384.2z M561.8,479.4c3.8,6.4,3.9,6.3,9,3c1.5-1,3.3-1.4,5-2.2c2.6-1.3,5.6-2.4,7.8-4.3
		c5.4-4.7,10.2-10,12.3-17.1c2.6-8.7,4.3-17.5,1.8-26.4c-1.1-4.1-3.2-4.6-6.5-2.1c-0.8,0.6-1.8,1.5-2.8,1.5
		c-7.5,0.2-14.6,1-17.6,8.7c-2.5-1-4.9-2.9-6.7-2.5c-1.4,0.3-2.1,3.6-3.1,5.3c-2.5-4.6-3.4-4.5-11.4-2.8c-5.3,1.1-7.7,4.7-10.1,9
		c-0.5-1-0.8-1.7-0.6-2.2c2-4.4-0.2-5.5-4-5.1c-2.7,0.4-5.6,2.2-8,1.7c-6.5-1.4-9.3,2.9-12.5,6.9c-0.8,1-1.8,1.8-3,2.9
		c-1.6-3.7,2.4-8.4-3.3-9.4c-7.6-1.4-5.7,5.2-7.5,10.5c-0.5-2.2-0.8-2.9-0.7-3.6c0.4-6.7-0.5-7.8-7-6.8c-2.5,0.4-5,2.3-6.9,4.1
		c-2.9,2.9-5.2,6.5-7.9,9.6c-0.7,0.8-2.3,0.7-3.5,1c-0.1-1.4-0.6-2.9-0.2-4c0.4-1.1,1.7-2,2.8-2.8c3.4-2.4,3.9-5.1,1.7-7.8
		c-2.3,0-4,0-5.7,0c-2.6-0.1-5.6-1.1-7.5,0c-3,1.7-5.9,1.9-9.1,2.2c-13.7,1.3-27.4,2.9-41.1,4.5c-1.5,0.2-2.8,1.1-4.3,1.8
		c0.9,1.3,1.6,3.2,2.8,3.7c6.2,2.4,12.4,4.6,18.8,6.3c5.8,1.6,12.2,1.2,16.4,7.1c1.1,1.6,4,2.6,6.1,2.6c8,0,16-0.2,23.9-0.9
		c15.5-1.5,30.4,1.1,45.1,6.1c4.9,1.7,10.3,2,15.5,2.8c1.1,0.2,2.3,0.1,3.4,0.4c4,1.2,7.9,2.9,12,3.8
		C558.3,485.7,561.6,485.4,561.8,479.4z M740.9,196c-0.3,1.8-0.9,3.4-0.9,5.1c0,2-0.1,5.2,1,5.9c6.6,4.1,12.7,10,21.4,9.1
		c5.8-0.6,9.5,1.7,12,7.1c0.5,1.1,1.5,2.1,2.6,2.7c4.4,2.4,8.9,4.6,13.3,7.1c0.8,0.5,1.4,1.8,1.5,2.8c0,0.5-1.2,1.3-2,1.6
		c-5.6,2.1-6.5,4.8-3,9.6c1.1,1.5,2.2,2.9,3.4,4.3c2.7,3.1,4.1,3,5.5-0.8c2.2-5.9,4.3-11.9,6.1-17.9c1.4-4.6,2.9-9.2,3.4-13.9
		c2.3-21.5,2.4-43.1,1.1-64.6c-0.3-5.5-1.8-6.5-7-3.8c-11.7,6.1-24.2,8-37.2,7.9c-5.5,0-11,0-16.5,0c-7.6,0-14.3,2.2-18.2,9.3
		c-2.8,5.2-4.9,10.8-7.5,16.7c-0.2,0-2-1-3-0.5c-2.5,1.3-4.9,3-6.9,5.1c-0.5,0.5,0.4,3.3,1.3,4c3.4,2.3,7.1,4.2,10.8,6.2
		c6.3,3.3,12.5,5.2,16.9-2.9C739.2,195.9,739.8,196,740.9,196z M564.9,323.5c-2.6,0-4.7,0-6.8,0c0,1.5-0.6,3.5,0.1,4.5
		c3.8,5.6,7.6,11.3,12,16.4c7.7,9,14.1,18.4,14.9,30.8c0.1,1.6,1.3,3.6,2.6,4.6c5.3,4.2,10.6,8.7,16.5,11.9
		c2.7,1.4,7.3,1.1,10.3-0.3c7.4-3.4,14.2-8.3,21.6-11.8c8.8-4.1,18-7.4,27-11.2c1.4-0.6,2.5-1.9,3.7-2.8c-1-1.2-1.8-2.7-3-3.6
		c-5-3.6-10.3-6.8-15.1-10.7c-8.7-7-16.1-14.9-18.8-26.3c-1.2-5-4.9-6.4-9.6-4.7c-1.6-1.4-2.8-3.3-4.5-3.9
		c-10.4-3.4-19.7-9.8-30.8-11c-5.1-0.6-6.5,0.6-5.8,5.8c0.3,1.9,0,3.9,0,6.4C569,312.7,564.9,315,564.9,323.5z M573.3,145.3
		c-0.5-0.1-1-0.2-1.4-0.3c0-1.7,0.3-3.4-0.1-5c-0.5-2.1-1.1-5-2.6-5.8c-9.3-4.7-18.9-8.9-28.4-13.1c-1-0.4-3.4,0.4-4,1.4
		c-5.8,9.6-11.4,19.5-17.1,29.2c-3.7,6.2-3.8,6.2,2.1,10.8c5,3.9,9.9,7.8,15,11.6c4.9,3.7,9.6,7.9,14.9,10.7
		c3.7,1.9,8.5,2.8,12.7,2.5c8.1-0.7,16.2-2.5,24.3-4.2c2.4-0.5,4.7-2.2,6.8-3.6c1.2-0.8,2.1-2.3,3.7-4c1.3,4.3,2.2,7.6,7,7
		c4.4-0.6,9.3,0.7,10.8-5.5c0.2-0.8,1.7-2,1.9-1.9c1,0.6,2,1.5,2.6,2.5c2.3,4.4,4.9,5,7.6,1c2.3-3.3,4.3-3.7,7.2-1
		c2.1,2,4.5,3.8,7.3,0.8c3.2-3.4,4-9.2,1.7-11.7c-4.9-5.3-8-5.3-12.7,0c-0.3,0.3-0.8,0.4-1.8,0.9c-0.8-1.9-2.1-3.6-2.1-5.4
		c0-3.9-2-6.1-5.3-7.6c-2.1-1-4.2-2-6.3-3c-3.5-1.7-5-0.5-5.9,3.2c-0.9,3.8-2.6,7.4-4,11.1c-0.8-0.2-1.5-0.4-2.3-0.7
		c0.5-2.3,0.6-4.8,1.5-7c1.4-3.7,0.4-6.2-2.3-8.9c-6-5.8-13.3-9.3-20.9-12.2c-3.5-1.4-6.1-0.7-7.3,3.3
		C575.2,142.1,574.1,143.7,573.3,145.3z M268.6,253.2c-7.6,10.5-0.6,35.5,15.5,42.3c11,4.7,22.4,7.2,33.8,9.7c1.4,0.3,3-0.3,4.5-0.5
		c-0.8-1.3-1.3-3-2.4-3.9c-5-4-8.6-8.9-8.6-15.5c0-5.1-2.8-7.5-7-9.7c-7.7-4.1-15.2-8.7-22.6-13.3
		C277.3,259.5,273.1,256.3,268.6,253.2z M233.1,128.6c1.1,11.3,1.9,19.4,2.8,27.5c0.3,2.3,0.9,4.6,1.6,6.8c1,3.4,2.9,3.8,5.2,1.1
		c1-1.1,1.8-2.4,2.5-3.7c5.3-9.2,10.7-18.4,15.7-27.7c1.4-2.5,2.7-6,2.1-8.5c-2.2-8.5-5-16.9-8.1-25.1c-1.7-4.3-6.9-5.3-10.4-2.2
		c-2,1.7-4.1,3.8-4.8,6.2C236.9,112.5,234.7,122.1,233.1,128.6z M482.6,112.3c-0.5-0.4-1-0.8-1.6-1.1c1.4-3.8,4.2-7.8-0.2-11.3
		c-3.8-3.1-6.1,0-8.5,2.8c-1.7-2.3-2.8-4.7-4.7-6.1c-1-0.8-3.2-0.1-4.9,0c0.2,1.4,0,3.2,0.8,4.2c1.8,2.4,4,4.4,6.2,6.5
		c6.3,6.3,12.7,12.6,19.1,18.9c5.8,5.7,11.5,11.6,17.3,17.2c2.7,2.6,5.5,2.1,6.6-1.3c1-2.9,0.8-6.2,1.1-9.8
		c7.5-0.1,10.1-6.3,11.7-13c0.4-1.6-1.1-5-2.4-5.5c-6.9-2.5-14-4.3-21-6.2c-2.7-0.7-4.5,0.2-4.8,3.4c-0.1,0.8-0.7,1.6-1.7,3.6
		c-1-3.4-1.5-5.6-2.3-7.7c-0.5-1.2-1.7-2.2-2.6-3.3c-1,0.9-2.2,1.7-3.1,2.7C485.9,108.3,484.3,110.3,482.6,112.3z M715.9,336.1
		c-0.2-0.7-0.5-1.3-0.7-2c-22.5,3.9-44.3-0.5-66.2-5.9c0.9,2.4,2,4.3,3.6,5.5c7.3,5.7,14.8,11.2,22.2,16.7c6.3,4.7,9.6,4.7,16.4,0.7
		c6.4-3.8,13-7.4,19.4-11.2C712.5,338.9,714.1,337.4,715.9,336.1z M511.8,200.6c6.1-1.2,11.7-1.9,17-3.6c4.9-1.6,5.3-4.5,1.6-8.1
		c-6.1-5.9-12.3-11.6-18.4-17.5c-2.5-2.4-4.2-2-5.9,0.8c-1.7,2.8-3.5,5.6-5.4,8.4c-5.7,8.4-4.3,8.5,1.6,12.8c1.3,1,2.1,2.6,3.4,3.6
		C507.7,198.4,509.9,199.5,511.8,200.6z M377,423.2c1.4-0.7,2.5-0.9,2.8-1.4c2.2-4.1,4.4-8.1,6.2-12.4c0.4-0.9-0.3-2.8-1.1-3.6
		c-3.2-3.1-6.3-6.4-10-8.7c-1.7-1.1-5-0.9-7.1,0c-3,1.2-5.7,3.3-8.1,5.5c-1.8,1.7-4.6,5.1-4,6.1c1.3,2.3,4.3,3.6,6.7,5.2
		c1.8,1.2,3.7,2.1,5.5,3.2C371,419.2,374.1,421.3,377,423.2z M356.9,505.9c-0.8,0-1.5,0-2.3,0.1c-2.1,6.7-4.5,13.3-6,20.1
		c-0.9,4.1,1.5,5.7,5.7,4.6c2.4-0.6,4.9-0.7,7.2-1.6c1.4-0.5,3.5-2.6,3.3-3.2C362.4,519.1,359.6,512.5,356.9,505.9z M123.1,684.5
		c-0.1,0.3-0.3,0.6-0.4,0.9c-2.1,0.3-4.4,0.3-6.4,1c-1.1,0.4-2.7,1.9-2.6,2.8c0.2,3.2,1,6.3,1.5,9.4c2.9-0.8,5.9-1.6,8.8-2.4
		c0.6-0.2,1.3-0.5,1.8-0.9c2.2-2.1,4.4-4.3,6.6-6.4C129.4,687.5,126.3,686,123.1,684.5z M192,723.8c8.2-1,10.6-3.3,9-8.2
		c-1.2-3.6-2.7-7-4.4-10.4c-0.5-1-1.9-1.6-2.8-2.4c-0.8,1.1-2.2,2.2-2.2,3.3C191.5,712,191.8,717.8,192,723.8z M164,731.7
		c0.6,0.1,1.3,0.3,1.9,0.4c5.2-5.9,7.5-12.8,6-20.8c-0.3-1.4-2.2-2.4-3.3-3.6c-1,1.1-2.8,2.2-3,3.5C164.8,718,164.5,724.9,164,731.7
		z M470.3,488.5c4,5.9,20.6,5.9,27.4,0.1C488.4,486.4,479.7,486.8,470.3,488.5z M495.6,192.5c-0.7,0.1-1.4,0.2-2.1,0.3
		c-0.7,2.5-2.6,5.5-1.8,7.3c1.2,2.7,4.4,4.5,6.7,6.8c1.5-1.7,4.6-4.2,4.2-4.8C500.8,198.6,498,195.7,495.6,192.5z M111.4,423
		c-0.1,5.9,2.2,9.3,5.5,8.7c1.3-0.2,3-2.4,3.2-3.9c0.5-3.3-3.9-8.7-6.1-7.9C112.6,420.4,111.8,422.5,111.4,423z M424,598.3
		c-0.2-5.3-4.7-7.2-7.6-10.2c-0.7-0.7-2.3-0.5-3.5-0.8c-0.2,1.4-1,2.9-0.6,4.1C413.7,596.8,416,598.1,424,598.3z M48.4,659.3
		c9.6-2,13.5-9.2,20-14.2C63.4,644,55.2,650,48.4,659.3z M368.8,127.4c-1.3,0-3.1-0.6-3.9,0.1c-2.6,2-4.9,4.4-7,6.9
		c-0.4,0.5,0.1,2.9,0.8,3.2C361,138.5,369,131.3,368.8,127.4z M768.1,322.8c5.3,0,10.8-9.9,7.5-16.2
		C773.1,312,770.6,317.4,768.1,322.8z M750.5,341.5c-0.4-0.5-0.8-0.9-1.1-1.4c-5.1-0.5-9.2,1.6-10.3,5.5c-0.2,0.8-0.1,2,0.4,2.7
		c0.3,0.4,1.7,0.6,2.2,0.3C744.7,346.3,747.5,343.9,750.5,341.5z M39.2,513.9c0,1,0.1,2,0.1,3c4.3,0,8.6,0.1,12.8-0.1
		c0.6,0,1.7-1.6,1.6-2c-0.4-0.9-1.4-2.3-2.2-2.2C47.4,512.8,43.3,513.4,39.2,513.9z M737.3,351.1c-0.1-0.6-0.2-1.1-0.3-1.7
		c-1-0.4-2.5-1.5-3-1.1c-2.1,1.5-4,3.4-5.9,5.2c0.9,0.5,2,1.7,2.6,1.4C732.9,353.8,735,352.4,737.3,351.1z M754.6,337
		c1.9-2.4,3.3-3.9,4.1-5.6c0.2-0.4-2.1-2.7-2.3-2.6c-1.7,1.1-3.3,2.3-4.5,3.9C751.7,333.1,753.2,334.8,754.6,337z M737.2,900.3
		c2.6,3.2,5.1,6.2,7.5,9.2c0.3-0.4,0.7-0.7,1-1.1C744.5,904.1,741.3,901.9,737.2,900.3z M80.4,664.2c0.6,0.6,1.2,1.3,1.8,1.9
		c1.7-1.6,3.4-3.2,5.1-4.7c-0.8-0.4-2-1.5-2.3-1.2C83.4,661.3,81.9,662.8,80.4,664.2z M829,205.3c-1.6-1.4-2.7-2.4-3.8-3.4
		c-0.6,0.8-1.8,1.8-1.6,2.4c0.4,1.2,1.4,2.3,2.4,3.1C826.2,207.5,827.5,206.3,829,205.3z M734.2,26.9c1.4-2.1,2.5-3.2,2.7-4.4
		c0.2-0.7-1-1.7-1.6-2.5c-0.9,1-2.1,1.9-2.6,3.1C732.4,23.7,733.3,24.9,734.2,26.9z M657.1,180.9c0.6,0,1.2,0,1.9,0.1
		c0-2,0-4.1,0-6.1c-0.6,0-1.2,0-1.9,0C657.1,176.9,657.1,178.9,657.1,180.9z"/>
</g>
</svg>
