<?xml version="1.0" encoding="utf-8"?>
<!-- Generator: Adobe Illustrator 28.0.0, SVG Export Plug-In . SVG Version: 6.00 Build 0)  -->
<svg version="1.1" id="Ebene_1" xmlns="http://www.w3.org/2000/svg" xmlns:xlink="http://www.w3.org/1999/xlink" x="0px" y="0px"
	 viewBox="0 0 800 800" style="enable-background:new 0 0 800 800;" xml:space="preserve">
<path d="M666,233.3c-18.2,0.4-32.6,15.7-32.6,33.9v84.3c0,18.4-14.8,33.5-33.2,33.4c-0.3,0-0.5,0-0.8,0
	c-18.2-0.2-32.8-15.2-32.8-33.4V200c0.1-18.2-14.6-33-32.7-33.3c-18.6-0.3-33.9,15.3-33.9,34v150.9c0,18.4-14.8,33.5-33.2,33.4
	c-0.2,0-0.5,0-0.7,0c-18.2-0.2-32.9-15.2-32.9-33.4V133.9c0-18.2-14.4-33.5-32.6-33.9c-18.7-0.4-34,14.7-34,33.3v218.2
	c0,18.3-14.8,33.4-33.1,33.4c-0.2,0-0.5,0-0.7,0c-18.3-0.1-32.9-15.1-32.9-33.4V200.6c0-18.2-14.4-33.5-32.6-33.9
	c-18.7-0.4-34,14.7-34,33.3v151.5c0,18.3-14.7,33.4-33.1,33.5c-0.2,0-0.5,0-0.7,0c-18.3-0.1-33.1-15.1-33.1-33.5v-84.8
	c0.1-18.2-14.6-33.1-32.7-33.4c-18.6-0.3-33.9,15.3-33.9,34v265.4c0,18.2,14.4,33.5,32.6,33.9c18.7,0.4,34-14.7,34-33.3v-84.9
	c0-18.3,14.7-33.4,33.1-33.5c0.2,0,0.5,0,0.7,0c18.3,0.1,33.1,15.1,33.1,33.5v150.9c0,18.2,14.4,33.5,32.6,33.9
	c18.7,0.4,34-14.7,34-33.3V448.4c0-18.3,14.7-33.3,32.9-33.4c0.2,0,0.5,0,0.7,0c18.3,0,33.1,15.1,33.1,33.4V666
	c0,18.2,14.4,33.5,32.6,33.9c18.7,0.4,34-14.7,34-33.3V448.4c0-18.2,14.6-33.2,32.9-33.4c0.2,0,0.5,0,0.7,0
	c18.4,0,33.2,15.1,33.2,33.4v151c0,18.2,14.4,33.5,32.6,33.9c18.7,0.4,34-14.7,34-33.3V448.4c0-18.2,14.6-33.2,32.8-33.4
	c0.3,0,0.5,0,0.8,0c18.4-0.1,33.2,15,33.2,33.4v84.3c0,18.2,14.4,33.5,32.6,33.9c18.7,0.4,34-14.7,34-33.3V266.7
	C700,248.1,684.7,232.9,666,233.3z"/>
</svg>
