<?xml version="1.0" encoding="utf-8"?>
<!-- Generator: Adobe Illustrator 28.0.0, SVG Export Plug-In . SVG Version: 6.00 Build 0)  -->
<svg version="1.1" id="Logo" xmlns="http://www.w3.org/2000/svg" xmlns:xlink="http://www.w3.org/1999/xlink" x="0px" y="0px"
	 viewBox="0 0 760 267.4" style="enable-background:new 0 0 760 267.4;" xml:space="preserve">
<style type="text/css">
	.st0{fill:#020203;}
</style>
<path class="st0" d="M713.2,54.2c-4.9,0-6.2,0.6-12.4,0.6c-10.1,0-8.2-0.6-20.6-0.6c-16.7,0-18.4,0.6-23.7,0.6
	c-5.4,0-3.7-0.6-12.2-0.6c-0.8,0-1.2,0.4-1.2,0.9c0,0.4,0.4,0.9,1.2,0.9c6.5,0,10.8,0.2,13.9,5.5L677,93.8c0.3,0.7,0.6,1.3,0.6,2.1
	V123c0,2.1,0,3.7-0.2,5c-0.3,1.7-1.8,2.8-3.5,2.8c-0.6,0-1.2,0-1.8,0c-2.8,0-5.5,0.4-8,1.2c-2,0.6-4.1,0.7-6,0
	c-3.3-1.3-4.7-4-6.5-8.6l-24.3-65.2c-1.1-3-4-4-8.7-4h-16.9c-0.3,0-0.5,0.1-0.7,0.1c-4.3,0.2-6.1,0.4-9.5,0.4
	c-10.1,0-10.8-0.6-25-0.6c-14.8,0-14.2,0.6-25.6,0.6c-10.4,0-10.5-0.6-19.6-0.6c-10.7,0-12.1,0.6-19.6,0.6c-4.6,0-5.7-0.3-10.9-0.5
	c-8-0.6-16.1-1.2-24.1-1.4c-27.3-0.8-55.2,2.2-80.2,13.7c-16.8,7.4-31.8,18.3-45.3,30.5c-5.2,4.5-10.3,9.4-15.8,13.6
	c-1.6-6.6-4.8-12.9-10.2-17.2c-3.6-2.9-8.3-4.7-13-4.8c-1.8-0.1-3.6,0.1-5.3,0.5c-17-13.1-36.1-24.4-57.6-27.8
	c-6.3-0.8-12.9-1.4-19,0.3c-0.4-2.3-0.7-4.3-0.9-5.7c-0.2-1.8-0.3-2.9-1.5-2.9c-1.2,0-2.1,1.1-5.4,1.1h-49c-0.8,0-1.2,0.4-1.2,0.9
	c0,0.4,0.4,0.9,1.2,0.9h6.1c11.2,0,11.9,4.8,11.8,13.1L181,82c0,2.4-2.2,4.8-4.6,4.8h-32.7c-2.7,0-4.5-2.8-4.5-5.2V62.8
	c0-5.3,4.7-6.8,18.2-6.8c0.6,0,0.9-0.4,0.9-0.9c0-0.3-0.3-0.8-0.9-0.8c-10.4,0-10.9,0.4-20.5,0.4c-4.7,0-7.4-0.6-15.9-0.6
	c-0.8,0-1.2,0.4-1.2,0.9c0,0.4,0.4,0.9,1.2,0.9c8.5,0,13.2,1.8,13.2,10.7v56.7c0,6-1.9,8.2-6.4,9c-0.6,0.1-1.3,0.2-2,0.2l-4.5,0.1
	h-0.4c0,0,0,0,0,0l-18.6,0.2c-0.1,0-0.1,0-0.2,0c-3.1,0-5.6-0.1-7.6-0.3c0,0-0.1,0-0.1,0c-1.1-0.2-2.2-0.4-3-0.8
	c-4.4-1.9-5-6.8-5-19.6l-0.1-43c0-7.4,0.3-13.1,8.5-13.1c16.3,0,19.3,6.4,23.8,26.9c0.2,0.7,0.7,1.1,1.1,1.1c0.3,0,0.7-0.3,0.7-1
	v-0.4c-2.4-13.1-4.1-24.3-4.5-26.6c-0.1-1.1-0.1-2.9-1.5-2.9c-1.2,0-2,1.1-5.5,1.1H57c-3.5,0-4.3-1.1-5.5-1.1
	c-1.3,0-1.3,1.8-1.5,2.9c-0.3,2.2-2.1,13.5-4.5,26.6c-0.2,1,0.2,1.5,0.7,1.5c0.4,0,1-0.4,1.1-1.1C51.5,62.1,55.4,56,71.1,56
	c9.6,0,10,5.7,10,13.1c0,1.5,0.2,8.4,0.2,43c0,12.3-1,17.3-5.2,19.4c0.1,0,0.2,0,0.2,0c-0.1,0-0.1,0-0.2,0c-1.2,0.6-2.9,1-4.4,1.1
	c-1.9,0.2-8.9,0.3-11.7,0.3c-0.8,0-1.1,0.4-1.1,0.8c0,0.4,0.3,0.9,1.1,0.9c0.3,0,3.2,0,3.8,0c0.9,0,1.2,1.2,0.5,1.7
	C52.6,144,47,159.1,47,172.4c0,21.5,12.3,42.3,35.8,42.3c26.4,0,37.2-20.7,37.2-42.7c0-12.8-5.1-27.5-17-35.4
	c-0.8-0.6-0.5-1.9,0.5-1.9l20-0.2c8.2,0.4,10.6,2.9,10.6,12.8v49.3c0,11.9-0.6,14.6-13.3,14.6c-0.8,0-1.1,0.4-1.1,0.9
	c0,0.3,0.3,0.8,1,0.8h32c0.9,0,1.3-0.4,1.3-0.9c0-0.3-0.4-0.8-1.3-0.8c-11.7,0-13.5-7.4-13.5-14.6v-15.7c0-5,0.6-9.1,7-9.1
	c14.2,0,15.8,0.8,22.9,11.2c0.8,1.1,1.9,2,1.9,2c0.6,0,0.9-0.3,0.9-0.8c0-0.1-0.1-0.3-0.2-0.6c-7.9-12.1-10.7-24-11-26.1
	c-0.1-0.7-0.4-0.9-0.8-0.9c-0.3,0-0.8,0.4-0.8,1.1v0.1c0.2,2.6,0.3,4.6,0.3,6.3c0,6.4-2.2,6.4-13.2,6.4c-6.2,0-7-3.3-7-7.9v-15.1
	c0-7.6,0.6-13.2,9.9-13.2c0.7,0,1.3,0,2,0c1,0,2.1,0,3.4,0.1c10.5,0.4,14.8,3.5,20.6,27c0.1,0.7,0.6,1,0.9,1c0.4,0,0.8-0.4,0.8-1
	v-0.1c-0.2-2.1-2.8-16.2-4-23.9c-0.2-1.6,1-2.9,2.5-2.9l29,0c7.9,0.5,10.3,3,10.3,12.8v49.3c0,11.9-0.6,14.6-13.3,14.6
	c-0.8,0-1.1,0.4-1.1,0.9c0,0.3,0.3,0.8,1,0.8h32c0.9,0,1.3-0.4,1.3-0.9c0-0.3-0.4-0.8-1.3-0.8c-11.7,0-13.5-7.4-13.5-14.6v-15.7
	c0-5,0.6-9.1,7-9.1c6.1,0,12.9-0.4,17.5,4.2c3.4,3.4,5.6,7.8,9,11.2c3.3,3.3,7.2,6.1,11.6,8c0.5,0.2,1.1,0.4,1.6,0.6
	c1.5,0.5,3,0.9,4.5,1.2c-0.1,10.7-2,14.1-13.2,14.1c-0.8,0-1.2,0.4-1.2,0.8c0,0.4,0.4,0.9,1.2,0.9h52.1c3.8,0,4.5,1.1,5.7,1.1
	c1,0,1.2-0.8,1.3-1.5c0.6-5.2,4-25,4.6-27.8c0.2-1.1-0.1-1.7-0.7-1.7c-0.4,0-1.1,0.6-1.3,1.6c-6.7,26.6-7.3,26.6-26.4,26.6
	c-14.6,0-16.9-5.5-17.1-13.3c7,0.6,13.6-1.1,20-5.8c14.1-10,24.2-29.7,28.2-46.3c2.2-9,2.9-18.3,2.1-27.5c0-0.4-0.1-0.7-0.1-1.1
	c0.5,0.4,0.9,0.8,1.4,1.2c3.1,2.5,6.3,4.9,9.5,7.2c3.7,2.6,7.2,5.6,11,8.1c-14.8,6.7-21.7,23.8-21.7,38.7
	c0,21.5,12.3,42.3,35.8,42.3c26.4,0,37.2-20.7,37.2-42.7c0-15.3-7.3-33.4-24.9-39.3c1.2-1.2,2.3-2.5,3.3-3.8
	c4.8-6.3,9.4-12.7,14.8-18.4c10.4-11.2,24.2-20.1,39.6-21.3c15.9-1.3,29.9,8.9,30.5,25.5c0.4,5.3-1.6,12.1-3.3,18
	c-4.2,0.2-6.7,0.4-13.5,0.4c-10.4,0-10.5-0.6-19.6-0.6c-10.7,0-12.1,0.6-19.6,0.6c-6.1,0-5.9-0.6-17.2-0.6c-0.8,0-1.2,0.4-1.2,0.9
	c0,0.4,0.4,0.9,1.2,0.9c11.6,0,13.1,1.9,17.2,11.6l27.3,64.7c0.7,1.5,0.8,2.2,1.1,2.2s0.7-0.8,1.1-2.2l15.7-46.9
	c0.4-1.5,1.7-1.6,2.2-0.1l19.7,47c0.7,1.5,1,2.2,1.2,2.2c0.3,0,0.6-0.8,1-2.2l20.7-68.2c1.6-5,1.9-7.7,13.6-8
	c11.1,0.4,11.6,4.9,11.6,13.1v49.1c0,12.2-0.6,14.6-13.3,14.6c-0.8,0-1.1,0.4-1.1,0.9c0,0.3,0.3,0.8,1,0.8h47.7
	c3.9,0,4.4,1.1,5.7,1.1c1.3,0,1.3-1.9,1.5-2.6c1.2-9.5,3.6-21.9,4.6-26.8c0.2-0.9-0.3-1.6-0.9-1.6c-0.3,0-0.8,0.3-0.9,1
	c-5.6,27-8.2,27.1-27.9,27.1c-9,0-11.2-8.2-11.2-16.7v-13.6c0-5,0.6-9.1,7-9.1c14.2,0,15.8,0.8,22.9,11.2c0.8,1.1,1.9,2,1.9,2
	c0.6,0,0.9-0.3,0.9-0.8c0-0.1-0.1-0.3-0.2-0.6c-7.9-12.1-10.7-24-11-26.1c-0.1-0.7-0.4-0.9-0.8-0.9s-0.8,0.4-0.8,1.1v0.1
	c0.2,2.6,0.3,4.6,0.3,6.3c0,6.4-2.2,6.4-13.2,6.4c-6.2,0-7-3.3-7-7.9v-15.1c0-8.3,1.9-13.2,9.9-13.2c14.6,0,19.4,0.2,25.9,27
	c0.1,0.7,0.6,1,0.9,1c0.4,0,0.8-0.4,0.8-1v-0.1c-0.2-2-2.6-15-3.9-22.9c-0.3-1.9,1.1-3.6,3.1-3.7l10.8-0.2c0.7,0,1.4,0,2.1,0.2
	c6.3,1.1,7.9,4.6,7.9,11.5v54.8c0,9-3.7,10.1-13.3,10.1c-0.8,0-1.1,0.4-1.1,0.8c0,0.4,0.3,0.9,1.1,0.9c10.7,0,12.2-0.6,16.8-0.6
	c4,0,6.4,0.6,15,0.6c0.6,0,0.9-0.4,0.9-0.8c0-0.4-0.3-0.9-0.9-0.9c-7,0-13.2,0-13.2-7.3v-22c0-1.2,1.3-2,3.7-2
	c6.8,0,21.9,6.4,33.6,24l0.2,0.3c0.8,1.2,1.2,2.2,1.2,3.1c0,3.1-5.8,3.8-17.7,3.8c-0.8,0-1.1,0.4-1.1,0.9c0,0.3,0.3,0.8,1.1,0.8
	c16.5,0,17.4-0.6,22.4-0.6c5.6,0,5.7,0.6,14.2,0.6c0.9,0,1.2-0.4,1.2-0.9c0-0.3-0.3-0.8-1.2-0.8c-4.8,0-9,0-13.6-6
	c-0.1-0.1-0.1-0.2-0.2-0.3l-0.6-1c-5.4-9-14.5-18.3-20.6-21.4c-1.3-0.7-1.9-1.1-1.9-1.5c0-2.5,22.7-0.9,22.7-23.3
	c0-11.8-6.5-19.5-17.2-23l22.4-0.3c0,0,7.7-0.5,12.8-0.5c0.9,0,1.6,0.1,2.8,0.2c1.6,0.1,2.3,2.1,1.2,3.2c-2.7,3-4.4,7-4.4,12.2
	c0,12.7,12.1,19.1,22.8,24.9c9.1,4.8,21.2,11.2,21.2,21.2c0,8.7-4.7,17.3-17.8,17.3s-19.6,0-26.7-29.8c-0.3-0.9-0.8-1.3-1.2-1.3
	c-0.3,0-0.6,0.3-0.6,0.9v0.4c1,6.7,4.1,25.3,4.8,29c0.1,0.8,0.1,1.8,1,1.8c1.1,0,2.1-1,4.9-1c4.8,0,7.7,1.8,17.4,1.8
	c11,0,23.8-4.3,23.8-21.3c0-12.2-13.5-18.4-23.7-23.8c-9.9-5.3-20.2-10-20.2-21.8c0-8.9,8.6-15.1,15-15.1c11.1,0,21,0,27.3,27.5
	c0.2,0.8,0.6,1.1,0.9,1.1s0.7-0.3,0.7-1.1c0-4.6-4.5-26-4.6-27.5c-0.2-1.7-0.8-1.9-1.3-1.9c-0.5,0-1,0.2-1.4,0.6
	c-0.5,0.4-1,0.8-1.6,1c-0.5,0.2-1,0.2-1.6,0.2c-0.6-0.1-1.1-0.1-1.7-0.2c-0.6-0.1-1.2-0.2-1.8-0.4c-0.5-0.1-1-0.3-1.4-0.6
	c-0.4-0.2-0.7-0.4-1.1-0.7c-0.3-0.3-0.6-0.6-0.8-0.9c-0.2-0.4-0.4-0.8-0.5-1.2c-0.2-0.5-0.3-0.9-0.3-1.4c-0.1-0.6-0.1-1.1-0.2-1.7
	c0-0.7-0.1-1.3-0.1-2c0-0.1,0-0.3,0-0.4V94.8c0-0.8,0.1-1.3,0.6-2.1c6.4-11.6,7.4-13.5,15.9-28.4c4.6-8.3,5.5-8.3,14.6-8.3
	c0.9,0,1.3-0.4,1.3-0.9C714.6,54.6,714.1,54.2,713.2,54.2z M97.2,133.4C97.2,133.4,97.2,133.4,97.2,133.4c-0.7-0.3-1.3-0.5-2-0.7
	C95.9,132.9,96.5,133.2,97.2,133.4z M113.7,172.2c0,32-18.5,40.5-31,40.5c-11.6,0-29.4-10-29.4-40c0-29.2,20.5-39.9,29.4-39.9
	C93.4,132.7,113.7,143.5,113.7,172.2z M181,118.2c0,7-0.2,10.8-2.7,12.7c-2.4,1.8-4.3,1.3-14.3,1.8c-2,0.1-4.1,0-6.1,0
	c-3,0-6.1,0-9.1,0c-0.2,0-0.4,0-0.6,0c-6-0.4-9-2-9-7.1V93.1c0-1.7,1.8-4.4,4.5-4.4h32.6c2.6,0,4.7,2.1,4.7,4.7V118.2z M625,68.1
	c0.3,0,0.7,0.4,1,1.5l11.7,31c0.8,2.1,1.2,3.7,1.2,4.9c0,2-1.2,2.8-3.8,2.8h-18.3c-4,0-5.8-0.8-5.8-3.1c0-1,0.3-2.5,1-4.3L623.2,71
	C623.9,69.2,624.4,68.1,625,68.1z M321.4,113.2c-0.4,0.3-0.8,0.5-1.1,0.8c-3.7,2.3-7.6,4.1-11.8,4.4c-7.8,0.4-17.6-4.1-20.2-12.1
	c-2-6.1,0.9-12.9,7-15.2C304.2,98.3,312.8,106,321.4,113.2z M321.9,110.7c-6.5-5.9-12.9-11.8-19.8-17.3c-1.3-1-2.6-2.1-3.9-3.1
	C310.4,87.9,320.1,98.9,321.9,110.7z M186.2,69.2c0-10,1.9-13.2,12.3-13.2c8,0.1,12.8,0.8,16.7,7.6c-5.3,2.2-8.5,7-9.2,12.6
	c-0.2,1.5-0.3,3.1-0.2,4.6c0.2,2.8,1.1,6,0,8.7c-0.6,1.4-1.9,2-3.3,2.3c-3,0.6-6.3,0.4-9.4,0.4c-6.2,0-7-3.3-7-7.9V69.2z
	 M303.9,181.1c-5.2,6.9-12.2,13.4-20.9,15.2c-2.3,0.4-4.7,0.5-7.2,0.4c0-0.2,0-0.3,0-0.5v-50c0-7.6,0.6-11.8,13.5-11.8
	c0.7,0,0.9-0.4,0.9-0.9c0-0.4-0.2-0.9-0.9-0.9c-10,0-8.7,0.6-16,0.6c-6.6,0-7.3-0.6-15.7-0.6c-0.8,0-1.2,0.4-1.2,0.9
	c0,0.4,0.4,0.9,1.2,0.9c9.3,0,13.2,2.1,13.2,11.7V196c-2.5-0.5-4.9-1.4-7.2-2.4c-5.7-3.1-10.5-7.9-13.8-13.4
	c-6.2-10.8-8.5-20.6-8.8-22.5c-0.1-0.7-0.4-0.9-0.8-0.9c-0.3,0-0.8,0.4-0.8,1.1v0.1c0.2,2.6,0.3,4.6,0.3,6.3c0,6.4-2.2,6.4-13.2,6.4
	c-6.2,0-7-3.3-7-7.9v-15.1c0-7.6,0.6-13.2,9.9-13.2c14.6,0,19.3,0,25.9,27c0.1,0.7,0.6,1,0.9,1c0.4,0,0.8-0.4,0.8-1v-0.1
	c-0.2-2.5-3.7-20.9-4.5-26.9c-0.2-1.8-0.3-2.9-1.5-2.9c-1.2,0-2.1,1.1-5.4,1.1h-19.2c-2.1,0-3.7-1.9-3.4-4c1.3-8.6,3.1-18.2,4-22.4
	c0.2-0.9-0.3-1.6-0.9-1.6c-0.3,0-0.8,0.3-0.9,1c-4.6,21.8-7.1,26.1-18.4,26.9c0,0-3,0.3-6.4,0.2c-0.5,0-1,0-1.5,0h-2.6
	c-8.2,0-10.2-8.5-10.2-16.7v-13.6c0-5,0.6-9.1,7-9.1c14.2,0,15.8,0.8,22.9,11.2c0.8,1.1,1.9,2,1.9,2c0.6,0,0.9-0.3,0.9-0.8
	c0-0.1-0.1-0.3-0.2-0.6c-2.6-4.1-4.9-8.4-6.8-12.9c-1.8-4.4-3.6-8.9-3.7-13.8c-0.1-3.6,0.7-7.2,2.9-10.1c1.3-1.7,3-3.1,4.8-4.1
	c2.1,4,4.1,9.9,6.2,18.5c0.1,0.7,0.6,1,0.9,1c0.4,0,0.8-0.4,0.8-1v-0.1c-0.2-1.8-2.1-12.5-3.5-20.4c6-1.8,12.6-1.2,18.7-0.3
	c21,3.6,38.6,14.7,55,27.8c-6.5,2.6-10.3,8.8-8.1,17.1c2.7,9.3,13.5,14.9,22.9,14.7c4.9-0.2,9.5-2.2,13.5-4.5c0.1,0,0.2-0.1,0.2-0.2
	C323.4,139.6,316.9,162.5,303.9,181.1z M393,172.2c0,32-18.5,40.5-31,40.5c-11.6,0-29.4-10-29.4-40c0-20.3,9.9-31.7,19-36.7
	c1.7,0.9,3.6,1.7,5.5,2.3c5.9,1.8,10.7,0.1,14.7-3.2C381.9,139.6,393,151,393,172.2z M352.6,135.4c3.6-1.8,7-2.7,9.5-2.7
	c2.5,0,5.5,0.6,8.7,1.9c-3.7,3-8,4.5-13.4,2.8C355.7,136.9,354.1,136.2,352.6,135.4z M458.8,134.4c-0.3,1.1-0.6,2.2-0.9,3.2
	c-1.3,4.4-2.6,8.8-3.9,13.2l-2-4.9c-1-2.4-1.5-4.2-1.5-5.7C450.6,136.1,454,134.8,458.8,134.4z M436.1,202.3c-0.8,0-1.5-2.2-2.5-4.6
	l-21.5-51.8c-1-2.4-1.3-4.3-1.3-5.8c0-4.9,4.9-5.7,15-5.7c15.1,0,16.3,0.8,20.7,11.6l4.6,11c0.3,0.8,0.3,1.5,0.1,2.2l-14,41.5
	C436.8,201.9,436.5,202.3,436.1,202.3z M493.3,145.9l-16.1,54.6c-0.3,1.2-0.8,1.8-1.1,1.8c-0.7,0-1.3-1.9-2.1-3.7l-18.8-45.3
	c1.8-6.3,3.6-12.7,5.4-19c0.9,0,1.9-0.1,2.9-0.1l7.1,0.1c14.6,0,23.4,0.4,23.4,7.6C494,143.1,493.8,144.5,493.3,145.9z M526.8,132.6
	h-18.3c-0.1,0-8.1,0.6-12.1,0.6c-10.1,0-10.8-0.6-25-0.6c-4.7,0-7.8,0.1-10.3,0.1c0.6-2,1.2-4.1,1.8-6.1c7.5-22.4-7-43.2-31-41.5
	c-16.5,1.1-31.1,11.3-41.3,23.7c-5.2,6-9.4,12.8-14,19.3c-1.1,1.5-2.2,3-3.5,4.3c-3.3-1-7-1.5-11.1-1.5c-4.8,0-9.1,0.9-13,2.5
	c-3.9-2.7-7.5-5.9-11.2-8.8c-4-3.1-7.9-6.5-11.7-9.9c2.5-1.7,4.8-3.6,7.2-5.5c17-14.6,34.3-29.2,54.9-38
	c24.5-10.8,51.5-15.7,78.2-15.9c3,0,5.9,0.1,8.9,0.2c2.9,0.1,5.8,0.1,8.7,0.4c2,0.1,4.1,0.3,6.1,0.6c1.8,0.2,3.7,0.6,5.2,1.6
	c3.2,2,4.6,6,6,9.4c0,0.1,0.1,0.1,0.1,0.2c0,0,22,52.2,26.6,63.1C528.5,131.5,527.8,132.6,526.8,132.6z M531.1,123.9
	c-0.8,0-1.5-2.2-2.5-4.6l-21.5-51.8c-1-2.4-1.3-4.3-1.3-5.8c0-4.9,4.9-5.7,15-5.7c15.1,0,16.3,0.8,20.7,11.6l4.6,11
	c0.3,0.8,0.3,1.5,0.1,2.2l-14,41.5C531.8,123.5,531.4,123.9,531.1,123.9z M566.6,132.8l-3.5,0.1c-0.4,0-0.8,0-1.1,0
	c-4.5-0.2,0.2,0-8.9-0.3h-19.7c-1.3,0-2.2-1.2-1.8-2.4c3.2-9.7,15-44.8,15-44.8c0.4-1.5,1.7-1.6,2.2-0.1c0,0,15.2,36.1,19.1,45.4
	C568.5,131.7,567.7,132.8,566.6,132.8z M568.9,120.2L547,67.5c-1-2.4-1.5-4.1-1.5-5.7c0-5.3,5.6-5.9,12.9-5.9l7.1,0.1
	c14.6,0,23.4,0.4,23.4,7.6c0,1.1-0.2,2.5-0.7,3.9l-16.1,54.6c-0.3,1.2-0.8,1.8-1.1,1.8C570.4,123.9,569.7,122,568.9,120.2z
	 M587.1,132.8c-0.3,0-7.6,0-8.3,0c-0.9,0-1.8-0.1-2.7-0.1c-0.8,0-1.5,0-2.3,0c-0.2,0-0.4,0-0.6,0c-2,0-1.9-1.4-1.7-2.2
	c0-0.2,0.1-0.3,0.1-0.5c0.1-0.3,0.2-0.6,0.3-0.9c0.1-0.4,0.2-0.7,0.3-1.1c0.1-0.4,0.2-0.8,0.4-1.2c0.1-0.4,0.3-0.9,0.4-1.3
	c0.1-0.5,0.3-1,0.4-1.4c0.2-0.5,0.3-1,0.5-1.5c0.2-0.5,0.3-1.1,0.5-1.6c0.2-0.6,0.3-1.1,0.5-1.7c0.2-0.6,0.4-1.2,0.5-1.8
	c0.2-0.6,0.4-1.3,0.6-1.9c0.2-0.6,0.4-1.3,0.6-1.9c0.2-0.7,0.4-1.3,0.6-2c0.2-0.7,0.4-1.4,0.6-2.1c0.2-0.7,0.4-1.4,0.6-2.1
	c0.2-0.7,0.4-1.4,0.6-2.1c0.2-0.7,0.4-1.4,0.7-2.2c0.2-0.7,0.4-1.5,0.7-2.2c0.2-0.7,0.4-1.5,0.7-2.2c0.2-0.7,0.4-1.5,0.7-2.2
	c0.2-0.7,0.4-1.5,0.7-2.2c0.2-0.7,0.4-1.4,0.7-2.2c0.2-0.7,0.4-1.4,0.7-2.1c0.2-0.7,0.4-1.4,0.6-2.1c0.2-0.7,0.4-1.4,0.6-2.1
	c0.2-0.7,0.4-1.4,0.6-2c0.2-0.7,0.4-1.3,0.6-2c0.2-0.6,0.4-1.3,0.6-1.9c0.2-0.6,0.4-1.2,0.6-1.8c0.2-0.6,0.4-1.2,0.5-1.8
	c0.2-0.6,0.3-1.1,0.5-1.7c0.2-0.5,0.3-1.1,0.5-1.6c0.2-0.5,0.3-1,0.5-1.5c0.1-0.5,0.3-0.9,0.4-1.4c0.1-0.4,0.3-0.8,0.4-1.3
	c0.1-0.4,0.2-0.8,0.3-1.1c0.1-0.3,0.2-0.7,0.3-1c0.1-0.3,0.2-0.6,0.3-0.9c0.1-0.2,0.1-0.5,0.2-0.7c0.1-0.2,0.1-0.4,0.2-0.5
	c0-0.1,0.1-0.3,0.1-0.4c0-0.1,0-0.1,0.1-0.2c0,0,0,0,0,0c1.5-4.9,1.9-7.6,13.1-8c11.4,0.4,18.3,2.8,18.3,7.1c0,0.6-0.1,1.1-0.3,1.8
	l-23.7,62.8C597.5,131.9,592.7,132.8,587.1,132.8z M627.2,157.3c0,15-10.2,20.9-23.7,20.9c-8.3,0-13.9-1-13.9-3.7v-29.5
	c0-10,3.1-10.1,7.9-10.4C612.3,133.4,627.2,141.2,627.2,157.3z M638.8,132.5c-0.3,0-0.6,0-1,0l-18.7,0.2
	c-12.9-0.1-16.4-1.2-16.4-4.9c0-1.3,0.4-3,1.1-5.2c1.2-4,2.1-5.9,2.9-8.2c1-2.8,2-4.5,8.7-4.5h18.8c6.3,0,7.1,0.7,9.3,6.6
	c1.7,4.6,0.9,2.9,2.9,8.2c0.6,1.3,0.8,2.5,0.8,3.4C647.4,130.8,645.1,132,638.8,132.5z M693,70.3l-10.5,18.6
	c-0.7,1.1-1.1,1.7-1.6,1.7c-0.4,0-0.9-0.6-1.6-1.7l-13.5-24.3c-1.3-2.4-2-4.3-2-5.7c0-1.9,1.2-2.9,3.9-2.9h18.5
	c8.9,0,12.3,0.2,12.3,2.7C698.7,60.7,696.5,64.1,693,70.3z"/>
</svg>
