<?xml version="1.0" encoding="utf-8"?>
<!-- Generator: Adobe Illustrator 28.0.0, SVG Export Plug-In . SVG Version: 6.00 Build 0)  -->
<svg version="1.1" id="Ebene_1" xmlns="http://www.w3.org/2000/svg" xmlns:xlink="http://www.w3.org/1999/xlink" x="0px" y="0px"
	 viewBox="0 0 541 212" style="enable-background:new 0 0 541 212;" xml:space="preserve">
<style type="text/css">
	
		.st0{fill:none;stroke:#000000;stroke-width:2;stroke-linecap:round;stroke-miterlimit:10;stroke-dasharray:12.198,5.0825,10.165,15.2475,4.066,16.264;}
	
		.st1{fill:none;stroke:#000000;stroke-width:3;stroke-linecap:round;stroke-linejoin:round;stroke-miterlimit:10;stroke-dasharray:2,6,2,6,2,6;}
	
		.st2{fill:none;stroke:#000000;stroke-width:3;stroke-linecap:round;stroke-linejoin:round;stroke-miterlimit:10;stroke-dasharray:20,40,20,25,20,25;}
	
		.st3{fill:none;stroke:#000000;stroke-width:3;stroke-linecap:round;stroke-linejoin:round;stroke-miterlimit:10;stroke-dasharray:12,5,10,15,4,16;}
	
		.st4{fill:none;stroke:#000000;stroke-width:4;stroke-linecap:round;stroke-linejoin:round;stroke-miterlimit:10;stroke-dasharray:1,10,1,10,1,5;}
	.st5{fill:none;}
	.st6{fill:none;stroke:#000000;stroke-width:0.2;stroke-miterlimit:10;}
	.st7{fill:#FF00FF;}
	
		.st8{fill:none;stroke:#000000;stroke-width:3;stroke-linecap:round;stroke-linejoin:round;stroke-miterlimit:10;stroke-dasharray:2,3,2,3,2,6;}
	.st9{opacity:0.49;fill:#FF00FF;}
	
		.st10{fill:none;stroke:#000000;stroke-width:3;stroke-linecap:square;stroke-linejoin:round;stroke-miterlimit:10;stroke-dasharray:20,30,20,30,20,30;}
	.st11{fill:none;stroke:#000000;stroke-linecap:round;stroke-linejoin:round;stroke-miterlimit:10;}
	.st12{clip-path:url(#SVGID_00000105425026172822891170000000622402182468453794_);fill:#1D1D1B;}
	.st13{fill:#FFFFFF;}
	.st14{filter:url(#Adobe_OpacityMaskFilter);}
	.st15{opacity:9.000000e-02;mask:url(#SVGID_00000075854825161463492510000008518991205044876423_);}
	.st16{filter:url(#Adobe_OpacityMaskFilter_00000092454941512836509730000008517593191813625992_);}
	.st17{opacity:9.000000e-02;mask:url(#SVGID_00000177453395829118638990000014219832647387488398_);}
	.st18{fill:#F4F4F5;}
	.st19{filter:url(#Adobe_OpacityMaskFilter_00000124154180128894049560000015692882288695112112_);}
	.st20{opacity:0.12;mask:url(#SVGID_00000142889575971075880160000002744568829506716604_);}
	.st21{filter:url(#Adobe_OpacityMaskFilter_00000134207332841980129860000000873327904294894756_);}
	.st22{opacity:0.12;mask:url(#SVGID_00000069377864104171193520000015785052609027751332_);}
	.st23{fill:#202020;}
	
		.st24{fill:#FFFFFF;stroke:#000000;stroke-width:2;stroke-linecap:round;stroke-linejoin:round;stroke-miterlimit:10;stroke-dasharray:12,5,10,15,4,16;}
	.st25{filter:url(#Adobe_OpacityMaskFilter_00000030472887807305712240000017552242739587669398_);}
	.st26{opacity:0.12;mask:url(#SVGID_00000055673501466035954420000000934679393214296250_);}
	.st27{filter:url(#Adobe_OpacityMaskFilter_00000082358457798489909220000016054684956449787020_);}
	.st28{opacity:0.12;mask:url(#SVGID_00000023969361244243393520000003536903043753352611_);}
	.st29{filter:url(#Adobe_OpacityMaskFilter_00000130643395250629145350000016912482294154085006_);}
	.st30{opacity:0.12;mask:url(#SVGID_00000077321342354078562600000000653785396464332430_);}
	.st31{filter:url(#Adobe_OpacityMaskFilter_00000141425605094096910330000008969766357173864599_);}
	.st32{opacity:0.12;mask:url(#SVGID_00000144326348676608154400000014429510281016417964_);}
	.st33{clip-path:url(#SVGID_00000085215479526810508710000000845894192612008857_);fill:#1D1D1B;}
	.st34{fill:#1D1D1B;}
	.st35{opacity:0.25;fill:#FF7BA7;}
	.st36{fill:none;stroke:#FFFFFF;stroke-width:14;stroke-linecap:round;stroke-miterlimit:10;}
</style>
<g>
	<path class="st13" d="M40.7,81.9C51.8,83,61,73.8,59.9,62.7c-0.8-8.2-7.4-14.8-15.6-15.6C33.2,46,24,55.2,25.1,66.3
		C25.9,74.5,32.5,81.1,40.7,81.9z"/>
	<path class="st13" d="M40.7,148.1c-8.2,0.8-14.8,7.4-15.6,15.6c-1.1,11.1,8.1,20.3,19.2,19.2c8.2-0.8,14.8-7.4,15.6-15.6
		C61,156.2,51.8,147,40.7,148.1z"/>
	<path class="st13" d="M495.7,81.9c11.1,1.1,20.3-8.1,19.2-19.2c-0.8-8.2-7.4-14.8-15.6-15.6c-11.1-1.1-20.3,8.1-19.2,19.2
		C480.9,74.5,487.5,81.1,495.7,81.9z"/>
	<path class="st13" d="M495.7,148.1c-8.2,0.8-14.8,7.4-15.6,15.6c-1.1,11.1,8.1,20.3,19.2,19.2c8.2-0.8,14.8-7.4,15.6-15.6
		C516,156.2,506.8,147,495.7,148.1z"/>
	<path class="st13" d="M490.9,107c-9.9,0-18.7-6.6-21.2-16.2c-11-41.2-48.6-71.5-93.2-71.5H371c-6.6,0-12-5.4-12-12V0h-18v7.2
		c0,6.6-5.4,12-12,12H210c-6.6,0-12-5.4-12-12V0h-18v7.2c0,6.6-5.4,12-12,12h-4.5c-44.6,0-82.1,30.2-93.2,71.3
		c-2.6,9.6-11.3,16.2-21.2,16.2H0v18h49.1c9.9,0,18.6,6.6,21.2,16.2c10.5,39,44.9,68.2,86.5,71.1h226.4c41.5-2.9,75.8-32,86.4-70.9
		c2.6-9.5,11.3-16.1,21.2-16.1H541v-18H490.9z"/>
</g>
</svg>
