<?xml version="1.0" encoding="utf-8"?>
<!-- Generator: Adobe Illustrator 28.0.0, SVG Export Plug-In . SVG Version: 6.00 Build 0)  -->
<svg version="1.1" id="Ebene_1" xmlns="http://www.w3.org/2000/svg" xmlns:xlink="http://www.w3.org/1999/xlink" x="0px" y="0px"
	 viewBox="0 0 326.1 408.3" style="enable-background:new 0 0 326.1 408.3;" xml:space="preserve">
<style type="text/css">
	
		.st0{fill:none;stroke:#000000;stroke-width:2;stroke-linecap:round;stroke-miterlimit:10;stroke-dasharray:12.198,5.0825,10.165,15.2475,4.066,16.264;}
	
		.st1{fill:none;stroke:#000000;stroke-width:3;stroke-linecap:round;stroke-linejoin:round;stroke-miterlimit:10;stroke-dasharray:2,6,2,6,2,6;}
	
		.st2{fill:none;stroke:#000000;stroke-width:3;stroke-linecap:round;stroke-linejoin:round;stroke-miterlimit:10;stroke-dasharray:20,40,20,25,20,25;}
	
		.st3{fill:none;stroke:#000000;stroke-width:3;stroke-linecap:round;stroke-linejoin:round;stroke-miterlimit:10;stroke-dasharray:12,5,10,15,4,16;}
	
		.st4{fill:none;stroke:#000000;stroke-width:4;stroke-linecap:round;stroke-linejoin:round;stroke-miterlimit:10;stroke-dasharray:1,10,1,10,1,5;}
	.st5{fill:none;}
	.st6{fill:none;stroke:#000000;stroke-width:0.2;stroke-miterlimit:10;}
	.st7{fill:#FF00FF;}
	
		.st8{fill:none;stroke:#000000;stroke-width:3;stroke-linecap:round;stroke-linejoin:round;stroke-miterlimit:10;stroke-dasharray:2,3,2,3,2,6;}
	.st9{opacity:0.49;fill:#FF00FF;}
	
		.st10{fill:none;stroke:#000000;stroke-width:3;stroke-linecap:square;stroke-linejoin:round;stroke-miterlimit:10;stroke-dasharray:20,30,20,30,20,30;}
	.st11{fill:none;stroke:#000000;stroke-linecap:round;stroke-linejoin:round;stroke-miterlimit:10;}
	.st12{clip-path:url(#SVGID_00000096754238959224047920000007165531253861482392_);fill:#1D1D1B;}
	.st13{fill:#FFFFFF;}
	.st14{filter:url(#Adobe_OpacityMaskFilter);}
	.st15{opacity:9.000000e-02;mask:url(#SVGID_00000070840880941903077230000000253548076364854664_);}
	.st16{filter:url(#Adobe_OpacityMaskFilter_00000078762971325321540370000018085901840712940729_);}
	.st17{opacity:9.000000e-02;mask:url(#SVGID_00000039108735091207668840000010091164234199587742_);}
	.st18{fill:#F4F4F5;}
	.st19{filter:url(#Adobe_OpacityMaskFilter_00000036251705750987454350000011384490520242525087_);}
	.st20{opacity:0.12;mask:url(#SVGID_00000070830121165500328310000010059256431990323615_);}
	.st21{filter:url(#Adobe_OpacityMaskFilter_00000113329743264396302080000015322906045790130841_);}
	.st22{opacity:0.12;mask:url(#SVGID_00000103969344772949185320000000160700787775976096_);}
	.st23{filter:url(#Adobe_OpacityMaskFilter_00000008858329985813510770000001859755051208239232_);}
	.st24{opacity:0.12;mask:url(#SVGID_00000095339221589716560470000000941459101496648580_);}
	.st25{fill:#202020;}
	
		.st26{fill:#FFFFFF;stroke:#000000;stroke-width:2;stroke-linecap:round;stroke-linejoin:round;stroke-miterlimit:10;stroke-dasharray:12,5,10,15,4,16;}
	.st27{filter:url(#Adobe_OpacityMaskFilter_00000109746042984211454800000003736980342068176019_);}
	.st28{opacity:0.12;mask:url(#SVGID_00000139271488242685257140000014067954086191085234_);}
	.st29{filter:url(#Adobe_OpacityMaskFilter_00000094581617552726103630000011432446588977572484_);}
	.st30{opacity:0.12;mask:url(#SVGID_00000150798217058420720190000002939965200822336656_);}
	.st31{filter:url(#Adobe_OpacityMaskFilter_00000173151602522985555170000006212069116705777310_);}
	.st32{opacity:0.12;mask:url(#SVGID_00000100373231064325586970000014220697103309406904_);}
	.st33{filter:url(#Adobe_OpacityMaskFilter_00000076564614586823051970000010377945575722094780_);}
	.st34{opacity:0.12;mask:url(#SVGID_00000072965907852655654470000015772262596663425454_);}
	.st35{clip-path:url(#SVGID_00000069367786007342448270000016020060561371248538_);fill:#1D1D1B;}
	.st36{fill:#1D1D1B;}
	.st37{opacity:0.25;fill:#FF7BA6;}
	.st38{fill:none;stroke:#FFFFFF;stroke-width:14;stroke-linecap:round;stroke-miterlimit:10;}
	.st39{fill:#00FF00;}
	.st40{fill:#FF7BA6;}
	.st41{opacity:0.14;fill:#00A498;}
	.st42{fill:#00A498;}
	.st43{opacity:0.78;fill:#FFFFFF;stroke:#000000;stroke-miterlimit:10;}
	.st44{fill:#FFFFFF;stroke:#000000;stroke-miterlimit:10;}
	.st45{fill:none;stroke:#FF7BA6;stroke-width:21;stroke-miterlimit:10;}
</style>
<g>
	<g>
		<path d="M244.3,12.1c-32.5,7.6-53.8,39.1-54,70.5c0.2,31.4,21.5,62.8,54,70.5c32.3,7.7,66.2-23.6,66.2-70.5
			C310.5,35.7,276.6,4.4,244.3,12.1z"/>
	</g>
</g>
<path d="M311.5,274.5c-5.7-39.5-26.1-72.7-51.6-70.1c-24.6,3.2-49.8,34.3-56.3,69.7c-6.5,35.3,18.5,66.1,56.4,70.7
	c18.5,2,34.5-5.9,43.3-19C312.3,312.6,314.2,294.2,311.5,274.5z"/>
<g>
	<g>
		<path d="M119.9,249.7c-3-43.9-33.5-72.6-61.5-65.2C30.1,191.9,8.1,221.2,5,249.1c-2.8,27.8,19.2,56.4,53.4,65.2
			c32.8,8.5,62.3-18.4,61.7-59.8C120.1,252.9,120,251.4,119.9,249.7z"/>
	</g>
	<g>
		<path class="st5" d="M119.9,249.7c-3-43.9-33.5-72.6-61.5-65.2C30.1,191.9,8.1,221.2,5,249.1c-2.8,27.8,19.2,56.4,53.4,65.2
			c32.8,8.5,62.3-18.4,61.7-59.8C120.1,252.9,120,251.4,119.9,249.7z"/>
	</g>
	<g>
		<path class="st5" d="M119.9,249.7c-3-43.9-33.5-72.6-61.5-65.2C30.1,191.9,8.1,221.2,5,249.1c-2.8,27.8,19.2,56.4,53.4,65.2
			c32.8,8.5,62.3-18.4,61.7-59.8C120.1,252.9,120,251.4,119.9,249.7z"/>
	</g>
</g>
<path d="M119.1,31.6C96.5,1.7,50.3-0.6,24.5,33.5C-1.2,67.3,1.1,112.2,20,128c19,16.1,54.3,6.9,84-12.9
	C133.3,95.3,141.9,61.7,119.1,31.6z"/>
</svg>
