<?xml version="1.0" encoding="utf-8"?>
<!-- Generator: Adobe Illustrator 28.0.0, SVG Export Plug-In . SVG Version: 6.00 Build 0)  -->
<svg version="1.1" id="Ebene_1" xmlns="http://www.w3.org/2000/svg" xmlns:xlink="http://www.w3.org/1999/xlink" x="0px" y="0px"
	 viewBox="0 0 242 320" style="enable-background:new 0 0 242 320;" xml:space="preserve">
<style type="text/css">
	
		.st0{fill:none;stroke:#000000;stroke-width:2;stroke-linecap:round;stroke-miterlimit:10;stroke-dasharray:12.198,5.0825,10.165,15.2475,4.066,16.264;}
	
		.st1{fill:none;stroke:#000000;stroke-width:3;stroke-linecap:round;stroke-linejoin:round;stroke-miterlimit:10;stroke-dasharray:2,6,2,6,2,6;}
	
		.st2{fill:none;stroke:#000000;stroke-width:3;stroke-linecap:round;stroke-linejoin:round;stroke-miterlimit:10;stroke-dasharray:20,40,20,25,20,25;}
	
		.st3{fill:none;stroke:#000000;stroke-width:3;stroke-linecap:round;stroke-linejoin:round;stroke-miterlimit:10;stroke-dasharray:12,5,10,15,4,16;}
	
		.st4{fill:none;stroke:#000000;stroke-width:4;stroke-linecap:round;stroke-linejoin:round;stroke-miterlimit:10;stroke-dasharray:1,10,1,10,1,5;}
	.st5{fill:none;}
	.st6{fill:none;stroke:#000000;stroke-width:0.2;stroke-miterlimit:10;}
	.st7{fill:#FF00FF;}
	
		.st8{fill:none;stroke:#000000;stroke-width:3;stroke-linecap:round;stroke-linejoin:round;stroke-miterlimit:10;stroke-dasharray:2,3,2,3,2,6;}
	.st9{opacity:0.49;fill:#FF00FF;}
	
		.st10{fill:none;stroke:#000000;stroke-width:3;stroke-linecap:square;stroke-linejoin:round;stroke-miterlimit:10;stroke-dasharray:20,30,20,30,20,30;}
	.st11{fill:none;stroke:#000000;stroke-linecap:round;stroke-linejoin:round;stroke-miterlimit:10;}
	.st12{clip-path:url(#SVGID_00000125601609837364694820000017242641501495800237_);fill:#1D1D1B;}
	.st13{fill:#FFFFFF;}
	.st14{filter:url(#Adobe_OpacityMaskFilter);}
	.st15{opacity:9.000000e-02;mask:url(#SVGID_00000155136156060282737620000001977760332149152436_);}
	.st16{filter:url(#Adobe_OpacityMaskFilter_00000116214728831744100520000007755391296220935050_);}
	.st17{opacity:9.000000e-02;mask:url(#SVGID_00000135691973287519458970000006814905117709913254_);}
	.st18{fill:#F4F4F5;}
	.st19{filter:url(#Adobe_OpacityMaskFilter_00000098899504807611564060000009008568536515598986_);}
	.st20{opacity:0.12;mask:url(#SVGID_00000095313225000516661430000007648978387054269608_);}
	.st21{filter:url(#Adobe_OpacityMaskFilter_00000183938679367937056210000003375683282465852310_);}
	.st22{opacity:0.12;mask:url(#SVGID_00000143596124982797082580000008657608867687980976_);}
	.st23{fill:#202020;}
	
		.st24{fill:#FFFFFF;stroke:#000000;stroke-width:2;stroke-linecap:round;stroke-linejoin:round;stroke-miterlimit:10;stroke-dasharray:12,5,10,15,4,16;}
	.st25{filter:url(#Adobe_OpacityMaskFilter_00000093151863073208587110000016369068918682832520_);}
	.st26{opacity:0.12;mask:url(#SVGID_00000016792718047300112980000003293166142444334773_);}
	.st27{filter:url(#Adobe_OpacityMaskFilter_00000120549862218681392330000003681028127462781366_);}
	.st28{opacity:0.12;mask:url(#SVGID_00000178901297320188037620000002333101414547674294_);}
	.st29{filter:url(#Adobe_OpacityMaskFilter_00000012449513619601363110000003750099675217139381_);}
	.st30{opacity:0.12;mask:url(#SVGID_00000005984670181262771060000013043662546014100664_);}
	.st31{filter:url(#Adobe_OpacityMaskFilter_00000085231671290996431750000004599852689114496154_);}
	.st32{opacity:0.12;mask:url(#SVGID_00000174587654881154917240000013921693680633786754_);}
	.st33{clip-path:url(#SVGID_00000006680225786123483740000000511046023471124145_);fill:#1D1D1B;}
	.st34{fill:#1D1D1B;}
	.st35{opacity:0.25;fill:#FF7BA7;}
	.st36{fill:none;stroke:#FFFFFF;stroke-width:14;stroke-linecap:round;stroke-miterlimit:10;}
</style>
<path d="M198,232c-2.1,0-4.2,0.2-6.3,0.5l0,0c-6.1,0.9-12.1,1.1-17.9,0.8c-91.5-4.8-91.5-141.8,0-146.5c5.9-0.3,11.9,0,17.9,0.8l0,0
	c2,0.3,4.1,0.5,6.3,0.5c24.9,0,44.9-20.6,44-45.7C241.1,20,223.3,1.6,201,0.1c-23.6-1.6-43.5,15.5-46.6,37.9l0,0
	c-7,50.5-53.7,85.7-104.2,78.5l0,0c-2-0.3-4.1-0.5-6.3-0.5c-24.3,0-44,19.7-44,44s19.7,44,44,44c2.1,0,4.2-0.2,6.3-0.5l0,0
	c50.5-7.2,97.2,28,104.2,78.5l0,0c3.1,22.4,23,39.5,46.6,37.9c22.3-1.5,40.1-19.9,41-42.2C242.9,252.6,222.9,232,198,232z"/>
</svg>
