<?xml version="1.0" encoding="utf-8"?>
<!-- Generator: Adobe Illustrator 28.0.0, SVG Export Plug-In . SVG Version: 6.00 Build 0)  -->
<svg version="1.1" id="Ebene_1" xmlns="http://www.w3.org/2000/svg" xmlns:xlink="http://www.w3.org/1999/xlink" x="0px" y="0px"
	 viewBox="0 0 540.1 394.4" style="enable-background:new 0 0 540.1 394.4;" xml:space="preserve">
<style type="text/css">
	
		.st0{fill:none;stroke:#000000;stroke-width:2;stroke-linecap:round;stroke-miterlimit:10;stroke-dasharray:12.198,5.0825,10.165,15.2475,4.066,16.264;}
	
		.st1{fill:none;stroke:#000000;stroke-width:3;stroke-linecap:round;stroke-linejoin:round;stroke-miterlimit:10;stroke-dasharray:2,6,2,6,2,6;}
	
		.st2{fill:none;stroke:#000000;stroke-width:3;stroke-linecap:round;stroke-linejoin:round;stroke-miterlimit:10;stroke-dasharray:20,40,20,25,20,25;}
	
		.st3{fill:none;stroke:#000000;stroke-width:3;stroke-linecap:round;stroke-linejoin:round;stroke-miterlimit:10;stroke-dasharray:12,5,10,15,4,16;}
	
		.st4{fill:none;stroke:#000000;stroke-width:4;stroke-linecap:round;stroke-linejoin:round;stroke-miterlimit:10;stroke-dasharray:1,10,1,10,1,5;}
	.st5{fill:none;}
	.st6{fill:none;stroke:#000000;stroke-width:0.2;stroke-miterlimit:10;}
	.st7{fill:#FF00FF;}
	
		.st8{fill:none;stroke:#000000;stroke-width:3;stroke-linecap:round;stroke-linejoin:round;stroke-miterlimit:10;stroke-dasharray:2,3,2,3,2,6;}
	.st9{opacity:0.49;fill:#FF00FF;}
	
		.st10{fill:none;stroke:#000000;stroke-width:3;stroke-linecap:square;stroke-linejoin:round;stroke-miterlimit:10;stroke-dasharray:20,30,20,30,20,30;}
	.st11{fill:none;stroke:#000000;stroke-linecap:round;stroke-linejoin:round;stroke-miterlimit:10;}
	.st12{clip-path:url(#SVGID_00000134939476200808650590000017664557190208565385_);fill:#1D1D1B;}
	.st13{fill:#FFFFFF;}
	.st14{filter:url(#Adobe_OpacityMaskFilter);}
	.st15{opacity:9.000000e-02;mask:url(#SVGID_00000096028830233569620180000001449423227563644599_);}
	.st16{filter:url(#Adobe_OpacityMaskFilter_00000075868605091172011830000016463704421325189536_);}
	.st17{opacity:9.000000e-02;mask:url(#SVGID_00000101061560534415193070000000907756986304183206_);}
	.st18{fill:#F4F4F5;}
	.st19{filter:url(#Adobe_OpacityMaskFilter_00000146460919764116771670000012479632140848860073_);}
	.st20{opacity:0.12;mask:url(#SVGID_00000150800842130406815870000008354036261682236081_);}
	.st21{filter:url(#Adobe_OpacityMaskFilter_00000062913312969045980380000008106960776360993673_);}
	.st22{opacity:0.12;mask:url(#SVGID_00000122716369583266663980000004258211076846145960_);}
	.st23{filter:url(#Adobe_OpacityMaskFilter_00000063627889285870720700000003499812064446274218_);}
	.st24{opacity:0.12;mask:url(#SVGID_00000089561896094145199300000012182906046677253026_);}
	.st25{fill:#202020;}
	
		.st26{fill:#FFFFFF;stroke:#000000;stroke-width:2;stroke-linecap:round;stroke-linejoin:round;stroke-miterlimit:10;stroke-dasharray:12,5,10,15,4,16;}
	.st27{filter:url(#Adobe_OpacityMaskFilter_00000004542068821119868830000008315733190771872672_);}
	.st28{opacity:0.12;mask:url(#SVGID_00000124120387282911398990000015244052661769468573_);}
	.st29{filter:url(#Adobe_OpacityMaskFilter_00000000939654678836753670000017188616234940046504_);}
	.st30{opacity:0.12;mask:url(#SVGID_00000173144011945194994340000016003919574242296730_);}
	.st31{filter:url(#Adobe_OpacityMaskFilter_00000141445823429245174290000002864561034155256240_);}
	.st32{opacity:0.12;mask:url(#SVGID_00000117670455125317117150000006388984533042913687_);}
	.st33{filter:url(#Adobe_OpacityMaskFilter_00000173140506510141202520000008039198291874773392_);}
	.st34{opacity:0.12;mask:url(#SVGID_00000015336039170819130260000006695229876033804455_);}
	.st35{clip-path:url(#SVGID_00000081645340199164334510000008938037313078077855_);fill:#1D1D1B;}
	.st36{fill:#1D1D1B;}
	.st37{opacity:0.25;fill:#FF7BA6;}
	.st38{fill:none;stroke:#FFFFFF;stroke-width:14;stroke-linecap:round;stroke-miterlimit:10;}
	.st39{fill:#00FF00;}
	.st40{fill:#FF7BA6;}
	.st41{opacity:0.14;fill:#00A498;}
	.st42{fill:#00A498;}
	.st43{opacity:0.78;fill:#FFFFFF;stroke:#000000;stroke-miterlimit:10;}
	.st44{fill:#FFFFFF;stroke:#000000;stroke-miterlimit:10;}
	.st45{fill:none;stroke:#FF7BA6;stroke-width:21;stroke-miterlimit:10;}
</style>
<path d="M504.9,325.4H310.5c-14.7,0-27.1-11.5-27.6-26.2c-0.4-15.3,11.8-27.8,27-27.8h152.6c42.4,0,77.6-34.1,77.6-76.5
	c0-29-16.2-54.2-40-67.2c-9.9-5.4-17.5-14.5-20.4-25.4c-10.9-41.8-52.6-74.3-90.6-90.4C373.1,5.2,356.2,0.7,338.5,0
	c-9.5-0.4-17.5,7.5-17.1,17.1c0.4,9.1,8,16.1,17.1,15.7c6.4-0.3,13.2,0.2,20,1.4c6.8,1.1,13.6,2.9,20.4,5.1
	C395.5,45,414,54.5,429.4,67c14.9,12.2,13.1,32.8,1,43.9c-5,4.6-12.6,5.4-18.4,1.7c0,0-0.1,0-0.1-0.1c-11.5-7.1-18.1-21.1-15.2-34.1
	c1.7-7.8-3.3-15.5-11.1-17.2c-10.3-2.3-19.3,7-17.3,17.2c1.1,10.7,5.4,20.7,11.9,28.7c3.7,4.6,0.6,11.3-5.3,11.3H165.7
	c-5.9,0-9-6.8-5.3-11.3c6.5-8,10.8-17.9,11.9-28.7c2-10.2-7-19.4-17.3-17.2c-7.8,1.7-12.8,9.4-11.1,17.2c3,13-3.7,27.1-15.2,34.1
	c0,0-0.1,0-0.1,0.1c-5.8,3.7-13.4,2.9-18.4-1.7c-12-11.1-13.9-31.7,1-43.9c15.4-12.6,33.9-22,50.6-27.7c6.7-2.2,13.6-4,20.4-5.1
	c6.8-1.1,13.5-1.7,20-1.4c9.1,0.4,16.7-6.7,17.1-15.7c0.4-9.5-7.6-17.5-17.1-17.1c-17.8,0.7-34.6,5.2-50.7,11.8
	c-37.8,16-79.5,48.4-90.5,90.1c-2.9,11-10.6,20.1-20.7,25.5c-24.3,13-40.8,38.8-40.5,68.4c0.5,42,35.5,75.5,77.5,75.5h150.8
	c14.7,0,27.1,11.5,27.6,26.2c0.4,15.3-11.8,27.8-27,27.8H35.2c-19.3,0-35.5,15.8-35.2,35.2c0.4,18.7,15.7,33.8,34.5,33.8h471.1
	c18.8,0,34.1-15.1,34.5-33.8C540.5,341.3,524.3,325.4,504.9,325.4z"/>
</svg>
