<svg width="352" height="632" viewBox="0 0 352 632" fill="none" xmlns="http://www.w3.org/2000/svg">
<g filter="url(#filter0_i_4329_555)">
<path d="M153.753 147.696C149.99 144.394 145.636 141.677 140.781 139.715C137.785 138.506 134.561 137.947 131.331 137.947H107.303C105.834 137.947 104.385 137.882 102.942 137.784C75.9896 135.932 53.7166 117.065 46.8079 91.828C45.0986 85.5887 39.4702 81.2407 33.0035 81.2407H0.390228V69.5421H32.919C39.3727 69.5421 45.0466 65.2265 46.7104 58.9938C53.8596 32.2233 78.2773 12.5111 107.303 12.5111H110.858C115.18 12.5111 118.677 9.00797 118.677 4.69246V0H130.375V4.69246C130.375 9.01447 133.878 12.5111 138.194 12.5111H215.49C219.812 12.5111 223.308 9.00797 223.308 4.69246V0H235.007V4.69246C235.007 9.01447 238.51 12.5111 242.825 12.5111H245.731C274.704 12.5111 299.09 32.1648 306.291 58.8638C307.968 65.0836 313.635 69.3796 320.076 69.3796H352V81.0782H320.076C313.596 81.0782 307.961 85.4457 306.265 91.698C299.395 116.993 277.096 135.925 250.098 137.784C248.655 137.882 247.206 137.947 245.737 137.947H220.715C217.134 137.947 213.585 138.668 210.303 140.104C205.832 142.067 201.802 144.68 198.299 147.806C183.351 161.123 192.84 185.885 212.864 185.885H248.987C258.859 185.885 266.86 193.886 266.86 203.758C266.86 203.817 266.86 203.882 266.86 203.94C266.782 211.863 273.028 218.382 280.944 218.382H285.779C291.18 218.382 296.243 222.756 296.711 228.137C297.27 234.493 292.272 239.829 286.026 239.829H233.278C228.943 239.829 225.135 243.007 224.66 247.316C224.101 252.412 228.072 256.727 233.057 256.727H303.535C330.299 256.727 351.994 278.422 351.994 305.186V407.789C351.994 434.553 330.299 456.248 303.535 456.248H273.352C271.123 456.709 274.314 475.323 285.578 477.305C293.604 478.716 299.622 485.404 299.622 493.554V493.833C299.622 508.664 302.742 523.398 309.248 536.728C310.385 539.055 311.36 541.434 312.173 543.832C323.481 574.989 311.822 617.176 278.097 628.823C273.145 630.428 267.763 631.442 262.486 631.182C254.882 630.408 249.344 623.623 250.111 616.019C250.885 608.415 257.67 602.878 265.274 603.644C273.612 604.522 281.594 599.836 287.118 593.09C297.055 581.04 300.077 563.583 296.802 548.336C293.611 532.835 282.068 517.302 265.274 516.132C259.6 515.658 259.555 507.534 265.274 507.033C267.471 506.903 269.628 506.968 271.747 507.215C280.359 508.203 289.796 501.327 287.924 492.865C285.454 481.705 266.918 472.853 247.823 466.64C230.997 461.168 213.553 457.905 195.927 456.742C189.356 456.306 183.689 461.389 183.468 467.973C183.468 468.128 183.455 468.291 183.455 468.447C183.175 477.624 185.834 486.547 190.383 494.515C191.514 496.498 192.066 498.85 191.787 501.327C191.169 506.786 186.62 511.128 181.141 511.466C174.947 511.842 169.702 507.144 169.163 501.171C168.922 498.532 169.592 496.062 170.879 494.028C175.591 486.612 177.768 477.871 177.54 469.09C177.527 468.713 177.521 468.343 177.508 467.973C177.287 461.389 171.62 456.306 165.049 456.742C147.423 457.905 129.979 461.168 113.152 466.64C94.0575 472.853 75.5281 481.705 73.0519 492.865C71.1801 501.327 80.617 508.203 89.2286 507.215C91.3408 506.975 93.4986 506.91 95.7018 507.033C101.421 507.534 101.376 515.658 95.7018 516.132C78.9077 517.308 67.3716 532.835 64.174 548.336C60.8983 563.583 63.9205 581.04 73.8578 593.09C79.3822 599.836 87.3633 604.522 95.7018 603.644C103.306 602.871 110.091 608.415 110.865 616.019C111.638 623.623 106.094 630.408 98.49 631.182C93.2126 631.442 87.8312 630.428 82.8788 628.823C49.1476 617.176 37.4945 574.989 48.8032 543.832C49.6091 541.427 50.5905 539.048 51.7278 536.728C58.2401 523.398 61.3532 508.664 61.3532 493.833V493.554C61.3532 485.404 67.3716 478.722 75.3981 477.305C86.6548 475.323 89.8525 456.709 87.6232 456.248H48.8552C22.0912 456.248 0.396729 434.553 0.396729 407.789V305.186C0.396729 278.422 22.0912 256.727 48.8552 256.727H119.112C123.447 256.727 127.256 253.549 127.73 249.24C128.296 244.145 124.318 239.829 119.333 239.829H66.6176C61.2168 239.829 56.1538 235.455 55.6859 230.074C55.1335 223.717 60.1249 218.382 66.3707 218.382H71.4596C79.3822 218.382 85.6215 211.856 85.5435 203.94C85.5435 203.882 85.5435 203.817 85.5435 203.758C85.5435 193.886 93.5441 185.885 103.416 185.885H139.325C159.427 185.885 168.883 160.948 153.766 147.702L153.753 147.696Z" fill="white"/>
</g>
<defs>
<filter id="filter0_i_4329_555" x="0.390259" y="0" width="351.61" height="635.222" filterUnits="userSpaceOnUse" color-interpolation-filters="sRGB">
<feFlood flood-opacity="0" result="BackgroundImageFix"/>
<feBlend mode="normal" in="SourceGraphic" in2="BackgroundImageFix" result="shape"/>
<feColorMatrix in="SourceAlpha" type="matrix" values="0 0 0 0 0 0 0 0 0 0 0 0 0 0 0 0 0 0 127 0" result="hardAlpha"/>
<feOffset dy="4"/>
<feGaussianBlur stdDeviation="2"/>
<feComposite in2="hardAlpha" operator="arithmetic" k2="-1" k3="1"/>
<feColorMatrix type="matrix" values="0 0 0 0 0 0 0 0 0 0 0 0 0 0 0 0 0 0 0.25 0"/>
<feBlend mode="normal" in2="shape" result="effect1_innerShadow_4329_555"/>
</filter>
</defs>
</svg>
