<svg width="16" height="16" viewBox="0 0 16 16" fill="none" xmlns="http://www.w3.org/2000/svg">
<g clip-path="url(#clip0_8367_5772)">
<path d="M1.33325 11.9998V13.9998C1.33325 14.3998 1.59992 14.6664 1.99992 14.6664H4.66659V12.6664H6.66659V10.6664H7.99992L8.93325 9.73312C9.85981 10.0559 10.8685 10.0546 11.7942 9.72962C12.72 9.40459 13.5081 8.77501 14.0295 7.94387C14.5509 7.11272 14.7749 6.12923 14.6647 5.15427C14.5545 4.17932 14.1167 3.27062 13.4229 2.57683C12.7291 1.88304 11.8204 1.44524 10.8454 1.33504C9.87047 1.22484 8.88698 1.44878 8.05584 1.97021C7.22469 2.49164 6.59511 3.2797 6.27008 4.20546C5.94506 5.13123 5.94382 6.13989 6.26659 7.06645L1.33325 11.9998Z" stroke="#110F2A" stroke-width="1.5" stroke-linecap="round" stroke-linejoin="round"/>
<path d="M10.9999 5.33313C11.184 5.33313 11.3333 5.18389 11.3333 4.9998C11.3333 4.8157 11.184 4.66646 10.9999 4.66646C10.8158 4.66646 10.6666 4.8157 10.6666 4.9998C10.6666 5.18389 10.8158 5.33313 10.9999 5.33313Z" stroke="#110F2A" stroke-width="1.5" stroke-linecap="round" stroke-linejoin="round"/>
</g>
<defs>
<clipPath id="clip0_8367_5772">
<rect width="16" height="16" fill="white"/>
</clipPath>
</defs>
</svg>
