<svg width="48" height="48" viewBox="0 0 48 48" fill="none" xmlns="http://www.w3.org/2000/svg">
<g filter="url(#filter0_i_4206_21934)">
<circle cx="24" cy="24" r="24" fill="url(#paint0_radial_4206_21934)"/>
</g>
<path d="M17.9722 7.64089C17.9722 7.64089 17.9697 7.64089 17.968 7.64089V7.64509H17.2933C17.2832 7.7166 17.2748 7.77717 17.2672 7.83522C17.1881 7.84448 17.1208 7.85289 17.04 7.86214C17.0434 7.9387 17.0468 8.00516 17.0501 8.07499C17.1317 8.08509 17.1982 8.0935 17.263 8.10191C17.2748 8.17595 17.284 8.23399 17.2916 8.28615H17.968V7.64593H17.9739C17.9739 7.64593 17.9739 7.64257 17.9739 7.64089C18.1312 7.63331 18.2877 7.62658 18.4526 7.61901C18.4593 7.53657 18.466 7.46337 18.4719 7.38934C18.5443 7.37924 18.6032 7.37167 18.6637 7.36326V6.92242C18.5981 6.91654 18.5392 6.91233 18.4694 6.90644C18.4635 6.83745 18.4585 6.77772 18.4534 6.71631H17.9697C17.9596 6.78866 17.9512 6.84923 17.9427 6.9056C17.8738 6.91906 17.8157 6.93084 17.7585 6.94177V7.35569C17.8258 7.37336 17.8881 7.39018 17.9377 7.40364C17.9512 7.49534 17.9629 7.56938 17.973 7.64173L17.9722 7.64089Z" fill="black"/>
<path d="M8.17573 21.1182C8.09244 21.1258 8.02513 21.1317 7.95699 21.1375V21.7938H8.65105C8.66451 21.7239 8.67629 21.665 8.68723 21.6095C8.76799 21.6019 8.83445 21.5961 8.88914 21.591V20.1911H7.9755C7.9612 20.0943 7.95194 20.0287 7.94185 19.9614H7.29321V20.6723H8.17488V21.1182H8.17573Z" fill="black"/>
<path d="M20.9812 39.5107H20.5202V38.8545C20.4369 38.8419 20.378 38.8326 20.3166 38.8226C20.3116 38.7426 20.3073 38.6745 20.3031 38.5996H19.6133V39.4914C19.8589 39.5032 20.0802 39.5141 20.3216 39.5267V40.2199H21.2227V39.7682C21.1436 39.7597 21.0763 39.7522 21.0023 39.7438C20.9955 39.6664 20.9888 39.5991 20.9804 39.5116L20.9812 39.5107Z" fill="black"/>
<path d="M35.2436 28.591C35.0013 28.5977 34.7582 28.5927 34.4957 28.5927V29.2741C34.4738 29.2699 34.452 29.2649 34.4309 29.2607C34.3662 29.3313 34.3005 29.402 34.2173 29.4929C34.1811 29.4962 34.1079 29.5038 34.0364 29.5114C34.0221 30.3384 33.9379 30.1945 34.6631 30.2147C34.6825 30.2147 34.7018 30.2046 34.7439 30.1928V29.5778C34.8785 29.4786 34.966 29.4146 35.0535 29.3507C35.0459 29.3381 35.0375 29.3263 35.0299 29.3137C35.1662 29.2977 35.3017 29.2825 35.4388 29.2666C35.4388 29.0975 35.4346 28.9444 35.4396 28.7921C35.4439 28.6524 35.3917 28.5868 35.2445 28.591H35.2436Z" fill="black"/>
<path d="M31.97 21.8818C32.0667 21.7876 32.129 21.7279 32.1904 21.669C32.1769 21.6513 32.1635 21.6337 32.15 21.616C32.0911 21.6067 32.0322 21.5983 31.9691 21.5882C31.9649 21.5075 31.9616 21.4376 31.9582 21.3535H31.2591C31.2507 21.4419 31.244 21.5167 31.2364 21.5941C31.1607 21.6017 31.0934 21.6093 31.0227 21.6168C31.0126 21.6816 31.005 21.7346 30.9958 21.791C30.9217 21.8002 30.8544 21.8078 30.7838 21.8162C30.7762 21.8919 30.7695 21.9592 30.7627 22.0308C30.6828 22.04 30.6163 22.0467 30.5474 22.0543V22.7602H31.2423C31.2473 22.6752 31.2515 22.6011 31.2566 22.5137C31.5906 22.5212 31.4644 22.2428 31.5258 22.0686C31.6738 22.061 31.8177 22.0535 31.9599 22.0459C31.9649 21.9576 31.9691 21.8886 31.97 21.8802V21.8818Z" fill="black"/>
<path d="M34.264 12.2899C34.1841 12.2958 34.1168 12.3017 34.0352 12.3076V12.7484C34.1193 12.7568 34.1933 12.7644 34.264 12.7711C34.2766 12.8418 34.2867 12.8998 34.2993 12.9739H34.9816C34.9892 13.0639 34.9951 13.1371 35.0001 13.2069H35.6597V12.5196C35.5848 12.5069 35.52 12.496 35.4611 12.4868C35.4468 12.4211 35.4342 12.3681 35.4056 12.2403C35.3089 12.3278 35.2542 12.3984 35.1818 12.4346C35.1381 12.4565 35.0615 12.4413 35.0136 12.4161C34.9867 12.4018 34.9892 12.3336 34.9799 12.2966C34.895 12.2874 34.8277 12.2798 34.7578 12.2722C34.7503 12.1931 34.7435 12.1258 34.7359 12.0552H34.2842C34.2766 12.1376 34.2699 12.2117 34.2631 12.2899H34.264Z" fill="black"/>
<path d="M18.4586 10.9404C18.4653 11.1431 18.4602 11.3459 18.4602 11.5638H19.119C19.1265 11.4771 19.1324 11.409 19.1392 11.3324C19.2199 11.3223 19.2931 11.3131 19.3747 11.3021C19.3486 11.0472 19.5556 11.1557 19.6616 11.1044C19.7171 11.0775 19.8164 11.0582 19.8223 11.0228C19.8425 10.905 19.8299 10.7805 19.8299 10.6611C19.7483 10.6527 19.6809 10.6459 19.6094 10.6384C19.6036 10.5576 19.5977 10.4903 19.5926 10.4238H18.9507C18.9381 10.5138 18.9288 10.5795 18.9187 10.656C18.8498 10.656 18.7942 10.6594 18.7395 10.656C18.5317 10.6392 18.4527 10.741 18.4586 10.9404Z" fill="black"/>
<path d="M37.302 30.4399H36.8544C36.8435 30.5258 36.8342 30.5989 36.825 30.6705C36.7434 30.6772 36.6761 30.6831 36.6003 30.6898V31.1281C36.6912 31.1382 36.7652 31.1466 36.8359 31.1542C36.8502 31.224 36.862 31.2821 36.8729 31.3384C37.0235 31.3469 37.1606 31.3553 37.2995 31.3628C37.3045 31.4478 37.3095 31.516 37.3138 31.5942H37.9599V30.694C37.7352 30.6822 37.53 30.6713 37.3297 30.6604C37.3188 30.567 37.3104 30.5014 37.3028 30.4399H37.302Z" fill="black"/>
<path d="M19.5213 33.9388C19.4758 33.9481 19.4094 34.007 19.4077 34.0448C19.3976 34.3065 19.4026 34.5681 19.4026 34.8297H20.7823V34.1702C20.5316 34.1702 20.323 34.171 20.1135 34.1702C19.9612 34.1693 19.8283 34.1424 19.8637 33.9136C19.7282 33.922 19.6222 33.9178 19.5221 33.9388H19.5213Z" fill="black"/>
<path d="M22.8767 20.6941C23.0896 20.6066 23.0694 20.7698 23.0921 20.8632H23.5245C23.538 20.7909 23.5481 20.7328 23.5582 20.6798C23.6482 20.6697 23.7214 20.6613 23.7971 20.6529C23.8013 20.5721 23.8047 20.504 23.8089 20.4325C23.8804 20.4165 23.9443 20.4022 23.9998 20.3896V19.9664C23.9266 19.9546 23.8677 19.9454 23.8164 19.937C23.803 19.8638 23.7929 19.8057 23.7836 19.7544H23.3487C23.3419 19.8183 23.3361 19.8722 23.3293 19.937C23.0276 19.9661 22.877 20.1338 22.8775 20.44C22.8775 20.5149 22.8775 20.5898 22.8775 20.6941H22.8767Z" fill="black"/>
<path d="M35.1893 36.2867C35.1169 36.2749 35.058 36.2656 34.9983 36.2564C34.9932 36.1756 34.989 36.1083 34.984 36.0317C34.7409 36.0317 34.5087 36.0317 34.2765 36.0317V36.025C34.2765 36.025 34.2723 36.025 34.2706 36.025C34.2773 35.9602 34.284 35.8955 34.2916 35.8315C34.3631 35.8206 34.422 35.8122 34.496 35.8012C34.4868 35.6061 34.4809 35.426 34.4658 35.2468C34.4624 35.2056 34.4346 35.1492 34.401 35.1299C34.12 34.9742 33.823 35.1383 33.8138 35.4513C33.8104 35.569 33.8138 35.6868 33.8138 35.8046L33.8642 35.7735C33.9341 35.8433 34.0039 35.914 34.104 36.0149C34.125 36.0166 34.1974 36.0208 34.2706 36.0259C34.2706 36.0284 34.2706 36.0309 34.2706 36.0334C34.2706 36.0334 34.2756 36.0334 34.2781 36.0334V36.7275C34.3547 36.7426 34.4136 36.7553 34.4683 36.7662C34.4792 36.831 34.4876 36.884 34.4977 36.9471H35.1994C35.2086 36.8756 35.2162 36.8167 35.2246 36.7519C35.3003 36.7426 35.3668 36.7351 35.4341 36.7275V36.502C35.3516 36.4928 35.2843 36.4852 35.2204 36.4776C35.2095 36.4036 35.2002 36.3439 35.1918 36.2892L35.1893 36.2867Z" fill="black"/>
<path d="M23.5306 22.748V22.0829C23.4506 22.0686 23.3908 22.0576 23.3311 22.0467C23.3412 22.0349 23.3521 22.0239 23.3622 22.0122L23.2115 21.8286C23.1576 21.8892 23.1037 21.9499 23.028 22.0366C22.9286 22.05 22.7872 22.0686 22.6516 22.0871V22.7505C22.8166 22.7581 22.9556 22.7707 23.0953 22.7699C23.2384 22.7699 23.3816 22.7556 23.5314 22.748H23.5306Z" fill="black"/>
<path d="M31.2405 20.4155C31.2464 20.4997 31.2506 20.5747 31.2565 20.653C31.4257 20.653 31.5848 20.6504 31.744 20.653C31.8795 20.6555 31.9511 20.6075 31.9494 20.4576C31.9469 20.2977 31.9637 20.1377 31.973 19.9558C31.8761 19.9483 31.8079 19.9424 31.7296 19.9365C31.7221 19.87 31.7145 19.811 31.7078 19.7529H31.2725C31.259 19.8279 31.2472 19.8935 31.2363 19.9558C30.9896 19.9895 30.9727 20.0274 31.035 20.392C31.0999 20.3987 31.1664 20.4063 31.2413 20.4139L31.2405 20.4155Z" fill="black"/>
<path d="M31.6903 26.2778C31.6263 26.266 31.5614 26.2542 31.5025 26.2425C31.4907 26.1608 31.4815 26.0943 31.4739 26.0396H31.026C31.0133 26.1246 31.0041 26.1911 30.9948 26.2542C30.9207 26.266 30.8618 26.2753 30.7944 26.2854V26.6516C30.8972 26.7535 30.9662 26.8217 31.0689 26.9236C31.8073 26.964 31.7046 26.9648 31.7071 26.3157C31.7071 26.3031 31.6962 26.2913 31.6894 26.277L31.6903 26.2778Z" fill="black"/>
<path d="M20.0698 40.451C19.9797 40.4409 19.92 40.4341 19.8602 40.4274C19.8501 40.3567 19.8408 40.2986 19.8341 40.248H19.414C19.3971 40.323 19.3845 40.3811 19.3727 40.4341C19.2893 40.4409 19.222 40.4467 19.1445 40.4526V40.8955C19.2237 40.9081 19.2961 40.9191 19.3685 40.93C19.3744 41.005 19.3794 41.0673 19.3887 41.1919C19.6152 41.1498 19.8913 41.1776 20.0033 41.0546C20.1128 40.9351 20.0538 40.6623 20.0698 40.451Z" fill="black"/>
<path d="M35.4994 29.9692C35.4876 29.9692 35.4766 29.9826 35.4632 29.9911C35.4564 30.0651 35.4497 30.1401 35.4421 30.2167C35.3663 30.2268 35.299 30.2352 35.2577 30.2403C35.0405 30.5829 35.4177 30.6419 35.5204 30.8246C35.5575 30.8902 35.7486 30.87 35.8791 30.8902C35.8959 30.8061 35.9077 30.748 35.9203 30.6857C35.9894 30.6806 36.05 30.6756 36.1081 30.6713C36.1561 29.8707 36.1392 29.9666 35.4985 29.9692H35.4994Z" fill="black"/>
<path d="M33.3401 13.2261C33.2609 13.2186 33.1927 13.2127 33.1153 13.2051C33.1085 13.1285 33.1035 13.0603 33.0942 12.9517C32.9157 13.0249 32.6547 12.8683 32.6438 13.2034C32.6438 13.2152 32.6126 13.2346 32.5949 13.2362C32.3895 13.2497 32.4383 13.4088 32.4518 13.5191C32.4602 13.5907 32.5394 13.6538 32.5865 13.7204C32.5992 13.7128 32.6118 13.7044 32.6244 13.6968C32.6354 13.7616 32.6471 13.8273 32.6547 13.8736H33.3401V13.227V13.2261Z" fill="black"/>
<path d="M35.327 34.1709C35.2933 34.1709 35.2588 34.1743 35.21 34.1759C35.2033 34.2416 35.1974 34.3006 35.1906 34.3704C35.1233 34.3763 35.0643 34.3822 34.9995 34.3881V34.8268C35.082 34.8386 35.1426 34.847 35.2007 34.8554C35.2134 34.9312 35.2243 34.9985 35.2369 35.0735H35.6486C35.6571 34.9893 35.6638 34.9228 35.6705 34.8546C35.7589 34.8461 35.8322 34.8394 35.9029 34.8327C35.9357 34.1002 35.9517 34.1852 35.3262 34.1709H35.327Z" fill="black"/>
<path d="M18.6771 35.3477C18.7571 35.341 18.8253 35.3351 18.9078 35.3283V34.8459C18.8362 34.8417 18.7731 34.8375 18.6981 34.8324C18.6847 34.771 18.6712 34.707 18.6577 34.6455H18.2191C18.2064 34.7179 18.1972 34.7769 18.1871 34.8333C18.1063 34.8408 18.0389 34.8467 17.9707 34.8526V35.3241C18.0583 35.3342 18.1324 35.3426 18.2022 35.3502C18.2561 35.5649 18.2974 35.5809 18.6459 35.5237C18.656 35.4664 18.6661 35.4083 18.6771 35.3468V35.3477Z" fill="black"/>
<path d="M37.3153 15.7751C37.37 15.7785 37.4172 15.7827 37.4652 15.7852C37.6453 15.7953 37.7683 15.7498 37.7792 15.5326C37.7826 15.4644 37.876 15.4047 37.9114 15.3331C37.9459 15.2632 37.9577 15.1815 37.9813 15.1024C37.8878 15.0864 37.8348 15.0771 37.7758 15.067C37.7708 14.9854 37.7666 14.9113 37.7624 14.8389H37.0686V15.5318C37.152 15.5402 37.2202 15.5469 37.2951 15.5545C37.3018 15.6311 37.3086 15.6985 37.3153 15.7759V15.7751Z" fill="black"/>
<path d="M17.7483 29.2786H18.197C18.2071 29.191 18.2147 29.1169 18.2231 29.0403C18.2964 29.0352 18.3595 29.031 18.4437 29.0243V28.5966C18.3604 28.5848 18.2871 28.5747 18.2122 28.5646C18.2063 28.4838 18.2021 28.4164 18.1962 28.3364H17.7542C17.7424 28.4164 17.7323 28.4897 17.7222 28.5595C17.6414 28.568 17.574 28.5755 17.5024 28.5831V29.0327C17.5833 29.0453 17.6565 29.0571 17.7256 29.0681C17.7348 29.1489 17.7416 29.2154 17.7491 29.2786H17.7483Z" fill="black"/>
<path d="M11.7308 22.9781C11.6685 22.8964 11.6356 22.8325 11.5826 22.7937C11.5599 22.7769 11.4614 22.8097 11.4588 22.8274C11.4353 23.016 11.2702 22.9781 11.1675 22.9916C11.0311 23.0101 10.9848 23.0623 10.9882 23.1894C10.9907 23.2703 10.9789 23.3511 10.9739 23.4336C11.0673 23.4462 11.1406 23.4563 11.2105 23.4664C11.2189 23.5473 11.2256 23.6146 11.2324 23.6803C11.4311 23.6803 11.6188 23.687 11.8049 23.6752C11.847 23.6727 11.916 23.6096 11.9185 23.5708C11.9303 23.3789 11.9236 23.1852 11.9236 22.9865C11.8461 22.9823 11.7771 22.979 11.7299 22.9764L11.7308 22.9781Z" fill="black"/>
<path d="M17.8439 35.8267C17.8001 35.8848 17.7563 35.9428 17.7008 36.0169C17.6578 36.0195 17.5879 36.0228 17.5181 36.0262V36.7208H18.2017C18.2101 36.6391 18.2169 36.5709 18.2245 36.5019C18.3078 36.491 18.3802 36.4808 18.4644 36.4699C18.456 36.3184 18.4476 36.182 18.44 36.0456C18.275 36.0287 18.1302 36.0136 18.0375 36.0043C17.9508 35.9252 17.8978 35.8755 17.8439 35.8267Z" fill="black"/>
<path d="M35.4432 21.3463C35.3641 21.3413 35.2959 21.3371 35.2159 21.3312C35.2083 21.2672 35.2016 21.2074 35.1932 21.1426H34.7705C34.7537 21.2167 34.7394 21.2807 34.7259 21.3413C34.6459 21.3489 34.5785 21.3556 34.5002 21.3623V21.7942C34.5819 21.8001 34.656 21.8052 34.7318 21.8111C34.7452 21.8927 34.7562 21.9652 34.7688 22.0409H35.1948C35.2016 21.9618 35.2075 21.8936 35.2142 21.8161C35.2967 21.8094 35.3691 21.8035 35.4432 21.7976V21.3455V21.3463Z" fill="black"/>
<path d="M19.1481 18.834C19.2331 18.8231 19.3055 18.8138 19.3762 18.8045V18.3095C19.3055 18.3002 19.2441 18.2926 19.1733 18.2842C19.1582 18.2245 19.1439 18.1672 19.1287 18.1074H18.6816C18.6724 18.184 18.6656 18.2447 18.6589 18.3028C18.5907 18.3171 18.5326 18.3289 18.4771 18.3406V18.7987C18.5444 18.8071 18.6033 18.8147 18.6614 18.8214C18.6724 18.893 18.6816 18.9519 18.6917 19.0176H19.1253C19.1338 18.951 19.1405 18.8921 19.1481 18.8323V18.834Z" fill="black"/>
<path d="M40.8036 31.3443C40.7977 31.2787 40.7927 31.2189 40.7851 31.1372C40.5864 31.1726 40.3456 31.048 40.3229 31.3578C40.0762 31.3847 40.0425 31.4656 40.1082 31.8419C40.1797 31.8512 40.253 31.8604 40.322 31.8689C40.3338 31.9404 40.3431 31.9994 40.3532 32.0591H40.791C40.7994 31.9935 40.8061 31.9345 40.8137 31.8764C40.8844 31.8646 40.9425 31.8554 40.9998 31.8461V31.3603C40.935 31.3544 40.8752 31.3502 40.8036 31.3435V31.3443Z" fill="black"/>
<path d="M22.1509 34.1792H21.7055C21.6979 34.2449 21.6903 34.3038 21.6827 34.3686C21.6028 34.3745 21.5354 34.3796 21.4622 34.3855V34.8376C21.5464 34.8452 21.6137 34.8511 21.6844 34.857C21.6945 34.942 21.703 35.0152 21.7105 35.0843H22.1467C22.1551 34.9984 22.1627 34.9243 22.1694 34.8519C22.2544 34.8384 22.3268 34.8275 22.3992 34.8165V34.3998C22.3176 34.3905 22.2443 34.3821 22.1694 34.3737C22.1627 34.3055 22.1576 34.2516 22.1509 34.1792Z" fill="black"/>
<path d="M25.1707 32.793H24.7371C24.7279 32.8612 24.7203 32.9201 24.711 32.9832C24.6311 32.9883 24.5637 32.9934 24.4888 32.9984V33.4514C24.5704 33.4598 24.6386 33.4674 24.7085 33.4749C24.7186 33.5566 24.7279 33.629 24.7371 33.6964H25.1842C25.1918 33.6147 25.1977 33.5465 25.2044 33.469C25.2852 33.4623 25.3577 33.4564 25.4301 33.4514V33.0009C25.3492 32.9959 25.281 32.9917 25.2078 32.9875C25.1943 32.9159 25.1817 32.8519 25.1707 32.7938V32.793Z" fill="black"/>
<path d="M18.9079 24.1696C18.8254 24.1629 18.7572 24.1578 18.6789 24.1511C18.6739 24.0694 18.6688 23.9962 18.6638 23.9263H18.2268C18.2159 24.0189 18.2083 24.0921 18.1999 24.1603C18.1148 24.173 18.0483 24.1839 17.9734 24.1948V24.6007C18.0551 24.6116 18.1266 24.6217 18.1948 24.631C18.2058 24.7051 18.2142 24.764 18.2234 24.8263H18.657C18.6722 24.7581 18.6857 24.695 18.6991 24.6352C18.7791 24.6284 18.8456 24.6226 18.9079 24.6175V24.1696Z" fill="black"/>
<path d="M20.5278 15.5239H20.9741C20.9825 15.4498 20.9892 15.3892 20.9968 15.3252C21.0709 15.3142 21.1374 15.3041 21.2005 15.2949C21.2612 14.8975 21.2469 14.8663 20.9934 14.8166C20.9791 14.7535 20.9648 14.6895 20.9496 14.6196H20.5304C20.5245 14.6861 20.5194 14.7451 20.5135 14.8116C20.4428 14.8183 20.3839 14.8234 20.3232 14.8293V15.3201C20.3889 15.3285 20.4428 15.3353 20.5085 15.3437C20.5152 15.4068 20.5219 15.4658 20.5278 15.5239Z" fill="black"/>
<path d="M7.73954 25.5578C7.81363 25.5502 7.87257 25.5435 7.93403 25.5376V25.0897C7.87004 25.0813 7.81616 25.0737 7.74965 25.0644C7.74207 24.976 7.73617 24.9095 7.73028 24.8413H7.27563C7.26216 24.9221 7.25122 24.9954 7.23943 25.0644C7.1586 25.0728 7.09293 25.0804 7.02979 25.0863V25.5368C7.11651 25.5469 7.18975 25.5553 7.26384 25.5645C7.27058 25.6437 7.27647 25.7119 7.28237 25.7792H7.71681C7.72523 25.6942 7.73112 25.6277 7.7387 25.5578H7.73954Z" fill="black"/>
<path d="M17.039 12.0366H17.7294V11.3378C17.6444 11.3311 17.577 11.326 17.503 11.3201C17.4954 11.2494 17.4886 11.1905 17.4827 11.1349C17.2139 11.1113 17.0573 11.223 17.0129 11.47C17.0062 11.5062 16.9835 11.5424 16.9591 11.571C16.9212 11.6165 16.8749 11.6544 16.8328 11.6957C16.89 11.7394 16.9473 11.7832 17.0239 11.8421C17.0273 11.8851 17.0323 11.9592 17.0382 12.0375L17.039 12.0366Z" fill="black"/>
<path d="M33.2485 22.7719C33.283 22.7711 33.3176 22.7652 33.3521 22.7635C33.4708 22.7568 33.5483 22.7164 33.5449 22.5749C33.5381 22.3282 33.5432 22.0807 33.5432 21.8188H32.8882C32.8882 22.0453 32.8823 22.2474 32.8899 22.4486C32.9008 22.7559 32.9328 22.7812 33.2485 22.7719Z" fill="black"/>
<path d="M19.4294 19.0872C19.4218 19.0897 19.4319 19.2025 19.4622 19.2438C19.5144 19.3179 19.5885 19.376 19.6862 19.4753H20.2975V18.8236C20.2166 18.8161 20.1484 18.8102 20.071 18.8034C20.0642 18.7226 20.0583 18.6502 20.0508 18.5635C19.9043 18.5719 19.7738 18.5795 19.6399 18.5879C19.5633 18.7698 19.6744 19.0021 19.4286 19.088L19.4294 19.0872Z" fill="black"/>
<path d="M25.896 24.6159V24.1638C25.8194 24.1579 25.752 24.1537 25.6653 24.147C25.6594 24.0603 25.6544 23.9929 25.6485 23.918H25.2031C25.1947 24.0013 25.1871 24.0746 25.1795 24.1453C25.1071 24.1562 25.0482 24.1647 24.9875 24.1731V24.6143C25.0524 24.621 25.1105 24.6269 25.1787 24.6328C25.1854 24.701 25.1913 24.7599 25.1972 24.8214H25.6434C25.6561 24.7523 25.6678 24.6934 25.6788 24.637C25.7579 24.6286 25.8253 24.6218 25.896 24.6143V24.6159Z" fill="black"/>
<path d="M23.8067 33.9002C23.7494 33.6038 23.5263 33.7629 23.3621 33.7124C23.352 33.7899 23.3445 33.848 23.336 33.9111C23.2493 33.9162 23.1752 33.9212 23.0969 33.9254V34.375C23.1786 34.3876 23.2518 34.3986 23.3209 34.4095C23.3293 34.4904 23.336 34.5569 23.3428 34.6225H23.7974C23.8025 34.5442 23.8075 34.476 23.8126 34.402C23.8816 34.3885 23.9448 34.375 24.0029 34.3632V33.9423C23.9195 33.9254 23.8109 33.9229 23.8067 33.8993V33.9002Z" fill="black"/>
<path d="M27.4912 13.8754C27.4214 13.8906 27.3582 13.9049 27.3052 13.9158V14.3452C27.3767 14.3562 27.4365 14.3654 27.4988 14.3747C27.5039 14.4538 27.5089 14.522 27.514 14.5986H27.9417C27.9509 14.5102 27.9577 14.4429 27.9653 14.3654C28.0461 14.3587 28.1202 14.3528 28.2002 14.346V13.9099C28.1177 13.9015 28.0495 13.8956 27.9728 13.888C27.9669 13.8198 27.9619 13.7601 27.9568 13.6978H27.5115C27.5039 13.7643 27.4971 13.819 27.4904 13.8754H27.4912Z" fill="black"/>
<path d="M37.7607 32.0779H37.3144C37.306 32.1604 37.2985 32.2328 37.2917 32.3052C37.2058 32.3161 37.1334 32.3254 37.0686 32.3338V32.7758C37.152 32.7834 37.2202 32.7893 37.29 32.796C37.3001 32.8659 37.3077 32.9248 37.3161 32.9855H37.7607C37.7666 32.9215 37.7725 32.8625 37.7792 32.7927C37.8466 32.7868 37.9063 32.7809 37.967 32.775V32.3321C37.8954 32.3212 37.8365 32.3119 37.775 32.3018C37.7699 32.2218 37.7657 32.1545 37.7615 32.0762L37.7607 32.0779Z" fill="black"/>
<path d="M19.6151 23.7055C19.6951 23.7004 19.7624 23.6954 19.839 23.6903V23.2424C19.7557 23.2365 19.6808 23.2306 19.6058 23.2256C19.5932 23.1422 19.5822 23.0707 19.5705 22.9966H19.1503C19.1419 23.0858 19.136 23.1532 19.1293 23.2264C19.0569 23.2323 18.9971 23.2374 18.9331 23.2424V23.6937C18.9963 23.7021 19.0501 23.7097 19.1141 23.7181C19.1225 23.7813 19.131 23.8394 19.1385 23.8966H19.5848C19.5966 23.8259 19.6058 23.767 19.6159 23.7055H19.6151Z" fill="black"/>
<path d="M17.2578 6.90256C17.2679 6.83268 17.2763 6.77459 17.2864 6.7106C17.358 6.70471 17.4178 6.7005 17.4843 6.69544V6.2509C17.4153 6.23911 17.3563 6.22817 17.2957 6.21722C17.2906 6.14313 17.2873 6.08083 17.2822 6H16.836C16.825 6.08504 16.8166 6.15829 16.8065 6.23322C16.7257 6.23827 16.6575 6.24248 16.5859 6.24669V6.68702C16.671 6.69292 16.7392 6.69713 16.8116 6.70218C16.8579 7.00444 17.0827 6.87309 17.2586 6.90172L17.2578 6.90256Z" fill="black"/>
<path d="M7.02741 22.9695H7.47027C7.48205 22.897 7.49216 22.8381 7.50226 22.7817C7.58309 22.775 7.65044 22.7682 7.72369 22.7623V22.3144C7.64623 22.3094 7.57804 22.3043 7.49216 22.2993C7.48626 22.2117 7.48205 22.1444 7.477 22.0669H7.02741C7.02151 22.1486 7.01646 22.2227 7.01141 22.301C6.94237 22.3111 6.88427 22.3195 6.8186 22.3287V22.764C6.88596 22.7699 6.94489 22.7758 7.01141 22.7817C7.01814 22.8524 7.0232 22.9114 7.02825 22.9703L7.02741 22.9695Z" fill="black"/>
<path d="M13.0811 12.0314H13.534C13.5424 11.9489 13.5483 11.8815 13.5559 11.8083C13.6376 11.799 13.7108 11.7914 13.7799 11.7839V11.3359C13.699 11.3292 13.6308 11.3242 13.5517 11.3174C13.545 11.2509 13.5399 11.192 13.534 11.1313H13.0903C13.0785 11.2021 13.0693 11.2618 13.06 11.3149C12.9884 11.3275 12.9303 11.3385 12.8765 11.3477V11.7855C12.943 11.794 13.0019 11.8015 13.0659 11.8091C13.0718 11.8891 13.0768 11.9565 13.0819 12.0305L13.0811 12.0314Z" fill="black"/>
<path d="M35.6745 10.1805H36.1224C36.13 10.098 36.1358 10.029 36.1417 9.95574C36.2226 9.9448 36.295 9.93554 36.3598 9.92627V9.49688C36.2807 9.49099 36.2184 9.48678 36.1426 9.48173C36.1283 9.42111 36.1123 9.35712 36.0946 9.28135C35.9262 9.31671 35.6947 9.16348 35.6593 9.4691C35.5852 9.47836 35.5254 9.4851 35.4631 9.49267V9.92627C35.533 9.94143 35.5962 9.95574 35.6534 9.96837C35.6618 10.0509 35.6686 10.1174 35.6753 10.1797L35.6745 10.1805Z" fill="black"/>
<path d="M32.6551 11.3188H33.0854C33.0963 11.2473 33.1056 11.1883 33.1157 11.126C33.1957 11.121 33.263 11.1168 33.3539 11.1109C33.3464 10.9593 33.3396 10.8179 33.3329 10.679C33.2428 10.6689 33.1746 10.6621 33.1039 10.6537C33.0921 10.5712 33.0828 10.4988 33.0711 10.418H32.6442C32.6383 10.498 32.6332 10.5653 32.6282 10.636C32.5558 10.6512 32.4926 10.6647 32.4329 10.6773V11.0562C32.5322 11.1479 32.6013 11.2111 32.6703 11.2751C32.6652 11.2894 32.661 11.3037 32.656 11.318L32.6551 11.3188Z" fill="black"/>
<path d="M14.4501 18.8312C14.3861 18.8186 14.3221 18.8059 14.2623 18.7941C14.2531 18.7142 14.2455 18.6468 14.2388 18.5837C13.9688 18.5595 13.811 18.7029 13.7656 19.0139C13.6915 19.0335 13.6974 19.1292 13.7833 19.301C13.7892 19.3566 13.7959 19.4163 13.8018 19.4744H14.4501V18.8312Z" fill="black"/>
<path d="M39.1482 25.0693C39.1743 24.8765 39.0631 24.8285 38.9057 24.8268C38.691 24.8243 38.4763 24.8268 38.2313 24.8268C38.2313 25.0019 38.233 25.1476 38.2313 25.2924C38.2288 25.4541 38.2759 25.5568 38.4679 25.5399C38.6186 25.5273 38.7718 25.5374 38.9385 25.5374C38.9444 25.4751 38.9503 25.417 38.957 25.348C39.0252 25.3412 39.0842 25.3362 39.1456 25.3303C39.1456 25.2335 39.1364 25.1501 39.1473 25.0693H39.1482Z" fill="black"/>
<path d="M15.4398 15.0775V15.5313C15.455 15.5212 15.471 15.5111 15.4861 15.501C15.5484 15.5793 15.6099 15.6567 15.7008 15.7712H16.0814C16.0932 15.6795 16.0915 15.6012 16.1142 15.5304C16.1369 15.4606 16.1731 15.3562 16.2245 15.341C16.387 15.2947 16.3424 15.2046 16.318 15.1044C16.2405 15.0918 16.1757 15.0808 16.1134 15.0707C16.1049 14.9807 16.0982 14.9074 16.0906 14.8291H15.6158C15.6798 15.0068 15.5661 15.0556 15.439 15.0775H15.4398Z" fill="black"/>
<path d="M14.7236 32.3373V32.9864C14.7885 32.9982 14.8474 33.0091 14.908 33.0201C14.9139 33.0933 14.9181 33.1548 14.9257 33.2432C15.0099 33.2432 15.0789 33.2407 15.148 33.2432C15.3484 33.2508 15.4342 33.1514 15.4309 32.9553C15.4275 32.7481 15.4309 32.541 15.4309 32.3364H14.7245L14.7236 32.3373Z" fill="black"/>
<path d="M15.1871 18.5556H15.6342C15.6468 18.4723 15.6578 18.399 15.6687 18.3291C15.7504 18.3216 15.8177 18.3157 15.8876 18.3089V17.8593C15.7925 17.8518 15.7167 17.845 15.6738 17.8417C15.6232 17.7667 15.5879 17.7137 15.5517 17.6606C15.5087 17.6952 15.4683 17.7347 15.422 17.7642C15.3791 17.792 15.3319 17.8206 15.2831 17.8299C15.1694 17.8509 15.0532 17.8602 14.9404 17.8745V18.3022C15.028 18.3123 15.1012 18.3199 15.172 18.3283C15.1779 18.4142 15.1829 18.4824 15.188 18.5556H15.1871Z" fill="black"/>
<path d="M8.18389 28.1294H7.49097V28.8215C7.57432 28.8265 7.64925 28.8316 7.67956 28.8341C7.74944 28.9158 7.79575 28.9697 7.84206 29.0244C7.88921 28.9697 7.93635 28.9149 8.00034 28.8408C8.0416 28.8366 8.11569 28.829 8.19062 28.8215C8.19904 28.7339 8.20662 28.659 8.21419 28.5866C8.27481 28.5723 8.32786 28.5605 8.38343 28.547V28.3517C8.32196 28.3416 8.26808 28.3323 8.21083 28.323C8.20157 28.254 8.1923 28.1883 8.18389 28.1294Z" fill="black"/>
<path d="M19.5875 15.087C19.5201 15.0727 19.457 15.0592 19.398 15.0466C19.3888 14.9658 19.3812 14.8984 19.3736 14.8311H19.1968C19.0933 14.9481 19.0208 15.0298 18.9484 15.1114C18.9122 15.2074 18.9072 15.3253 18.7371 15.3362C18.7144 15.3379 18.6984 15.4406 18.6748 15.5097C18.7758 15.5214 18.8424 15.529 18.9156 15.5374C18.9207 15.6225 18.9257 15.6966 18.9299 15.7732H19.5875V15.087Z" fill="black"/>
<path d="M36.9782 33.4561C36.9378 33.4561 36.8965 33.4619 36.8502 33.4653C36.8409 33.5461 36.8317 33.6185 36.8233 33.6952C36.7433 33.7019 36.6759 33.707 36.6111 33.712C36.5589 34.0951 36.6086 34.1633 36.9571 34.1751C37.1306 34.181 37.3049 34.1759 37.4749 34.1759C37.6399 33.6287 37.5111 33.4459 36.979 33.4569L36.9782 33.4561Z" fill="black"/>
<path d="M16.5645 17.6333C16.5729 17.789 16.5805 17.933 16.5889 18.0904H17.4788V17.4009H16.8111C16.833 17.5777 16.7413 17.645 16.5653 17.6341L16.5645 17.6333Z" fill="black"/>
<path d="M34.781 23.6537C34.8441 23.636 34.9148 23.6309 34.9654 23.5956C34.9915 23.5771 34.9797 23.5055 34.9856 23.455C35.0571 23.4407 35.1228 23.428 35.1944 23.4137V22.9877C35.1792 22.9978 35.1649 23.0079 35.1497 23.018C35.0832 22.9439 35.0176 22.869 34.9342 22.7764H34.5654C34.4526 22.8858 34.3844 22.9515 34.2952 23.0374V23.4137C34.4804 23.4769 34.7203 23.3851 34.781 23.6537Z" fill="black"/>
<path d="M21.6846 27.661H20.9993V28.3219C21.0776 28.3329 21.1449 28.3421 21.214 28.3514C21.2224 28.4297 21.23 28.497 21.2392 28.5787C21.3882 28.5695 21.5255 28.5619 21.6846 28.5518V27.6602V27.661Z" fill="black"/>
<path d="M29.3999 20.3414C29.4648 20.3077 29.517 20.2446 29.5843 20.221C29.666 20.1924 29.7569 20.1916 29.8504 20.1772V19.7554C29.762 19.7445 29.6887 19.7361 29.6138 19.7268C29.6087 19.646 29.6045 19.5786 29.6003 19.5054H29.149C29.1398 19.5879 29.1322 19.6552 29.1255 19.7192C29.0547 19.7335 28.9975 19.7445 28.9436 19.7554V20.1916C29.0169 20.2025 29.0825 20.2118 29.1448 20.221C29.1549 20.285 29.1634 20.3381 29.1777 20.4273C29.2627 20.3953 29.3351 20.3751 29.3999 20.3414Z" fill="black"/>
<path d="M13.0732 28.5992C12.6884 28.5394 12.6236 28.5883 12.6143 28.9461C12.6093 29.1254 12.6143 29.3056 12.6143 29.4942H13.3148V28.835C13.2314 28.8265 13.1641 28.8198 13.0908 28.8122C13.085 28.7331 13.0791 28.6657 13.074 28.6001L13.0732 28.5992Z" fill="black"/>
<path d="M32.9006 20.4272V21.1092C33.1608 21.1092 33.41 21.1159 33.6575 21.1033C33.7047 21.1008 33.7729 21.0326 33.7872 20.9829C33.8141 20.8852 33.8091 20.7792 33.8175 20.6748C33.7283 20.6588 33.6567 20.6453 33.5893 20.6327C33.5784 20.5527 33.5691 20.4862 33.559 20.4079C33.4403 20.4079 33.3359 20.4053 33.2324 20.4079C33.1288 20.4104 33.0252 20.4188 32.9023 20.4264L32.9006 20.4272Z" fill="black"/>
<path d="M16.5908 30.2284C16.6043 30.2377 16.6169 30.2478 16.6304 30.2571C16.6877 30.2032 16.7449 30.1484 16.8013 30.0946C16.7373 30.0415 16.6725 29.9876 16.5715 29.9034C16.5715 29.8975 16.563 29.831 16.5546 29.7637H16.0823C16.1497 29.9489 16.0183 29.9506 15.9038 29.9649V30.4103C15.9771 30.4246 16.041 30.4364 16.1008 30.4482C16.1101 30.5298 16.1177 30.5964 16.1244 30.6561H16.5445C16.5614 30.5012 16.5765 30.3648 16.5908 30.2276V30.2284Z" fill="black"/>
<path d="M16.3159 10.6749C16.374 10.7389 16.4203 10.7894 16.4675 10.8408C16.5062 10.7903 16.5449 10.7398 16.6055 10.6615C16.6586 10.6573 16.7327 10.6514 16.8085 10.6455V10.1984C16.7285 10.1917 16.6603 10.1849 16.5837 10.1782C16.5761 10.0974 16.5693 10.0241 16.5626 9.95508H16.1113C16.1071 10.0376 16.1029 10.1058 16.0995 10.179C16.0288 10.195 15.9665 10.2102 15.9067 10.2237C15.9 10.5004 16.0367 10.6505 16.3168 10.6741L16.3159 10.6749Z" fill="black"/>
<path d="M33.5659 28.5803C33.5659 28.5778 33.5659 28.5753 33.5659 28.5728C33.7073 28.566 33.8496 28.5593 33.9936 28.5526C34.0146 28.4044 34.034 28.2688 34.0525 28.1392C34.1325 28.1206 34.1974 28.1055 34.2672 28.0895C34.2639 28.0137 34.2605 27.9531 34.258 27.8807C34.1822 27.8731 34.1148 27.8664 34.0407 27.8588C34.0298 27.7889 34.0197 27.7233 34.0096 27.6567H33.6333C33.528 27.762 33.4539 27.8369 33.3596 27.9312V28.3109C33.4337 28.3227 33.4994 28.3328 33.5777 28.3454C33.5735 28.4263 33.5701 28.4995 33.5659 28.5728C33.5634 28.5728 33.5608 28.5728 33.5575 28.5728C33.5575 28.5753 33.5575 28.5778 33.5575 28.5803H33.5651H33.5659Z" fill="black"/>
<path d="M33.5723 28.8288C33.5681 28.7412 33.5639 28.6604 33.5597 28.5796H32.9038V29.2851C32.9206 29.2725 32.9383 29.2599 32.9552 29.2472C33.0133 29.3028 33.0646 29.3702 33.132 29.4089C33.1816 29.4367 33.2684 29.4518 33.313 29.4266C33.3921 29.382 33.4528 29.3028 33.521 29.2388C33.5327 29.2498 33.5445 29.2599 33.5563 29.2708C33.5647 29.1959 33.5723 29.121 33.5807 29.0443C33.6801 29.0123 33.8678 29.0797 33.7777 28.8515C33.7154 28.8448 33.6481 28.8372 33.5723 28.8288Z" fill="black"/>
<path d="M39.4198 11.5882C39.4863 11.5739 39.5444 11.5612 39.6564 11.536C39.5511 11.3828 39.4644 11.2565 39.3684 11.1175C39.3154 11.115 39.2463 11.1117 39.1992 11.11C39.1402 11.0157 39.1007 10.9517 39.0603 10.8877C39.0123 10.9576 38.9643 11.0266 38.9028 11.115C38.8582 11.1175 38.7841 11.1218 38.7134 11.126V11.781H39.397C39.4055 11.7077 39.4122 11.6471 39.4189 11.5882H39.4198Z" fill="black"/>
<path d="M23.5574 9.51912C23.6492 9.46187 23.7166 9.41893 23.7848 9.37599C23.7225 9.32716 23.6593 9.27917 23.5667 9.20676C23.5642 9.17898 23.5574 9.10405 23.549 9.01733C23.4842 9.01059 23.4244 9.00386 23.3663 8.99712C23.3469 8.93061 23.331 8.87335 23.3158 8.82031H23.1078C23.0986 8.8843 23.0902 8.94324 23.0809 9.00301C23.0076 9.01059 22.9487 9.01648 22.8982 9.02154V9.71782H23.5423C23.549 9.63026 23.5549 9.55533 23.5574 9.51828V9.51912Z" fill="black"/>
<path d="M26.5559 27.1909C26.5702 27.2675 26.5828 27.3332 26.5946 27.3938C26.6838 27.4014 26.7579 27.4081 26.7874 27.4115C26.8531 27.5033 26.8969 27.5639 26.9406 27.6237C26.9819 27.553 27.0223 27.4814 27.0669 27.4048C27.1326 27.3997 27.2067 27.3938 27.2867 27.3879V26.7329H26.5929C26.5828 26.8062 26.5735 26.8718 26.5643 26.935C26.5011 26.9468 26.4481 26.9569 26.4009 26.9653C26.3353 27.1328 26.4119 27.1918 26.5559 27.1909Z" fill="black"/>
<path d="M39.4043 12.9151C39.3066 12.9934 39.241 13.0456 39.1753 13.0978C39.241 13.1508 39.3066 13.203 39.4018 13.2788C39.4035 13.2948 39.4077 13.3563 39.4127 13.4228C39.4851 13.4371 39.5491 13.4497 39.6106 13.4615C39.6198 13.5356 39.6283 13.5962 39.6375 13.6653H39.8522C39.859 13.5887 39.8648 13.5213 39.8716 13.4455C39.9389 13.4379 39.9996 13.4312 40.0703 13.4236V12.772H39.4169C39.4102 12.8452 39.4051 12.9058 39.4043 12.9151Z" fill="black"/>
<path d="M29.6354 17.1648C29.7112 17.1606 29.776 17.1564 29.8383 17.1522C29.8493 17.0705 29.8577 17.0099 29.867 16.9451C29.9402 16.9333 30.0076 16.9232 30.0741 16.9122C30.0615 16.8954 30.0497 16.8777 30.037 16.8609C30.117 16.791 30.1962 16.7211 30.2989 16.6319V16.487C30.2223 16.4786 30.1558 16.4719 30.0842 16.4643C30.0741 16.3911 30.064 16.3254 30.0547 16.2563H29.4106V16.9147C29.4856 16.924 29.5462 16.9316 29.6093 16.9392C29.6178 17.0149 29.6262 17.0823 29.6354 17.1648Z" fill="black"/>
<path d="M27.1126 28.1133C26.9047 28.0973 26.8247 28.2085 26.8239 28.3996C26.823 28.6067 26.8239 28.8138 26.8239 29.0285H27.4966V28.3996C27.3922 28.291 27.3231 28.2194 27.2221 28.1142C27.2221 28.1142 27.1674 28.1175 27.1126 28.1142V28.1133Z" fill="black"/>
<path d="M32.1647 16.4649C32.1487 16.4759 32.1319 16.4868 32.1159 16.4969C32.0502 16.422 31.9854 16.3471 31.9146 16.2671H31.5198C31.5038 16.4119 31.4886 16.5424 31.4768 16.6485C31.3901 16.7226 31.332 16.7714 31.2739 16.8202C31.3446 16.8623 31.4154 16.9044 31.4996 16.9533C31.5046 17.0088 31.5122 17.0829 31.5206 17.1654H31.9003C32.0022 17.0442 32.0721 16.9617 32.1655 16.8514V16.4649H32.1647Z" fill="black"/>
<path d="M25.1857 21.811H24.4919V22.5141H25.1773C25.1916 22.4374 25.2034 22.3735 25.2152 22.3137C25.296 22.3019 25.3625 22.2918 25.4358 22.2808C25.4324 22.2051 25.4299 22.1444 25.4265 22.0754C25.349 22.0653 25.2825 22.0569 25.2076 22.0476C25.2 21.9651 25.1941 21.8919 25.1865 21.811H25.1857Z" fill="black"/>
<path d="M30.0563 22.2262V22.0721C29.9915 22.0611 29.9334 22.0519 29.8727 22.0418C29.8668 21.9601 29.8618 21.8919 29.8559 21.8145H29.1562V22.5158H29.7776C29.8879 22.4013 29.9561 22.3297 30.0563 22.2262Z" fill="black"/>
<path d="M14.4619 8.79038C14.4712 8.71124 14.4796 8.64388 14.488 8.57232C14.5663 8.56474 14.6337 8.55885 14.7044 8.55211V8.09325C14.6244 8.08399 14.5571 8.07641 14.483 8.06884C14.4763 7.99222 14.4695 7.92486 14.4636 7.85919C14.0856 7.80447 14.0031 7.85919 13.9913 8.19934C13.9846 8.3913 14.0056 8.58326 14.0149 8.79038H14.4611H14.4619Z" fill="black"/>
<path d="M31.5052 12.5003H31.9582C31.9666 12.4363 31.9742 12.3773 31.9826 12.3159C32.0474 12.3075 32.1013 12.3007 32.1586 12.294V11.8057H31.2568V12.2957C31.3326 12.3024 31.4 12.3083 31.4783 12.315C31.4875 12.3773 31.4959 12.4363 31.5052 12.5011V12.5003Z" fill="black"/>
<path d="M28.2227 21.7988C28.2109 21.7357 28.1999 21.6776 28.1907 21.6262C28.0206 21.5614 27.9642 21.638 27.9684 21.7879C27.8935 21.7988 27.8287 21.8089 27.7739 21.8173V22.501C27.9676 22.501 28.1402 22.5094 28.3111 22.4959C28.3608 22.4917 28.4433 22.4269 28.4458 22.3848C28.4601 22.1945 28.4525 22.0026 28.4525 21.8106C28.3717 21.8072 28.3027 21.8039 28.2227 21.8005V21.7988Z" fill="black"/>
<path d="M19.6096 28.5772C19.6812 28.5873 19.7485 28.5965 19.8209 28.6058C19.8302 28.6824 19.8386 28.7489 19.8479 28.8205H20.0744C20.0255 28.605 20.1636 28.5789 20.3345 28.5747C20.3236 28.3339 20.3135 28.1074 20.3025 27.875H19.6096V28.5763V28.5772Z" fill="black"/>
<path d="M25.2108 19.0393C25.2924 19.0317 25.3606 19.0259 25.4432 19.0191C25.4398 18.9425 25.4364 18.8785 25.433 18.8187C25.3446 18.8053 25.2781 18.7952 25.2141 18.7859C25.2066 18.7076 25.1998 18.6453 25.1923 18.5737H24.4875V19.27H25.1805C25.1923 19.1833 25.2015 19.11 25.2116 19.0393H25.2108Z" fill="black"/>
<path d="M10.3203 24.4086C10.3153 24.4684 10.3102 24.5307 10.3026 24.6149C10.2151 24.6208 10.141 24.625 10.0593 24.63V25.3238H10.7556V24.6275C10.6672 24.6157 10.594 24.6056 10.5241 24.5964C10.5016 24.4555 10.4334 24.3929 10.3195 24.4086H10.3203Z" fill="black"/>
<path d="M21.2368 17.8482C21.2275 17.9375 21.2199 18.0057 21.2115 18.0789C21.1332 18.0874 21.0667 18.0941 20.9951 18.1008V18.3121C21.0726 18.3248 21.1399 18.3366 21.2098 18.3475C21.2182 18.4199 21.2258 18.4822 21.2334 18.5487C21.4355 18.5487 21.6165 18.5521 21.7975 18.5462C21.8404 18.5445 21.9179 18.5151 21.9187 18.4957C21.9263 18.3088 21.9482 18.1151 21.9044 17.9392C21.8909 17.8844 21.688 17.8668 21.5702 17.8516C21.4616 17.8373 21.3496 17.8482 21.2376 17.8482H21.2368Z" fill="black"/>
<path d="M39.8762 34.8558C39.8711 34.935 39.866 35.0032 39.8602 35.0848C39.7701 35.0924 39.7027 35.0983 39.6177 35.105C39.6177 35.1833 39.6177 35.2524 39.6177 35.3206C39.6177 35.3955 39.6177 35.4704 39.6177 35.5471C39.7153 35.5572 39.7894 35.5647 39.8677 35.5732C39.8753 35.6498 39.882 35.7171 39.8888 35.7811C40.2744 35.8299 40.3384 35.7845 40.3493 35.4477C40.3561 35.2541 40.3502 35.0596 40.3502 34.855H39.8753L39.8762 34.8558Z" fill="black"/>
<path d="M6.33216 21.1289V20.4326H5.63672V21.1289C5.72428 21.139 5.79248 21.1466 5.85647 21.1533C5.87415 21.2215 5.8893 21.2788 5.90277 21.3335C6.01615 21.3312 6.09193 21.267 6.1301 21.1407C6.19072 21.1373 6.25386 21.134 6.33216 21.1289Z" fill="black"/>
<path d="M31.7989 25.086C31.7728 25.086 31.7458 25.0952 31.7189 25.1003C31.7105 25.1811 31.7021 25.256 31.6936 25.3301C31.6827 25.3209 31.6709 25.3116 31.66 25.3023C31.6094 25.3495 31.5589 25.3958 31.5076 25.4429C31.564 25.4943 31.6204 25.5465 31.6995 25.6189C31.7021 25.6475 31.7071 25.7149 31.713 25.7806H32.3992C32.4497 24.9917 32.4825 25.0927 31.798 25.0851L31.7989 25.086Z" fill="black"/>
<path d="M40.5051 30.4724C40.5303 30.3495 40.5421 30.2914 40.5547 30.2308C40.6389 30.2241 40.7122 30.2182 40.777 30.2123V29.5244H40.106C40.0967 29.6709 40.0866 29.7947 40.0816 29.9184C40.0782 30.0144 40.0816 30.1112 40.0816 30.2131C40.17 30.2199 40.2382 30.2249 40.3064 30.2308C40.3022 30.246 40.2988 30.2611 40.2946 30.2763C40.3544 30.3318 40.4141 30.3874 40.5059 30.4716L40.5051 30.4724Z" fill="black"/>
<path d="M15.441 36.043C15.5125 36.0279 15.5765 36.0144 15.6447 35.9993C15.6371 35.8603 15.6304 35.7349 15.6211 35.5732H14.7236V36.0153C14.7876 36.0304 14.8457 36.0447 14.8996 36.0574C14.9105 36.1348 14.9206 36.2005 14.9291 36.2628H15.4267C15.4317 36.1828 15.4368 36.1146 15.4418 36.043H15.441Z" fill="black"/>
<path d="M27.7602 19.6968C27.7576 19.6556 27.7543 19.5866 27.75 19.5049H27.0571V20.1978H27.7492C27.7551 20.1119 27.7601 20.037 27.7635 19.9882C27.8359 19.9343 27.8907 19.8939 27.9462 19.8526C27.8898 19.8055 27.8334 19.7583 27.7602 19.6968Z" fill="black"/>
<path d="M17.7535 26.0666C17.8301 25.995 17.884 25.9462 17.937 25.8965C17.8806 25.8569 17.8242 25.8173 17.751 25.766C17.7476 25.7163 17.7434 25.6414 17.7383 25.5605H17.0454V26.2577H17.7425C17.7476 26.1659 17.7518 26.0969 17.7535 26.0666Z" fill="black"/>
<path d="M39.396 14.3617C39.3194 14.3558 39.2521 14.3499 39.1712 14.344C39.1645 14.2792 39.1578 14.2202 39.151 14.1562H38.9532C38.9363 14.2194 38.9203 14.2766 38.9052 14.3322C38.8328 14.3406 38.7713 14.3482 38.7031 14.3566V15.0588H39.396V14.3608V14.3617Z" fill="black"/>
<path d="M4.91606 21.8149H4.45973C4.45468 21.8941 4.45047 21.9623 4.44457 22.0591C4.29134 22.0557 4.21136 22.1105 4.29892 22.2477C4.36543 22.3336 4.43194 22.4203 4.51361 22.5264C4.54476 22.5297 4.61212 22.5365 4.68368 22.5441C4.69463 22.6207 4.70473 22.6872 4.71568 22.7663C4.7864 22.7604 4.84365 22.7554 4.89838 22.7512C4.9068 22.6661 4.91438 22.5988 4.92195 22.5272C5.00783 22.5213 5.08108 22.5163 5.16022 22.5112V22.049C4.975 22.0743 4.91269 21.9699 4.91522 21.8149H4.91606Z" fill="black"/>
<path d="M15.6397 31.8441C15.6473 31.7641 15.6541 31.6967 15.6608 31.6235C15.7408 31.6159 15.8081 31.61 15.8856 31.6033V31.1419C15.8098 31.131 15.7425 31.1209 15.6709 31.1107C15.6608 31.0341 15.6524 30.9676 15.644 30.9045C15.2533 30.8683 15.223 30.8843 15.1716 31.1486C15.1278 31.1545 15.0773 31.1512 15.0344 31.1688C15.0016 31.1823 14.9679 31.2177 14.9569 31.2505C14.9502 31.2707 14.9839 31.3078 15.0049 31.3322C15.0765 31.413 15.1506 31.4913 15.2238 31.5704C15.2129 31.5822 15.2019 31.594 15.191 31.605C15.2642 31.6159 15.3375 31.6269 15.4057 31.637C15.4183 31.7169 15.4293 31.7826 15.441 31.8576C15.516 31.8525 15.5758 31.8483 15.6389 31.8441H15.6397Z" fill="black"/>
<path d="M31.9741 14.6245C31.964 14.6986 31.9565 14.7592 31.948 14.8215C31.8714 14.8299 31.8032 14.8367 31.73 14.8443V15.0825C31.9363 15.0362 31.9548 15.1709 31.9531 15.2686C32.0592 15.3612 32.1383 15.4286 32.2461 15.522H32.4094C32.417 15.4555 32.4246 15.3966 32.4313 15.3376C32.5054 15.3292 32.5652 15.3216 32.625 15.3149V14.8257C32.609 14.8375 32.593 14.8493 32.5778 14.8611C32.5147 14.7963 32.4507 14.7314 32.3875 14.6675L32.4221 14.6254H31.9741V14.6245Z" fill="black"/>
<path d="M15.1233 34.6257C15.1359 34.6257 15.1477 34.6147 15.1646 34.6063C15.1747 34.5356 15.1848 34.4632 15.1949 34.3891C15.2765 34.3841 15.3439 34.379 15.4197 34.3748V33.9799C15.3009 33.8797 15.2226 33.8124 15.1056 33.7139H14.7116C14.7116 33.9058 14.7074 34.0793 14.7116 34.2527C14.7217 34.6299 14.7377 34.6425 15.1233 34.6257Z" fill="black"/>
<path d="M37.5446 28.577C37.3628 28.5888 37.2356 28.8632 37.3249 29.0325C37.3813 29.0434 37.4402 29.0543 37.4983 29.0653C37.5059 29.1444 37.5135 29.2118 37.5202 29.2817H37.9824C37.9892 29.2051 37.9942 29.1436 38.001 29.0628C38.0851 29.0535 38.1517 29.0459 38.2342 29.0375C38.2266 28.8843 38.2207 28.7411 38.2123 28.5744C37.9749 28.5744 37.7593 28.5643 37.5446 28.5778V28.577Z" fill="black"/>
<path d="M15.1843 7.3688H15.8822V6.70703H15.1868C15.1725 6.78112 15.1607 6.84006 15.1497 6.89394C15.0698 6.90573 15.0032 6.91499 14.9426 6.92341V7.15915C15.0235 7.1701 15.0908 7.17852 15.1573 7.18778C15.1666 7.25429 15.175 7.30734 15.1834 7.3688H15.1843Z" fill="black"/>
<path d="M31.4665 23.4604C31.3974 23.4647 31.3385 23.4689 31.2779 23.4731C31.2644 23.5531 31.2535 23.6187 31.2425 23.6844C31.1541 23.692 31.0809 23.6987 31.011 23.7046V24.3546H31.7014V23.7046C31.629 23.6954 31.5684 23.6878 31.5052 23.6802C31.4926 23.6069 31.4808 23.5404 31.4665 23.4604Z" fill="black"/>
<path d="M8.42174 26.0043C8.51183 26.0127 8.58676 26.0186 8.66169 26.0253C8.65243 26.0371 8.64233 26.0481 8.63307 26.0599C8.68527 26.1188 8.73747 26.1786 8.78967 26.2375C8.83934 26.1735 8.88818 26.1095 8.95806 26.0194C8.97995 26.0161 9.04646 26.0068 9.10877 25.9984V25.3501H8.4209V26.0043H8.42174Z" fill="black"/>
<path d="M12.3975 21.3524H11.9463C11.9412 21.4307 11.937 21.4981 11.9311 21.5848C11.8435 21.5907 11.7762 21.5949 11.7063 21.5991V22.0546H12.603V21.6025C12.5365 21.5898 12.4775 21.5789 12.4194 21.5688C12.4118 21.4896 12.4051 21.4223 12.3975 21.3516V21.3524Z" fill="black"/>
<path d="M25.6475 10.1859V9.73546C25.5844 9.72451 25.5263 9.71441 25.4657 9.70431C25.4572 9.62685 25.4505 9.55949 25.4429 9.48877H24.9891C24.9824 9.5696 24.9765 9.64284 24.9697 9.72283C24.8889 9.72788 24.8216 9.73293 24.7256 9.73883C24.7332 9.89543 24.7399 10.0318 24.7475 10.1859H25.6475Z" fill="black"/>
<path d="M14.9162 27.8838H14.4751C14.47 27.9554 14.465 28.0227 14.4599 28.0976C14.3892 28.1094 14.3252 28.1195 14.2595 28.1305V28.5717C14.3201 28.5851 14.3774 28.5969 14.4372 28.6104C14.4473 28.6862 14.4565 28.7527 14.4658 28.8226H14.9162V27.8838Z" fill="black"/>
<path d="M17.7183 39.9549C17.6442 39.9616 17.5777 39.9683 17.502 39.9759V40.1696C17.619 40.2647 17.7015 40.332 17.7848 40.3994C17.7764 40.4137 17.768 40.428 17.7596 40.4415H18.4424V39.7764H17.7486C17.7377 39.842 17.7284 39.8951 17.7183 39.9557V39.9549Z" fill="black"/>
<path d="M37.974 37.6772H37.5244V38.5756H37.9749C37.9824 38.4956 37.9883 38.4274 37.9951 38.35C38.0717 38.3441 38.1399 38.3382 38.2207 38.3323V37.8726C38.1432 37.8658 38.075 37.8591 38.0035 37.8532C37.9925 37.785 37.9824 37.7269 37.974 37.6772Z" fill="black"/>
<path d="M30.3104 23.9075V23.4461C30.2304 23.436 30.163 23.4276 30.094 23.4192C30.0839 23.3552 30.0755 23.3022 30.0679 23.25C29.5467 23.2289 29.6292 23.2458 29.6031 23.6322C29.6006 23.6743 29.6015 23.7164 29.6015 23.7585C29.604 24.1509 29.6208 24.1669 30.0098 24.1576C30.03 24.1576 30.0494 24.1466 30.0704 24.1408C30.0788 24.0709 30.0864 24.0027 30.0948 23.9303C30.1723 23.9218 30.2396 23.9151 30.3104 23.9075Z" fill="black"/>
<path d="M14.4316 14.1245C14.3727 14.1312 14.3179 14.1379 14.2641 14.1438C14.222 14.2415 14.1504 14.2996 14.0898 14.367C14.0569 14.4032 14.0258 14.4562 14.0266 14.5017C14.0266 14.532 14.0788 14.5715 14.1159 14.5901C14.1504 14.6069 14.1959 14.6019 14.2422 14.6069C14.2506 14.6785 14.259 14.745 14.2674 14.8157H14.6968C14.6909 14.7955 14.685 14.7753 14.6791 14.7551C14.7541 14.6928 14.8282 14.6296 14.914 14.5581V14.159C14.8383 14.1506 14.776 14.1447 14.7195 14.1388C14.6311 13.749 14.5301 13.8879 14.4316 14.1253V14.1245Z" fill="black"/>
<path d="M36.1335 22.3056C36.1242 22.3822 36.1158 22.4487 36.1082 22.5152C36.0299 22.543 35.9382 22.6062 35.9474 22.639C35.9659 22.7005 36.0434 22.7442 36.1234 22.8234C36.1242 22.8385 36.1293 22.8992 36.1352 22.9749H36.5823C36.5991 22.9135 36.6151 22.8562 36.6311 22.7981C36.7018 22.7889 36.7633 22.7813 36.8281 22.7729V22.3174C36.7397 22.309 36.6648 22.3014 36.5898 22.2938C36.5814 22.2155 36.5747 22.1473 36.5679 22.085C36.3431 21.9915 36.3911 22.1894 36.3507 22.2854C36.2741 22.2921 36.2059 22.298 36.1327 22.3047L36.1335 22.3056Z" fill="black"/>
<path d="M39.8635 26.2778H39.1672V26.9303C39.2565 26.9404 39.3306 26.9497 39.4021 26.9581C39.4316 27.0667 39.3828 27.2427 39.5992 27.1518C39.6059 27.0861 39.6135 27.0196 39.621 26.9455C39.7052 26.9396 39.7793 26.9354 39.8644 26.9295V26.2778H39.8635Z" fill="black"/>
<path d="M16.5552 27.6427V26.9473H15.9027C15.8926 27.0357 15.8842 27.1098 15.8757 27.1881C15.7654 27.2066 15.5945 27.1578 15.677 27.3775C15.7385 27.3859 15.8059 27.3952 15.8808 27.4053C15.8875 27.4861 15.8943 27.5602 15.9018 27.6427H16.556H16.5552Z" fill="black"/>
<path d="M30.5385 13.884H31.2381V13.229H30.5991C30.4972 13.3351 30.4257 13.4092 30.3364 13.5018V13.6634C30.3987 13.6744 30.4568 13.6845 30.5191 13.6954C30.5259 13.7603 30.5318 13.8158 30.5393 13.8832L30.5385 13.884Z" fill="black"/>
<path d="M27.2626 16.3877C27.3417 16.3422 27.4023 16.2631 27.4714 16.1991C27.4815 16.2083 27.4907 16.2184 27.5008 16.2277C27.5101 16.1545 27.5202 16.0812 27.5286 16.0122C27.6095 15.9995 27.6768 15.9894 27.7509 15.9776C27.7458 15.9128 27.7425 15.8598 27.7383 15.8042C27.6558 15.7975 27.5884 15.7916 27.5118 15.7857C27.5067 15.7015 27.5017 15.6282 27.4966 15.5508H27.1026C27.0108 15.6678 26.9502 15.7461 26.8896 15.8236C26.8744 15.8135 26.8601 15.8025 26.845 15.7924V16.2429C26.8635 16.2311 26.8812 16.2193 26.8997 16.2075C26.9578 16.2681 27.0066 16.3439 27.0765 16.3843C27.1253 16.4121 27.2146 16.4155 27.2626 16.3877Z" fill="black"/>
<path d="M5.17296 26.2622V26.9341C5.25884 26.9467 5.32619 26.956 5.39608 26.9661C5.4045 27.0435 5.41207 27.11 5.42049 27.1892C5.50048 27.185 5.56615 27.1816 5.62677 27.1782C5.63855 27.0898 5.64697 27.0225 5.65624 26.956C5.73622 26.9467 5.80273 26.9391 5.86251 26.9324V26.2622H5.17212H5.17296Z" fill="black"/>
<path d="M40.5191 33.023C40.2943 32.9396 40.36 33.1307 40.3162 33.2267C40.243 33.2343 40.1697 33.241 40.0999 33.2478V33.8961H40.7869V33.252C40.6985 33.2427 40.6235 33.2343 40.5503 33.2267C40.5385 33.1493 40.5276 33.0811 40.5191 33.023Z" fill="black"/>
<path d="M27.0489 12.9699C27.1331 12.9825 27.1996 12.9926 27.2721 13.0027C27.2788 13.1425 27.2923 13.2721 27.4884 13.1921C27.4943 13.1248 27.4994 13.0574 27.5053 12.98C27.5869 12.9741 27.661 12.9682 27.7376 12.9623V12.3081H27.0506C27.0405 12.4277 27.0237 12.5371 27.0237 12.6466C27.0237 12.7552 27.0397 12.8638 27.0489 12.969V12.9699Z" fill="black"/>
<path d="M27.0422 21.8187C26.9647 21.8044 26.8999 21.7926 26.8418 21.7816C26.8283 21.7159 26.8174 21.6629 26.8065 21.6099H26.6103C26.6187 21.6217 26.6263 21.6334 26.6347 21.6452C26.5547 21.7151 26.4747 21.785 26.3762 21.8717V22.4939C27.1567 22.5705 27.0279 22.4981 27.0422 21.9475C27.043 21.9062 27.0422 21.8658 27.0422 21.8187Z" fill="black"/>
<path d="M17.7303 15.3364H17.034C17.0458 15.3541 17.0576 15.3718 17.0694 15.3903C16.9978 15.4585 16.9271 15.5259 16.8345 15.6143V15.7566C16.8463 15.7481 16.858 15.7397 16.8707 15.7305C16.9406 15.8088 17.0096 15.8871 17.1047 15.9931H17.7311V15.3364H17.7303Z" fill="black"/>
<path d="M9.58304 28.5884H9.37592C9.36329 28.6667 9.35235 28.734 9.3414 28.8039C9.26816 28.8115 9.20669 28.8182 9.12671 28.8266V29.4884H9.82384V28.8351C9.74133 28.8258 9.67397 28.8182 9.59988 28.8107C9.59399 28.7324 9.58809 28.665 9.5822 28.5892L9.58304 28.5884Z" fill="black"/>
<path d="M21.4715 9.96501C21.5456 9.95743 21.613 9.95069 21.6896 9.94311V9.73516C21.6778 9.7461 21.6652 9.7562 21.6534 9.76715C21.5725 9.68716 21.4926 9.60634 21.3781 9.49268H20.7803V10.1831H21.4479C21.4555 10.1098 21.4631 10.0425 21.4715 9.96501Z" fill="black"/>
<path d="M13.4026 10.1911H13.9777V9.49316H13.3378C13.3294 9.58073 13.3218 9.65482 13.3142 9.72638C13.2317 9.73564 13.1644 9.74238 13.0945 9.74996V9.93855L13.1442 9.90487C13.2191 9.98823 13.2949 10.0707 13.4026 10.1911Z" fill="black"/>
<path d="M16.3689 39.2936C16.4413 39.302 16.5028 39.3087 16.5718 39.3163C16.5625 39.478 16.6291 39.5411 16.7916 39.4805C16.8067 39.4283 16.8227 39.371 16.837 39.3197C16.9069 39.3104 16.9608 39.3037 17.0239 39.2961V38.5981H16.3689V39.2927V39.2936Z" fill="black"/>
<path d="M10.9858 28.8403C10.9749 28.9077 10.9656 28.9658 10.9555 29.0247C10.889 29.0323 10.8351 29.0382 10.7795 29.0441V29.737H11.4421V29.1123C11.3293 29.0054 11.2519 28.9321 11.155 28.8403H10.985H10.9858Z" fill="black"/>
<path d="M27.0683 30.185C27.0573 30.1041 27.0481 30.0376 27.0363 29.9492C26.8132 29.9593 26.601 29.9694 26.3838 29.9795V30.6649H27.0422C27.0531 30.5941 27.0641 30.5268 27.075 30.4561C27.1516 30.446 27.2173 30.4375 27.2948 30.4274C27.2906 30.3466 27.288 30.2801 27.2847 30.2186C27.1988 30.206 27.1314 30.1959 27.0674 30.1858L27.0683 30.185Z" fill="black"/>
<path d="M17.0098 9.46148V8.56396H16.5661C16.5585 8.63806 16.5509 8.70541 16.5434 8.77866C16.4819 8.78876 16.428 8.79802 16.3657 8.80813V9.20216C16.4676 9.31329 16.535 9.38654 16.604 9.46148H17.0106H17.0098Z" fill="black"/>
<path d="M35.7859 14.3717C35.8953 14.3675 36.0048 14.3565 36.1117 14.349C36.1437 13.5786 36.1892 13.699 35.5181 13.688C35.5055 13.688 35.492 13.6956 35.4642 13.704C35.4541 13.7722 35.4457 13.8328 35.4373 13.8909C35.359 13.9002 35.2916 13.9078 35.2192 13.917V14.1284C35.2319 14.1183 35.2437 14.1073 35.2563 14.0972C35.3388 14.1722 35.4221 14.2471 35.5047 14.322C35.4954 14.3389 35.4853 14.3557 35.476 14.3734C35.5796 14.3734 35.684 14.3767 35.7875 14.3725L35.7859 14.3717Z" fill="black"/>
<path d="M38.9689 36.7407V37.4H39.6129C39.6273 37.3326 39.639 37.2737 39.6508 37.2189C39.73 37.2097 39.7965 37.2021 39.8638 37.1945V37.011C39.7426 36.91 39.655 36.8375 39.5389 36.7407H38.968H38.9689Z" fill="black"/>
<path d="M26.3506 26.011C26.4197 26.011 26.4887 26.011 26.5628 26.011C26.5754 25.931 26.5864 25.8654 26.5965 25.8031C26.6739 25.7913 26.7404 25.7803 26.8179 25.7685C26.8129 25.697 26.8095 25.6364 26.8053 25.5732C26.7261 25.5614 26.6596 25.5522 26.5931 25.5421C26.5847 25.468 26.5788 25.409 26.5721 25.3501H25.9179C25.9137 25.4343 25.9103 25.4907 25.9086 25.5463C25.8909 26.0068 25.8951 26.0119 26.3515 26.011H26.3506Z" fill="black"/>
<path d="M27.0327 11.129C26.9645 11.1155 26.9056 11.1038 26.85 11.0928C26.8408 11.0137 26.8332 10.9472 26.8265 10.8823H26.5545C26.6042 11.0499 26.5385 11.124 26.387 11.1155V11.7723H27.0327V11.129Z" fill="black"/>
<path d="M15.4267 37.3647C15.356 37.416 15.3021 37.4556 15.2524 37.4926C15.2356 37.5044 15.2196 37.5171 15.2036 37.5288C15.2196 37.5423 15.2356 37.5558 15.2524 37.5701C15.3021 37.6122 15.3568 37.6577 15.4276 37.7174C15.4301 37.7343 15.4394 37.7999 15.4478 37.8622H16.0944V37.2114H15.4419C15.4343 37.2897 15.4284 37.3512 15.4267 37.3663V37.3647Z" fill="black"/>
<path d="M24.7206 22.9858H24.0193V23.6821H24.7206V22.9858Z" fill="black"/>
<path d="M38.2278 27.4106H37.5315V28.1036H38.2278V27.4106Z" fill="black"/>
<path d="M25.6721 32.3032H26.3659V31.6035H25.6721V32.3032Z" fill="black"/>
<path d="M30.0938 25.5387H30.7799V24.8433H30.0938V25.5387Z" fill="black"/>
<path d="M36.3678 23.9165H35.6816V24.6153H36.3678V23.9165Z" fill="black"/>
<path d="M12.6294 20.6698H13.3223V19.9668H12.6294V20.6698Z" fill="black"/>
<path d="M31.956 18.1084H31.2546V18.8064H31.956V18.1084Z" fill="black"/>
<path d="M29.8382 17.8657H29.1562V18.5654H29.8382V17.8657Z" fill="black"/>
<path d="M39.832 28.0851C39.757 28.0952 39.6956 28.1028 39.6316 28.1112V28.5641H40.3338C40.3413 28.4917 40.3489 28.4244 40.3557 28.3596C40.4786 28.3264 40.5328 28.2495 40.5182 28.1289C40.4617 28.1162 40.4037 28.1036 40.3489 28.0918C40.3413 28.0093 40.3346 27.942 40.3279 27.8721H39.8707C39.8555 27.9529 39.8438 28.0194 39.8311 28.0851H39.832Z" fill="black"/>
<path d="M32.4192 27.4087H31.9688C31.9578 27.4996 31.9502 27.567 31.9418 27.6369C31.8627 27.6436 31.7953 27.6495 31.7322 27.6545V28.105H32.4301C32.4192 28.0873 32.4074 28.0705 32.3965 28.0528C32.4588 27.9913 32.5303 27.9374 32.58 27.8667C32.6162 27.8153 32.6238 27.7429 32.6457 27.6756C32.5522 27.6579 32.4941 27.6461 32.4369 27.6352C32.431 27.5527 32.4259 27.4853 32.42 27.4087H32.4192Z" fill="black"/>
<path d="M22.8633 26.9463H22.3901C22.4533 27.1534 22.3169 27.177 22.178 27.1854V27.6434H22.8776C22.8835 27.5584 22.8886 27.4893 22.8911 27.4456C22.9601 27.3866 23.0132 27.3412 23.0662 27.2965C23.0073 27.2502 22.9484 27.2039 22.8844 27.1534C22.8776 27.0919 22.8709 27.0187 22.8633 26.9463Z" fill="black"/>
<path d="M23.3419 26.2578C23.3419 26.1458 23.3419 26.0489 23.3419 25.9513C23.341 25.5589 23.3158 25.5354 22.9158 25.5514C22.9032 25.5514 22.8906 25.5615 22.8746 25.5682C22.8662 25.6339 22.8569 25.7012 22.8476 25.7728C22.7702 25.7821 22.7028 25.7905 22.6279 25.7997C22.622 25.846 22.6127 25.8856 22.6136 25.926C22.6161 26.0363 22.622 26.1466 22.6279 26.262C22.707 26.2704 22.7744 26.2771 22.8544 26.2847C22.8628 26.3462 22.8712 26.4042 22.8796 26.4657H23.0817C23.0977 26.4034 23.112 26.3462 23.1263 26.2931C23.2038 26.2805 23.2686 26.2695 23.3427 26.2578H23.3419Z" fill="black"/>
<path d="M36.8271 29.7474V29.2936C36.7446 29.2818 36.6773 29.2726 36.6133 29.2641C36.6032 29.1842 36.5947 29.1176 36.5863 29.0503H36.1367C36.1275 29.1353 36.1199 29.2094 36.1123 29.281C36.0441 29.2953 35.986 29.3079 35.9077 29.3239C35.9304 29.393 35.9363 29.457 35.97 29.4999C36.0264 29.5731 36.1005 29.6329 36.167 29.6986C36.1544 29.7146 36.1418 29.7306 36.1291 29.7466H36.8271V29.7474Z" fill="black"/>
<path d="M30.0772 15.5288H30.3155C30.307 15.5161 30.2986 15.5043 30.2894 15.4917C30.3668 15.4227 30.4434 15.3536 30.5234 15.2821V14.6245H30.0519C30.1142 14.8022 29.9997 14.8182 29.8667 14.8198V15.3183C29.9307 15.325 29.9896 15.3301 30.0595 15.3376C30.0654 15.4033 30.0704 15.4631 30.0772 15.5288Z" fill="black"/>
<path d="M6.31191 27.6416C6.18309 27.6433 6.04754 27.6433 6.12836 27.842C6.19067 27.8479 6.25887 27.8546 6.33296 27.8613C6.34306 27.9464 6.35232 28.0264 6.36158 28.1004H6.80444C6.81286 28.0179 6.82044 27.9506 6.82718 27.8832C6.89706 27.8714 6.95515 27.8613 7.00567 27.8521V27.4033H6.34895C6.33717 27.4833 6.32538 27.5566 6.31275 27.6416H6.31191Z" fill="black"/>
<path d="M32.4365 27.1846H33.0899V26.479H32.4365V27.1846Z" fill="black"/>
<path d="M37.5051 25.562H36.8484V26.2541H37.5051V25.562Z" fill="black"/>
<path d="M4.90909 25.093H4.45276C4.44518 25.1679 4.43844 25.2353 4.43086 25.3094C4.37193 25.3203 4.31804 25.3296 4.26416 25.3388V25.791H4.91582C4.9234 25.7135 4.93098 25.6453 4.93856 25.5695C5.01433 25.5603 5.08169 25.5527 5.15493 25.5434V25.3498C5.07411 25.3363 5.0017 25.3237 4.9335 25.3119C4.92508 25.2302 4.91751 25.1637 4.90993 25.0913L4.90909 25.093Z" fill="black"/>
<path d="M4.70639 23.7095H4V24.3578H4.70639V23.7095Z" fill="black"/>
<path d="M37.9642 23.459H37.3125V24.1519H37.9642V23.459Z" fill="black"/>
<path d="M18.6628 37.4248H18.4608C18.4465 37.5048 18.4355 37.5713 18.4246 37.6319C18.3429 37.6446 18.2781 37.6555 18.2048 37.6664V38.3274H18.6628C18.6797 38.2625 18.6948 38.2044 18.7083 38.1489C18.7816 38.1413 18.843 38.1337 18.9104 38.127V37.674C18.8245 37.6639 18.7513 37.6547 18.6763 37.6462C18.6713 37.5663 18.6671 37.4981 18.6628 37.4256V37.4248Z" fill="black"/>
<path d="M37.5216 10.6418H37.9729V9.96569C37.8289 9.87056 37.7068 9.78973 37.5502 9.68701C37.5317 9.81246 37.5224 9.8714 37.5132 9.93454C37.4425 9.94044 37.3818 9.94465 37.3162 9.95054V10.3959C37.3844 10.4094 37.4433 10.4203 37.4997 10.4313C37.5081 10.5104 37.5157 10.5778 37.5224 10.6426L37.5216 10.6418Z" fill="black"/>
<path d="M20.5329 23.6889H20.746C20.7948 23.6038 20.8234 23.4902 20.8739 23.4792C20.9943 23.4523 20.9893 23.3841 20.9884 23.2974C20.9868 23.1315 20.9884 22.9648 20.9884 22.7812H20.4993C20.5649 22.9648 20.4319 22.9665 20.3191 22.9833V23.4388C20.3839 23.4464 20.4429 23.4531 20.5026 23.4599C20.5136 23.5449 20.5228 23.6165 20.5329 23.6889Z" fill="black"/>
<path d="M22.1837 17.1569C22.2528 17.1603 22.3134 17.1628 22.3841 17.167C22.3993 17.0879 22.4127 17.0163 22.4279 16.9397C22.4961 16.933 22.5559 16.9262 22.6224 16.9195V16.2603H22.2292C22.1223 16.3613 22.0507 16.4295 21.9631 16.512V16.9153C22.0347 16.9229 22.0953 16.9288 22.1627 16.9363C22.1694 17.0113 22.1761 17.0795 22.1829 17.1569H22.1837Z" fill="black"/>
<path d="M25.6438 19.7505H24.9871V20.4022H25.6438V19.7505Z" fill="black"/>
<path d="M26.5673 17.1875H25.9148V17.8476H26.5673V17.1875Z" fill="black"/>
<path d="M13.9937 12.7695H13.3286V13.4246H13.9937V12.7695Z" fill="black"/>
<path d="M22.1666 24.6113H22.4184C22.4268 24.538 22.4344 24.4766 22.4419 24.4058C22.5034 24.3924 22.5615 24.3797 22.6238 24.3654V23.8914C22.4419 23.9512 22.4167 23.835 22.4141 23.707H22.1725C22.1616 23.7752 22.1515 23.8342 22.143 23.888C22.0715 23.9015 22.0142 23.9133 21.9612 23.9234V24.3629C22.0277 24.3722 22.0866 24.3806 22.1506 24.389C22.1565 24.4681 22.1616 24.5363 22.1666 24.6121V24.6113Z" fill="black"/>
<path d="M6.81223 24.3632H7.26688C7.27614 24.2992 7.28456 24.2403 7.29298 24.1856C7.36286 24.1704 7.42011 24.1586 7.47484 24.1468V23.9111C7.41169 23.9035 7.35276 23.8976 7.28961 23.89C7.28119 23.8244 7.27445 23.7696 7.26604 23.7031H6.7996C6.84001 23.9086 6.69099 23.8926 6.5647 23.9044V24.1595C6.64047 24.1704 6.70783 24.1797 6.77434 24.1898C6.78781 24.2538 6.79876 24.306 6.81054 24.3624L6.81223 24.3632Z" fill="black"/>
<path d="M34.0317 10.3993H34.4813C34.4939 10.3336 34.5057 10.2746 34.5166 10.2191C34.5949 10.209 34.6614 10.2006 34.7305 10.1921V9.94377C34.6555 9.93619 34.5882 9.93029 34.5107 9.92272C34.5015 9.85957 34.4922 9.80148 34.4829 9.7417H34.0333C34.0199 9.8099 34.0081 9.86883 33.9971 9.9244C33.9323 9.93366 33.8793 9.94208 33.822 9.94966V10.1879C33.8885 10.2006 33.9466 10.2123 34.0005 10.2233C34.0123 10.2898 34.0216 10.342 34.0317 10.4001V10.3993Z" fill="black"/>
<path d="M35.9226 37.5924C36.0245 37.6985 36.0952 37.7718 36.1786 37.8585H36.5886V37.2085H35.9234V37.5924H35.9226Z" fill="black"/>
<defs>
<filter id="filter0_i_4206_21934" x="0" y="0" width="48" height="48" filterUnits="userSpaceOnUse" color-interpolation-filters="sRGB">
<feFlood flood-opacity="0" result="BackgroundImageFix"/>
<feBlend mode="normal" in="SourceGraphic" in2="BackgroundImageFix" result="shape"/>
<feColorMatrix in="SourceAlpha" type="matrix" values="0 0 0 0 0 0 0 0 0 0 0 0 0 0 0 0 0 0 127 0" result="hardAlpha"/>
<feOffset/>
<feGaussianBlur stdDeviation="2.2"/>
<feComposite in2="hardAlpha" operator="arithmetic" k2="-1" k3="1"/>
<feColorMatrix type="matrix" values="0 0 0 0 0 0 0 0 0 0 0 0 0 0 0 0 0 0 0.27 0"/>
<feBlend mode="normal" in2="shape" result="effect1_innerShadow_4206_21934"/>
</filter>
<radialGradient id="paint0_radial_4206_21934" cx="0" cy="0" r="1" gradientUnits="userSpaceOnUse" gradientTransform="translate(24 24) rotate(90) scale(24)">
<stop stop-color="white"/>
<stop offset="1" stop-color="#FAFAFA"/>
</radialGradient>
</defs>
</svg>
