<svg width="45" height="45" viewBox="0 0 45 45" fill="none" xmlns="http://www.w3.org/2000/svg">
<g filter="url(#filter0_i_4206_21875)">
<circle cx="22.5" cy="22.5" r="22.5" fill="url(#paint0_radial_4206_21875)"/>
</g>
<g filter="url(#filter1_i_4206_21875)">
<path d="M20.3262 40C20.3498 39.83 20.3968 39.6596 20.3926 39.49C20.3827 39.0591 20.3525 38.6281 20.3254 38.1975C20.2796 37.4735 20.2262 36.7499 20.1823 36.026C20.1598 35.6514 20.1571 35.2753 20.1338 34.9008C20.0899 34.1956 20.0353 33.4909 19.9899 32.7857C19.9575 32.2799 19.925 31.7741 19.9075 31.2679C19.8754 30.3359 19.8544 29.4033 19.8273 28.471C19.8262 28.4292 19.8132 28.3879 19.8056 28.3465C19.617 28.3755 18.7865 29.0042 18.7044 29.1047C18.5899 29.1739 18.4304 29.2182 18.3731 29.319C18.3159 29.4202 18.3605 29.5774 18.3266 29.715C18.3166 29.6895 18.3056 29.6643 18.2964 29.6387C18.2563 29.524 18.2491 29.3705 18.0567 29.4262C17.8552 29.4845 17.7918 29.5902 17.8384 29.7707C17.856 29.8399 17.8651 29.911 17.8781 29.9813C17.8613 29.9881 17.8445 29.9948 17.8277 30.0016C17.7945 29.9414 17.7644 29.8798 17.7277 29.8218C17.6964 29.7722 17.6579 29.7271 17.6227 29.6801C17.5663 29.7263 17.4834 29.7624 17.4594 29.8215C17.4266 29.9027 17.438 30.0016 17.4308 30.0949C17.4247 30.096 17.4044 30.1013 17.4033 30.0986C17.2865 29.8395 17.0937 29.8418 16.8537 29.9181C16.1785 30.1332 15.6537 29.8252 15.1781 29.407C15.0712 29.313 15.0254 29.1509 14.9525 29.0197C14.9239 28.9678 14.898 28.9144 14.8502 28.8211C14.6148 29.2382 14.6163 29.6643 14.5388 30.0693C14.456 30.5018 14.8308 30.8433 14.8182 31.2633C14.7983 31.2724 14.7785 31.281 14.7586 31.29C14.6365 31.0674 14.514 30.8448 14.3598 30.5642C14.277 30.7113 14.2178 30.8136 14.1625 30.9177C14.1483 30.9444 14.1407 30.9787 14.1419 31.0087C14.1552 31.4416 13.9071 31.7098 13.5617 31.9237C13.4499 31.9933 13.3518 32.0858 13.2518 32.1731C13.1151 32.2927 12.9644 32.3581 12.78 32.3107C12.6655 32.2814 12.6026 32.3235 12.561 32.4307C12.5274 32.5172 12.4888 32.6135 12.4224 32.6725C12.3716 32.7176 12.2743 32.7222 12.1972 32.7252C12.1377 32.7274 12.0766 32.6853 12.0171 32.6868C11.7197 32.6928 11.548 32.5037 11.5934 32.2062C11.6148 32.0663 11.6461 31.9279 11.6758 31.7729C11.5942 31.7669 11.5434 31.7632 11.5293 31.762C11.6339 31.4728 11.748 31.1919 11.835 30.9031C11.8751 30.7699 11.8965 30.612 11.7155 30.5304C11.6163 30.4856 11.5449 30.4826 11.4751 30.5905C11.4377 30.6488 11.3445 30.6722 11.2766 30.7116C11.2308 30.7383 11.1732 30.756 11.1411 30.7944C10.9243 31.0558 10.7136 31.322 10.4991 31.5849C10.4396 31.6579 10.3823 31.7387 10.3064 31.7902C10.2461 31.8308 10.14 31.8677 10.0873 31.8414C10.0323 31.8139 9.98272 31.7049 9.9915 31.6394C10.0113 31.4931 10.0648 31.3502 10.1129 31.2088C10.1514 31.0945 10.2022 30.9839 10.2472 30.8715C10.2251 30.8564 10.2026 30.841 10.1804 30.826C10.1194 30.8914 10.0541 30.9531 9.99875 31.0227C9.8854 31.1644 9.78082 31.3134 9.66555 31.4533C9.5896 31.5454 9.4896 31.5322 9.45906 31.4266C9.41975 31.2893 9.39456 31.1362 9.41479 30.9975C9.44532 30.788 9.38769 30.6932 9.17433 30.7195C9.04838 30.7353 8.89227 30.762 8.87662 30.6169C8.86556 30.5153 8.95945 30.3784 9.04494 30.2965C9.29799 30.0535 9.57624 29.8365 9.8312 29.5954C9.91059 29.5202 10.014 29.3894 9.87242 29.2919C9.75448 29.2107 9.62776 29.2303 9.49761 29.3457C9.23006 29.5834 8.93693 29.7929 8.65143 30.0103C8.61327 30.0392 8.548 30.0727 8.51174 30.0595C8.23044 29.9572 8.06785 30.1652 7.87129 30.2848C7.85564 30.2942 7.83655 30.2983 7.80602 30.3096C7.57014 30.0057 7.72892 29.741 7.90411 29.4706C7.85411 29.4454 7.81862 29.4168 7.77892 29.4093C7.6377 29.3815 7.57969 29.3025 7.5732 29.1603C7.56518 28.9847 7.51137 28.9606 7.36366 29.058C7.169 29.1863 6.95412 29.1821 6.73809 29.1592C6.69381 29.1547 6.64076 29.1028 6.6213 29.0595C6.61213 29.0396 6.67129 28.9866 6.70297 28.9516C6.79801 28.8474 6.88885 28.7384 6.99228 28.6428C7.1106 28.5338 7.23427 28.4277 7.36709 28.3367C7.67854 28.1227 8.00716 27.9313 8.3064 27.7026C8.39724 27.6331 8.49075 27.427 8.45067 27.3597C8.36212 27.2104 8.17625 27.2878 8.06174 27.363C7.90564 27.4657 7.78655 27.6218 7.63656 27.7361C7.39228 27.9219 7.14076 28.1002 6.88236 28.2668C6.71175 28.3773 6.52969 28.342 6.35717 28.2472C6.1858 28.1532 6.17206 28.0682 6.30259 27.9238C6.48389 27.723 6.6629 27.5202 6.84152 27.3175C6.86519 27.2908 6.88045 27.2574 6.93007 27.1784C6.73809 27.1784 6.58465 27.1803 6.43122 27.1776C6.36175 27.1765 6.28427 27.1829 6.22473 27.1555C6.15221 27.122 6.09496 27.0562 6.03084 27.0046C6.09878 26.9494 6.15832 26.8719 6.23618 26.8429C6.41252 26.7775 6.61557 26.767 6.77549 26.6775C7.0358 26.5319 7.27015 26.3409 7.53198 26.1577C7.48388 26.1239 7.46098 26.0957 7.44648 26.0994C7.23389 26.1558 7.04839 26.0727 6.86061 25.9953C6.71137 25.934 6.56595 25.9144 6.40298 25.9738C6.2526 26.0287 6.16634 25.9501 6.19802 25.7895C6.2274 25.6395 6.18275 25.5383 6.0713 25.4443C5.96481 25.3544 5.97664 25.2758 6.11328 25.2228C6.15985 25.2047 6.22244 25.1889 6.2442 25.1528C6.4232 24.8535 6.74 24.864 7.02549 24.8016C7.08312 24.7892 7.13732 24.7636 7.19343 24.744C7.19267 24.7252 7.1919 24.7064 7.19114 24.6876C7.11709 24.6775 7.0419 24.6527 6.96977 24.6594C6.74648 24.6801 6.57473 24.5722 6.41824 24.4443C6.37359 24.4078 6.35679 24.3033 6.3713 24.2397C6.38733 24.1717 6.49496 24.1134 6.49267 24.0539C6.48694 23.9144 6.47397 23.7535 6.39992 23.6433C6.29076 23.4812 6.3255 23.365 6.45336 23.2698C6.57282 23.1811 6.71557 23.1213 6.85259 23.0577C6.99038 22.9938 7.13732 22.949 7.27244 22.8806C7.40259 22.8144 7.40182 22.7177 7.28999 22.6294C7.17091 22.5353 7.04038 22.4552 6.92778 22.3548C6.87893 22.3116 6.86213 22.233 6.83122 22.1705C6.88885 22.1446 6.94534 22.1164 7.00412 22.0931C7.06175 22.0701 7.1232 22.0555 7.18007 22.031C7.24381 22.0032 7.30182 21.9468 7.36633 21.9404C7.57587 21.9197 7.72968 21.8881 7.62663 21.6132C7.58465 21.5011 7.70106 21.4338 7.81327 21.4267C7.99953 21.415 8.01709 21.3281 7.96365 21.1739C7.94075 21.1078 7.94113 20.9961 7.98235 20.9566C8.0251 20.9156 8.14762 20.9054 8.20373 20.9366C8.47892 21.0901 8.74418 21.2616 9.01212 21.4274C9.06212 21.4583 9.11021 21.4929 9.15906 21.526C9.17357 21.5173 9.18845 21.5087 9.20296 21.4996C9.1938 21.4443 9.19494 21.3842 9.17319 21.3342C9.07433 21.104 8.96823 20.8768 8.8667 20.6478C8.83884 20.585 8.79914 20.5196 8.798 20.4549C8.79685 20.3842 8.82281 20.2593 8.85678 20.2526C8.93655 20.2364 9.04303 20.2544 9.11097 20.2992C9.20067 20.3586 9.26364 20.4568 9.33845 20.5384C9.35601 20.5324 9.37357 20.5263 9.39151 20.5203C9.39151 20.4583 9.39532 20.3958 9.39074 20.3338C9.377 20.1405 9.35754 19.9476 9.34799 19.7539C9.34609 19.7178 9.38082 19.6798 9.39838 19.6426C9.43616 19.6674 9.49265 19.6839 9.50868 19.7185C9.57013 19.8509 9.6186 19.9889 9.69074 20.1725C9.82051 19.9897 9.90753 19.8468 10.0163 19.7223C10.082 19.6467 10.1797 19.5978 10.2655 19.5403C10.3507 19.4831 10.4384 19.4305 10.5308 19.3722C10.5549 19.4478 10.5976 19.5335 10.6079 19.6226C10.6369 19.8738 10.8365 19.9547 11.0266 20.0363C11.1522 20.0901 11.1568 19.9957 11.1522 19.9032C11.1453 19.7667 11.1304 19.6275 11.1491 19.4936C11.1587 19.4267 11.2354 19.3692 11.2816 19.3075C11.3186 19.3793 11.3652 19.4485 11.3892 19.5245C11.4029 19.5681 11.3781 19.6226 11.3747 19.6726C11.356 19.9438 11.4613 20.0916 11.7304 20.1266C12.2201 20.1905 12.5312 20.4462 12.7167 20.8987C12.8999 21.3454 13.2171 21.6775 13.7109 21.8129C13.9064 21.8667 14.0953 21.9453 14.2907 21.9987C14.4831 22.0513 14.6716 22.0243 14.8396 21.9137C15.4037 21.5417 15.9697 21.1732 16.5273 20.7919C16.9594 20.4966 17.3792 20.1845 17.8044 19.8795C17.83 19.8611 17.856 19.8423 17.8796 19.8219C18.1781 19.5666 18.1838 19.4801 17.9056 19.2074C17.6945 19.0006 17.5964 18.7663 17.6937 18.476C17.7514 18.3041 17.6689 18.2338 17.5086 18.2041C17.2071 18.1484 16.8808 17.8302 16.8353 17.5553C16.7937 17.3037 16.8964 17.118 17.1384 17.0123C17.6518 16.7885 18.1346 16.8991 18.5972 17.1552C18.8163 17.2763 18.8319 17.2755 18.943 17.0457C19.0357 16.8539 19.1491 16.6715 19.2395 16.479C19.2716 16.4113 19.2632 16.3252 19.2731 16.2473C19.2075 16.2409 19.1376 16.2176 19.0766 16.2312C18.5025 16.3594 17.9273 16.2691 17.354 16.2361C17.156 16.2244 16.9613 16.1398 16.7674 16.0819C16.5857 16.0273 16.3979 15.9811 16.2292 15.8987C16.0972 15.834 15.9838 15.7261 15.8731 15.6257C15.7151 15.4828 15.5598 15.3357 15.417 15.1781C15.2186 14.9596 15.1167 14.7092 15.0751 14.4053C15.022 14.0191 14.9911 13.6325 15.1075 13.2711C15.2338 12.8777 15.2037 12.5757 14.9029 12.2718C14.785 12.1522 14.7705 11.9318 14.714 11.7555C14.6663 11.6069 14.6438 11.4475 14.5762 11.3091C14.5277 11.2098 14.4228 11.1376 14.3335 11.0432C14.4384 10.9571 14.3869 10.8262 14.3289 10.687C14.1651 10.2959 14.0556 9.89163 14.0651 9.4644C14.0743 9.05335 14.0823 8.64192 14.1071 8.23162C14.1144 8.11128 14.1678 7.99018 14.2163 7.87623C14.3411 7.58326 14.4544 7.28278 14.6113 7.00674C14.8044 6.66676 15.1197 6.47459 15.5209 6.4539C15.7422 6.44262 15.785 6.27339 15.8716 6.1301C16.0361 5.85745 16.185 5.57012 16.3869 5.32605C16.6777 4.97404 17.1174 4.84354 17.5327 4.69123C17.8338 4.58066 18.1495 4.55735 18.4705 4.56637C18.5548 4.56863 18.6407 4.51109 18.6872 4.49454C18.8666 4.54494 19.0201 4.61376 19.1785 4.62805C19.6059 4.66603 19.967 4.87212 20.3487 5.0312C20.8033 5.22037 21.217 5.4761 21.5903 5.78599C21.8559 6.00675 22.0891 6.26737 22.3212 6.52385C22.4708 6.68933 22.6498 6.74273 22.8609 6.75364C23.038 6.76266 23.2143 6.79162 23.3918 6.80215C23.4933 6.80817 23.5964 6.79501 23.7307 6.78937C23.8185 6.98605 24.0658 6.9774 24.2658 7.05375C24.3662 7.09211 24.4742 7.11091 24.5769 7.14325C24.7509 7.19779 24.9292 7.27676 25.009 6.98793C25.1471 7.38131 25.217 7.42794 25.4216 7.35649C25.5593 7.45051 25.6597 7.53325 25.7727 7.59267C25.9124 7.666 26.0643 7.7164 26.207 7.78447C26.3273 7.84201 26.4048 7.80289 26.4876 7.71C26.6761 7.49902 26.8693 7.29105 27.0715 7.09286C27.1826 6.9838 27.2803 6.88489 27.1559 6.68143C27.633 6.82585 27.6208 6.39298 27.8109 6.20795C27.865 6.1553 27.8318 6.01502 27.8387 5.91499C27.8547 5.9101 27.8708 5.90521 27.8868 5.90032C27.9231 5.95711 27.9597 6.01427 28.0086 6.09061C28.2841 6.01765 28.4269 5.84315 28.4063 5.53327C28.4635 5.54944 28.5017 5.55207 28.5307 5.56937C28.6696 5.65436 28.7357 5.58742 28.7566 5.45843C28.7769 5.3347 28.815 5.27453 28.9582 5.32454C28.9898 5.33545 29.0673 5.26964 29.0963 5.22263C29.1253 5.17562 29.1204 5.1083 29.1315 5.04474C29.3531 5.135 29.4925 5.09564 29.5498 4.92665C29.6811 5.04249 29.8021 5.03271 29.9101 4.89732C29.9227 4.88153 29.9574 4.87664 29.9814 4.87701C30.3376 4.88717 30.3505 4.67205 30.354 4.34298C30.3551 4.24144 30.3654 4.14028 30.3715 4.03874L30.4688 4.03197C30.4971 4.14592 30.528 4.25949 30.5528 4.3742C30.5799 4.50056 30.5269 4.67318 30.7196 4.70703C30.8738 4.7341 30.9998 4.61075 31.0624 4.40579C31.0688 4.3851 31.0887 4.36856 31.0921 4.36404C31.1704 4.43437 31.2417 4.4983 31.3131 4.56261C31.3757 4.47311 31.4383 4.3836 31.502 4.29184C31.4994 4.29071 31.52 4.29635 31.5196 4.30049C31.5097 4.43211 31.5372 4.54983 31.6948 4.55735C31.8505 4.56487 31.9585 4.48627 31.9998 4.32832C32.0284 4.21775 32.0673 4.10944 32.102 4C32.1242 4.00075 32.1463 4.00113 32.1685 4.00188C32.1833 4.0519 32.2173 4.10493 32.2097 4.15194C32.1436 4.56412 32.2116 4.64384 32.6135 4.55998C32.7452 4.53253 32.8349 4.53854 32.9387 4.62466C33.0391 4.70778 33.1154 4.68145 33.1543 4.53892C33.1955 4.38962 33.2677 4.24859 33.3265 4.1038C33.3543 4.10981 33.3826 4.11583 33.4104 4.12185C33.4135 4.18766 33.4379 4.26137 33.4158 4.31741C33.3234 4.55321 33.5677 4.65475 33.6142 4.83339C33.6688 4.80969 33.7455 4.80142 33.7742 4.76043C33.9505 4.50658 33.9494 4.50507 34.2169 4.65588C34.3242 4.71643 34.3467 4.79578 34.3074 4.90898C34.2856 4.97141 34.2875 5.04136 34.2787 5.1083C34.3387 5.07408 34.3986 5.03948 34.4589 5.00563C34.4749 4.9966 34.4921 4.98984 34.5383 4.96802C34.5444 5.03158 34.5406 5.08423 34.5558 5.13049C34.5799 5.20458 34.5986 5.30198 34.6539 5.33733C34.6997 5.36666 34.7959 5.32304 34.8681 5.30574C34.8906 5.30048 34.9062 5.26813 34.9287 5.26212C35.0077 5.24218 35.0883 5.22864 35.1681 5.21247C35.1402 5.28506 35.1177 5.36065 35.0826 5.42985C35.0635 5.46745 35.0062 5.49115 34.9978 5.528C34.986 5.5799 35.0032 5.63819 35.0081 5.69348C35.0696 5.68746 35.1364 5.69423 35.1902 5.67091C35.228 5.65436 35.2471 5.5972 35.2749 5.55809C35.291 5.56185 35.307 5.56523 35.323 5.56899C35.3127 5.64195 35.3093 5.71642 35.2906 5.7875C35.2528 5.93191 35.3062 6.00148 35.4597 5.99208C35.5734 5.98494 35.6875 5.96388 35.8009 5.96764C35.9658 5.9729 35.9936 6.0327 35.9062 6.16621C35.8856 6.1978 35.8513 6.22563 35.8436 6.25947C35.8295 6.3204 35.831 6.38508 35.8257 6.44789C35.8822 6.43849 35.9432 6.43961 35.9944 6.4178C36.1051 6.37079 36.207 6.30272 36.3196 6.26248C36.3646 6.24631 36.4287 6.28053 36.4841 6.29182C36.4566 6.33394 36.4375 6.38583 36.4001 6.41592C36.3371 6.46707 36.2642 6.50731 36.1925 6.54642C36.0596 6.619 36.0493 6.71829 36.1035 6.84803C36.2047 7.09023 36.2623 7.1143 36.4948 6.99057C36.5116 6.98154 36.528 6.96763 36.5459 6.96575C36.6226 6.95822 36.6997 6.95446 36.7764 6.94957C36.7329 7.00899 36.6917 7.07067 36.6448 7.12708C36.6253 7.1504 36.586 7.15792 36.5684 7.18199C36.5272 7.23878 36.4936 7.30121 36.457 7.36138C36.5234 7.36439 36.5898 7.37191 36.6558 7.36852C36.7207 7.36514 36.7852 7.35047 36.8501 7.34069C36.8581 7.35499 36.8665 7.36928 36.8745 7.38357C36.8455 7.41666 36.8123 7.4475 36.7887 7.48398C36.76 7.52761 36.7077 7.60094 36.7215 7.61824C36.7547 7.65998 36.82 7.69722 36.873 7.69872C36.9734 7.70135 37.0741 7.66939 37.1753 7.66788C37.2245 7.66713 37.2741 7.70248 37.3234 7.72166C37.2925 7.76303 37.2707 7.82132 37.2291 7.84201C37.1394 7.88714 37.0402 7.91421 36.9448 7.94731C36.8299 7.98717 36.8035 8.05449 36.8562 8.16618C36.9455 8.35573 37.1135 8.40838 37.3005 8.44711C37.399 8.4678 37.4909 8.51894 37.586 8.55618C37.499 8.60319 37.4123 8.65132 37.3241 8.69608C37.2963 8.70999 37.2566 8.70698 37.2348 8.72579C37.2005 8.75625 37.1764 8.79837 37.1482 8.83523C37.1841 8.85478 37.2199 8.89126 37.2558 8.89164C37.5417 8.89314 37.8287 8.90029 38.1138 8.88036C38.3402 8.86456 38.5631 8.80552 38.7894 8.78295C38.8566 8.77618 38.9669 8.81153 38.9905 8.85929C39.0161 8.91119 38.9867 9.03304 38.9394 9.06689C38.8188 9.15226 38.681 9.23086 38.5383 9.26659C38.1871 9.35384 37.8302 9.4189 37.4745 9.48584C37.3192 9.51517 37.257 9.59453 37.278 9.74797C37.297 9.88486 37.3795 9.93713 37.5108 9.94917C37.6234 9.95932 37.7348 9.98414 37.8467 10.0026C37.844 10.0259 37.8409 10.0492 37.8383 10.0725C37.7879 10.0725 37.7356 10.0635 37.6879 10.0744C37.5993 10.0947 37.4925 10.1045 37.4325 10.1598C37.3806 10.2079 37.3642 10.3147 37.3711 10.3926C37.3738 10.4249 37.4761 10.467 37.536 10.4727C37.7173 10.4892 37.8554 10.5588 37.9299 10.7574C37.849 10.7423 37.7688 10.722 37.6875 10.7141C37.5844 10.7043 37.4635 10.6622 37.4306 10.8224C37.386 11.0402 37.4364 11.1654 37.5978 11.188C37.726 11.206 37.7638 11.2613 37.7627 11.3873C37.7608 11.6284 37.7768 11.8694 37.7921 12.1101C37.799 12.2192 37.7539 12.2485 37.6566 12.2195C37.6142 12.2068 37.5757 12.1827 37.5341 12.168C37.3886 12.1161 37.3257 12.1676 37.318 12.3233C37.3123 12.4456 37.3012 12.5712 37.2669 12.6881C37.2207 12.8442 37.2436 12.9424 37.4199 12.9815C37.4772 12.9943 37.528 13.036 37.5814 13.0646C37.5814 13.0845 37.5814 13.1045 37.5814 13.124C37.4906 13.1402 37.397 13.1782 37.3096 13.1676C37.1909 13.153 37.1108 13.1902 37.0932 13.2936C37.0795 13.3734 37.0997 13.4704 37.1375 13.543C37.1604 13.587 37.2459 13.5997 37.2799 13.6607C37.0703 13.7073 37.0303 13.9213 36.8325 13.9348C36.6955 13.9442 36.6829 14.1451 36.7948 14.2707C36.8814 14.3681 36.9658 14.4674 37.0509 14.5659C37.0364 14.5813 37.0222 14.5967 37.0077 14.6125C36.9738 14.6069 36.936 14.6084 36.9062 14.5941C36.6825 14.4847 36.6471 14.4952 36.5604 14.7178C36.4543 14.9905 36.3154 15.2556 36.3864 15.5663C36.3948 15.6031 36.3417 15.658 36.3093 15.6983C36.2909 15.7208 36.2348 15.7272 36.2322 15.746C36.1883 16.0552 35.8348 16.2819 35.9848 16.6426C35.9887 16.6512 35.9791 16.6652 35.9757 16.6768C35.6757 16.6313 35.6528 16.667 35.7684 17.0499C35.6898 17.0277 35.6314 17.0002 35.5715 16.9972C35.51 16.9942 35.4234 16.995 35.3921 17.0315C35.3619 17.0661 35.378 17.151 35.3921 17.2093C35.4066 17.2669 35.4444 17.3188 35.4864 17.4015C35.3119 17.3782 35.3089 17.0849 35.1074 17.2421C35.0131 17.3154 34.8829 17.3763 34.841 17.473C34.8028 17.561 34.8619 17.69 34.8833 17.8378C34.8265 17.7629 34.7963 17.708 34.7516 17.6697C34.7177 17.6399 34.6524 17.6038 34.6234 17.617C34.4474 17.6975 34.2791 17.7938 34.1055 17.8799C34.0715 17.8968 34.0257 17.8885 33.9875 17.8987C33.7967 17.9491 33.607 18.0017 33.3513 18.0717C33.2597 18.0645 33.0872 18.0405 32.9154 18.045C32.8665 18.0461 32.8047 18.1232 32.7768 18.1789C32.7509 18.2311 32.7757 18.3064 32.7543 18.3624C32.7135 18.4699 32.6448 18.5196 32.544 18.4105C32.5154 18.3793 32.4616 18.324 32.4513 18.33C32.2982 18.4237 32.1379 18.5132 32.0074 18.6332C31.9601 18.6768 31.9814 18.7986 31.983 18.8848C31.9841 18.9393 32.0066 18.9931 32.0196 19.0472C31.9986 19.057 31.9772 19.0672 31.9562 19.0769C31.9196 19.0228 31.8749 18.9724 31.8475 18.9137C31.7971 18.8062 31.699 18.7509 31.6246 18.8366C31.428 19.0619 31.1368 19.0912 30.8933 19.2146C30.7078 19.3086 30.6318 19.4177 30.6875 19.6144C30.6937 19.6354 30.6845 19.661 30.6826 19.6836C30.6612 19.6836 30.6398 19.6873 30.6383 19.6832C30.5563 19.4887 30.4414 19.4395 30.2479 19.5643C30.1566 19.6234 30.028 19.6226 29.9238 19.6663C29.7272 19.7486 29.7253 19.7606 29.7528 19.9701C29.7082 19.9419 29.6746 19.9182 29.6383 19.899C29.607 19.8825 29.5727 19.8716 29.5398 19.8581C29.449 20.0777 29.5299 20.321 29.7173 20.4049C29.8215 20.4515 29.8627 20.5113 29.7708 20.6019C29.7139 20.6583 29.6471 20.705 29.5845 20.7557C29.6543 20.7817 29.7246 20.8076 29.7956 20.834C29.7883 20.8479 29.7849 20.8644 29.7769 20.8671C29.6994 20.8919 29.6211 20.9141 29.5433 20.937C29.5727 21.0269 29.5979 21.1183 29.633 21.2059C29.6559 21.2635 29.7059 21.3123 29.7192 21.3706C29.7261 21.4003 29.686 21.4669 29.6559 21.4748C29.3444 21.5568 29.3437 21.5545 29.5215 21.8125C29.4341 21.8505 29.3452 21.8892 29.2563 21.9276C29.2967 22.007 29.3372 22.0863 29.3929 22.195C29.1925 22.0536 29.1059 22.1694 28.9799 22.295C28.7051 22.5692 28.3647 22.8114 27.9887 22.8637C27.4521 22.9385 26.9005 22.8817 26.3834 22.6715C26.3246 22.6478 26.2643 22.6279 26.2036 22.6094C26.1876 22.6045 26.1674 22.6121 26.1109 22.6181C26.1509 22.6989 26.1803 22.7696 26.2196 22.8343C26.3028 22.9712 26.2735 23.1021 26.1612 23.1901C25.8834 23.4082 25.6105 23.6421 25.3021 23.8102C24.6899 24.1446 24.0574 24.0806 23.4311 23.814C22.7227 23.5124 22.2395 23.0017 21.9403 22.3063C21.9036 22.2217 21.8094 22.136 21.7216 22.1032C21.5269 22.0306 21.3193 21.9927 21.1174 21.9385C20.9762 21.9005 20.9174 21.9678 20.9414 22.0931C20.9868 22.3304 21.0338 22.5692 21.1055 22.7994C21.246 23.251 21.4025 23.6982 21.5555 24.1461C21.604 24.2879 21.6555 24.4293 21.7204 24.5639C21.7376 24.5996 21.812 24.6327 21.8559 24.6282C22.588 24.5477 23.304 24.6899 24.0113 24.8245C24.4979 24.917 24.9693 25.1088 25.4341 25.289C25.9345 25.483 26.4277 25.6993 26.9093 25.9351C27.5754 26.2615 28.2608 26.5308 29.0112 26.5233C29.5131 26.518 30.012 26.4849 30.5082 26.3048C30.9074 26.16 31.2673 25.978 31.6288 25.7677C31.8383 25.6459 32.1036 25.5812 32.3494 25.5631C33.0078 25.515 33.6524 25.6293 34.2887 25.7959C34.465 25.8422 34.6524 25.8482 34.8291 25.8933C34.8948 25.9103 34.9444 25.9874 35.0013 26.0366C34.9421 26.0761 34.8875 26.1374 34.8226 26.1517C33.9753 26.339 33.2379 26.7497 32.5307 27.2262C32.4013 27.3134 32.3803 27.4089 32.4299 27.547C32.4643 27.6421 32.4715 27.7463 32.491 27.8467C32.4608 27.8553 32.4303 27.864 32.4001 27.873C32.3639 27.788 32.3238 27.7045 32.2921 27.618C32.2085 27.3898 32.1322 27.3544 31.907 27.4582C31.7043 27.5518 31.5055 27.6545 31.3036 27.7497C31.2788 27.7613 31.244 27.7519 31.2135 27.7523C31.1253 27.753 31.0345 27.7399 30.9494 27.7568C30.6998 27.8053 30.4211 27.8106 30.3112 28.1329C30.241 27.9057 30.0872 27.776 29.8963 27.8738C29.7601 27.9437 29.686 28.1321 29.5681 28.2893C29.5402 28.1874 29.5143 28.093 29.4769 27.9565C29.3906 28.0663 29.328 28.1457 29.2658 28.225C29.2475 28.2156 29.2288 28.2062 29.2105 28.1968C29.2265 28.1438 29.2521 28.0911 29.2559 28.037C29.2612 27.9606 29.2799 27.8542 29.2391 27.8132C29.1891 27.7632 29.0769 27.7395 29.0024 27.7549C28.9086 27.7745 28.8234 27.8418 28.7391 27.8956C28.6841 27.9306 28.6376 27.9779 28.5872 28.0197C28.5719 28.0099 28.557 28.0001 28.5418 27.9903C28.5601 27.9373 28.5899 27.8847 28.5933 27.8305C28.5979 27.7606 28.5818 27.6895 28.5746 27.6188C28.5223 27.6598 28.4677 27.6985 28.4185 27.7429C28.3975 27.7617 28.3879 27.7925 28.3429 27.8275C28.4254 27.6007 28.3578 27.4699 28.1395 27.3909C27.9288 27.3145 27.9628 27.5394 27.8868 27.5816C27.7963 27.4642 27.7162 27.36 27.636 27.2559C27.5334 27.3348 27.4307 27.4134 27.3078 27.5078C27.3154 27.3311 27.6082 27.1923 27.3296 27.0174C27.0719 26.8553 26.9559 27.0404 26.82 27.2085C26.8028 27.2002 26.7857 27.1923 26.7685 27.184C26.7589 27.0919 26.7601 26.9967 26.7364 26.908C26.7109 26.8113 26.6891 26.6786 26.6189 26.635C26.2925 26.433 25.9513 26.2536 25.6124 26.0716C25.4765 25.9986 25.3582 26.0039 25.2945 26.1761C25.2784 26.2198 25.2277 26.251 25.1929 26.2878L25.1456 26.2593C25.1681 26.1991 25.1883 26.1378 25.2135 26.0787C25.259 25.9727 25.2345 25.893 25.1238 25.8505C24.8712 25.7534 24.6193 25.6538 24.3635 25.5665C24.1517 25.4943 23.9422 25.4627 23.8376 25.7316C23.8376 25.6572 23.8674 25.5568 23.83 25.5146C23.7845 25.4635 23.6838 25.4522 23.604 25.4402C23.1761 25.3759 22.7475 25.3153 22.3185 25.2581C22.2548 25.2495 22.1872 25.2679 22.1212 25.2739C22.1124 25.2924 22.104 25.3108 22.0952 25.3292C22.2491 25.4624 22.3945 25.606 22.5582 25.7264C22.8933 25.9731 23.109 26.3127 23.3071 26.6602C23.4823 26.9678 23.7376 27.1859 24.0273 27.3691C24.6628 27.7707 25.2433 28.2431 25.7483 28.788C26.2605 29.3408 26.7193 29.9437 27.1807 30.5405C27.6494 31.1464 28.1582 31.7116 28.7807 32.1648C29.3669 32.5913 30.0307 32.8086 30.7635 32.8583C31.6242 32.917 32.4238 32.73 33.2081 32.401C33.5452 32.2596 33.9078 32.1693 34.2658 32.0851C34.7387 31.9738 35.2203 32.2032 35.381 32.5871C35.507 32.8884 35.4066 33.1983 35.11 33.4092C34.8013 33.6292 34.4398 33.6556 34.0765 33.6849C33.9299 33.6969 33.7757 33.7312 33.6467 33.7966C33.5772 33.832 33.5482 33.9531 33.5146 34.0403C33.5097 34.0531 33.6055 34.126 33.6177 34.1178C33.6891 34.0704 33.7494 34.0068 33.8127 33.9482C33.8303 33.932 33.8455 33.9128 33.862 33.8948C33.9849 34.0095 33.9448 34.2107 33.7944 34.2671C33.5765 34.3491 33.3249 34.2438 33.2566 34.0418C33.1788 33.8113 33.2921 33.5871 33.5349 33.5322C33.7574 33.4818 33.9887 33.469 34.2097 33.4149C34.4226 33.3626 34.6303 33.2851 34.8348 33.205C34.9814 33.1475 35.0497 33.029 35.0119 32.8711C34.9726 32.7071 34.8608 32.5853 34.6929 32.5992C34.3986 32.624 34.0986 32.6593 33.8173 32.7425C33.4963 32.8376 33.194 32.9922 32.8818 33.1174C32.0894 33.4356 31.2696 33.63 30.4097 33.5593C30.1364 33.5367 29.8677 33.4344 29.6017 33.3543C28.8994 33.1434 28.3231 32.7372 27.7822 32.2551C27.2334 31.7654 26.8227 31.1746 26.391 30.5943C25.7429 29.7233 25.0284 28.9114 24.1509 28.2521C24.0071 28.1442 23.859 28.0419 23.6914 27.9219C23.6769 27.9873 23.6552 28.0287 23.6613 28.0652C23.7345 28.4973 23.7903 28.9339 23.8926 29.3596C24.1597 30.4725 24.7807 31.3596 25.738 32.0038C26.5032 32.5187 27.288 33.005 28.0608 33.5085C28.5857 33.8504 29.1078 34.1964 29.6257 34.5488C30.1318 34.8932 30.6253 35.2558 31.1337 35.5973C31.6589 35.9496 32.2127 36.2629 32.7207 36.6371C33.099 36.9158 33.5207 36.9974 33.96 37.0704C34.0058 37.0779 34.0421 37.1399 34.0829 37.1768C34.0356 37.1971 33.9898 37.2249 33.9402 37.2355C33.9055 37.2426 33.8627 37.2151 33.8284 37.223C33.7849 37.2332 33.7181 37.2576 33.712 37.2862C33.7043 37.3227 33.7371 37.3836 33.7715 37.4084C33.8318 37.4521 33.9135 37.4671 33.9742 37.5104C34.1894 37.6623 34.4032 37.8169 34.6089 37.9805C34.6478 38.0113 34.6799 38.1057 34.6604 38.1433C34.5184 38.4197 34.678 38.6221 34.8131 38.8353C34.8627 38.9135 34.9089 38.9985 34.9329 39.0869C34.9444 39.1286 34.9001 39.1854 34.881 39.2354C34.8368 39.2099 34.7787 39.1944 34.7509 39.1572C34.6913 39.0767 34.6394 38.9887 34.599 38.8973C34.4226 38.4976 34.1329 38.1835 33.8154 37.8936C33.6704 37.7612 33.4975 37.6634 33.2788 37.7089C33.2459 37.7157 33.1807 37.6909 33.1707 37.6653C33.1093 37.5085 32.991 37.5352 32.8574 37.5318C32.7032 37.5277 32.5471 37.4773 32.4001 37.4242C32.3685 37.413 32.3414 37.2859 32.3665 37.2434C32.4562 37.0933 32.4242 36.9775 32.2963 36.8812C32.102 36.7349 31.902 36.5965 31.7047 36.4547C31.6853 36.466 31.6658 36.4769 31.6459 36.4882C31.6459 36.5566 31.6368 36.6266 31.6475 36.6932C31.7051 37.0504 31.5978 37.3754 31.452 37.6924C31.4291 37.7428 31.3944 37.7936 31.3513 37.8278C31.3173 37.8545 31.2624 37.8556 31.2169 37.8684C31.2162 37.8233 31.1978 37.7695 31.2169 37.7349C31.452 37.3069 31.4089 36.8594 31.3188 36.4092C31.2772 36.1997 31.1471 36.0497 30.9643 35.9414C30.2456 35.5149 29.5234 35.0944 28.8097 34.6601C27.9605 34.1433 27.1124 33.6244 26.2765 33.0877C25.7983 32.7808 25.3296 32.4551 24.8845 32.1031C24.3456 31.6767 23.9261 31.1464 23.5952 30.542C23.2105 29.8391 23.0903 29.0813 23.0342 28.3029C23.0197 28.1035 22.9922 27.9042 22.9574 27.7072C22.9468 27.6474 22.9017 27.5601 22.854 27.5458C22.462 27.4296 22.067 27.3228 21.6693 27.2269C21.6059 27.2115 21.5235 27.2593 21.454 27.2875C21.2441 27.3724 21.1956 27.3457 21.1891 27.0712C21.1418 27.1498 21.1059 27.1825 21.104 27.2171C21.0907 27.4841 21.0826 27.7512 21.0765 28.0182C21.075 28.093 21.0861 28.1679 21.0907 28.2427C21.1525 29.2664 21.2155 30.2901 21.2754 31.3141C21.2937 31.6263 21.2994 31.9395 21.3212 32.2517C21.3643 32.8692 21.4147 33.4863 21.4624 34.1035C21.5036 34.6338 21.5445 35.1636 21.5872 35.6935C21.6601 36.5973 21.7407 37.5006 21.8052 38.4051C21.8365 38.8417 21.8349 39.2806 21.8571 39.7179C21.862 39.8123 21.9048 39.9049 21.9304 39.9981H20.3273L20.3262 40ZM34.8616 6.56485C34.8379 6.56033 34.8142 6.55545 34.7906 6.55093C34.8047 6.45804 34.8142 6.3644 34.8341 6.27301C34.8703 6.10566 34.765 6.00712 34.6474 5.93492C34.5272 5.86121 34.4959 5.99396 34.4322 6.05601C34.3765 6.11017 34.302 6.14552 34.236 6.18915C34.22 6.16921 34.2036 6.14928 34.1875 6.12935C34.2291 6.07106 34.2871 6.01841 34.3081 5.95372C34.3299 5.8864 34.3161 5.80743 34.3181 5.73372C34.2459 5.75064 34.1681 5.75628 34.1032 5.78787C34.0421 5.81796 33.9952 5.8755 33.9417 5.921C33.9253 5.91273 33.9089 5.90446 33.8925 5.89618C33.8986 5.83413 33.8933 5.76869 33.9127 5.71115C33.9516 5.59494 33.9784 5.48776 33.8341 5.42571C33.6975 5.36666 33.5749 5.36478 33.4936 5.5171C33.4719 5.55809 33.4368 5.59231 33.4135 5.6224C33.3375 5.46783 33.3009 5.2828 33.1868 5.19066C33.0658 5.0925 32.87 5.03985 32.7101 5.04625C32.5601 5.05226 32.4143 5.16133 32.2799 5.21887C32.2936 5.03935 32.1931 4.95574 31.9784 4.96802C31.9276 4.97103 31.8757 4.9763 31.8261 4.9684C31.6898 4.94696 31.6104 4.9936 31.5738 5.13049C31.557 5.19367 31.5024 5.24707 31.4391 5.3456C31.4062 5.24181 31.3875 5.19141 31.3746 5.13914C31.3486 5.03572 31.2921 4.99134 31.1803 5.0218C30.8188 5.12109 30.4566 5.21661 30.0948 5.31477C30.0708 5.32116 30.0498 5.33771 30.0276 5.34937C29.783 5.47723 29.5295 5.59156 29.2956 5.73672C29.0128 5.91235 28.7425 6.10904 28.4776 6.31024C28.4307 6.34597 28.425 6.44826 28.4204 6.52122C28.4166 6.5829 28.4425 6.64608 28.4551 6.70851C28.3841 6.69873 28.3078 6.70249 28.2437 6.67617C28.091 6.61374 28.0074 6.67015 27.9368 6.8029C27.9021 6.86834 27.836 6.91986 27.7776 6.97026C27.6925 7.04359 27.5921 7.10113 27.5154 7.18161C27.3204 7.38658 27.138 7.60282 26.9448 7.81004C26.7967 7.96912 26.8086 8.03644 27.0154 8.11729C27.2338 8.20266 27.454 8.2839 27.6712 8.3719C27.967 8.49187 28.2624 8.61296 28.5544 8.74158C28.6868 8.79987 28.7463 8.7397 28.8181 8.64117C28.9002 8.52835 29.0063 8.43245 29.1017 8.3294C29.1227 8.34633 29.1437 8.36325 29.165 8.38055C29.1231 8.45276 29.0876 8.52985 29.0376 8.59604C28.8536 8.83974 28.8517 8.83861 29.1112 8.98979C29.1387 9.00559 29.1669 9.02026 29.1944 9.0353C29.3047 9.0966 29.3948 9.08833 29.4742 8.97776C29.5127 8.92398 29.5769 8.88825 29.6292 8.84463C29.644 8.85666 29.6593 8.8687 29.6742 8.88073C29.6448 8.94429 29.6078 9.00559 29.5883 9.07178C29.575 9.11804 29.57 9.20792 29.5883 9.21544C29.8418 9.32112 30.0501 9.58888 30.3513 9.44673C30.386 9.52232 30.4055 9.63627 30.4524 9.64868C30.5188 9.66636 30.6146 9.62273 30.6814 9.58061C30.8364 9.48321 30.978 9.36474 31.1326 9.26621C31.244 9.19513 31.3677 9.14286 31.486 9.08231C31.5001 9.10111 31.5139 9.12029 31.528 9.1391C31.4749 9.194 31.4253 9.25305 31.3673 9.30269C31.2528 9.4016 31.1265 9.4881 31.0185 9.5934C30.904 9.70509 30.9146 9.84875 31.0253 9.93826C31.1784 10.062 31.3562 10.0515 31.5001 9.91494C31.5276 9.88899 31.5692 9.87771 31.6444 9.83898C31.6272 9.92547 31.6295 9.97587 31.6078 10.0139C31.5246 10.1594 31.6001 10.2376 31.7227 10.2959C31.8498 10.3565 31.9001 10.279 31.9551 10.1793C31.9841 10.1267 32.062 10.1003 32.1177 10.062C32.1253 10.1271 32.1375 10.1917 32.1398 10.2568C32.1421 10.3192 32.1341 10.3817 32.1307 10.4445C32.1952 10.4189 32.283 10.411 32.3196 10.364C32.4707 10.1707 32.612 9.96948 32.7459 9.76414C33.1417 9.15865 33.6589 8.75399 34.4299 8.78671C34.8161 8.80326 35.2009 8.85065 35.5871 8.87622C35.8024 8.89051 36.02 8.90555 36.2337 8.88712C36.3112 8.88035 36.4219 8.78934 36.4417 8.71676C36.4623 8.64004 36.415 8.51669 36.3535 8.45915C36.3207 8.42869 36.1948 8.49262 36.1119 8.51706C36.0791 8.52684 36.0486 8.54489 36.0096 8.56257C35.9474 8.40575 36.007 8.2948 36.0986 8.19213C36.2658 8.00485 36.257 7.90143 36.0463 7.72392C36.0097 7.76378 35.9654 7.80026 35.9371 7.84577C35.9047 7.89879 35.886 7.96009 35.8612 8.01763C35.7192 7.76905 35.7532 7.69308 35.9971 7.52046C35.9551 7.44412 35.9211 7.30497 35.865 7.29594C35.7387 7.27488 35.6013 7.31851 35.4303 7.34069C35.4715 7.22373 35.5238 7.11317 35.5459 6.99696C35.5574 6.93716 35.5161 6.86759 35.4986 6.80253C35.4436 6.82585 35.3742 6.83637 35.3375 6.87624C35.2879 6.93002 35.2692 7.00975 35.2261 7.07105C35.2043 7.10189 35.1581 7.11618 35.123 7.13761C35.1058 7.09549 35.0669 7.04773 35.0761 7.01238C35.0982 6.92889 35.1348 6.84615 35.1803 6.77207C35.31 6.56146 35.2577 6.40953 34.994 6.28956C34.9494 6.38057 34.9047 6.47233 34.8597 6.5641L34.8616 6.56485ZM20.0075 27.1242C19.8269 27.1069 19.6922 27.0637 19.5724 27.0885C19.2288 27.1588 19.0506 26.9798 19.1834 26.5959C19.2246 26.477 19.1956 26.4056 19.0937 26.3446C18.9796 26.2766 18.864 26.2092 18.7571 26.1314C18.2006 25.726 18.2277 25.122 18.5693 24.7211C18.7376 24.5237 18.9201 24.3507 18.7369 24.0596C19.0029 23.9791 19.1006 23.7828 19.1475 23.5523C19.1914 23.3379 19.2903 23.1141 18.9914 22.9314C19.1063 22.9062 19.1632 22.9031 19.2105 22.8806C19.2498 22.8618 19.2781 22.8208 19.3113 22.7892C19.2743 22.761 19.2365 22.7087 19.2006 22.7098C19.1155 22.7132 19.0231 22.7264 18.9487 22.764C18.8311 22.8234 18.7487 22.793 18.6907 22.6948C18.6288 22.5899 18.5834 22.4755 18.5227 22.3484C18.664 22.3259 18.7937 22.3086 18.922 22.2834C19.0533 22.2574 19.1033 22.1578 19.03 22.0611C18.7487 21.6903 18.7483 21.224 18.5773 20.8163C18.5231 20.6869 18.4911 20.6734 18.3827 20.7588C17.8579 21.1739 17.3373 21.5952 16.7991 21.993C16.1697 22.4583 15.7201 23.0321 15.4812 23.7817C15.2873 24.3902 15.0487 24.9866 14.7953 25.574C14.5762 26.0821 14.4705 26.5744 14.756 27.087C14.7835 27.1363 14.8041 27.1893 14.8247 27.242C14.9441 27.5473 15.0438 27.8535 14.9888 28.1912C14.9594 28.3728 14.9678 28.5477 15.0453 28.735C15.3083 29.369 15.9915 29.7177 16.659 29.5262C16.9178 29.452 17.0585 29.2963 17.0811 29.0592C17.2006 29.0592 17.3556 29.1043 17.4285 29.0471C17.5079 28.9851 17.5113 28.8282 17.5552 28.6895C17.7239 28.8219 17.864 28.7812 18.0182 28.6601C18.2208 28.5014 17.9376 28.3397 18.0197 28.2096C18.1689 28.2623 18.3151 28.366 18.4319 28.3405C18.5453 28.3157 18.6288 28.1577 18.7476 28.0355C18.8819 28.0983 19.0124 27.9588 19.1563 27.8775C19.3846 27.7485 19.3823 27.7354 19.1808 27.5597C19.1662 27.5469 19.1624 27.5221 19.1651 27.5278C19.3285 27.5233 19.512 27.5654 19.6426 27.5014C19.7846 27.4322 19.8773 27.2649 20.0067 27.1239L20.0075 27.1242ZM34.1982 12.5309C34.1169 12.2733 33.67 12.0044 33.4349 12.109C33.3158 11.8551 33.1032 11.7468 32.828 11.7874C32.7868 11.7934 32.723 11.7604 32.6952 11.7258C32.5994 11.6065 32.5368 11.6347 32.4665 11.7498C32.4398 11.7938 32.383 11.8209 32.3379 11.8532C32.2837 11.892 32.1952 11.9164 32.1772 11.9664C32.0318 12.3704 31.5062 12.3955 31.3482 12.7825C31.3456 12.7889 31.323 12.7848 31.3124 12.7904C31.1986 12.8499 31.0772 12.8999 30.9753 12.9755C30.9337 13.0063 30.9093 13.0969 30.9196 13.153C30.9604 13.376 30.9585 13.3839 30.7295 13.3613C30.5253 13.3414 30.4448 13.4158 30.4341 13.6234C30.4318 13.6678 30.4185 13.731 30.3872 13.7513C30.2742 13.8246 30.1517 13.8837 30.0322 13.9476C29.8895 14.024 29.7898 14.1232 29.8021 14.3023C29.8047 14.3406 29.7402 14.4207 29.7269 14.417C29.5479 14.3628 29.4555 14.5065 29.3253 14.5681C29.1231 14.664 29.1368 14.8807 29.0288 15.027C29.0108 15.0518 29.0601 15.1466 29.1013 15.186C29.1589 15.2413 29.2337 15.2842 29.3085 15.3154C29.6288 15.4493 29.9421 15.6118 30.2753 15.699C30.825 15.8431 31.3395 16.0916 31.9192 16.1548C32.6303 16.2319 33.2986 16.1947 33.9593 15.8848C34.3829 15.6858 34.7211 15.3951 35.0726 15.1101C35.2341 14.9792 35.4161 14.8641 35.5474 14.708C35.7402 14.479 35.8864 14.1876 35.7131 13.8574C35.4264 13.3105 35.0047 12.901 34.5062 12.5565C34.4425 12.5125 34.3276 12.54 34.1982 12.5321V12.5309ZM20.0907 14.3624C20.175 14.3041 20.2548 14.2346 20.3472 14.1883C20.6701 14.0262 20.8464 13.6829 20.8132 13.3339C20.7292 12.4467 20.7598 11.5719 21.141 10.7386C21.2422 10.5174 21.3491 10.2843 21.3769 10.0477C21.4437 9.48358 21.4662 8.91458 21.5017 8.34708C21.5044 8.3042 21.4689 8.25908 21.451 8.2147C21.4086 8.23313 21.3506 8.2399 21.3258 8.27149C21.1712 8.46893 21.017 8.66712 20.8765 8.87434C20.6792 9.16505 20.5117 9.47681 20.2998 9.75624C19.8498 10.3497 19.2201 10.5054 18.5227 10.3395C18.1002 10.2391 17.6976 10.0545 17.3487 9.77692C17.1804 9.64266 17.1113 9.65583 16.9976 9.83747C16.7426 10.2455 16.4934 10.6569 16.2521 11.0729C16.185 11.1887 16.0926 11.3395 16.1189 11.449C16.1773 11.6881 16.2686 11.9356 16.4105 12.1353C16.7873 12.6644 17.2762 13.0868 17.8643 13.376C18.4208 13.6494 18.9937 13.8897 19.5605 14.1424C19.7281 14.2169 19.8991 14.2835 20.0911 14.3628L20.0907 14.3624ZM18.6147 5.78449C18.5006 5.5532 18.4323 5.51597 18.167 5.56335C17.9796 5.59682 17.7972 5.65512 17.6102 5.6916C17.1384 5.78411 16.7945 6.04661 16.5415 6.44225C16.4583 6.57237 16.485 6.66037 16.6067 6.7416C17.1808 7.12595 17.4716 7.66074 17.4617 8.3452C17.4594 8.51368 17.5094 8.64606 17.6586 8.7209C17.9628 8.87283 18.2724 9.01386 18.5808 9.15828C18.8651 9.29141 19.159 9.21055 19.3766 9.06388C19.7788 8.79198 20.1941 8.50465 20.3846 8.02628C20.5338 7.65171 20.7712 7.35574 21.1212 7.14852C21.2334 7.08233 21.2544 7.01125 21.154 6.91159C20.525 6.28542 19.8101 5.81307 18.909 5.65474C18.7685 5.62992 18.667 5.62089 18.6147 5.78486V5.78449ZM22.6128 9.63251C22.5857 9.67237 22.52 9.72728 22.5113 9.78971C22.4796 10.0146 22.4704 10.235 22.375 10.4554C22.233 10.7826 22.1292 11.1293 22.0418 11.4753C21.9361 11.8927 21.8433 12.3158 21.7846 12.7415C21.746 13.0195 21.8834 13.0841 22.141 12.9574C22.546 12.7581 22.9418 12.5328 23.3632 12.3745C23.8552 12.1895 24.1971 11.8931 24.3658 11.3989C24.412 11.2636 24.4895 11.1379 24.5555 11.0097C24.5811 10.9601 24.6166 10.9157 24.6456 10.8675C24.7681 10.6637 24.8956 10.4621 25.0105 10.2542C25.0857 10.118 25.0586 9.9958 24.9368 9.88373C24.7322 9.69569 24.5368 9.49787 24.3418 9.30006C24.0773 9.03154 23.8277 8.7476 23.5502 8.49262C23.3712 8.3279 23.291 8.01876 22.9403 8.07931C22.9506 8.02177 22.9704 7.98266 22.9609 7.95295C22.9288 7.85404 22.9124 7.72429 22.8407 7.67164C22.7704 7.6205 22.6303 7.62313 22.5403 7.6551C22.5006 7.66901 22.4845 7.81794 22.4991 7.89842C22.5834 8.37679 22.6067 8.85516 22.5532 9.33879C22.5437 9.42642 22.5884 9.52006 22.6128 9.63213V9.63251ZM23.2323 18.4496C23.2239 18.4745 23.2155 18.4997 23.2074 18.5245C23.0941 18.5343 22.9803 18.5414 22.8678 18.5553C22.8342 18.5595 22.7834 18.576 22.7746 18.5993C22.762 18.6335 22.7651 18.7005 22.7876 18.7152C22.8643 18.7652 22.9494 18.808 23.0372 18.8355C23.1849 18.8818 23.2994 18.9468 23.3403 19.1112C23.3861 19.2962 23.4384 19.4812 23.509 19.658C23.609 19.9092 24.1017 19.9776 24.296 19.7825C24.4731 19.6042 24.6609 19.4357 24.8544 19.2526C24.8616 19.3263 24.8666 19.3989 24.8758 19.4707C24.9296 19.9051 24.9975 19.9438 25.4425 19.8441C25.7322 19.7795 26.0261 19.7313 26.3196 19.6877C26.6105 19.6448 26.612 19.6505 26.6731 19.359C26.6765 19.3432 26.6933 19.33 26.7242 19.2875C26.8341 19.5444 27.0212 19.5053 27.2166 19.4316C27.228 19.4274 27.2418 19.4293 27.2544 19.4278C27.554 19.3902 27.854 19.3552 28.1528 19.3116C28.1994 19.3048 28.2399 19.256 28.283 19.2266C28.2414 19.186 28.2066 19.1296 28.1563 19.1082C28.0769 19.0743 27.9769 19.0818 27.9032 19.0408C27.6273 18.8874 27.3631 18.7182 27.1761 18.4527C27.1219 18.3756 27.0299 18.3176 26.9448 18.2691C26.5773 18.0604 26.4925 17.8227 26.6334 17.4102C26.6506 17.3601 26.6166 17.2778 26.5803 17.2289C26.5059 17.1285 26.4185 17.0356 26.3265 16.9502C26.2929 16.919 26.2303 16.9175 26.1811 16.9021C26.1841 16.9468 26.178 16.995 26.1925 17.036C26.2223 17.1183 26.2631 17.1966 26.3147 17.3105C25.9757 17.1304 25.959 17.1319 25.9105 17.2657C25.7738 17.3331 25.6769 17.3744 25.5861 17.4263C25.4666 17.4948 25.3601 17.6091 25.2338 17.6351C25.041 17.6745 24.9311 17.7343 24.9658 17.9543C24.9212 17.8915 24.8761 17.8287 24.8212 17.7516C24.7128 17.8912 24.4506 17.8002 24.4452 17.9833C24.2689 18.0585 24.0555 18.083 24.0002 18.1879C23.9063 18.3654 23.8307 18.3541 23.6822 18.2932C23.5277 18.2296 23.4506 18.2992 23.459 18.4647C23.4609 18.5019 23.4479 18.5598 23.4231 18.573C23.3937 18.5884 23.3353 18.5764 23.3044 18.5553C23.2712 18.5324 23.2555 18.4854 23.2319 18.4485L23.2323 18.4496ZM27.4429 22.031C27.5864 22.2706 27.5906 22.2695 27.788 22.1431C27.8452 22.1066 27.9154 22.0908 27.9773 22.0604C28.0784 22.0103 28.191 21.9716 28.2742 21.9002C28.4803 21.7238 28.6624 21.5241 28.7444 21.2567C28.8448 20.9302 28.9078 20.6001 28.8135 20.2623C28.77 20.1066 28.6902 20.0886 28.5639 20.1845C28.5322 20.2086 28.4941 20.2398 28.4582 20.2405C28.1715 20.2477 27.9009 20.2796 27.7868 20.567C27.691 20.5278 27.6005 20.4575 27.5307 20.4737C27.4769 20.4861 27.449 20.6072 27.4131 20.6738C27.3185 20.4993 27.283 20.5045 26.9792 20.5685C26.7773 20.611 26.6838 20.746 26.5941 20.9084C26.5738 20.8705 26.5643 20.8437 26.5727 20.8249C26.6486 20.661 26.5643 20.6162 26.4196 20.6346C26.3158 20.6478 26.2067 20.7189 26.1135 20.6997C25.8651 20.6486 25.7586 20.8073 25.6357 20.9585C25.6055 20.9953 25.5666 21.0254 25.5227 21.0671C25.4632 20.9295 25.6132 20.7527 25.3956 20.7121C25.1063 20.658 25.1765 20.9088 25.1086 21.1074C25.0914 21.0235 25.08 20.9964 25.0815 20.9705C25.0964 20.7185 25.0639 20.6764 24.8128 20.7148C24.7181 20.7294 24.6204 20.8001 24.5494 20.8705C24.438 20.9806 24.3525 21.1157 24.2467 21.2322C24.2208 21.2608 24.1597 21.2586 24.1147 21.2706C24.1109 21.2194 24.0918 21.163 24.1082 21.119C24.1238 21.0769 24.1723 21.0427 24.2132 21.0145C24.3426 20.9246 24.3616 20.8238 24.2792 20.7208C24.1914 20.7208 24.1269 20.7219 24.0624 20.7208C23.9651 20.7189 23.8475 20.6798 23.7746 20.7204C23.6601 20.784 23.5502 20.7926 23.4273 20.8043C22.9036 20.8532 22.3815 20.9129 21.859 20.9735C21.8029 20.9799 21.7506 21.0167 21.6964 21.0393C21.7315 21.0874 21.7563 21.1615 21.8029 21.1792C22.038 21.268 22.2762 21.3526 22.5189 21.418C22.741 21.4774 22.9853 21.4639 23.1433 21.6843C23.1857 21.743 23.2964 21.7821 23.3758 21.7821C23.6796 21.7821 23.9845 21.7764 24.2868 21.7482C24.8803 21.6929 25.4467 21.7915 26.007 21.9772C26.1948 22.0397 26.4002 22.0506 26.5979 22.0841C26.6402 22.0912 26.6853 22.0886 26.7261 22.101C26.8796 22.1469 27.0292 22.2082 27.1849 22.2424C27.3101 22.2698 27.4368 22.2574 27.4444 22.0314L27.4429 22.031ZM34.2787 11.3734C34.2658 11.4399 34.2432 11.502 34.2444 11.5633C34.2459 11.6396 34.2402 11.7581 34.2841 11.7852C34.5368 11.9405 34.7673 12.1601 35.1028 12.1267C35.3257 12.1045 35.4661 12.1895 35.5623 12.394C35.5814 12.4347 35.62 12.4745 35.6597 12.4967C35.8268 12.5885 35.9993 12.6708 36.1658 12.7637C36.1967 12.781 36.2196 12.8318 36.2226 12.8687C36.2242 12.8875 36.1757 12.9183 36.1448 12.9296C35.9306 13.0078 35.8959 13.1116 36.0295 13.291C36.0707 13.3463 36.1138 13.4008 36.1593 13.4527C36.2623 13.5708 36.3173 13.5648 36.37 13.4219C36.4524 13.1992 36.5333 12.9755 36.6039 12.7491C36.6574 12.5779 36.7138 12.4038 36.7329 12.2271C36.8196 11.4185 36.8264 10.6077 36.7753 9.79648C36.7623 9.59077 36.7066 9.55316 36.5085 9.65395C36.0616 9.88147 35.5841 9.95293 35.089 9.95218C34.8795 9.95218 34.6696 9.95067 34.46 9.95218C34.17 9.95368 33.9135 10.0364 33.7673 10.3012C33.6597 10.496 33.5818 10.7062 33.4818 10.9285C33.4746 10.927 33.407 10.8912 33.3677 10.9104C33.2707 10.9586 33.1799 11.0247 33.1036 11.1007C33.0852 11.1188 33.1173 11.2263 33.1547 11.2515C33.2852 11.3388 33.4268 11.4114 33.5673 11.4836C33.8093 11.608 34.044 11.678 34.2123 11.3734C34.215 11.3685 34.2356 11.3726 34.2784 11.3726L34.2787 11.3734ZM27.5605 16.1695H27.299C27.299 16.227 27.2761 16.2996 27.3032 16.3391C27.4479 16.5501 27.5929 16.7633 27.7609 16.9562C28.0563 17.2943 28.3002 17.6493 28.3295 18.1138C28.3334 18.1747 28.3803 18.2492 28.4303 18.2883C28.6341 18.4466 28.8349 18.6155 29.0616 18.7351C29.1639 18.7889 29.3421 18.7753 29.4543 18.7242C29.7387 18.5952 29.9971 18.4117 30.2807 18.2804C30.6169 18.1247 30.9688 18.0025 31.312 17.8611C31.3646 17.8393 31.4059 17.7908 31.4524 17.7547C31.4143 17.7084 31.3833 17.652 31.336 17.6178C31.1467 17.4812 30.9437 17.362 30.7612 17.2172C30.4311 16.9547 30.1482 16.6554 30.0425 16.2289C29.9959 16.0416 29.8566 15.9871 29.6746 16.0529C29.6139 15.9999 29.5666 15.9284 29.5024 15.9074C29.107 15.7784 28.7521 15.5403 28.3253 15.4922C28.1311 15.4704 28.0757 15.5147 28.1047 15.7095C28.1154 15.7821 28.1066 15.8577 28.1066 15.9499C27.7192 15.7633 27.562 15.8476 27.5601 16.1695H27.5605ZM27.8826 9.46591C27.8643 9.46177 27.846 9.45726 27.8273 9.45312C27.8273 9.39032 27.8399 9.3245 27.8242 9.26583C27.8036 9.18836 27.7815 9.07667 27.7246 9.04846C27.3689 8.87246 27.0047 8.713 26.6391 8.5573C26.6013 8.54113 26.5093 8.5731 26.4872 8.6092C26.2643 8.97212 26.0532 9.34218 25.8334 9.70697C25.6925 9.94089 25.6887 9.94014 25.9139 10.1116C26.1044 10.2568 26.2933 10.4038 26.4857 10.5471C26.6727 10.6863 26.8505 10.8439 27.0559 10.9492C27.1971 11.0217 27.3811 11.0556 27.5402 11.0417C27.8513 11.0142 28.1597 10.948 28.4658 10.883C28.5582 10.8634 28.6441 10.801 28.725 10.7468C28.7723 10.7152 28.8047 10.6618 28.8654 10.5949C28.9139 10.7547 28.9479 10.88 29.1318 10.857C29.2986 10.836 29.4876 10.8837 29.5437 10.6506C29.5505 10.6212 29.6093 10.5753 29.6166 10.5798C29.6547 10.6039 29.6944 10.6363 29.715 10.675C29.8024 10.8401 29.9021 10.8612 30.007 10.7122C30.0948 10.5874 30.1696 10.5735 30.2814 10.6746C30.3627 10.748 30.454 10.8183 30.5601 10.7051C30.6811 10.5761 30.7124 10.3598 30.6246 10.2658C30.4391 10.0665 30.3181 10.0673 30.141 10.2673C30.1299 10.2797 30.1089 10.2831 30.0708 10.3012C30.0418 10.2305 29.9925 10.1643 29.9918 10.0977C29.9902 9.94917 29.9139 9.86756 29.7887 9.81115C29.7082 9.77467 29.628 9.73706 29.5486 9.69832C29.4154 9.63364 29.357 9.67877 29.3231 9.81792C29.2883 9.96158 29.2223 10.0977 29.1704 10.2372C29.1414 10.229 29.1124 10.2211 29.0834 10.2128C29.1013 10.1244 29.107 10.0315 29.1398 9.94917C29.1944 9.81152 29.157 9.71487 29.0528 9.61559C28.8238 9.39746 28.5452 9.26734 28.2551 9.15489C28.1208 9.10299 28.0212 9.12819 27.975 9.2805C27.9551 9.34556 27.9139 9.40461 27.8826 9.46628V9.46591ZM16.2521 13.523C15.9632 13.9179 16.2312 14.8574 16.8437 15.1153C17.2632 15.2917 17.6976 15.385 18.135 15.4816C18.188 15.4933 18.2495 15.4692 18.3071 15.4617C18.2769 15.4117 18.2582 15.3485 18.2151 15.3147C18.0227 15.1631 17.8884 14.9803 17.8876 14.7306C17.8873 14.5384 17.7811 14.4482 17.6197 14.3647C17.3243 14.212 17.0399 14.0379 16.756 13.8649C16.5857 13.7611 16.4254 13.6419 16.2521 13.5234V13.523ZM14.8972 8.83899C14.9403 9.26508 14.9686 9.56895 15.0033 9.8717C15.0132 9.95819 15.0384 10.0436 15.0636 10.1271C15.1022 10.2549 15.1735 10.27 15.2632 10.1688C15.3006 10.1267 15.3304 10.0778 15.3586 10.0289C15.5602 9.6829 15.7663 9.33879 15.9579 8.98716C16.0094 8.89239 16.0609 8.76302 16.0361 8.669C15.9529 8.34971 15.8464 8.03493 15.727 7.72655C15.6636 7.56296 15.4647 7.52873 15.3293 7.64381C15.2544 7.70737 15.1709 7.78785 15.1453 7.87623C15.0415 8.232 14.9586 8.59341 14.8972 8.83861V8.83899ZM24.4204 8.22673C24.4006 8.21244 24.3803 8.19815 24.3605 8.18386C24.4135 8.03945 24.5196 7.88977 24.3532 7.75814C24.2078 7.64268 24.1185 7.75964 24.0303 7.86382C23.9655 7.77582 23.9223 7.68744 23.8517 7.63291C23.8132 7.6032 23.7288 7.63027 23.6655 7.63178C23.6739 7.68593 23.6651 7.75288 23.6945 7.79124C23.7628 7.87999 23.8487 7.95558 23.9296 8.03456C24.1716 8.27149 24.4151 8.50691 24.6571 8.74422C24.8773 8.96008 25.0941 9.17896 25.3166 9.39257C25.4193 9.49148 25.5261 9.47268 25.57 9.34218C25.607 9.23236 25.5994 9.10788 25.6132 8.97362C25.9009 8.96836 26.0002 8.73594 26.0605 8.48547C26.075 8.42455 26.0196 8.29781 25.9677 8.27976C25.7055 8.18687 25.4345 8.11692 25.1647 8.04546C25.0624 8.01839 24.991 8.05449 24.9803 8.1722C24.9777 8.20304 24.9532 8.23162 24.9154 8.30909C24.8773 8.18123 24.8601 8.09774 24.8269 8.02102C24.8071 7.97476 24.7628 7.93903 24.7296 7.89842C24.6895 7.93226 24.6452 7.96197 24.6105 8.00033C24.5441 8.07329 24.483 8.15114 24.42 8.22711L24.4204 8.22673ZM33.3234 16.6422C33.3146 16.6178 33.3059 16.5933 33.2971 16.5689C32.4372 16.7155 31.6074 16.5505 30.7715 16.3481C30.8074 16.4391 30.8482 16.5091 30.9082 16.5546C31.1879 16.7678 31.4719 16.975 31.7559 17.183C31.9959 17.359 32.1204 17.3616 32.3807 17.2105C32.6268 17.0679 32.8768 16.9318 33.1226 16.7885C33.194 16.7471 33.257 16.6911 33.3238 16.6418L33.3234 16.6422ZM25.5357 11.5467C25.7666 11.4997 25.9819 11.4738 26.1849 11.4099C26.3708 11.3512 26.3864 11.2402 26.2452 11.1041C26.0143 10.8815 25.775 10.6671 25.5422 10.4467C25.4487 10.358 25.3807 10.3711 25.3162 10.4776C25.2513 10.5847 25.183 10.6897 25.112 10.7927C24.8952 11.1075 24.9494 11.1109 25.175 11.2726C25.225 11.3083 25.2548 11.3715 25.3044 11.408C25.3777 11.4617 25.4609 11.5024 25.5357 11.5464V11.5467ZM20.3899 19.919C20.4441 19.8926 20.4849 19.8866 20.4968 19.8652C20.5804 19.7125 20.6632 19.5591 20.733 19.4C20.7475 19.3665 20.7216 19.2962 20.6907 19.2665C20.5697 19.1495 20.4491 19.0262 20.3075 18.9382C20.2414 18.8972 20.1166 18.9051 20.0376 18.937C19.9243 18.9829 19.8197 19.0615 19.7285 19.1446C19.659 19.2082 19.5525 19.3346 19.5739 19.3722C19.6224 19.4579 19.7372 19.5087 19.8285 19.5688C19.896 19.6132 19.9704 19.6478 20.0391 19.6911C20.1594 19.7667 20.2777 19.8456 20.3899 19.9186V19.919ZM19.6227 23.0265C19.5933 23.0273 19.5643 23.028 19.5349 23.0291C19.4563 23.28 19.3628 23.5278 19.3044 23.7835C19.2689 23.9392 19.3609 23.996 19.5216 23.9573C19.6128 23.9351 19.7101 23.9306 19.7964 23.8971C19.8491 23.8768 19.9319 23.8012 19.9231 23.7775C19.8319 23.5241 19.725 23.2762 19.6224 23.0269L19.6227 23.0265ZM10.7003 29.7451C10.6949 29.756 10.6896 29.7669 10.6842 29.7782C10.6026 29.7895 10.5175 29.7906 10.4407 29.8162C10.3984 29.8305 10.3392 29.888 10.3411 29.923C10.3476 30.0418 10.3781 30.1592 10.3999 30.2769C10.5125 30.2472 10.6255 30.2182 10.7373 30.187C10.7613 30.1802 10.7865 30.169 10.8045 30.1528C10.89 30.0742 10.9732 29.993 11.0575 29.9125C10.9384 29.8568 10.8194 29.8012 10.7003 29.7455V29.7451ZM13.3281 31.2216C13.64 31.184 13.7319 31.0964 13.6705 30.9125C13.6254 30.7778 13.5663 30.6473 13.5033 30.5198C13.4846 30.4819 13.4323 30.4597 13.3953 30.4303C13.3655 30.4725 13.3109 30.5142 13.3106 30.5563C13.3087 30.7767 13.3209 30.9975 13.3281 31.2212V31.2216ZM12.2594 31.5195L12.3339 31.5352C12.5308 31.3122 12.6186 31.0524 12.561 30.7541C12.551 30.7026 12.4777 30.6628 12.4339 30.6176C12.3945 30.6609 12.3258 30.7007 12.3205 30.7477C12.2915 31.0039 12.2781 31.2618 12.2594 31.5191V31.5195ZM23.9506 22.3729C24.1021 22.594 24.7357 22.5933 24.9952 22.377C24.6406 22.2954 24.3086 22.3089 23.9506 22.3729ZM24.917 11.2425C24.8906 11.2463 24.8639 11.25 24.8376 11.2538C24.8105 11.347 24.7364 11.4617 24.7677 11.5291C24.8143 11.631 24.9345 11.6998 25.0235 11.7829C25.0803 11.7209 25.1971 11.6268 25.1838 11.602C25.1132 11.4727 25.0093 11.3606 24.9174 11.2425H24.917ZM10.2518 19.9088C10.2465 20.1292 10.3365 20.2593 10.4617 20.2379C10.511 20.2296 10.5751 20.1473 10.5831 20.0916C10.6007 19.969 10.4358 19.764 10.3514 19.793C10.298 19.8114 10.2663 19.8911 10.2522 19.9088H10.2518ZM22.1823 26.5018C22.1746 26.304 22.001 26.2311 21.8907 26.1186C21.8639 26.0915 21.8013 26.0983 21.7552 26.0897C21.746 26.1412 21.7181 26.198 21.7315 26.2427C21.7914 26.4477 21.8796 26.4966 22.1823 26.5015V26.5018ZM7.84877 28.7978C8.2167 28.7218 8.36365 28.4525 8.61098 28.2634C8.41937 28.2213 8.10754 28.4488 7.84877 28.7978ZM20.0769 8.79311C20.0285 8.79311 19.9601 8.77205 19.9281 8.79687C19.8304 8.87321 19.7418 8.96272 19.6617 9.05711C19.6445 9.07704 19.6666 9.16768 19.6903 9.1767C19.7769 9.21055 20.0838 8.94128 20.0769 8.79311ZM35.315 16.1435C35.5154 16.1447 35.7272 15.7708 35.6028 15.5358C35.5077 15.7366 35.4127 15.9374 35.315 16.1435ZM34.644 16.8445C34.6295 16.8269 34.615 16.8092 34.6005 16.7915C34.407 16.7708 34.2478 16.8524 34.2074 16.9991C34.199 17.0303 34.2051 17.074 34.2226 17.1003C34.2333 17.1161 34.2894 17.1236 34.3066 17.1108C34.4219 17.0258 34.5318 16.934 34.6436 16.8445H34.644ZM7.49724 23.3296C7.49877 23.3669 7.49992 23.4045 7.50144 23.4417C7.6648 23.4417 7.82816 23.4447 7.99151 23.4379C8.01403 23.4372 8.05716 23.3789 8.05106 23.3623C8.03732 23.3277 7.99571 23.2777 7.96823 23.2792C7.81098 23.2886 7.65411 23.3112 7.49724 23.3292V23.3296ZM34.1406 17.2063C34.1364 17.1853 34.1322 17.1638 34.128 17.1428C34.0883 17.1274 34.031 17.0871 34.0116 17.1003C33.9299 17.1563 33.8593 17.2281 33.7845 17.2943C33.8181 17.3135 33.8623 17.3568 33.8833 17.3477C33.9726 17.309 34.0551 17.2548 34.1402 17.2063H34.1406ZM34.8016 16.6749C34.8726 16.5847 34.9272 16.5301 34.9585 16.4647C34.9665 16.4482 34.8768 16.3632 34.8703 16.3673C34.807 16.4079 34.744 16.4553 34.6997 16.5143C34.689 16.5286 34.7486 16.5941 34.8016 16.6749ZM34.1394 37.8582C34.2402 37.9793 34.3337 38.0922 34.4272 38.205C34.4406 38.1911 34.4539 38.1772 34.4669 38.1629C34.4165 38.003 34.2921 37.9188 34.1394 37.8582ZM9.06899 28.9824C9.09227 29.0061 9.11594 29.0298 9.13922 29.0535C9.20372 28.9941 9.26784 28.9343 9.33235 28.8749C9.30258 28.858 9.25754 28.82 9.24609 28.8282C9.18235 28.8734 9.127 28.9298 9.06899 28.9824ZM37.6417 11.7212C37.5806 11.6667 37.539 11.6299 37.4978 11.593C37.4753 11.6238 37.4291 11.6622 37.436 11.684C37.4501 11.7288 37.489 11.7698 37.5272 11.801C37.5348 11.807 37.5856 11.7611 37.6417 11.7212ZM34.0215 5.01428C34.0742 4.93493 34.115 4.89506 34.1257 4.84843C34.1314 4.82286 34.0864 4.78563 34.0642 4.75403C34.0295 4.79202 33.9841 4.82587 33.965 4.87024C33.9547 4.89431 33.9894 4.93718 34.0215 5.01428ZM31.0799 10.8055C31.1036 10.8062 31.1276 10.8074 31.1513 10.8081V10.5791C31.1276 10.5795 31.1036 10.5798 31.0799 10.5806V10.8055Z" fill="white"/>
</g>
<defs>
<filter id="filter0_i_4206_21875" x="0" y="0" width="45" height="45" filterUnits="userSpaceOnUse" color-interpolation-filters="sRGB">
<feFlood flood-opacity="0" result="BackgroundImageFix"/>
<feBlend mode="normal" in="SourceGraphic" in2="BackgroundImageFix" result="shape"/>
<feColorMatrix in="SourceAlpha" type="matrix" values="0 0 0 0 0 0 0 0 0 0 0 0 0 0 0 0 0 0 127 0" result="hardAlpha"/>
<feOffset/>
<feGaussianBlur stdDeviation="2.2"/>
<feComposite in2="hardAlpha" operator="arithmetic" k2="-1" k3="1"/>
<feColorMatrix type="matrix" values="0 0 0 0 0 0 0 0 0 0 0 0 0 0 0 0 0 0 0.27 0"/>
<feBlend mode="normal" in2="shape" result="effect1_innerShadow_4206_21875"/>
</filter>
<filter id="filter1_i_4206_21875" x="6" y="4" width="33" height="36" filterUnits="userSpaceOnUse" color-interpolation-filters="sRGB">
<feFlood flood-opacity="0" result="BackgroundImageFix"/>
<feBlend mode="normal" in="SourceGraphic" in2="BackgroundImageFix" result="shape"/>
<feColorMatrix in="SourceAlpha" type="matrix" values="0 0 0 0 0 0 0 0 0 0 0 0 0 0 0 0 0 0 127 0" result="hardAlpha"/>
<feOffset/>
<feGaussianBlur stdDeviation="1.6"/>
<feComposite in2="hardAlpha" operator="arithmetic" k2="-1" k3="1"/>
<feColorMatrix type="matrix" values="0 0 0 0 0 0 0 0 0 0 0 0 0 0 0 0 0 0 0.3 0"/>
<feBlend mode="normal" in2="shape" result="effect1_innerShadow_4206_21875"/>
</filter>
<radialGradient id="paint0_radial_4206_21875" cx="0" cy="0" r="1" gradientUnits="userSpaceOnUse" gradientTransform="translate(22.5 22.5) rotate(90) scale(22.5)">
<stop stop-color="white"/>
<stop offset="1" stop-color="#FAFAFA"/>
</radialGradient>
</defs>
</svg>
