<svg width="353" height="194" viewBox="0 0 353 194" fill="none" xmlns="http://www.w3.org/2000/svg">
<g filter="url(#filter0_i_8262_4450)">
<path d="M330.007 212.866H202.917C193.302 212.866 185.172 205.324 184.91 195.702C184.636 185.721 192.642 177.544 202.551 177.544H302.288C330.026 177.544 353.013 155.239 353 127.472C352.987 108.509 342.438 92.0123 326.889 83.535C320.386 79.9897 315.425 74.0765 313.569 66.9075C306.478 39.5459 279.164 18.2807 254.367 7.75604C243.844 3.40619 232.851 0.436521 221.217 0.0113479C214.989 -0.276462 209.76 4.9499 210.047 11.1901C210.296 17.1164 215.296 21.7214 221.217 21.4728C225.413 21.2962 229.831 21.6363 234.269 22.3755C238.714 23.1146 243.184 24.2593 247.589 25.718C258.537 29.4333 270.602 35.6147 280.674 43.8304C290.432 51.7844 289.203 65.318 281.354 72.5459C278.073 75.5679 273.105 76.0454 269.341 73.6579C269.321 73.6448 269.308 73.6383 269.289 73.6252C261.798 68.9941 257.426 59.7973 259.361 51.2938C260.459 46.1852 257.217 41.155 252.112 40.0561C245.406 38.5844 239.498 44.6284 240.831 51.2938C241.537 58.319 244.367 64.8078 248.622 70.0341C251.04 73.0103 249.001 77.4583 245.165 77.4583H108.317C104.48 77.4583 102.441 73.0103 104.859 70.0341C109.107 64.8078 111.937 58.319 112.65 51.2938C113.983 44.6284 108.075 38.5778 101.369 40.0561C96.2644 41.155 93.0226 46.1917 94.1206 51.2938C96.0552 59.7973 91.6827 68.9941 84.1926 73.6252C84.173 73.6383 84.16 73.6448 84.1403 73.6579C80.3691 76.0454 75.4084 75.5745 72.1274 72.5459C64.2778 65.3114 63.0491 51.7844 72.8071 43.8304C82.8789 35.6147 94.9507 29.4333 105.892 25.718C110.297 24.2593 114.767 23.1146 119.212 22.3755C123.65 21.6363 128.068 21.2962 132.264 21.4728C138.185 21.7214 143.185 17.1164 143.434 11.1901C143.728 4.9499 138.493 -0.276462 132.264 0.0113479C120.63 0.443062 109.637 3.40619 99.114 7.75604C74.3888 18.248 47.1669 39.4216 39.9709 66.6654C38.0624 73.8934 33.0429 79.8327 26.4613 83.3584C10.5399 91.8815 -0.231229 108.758 0.0105981 128.132C0.350463 155.631 23.1999 177.544 50.6832 177.544H149.244C158.858 177.544 166.989 185.086 167.251 194.708C167.512 204.33 159.519 212.866 149.61 212.866H22.9973C10.3503 212.866 -0.237765 223.221 0.0040622 235.871C0.245889 248.522 10.2392 258 22.5463 258H330.445C342.752 258 352.752 248.136 352.987 235.871C353.229 223.221 342.641 212.866 329.994 212.866H330.007Z" fill="white"/>
</g>
<defs>
<filter id="filter0_i_8262_4450" x="-2" y="0" width="355" height="261" filterUnits="userSpaceOnUse" color-interpolation-filters="sRGB">
<feFlood flood-opacity="0" result="BackgroundImageFix"/>
<feBlend mode="normal" in="SourceGraphic" in2="BackgroundImageFix" result="shape"/>
<feColorMatrix in="SourceAlpha" type="matrix" values="0 0 0 0 0 0 0 0 0 0 0 0 0 0 0 0 0 0 127 0" result="hardAlpha"/>
<feOffset dx="-2" dy="3"/>
<feGaussianBlur stdDeviation="4.9"/>
<feComposite in2="hardAlpha" operator="arithmetic" k2="-1" k3="1"/>
<feColorMatrix type="matrix" values="0 0 0 0 0 0 0 0 0 0 0 0 0 0 0 0 0 0 0.25 0"/>
<feBlend mode="normal" in2="shape" result="effect1_innerShadow_8262_4450"/>
</filter>
</defs>
</svg>
