<svg width="307" height="399" viewBox="0 0 307 399" fill="none" xmlns="http://www.w3.org/2000/svg">
<path d="M258.32 107.81C257.87 107.81 257.41 107.76 256.97 107.65C248.99 105.77 244.64 97.7702 244.56 91.1502C244.64 84.5402 248.99 76.5302 256.94 74.6602C257.42 74.5502 257.87 74.4902 258.32 74.4902C263.5 74.4902 269.27 81.3302 269.27 91.1502C269.27 100.96 263.49 107.8 258.32 107.8V107.81Z" fill="white"/>
<path d="M190.16 263.54C188.13 263.97 186.47 263.46 186.08 261.63C185.78 260.2 186.61 259.31 187.92 258.97L188.06 259.66C186.99 259.97 186.52 260.6 186.71 261.48V261.54C186.99 262.79 188.17 263.25 190.01 262.86C191.68 262.51 192.78 261.69 192.49 260.33V260.27C192.29 259.4 191.57 258.81 190.44 259.04L189.89 259.16L190.22 260.71L189.58 260.84L189.25 259.29C189.16 258.87 189.33 258.61 189.75 258.52L192.54 257.93L192.67 258.57L191.9 258.73C192.44 258.92 192.94 259.37 193.13 260.24C193.47 261.87 192.28 263.1 190.15 263.54H190.16Z" fill="black"/>
<path d="M187.32 256.41L187.25 255.81L188.21 255.7C187.69 255.64 187.14 255.3 187.02 254.23L186.9 253.19L187.5 253.12L187.62 254.18C187.74 255.26 188.6 255.61 189.7 255.48L192.21 255.19L192.28 255.84L187.31 256.4L187.32 256.41Z" fill="black"/>
<path d="M192.5 251.14V250.49C193.11 250.35 193.42 249.76 193.4 248.91V248.81C193.38 247.96 192.87 247.21 191.62 247.24L190.81 247.26C191.37 247.55 191.73 248.1 191.75 248.9C191.78 250.15 190.9 251.08 189.3 251.12C187.7 251.16 186.68 250.27 186.65 249.02C186.63 248.22 186.97 247.65 187.51 247.34L186.71 247.36V246.71L191.65 246.6C192.95 246.57 193.91 247.41 193.94 248.86C193.97 250.31 193.36 251.03 192.49 251.15L192.5 251.14ZM191.2 248.79C191.18 247.89 190.47 247.27 189.22 247.3C187.97 247.33 187.19 247.99 187.21 248.89V248.99C187.23 249.89 188.05 250.5 189.3 250.47C190.55 250.44 191.23 249.8 191.21 248.9V248.8L191.2 248.79Z" fill="black"/>
<path d="M186.03 241.78L185.97 242.68L184.97 242.62L185.03 241.72L186.03 241.78ZM191.48 240.46L192.03 240.5L191.76 244.77L191.21 244.73L191.33 242.89L187.44 242.64L187.33 244.33L186.78 244.29L186.93 241.95L191.37 242.24L191.49 240.45L191.48 240.46Z" fill="black"/>
<path d="M189.71 238.82C188.26 238.6 187.26 237.62 187.48 236.16C187.64 235.09 188.4 234.43 189.45 234.48L189.35 235.12C188.67 235.12 188.13 235.52 188.03 236.19V236.29C187.85 237.37 188.73 238.01 189.81 238.18C190.89 238.34 191.91 237.98 192.07 236.9V236.8C192.18 236.14 191.75 235.62 191.13 235.39L191.23 234.75C192.22 235.08 192.78 235.86 192.62 236.93C192.4 238.39 191.16 239.04 189.71 238.82Z" fill="black"/>
<path d="M190.77 228.55L194 229.23L193.87 229.87L190.84 229.23C189.9 229.03 189.34 229.32 189.17 230.11L189.15 230.21C188.99 230.96 189.51 231.87 190.64 232.11L193.28 232.67L193.15 233.31L186.3 231.87L186.43 231.23L189.22 231.82C188.71 231.37 188.49 230.69 188.66 229.86C188.89 228.77 189.74 228.35 190.77 228.57V228.55Z" fill="black"/>
<path d="M189.17 219.87L189.37 219.2L192.4 220.11L193.27 217.24L190.24 216.33L190.44 215.66L197.14 217.68L196.94 218.35L193.9 217.43L193.03 220.3L196.07 221.22L195.87 221.89L189.17 219.87Z" fill="black"/>
<path d="M193.01 211.49L192.71 212.34L191.77 212.01L192.07 211.16L193.01 211.49ZM198.61 211.68L199.13 211.86L197.72 215.9L197.2 215.72L197.81 213.98L194.13 212.69L193.57 214.29L193.05 214.11L193.82 211.9L198.02 213.37L198.61 211.68Z" fill="black"/>
<path d="M200.67 206.43L201.18 206.63L199.6 210.61L199.09 210.41L199.77 208.7L194.29 206.52L193.7 208L193.19 207.8L194.02 205.72L200.01 208.1L200.67 206.44V206.43Z" fill="black"/>
<path d="M203.06 200.97L203.56 201.19L201.82 205.1L201.32 204.88L202.07 203.2L196.69 200.8L196.04 202.25L195.54 202.03L196.45 199.99L202.34 202.62L203.07 200.99L203.06 200.97Z" fill="black"/>
<path d="M203.03 198.83L203.32 198.25C203.97 198.5 204.53 198.18 204.83 197.56L204.87 197.47C205.18 196.84 205.06 196.3 204.57 196.06C204.22 195.89 203.91 195.97 203.49 196.5L203.03 197.09C202.55 197.7 201.97 198.08 201.21 197.7C200.36 197.28 200.27 196.29 200.69 195.44C201.26 194.29 202.2 194.15 202.96 194.47L202.67 195.05C202.15 194.86 201.51 195.03 201.2 195.64L201.16 195.73C200.85 196.36 201.05 196.89 201.49 197.11C201.81 197.27 202.16 197.14 202.57 196.63L203.07 196.01C203.52 195.44 204.06 195.08 204.82 195.45C205.68 195.86 205.84 196.77 205.35 197.76C204.77 198.92 203.88 199.19 203.03 198.83Z" fill="black"/>
<path d="M203.94 185.47L206.16 181.84L206.71 182.18L204.86 185.21L206.92 186.47L208.49 183.9L209.04 184.24L207.47 186.81L209.71 188.18L211.61 185.07L212.16 185.41L209.89 189.12L203.92 185.47H203.94Z" fill="black"/>
<path d="M211.86 183.16L212.22 182.62C212.83 182.95 213.43 182.71 213.81 182.14L213.87 182.06C214.26 181.48 214.21 180.93 213.76 180.62C213.44 180.4 213.12 180.44 212.63 180.92L212.1 181.44C211.54 181.98 210.92 182.28 210.21 181.81C209.42 181.28 209.46 180.29 209.99 179.5C210.71 178.44 211.66 178.42 212.37 178.84L212.01 179.38C211.52 179.12 210.86 179.21 210.48 179.77L210.42 179.85C210.03 180.43 210.16 180.99 210.56 181.26C210.86 181.46 211.22 181.38 211.69 180.93L212.27 180.38C212.79 179.88 213.37 179.59 214.08 180.06C214.87 180.58 214.91 181.51 214.3 182.42C213.58 183.49 212.65 183.65 211.86 183.17V183.16Z" fill="black"/>
<path d="M216.54 177.5L213.7 175.38L212.69 176.73L212.25 176.4L213.26 175.05L211.96 174.08L212.35 173.56L213.65 174.53L214.77 173.02L215.21 173.35L214.09 174.86L216.89 176.95C217.13 177.13 217.27 177.11 217.45 176.87L218.47 175.5L218.91 175.83L217.83 177.28C217.44 177.8 217.06 177.89 216.54 177.5Z" fill="black"/>
<path d="M222.51 171.41L222.13 171.87C221.93 171.76 221.69 171.57 221.48 171.4C221.71 171.85 221.61 172.66 221.04 173.34C220.48 174.02 219.55 174.16 218.89 173.61C218.04 172.91 218.39 171.96 218.83 171.33L219.75 170.04L219.6 169.91C218.94 169.36 218.25 169.42 217.76 170.01L217.73 170.05C217.32 170.54 217.22 171.16 217.67 171.62L217.25 172.12C216.6 171.51 216.64 170.51 217.32 169.68C218.15 168.68 219.23 168.75 220.01 169.4L221.63 170.74C221.86 170.93 222.21 171.22 222.51 171.4V171.41ZM220.68 170.8L220.16 170.37L219.31 171.55C218.89 172.13 218.85 172.73 219.28 173.08C219.71 173.43 220.3 173.37 220.66 172.93L220.72 172.85C221.16 172.32 221.24 171.27 220.67 170.79L220.68 170.8Z" fill="black"/>
<path d="M224.09 168.28L221.48 165.87L220.33 167.11L219.93 166.74L221.07 165.5L219.88 164.4L220.32 163.92L221.51 165.02L222.78 163.64L223.18 164.01L221.91 165.39L224.48 167.76C224.7 167.96 224.84 167.96 225.04 167.74L226.2 166.48L226.6 166.85L225.37 168.18C224.93 168.66 224.54 168.71 224.06 168.27L224.09 168.28Z" fill="black"/>
<path d="M229.11 160.99L226.52 163.49C227.51 164.49 228.45 164.41 229.04 163.84L229.08 163.8C229.51 163.38 229.67 162.8 229.34 162.19L229.81 161.74C230.35 162.61 230.16 163.53 229.43 164.24C228.53 165.11 227.2 165.14 226.02 163.91C224.81 162.65 225 161.3 225.82 160.5C226.7 159.65 227.94 159.79 228.83 160.71L229.11 161V160.99ZM226.16 163.08L228.27 161.05C227.63 160.43 226.81 160.31 226.24 160.86L226.17 160.93C225.72 161.37 225.44 162.13 226.17 163.09L226.16 163.08Z" fill="black"/>
<path d="M55.7299 296.43C53.6199 296.43 51.4399 296.14 49.2699 295.58C28.4399 290.25 13.4799 273.03 15.1299 256.36C17.2799 237.62 32.5899 218.85 49.3099 214.49C50.5799 214.16 51.8499 213.99 53.1199 213.99C59.1599 213.99 65.6999 217.71 71.0699 224.2C77.7699 232.31 81.9399 243.72 82.7999 256.34C82.8699 257.4 82.9199 258.49 82.9299 259.56C83.0899 271.73 79.4399 282.22 72.6599 289.09C67.9199 293.89 62.0699 296.43 55.7399 296.43H55.7299Z" fill="white"/>
<path d="M12.0601 136.09L10.8301 132.2L11.4201 132.01L12.4401 135.26L14.6301 134.57L13.7601 131.82L14.3501 131.63L15.2201 134.38L17.6001 133.63L16.5501 130.29L17.1401 130.1L18.3901 134.08L12.0601 136.08V136.09Z" fill="black"/>
<path d="M15.33 124.92L15.84 124.8L16.79 128.8L16.28 128.92L15.87 127.2L10.42 128.5L10.77 129.99L10.26 130.11L9.76001 128.02L15.71 126.6L15.31 124.93L15.33 124.92Z" fill="black"/>
<path d="M11.3401 118.38C9.38006 118.61 7.85006 117.97 7.65006 116.19C7.49006 114.8 8.36006 114.02 9.62006 113.82L9.70006 114.49C8.66006 114.69 8.16006 115.25 8.26006 116.1V116.16C8.41006 117.38 9.49006 117.92 11.2601 117.72C12.8701 117.54 13.9801 116.85 13.8301 115.52V115.46C13.7301 114.61 13.0901 113.98 12.0001 114.1L11.4701 114.16L11.6401 115.68L11.0301 115.75L10.8601 114.23C10.8101 113.82 11.0001 113.59 11.4001 113.54L14.0901 113.23L14.1601 113.85L13.4201 113.93C13.9101 114.16 14.3501 114.64 14.4501 115.48C14.6301 117.07 13.4001 118.13 11.3401 118.37V118.38Z" fill="black"/>
<path d="M13.23 107.96L13.75 107.93L14 112.03L13.48 112.06L13.37 110.3L7.78998 110.65L7.87998 112.17L7.35998 112.2L7.22998 110.05L13.33 109.67L13.22 107.95L13.23 107.96Z" fill="black"/>
<path d="M11.3199 106.57C9.84988 106.59 8.83988 105.63 8.81988 104.36C8.79988 103.09 9.77988 102.1 11.2599 102.08C12.7299 102.06 13.7399 103.02 13.7599 104.29C13.7799 105.56 12.7999 106.55 11.3199 106.57ZM13.2299 104.25C13.2199 103.39 12.4799 102.7 11.2599 102.71C10.0399 102.72 9.31988 103.44 9.33988 104.3V104.4C9.34988 105.26 10.0899 105.95 11.3099 105.94C12.5299 105.93 13.2499 105.21 13.2299 104.35V104.25Z" fill="black"/>
<path d="M9.69003 99.8698C9.18003 99.5698 8.87003 98.8698 8.89003 98.2398C8.93003 96.9898 9.91003 96.1298 11.42 96.1698C12.94 96.2198 13.85 97.1398 13.82 98.3898C13.8 99.0098 13.45 99.6898 12.92 99.9698L13.68 99.9898L13.66 100.61L7.03003 100.41L7.05003 99.7898L9.70003 99.8698H9.69003ZM9.41003 98.3198C9.38003 99.3598 10.28 99.8798 11.3 99.9098C12.32 99.9398 13.26 99.4698 13.29 98.4298V98.3798C13.32 97.3498 12.42 96.8298 11.4 96.7898C10.38 96.7498 9.44003 97.2298 9.41003 98.2598V98.3098V98.3198Z" fill="black"/>
<path d="M11.48 94.9798C10.01 94.8698 9.09003 93.8198 9.19003 92.5598C9.28003 91.2898 10.35 90.3898 11.82 90.4998C13.29 90.6098 14.21 91.6598 14.11 92.9198C14.02 94.1898 12.95 95.0898 11.48 94.9798ZM13.59 92.8298C13.65 91.9698 12.98 91.2098 11.77 91.1198C10.56 91.0298 9.78003 91.6798 9.71003 92.5398V92.6398C9.64003 93.4998 10.31 94.2598 11.53 94.3498C12.75 94.4398 13.52 93.7898 13.59 92.9298V92.8298Z" fill="black"/>
<path d="M8.43994 82.65L8.54994 81.98L11.5199 82.45L11.9699 79.6L8.99994 79.13L9.10994 78.46L15.6699 79.5L15.5599 80.17L12.5799 79.7L12.1299 82.55L15.1099 83.02L14.9999 83.69L8.43994 82.65Z" fill="black"/>
<path d="M16.71 74.1399L16.6 74.6999C16.39 74.6999 16.1 74.6499 15.85 74.5999C16.24 74.8699 16.52 75.6099 16.35 76.4299C16.18 77.2599 15.46 77.7999 14.67 77.6399C13.65 77.4299 13.51 76.4799 13.6 75.7399L13.79 74.2299L13.6 74.1899C12.8 74.0299 12.25 74.3899 12.11 75.1099V75.1599C11.98 75.7599 12.17 76.3299 12.75 76.5099L12.63 77.1199C11.81 76.8999 11.39 76.0399 11.6 75.0299C11.85 73.8099 12.78 73.3799 13.73 73.5699L15.69 73.9599C15.97 74.0199 16.39 74.0999 16.72 74.1199L16.71 74.1399ZM14.9 74.4599L14.28 74.3399L14.1 75.7199C14.01 76.3999 14.24 76.9199 14.76 77.0299C15.27 77.1299 15.74 76.8099 15.85 76.2699L15.87 76.1799C16 75.5299 15.6 74.6099 14.91 74.4699L14.9 74.4599Z" fill="black"/>
<path d="M13.3699 70.8301C12.9299 70.4301 12.7699 69.6801 12.9199 69.0701C13.2099 67.8601 14.3499 67.2101 15.8199 67.5701C17.2899 67.9301 18.0099 69.0201 17.7099 70.2301C17.5599 70.8401 17.0799 71.4301 16.4999 71.5901L17.2399 71.7701L17.0899 72.3801L10.6399 70.8201L10.7899 70.2101L13.3699 70.8301ZM13.4099 69.2601C13.1699 70.2701 13.9399 70.9701 14.9399 71.2101C15.9399 71.4501 16.9499 71.1801 17.1899 70.1701V70.1201C17.4399 69.1201 16.6699 68.4201 15.6699 68.1801C14.6699 67.9401 13.6599 68.2101 13.4199 69.2101V69.2601H13.4099Z" fill="black"/>
<path d="M13.8299 62.7102L13.5899 63.5402L12.6799 63.2802L12.9199 62.4502L13.8299 62.7102ZM19.1499 62.5602L19.6499 62.7002L18.5299 66.6502L18.0299 66.5102L18.5099 64.8102L14.9499 63.8002L14.5099 65.3602L14.0099 65.2202L14.6199 63.0602L18.6799 64.2102L19.1499 62.5602Z" fill="black"/>
<path d="M19.68 59.7502L16.48 58.7102L15.98 60.2502L15.48 60.0902L15.98 58.5502L14.52 58.0702L14.71 57.4802L16.17 57.9602L16.73 56.2402L17.23 56.4002L16.67 58.1202L19.83 59.1502C20.1 59.2402 20.22 59.1802 20.31 58.9002L20.82 57.3402L21.32 57.5002L20.78 59.1502C20.59 59.7402 20.27 59.9402 19.69 59.7502H19.68Z" fill="black"/>
<path d="M23.2 52.31L23 52.85C22.79 52.81 22.51 52.72 22.27 52.63C22.61 52.96 22.77 53.73 22.48 54.52C22.19 55.31 21.39 55.73 20.64 55.45C19.66 55.09 19.68 54.12 19.88 53.41L20.3 51.95L20.12 51.88C19.35 51.6 18.76 51.87 18.5 52.56L18.48 52.6C18.27 53.18 18.37 53.77 18.91 54.04L18.69 54.62C17.92 54.27 17.64 53.36 17.99 52.4C18.42 51.23 19.41 50.95 20.32 51.29L22.19 51.98C22.46 52.08 22.86 52.23 23.19 52.3L23.2 52.31ZM21.37 52.35L20.77 52.13L20.38 53.47C20.19 54.13 20.34 54.68 20.83 54.86C21.32 55.04 21.84 54.79 22.03 54.28L22.06 54.19C22.29 53.57 22.03 52.59 21.37 52.35Z" fill="black"/>
<path d="M23.6201 48.99L20.5101 47.7L19.8901 49.2L19.4101 49L20.0301 47.5L18.6101 46.91L18.8501 46.33L20.2701 46.92L20.9601 45.25L21.4401 45.45L20.7501 47.12L23.8201 48.39C24.0801 48.5 24.2101 48.45 24.3201 48.18L24.9501 46.66L25.4301 46.86L24.7601 48.46C24.5201 49.04 24.1901 49.21 23.6201 48.98V48.99Z" fill="black"/>
<path d="M22.5901 37.1698L23.6501 35.0998C24.1701 34.0798 25.0401 33.7798 26.0201 34.2798C26.7501 34.6498 27.0001 35.2998 26.9001 35.9398C27.2801 35.4498 28.0001 35.1298 28.8201 35.5498C29.8301 36.0698 30.1201 37.0198 29.5701 38.0998L28.5101 40.1898L22.5901 37.1798V37.1698ZM26.2401 36.5498C26.5701 35.9098 26.4401 35.2498 25.7601 34.8998C25.0801 34.5598 24.5301 34.7198 24.1401 35.4798L23.4401 36.8498L25.5401 37.9198L26.2401 36.5498ZM28.9601 37.9398C29.3901 37.0898 29.2301 36.4998 28.5101 36.1298C27.7901 35.7598 27.1701 36.0898 26.8001 36.8198L26.1001 38.1898L28.2701 39.2998L28.9601 37.9398Z" fill="black"/>
<path d="M53.6301 283.62C52.1801 283.62 50.6801 283.42 49.1801 283.04C34.8301 279.37 24.5201 267.5 25.6501 256.01C27.1301 243.1 37.6801 230.16 49.2001 227.16C50.0701 226.93 50.9501 226.82 51.8301 226.82C55.9901 226.82 60.5001 229.39 64.2001 233.86C68.8201 239.45 71.6901 247.31 72.2901 256.01C72.3401 256.74 72.3701 257.49 72.3801 258.23C72.4901 266.61 69.9801 273.84 65.3001 278.58C62.0401 281.89 58.0001 283.64 53.6401 283.64L53.6301 283.62Z" fill="white"/>
<path d="M89.3 194.56L90.9 196.38C91.69 197.27 91.63 198.24 90.77 199C90.12 199.57 89.39 199.57 88.81 199.23C89.14 199.78 89.16 200.61 88.43 201.25C87.53 202.04 86.49 201.96 85.65 201.02L84.04 199.19L89.29 194.57L89.3 194.56ZM86.05 200.48C86.7 201.22 87.34 201.29 87.98 200.72C88.62 200.16 88.54 199.42 87.98 198.79L86.92 197.59L84.99 199.29L86.04 200.48H86.05ZM88.47 198.36C88.97 198.92 89.66 199.05 90.26 198.52C90.86 197.99 90.92 197.39 90.33 196.72L89.27 195.52L87.41 197.16L88.47 198.36Z" fill="black"/>
<path d="M94.2999 203.93L90.2799 206.91L89.8899 206.39L90.6499 205.83C89.9599 206.01 89.3099 205.77 88.8199 205.11C88.1599 204.22 88.3899 203.27 89.2399 202.65L91.8899 200.69L92.2799 201.21L89.7899 203.05C89.0199 203.62 88.8599 204.23 89.3399 204.88L89.3999 204.96C89.8299 205.55 90.8199 205.71 91.7499 205.02L93.9199 203.41L94.3099 203.93H94.2999Z" fill="black"/>
<path d="M95.59 210.64L93.68 207.59C92.5 208.36 92.39 209.29 92.82 209.98L92.85 210.03C93.17 210.54 93.71 210.81 94.38 210.62L94.73 211.17C93.77 211.51 92.91 211.14 92.37 210.28C91.71 209.22 91.95 207.91 93.4 207.01C94.88 206.08 96.17 206.55 96.78 207.52C97.43 208.55 97.03 209.75 95.95 210.43L95.61 210.64H95.59ZM94.15 207.32L95.71 209.8C96.45 209.3 96.74 208.52 96.32 207.85L96.27 207.77C95.94 207.24 95.24 206.81 94.16 207.32H94.15Z" fill="black"/>
<path d="M98.7901 211.09L99.0901 211.66L98.3501 212.06C98.9701 212.06 99.6201 212.44 100 213.16C100.47 214.04 100.27 215 99.2101 215.57L96.3201 217.11L96.0201 216.54L98.7301 215.1C99.6101 214.63 99.8501 214.05 99.4701 213.35L99.4401 213.3C98.9301 212.35 97.8401 212.35 96.8801 212.86L94.6701 214.04L94.3601 213.46L98.7801 211.11L98.7901 211.09Z" fill="black"/>
<path d="M98.72 222.32L98.47 221.77C98.65 221.64 98.93 221.51 99.18 221.4C98.68 221.4 97.9899 220.96 97.6399 220.15C97.2899 219.34 97.5699 218.45 98.3399 218.1C99.3399 217.65 100.04 218.38 100.41 219.06L101.17 220.45L101.35 220.37C102.13 220.02 102.39 219.38 102.07 218.68L102.05 218.63C101.79 218.05 101.28 217.68 100.67 217.88L100.4 217.29C101.24 216.98 102.12 217.45 102.55 218.43C103.08 219.62 102.54 220.55 101.61 220.97L99.69 221.83C99.42 221.95 99.0099 222.14 98.7099 222.33L98.72 222.32ZM100.08 220.94L100.69 220.67L100.01 219.39C99.67 218.76 99.15 218.46 98.65 218.68C98.15 218.91 97.9399 219.47 98.1699 219.99L98.2099 220.08C98.4899 220.71 99.4 221.25 100.08 220.94Z" fill="black"/>
<path d="M109.52 231.97L102.21 232.02L101.94 231.14L108 227.04L108.22 227.75L102.77 231.37L109.31 231.27L109.53 231.98L109.52 231.97Z" fill="black"/>
<path d="M104.78 239.52L104.25 239.65L103.22 235.5L103.75 235.37L104.19 237.16L107.98 236.22L107.57 234.58L108.1 234.45L108.66 236.72L104.34 237.79L104.77 239.53L104.78 239.52ZM109.57 236.61L109.35 235.74L110.32 235.5L110.54 236.37L109.57 236.61Z" fill="black"/>
<path d="M106.03 240.87L106.15 241.51C105.48 241.71 105.23 242.3 105.36 242.98L105.38 243.08C105.51 243.77 105.94 244.12 106.48 244.02C106.86 243.95 107.06 243.69 107.07 243.01V242.26C107.09 241.48 107.32 240.83 108.16 240.67C109.09 240.49 109.76 241.22 109.94 242.15C110.18 243.41 109.52 244.1 108.72 244.3L108.6 243.66C109.13 243.5 109.54 242.97 109.41 242.3L109.39 242.2C109.26 241.51 108.77 241.21 108.29 241.3C107.94 241.37 107.74 241.68 107.73 242.34L107.71 243.14C107.7 243.87 107.49 244.48 106.65 244.65C105.72 244.84 105.04 244.22 104.83 243.14C104.59 241.87 105.13 241.1 106.03 240.88V240.87Z" fill="black"/>
<path d="M106.7 248.17L110.22 247.68L109.99 246.01L110.53 245.93L110.76 247.6L112.36 247.38L112.45 248.02L110.85 248.24L111.11 250.1L110.57 250.18L110.31 248.32L106.84 248.8C106.54 248.84 106.46 248.95 106.5 249.25L106.74 250.94L106.2 251.02L105.95 249.23C105.86 248.59 106.07 248.25 106.71 248.17H106.7Z" fill="black"/>
<path d="M106.73 256.74L106.68 256.14C106.9 256.08 107.2 256.04 107.47 256.02C106.99 255.86 106.49 255.21 106.42 254.34C106.34 253.46 106.91 252.71 107.75 252.63C108.85 252.53 109.27 253.45 109.4 254.21L109.66 255.77L109.86 255.75C110.72 255.67 111.16 255.15 111.09 254.39V254.34C111.03 253.7 110.66 253.19 110.03 253.18L109.97 252.53C110.86 252.51 111.54 253.24 111.64 254.31C111.76 255.61 110.93 256.31 109.92 256.4L107.83 256.59C107.53 256.62 107.08 256.66 106.74 256.74H106.73ZM108.46 255.88L109.13 255.82L108.9 254.38C108.79 253.68 108.4 253.22 107.85 253.27C107.3 253.32 106.92 253.78 106.97 254.35V254.45C107.04 255.14 107.72 255.94 108.46 255.87V255.88Z" fill="black"/>
<path d="M113.99 264.56L113.97 265.26L110.8 265.17L110.72 268.17L113.89 268.26L113.87 268.96L106.87 268.77L106.89 268.07L110.07 268.16L110.15 265.16L106.97 265.07L106.99 264.37L113.99 264.56Z" fill="black"/>
<path d="M108.85 274.79L109.17 271.2C107.76 271.09 107.11 271.77 107.04 272.58V272.64C106.98 273.24 107.24 273.78 107.89 274.03L107.83 274.68C106.85 274.37 106.39 273.56 106.49 272.54C106.6 271.29 107.59 270.4 109.29 270.55C111.03 270.71 111.77 271.86 111.67 273.01C111.56 274.23 110.52 274.94 109.25 274.82L108.85 274.78V274.79ZM109.72 271.27L109.46 274.19C110.35 274.24 111.05 273.79 111.12 273V272.9C111.19 272.27 110.89 271.51 109.72 271.27Z" fill="black"/>
<path d="M106.02 280.79L105.48 280.7L106.16 276.47L106.7 276.56L106.41 278.38L110.26 279L110.53 277.33L111.07 277.42L110.7 279.73L106.31 279.02L106.03 280.79H106.02ZM111.57 279.99L111.71 279.1L112.7 279.26L112.56 280.15L111.57 279.99Z" fill="black"/>
<path d="M104.6 281.59L104.45 282.22C103.81 282.2 103.36 282.69 103.17 283.52L103.15 283.62C102.95 284.45 103.26 285.3 104.47 285.59L105.26 285.78C104.79 285.36 104.58 284.74 104.77 283.96C105.06 282.74 106.14 282.06 107.7 282.43C109.26 282.8 110.02 283.91 109.73 285.13C109.55 285.91 109.08 286.37 108.47 286.54L109.25 286.72L109.1 287.35L104.27 286.21C103 285.91 102.29 284.86 102.62 283.45C102.95 282.04 103.73 281.49 104.6 281.6V281.59ZM105.27 284.19C105.06 285.07 105.6 285.85 106.81 286.14C108.02 286.43 108.95 285.99 109.16 285.11L109.18 285.01C109.39 284.13 108.75 283.34 107.54 283.05C106.33 282.76 105.5 283.21 105.29 284.09L105.27 284.19Z" fill="black"/>
<path d="M105.65 292.76L102.51 291.75L102.71 291.13L105.66 292.08C106.57 292.37 107.16 292.14 107.41 291.38L107.44 291.28C107.68 290.55 107.26 289.59 106.15 289.24L103.58 288.41L103.78 287.79L110.45 289.94L110.25 290.56L107.54 289.69C108 290.19 108.15 290.9 107.89 291.7C107.55 292.76 106.65 293.09 105.65 292.77V292.76Z" fill="black"/>
<path d="M102.19 295.01L105.46 296.39L106.12 294.83L106.63 295.04L105.97 296.6L107.46 297.23L107.21 297.83L105.72 297.2L104.99 298.93L104.48 298.72L105.21 296.99L101.98 295.63C101.7 295.51 101.57 295.57 101.46 295.84L100.8 297.42L100.29 297.21L100.99 295.54C101.24 294.94 101.59 294.76 102.19 295.01Z" fill="black"/>
<path d="M100.85 299.49L100.54 300.06C99.8999 299.8 99.3299 300.09 99.0099 300.7L98.9599 300.79C98.6299 301.41 98.7399 301.95 99.2199 302.21C99.5599 302.39 99.8699 302.32 100.31 301.8L100.79 301.23C101.29 300.64 101.88 300.27 102.63 300.67C103.47 301.12 103.53 302.1 103.08 302.94C102.48 304.07 101.53 304.19 100.78 303.84L101.09 303.27C101.6 303.48 102.25 303.32 102.57 302.72L102.62 302.63C102.95 302.01 102.76 301.47 102.33 301.24C102.01 301.07 101.66 301.19 101.24 301.69L100.72 302.3C100.25 302.86 99.7099 303.2 98.9499 302.81C98.1099 302.37 97.9699 301.46 98.4899 300.49C99.0999 299.35 99.9999 299.1 100.84 299.49H100.85Z" fill="black"/>
<path d="M248.14 53.75L250.97 60.18L250.21 60.6L247.22 57.3L248.31 61.64L247.52 62.07L243.73 56.17L244.3 55.86L247.61 61.09L246.53 56.92L247.28 56.51L250.1 59.67L247.55 54.08L248.14 53.76V53.75Z" fill="black"/>
<path d="M256.37 58.2499L255.8 58.4299C255.69 58.2299 255.59 57.9399 255.51 57.6799C255.46 58.1799 254.94 58.8099 254.1 59.0799C253.26 59.3499 252.4 58.9699 252.14 58.1599C251.8 57.1099 252.6 56.4999 253.31 56.1999L254.77 55.5999L254.71 55.4099C254.45 54.5899 253.84 54.2699 253.11 54.5099L253.06 54.5299C252.45 54.7299 252.04 55.1999 252.16 55.8199L251.54 56.0199C251.32 55.1599 251.89 54.3299 252.9 53.9999C254.14 53.5999 255.01 54.2399 255.32 55.2099L255.97 57.2099C256.06 57.4999 256.2 57.9199 256.36 58.2399L256.37 58.2499ZM255.15 56.7499L254.94 56.1099L253.59 56.6499C252.93 56.9199 252.57 57.3999 252.74 57.9199C252.91 58.4399 253.45 58.7099 253.99 58.5299L254.08 58.4999C254.74 58.2899 255.37 57.4399 255.14 56.7399L255.15 56.7499Z" fill="black"/>
<path d="M262 57.2698V57.8198L257.72 57.8298V57.2798H259.56L259.54 51.3798H257.95V50.8398H260.19L260.21 57.2798H262V57.2698Z" fill="black"/>
<path d="M265.83 56.3802L264.73 56.8202L264.09 58.4402L263.49 58.2002L266.07 51.7002L266.67 51.9402L265.03 56.0702L268.26 54.7302L269.09 55.0602L266.42 56.1402L267.33 59.7402L266.58 59.4402L265.83 56.3902V56.3802Z" fill="black"/>
<path d="M273.12 61L270.27 58.8C269.42 59.93 269.64 60.84 270.29 61.34L270.34 61.38C270.82 61.75 271.42 61.82 271.98 61.41L272.49 61.81C271.7 62.47 270.77 62.42 269.96 61.79C268.97 61.03 268.75 59.71 269.79 58.36C270.86 56.97 272.23 56.97 273.14 57.67C274.11 58.42 274.15 59.67 273.36 60.69L273.11 61.01L273.12 61ZM270.62 58.37L272.94 60.16C273.46 59.44 273.46 58.6 272.83 58.12L272.75 58.06C272.25 57.67 271.45 57.51 270.61 58.37H270.62Z" fill="black"/>
<path d="M277 61.3801L277.39 61.8401L276.65 62.4701C277.12 62.2301 277.76 62.2101 278.46 63.0301L279.14 63.8301L278.68 64.2201L277.99 63.4001C277.29 62.5701 276.38 62.7601 275.54 63.4701L273.61 65.1001L273.19 64.6001L277 61.3701V61.3801Z" fill="black"/>
<path d="M277.61 67.8099L277.94 68.3699C277.38 68.7799 277.34 69.4199 277.69 70.0099L277.74 70.0999C278.09 70.6999 278.61 70.8999 279.09 70.6199C279.43 70.4199 279.53 70.1199 279.31 69.4699L279.07 68.7599C278.82 68.0199 278.82 67.3299 279.55 66.8999C280.37 66.4199 281.24 66.8799 281.72 67.6999C282.37 68.7999 281.97 69.6699 281.29 70.1299L280.96 69.5699C281.4 69.2399 281.61 68.6099 281.27 68.0199L281.22 67.9299C280.87 67.3299 280.31 67.1999 279.88 67.4499C279.57 67.6299 279.49 67.9899 279.69 68.6199L279.94 69.3799C280.17 70.0699 280.18 70.7099 279.45 71.1499C278.64 71.6399 277.79 71.2799 277.23 70.3299C276.58 69.2199 276.83 68.3099 277.6 67.7999L277.61 67.8099Z" fill="black"/>
<path d="M284.58 82.3602L282.16 82.9802L281.99 82.3002L284.41 81.6802C284.7 81.6002 284.81 81.4201 284.73 81.1301L284.15 78.8502L281.29 79.5802L281.12 78.9002L287.9 77.1602L288.44 79.2502C288.75 80.4402 288.21 81.5202 287.16 81.7902C286.37 81.9902 285.68 81.7402 285.27 81.1802L285.29 81.2502C285.45 81.8802 285.22 82.1902 284.59 82.3502L284.58 82.3602ZM286.88 81.1502C287.68 80.9402 288.01 80.2602 287.78 79.3302L287.44 78.0102L284.77 78.6902L285.11 80.0102C285.31 80.7802 286.03 81.3702 286.88 81.1502Z" fill="black"/>
<path d="M285.42 88.4098L284.96 84.8398C283.56 85.0398 283.07 85.8398 283.18 86.6498V86.7098C283.26 87.3098 283.64 87.7798 284.33 87.8798L284.41 88.5198C283.39 88.4298 282.77 87.7298 282.63 86.7198C282.47 85.4798 283.24 84.3898 284.93 84.1698C286.67 83.9498 287.64 84.9098 287.79 86.0498C287.95 87.2598 287.09 88.1798 285.82 88.3398L285.42 88.3898V88.4098ZM285.51 84.7898L285.89 87.6998C286.77 87.5598 287.36 86.9698 287.26 86.1798V86.0798C287.17 85.4598 286.72 84.7798 285.52 84.7898H285.51Z" fill="black"/>
<path d="M284.61 90.46V91.11C283.93 91.19 283.58 91.72 283.59 92.41V92.51C283.6 93.21 283.96 93.63 284.51 93.63C284.9 93.63 285.14 93.41 285.27 92.74L285.41 92.01C285.56 91.25 285.9 90.64 286.75 90.63C287.7 90.62 288.23 91.45 288.24 92.4C288.26 93.68 287.49 94.24 286.67 94.3V93.65C287.21 93.58 287.7 93.14 287.69 92.46V92.36C287.68 91.66 287.25 91.28 286.76 91.28C286.4 91.28 286.15 91.56 286.02 92.2L285.86 92.98C285.72 93.69 285.41 94.26 284.56 94.28C283.61 94.3 283.05 93.57 283.04 92.47C283.02 91.18 283.69 90.52 284.61 90.46Z" fill="black"/>
<path d="M285.12 100.56L285.47 96.9799C284.06 96.8599 283.41 97.5299 283.33 98.3499V98.4099C283.27 99.0099 283.52 99.5499 284.17 99.8099L284.11 100.46C283.14 100.14 282.68 99.3299 282.78 98.3099C282.9 97.0699 283.89 96.1799 285.59 96.3499C287.33 96.5199 288.06 97.6799 287.95 98.8199C287.83 100.03 286.79 100.74 285.51 100.61L285.11 100.57L285.12 100.56ZM286.02 97.0499L285.73 99.9699C286.62 100.03 287.32 99.5799 287.4 98.7999V98.6999C287.47 98.0699 287.19 97.3099 286.01 97.0599L286.02 97.0499Z" fill="black"/>
<path d="M287.13 103.8L287 104.39L286.05 104.18C286.52 104.41 286.93 104.91 286.7 105.96L286.47 106.99L285.88 106.86L286.11 105.82C286.35 104.76 285.65 104.15 284.57 103.91L282.1 103.36L282.24 102.73L287.12 103.81L287.13 103.8Z" fill="black"/>
<path d="M284.27 113.4L280.23 109.89L280.51 109.13L285.86 109.04L285.62 109.69L280.92 109.71L284.5 112.76L284.27 113.4Z" fill="black"/>
<path d="M279.18 117.8L280.88 114.63C279.63 113.98 278.76 114.35 278.38 115.07L278.35 115.12C278.07 115.65 278.1 116.25 278.6 116.74L278.29 117.31C277.51 116.64 277.41 115.72 277.89 114.82C278.48 113.72 279.73 113.28 281.24 114.08C282.78 114.9 283.01 116.25 282.47 117.27C281.89 118.35 280.66 118.59 279.53 117.99L279.18 117.8ZM281.35 114.9L279.97 117.48C280.77 117.87 281.59 117.73 281.96 117.04L282.01 116.95C282.31 116.39 282.33 115.58 281.35 114.9Z" fill="black"/>
<g filter="url(#filter0_i_4198_1454)">
<path d="M109.635 0C132.93 9.60538e-05 154.343 10.5503 168.394 28.9355C174.073 36.3352 178.339 44.1112 181.124 52.125C185.42 64.4972 195.625 73.9674 208.375 77.4346C211.88 78.3855 215.456 78.8506 219.001 78.8506C228.366 78.8505 237.559 75.6013 244.88 69.4697C247.935 66.9141 251.351 65.1812 255.016 64.3193C256.268 64.0222 257.5 63.8828 258.732 63.8828C264.04 63.883 269.337 66.5782 273.263 71.2734C277.419 76.2461 279.713 83.0014 279.713 90.292C279.713 97.5728 277.419 104.339 273.263 109.312C273.013 109.599 272.763 109.887 272.512 110.164C265.091 118.237 261.365 128.975 262.207 139.852C263.048 150.728 268.387 160.783 276.959 167.638C283.75 173.076 300.164 189.907 305.853 228.787V228.836L305.874 228.807C308.798 249.787 306.004 267.083 297.801 278.891L297.621 279.148C290.51 289.549 278.762 296.285 265.392 297.633C250.55 299.129 237.77 308.659 232.242 322.358C226.713 336.058 229.337 351.67 239.051 362.863C248.055 373.225 254.085 385.389 256.969 399H67.8911C66.7694 390.828 67.4813 383.418 70.0552 376.365C71.1268 373.413 72.5484 370.55 74.311 367.786C81.3717 356.721 82.4632 342.923 77.2153 330.917C71.9774 318.911 61.071 310.234 48.0913 307.737C47.2601 307.589 46.4186 307.391 45.5874 307.183C31.6864 303.656 19.4676 296.058 11.105 285.766C2.89272 275.672 -0.973145 263.804 0.208496 252.363V252.313C2.31169 234.047 14.0101 215.503 30.0444 205.072C39.709 198.782 46.1588 188.667 47.7212 177.325C49.2834 165.993 45.8179 154.532 38.2065 145.914C28.3817 134.79 23.2937 116.741 24.2251 96.3945C25.2967 73.1951 33.7995 50.0943 48.1812 31.3623C63.4443 11.4119 86.3399 7.11884e-05 109.635 0ZM208.285 90.4111C207.784 90.4111 207.293 90.4216 206.792 90.4414C193.583 90.9269 181.464 97.8211 174.404 108.876C168.305 118.435 159.851 126.865 149.305 133.928C149.295 133.938 149.285 133.947 149.275 133.947C134.773 143.467 120.11 150.609 105.708 155.156C93.5304 159 83.9461 168.361 79.8999 180.356C75.8538 192.352 77.8366 205.528 85.2378 215.84C92.4487 225.894 96.956 239.069 97.9175 252.928C98.0076 254.245 98.0576 255.603 98.0776 256.92C98.1878 265.053 96.9354 272.66 94.3716 279.555C89.4643 292.729 91.9784 307.5 100.982 318.366C108.653 327.628 120.071 332.868 131.958 332.868C134.012 332.868 136.086 332.71 138.159 332.393C144.869 331.353 151.779 330.827 158.7 330.827C162.615 330.827 166.581 330.996 170.477 331.343C171.669 331.452 172.861 331.501 174.042 331.501C188.064 331.501 201.174 324.22 208.445 312.165C216.327 299.089 215.936 282.705 207.444 270.016C199.241 257.742 196.377 243.378 199.171 228.47C202.296 211.739 209.807 195.463 220.323 182.605C225.08 176.781 230.268 171.937 235.726 168.202C245.261 161.674 251.47 151.392 252.752 139.99L252.762 140C254.044 128.598 250.268 117.216 242.417 108.776C241.736 108.044 241.085 107.261 240.474 106.449C232.903 96.3453 220.944 90.4111 208.285 90.4111ZM54.1147 212.99C52.8448 212.99 51.5741 213.16 50.3042 213.49C33.5843 217.85 18.2745 236.62 16.1245 255.36C14.4746 272.03 29.4344 289.25 50.2642 294.58C52.4339 295.14 54.6143 295.431 56.7241 295.431H56.7349C63.0646 295.431 68.9149 292.89 73.6548 288.09C80.4344 281.22 84.0842 270.73 83.9243 258.561C83.9143 257.491 83.8644 256.4 83.7944 255.34C82.9344 242.72 78.7647 231.31 72.0649 223.2C66.6951 216.71 60.1546 212.99 54.1147 212.99ZM257.2 176.76C256.85 176.76 256.5 176.77 256.15 176.8C240.51 179.01 219.27 202.67 213.6 233.37C211.4 245.29 213.9 256.58 220.83 266.029C228.7 276.749 241.25 283.669 256.18 285.529C257.47 285.659 258.75 285.729 260.01 285.729C270.47 285.729 279.5 281.21 284.78 273.34C284.82 273.28 284.87 273.209 284.91 273.149C291 264.369 292.94 250.519 290.55 233.189C286.07 202.08 271.11 176.76 257.2 176.76ZM110.464 19C92.7545 19.0001 76.6246 27.4202 65.0347 42.75C38.6147 77.56 41.5148 122.83 56.3647 135.26C60.8447 139.05 67.3349 140.97 75.6548 140.97H75.6646C93.1845 140.97 116.835 132.23 138.935 117.58C153.485 107.71 162.765 94.5797 165.065 80.5898C167.245 67.34 163.145 53.4197 153.185 40.2998C142.975 26.7699 128.174 19.0001 110.464 19ZM259.315 73.4902C258.865 73.4902 258.415 73.5502 257.935 73.6602C249.985 75.5302 245.635 83.5404 245.555 90.1504C245.635 96.7704 249.985 104.77 257.965 106.65C258.405 106.76 258.865 106.811 259.315 106.811V106.8C264.485 106.8 270.265 99.9601 270.265 90.1504C270.265 80.3306 264.495 73.4905 259.315 73.4902Z" fill="white"/>
</g>
<path d="M259.314 106.81C258.864 106.81 258.404 106.76 257.964 106.65C249.984 104.77 245.634 96.7702 245.554 90.1502C245.634 83.5402 249.984 75.5302 257.934 73.6602C258.414 73.5502 258.864 73.4902 259.314 73.4902C264.494 73.4902 270.264 80.3302 270.264 90.1502C270.264 99.9602 264.484 106.8 259.314 106.8V106.81Z" fill="white" stroke="black" stroke-linecap="round" stroke-linejoin="round" stroke-dasharray="0.1 4"/>
<path d="M75.6544 140.97C67.3344 140.97 60.8444 139.05 56.3644 135.26C41.5144 122.83 38.6144 77.56 65.0344 42.75C76.6244 27.42 92.7544 19 110.464 19C128.174 19 142.974 26.77 153.184 40.3C163.144 53.42 167.244 67.34 165.064 80.59C162.764 94.58 153.484 107.71 138.934 117.58C116.834 132.23 93.1844 140.97 75.6644 140.97H75.6544Z" fill="white" stroke="black" stroke-width="1.3" stroke-linecap="round" stroke-linejoin="round" stroke-dasharray="3 4"/>
<path d="M56.7243 295.43C54.6143 295.43 52.4343 295.14 50.2643 294.58C29.4343 289.25 14.4743 272.03 16.1243 255.36C18.2743 236.62 33.5843 217.85 50.3043 213.49C51.5743 213.16 52.8443 212.99 54.1143 212.99C60.1543 212.99 66.6943 216.71 72.0643 223.2C78.7643 231.31 82.9343 242.72 83.7943 255.34C83.8643 256.4 83.9143 257.49 83.9243 258.56C84.0843 270.73 80.4343 281.22 73.6543 288.09C68.9143 292.89 63.0643 295.43 56.7343 295.43H56.7243Z" fill="white" stroke="black" stroke-linecap="round" stroke-linejoin="round" stroke-dasharray="20 8"/>
<defs>
<filter id="filter0_i_4198_1454" x="0" y="0" width="307" height="399" filterUnits="userSpaceOnUse" color-interpolation-filters="sRGB">
<feFlood flood-opacity="0" result="BackgroundImageFix"/>
<feBlend mode="normal" in="SourceGraphic" in2="BackgroundImageFix" result="shape"/>
<feColorMatrix in="SourceAlpha" type="matrix" values="0 0 0 0 0 0 0 0 0 0 0 0 0 0 0 0 0 0 127 0" result="hardAlpha"/>
<feOffset/>
<feGaussianBlur stdDeviation="4.9"/>
<feComposite in2="hardAlpha" operator="arithmetic" k2="-1" k3="1"/>
<feColorMatrix type="matrix" values="0 0 0 0 0 0 0 0 0 0 0 0 0 0 0 0 0 0 0.29 0"/>
<feBlend mode="normal" in2="shape" result="effect1_innerShadow_4198_1454"/>
</filter>
</defs>
</svg>
