<svg width="48" height="48" viewBox="0 0 48 48" fill="none" xmlns="http://www.w3.org/2000/svg">
<g filter="url(#filter0_i_4206_21933)">
<circle cx="24" cy="24" r="24" fill="url(#paint0_radial_4206_21933)"/>
</g>
<g filter="url(#filter1_i_4206_21933)">
<path d="M20.6285 44C20.6544 43.8158 20.7056 43.6313 20.701 43.4475C20.6902 42.9806 20.6573 42.5137 20.6277 42.0472C20.5777 41.263 20.5195 40.4791 20.4716 39.6948C20.447 39.289 20.4441 38.8816 20.4187 38.4758C20.3708 37.7119 20.3113 36.9484 20.2617 36.1845C20.2263 35.6365 20.1909 35.0886 20.1718 34.5402C20.1368 33.5306 20.1139 32.5202 20.0843 31.5102C20.0831 31.465 20.0689 31.4202 20.0606 31.3754C19.8549 31.4067 18.9489 32.0879 18.8594 32.1967C18.7345 32.2717 18.5604 32.3198 18.498 32.4289C18.4355 32.5385 18.4842 32.7088 18.4472 32.858C18.4363 32.8303 18.4243 32.803 18.4143 32.7753C18.3705 32.651 18.3626 32.4848 18.1528 32.5451C17.9329 32.6082 17.8638 32.7227 17.9146 32.9183C17.9338 32.9932 17.9438 33.0702 17.9579 33.1464C17.9396 33.1537 17.9213 33.1611 17.903 33.1684C17.8667 33.1032 17.8338 33.0364 17.7939 32.9737C17.7597 32.9199 17.7177 32.871 17.6794 32.8201C17.6177 32.8702 17.5274 32.9093 17.5012 32.9733C17.4653 33.0613 17.4778 33.1684 17.4699 33.2694C17.4633 33.2707 17.4412 33.2764 17.4399 33.2735C17.3125 32.9928 17.1023 32.9953 16.8404 33.078C16.1038 33.311 15.5313 32.9773 15.0125 32.5243C14.8959 32.4224 14.8459 32.2468 14.7664 32.1046C14.7352 32.0484 14.7069 31.9906 14.6548 31.8895C14.3979 32.3414 14.3996 32.803 14.3151 33.2417C14.2247 33.7103 14.6336 34.0802 14.6198 34.5353C14.5982 34.5451 14.5765 34.5544 14.5549 34.5642C14.4216 34.323 14.288 34.0818 14.1198 33.7779C14.0294 33.9372 13.9649 34.048 13.9045 34.1609C13.8891 34.1898 13.8808 34.2269 13.882 34.2595C13.8966 34.7284 13.626 35.0189 13.2491 35.2507C13.1271 35.3261 13.0201 35.4263 12.911 35.5208C12.762 35.6504 12.5975 35.7213 12.3964 35.67C12.2715 35.6382 12.2028 35.6838 12.1574 35.7999C12.1208 35.8936 12.0787 35.9979 12.0063 36.0619C11.9509 36.1108 11.8447 36.1157 11.7606 36.1189C11.6956 36.1214 11.629 36.0757 11.5641 36.0774C11.2397 36.0839 11.0523 35.879 11.1019 35.5567C11.1252 35.4051 11.1593 35.2552 11.1918 35.0873C11.1027 35.0808 11.0473 35.0768 11.0319 35.0755C11.146 34.7622 11.2705 34.4579 11.3655 34.145C11.4092 34.0008 11.4325 33.8296 11.2351 33.7412C11.1269 33.6928 11.049 33.6895 10.9728 33.8064C10.932 33.8696 10.8304 33.8948 10.7563 33.9376C10.7063 33.9665 10.6435 33.9857 10.6085 34.0272C10.372 34.3104 10.1421 34.5989 9.90814 34.8836C9.84319 34.9627 9.78073 35.0503 9.69787 35.1061C9.63209 35.1501 9.51634 35.19 9.45888 35.1615C9.39892 35.1318 9.34479 35.0136 9.35437 34.9427C9.37602 34.7842 9.43431 34.6294 9.48677 34.4762C9.52883 34.3524 9.5842 34.2326 9.63334 34.1108C9.60919 34.0945 9.58462 34.0778 9.56047 34.0615C9.49385 34.1324 9.42265 34.1992 9.36228 34.2745C9.23861 34.4281 9.12453 34.5895 8.99878 34.741C8.91592 34.8409 8.80683 34.8266 8.77352 34.7121C8.73064 34.5634 8.70316 34.3976 8.72522 34.2472C8.75853 34.0203 8.69566 33.9176 8.46291 33.9462C8.3255 33.9633 8.15521 33.9922 8.13813 33.8349C8.12606 33.7249 8.22849 33.5766 8.32176 33.4878C8.59781 33.2246 8.90135 32.9896 9.17949 32.7284C9.26609 32.6469 9.37893 32.5051 9.22446 32.3996C9.0958 32.3116 8.95756 32.3328 8.81558 32.4579C8.5237 32.7154 8.20392 32.9423 7.89247 33.1778C7.85084 33.2092 7.77964 33.2454 7.74008 33.2312C7.43321 33.1203 7.25584 33.3456 7.0414 33.4752C7.02433 33.4854 7.00351 33.4899 6.9702 33.5021C6.71288 33.1729 6.8861 32.8861 7.07721 32.5931C7.02267 32.5658 6.98394 32.5349 6.94064 32.5267C6.78658 32.4966 6.72329 32.411 6.71621 32.257C6.70747 32.0668 6.64876 32.0407 6.48763 32.1462C6.27527 32.2851 6.04086 32.2806 5.80519 32.2558C5.75689 32.2509 5.69901 32.1947 5.67778 32.1478C5.66778 32.1262 5.73232 32.0688 5.76688 32.0309C5.87056 31.918 5.96966 31.7999 6.08249 31.6964C6.21157 31.5783 6.34647 31.4634 6.49137 31.3648C6.83113 31.133 7.18963 30.9256 7.51607 30.6779C7.61517 30.6025 7.71718 30.3792 7.67346 30.3063C7.57686 30.1446 7.37409 30.2285 7.24917 30.31C7.07888 30.4212 6.94897 30.5903 6.78533 30.7141C6.51885 30.9154 6.24446 31.1085 5.96258 31.289C5.77646 31.4088 5.57785 31.3705 5.38965 31.2678C5.20269 31.166 5.1877 31.0739 5.3301 30.9174C5.52788 30.6999 5.72316 30.4803 5.91802 30.2607C5.94384 30.2317 5.96049 30.1955 6.01462 30.1099C5.80519 30.1099 5.6378 30.112 5.47042 30.1091C5.39464 30.1079 5.31012 30.1148 5.24516 30.0851C5.16605 30.0488 5.1036 29.9775 5.03364 29.9217C5.10776 29.8618 5.17271 29.7779 5.25765 29.7465C5.45002 29.6756 5.67153 29.6642 5.84599 29.5672C6.12996 29.4096 6.38561 29.2026 6.67125 29.0042C6.61878 28.9675 6.5938 28.937 6.57798 28.941C6.34606 29.0022 6.1437 28.9121 5.93884 28.8282C5.77604 28.7618 5.6174 28.7406 5.43961 28.805C5.27556 28.8645 5.18146 28.7793 5.21602 28.6053C5.24808 28.4428 5.19936 28.3332 5.07778 28.2313C4.96161 28.134 4.97452 28.0488 5.12358 27.9914C5.17438 27.9718 5.24266 27.9547 5.2664 27.9156C5.46168 27.5913 5.80727 27.6027 6.11872 27.5351C6.18159 27.5216 6.24072 27.4939 6.30192 27.4727C6.30109 27.4523 6.30026 27.432 6.29942 27.4116C6.21865 27.4006 6.13662 27.3737 6.05793 27.381C5.81435 27.4035 5.62698 27.2865 5.45627 27.148C5.40755 27.1085 5.38923 26.9952 5.40505 26.9264C5.42254 26.8526 5.53996 26.7895 5.53746 26.7251C5.53121 26.574 5.51706 26.3996 5.43628 26.2802C5.3172 26.1046 5.35509 25.9787 5.49457 25.8756C5.6249 25.7795 5.78062 25.7147 5.9301 25.6459C6.08041 25.5766 6.24072 25.5281 6.38811 25.454C6.5301 25.3823 6.52926 25.2776 6.40726 25.1818C6.27736 25.08 6.13496 24.9932 6.01213 24.8844C5.95883 24.8375 5.94051 24.7524 5.90678 24.6848C5.96966 24.6567 6.03128 24.6261 6.0954 24.6008C6.15827 24.576 6.22531 24.5601 6.28735 24.5336C6.35688 24.5035 6.42017 24.4424 6.49054 24.4354C6.71913 24.413 6.88693 24.3788 6.77451 24.081C6.72871 23.9596 6.8557 23.8866 6.97811 23.8789C7.18131 23.8663 7.20046 23.7721 7.14217 23.6051C7.11718 23.5334 7.1176 23.4124 7.16257 23.3696C7.2092 23.3252 7.34286 23.3142 7.40407 23.348C7.70427 23.5143 7.99365 23.7 8.28595 23.8797C8.34049 23.9131 8.39296 23.9506 8.44625 23.9865C8.46207 23.9771 8.47831 23.9677 8.49414 23.9579C8.48414 23.898 8.48539 23.8329 8.46166 23.7787C8.35382 23.5293 8.23806 23.2832 8.12731 23.0351C8.09691 22.9671 8.05361 22.8962 8.05236 22.8261C8.05111 22.7495 8.07943 22.6143 8.11648 22.6069C8.20351 22.5894 8.31967 22.609 8.39379 22.6575C8.49164 22.7218 8.56034 22.8282 8.64195 22.9166C8.6611 22.9101 8.68025 22.9035 8.69982 22.897C8.69982 22.8298 8.70399 22.7622 8.69899 22.6949C8.684 22.4855 8.66277 22.2765 8.65236 22.0667C8.65028 22.0276 8.68817 21.9864 8.70732 21.9461C8.74854 21.973 8.81016 21.9909 8.82765 22.0284C8.89469 22.1718 8.94757 22.3213 9.02626 22.5202C9.16783 22.3222 9.26276 22.1673 9.38143 22.0325C9.45305 21.9506 9.55964 21.8976 9.65332 21.8353C9.74617 21.7734 9.84194 21.7163 9.9427 21.6532C9.96893 21.7351 10.0156 21.828 10.0268 21.9245C10.0585 22.1967 10.2762 22.2843 10.4836 22.3727C10.6206 22.4309 10.6256 22.3287 10.6206 22.2284C10.6131 22.0806 10.5968 21.9298 10.6172 21.7848C10.6276 21.7122 10.7113 21.6499 10.7617 21.5831C10.8021 21.6609 10.8529 21.7359 10.8791 21.8182C10.8941 21.8654 10.8671 21.9245 10.8633 21.9787C10.8429 22.2724 10.9578 22.4326 11.2514 22.4705C11.7856 22.5397 12.1249 22.8168 12.3273 23.3069C12.5271 23.7909 12.8731 24.1506 13.4119 24.2973C13.6251 24.3556 13.8312 24.4407 14.0444 24.4986C14.2543 24.5556 14.46 24.5263 14.6432 24.4065C15.2586 24.0036 15.876 23.6043 16.4844 23.1912C16.9557 22.8713 17.4137 22.5332 17.8776 22.2028C17.9055 22.1828 17.9338 22.1624 17.9596 22.1404C18.2852 21.8638 18.2914 21.7701 17.9879 21.4747C17.7576 21.2506 17.6506 20.9968 17.7568 20.6823C17.8197 20.4961 17.7297 20.4199 17.5549 20.3877C17.2259 20.3274 16.8699 19.9828 16.8204 19.6849C16.775 19.4124 16.887 19.2111 17.151 19.0966C17.711 18.8542 18.2377 18.974 18.7424 19.2514C18.9814 19.3826 18.9984 19.3818 19.1196 19.1329C19.2208 18.9251 19.3444 18.7275 19.4431 18.5189C19.4781 18.4456 19.4689 18.3523 19.4798 18.2679C19.4081 18.261 19.332 18.2358 19.2653 18.2504C18.6391 18.3894 18.0116 18.2916 17.3862 18.2557C17.1701 18.2431 16.9578 18.1514 16.7463 18.0887C16.5481 18.0296 16.3432 17.9795 16.1592 17.8903C16.0151 17.8202 15.8914 17.7033 15.7707 17.5945C15.5983 17.4397 15.4289 17.2804 15.2731 17.1097C15.0566 16.8729 14.9454 16.6016 14.9001 16.2724C14.8422 15.854 14.8085 15.4352 14.9355 15.0436C15.0733 14.6175 15.0404 14.2903 14.7123 13.9611C14.5836 13.8316 14.5678 13.5928 14.5062 13.4018C14.4541 13.2408 14.4296 13.0681 14.3559 12.9182C14.303 12.8106 14.1885 12.7324 14.091 12.6301C14.2055 12.5368 14.1493 12.395 14.086 12.2443C13.9074 11.8206 13.7879 11.3826 13.7983 10.9198C13.8083 10.4745 13.8171 10.0287 13.8441 9.58426C13.852 9.45388 13.9103 9.3227 13.9632 9.19925C14.0994 8.88187 14.223 8.55634 14.3942 8.2573C14.6049 7.88899 14.9488 7.6808 15.3864 7.6584C15.6279 7.64617 15.6745 7.46284 15.769 7.30761C15.9485 7.01223 16.1109 6.70097 16.3311 6.43655C16.6484 6.05521 17.1281 5.91384 17.5811 5.74883C17.9096 5.62905 18.254 5.60379 18.6041 5.61357C18.6961 5.61601 18.7898 5.55368 18.8406 5.53575C19.0363 5.59035 19.2037 5.6649 19.3765 5.68039C19.8428 5.72154 20.2367 5.9448 20.6531 6.11714C21.149 6.32207 21.6004 6.59911 22.0076 6.93482C22.2974 7.17398 22.5518 7.45632 22.8049 7.73418C22.9682 7.91344 23.1634 7.97129 23.3937 7.98311C23.5869 7.99289 23.7793 8.02426 23.9729 8.03566C24.0836 8.04218 24.196 8.02792 24.3426 8.02181C24.4384 8.23489 24.7082 8.22552 24.9264 8.30823C25.0359 8.34978 25.1537 8.37015 25.2657 8.40519C25.4556 8.46427 25.65 8.54983 25.737 8.23693C25.8878 8.66309 25.964 8.71361 26.1871 8.6362C26.3375 8.73805 26.447 8.82768 26.5702 8.89206C26.7226 8.9715 26.8883 9.0261 27.044 9.09984C27.1752 9.16217 27.2597 9.1198 27.3501 9.01917C27.5558 8.79061 27.7665 8.56531 27.9871 8.3506C28.1083 8.23245 28.2149 8.1253 28.0792 7.90488C28.5996 8.06133 28.5863 7.59239 28.7937 7.39195C28.8528 7.33491 28.8166 7.18294 28.824 7.07457C28.8415 7.06927 28.859 7.06397 28.8765 7.05868C28.9161 7.1202 28.956 7.18213 29.0093 7.26483C29.31 7.18579 29.4657 6.99675 29.4432 6.66104C29.5057 6.67856 29.5473 6.68141 29.5789 6.70015C29.7305 6.79223 29.8025 6.71971 29.8254 6.57996C29.8475 6.44592 29.8891 6.38074 30.0453 6.43492C30.0798 6.44674 30.1644 6.37544 30.196 6.32451C30.2276 6.27359 30.2222 6.20066 30.2343 6.1318C30.4761 6.22958 30.6282 6.18694 30.6907 6.00388C30.8339 6.12936 30.9659 6.11877 31.0837 5.9721C31.0975 5.95499 31.1353 5.94969 31.1616 5.9501C31.5501 5.9611 31.5642 5.72805 31.568 5.37156C31.5692 5.26156 31.5805 5.15197 31.5871 5.04196L31.6933 5.03463C31.7241 5.15808 31.7578 5.28112 31.7849 5.40538C31.8145 5.54227 31.7566 5.72928 31.9668 5.76594C32.1351 5.79528 32.2725 5.66165 32.3407 5.4396C32.3478 5.4172 32.3695 5.39927 32.3732 5.39438C32.4586 5.47057 32.5364 5.53983 32.6143 5.6095C32.6826 5.51253 32.7509 5.41557 32.8204 5.31616C32.8175 5.31493 32.84 5.32104 32.8396 5.32553C32.8287 5.46812 32.8587 5.59564 33.0307 5.60379C33.2006 5.61194 33.3184 5.52679 33.3634 5.35568C33.3946 5.23589 33.4371 5.11856 33.475 5C33.4991 5.00081 33.5233 5.00122 33.5474 5.00204C33.5636 5.05622 33.6007 5.11367 33.5924 5.1646C33.5203 5.61113 33.5945 5.6975 34.0329 5.60664C34.1765 5.5769 34.2744 5.58342 34.3876 5.67672C34.4972 5.76676 34.5804 5.73824 34.6229 5.58383C34.6679 5.42208 34.7466 5.2693 34.8107 5.11245C34.8411 5.11897 34.8719 5.12548 34.9023 5.132C34.9056 5.2033 34.9323 5.28315 34.9081 5.34386C34.8074 5.59931 35.0738 5.70931 35.1246 5.90284C35.1842 5.87717 35.2679 5.86821 35.2991 5.8238C35.4915 5.54879 35.4902 5.54716 35.7821 5.71054C35.8991 5.77613 35.9237 5.86209 35.8808 5.98473C35.857 6.05236 35.8591 6.12814 35.8495 6.20066C35.9149 6.16358 35.9803 6.1261 36.0461 6.08943C36.0636 6.07966 36.0823 6.07232 36.1327 6.04869C36.1393 6.11755 36.1352 6.17458 36.1518 6.2247C36.1781 6.30496 36.1985 6.41048 36.2588 6.44878C36.3088 6.48055 36.4137 6.43329 36.4924 6.41455C36.517 6.40885 36.5341 6.37381 36.5586 6.36729C36.6448 6.3457 36.7327 6.33103 36.8197 6.31351C36.7893 6.39214 36.7647 6.47404 36.7264 6.549C36.7056 6.58974 36.6431 6.61541 36.634 6.65534C36.6211 6.71156 36.6398 6.77471 36.6452 6.8346C36.7123 6.82808 36.7851 6.83541 36.8438 6.81015C36.8851 6.79223 36.9059 6.7303 36.9363 6.68793C36.9538 6.692 36.9713 6.69567 36.9887 6.69974C36.9775 6.77878 36.9737 6.85945 36.9533 6.93645C36.9121 7.0929 36.9704 7.16827 37.1378 7.15809C37.2619 7.15035 37.3864 7.12753 37.51 7.13161C37.6899 7.13731 37.7203 7.20209 37.625 7.34672C37.6025 7.38095 37.565 7.41109 37.5567 7.44776C37.5413 7.51376 37.5429 7.58384 37.5371 7.65188C37.5987 7.64169 37.6653 7.64291 37.7211 7.61928C37.8419 7.56836 37.9531 7.49461 38.0759 7.45102C38.125 7.4335 38.195 7.47058 38.2554 7.4828C38.2254 7.52843 38.2046 7.58465 38.1637 7.61725C38.095 7.67266 38.0155 7.71625 37.9372 7.75862C37.7923 7.83725 37.7811 7.94481 37.8402 8.08537C37.9506 8.34775 38.0134 8.37382 38.267 8.23978C38.2853 8.23 38.3032 8.21493 38.3228 8.21289C38.4065 8.20474 38.4906 8.20067 38.5743 8.19537C38.5268 8.25974 38.4819 8.32656 38.4306 8.38767C38.4094 8.41293 38.3665 8.42108 38.3474 8.44716C38.3024 8.50868 38.2658 8.57631 38.2258 8.64149C38.2982 8.64475 38.3707 8.6529 38.4427 8.64923C38.5135 8.64557 38.5839 8.62968 38.6547 8.61909C38.6634 8.63457 38.6726 8.65005 38.6813 8.66553C38.6497 8.70138 38.6134 8.73479 38.5876 8.77431C38.5564 8.82157 38.4993 8.90102 38.5143 8.91976C38.5506 8.96498 38.6218 9.00532 38.6796 9.00695C38.7891 9.0098 38.8991 8.97517 39.0094 8.97354C39.0631 8.97272 39.1172 9.01102 39.171 9.0318C39.1372 9.07662 39.1135 9.13977 39.0681 9.16217C38.9703 9.21106 38.862 9.2404 38.7579 9.27625C38.6326 9.31944 38.6039 9.39236 38.6613 9.51337C38.7587 9.7187 38.942 9.77574 39.146 9.81771C39.2534 9.84012 39.3537 9.89552 39.4574 9.93586C39.3625 9.98678 39.268 10.0389 39.1718 10.0874C39.1414 10.1025 39.0981 10.0992 39.0744 10.1196C39.0369 10.1526 39.0107 10.1982 38.9798 10.2382C39.019 10.2593 39.0581 10.2989 39.0973 10.2993C39.4091 10.3009 39.7222 10.3086 40.0333 10.2871C40.2802 10.2699 40.5233 10.206 40.7703 10.1815C40.8435 10.1742 40.9639 10.2125 40.9897 10.2642C41.0176 10.3205 40.9855 10.4525 40.9339 10.4891C40.8023 10.5816 40.652 10.6668 40.4963 10.7055C40.1132 10.8 39.7239 10.8705 39.3358 10.943C39.1664 10.9748 39.0985 11.0607 39.1214 11.227C39.1422 11.3753 39.2322 11.4319 39.3754 11.4449C39.4982 11.4559 39.6198 11.4828 39.7418 11.5028C39.7389 11.528 39.7356 11.5533 39.7326 11.5786C39.6777 11.5786 39.6206 11.5688 39.5686 11.5806C39.472 11.6026 39.3554 11.6132 39.29 11.6731C39.2334 11.7252 39.2155 11.8409 39.223 11.9253C39.2259 11.9603 39.3375 12.0059 39.4029 12.0121C39.6007 12.03 39.7514 12.1054 39.8326 12.3205C39.7443 12.3042 39.6569 12.2822 39.5682 12.2736C39.4558 12.263 39.3238 12.2174 39.288 12.391C39.2392 12.6268 39.2942 12.7625 39.4703 12.787C39.6102 12.8065 39.6515 12.8664 39.6502 13.0029C39.6481 13.264 39.6656 13.5252 39.6823 13.7859C39.6898 13.9041 39.6406 13.9359 39.5345 13.9045C39.4882 13.8907 39.4462 13.8646 39.4008 13.8487C39.2422 13.7925 39.1735 13.8483 39.1651 14.017C39.1589 14.1494 39.1468 14.2854 39.1093 14.4121C39.059 14.5812 39.0839 14.6876 39.2763 14.7299C39.3388 14.7438 39.3941 14.789 39.4524 14.82C39.4524 14.8416 39.4524 14.8632 39.4524 14.8843C39.3533 14.9019 39.2513 14.943 39.156 14.9316C39.0265 14.9157 38.939 14.9561 38.9199 15.0681C38.9049 15.1545 38.927 15.2596 38.9682 15.3382C38.9932 15.3859 39.0864 15.3997 39.1235 15.4657C38.8949 15.5162 38.8512 15.7481 38.6355 15.7627C38.486 15.7729 38.4723 15.9905 38.5943 16.1266C38.6888 16.2321 38.7808 16.3396 38.8737 16.4464C38.8578 16.4631 38.8424 16.4798 38.8266 16.4969C38.7896 16.4908 38.7483 16.4924 38.7159 16.4769C38.4719 16.3584 38.4331 16.3698 38.3386 16.611C38.2229 16.9064 38.0713 17.1936 38.1488 17.5301C38.1579 17.57 38.1 17.6295 38.0647 17.6731C38.0447 17.6976 37.9835 17.7045 37.9805 17.7249C37.9327 18.0598 37.5471 18.3054 37.7107 18.6961C37.7149 18.7055 37.7045 18.7206 37.7007 18.7332C37.3735 18.6839 37.3485 18.7226 37.4746 19.1374C37.3889 19.1133 37.3252 19.0836 37.2598 19.0803C37.1928 19.0771 37.0982 19.0779 37.0641 19.1174C37.0312 19.1549 37.0487 19.247 37.0641 19.3101C37.0799 19.3725 37.1211 19.4287 37.1669 19.5183C36.9767 19.493 36.9733 19.1753 36.7535 19.3456C36.6506 19.425 36.5087 19.491 36.4629 19.5957C36.4212 19.6911 36.4858 19.8308 36.5091 19.9909C36.447 19.9098 36.4141 19.8504 36.3654 19.8088C36.3284 19.7766 36.2572 19.7375 36.2255 19.7518C36.0336 19.8389 35.85 19.9432 35.6605 20.0365C35.6234 20.0549 35.5735 20.0459 35.5318 20.0569C35.3237 20.1115 35.1167 20.1685 34.8377 20.2443C34.7378 20.2366 34.5496 20.2105 34.3622 20.2154C34.309 20.2166 34.2415 20.3001 34.2111 20.3604C34.1828 20.4171 34.2099 20.4986 34.1865 20.5593C34.142 20.6758 34.067 20.7296 33.9571 20.6114C33.9259 20.5776 33.8672 20.5177 33.8559 20.5242C33.689 20.6257 33.5141 20.7226 33.3717 20.8526C33.3201 20.8999 33.3434 21.0319 33.345 21.1252C33.3463 21.1842 33.3709 21.2425 33.385 21.3012C33.3621 21.3118 33.3388 21.3228 33.3159 21.3334C33.2759 21.2747 33.2272 21.2201 33.1972 21.1565C33.1423 21.04 33.0353 20.9801 32.9541 21.073C32.7396 21.3171 32.4219 21.3488 32.1563 21.4825C31.9539 21.5843 31.8711 21.7025 31.9319 21.9156C31.9385 21.9384 31.9285 21.9661 31.9265 21.9905C31.9031 21.9905 31.8798 21.9946 31.8782 21.9901C31.7886 21.7795 31.6633 21.7261 31.4522 21.8614C31.3527 21.9253 31.2124 21.9245 31.0987 21.9718C30.8843 22.061 30.8822 22.074 30.9122 22.301C30.8635 22.2704 30.8268 22.2447 30.7873 22.224C30.7531 22.206 30.7156 22.1942 30.6798 22.1796C30.5807 22.4175 30.669 22.6811 30.8734 22.7719C30.9871 22.8225 31.0321 22.8872 30.9317 22.9854C30.8697 23.0465 30.7968 23.0971 30.7285 23.1521C30.8047 23.1802 30.8814 23.2083 30.9588 23.2368C30.9509 23.2519 30.9471 23.2698 30.9384 23.2727C30.8539 23.2995 30.7685 23.3236 30.6836 23.3484C30.7156 23.4458 30.7431 23.5448 30.7814 23.6397C30.8064 23.7021 30.861 23.755 30.8755 23.8182C30.883 23.8504 30.8393 23.9225 30.8064 23.931C30.4666 24.0199 30.4658 24.0174 30.6598 24.2969C30.5645 24.3381 30.4675 24.38 30.3705 24.4216C30.4146 24.5075 30.4587 24.5935 30.5195 24.7112C30.3009 24.5581 30.2064 24.6835 30.069 24.8196C29.7692 25.1166 29.3978 25.379 28.9877 25.4356C28.4023 25.5167 27.8006 25.4552 27.2364 25.2274C27.1723 25.2018 27.1065 25.1802 27.0403 25.1602C27.0228 25.1549 27.0007 25.1631 26.9391 25.1696C26.9828 25.2572 27.0149 25.3338 27.0578 25.4039C27.1486 25.5522 27.1165 25.6939 26.9941 25.7893C26.691 26.0256 26.3933 26.279 26.0568 26.4611C25.389 26.8233 24.699 26.754 24.0158 26.4652C23.243 26.1384 22.7158 25.5852 22.3894 24.8318C22.3494 24.7402 22.2466 24.6473 22.1508 24.6118C21.9385 24.5332 21.712 24.4921 21.4917 24.4334C21.3376 24.3922 21.2735 24.4652 21.2997 24.6008C21.3493 24.8579 21.4005 25.1166 21.4788 25.366C21.632 25.8553 21.8027 26.3397 21.9697 26.8249C22.0226 26.9785 22.0788 27.1317 22.1496 27.2776C22.1683 27.3163 22.2495 27.3521 22.2974 27.3472C23.096 27.26 23.8771 27.414 24.6486 27.5599C25.1795 27.6601 25.6937 27.8679 26.2009 28.0631C26.7468 28.2733 27.2847 28.5076 27.8102 28.763C28.5368 29.1166 29.2846 29.4084 30.1032 29.4002C30.6507 29.3945 31.1949 29.3587 31.7362 29.1635C32.1717 29.0066 32.5643 28.8095 32.9586 28.5817C33.1872 28.4497 33.4766 28.3796 33.7448 28.3601C34.463 28.3079 35.1663 28.4318 35.8604 28.6123C36.0527 28.6624 36.2572 28.6689 36.45 28.7178C36.5216 28.7361 36.5757 28.8196 36.6377 28.873C36.5732 28.9158 36.5137 28.9822 36.4429 28.9977C35.5185 29.2006 34.7141 29.6455 33.9425 30.1617C33.8014 30.2562 33.7785 30.3597 33.8326 30.5092C33.8701 30.6123 33.878 30.7251 33.8992 30.8339C33.8663 30.8433 33.833 30.8526 33.8001 30.8624C33.7606 30.7704 33.7169 30.6799 33.6823 30.5862C33.5911 30.3389 33.5078 30.3006 33.2622 30.413C33.0411 30.5145 32.8242 30.6257 32.6039 30.7288C32.5768 30.7414 32.5389 30.7312 32.5056 30.7316C32.4095 30.7325 32.3104 30.7182 32.2175 30.7365C31.9452 30.7891 31.6412 30.7948 31.5213 31.144C31.4447 30.8979 31.2769 30.7573 31.0687 30.8632C30.9201 30.939 30.8393 31.1431 30.7106 31.3134C30.6802 31.203 30.6519 31.1008 30.6111 30.9529C30.517 31.0718 30.4487 31.1578 30.3809 31.2438C30.3609 31.2336 30.3405 31.2234 30.3205 31.2132C30.338 31.1558 30.3659 31.0987 30.37 31.0401C30.3759 30.9574 30.3963 30.8421 30.3517 30.7976C30.2972 30.7435 30.1748 30.7178 30.0936 30.7345C29.9911 30.7557 29.8983 30.8286 29.8063 30.8869C29.7463 30.9248 29.6955 30.9761 29.6406 31.0213C29.6239 31.0107 29.6077 31.0001 29.591 30.9895C29.611 30.9321 29.6435 30.8751 29.6472 30.8164C29.6522 30.7406 29.6347 30.6636 29.6268 30.587C29.5698 30.6314 29.5102 30.6734 29.4565 30.7215C29.4336 30.7418 29.4232 30.7752 29.3741 30.8131C29.464 30.5675 29.3903 30.4257 29.1522 30.3401C28.9223 30.2574 28.9594 30.501 28.8765 30.5467C28.7778 30.4196 28.6904 30.3067 28.603 30.1939C28.4909 30.2794 28.3789 30.3646 28.2449 30.4668C28.2532 30.2753 28.5726 30.125 28.2686 29.9356C27.9876 29.76 27.861 29.9604 27.7127 30.1425C27.694 30.1336 27.6753 30.125 27.6565 30.116C27.6461 30.0162 27.6474 29.9131 27.6216 29.817C27.5937 29.7123 27.5699 29.5685 27.4933 29.5212C27.1373 29.3024 26.7651 29.1081 26.3953 28.9109C26.2471 28.8319 26.118 28.8376 26.0485 29.0242C26.031 29.0714 25.9756 29.1052 25.9377 29.1452L25.8861 29.1142C25.9107 29.049 25.9327 28.9826 25.9602 28.9186C26.0098 28.8038 25.9831 28.7174 25.8624 28.6713C25.5867 28.5662 25.3119 28.4583 25.033 28.3637C24.8019 28.2855 24.5733 28.2513 24.4592 28.5426C24.4592 28.4619 24.4917 28.3531 24.4509 28.3075C24.4013 28.2521 24.2914 28.2399 24.2044 28.2268C23.7376 28.1572 23.27 28.0916 22.802 28.0297C22.7325 28.0203 22.6588 28.0403 22.5868 28.0468C22.5772 28.0667 22.568 28.0867 22.5584 28.1067C22.7262 28.2509 22.8849 28.4065 23.0635 28.5369C23.4291 28.8042 23.6643 29.1721 23.8804 29.5485C24.0715 29.8818 24.3501 30.1181 24.6661 30.3165C25.3594 30.7516 25.9927 31.2633 26.5436 31.8537C27.1023 32.4526 27.6028 33.1057 28.1062 33.7522C28.6175 34.4086 29.1726 35.0209 29.8517 35.5119C30.4912 35.9739 31.2153 36.2094 32.0147 36.2631C32.9537 36.3267 33.826 36.1242 34.6816 35.7677C35.0493 35.6145 35.4448 35.5168 35.8354 35.4255C36.3513 35.3049 36.8767 35.5534 37.052 35.9694C37.1894 36.2957 37.0799 36.6315 36.7564 36.86C36.4196 37.0984 36.0252 37.1269 35.6289 37.1587C35.469 37.1717 35.3008 37.2088 35.16 37.2797C35.0842 37.318 35.0526 37.4491 35.016 37.5437C35.0105 37.5575 35.1151 37.6366 35.1284 37.6276C35.2062 37.5763 35.272 37.5074 35.3411 37.4438C35.3603 37.4263 35.377 37.4055 35.3949 37.386C35.5289 37.5103 35.4852 37.7282 35.3212 37.7893C35.0834 37.8782 34.809 37.7641 34.7345 37.5453C34.6495 37.2955 34.7732 37.0527 35.038 36.9932C35.2808 36.9386 35.5331 36.9248 35.7742 36.8661C36.0065 36.8095 36.233 36.7256 36.4562 36.6388C36.6161 36.5765 36.6906 36.4481 36.6494 36.277C36.6065 36.0994 36.4845 35.9674 36.3013 35.9824C35.9803 36.0093 35.653 36.0476 35.3461 36.1377C34.996 36.2407 34.6662 36.4082 34.3256 36.5439C33.4612 36.8885 32.5668 37.0992 31.6287 37.0226C31.3306 36.9981 31.0375 36.8873 30.7473 36.8005C29.9812 36.572 29.3524 36.132 28.7624 35.6097C28.1637 35.0792 27.7157 34.4391 27.2447 33.8105C26.5377 32.8669 25.7583 31.9873 24.801 31.2731C24.6441 31.1562 24.4825 31.0454 24.2997 30.9154C24.2839 30.9863 24.2602 31.0311 24.2668 31.0706C24.3468 31.5387 24.4076 32.0118 24.5191 32.4729C24.8106 33.6785 25.4881 34.6396 26.5323 35.3375C27.3672 35.8953 28.2232 36.422 29.0664 36.9676C29.6389 37.3379 30.2085 37.7127 30.7735 38.0945C31.3256 38.4677 31.864 38.8604 32.4186 39.2304C32.9915 39.6121 33.5957 39.9515 34.1499 40.3569C34.5625 40.6588 35.0226 40.7472 35.5019 40.8262C35.5518 40.8344 35.5914 40.9016 35.6359 40.9415C35.5843 40.9635 35.5343 40.9937 35.4802 41.0051C35.4423 41.0128 35.3957 40.9831 35.3582 40.9916C35.3107 41.0026 35.2379 41.0291 35.2312 41.0601C35.2229 41.0996 35.2587 41.1656 35.2962 41.1925C35.362 41.2397 35.4511 41.256 35.5173 41.3029C35.7521 41.4675 35.9853 41.6349 36.2097 41.8122C36.2522 41.8456 36.2871 41.9478 36.2659 41.9886C36.111 42.288 36.2851 42.5072 36.4325 42.7382C36.4866 42.823 36.537 42.915 36.5632 43.0108C36.5757 43.056 36.5274 43.1175 36.5066 43.1717C36.4583 43.144 36.395 43.1273 36.3646 43.087C36.2996 42.9998 36.243 42.9045 36.1989 42.8055C36.0065 42.3724 35.6905 42.0322 35.3441 41.7181C35.1858 41.5746 34.9972 41.4687 34.7586 41.518C34.7228 41.5253 34.6516 41.4985 34.6408 41.4708C34.5738 41.3009 34.4447 41.3298 34.299 41.3261C34.1307 41.3216 33.9604 41.267 33.8001 41.2096C33.7656 41.1974 33.736 41.0597 33.7635 41.0136C33.8613 40.8511 33.8264 40.7256 33.6869 40.6213C33.475 40.4628 33.2568 40.3129 33.0415 40.1593C33.0203 40.1715 32.999 40.1833 32.9774 40.1955C32.9774 40.2697 32.9674 40.3455 32.9791 40.4176C33.0419 40.8046 32.9249 41.1566 32.7659 41.5001C32.7409 41.5547 32.703 41.6097 32.6559 41.6468C32.6189 41.6757 32.5589 41.6769 32.5094 41.6908C32.5085 41.6419 32.4886 41.5836 32.5094 41.5461C32.7659 41.0825 32.7188 40.5977 32.6206 40.11C32.5752 39.883 32.4332 39.7205 32.2337 39.6032C31.4497 39.1411 30.6619 38.6857 29.8833 38.2151C28.9569 37.6553 28.0317 37.0931 27.1198 36.5117C26.5981 36.1792 26.0868 35.8264 25.6013 35.4451C25.0134 34.983 24.5558 34.4086 24.1948 33.7539C23.7751 32.9924 23.6439 32.1715 23.5827 31.3281C23.5669 31.1122 23.5369 30.8962 23.499 30.6828C23.4874 30.618 23.4382 30.5235 23.3862 30.508C22.9586 30.3821 22.5276 30.2664 22.0938 30.1625C22.0246 30.1458 21.9347 30.1975 21.8589 30.2281C21.6299 30.3202 21.577 30.2912 21.57 29.9938C21.5183 30.079 21.4792 30.1144 21.4771 30.1519C21.4625 30.4412 21.4538 30.7304 21.4471 31.0197C21.4455 31.1008 21.4575 31.1818 21.4625 31.2629C21.53 32.3719 21.5987 33.4809 21.6641 34.5903C21.6841 34.9284 21.6903 35.2678 21.714 35.606C21.7611 36.275 21.816 36.9435 21.8681 37.6121C21.9131 38.1866 21.9576 38.7606 22.0042 39.3347C22.0838 40.3137 22.1716 41.2923 22.242 42.2721C22.2761 42.7452 22.2745 43.2206 22.2986 43.6944C22.304 43.7967 22.3507 43.8969 22.3786 43.998H20.6298L20.6285 44ZM36.4853 7.77858C36.4595 7.7737 36.4337 7.7684 36.4079 7.76351C36.4233 7.66288 36.4337 7.56143 36.4554 7.46243C36.4949 7.28113 36.38 7.17439 36.2518 7.09616C36.1206 7.01631 36.0865 7.16013 36.0169 7.22735C35.9561 7.28602 35.8749 7.32431 35.8029 7.37157C35.7854 7.34998 35.7675 7.32839 35.75 7.3068C35.7954 7.24365 35.8587 7.18661 35.8816 7.11653C35.9053 7.0436 35.8903 6.95805 35.8924 6.87819C35.8137 6.89653 35.7288 6.90264 35.658 6.93686C35.5914 6.96945 35.5402 7.03179 35.4819 7.08109C35.464 7.07212 35.4461 7.06316 35.4282 7.0542C35.4348 6.98697 35.429 6.91608 35.4502 6.85375C35.4927 6.72786 35.5219 6.61174 35.3645 6.54452C35.2154 6.48055 35.0817 6.47852 34.9931 6.64352C34.9693 6.68793 34.931 6.725 34.9056 6.7576C34.8228 6.59015 34.7828 6.3897 34.6583 6.28988C34.5263 6.18355 34.3127 6.12651 34.1382 6.13343C33.9746 6.13995 33.8155 6.2581 33.669 6.32044C33.684 6.12596 33.5743 6.03538 33.34 6.04869C33.2847 6.05195 33.228 6.05765 33.1739 6.0491C33.0253 6.02588 32.9387 6.0764 32.8987 6.2247C32.8804 6.29314 32.8208 6.35099 32.7517 6.45774C32.7159 6.34529 32.6955 6.2907 32.6813 6.23407C32.653 6.12203 32.5914 6.07395 32.4694 6.10695C32.0751 6.21451 31.68 6.31799 31.2852 6.42433C31.259 6.43126 31.2361 6.44918 31.212 6.46181C30.9451 6.60033 30.6686 6.72419 30.4134 6.88145C30.1048 7.07172 29.81 7.2848 29.5211 7.50276C29.4698 7.54147 29.4636 7.65229 29.4586 7.73132C29.4544 7.79814 29.4828 7.86659 29.4965 7.93422C29.419 7.92363 29.3358 7.9277 29.2658 7.89918C29.0993 7.83155 29.0081 7.89266 28.9311 8.03648C28.8932 8.10737 28.8211 8.16319 28.7574 8.21778C28.6646 8.29723 28.5551 8.35956 28.4714 8.44675C28.2586 8.66879 28.0596 8.90306 27.8489 9.12754C27.6873 9.29988 27.7003 9.37281 27.9259 9.4604C28.1641 9.55289 28.4043 9.64089 28.6413 9.73622C28.964 9.86619 29.2862 9.99738 29.6047 10.1367C29.7492 10.1999 29.8142 10.1347 29.8925 10.0279C29.982 9.90571 30.0977 9.80182 30.2018 9.69019C30.2247 9.70852 30.2476 9.72685 30.271 9.74559C30.2251 9.82382 30.1864 9.90734 30.1319 9.97904C29.9312 10.2431 29.9291 10.2418 30.2122 10.4056C30.2422 10.4227 30.273 10.4386 30.303 10.4549C30.4233 10.5213 30.5216 10.5124 30.6082 10.3926C30.6503 10.3343 30.7202 10.2956 30.7773 10.2483C30.7935 10.2614 30.8102 10.2744 30.8264 10.2875C30.7943 10.3563 30.7539 10.4227 30.7327 10.4944C30.7181 10.5445 30.7127 10.6419 30.7327 10.6501C31.0092 10.7645 31.2365 11.0546 31.565 10.9006C31.6029 10.9825 31.6242 11.106 31.6754 11.1194C31.7478 11.1386 31.8523 11.0913 31.9252 11.0457C32.0943 10.9401 32.2487 10.8118 32.4174 10.7051C32.5389 10.6281 32.6738 10.5714 32.8029 10.5058C32.8183 10.5262 32.8333 10.547 32.8487 10.5674C32.7909 10.6268 32.7367 10.6908 32.6734 10.7446C32.5485 10.8517 32.4107 10.9454 32.2929 11.0595C32.168 11.1805 32.1796 11.3362 32.3004 11.4331C32.4673 11.5672 32.6614 11.5557 32.8183 11.4079C32.8483 11.3797 32.8937 11.3675 32.9757 11.3256C32.957 11.4193 32.9595 11.4739 32.9357 11.515C32.845 11.6727 32.9274 11.7574 33.0611 11.8206C33.1997 11.8862 33.2547 11.8022 33.3146 11.6943C33.3463 11.6372 33.4312 11.6087 33.492 11.5672C33.5004 11.6376 33.5137 11.7077 33.5162 11.7782C33.5187 11.8458 33.5099 11.9135 33.5062 11.9815C33.5765 11.9538 33.6723 11.9452 33.7123 11.8943C33.8772 11.6849 34.0312 11.4669 34.1774 11.2445C34.6092 10.5885 35.1733 10.1502 36.0144 10.1856C36.4358 10.2035 36.8555 10.2549 37.2769 10.2826C37.5117 10.2981 37.749 10.3143 37.9822 10.2944C38.0667 10.2871 38.1875 10.1885 38.2091 10.1098C38.2316 10.0267 38.18 9.89308 38.113 9.83074C38.0771 9.79774 37.9397 9.867 37.8494 9.89349C37.8136 9.90408 37.7803 9.92364 37.7378 9.94278C37.6699 9.77289 37.7349 9.6527 37.8348 9.54148C38.0172 9.33858 38.0076 9.22654 37.7778 9.03424C37.7378 9.07743 37.6895 9.11695 37.6587 9.16625C37.6233 9.22369 37.6029 9.2901 37.5758 9.35244C37.4209 9.08313 37.458 9.00084 37.7241 8.81383C37.6783 8.73113 37.6412 8.58038 37.58 8.5706C37.4422 8.54779 37.2923 8.59505 37.1057 8.61909C37.1507 8.49238 37.2078 8.3726 37.2319 8.24671C37.2444 8.18193 37.1994 8.10656 37.1803 8.03607C37.1203 8.06133 37.0445 8.07274 37.0046 8.11593C36.9504 8.17419 36.93 8.26056 36.883 8.32697C36.8592 8.36038 36.8089 8.37586 36.7706 8.39908C36.7518 8.35345 36.7094 8.30171 36.7193 8.26341C36.7435 8.17296 36.7835 8.08333 36.833 8.00307C36.9746 7.77492 36.9175 7.61032 36.6298 7.48036C36.5811 7.57895 36.5324 7.67836 36.4833 7.77777L36.4853 7.77858ZM20.2809 30.0513C20.0839 30.0325 19.9369 29.9857 19.8062 30.0126C19.4315 30.0887 19.237 29.8948 19.3819 29.4788C19.4269 29.3501 19.3952 29.2727 19.2841 29.2067C19.1596 29.1329 19.0334 29.06 18.9168 28.9757C18.3098 28.5365 18.3393 27.8822 18.712 27.4479C18.8956 27.234 19.0946 27.0466 18.8948 26.7312C19.185 26.644 19.2916 26.4314 19.3428 26.1816C19.3907 25.9494 19.4985 25.707 19.1725 25.509C19.2978 25.4817 19.3598 25.4784 19.4115 25.454C19.4544 25.4336 19.4852 25.3892 19.5214 25.355C19.481 25.3244 19.4398 25.2678 19.4007 25.269C19.3078 25.2727 19.207 25.2869 19.1258 25.3277C18.9976 25.392 18.9077 25.359 18.8444 25.2527C18.7769 25.139 18.7274 25.0152 18.6612 24.8775C18.8152 24.853 18.9568 24.8343 19.0967 24.807C19.2399 24.7789 19.2945 24.6709 19.2145 24.5662C18.9077 24.1645 18.9072 23.6593 18.7207 23.2177C18.6616 23.0775 18.6266 23.0628 18.5084 23.1553C17.9358 23.6051 17.3679 24.0614 16.7808 24.4925C16.0942 24.9964 15.6037 25.6182 15.3431 26.4301C15.1316 27.0893 14.8713 27.7355 14.5949 28.3719C14.3559 28.9223 14.2405 29.4556 14.552 30.0109C14.582 30.0643 14.6044 30.1217 14.6269 30.1788C14.7572 30.5096 14.8659 30.8412 14.806 31.2071C14.7739 31.4039 14.7831 31.5933 14.8676 31.7962C15.1545 32.4831 15.8998 32.8608 16.628 32.6534C16.9103 32.573 17.0638 32.4044 17.0885 32.1474C17.2189 32.1474 17.3879 32.1963 17.4674 32.1344C17.554 32.0672 17.5578 31.8973 17.6057 31.7469C17.7897 31.8903 17.9425 31.8463 18.1107 31.7152C18.3318 31.5432 18.0229 31.368 18.1124 31.2271C18.2752 31.2841 18.4347 31.3966 18.5621 31.3688C18.6857 31.342 18.7769 31.1708 18.9064 31.0384C19.053 31.1065 19.1954 30.9553 19.3524 30.8673C19.6013 30.7276 19.5988 30.7133 19.379 30.523C19.3632 30.5092 19.359 30.4823 19.3619 30.4884C19.5401 30.4835 19.7404 30.5292 19.8828 30.4599C20.0377 30.3849 20.1389 30.2036 20.28 30.0509L20.2809 30.0513ZM35.7617 14.2418C35.673 13.9628 35.1854 13.6715 34.9289 13.7847C34.799 13.5097 34.5671 13.3924 34.2669 13.4364C34.2219 13.4429 34.1524 13.4071 34.122 13.3696C34.0175 13.2404 33.9492 13.271 33.8726 13.3956C33.8434 13.4433 33.7814 13.4726 33.7323 13.5077C33.6731 13.5496 33.5766 13.5761 33.557 13.6303C33.3983 14.0679 32.825 14.0952 32.6526 14.5144C32.6497 14.5213 32.6251 14.5169 32.6135 14.523C32.4894 14.5873 32.357 14.6415 32.2458 14.7234C32.2004 14.7568 32.1738 14.855 32.185 14.9157C32.2296 15.1573 32.2275 15.1659 31.9777 15.1414C31.7549 15.1198 31.6671 15.2005 31.6554 15.4254C31.6529 15.4735 31.6383 15.5419 31.6042 15.5639C31.4809 15.6434 31.3473 15.7073 31.217 15.7766C31.0612 15.8593 30.9526 15.9669 30.9659 16.1608C30.9688 16.2023 30.8984 16.2891 30.8839 16.285C30.6886 16.2264 30.5878 16.382 30.4458 16.4488C30.2251 16.5527 30.2401 16.7874 30.1223 16.9459C30.1027 16.9728 30.1564 17.0754 30.2014 17.1182C30.2643 17.1781 30.3459 17.2245 30.4275 17.2584C30.7768 17.4034 31.1187 17.5794 31.4822 17.6739C32.0818 17.83 32.643 18.0993 33.2755 18.1677C34.0512 18.2512 34.7803 18.2109 35.501 17.8752C35.9632 17.6597 36.3321 17.3447 36.7156 17.0359C36.8917 16.8941 37.0903 16.7695 37.2336 16.6004C37.4438 16.3523 37.6033 16.0365 37.4143 15.6788C37.1016 15.0864 36.6415 14.6427 36.0977 14.2696C36.0282 14.2219 35.9028 14.2516 35.7617 14.2431V14.2418ZM20.3716 16.226C20.4637 16.1628 20.5507 16.0874 20.6514 16.0373C21.0037 15.8617 21.1961 15.4898 21.1598 15.1117C21.0682 14.1506 21.1015 13.2029 21.5175 12.3001C21.6278 12.0605 21.7444 11.8079 21.7748 11.5517C21.8477 10.9405 21.8723 10.3241 21.911 9.70933C21.9139 9.66289 21.8752 9.614 21.8556 9.56592C21.8094 9.58589 21.7461 9.59322 21.719 9.62744C21.5504 9.84134 21.3822 10.056 21.229 10.2805C21.0137 10.5955 20.8309 10.9332 20.5998 11.2359C20.1089 11.8788 19.4219 12.0475 18.6612 11.8678C18.2002 11.759 17.761 11.559 17.3804 11.2583C17.1968 11.1129 17.1214 11.1271 16.9973 11.3239C16.7192 11.766 16.4473 12.2117 16.1842 12.6623C16.1109 12.7878 16.0101 12.9512 16.0388 13.0697C16.1025 13.3288 16.2021 13.5969 16.357 13.8132C16.7679 14.3865 17.3013 14.844 17.9429 15.1573C18.55 15.4535 19.175 15.7138 19.7933 15.9876C19.9761 16.0683 20.1626 16.1404 20.3721 16.2264L20.3716 16.226ZM18.7615 6.93319C18.637 6.68263 18.5625 6.6423 18.2731 6.69363C18.0687 6.72989 17.8696 6.79304 17.6656 6.83256C17.151 6.93279 16.7758 7.21716 16.4998 7.64577C16.409 7.78673 16.4381 7.88207 16.571 7.97007C17.1972 8.38645 17.5145 8.9658 17.5037 9.7073C17.5012 9.88982 17.5557 10.0332 17.7185 10.1143C18.0504 10.2789 18.388 10.4317 18.7245 10.5881C19.0347 10.7324 19.3553 10.6448 19.5926 10.4859C20.0315 10.1913 20.4845 9.88004 20.6922 9.36181C20.8551 8.95602 21.114 8.63538 21.4959 8.4109C21.6183 8.33919 21.6412 8.26219 21.5317 8.15422C20.8455 7.47587 20.0656 6.96416 19.0825 6.79264C18.9293 6.76575 18.8186 6.75597 18.7615 6.9336V6.93319ZM23.123 11.1019C23.0935 11.1451 23.0219 11.2046 23.0123 11.2722C22.9777 11.5158 22.9677 11.7546 22.8636 11.9933C22.7088 12.3478 22.5955 12.7234 22.5001 13.0982C22.3848 13.5505 22.2836 14.0088 22.2195 14.47C22.1775 14.7711 22.3274 14.8412 22.6084 14.7039C23.0502 14.4879 23.482 14.2439 23.9416 14.0724C24.4783 13.8719 24.8514 13.5509 25.0355 13.0155C25.0858 12.8689 25.1704 12.7328 25.2424 12.5938C25.2703 12.5401 25.309 12.492 25.3407 12.4398C25.4743 12.219 25.6134 12.0006 25.7387 11.7753C25.8207 11.6279 25.7912 11.4955 25.6583 11.374C25.4352 11.1703 25.222 10.956 25.0092 10.7417C24.7207 10.4508 24.4484 10.1432 24.1457 9.867C23.9504 9.68856 23.8629 9.35366 23.4803 9.41925C23.4915 9.35692 23.5132 9.31455 23.5028 9.28236C23.4678 9.17521 23.4499 9.03465 23.3716 8.97761C23.295 8.9222 23.1422 8.92506 23.0439 8.95969C23.0006 8.97476 22.9831 9.1361 22.999 9.22329C23.091 9.74152 23.1164 10.2598 23.0581 10.7837C23.0477 10.8786 23.0964 10.9801 23.123 11.1015V11.1019ZM23.7988 20.6538C23.7897 20.6807 23.7805 20.708 23.7718 20.7349C23.6481 20.7454 23.524 20.7532 23.4012 20.7683C23.3645 20.7727 23.3092 20.7907 23.2996 20.8159C23.2858 20.853 23.2892 20.9255 23.3137 20.9414C23.3974 20.9956 23.4903 21.042 23.5861 21.0718C23.7472 21.1219 23.8721 21.1924 23.9167 21.3704C23.9666 21.5709 24.0237 21.7713 24.1007 21.9628C24.2098 22.235 24.7473 22.3091 24.9593 22.0977C25.1525 21.9045 25.3573 21.722 25.5684 21.5236C25.5763 21.6035 25.5817 21.6821 25.5917 21.7599C25.6504 22.2305 25.7246 22.2724 26.21 22.1645C26.5261 22.0944 26.8467 22.0423 27.1669 21.995C27.4842 21.9485 27.4858 21.9547 27.5524 21.6389C27.5562 21.6218 27.5745 21.6075 27.6082 21.5615C27.7281 21.8398 27.9322 21.7974 28.1454 21.7175C28.1578 21.7131 28.1728 21.7151 28.1866 21.7135C28.5134 21.6727 28.8407 21.6348 29.1667 21.5876C29.2175 21.5802 29.2617 21.5273 29.3087 21.4955C29.2633 21.4515 29.2254 21.3904 29.1705 21.3672C29.0839 21.3305 28.9748 21.3386 28.8944 21.2942C28.5934 21.128 28.3052 20.9447 28.1012 20.657C28.0421 20.5735 27.9417 20.5108 27.8489 20.4582C27.4479 20.2321 27.3555 19.9746 27.5091 19.5277C27.5279 19.4735 27.4908 19.3843 27.4513 19.3313C27.3701 19.2225 27.2747 19.1219 27.1744 19.0294C27.1377 18.9956 27.0694 18.994 27.0157 18.9773C27.0191 19.0257 27.0124 19.0779 27.0282 19.1223C27.0607 19.2115 27.1053 19.2963 27.1615 19.4197C26.7917 19.2246 26.7734 19.2262 26.7205 19.3712C26.5715 19.4442 26.4657 19.489 26.3666 19.5452C26.2363 19.6193 26.1201 19.7432 25.9823 19.7713C25.772 19.8141 25.6521 19.8789 25.69 20.1172C25.6413 20.0492 25.5921 19.9811 25.5322 19.8976C25.4139 20.0488 25.1279 19.9502 25.1221 20.1486C24.9297 20.2301 24.6969 20.2565 24.6366 20.3702C24.5341 20.5625 24.4517 20.5503 24.2897 20.4843C24.1211 20.4154 24.037 20.4908 24.0461 20.6701C24.0482 20.7104 24.0341 20.7732 24.007 20.7874C23.9749 20.8041 23.9112 20.7911 23.8775 20.7683C23.8413 20.7434 23.8242 20.6925 23.7984 20.6526L23.7988 20.6538ZM28.3923 24.5336C28.5488 24.7931 28.5534 24.7919 28.7687 24.655C28.8311 24.6155 28.9077 24.5984 28.9752 24.5654C29.0855 24.5112 29.2084 24.4692 29.2991 24.3918C29.524 24.2008 29.7226 23.9844 29.8121 23.6947C29.9216 23.3411 29.9903 22.9834 29.8875 22.6175C29.84 22.4489 29.753 22.4293 29.6152 22.5332C29.5806 22.5593 29.539 22.5931 29.4998 22.5939C29.1871 22.6016 28.8919 22.6363 28.7674 22.9475C28.6629 22.9052 28.5642 22.829 28.488 22.8465C28.4293 22.8599 28.3989 22.9911 28.3598 23.0632C28.2565 22.8742 28.2178 22.8799 27.8864 22.9492C27.6661 22.9952 27.5641 23.1415 27.4662 23.3175C27.4442 23.2763 27.4338 23.2474 27.4429 23.227C27.5258 23.0494 27.4338 23.0009 27.276 23.0209C27.1627 23.0351 27.0436 23.1121 26.942 23.0914C26.671 23.0359 26.5548 23.2079 26.4207 23.3717C26.3878 23.4116 26.3454 23.4442 26.2975 23.4894C26.2325 23.3403 26.3962 23.1488 26.1588 23.1048C25.8432 23.0461 25.9198 23.3179 25.8457 23.533C25.827 23.4421 25.8145 23.4128 25.8162 23.3847C25.8324 23.1117 25.797 23.0661 25.523 23.1077C25.4198 23.1235 25.3132 23.2001 25.2357 23.2763C25.1141 23.3957 25.0209 23.542 24.9055 23.6683C24.8772 23.6992 24.8106 23.6968 24.7615 23.7098C24.7573 23.6544 24.7365 23.5933 24.7544 23.5456C24.7715 23.5 24.8244 23.4629 24.8689 23.4324C25.0101 23.335 25.0309 23.2258 24.9409 23.1142C24.8452 23.1142 24.7748 23.1154 24.7044 23.1142C24.5983 23.1121 24.47 23.0698 24.3905 23.1138C24.2656 23.1826 24.1457 23.192 24.0116 23.2046C23.4403 23.2576 22.8707 23.3224 22.3007 23.388C22.2395 23.3949 22.1825 23.4348 22.1233 23.4593C22.1616 23.5114 22.1887 23.5917 22.2395 23.6108C22.496 23.707 22.7558 23.7986 23.0206 23.8695C23.2629 23.9339 23.5294 23.9192 23.7018 24.158C23.748 24.2215 23.8688 24.2639 23.9554 24.2639C24.2868 24.2639 24.6195 24.2578 24.9493 24.2272C25.5967 24.1673 26.2146 24.2741 26.8259 24.4754C27.0307 24.543 27.2547 24.5548 27.4704 24.5911C27.5166 24.5988 27.5658 24.5959 27.6103 24.6094C27.7777 24.6591 27.9409 24.7255 28.1108 24.7626C28.2474 24.7923 28.3856 24.7789 28.3939 24.534L28.3923 24.5336ZM35.8495 12.9878C35.8354 13.0599 35.8108 13.1272 35.8121 13.1936C35.8137 13.2763 35.8075 13.4046 35.8554 13.4339C36.131 13.6022 36.3825 13.8401 36.7485 13.8039C36.9917 13.7798 37.1449 13.8719 37.2498 14.0935C37.2706 14.1376 37.3127 14.1807 37.356 14.2048C37.5384 14.3042 37.7266 14.3934 37.9081 14.494C37.9418 14.5128 37.9668 14.5678 37.9701 14.6077C37.9718 14.6281 37.9189 14.6615 37.8852 14.6737C37.6516 14.7585 37.6137 14.8709 37.7594 15.0652C37.8044 15.1251 37.8515 15.1842 37.901 15.2404C38.0134 15.3684 38.0734 15.3618 38.1309 15.207C38.2208 14.9658 38.3091 14.7234 38.3861 14.4782C38.4444 14.2928 38.506 14.1041 38.5268 13.9127C38.6213 13.0367 38.6288 12.1583 38.573 11.2795C38.5589 11.0567 38.4981 11.0159 38.282 11.1251C37.7944 11.3716 37.2735 11.449 36.7335 11.4482C36.5049 11.4482 36.2759 11.4466 36.0473 11.4482C35.7309 11.4498 35.4511 11.5395 35.2916 11.8263C35.1742 12.0373 35.0892 12.2651 34.9802 12.5058C34.9722 12.5042 34.8985 12.4655 34.8557 12.4863C34.7499 12.5384 34.6508 12.6101 34.5675 12.6924C34.5475 12.712 34.5825 12.8285 34.6233 12.8558C34.7657 12.9503 34.9202 13.029 35.0734 13.1072C35.3374 13.242 35.5935 13.3178 35.7771 12.9878C35.78 12.9825 35.8025 12.987 35.8491 12.987L35.8495 12.9878ZM28.5205 18.1836H28.2353C28.2353 18.2459 28.2103 18.3246 28.2399 18.3674C28.3977 18.5959 28.5559 18.8269 28.7391 19.0359C29.0614 19.4022 29.3274 19.7868 29.3595 20.29C29.3637 20.356 29.4149 20.4366 29.4694 20.479C29.6918 20.6505 29.9108 20.8335 30.1581 20.963C30.2697 21.0213 30.4641 21.0066 30.5866 20.9512C30.8968 20.8114 31.1786 20.6126 31.488 20.4704C31.8548 20.3018 32.2387 20.1694 32.6131 20.0162C32.6705 19.9925 32.7155 19.94 32.7663 19.9009C32.7246 19.8508 32.6909 19.7896 32.6393 19.7526C32.4328 19.6047 32.2113 19.4755 32.0122 19.3187C31.6521 19.0343 31.3435 18.71 31.2282 18.248C31.1774 18.0451 31.0254 17.986 30.8268 18.0573C30.7606 17.9999 30.709 17.9225 30.639 17.8996C30.2077 17.7599 29.8204 17.502 29.3549 17.4499C29.143 17.4262 29.0826 17.4743 29.1143 17.6853C29.1259 17.764 29.1163 17.8459 29.1163 17.9457C28.6937 17.7436 28.5222 17.8349 28.5201 18.1836H28.5205ZM28.8719 10.9214C28.8519 10.9169 28.832 10.912 28.8116 10.9075C28.8116 10.8395 28.8253 10.7682 28.8082 10.7047C28.7857 10.6207 28.7616 10.4997 28.6996 10.4692C28.3115 10.2785 27.9143 10.1058 27.5154 9.93708C27.4742 9.91956 27.3738 9.95419 27.3497 9.9933C27.1065 10.3865 26.8762 10.7874 26.6364 11.1826C26.4828 11.436 26.4786 11.4352 26.7243 11.6209C26.932 11.7782 27.1381 11.9375 27.348 12.0927C27.552 12.2435 27.7461 12.4142 27.9701 12.5283C28.1241 12.6069 28.3248 12.6436 28.4984 12.6285C28.8378 12.5987 29.1742 12.527 29.5082 12.4565C29.6089 12.4354 29.7026 12.3677 29.7909 12.3091C29.8425 12.2748 29.8779 12.217 29.9441 12.1445C29.997 12.3176 30.034 12.4533 30.2347 12.4284C30.4167 12.4056 30.6228 12.4574 30.684 12.2048C30.6915 12.173 30.7556 12.1233 30.7635 12.1282C30.8052 12.1542 30.8485 12.1893 30.8709 12.2312C30.9663 12.4101 31.075 12.4329 31.1895 12.2716C31.2852 12.1363 31.3668 12.1212 31.4888 12.2308C31.5775 12.3103 31.677 12.3865 31.7928 12.2638C31.9248 12.1241 31.9589 11.8898 31.8632 11.788C31.6608 11.572 31.5288 11.5729 31.3356 11.7896C31.3235 11.8031 31.3006 11.8067 31.259 11.8263C31.2274 11.7497 31.1737 11.678 31.1728 11.6059C31.1712 11.4449 31.0879 11.3565 30.9513 11.2954C30.8635 11.2559 30.776 11.2151 30.6894 11.1732C30.5441 11.1031 30.4804 11.152 30.4433 11.3027C30.4054 11.4584 30.3334 11.6059 30.2768 11.757C30.2451 11.748 30.2135 11.7395 30.1818 11.7305C30.2014 11.6348 30.2077 11.5342 30.2435 11.4449C30.303 11.2958 30.2622 11.1911 30.1485 11.0836C29.8987 10.8473 29.5948 10.7063 29.2783 10.5845C29.1318 10.5282 29.0231 10.5555 28.9727 10.7205C28.951 10.791 28.9061 10.855 28.8719 10.9218V10.9214ZM16.1842 15.3166C15.869 15.7444 16.1613 16.7621 16.8295 17.0416C17.2871 17.2327 17.761 17.3337 18.2381 17.4384C18.296 17.4511 18.363 17.425 18.4259 17.4169C18.393 17.3627 18.3726 17.2942 18.3256 17.2575C18.1157 17.0934 17.9692 16.8954 17.9683 16.6248C17.9679 16.4166 17.8522 16.3189 17.676 16.2284C17.3538 16.063 17.0436 15.8744 16.7338 15.687C16.5481 15.5745 16.3732 15.4454 16.1842 15.317V15.3166ZM14.706 10.2422C14.7531 10.7038 14.7839 11.033 14.8218 11.361C14.8326 11.4547 14.8601 11.5472 14.8876 11.6376C14.9296 11.7762 15.0075 11.7925 15.1053 11.6829C15.1461 11.6372 15.1786 11.5843 15.2094 11.5313C15.4293 11.1565 15.6541 10.7837 15.8631 10.4028C15.9193 10.3001 15.9756 10.1599 15.9485 10.0581C15.8577 9.71219 15.7416 9.37118 15.6112 9.0371C15.5421 8.85987 15.3252 8.82279 15.1774 8.94746C15.0958 9.01632 15.0046 9.1035 14.9767 9.19925C14.8634 9.58466 14.7731 9.97619 14.706 10.2418V10.2422ZM25.095 9.57896C25.0733 9.56348 25.0513 9.548 25.0296 9.53252C25.0875 9.37607 25.2033 9.21391 25.0217 9.07132C24.8631 8.94624 24.7656 9.07295 24.6695 9.1858C24.5987 9.09047 24.5516 8.99472 24.4746 8.93565C24.4325 8.90346 24.3405 8.9328 24.2714 8.93443C24.2806 8.99309 24.271 9.06562 24.3031 9.10717C24.3776 9.20332 24.4713 9.28521 24.5595 9.37077C24.8235 9.62744 25.0892 9.88249 25.3531 10.1396C25.5934 10.3734 25.8299 10.6105 26.0726 10.842C26.1846 10.9491 26.3012 10.9287 26.3491 10.7874C26.3895 10.6684 26.3812 10.5335 26.3962 10.3881C26.7101 10.3824 26.8184 10.1306 26.8842 9.85926C26.9 9.79326 26.8396 9.65596 26.783 9.63641C26.4969 9.53577 26.2013 9.45999 25.9069 9.38259C25.7953 9.35325 25.7175 9.39236 25.7058 9.51989C25.7029 9.55329 25.6763 9.58426 25.635 9.66818C25.5934 9.52966 25.5747 9.43922 25.5384 9.3561C25.5168 9.30599 25.4685 9.26729 25.4323 9.22329C25.3885 9.25995 25.3402 9.29214 25.3023 9.3337C25.2299 9.41273 25.1633 9.49707 25.0946 9.57937L25.095 9.57896ZM34.8074 18.6957C34.7978 18.6692 34.7882 18.6428 34.7786 18.6163C33.8405 18.7752 32.9353 18.5963 32.0235 18.3771C32.0626 18.4757 32.1072 18.5515 32.1725 18.6008C32.4777 18.8318 32.7875 19.0563 33.0973 19.2816C33.3592 19.4723 33.4949 19.4751 33.7789 19.3113C34.0475 19.1569 34.3202 19.0094 34.5883 18.8542C34.6662 18.8094 34.7349 18.7487 34.8078 18.6953L34.8074 18.6957ZM26.3116 13.1756C26.5635 13.1247 26.7984 13.0966 27.0199 13.0273C27.2227 12.9638 27.2397 12.8436 27.0857 12.6961C26.8338 12.4549 26.5727 12.2227 26.3187 11.9839C26.2167 11.8878 26.1426 11.9021 26.0722 12.0174C26.0014 12.1335 25.9269 12.2471 25.8495 12.3588C25.613 12.6998 25.6721 12.7034 25.9182 12.8786C25.9727 12.9173 26.0052 12.9858 26.0593 13.0253C26.1393 13.0836 26.23 13.1276 26.3116 13.1752V13.1756ZM20.6981 22.2456C20.7572 22.217 20.8018 22.2105 20.8147 22.1873C20.9058 22.0219 20.9962 21.8557 21.0724 21.6833C21.0882 21.6471 21.0599 21.5709 21.0262 21.5387C20.8942 21.412 20.7626 21.2783 20.6081 21.183C20.5361 21.1386 20.4 21.1472 20.3138 21.1818C20.1901 21.2315 20.076 21.3166 19.9765 21.4067C19.9007 21.4755 19.7846 21.6124 19.8079 21.6532C19.8607 21.7461 19.9861 21.8011 20.0856 21.8663C20.1593 21.9143 20.2405 21.9518 20.3154 21.9987C20.4466 22.0806 20.5757 22.1661 20.6981 22.2451V22.2456ZM19.8612 25.612C19.8291 25.6129 19.7975 25.6137 19.7654 25.6149C19.6796 25.8866 19.5776 26.1551 19.5139 26.4322C19.4752 26.6008 19.5755 26.6624 19.7508 26.6204C19.8503 26.5964 19.9565 26.5915 20.0506 26.5552C20.1081 26.5332 20.1984 26.4513 20.1889 26.4257C20.0893 26.1511 19.9728 25.8826 19.8607 25.6125L19.8612 25.612ZM10.1276 32.8906C10.1217 32.9024 10.1159 32.9142 10.1101 32.9264C10.021 32.9386 9.92813 32.9398 9.84444 32.9676C9.79822 32.983 9.73368 33.0454 9.73576 33.0833C9.74284 33.212 9.77615 33.3391 9.79989 33.4666C9.92272 33.4345 10.046 33.4031 10.168 33.3693C10.1942 33.3619 10.2217 33.3497 10.2412 33.3322C10.3345 33.247 10.4253 33.159 10.5173 33.0718C10.3874 33.0116 10.2575 32.9513 10.1276 32.891V32.8906ZM12.9943 34.4901C13.3345 34.4493 13.4348 34.3544 13.3678 34.1552C13.3187 34.0093 13.2541 33.8679 13.1854 33.7298C13.165 33.6887 13.108 33.6646 13.0676 33.6329C13.0351 33.6785 12.9756 33.7237 12.9752 33.7694C12.9731 34.0081 12.9864 34.2472 12.9943 34.4897V34.4901ZM11.8285 34.8127L11.9097 34.8299C12.1245 34.5883 12.2203 34.3067 12.1574 33.9837C12.1466 33.9278 12.0666 33.8846 12.0187 33.8358C11.9759 33.8826 11.9009 33.9258 11.8951 33.9767C11.8634 34.2542 11.8489 34.5337 11.8285 34.8123V34.8127ZM24.5824 24.904C24.7477 25.1435 25.4389 25.1427 25.7221 24.9084C25.3352 24.82 24.973 24.8347 24.5824 24.904ZM25.6367 12.846C25.608 12.8501 25.5788 12.8542 25.5501 12.8583C25.5205 12.9593 25.4398 13.0836 25.4739 13.1565C25.5247 13.2669 25.6559 13.3415 25.7529 13.4315C25.8149 13.3643 25.9423 13.2624 25.9277 13.2355C25.8507 13.0954 25.7375 12.974 25.6371 12.846H25.6367ZM9.63833 22.2346C9.6325 22.4733 9.73077 22.6143 9.86734 22.591C9.92105 22.5821 9.991 22.4929 9.99975 22.4326C10.0189 22.2997 9.83903 22.0777 9.74701 22.1091C9.68871 22.129 9.65416 22.2154 9.63875 22.2346H9.63833ZM22.6534 29.377C22.645 29.1627 22.4556 29.0836 22.3353 28.9618C22.3061 28.9325 22.2378 28.9398 22.1875 28.9305C22.1775 28.9863 22.1471 29.0478 22.1616 29.0963C22.227 29.3183 22.3232 29.3713 22.6534 29.3766V29.377ZM7.01684 31.8643C7.41822 31.782 7.57853 31.4903 7.84834 31.2853C7.63932 31.2397 7.29914 31.4862 7.01684 31.8643ZM20.3567 10.1925C20.3038 10.1925 20.2292 10.1697 20.1943 10.1966C20.0877 10.2793 19.9911 10.3763 19.9036 10.4785C19.8849 10.5001 19.909 10.5983 19.9349 10.6081C20.0294 10.6448 20.3641 10.3531 20.3567 10.1925ZM36.98 18.1555C37.1986 18.1567 37.4297 17.7517 37.2939 17.4971C37.1903 17.7147 37.0866 17.9322 36.98 18.1555ZM36.248 18.9149C36.2322 18.8958 36.2164 18.8766 36.2005 18.8575C35.9894 18.8351 35.8158 18.9235 35.7717 19.0824C35.7625 19.1162 35.7692 19.1634 35.7883 19.192C35.8 19.2091 35.8612 19.2172 35.8799 19.2034C36.0057 19.1113 36.1256 19.0119 36.2476 18.9149H36.248ZM6.63336 25.9404C6.63502 25.9808 6.63627 26.0215 6.63794 26.0618C6.81614 26.0618 6.99435 26.0651 7.17256 26.0578C7.19713 26.0569 7.24418 25.9938 7.23752 25.9759C7.22253 25.9384 7.17714 25.8842 7.14716 25.8858C6.97562 25.896 6.80449 25.9205 6.63336 25.94V25.9404ZM35.6988 19.3069C35.6942 19.284 35.6897 19.2608 35.6851 19.238C35.6418 19.2213 35.5793 19.1777 35.5581 19.192C35.469 19.2527 35.3919 19.3305 35.3103 19.4022C35.347 19.423 35.3953 19.4698 35.4182 19.46C35.5156 19.4181 35.6055 19.3594 35.6984 19.3069H35.6988ZM36.42 18.7312C36.4974 18.6334 36.557 18.5743 36.5911 18.5034C36.5998 18.4855 36.502 18.3934 36.4949 18.3979C36.4258 18.4419 36.3571 18.4932 36.3088 18.5572C36.2971 18.5727 36.3621 18.6436 36.42 18.7312ZM35.6976 41.6798C35.8075 41.8109 35.9095 41.9332 36.0115 42.0554C36.0261 42.0403 36.0407 42.0252 36.0548 42.0098C35.9999 41.8366 35.8641 41.7454 35.6976 41.6798ZM8.34799 32.0643C8.37339 32.09 8.3992 32.1156 8.4246 32.1413C8.49497 32.0769 8.56492 32.0122 8.63529 31.9478C8.60281 31.9295 8.55368 31.8883 8.54119 31.8973C8.47165 31.9462 8.41128 32.0073 8.34799 32.0643ZM39.5182 13.3647C39.4516 13.3056 39.4062 13.2657 39.3612 13.2258C39.3367 13.2592 39.2863 13.3007 39.2938 13.3243C39.3092 13.3728 39.3517 13.4172 39.3933 13.4511C39.4016 13.4576 39.457 13.4079 39.5182 13.3647ZM35.5689 6.0988C35.6264 6.01284 35.6709 5.96965 35.6826 5.91913C35.6888 5.89143 35.6397 5.85109 35.6155 5.81687C35.5776 5.85802 35.5281 5.89469 35.5073 5.94276C35.496 5.96884 35.5339 6.01528 35.5689 6.0988ZM32.3599 12.3726C32.3857 12.3734 32.412 12.3747 32.4378 12.3755V12.1274C32.412 12.1278 32.3857 12.1282 32.3599 12.129V12.3726Z" fill="white"/>
</g>
<defs>
<filter id="filter0_i_4206_21933" x="0" y="0" width="48" height="48" filterUnits="userSpaceOnUse" color-interpolation-filters="sRGB">
<feFlood flood-opacity="0" result="BackgroundImageFix"/>
<feBlend mode="normal" in="SourceGraphic" in2="BackgroundImageFix" result="shape"/>
<feColorMatrix in="SourceAlpha" type="matrix" values="0 0 0 0 0 0 0 0 0 0 0 0 0 0 0 0 0 0 127 0" result="hardAlpha"/>
<feOffset/>
<feGaussianBlur stdDeviation="2.2"/>
<feComposite in2="hardAlpha" operator="arithmetic" k2="-1" k3="1"/>
<feColorMatrix type="matrix" values="0 0 0 0 0 0 0 0 0 0 0 0 0 0 0 0 0 0 0.27 0"/>
<feBlend mode="normal" in2="shape" result="effect1_innerShadow_4206_21933"/>
</filter>
<filter id="filter1_i_4206_21933" x="5" y="5" width="36" height="39" filterUnits="userSpaceOnUse" color-interpolation-filters="sRGB">
<feFlood flood-opacity="0" result="BackgroundImageFix"/>
<feBlend mode="normal" in="SourceGraphic" in2="BackgroundImageFix" result="shape"/>
<feColorMatrix in="SourceAlpha" type="matrix" values="0 0 0 0 0 0 0 0 0 0 0 0 0 0 0 0 0 0 127 0" result="hardAlpha"/>
<feOffset/>
<feGaussianBlur stdDeviation="1.6"/>
<feComposite in2="hardAlpha" operator="arithmetic" k2="-1" k3="1"/>
<feColorMatrix type="matrix" values="0 0 0 0 0 0 0 0 0 0 0 0 0 0 0 0 0 0 0.3 0"/>
<feBlend mode="normal" in2="shape" result="effect1_innerShadow_4206_21933"/>
</filter>
<radialGradient id="paint0_radial_4206_21933" cx="0" cy="0" r="1" gradientUnits="userSpaceOnUse" gradientTransform="translate(24 24) rotate(90) scale(24)">
<stop stop-color="white"/>
<stop offset="1" stop-color="#FAFAFA"/>
</radialGradient>
</defs>
</svg>
