<svg width="354" height="260" viewBox="0 0 354 260" fill="none" xmlns="http://www.w3.org/2000/svg">
<path d="M330.597 213.866H203.507C193.893 213.866 185.762 206.324 185.501 196.702C185.226 186.721 193.232 178.544 203.141 178.544H302.878C330.616 178.544 353.603 156.239 353.59 128.472C353.577 109.509 343.028 93.0123 327.479 84.535C320.976 80.9897 316.015 75.0765 314.159 67.9075C307.068 40.5459 279.754 19.2807 254.957 8.75604C244.434 4.40619 233.441 1.43652 221.807 1.01135C215.579 0.723538 210.35 5.9499 210.637 12.1901C210.886 18.1164 215.886 22.7214 221.807 22.4728C226.003 22.2962 230.422 22.6363 234.859 23.3755C239.304 24.1146 243.774 25.2593 248.18 26.718C259.127 30.4333 271.192 36.6147 281.264 44.8304C291.022 52.7844 289.793 66.318 281.944 73.5459C278.663 76.5679 273.696 77.0454 269.931 74.6579C269.911 74.6448 269.898 74.6383 269.879 74.6252C262.389 69.9941 258.016 60.7973 259.951 52.2938C261.049 47.1852 257.807 42.155 252.702 41.0561C245.997 39.5844 240.088 45.6284 241.421 52.2938C242.127 59.319 244.957 65.8078 249.212 71.0341C251.63 74.0103 249.591 78.4583 245.755 78.4583H108.907C105.07 78.4583 103.031 74.0103 105.449 71.0341C109.697 65.8078 112.527 59.319 113.24 52.2938C114.573 45.6284 108.665 39.5778 101.959 41.0561C96.8545 42.155 93.6127 47.1917 94.7107 52.2938C96.6453 60.7973 92.2728 69.9941 84.7827 74.6252C84.7631 74.6383 84.75 74.6448 84.7304 74.6579C80.9592 77.0454 75.9985 76.5745 72.7175 73.5459C64.8679 66.3114 63.6392 52.7844 73.3972 44.8304C83.469 36.6147 95.5408 30.4333 106.482 26.718C110.887 25.2593 115.358 24.1146 119.802 23.3755C124.24 22.6363 128.658 22.2962 132.854 22.4728C138.776 22.7214 143.775 18.1164 144.024 12.1901C144.318 5.9499 139.083 0.723538 132.854 1.01135C121.22 1.44306 110.227 4.40619 99.7041 8.75604C74.9789 19.248 47.757 40.4216 40.561 67.6654C38.6525 74.8934 33.633 80.8327 27.0514 84.3584C11.13 92.8815 0.358859 109.758 0.600686 129.132C0.940551 156.631 23.79 178.544 51.2733 178.544H149.834C159.449 178.544 167.579 186.086 167.841 195.708C168.102 205.33 160.109 213.866 150.2 213.866H23.5873C10.9404 213.866 0.352323 224.221 0.59415 236.871C0.835977 249.522 10.8293 259 23.1364 259H331.035C343.342 259 353.342 249.136 353.577 236.871C353.819 224.221 343.231 213.866 330.584 213.866H330.597Z" fill="white" stroke="black" stroke-width="0.3" stroke-miterlimit="10"/>
</svg>
