<svg width="302" height="391" viewBox="0 0 302 391" fill="none" xmlns="http://www.w3.org/2000/svg">
<path d="M67.2405 345.984L67.2724 345.988C67.2599 345.986 67.253 345.985 67.2405 345.984ZM67.2405 345.984C67.7049 346.038 68.1307 346.088 68.5106 346.136C71.5106 346.508 77.8322 346.691 82.0106 346.136C83.3803 345.954 84.5573 345.844 85.6594 345.741C87.9192 345.53 89.8642 345.348 92.5105 344.635C95.1212 343.932 96.8941 343.335 98.8221 342.686C99.8015 342.356 100.821 342.012 102.01 341.635C104.405 340.875 106.311 339.996 108.381 339.041C109.364 338.588 110.384 338.118 111.51 337.635C115.01 336.135 117.437 335.606 121.51 335.135C125.584 334.663 128.9 334.613 132.51 335.135C136.121 335.656 140.51 337.311 142.51 338.135C144.51 338.959 147.98 341.759 151.51 344.635C153.989 346.655 155.821 348.919 157.818 351.387C158.664 352.433 159.54 353.516 160.51 354.635C161.864 356.197 163.139 357.825 164.413 359.452C166.206 361.743 167.998 364.032 170.01 366.135C173.421 369.701 177.802 373.097 182.874 377.029M67.2405 345.984C64.0364 345.608 58.9909 345.017 54.5106 343.636C49.3768 342.052 44.8642 340.312 40.5106 337.636C36.157 334.959 32.6885 332.636 30.0106 330.136C29.5145 329.672 28.9397 329.15 28.3079 328.576C25.529 326.049 21.6468 322.52 18.5105 318.635C14.661 313.867 13.0995 310.69 10.5105 305.135C7.92154 299.581 5.26573 292.247 4.51052 286.635C3.75531 281.023 3.51059 278.298 3.51059 272.636C3.51059 267.479 4.41641 263.249 5.26384 259.292C5.34693 258.905 5.42954 258.519 5.51059 258.136C5.7167 257.161 5.89583 256.223 6.06959 255.314C6.66114 252.219 7.19055 249.449 8.51052 246.635C10.2183 242.995 11.3402 241.02 13.5105 237.635C15.6808 234.251 18.1989 231.028 21.5105 227.135C22.1332 226.403 22.7384 225.676 23.3299 224.966L23.3372 224.957C25.8889 221.891 28.1846 219.133 30.5106 217.635C31.803 216.803 33.0512 215.736 34.3057 214.664C35.8341 213.358 37.3722 212.043 39.0106 211.136C39.2005 211.03 39.3966 210.923 39.5986 210.812C42.5708 209.179 46.8286 206.839 51.5106 201.635C56.5108 196.077 60.5869 190.878 63.0106 182.635C65.4342 174.393 66.34 170.552 65.0106 162.636C64.9149 162.066 64.8227 161.507 64.732 160.958C63.5622 153.874 62.6508 148.354 58.0106 141.136C53.0106 133.358 43.0106 126.136 36.0106 122.636C30.3772 119.819 26.1606 115.655 22.0251 111.572C21.0218 110.582 20.0234 109.596 19.0106 108.635C13.823 103.714 11.0383 99.0254 8.51059 94.6356C5.98283 90.2458 4.74112 87.0494 3.51076 82.1356C2.2804 77.2217 0.863325 69.9056 1.01059 64.6356C1.15785 59.3656 3.01046 48.6356 5.51046 42.6356C8.01046 36.6356 11.8541 29.2623 16.5105 24.1356C21.1668 19.0089 26.0106 14.5551 28.0106 13.1356C30.0106 11.7161 38.0209 6.13538 47.0105 3.6356C56 1.13581 63.0209 0.731929 70.5105 1.13556C78 1.5392 84.0105 3.27901 87.5105 4.63491C91.0105 5.99081 103.289 12.2349 109.511 17.6352C115.732 23.0355 123.274 33.191 126.511 41.1352C129.747 49.0795 130.772 55.1691 131.01 61.6349C131.249 68.1007 129.879 74.8425 129.01 78.6349C128.911 79.0707 128.812 79.4919 128.717 79.9015C127.981 83.0563 127.406 85.521 127.51 88.6349C127.628 92.1531 128.202 94.457 129.51 97.1352C130.818 99.8134 131.438 100.493 133.51 102.635C135.583 104.777 138.127 106.593 142.01 107.635C145.894 108.677 148.86 108.742 153.01 107.635C155.648 106.931 157.709 105.081 159.663 103.326C160.784 102.32 161.87 101.344 163.01 100.635C164.407 99.7655 165.51 98.9335 166.59 98.1191C167.927 97.1099 169.23 96.1275 171.01 95.1349C174.229 93.3412 177.173 91.7995 182.51 90.1349C187.41 88.6071 193.572 88.6202 199.442 88.6327C199.965 88.6338 200.493 88.6349 201.01 88.6349C207.335 88.6349 210.871 89.1182 217.01 90.6349C223.15 92.1516 228.585 94.5611 233.51 97.6349C238.436 100.709 240.725 102.454 243.51 105.135C246.296 107.816 249.048 110.655 251.51 113.635C253.973 116.615 255.82 119.524 258.01 123.635C260.109 127.574 261.057 130.953 262.34 135.529L262.51 136.135C263.884 141.023 264.851 145.534 265.01 151.635C265.17 157.736 264.135 165.97 262.51 171.135C260.886 176.3 260.03 178.842 257.51 183.635C255.72 187.042 254.007 189.086 251.868 191.639C250.998 192.678 250.056 193.801 249.01 195.135C246.46 198.388 243.013 201.311 240.514 203.432C239.47 204.317 238.59 205.064 238.01 205.635C236.044 207.573 234.827 209.177 233.51 211.135C232.473 212.679 232.172 214.092 231.82 215.745C231.726 216.189 231.627 216.65 231.51 217.135C230.957 219.429 230.996 222.465 231.51 225.135C232.025 227.806 233.156 230.777 234.51 233.135C235.865 235.493 238.51 237.968 242.51 239.635C244.747 240.567 246.358 241.082 248.305 241.704C249.84 242.195 251.587 242.754 254.01 243.635C259.511 245.635 263.51 248.043 266.51 250.135C269.511 252.227 277.464 259.155 281.51 263.135C285.005 266.571 286.701 269.136 288.913 272.482C289.263 273.012 289.626 273.56 290.01 274.135C292.829 278.344 294.085 280.586 296.01 285.135C297.624 288.947 298.233 291.762 299.023 295.41C299.176 296.116 299.336 296.854 299.51 297.635C300.589 302.455 300.973 306.442 301.01 312.135C301.014 312.718 301.02 313.287 301.025 313.845C301.072 318.735 301.11 322.788 300.01 328.135C298.785 334.092 297.235 338.723 295.01 344.135C292.786 349.547 290.762 352.77 287.51 357.635C284.259 362.5 282.198 365.34 277.51 369.635C272.823 373.93 263.608 379.973 261.51 381.135C259.413 382.296 251.01 386.505 243.51 388.135C236.01 389.765 229.953 390.191 222.51 390.135C215.068 390.079 211.18 389.635 204.01 387.635C196.841 385.635 188.14 381.112 183.01 377.135M183.01 377.135L182.874 377.029M183.01 377.135C182.965 377.1 182.919 377.064 182.874 377.029M146.846 243.844C151.799 246.936 155.187 249.05 161.01 250.135C166.964 251.244 172.122 251.799 177.51 250.635C182.899 249.471 185.482 248.37 189.01 244.135C192.539 239.899 193.294 234.171 192.51 228.635C191.727 223.099 188.266 219.638 184.01 216.135C181.048 213.696 178.158 212.652 175.279 211.611C174.023 211.157 172.768 210.703 171.51 210.135C167.372 208.264 165.133 206.875 161.51 204.135C161.072 203.803 160.626 203.473 160.175 203.138C156.893 200.704 153.3 198.039 150.01 193.135C149.412 192.242 148.826 191.383 148.254 190.543C145.25 186.136 142.626 182.287 140.51 177.135C137.992 171.002 137.23 166.842 136.51 160.635C135.923 155.563 136.429 152.11 137.07 147.738C137.214 146.759 137.364 145.735 137.51 144.635C137.725 143.026 137.969 141.565 138.201 140.171C138.838 136.36 139.389 133.058 139.01 128.635C138.493 122.594 137.26 118.41 133.51 115.135C129.761 111.86 126.971 111.05 122.01 110.635C117.05 110.219 112.447 111.08 107.511 114.135C106.516 114.75 105.593 115.308 104.717 115.837C101.242 117.935 98.5045 119.588 95.0105 122.636C90.6355 126.452 86.3854 131.574 84.5105 134.635C82.6356 137.696 80.8942 141.156 80.0105 144.635C79.8881 145.117 79.742 145.675 79.5812 146.289C78.5811 150.107 77.0105 156.102 77.0105 159.635C77.0105 163.735 77.4478 168.573 78.0105 172.635C78.5732 176.697 79.313 178.758 81.0105 183.135C82.708 187.512 85.551 192.849 90.5105 196.635C91.9825 197.759 93.4592 198.974 94.9524 200.203C98.4899 203.115 102.121 206.104 106.01 208.135C107.348 208.833 108.677 209.47 109.994 210.101C114.124 212.079 118.147 214.006 122.011 217.635C127.106 222.422 129.813 225.344 134.51 230.635C136.045 232.364 137.31 234.009 138.496 235.551C140.94 238.73 143.051 241.477 146.51 243.635M146.846 243.844L146.51 243.635M146.846 243.844C146.735 243.775 146.623 243.705 146.51 243.635" stroke="black" stroke-width="0.3"/>
</svg>
