<svg width="307" height="399" viewBox="0 0 307 399" fill="none" xmlns="http://www.w3.org/2000/svg">
<g filter="url(#filter0_i_4198_1524)">
<path d="M109.635 0C132.93 9.60538e-05 154.343 10.5503 168.394 28.9355C174.073 36.3352 178.339 44.1112 181.124 52.125C185.42 64.4972 195.625 73.9674 208.375 77.4346C211.88 78.3855 215.456 78.8506 219.001 78.8506C228.366 78.8505 237.559 75.6013 244.88 69.4697C247.935 66.9141 251.351 65.1812 255.016 64.3193C256.268 64.0222 257.5 63.8828 258.732 63.8828C264.04 63.883 269.337 66.5782 273.263 71.2734C277.419 76.2461 279.713 83.0014 279.713 90.292C279.713 97.5728 277.419 104.339 273.263 109.312C273.013 109.599 272.763 109.887 272.512 110.164C265.091 118.237 261.365 128.975 262.207 139.852C263.048 150.728 268.387 160.783 276.959 167.638C283.75 173.076 300.164 189.907 305.853 228.787V228.836L305.874 228.807C308.798 249.787 306.004 267.083 297.801 278.891L297.621 279.148C290.51 289.549 278.762 296.285 265.392 297.633C250.55 299.129 237.77 308.659 232.242 322.358C226.713 336.058 229.337 351.67 239.051 362.863C248.055 373.225 254.085 385.389 256.969 399H67.8911C66.7694 390.828 67.4813 383.418 70.0552 376.365C71.1268 373.413 72.5484 370.55 74.311 367.786C81.3717 356.721 82.4632 342.923 77.2153 330.917C71.9774 318.911 61.071 310.234 48.0913 307.737C47.2601 307.589 46.4186 307.391 45.5874 307.183C31.6864 303.656 19.4676 296.058 11.105 285.766C2.89272 275.672 -0.973145 263.804 0.208496 252.363V252.313C2.31169 234.047 14.0101 215.503 30.0444 205.072C39.709 198.782 46.1588 188.667 47.7212 177.325C49.2834 165.993 45.8179 154.532 38.2065 145.914C28.3817 134.79 23.2937 116.741 24.2251 96.3945C25.2967 73.1951 33.7995 50.0943 48.1812 31.3623C63.4443 11.4119 86.3399 7.11884e-05 109.635 0ZM208.285 90.4111C207.784 90.4111 207.293 90.4216 206.792 90.4414C193.583 90.9269 181.464 97.8211 174.404 108.876C168.305 118.435 159.851 126.865 149.305 133.928C149.295 133.938 149.285 133.947 149.275 133.947C134.773 143.467 120.11 150.609 105.708 155.156C93.5304 159 83.9461 168.361 79.8999 180.356C75.8538 192.352 77.8366 205.528 85.2378 215.84C92.4487 225.894 96.956 239.069 97.9175 252.928C98.0076 254.245 98.0576 255.603 98.0776 256.92C98.1878 265.053 96.9354 272.66 94.3716 279.555C89.4643 292.729 91.9784 307.5 100.982 318.366C108.653 327.628 120.071 332.868 131.958 332.868C134.012 332.868 136.086 332.71 138.159 332.393C144.869 331.353 151.779 330.827 158.7 330.827C162.615 330.827 166.581 330.996 170.477 331.343C171.669 331.452 172.861 331.501 174.042 331.501C188.064 331.501 201.174 324.22 208.445 312.165C216.327 299.089 215.936 282.705 207.444 270.016C199.241 257.742 196.377 243.378 199.171 228.47C202.296 211.739 209.807 195.463 220.323 182.605C225.08 176.781 230.268 171.937 235.726 168.202C245.261 161.674 251.47 151.392 252.752 139.99L252.762 140C254.044 128.598 250.268 117.216 242.417 108.776C241.736 108.044 241.085 107.261 240.474 106.449C232.903 96.3453 220.944 90.4111 208.285 90.4111ZM54.1147 212.99C52.8448 212.99 51.5741 213.16 50.3042 213.49C33.5843 217.85 18.2745 236.62 16.1245 255.36C14.4746 272.03 29.4344 289.25 50.2642 294.58C52.4339 295.14 54.6143 295.431 56.7241 295.431H56.7349C63.0646 295.431 68.9149 292.89 73.6548 288.09C80.4344 281.22 84.0842 270.73 83.9243 258.561C83.9143 257.491 83.8644 256.4 83.7944 255.34C82.9344 242.72 78.7647 231.31 72.0649 223.2C66.6951 216.71 60.1546 212.99 54.1147 212.99ZM257.2 176.76C256.85 176.76 256.5 176.77 256.15 176.8C240.51 179.01 219.27 202.67 213.6 233.37C211.4 245.29 213.9 256.58 220.83 266.029C228.7 276.749 241.25 283.669 256.18 285.529C257.47 285.659 258.75 285.729 260.01 285.729C270.47 285.729 279.5 281.21 284.78 273.34C284.82 273.28 284.87 273.209 284.91 273.149C291 264.369 292.94 250.519 290.55 233.189C286.07 202.08 271.11 176.76 257.2 176.76ZM110.464 19C92.7545 19.0001 76.6246 27.4202 65.0347 42.75C38.6147 77.56 41.5148 122.83 56.3647 135.26C60.8447 139.05 67.3349 140.97 75.6548 140.97H75.6646C93.1845 140.97 116.835 132.23 138.935 117.58C153.485 107.71 162.765 94.5797 165.065 80.5898C167.245 67.34 163.145 53.4197 153.185 40.2998C142.975 26.7699 128.174 19.0001 110.464 19ZM259.315 73.4902C258.865 73.4902 258.415 73.5502 257.935 73.6602C249.985 75.5302 245.635 83.5404 245.555 90.1504C245.635 96.7704 249.985 104.77 257.965 106.65C258.405 106.76 258.865 106.811 259.315 106.811V106.8C264.485 106.8 270.265 99.9601 270.265 90.1504C270.265 80.3306 264.495 73.4905 259.315 73.4902Z" fill="white"/>
</g>
<defs>
<filter id="filter0_i_4198_1524" x="0" y="0" width="307" height="399" filterUnits="userSpaceOnUse" color-interpolation-filters="sRGB">
<feFlood flood-opacity="0" result="BackgroundImageFix"/>
<feBlend mode="normal" in="SourceGraphic" in2="BackgroundImageFix" result="shape"/>
<feColorMatrix in="SourceAlpha" type="matrix" values="0 0 0 0 0 0 0 0 0 0 0 0 0 0 0 0 0 0 127 0" result="hardAlpha"/>
<feOffset/>
<feGaussianBlur stdDeviation="4.9"/>
<feComposite in2="hardAlpha" operator="arithmetic" k2="-1" k3="1"/>
<feColorMatrix type="matrix" values="0 0 0 0 0 0 0 0 0 0 0 0 0 0 0 0 0 0 0.29 0"/>
<feBlend mode="normal" in2="shape" result="effect1_innerShadow_4198_1524"/>
</filter>
</defs>
</svg>
