<svg xmlns="http://www.w3.org/2000/svg" width="354" height="84" viewBox="0 0 354 84" fill="none">
  <path d="M353.342 0.788724C350.749 0.788724 350.061 1.09979 346.78 1.09979C341.436 1.09979 342.441 0.788724 335.88 0.788724C327.043 0.788724 326.143 1.09979 323.339 1.09979C320.482 1.09979 321.381 0.788724 316.883 0.788724C316.46 0.788724 316.248 0.996103 316.248 1.25533C316.248 1.46271 316.46 1.72193 316.883 1.72193C320.323 1.72193 322.598 1.82562 324.239 4.57341L334.187 21.3194C334.345 21.6823 334.504 21.9933 334.504 22.4081V36.4581C334.504 37.5469 334.504 38.3764 334.398 39.0504C334.24 39.9317 333.446 40.502 332.546 40.502C332.229 40.502 331.911 40.502 331.594 40.502C330.112 40.502 328.683 40.7094 327.361 41.1242C326.302 41.4352 325.191 41.4871 324.186 41.1242C322.439 40.4502 321.699 39.0504 320.746 36.6655L307.888 2.86253C307.306 1.30717 305.771 0.788724 303.284 0.788724H294.342C294.183 0.788724 294.077 0.840568 293.971 0.840568C291.696 0.944258 290.743 1.04795 288.944 1.04795C283.6 1.04795 283.229 0.736878 275.715 0.736878C267.884 0.736878 268.201 1.04795 262.169 1.04795C256.666 1.04795 256.613 0.736878 251.798 0.736878C246.136 0.736878 245.395 1.04795 241.426 1.04795C238.992 1.04795 238.41 0.892414 235.659 0.788724C231.425 0.477654 227.139 0.166583 222.906 0.0628925C208.46 -0.351868 193.697 1.20348 180.468 7.16566C171.579 11.0022 163.641 16.6533 156.498 22.9784C153.746 25.3114 151.047 27.8518 148.137 30.0293C147.29 26.6075 145.597 23.3413 142.74 21.112C140.835 19.6085 138.348 18.6753 135.861 18.6234C134.908 18.5716 133.956 18.6753 133.056 18.8826C124.061 12.0909 113.954 6.23245 102.577 4.46972C99.2436 4.05496 95.7512 3.74389 92.5234 4.62525C92.3117 3.43282 92.153 2.39592 92.0472 1.67009C91.9413 0.736879 91.8884 0.166583 91.2534 0.166583C90.6185 0.166583 90.1422 0.736878 88.396 0.736878H62.4676C62.0443 0.736878 61.8327 0.944258 61.8327 1.20348C61.8327 1.41086 62.0443 1.67009 62.4676 1.67009H65.6955C71.6219 1.67009 71.9923 4.15865 71.9394 8.46179L71.7278 15.2016C71.7278 16.4459 70.5636 17.6902 69.2937 17.6902H51.9904C50.5617 17.6902 49.6093 16.2385 49.6093 14.9943V5.2474C49.6093 2.49961 52.0963 1.72193 59.2398 1.72193C59.5573 1.72193 59.716 1.51455 59.716 1.25533C59.716 1.09979 59.5573 0.840568 59.2398 0.840568C53.7366 0.840568 53.4721 1.04795 48.3922 1.04795C45.9052 1.04795 44.4765 0.736878 39.9787 0.736878C39.5554 0.736878 39.3437 0.944258 39.3437 1.20348C39.3437 1.41086 39.5554 1.67009 39.9787 1.67009C44.4765 1.67009 46.9635 2.6033 46.9635 7.21751V36.6136C46.9635 39.7243 45.9581 40.8649 43.5769 41.2797C43.2595 41.3315 42.8891 41.3834 42.5186 41.3834L40.1375 41.4352H39.9258L30.0836 41.5389C30.0307 41.5389 30.0307 41.5389 29.9778 41.5389C28.3374 41.5389 27.0145 41.4871 25.9562 41.3834H25.9033C25.3212 41.2797 24.7392 41.176 24.3159 40.9686C21.9876 39.9836 21.6701 37.4432 21.6701 30.807L21.6172 8.51363C21.6172 4.6771 21.7759 1.72193 26.115 1.72193C34.7401 1.72193 36.3276 5.04002 38.7088 15.6682C38.8146 16.0312 39.0792 16.2385 39.2908 16.2385C39.4496 16.2385 39.6612 16.083 39.6612 15.7201V15.5127C38.3913 8.72101 37.4917 2.91437 37.2801 1.72193C37.2271 1.15164 37.2271 0.218427 36.4863 0.218427C35.8513 0.218427 35.428 0.788724 33.576 0.788724H6.11307C4.26104 0.788724 3.83772 0.218427 3.20274 0.218427C2.51484 0.218427 2.51484 1.15164 2.40901 1.72193C2.25026 2.86252 1.29779 8.72101 0.0278312 15.5127C-0.077999 16.0312 0.133662 16.2904 0.398237 16.2904C0.609898 16.2904 0.927387 16.083 0.980302 15.7201C3.20274 4.88448 5.26642 1.72193 13.5741 1.72193C18.6539 1.72193 18.8656 4.6771 18.8656 8.51363C18.8656 9.29131 18.9714 12.8686 18.9714 30.807C18.9714 37.1839 18.4423 39.7762 16.2198 40.8649C16.2728 40.8649 16.3257 40.8649 16.3257 40.8649C16.2728 40.8649 16.2728 40.8649 16.2198 40.8649C15.5849 41.176 14.6853 41.3834 13.8916 41.4352C12.8862 41.5389 9.18214 41.5908 7.70052 41.5908C7.2772 41.5908 7.11845 41.7981 7.11845 42.0055C7.11845 42.2129 7.2772 42.4721 7.70052 42.4721C7.85926 42.4721 9.3938 42.4721 9.71129 42.4721C10.1875 42.4721 10.3463 43.0943 9.97587 43.3535C3.7848 47.3456 0.821557 55.1742 0.821557 62.0695C0.821557 73.2162 7.33011 84 19.7652 84C33.7347 84 39.4496 73.2681 39.4496 61.8622C39.4496 55.226 36.7509 47.6048 30.454 43.509C30.0307 43.198 30.1894 42.524 30.7186 42.524L41.3016 42.4203C45.6406 42.6277 46.9106 43.9238 46.9106 49.0564V74.6161C46.9106 80.7856 46.5931 82.1854 39.8729 82.1854C39.4496 82.1854 39.2908 82.3928 39.2908 82.652C39.2908 82.8076 39.4496 83.0668 39.82 83.0668H56.7528C57.229 83.0668 57.4407 82.8594 57.4407 82.6002C57.4407 82.4446 57.229 82.1854 56.7528 82.1854C50.5617 82.1854 49.6093 78.3489 49.6093 74.6161V66.4764C49.6093 63.8841 49.9268 61.7585 53.3133 61.7585C60.8273 61.7585 61.6739 62.1732 65.4309 67.5651C65.8542 68.1354 66.4363 68.602 66.4363 68.602C66.7538 68.602 66.9125 68.4465 66.9125 68.1873C66.9125 68.1354 66.8596 68.0317 66.8067 67.8762C62.6264 61.6029 61.1448 55.4334 60.986 54.3446C60.9331 53.9817 60.7743 53.878 60.5627 53.878C60.4039 53.878 60.1394 54.0854 60.1394 54.4483V54.5002C60.2452 55.8481 60.2981 56.8851 60.2981 57.7664C60.2981 61.0845 59.134 61.0845 53.3133 61.0845C50.0326 61.0845 49.6093 59.3736 49.6093 56.9887V49.1601C49.6093 45.2199 49.9268 42.3166 54.8479 42.3166C55.2183 42.3166 55.5358 42.3166 55.9062 42.3166C56.4353 42.3166 57.0174 42.3166 57.7053 42.3684C63.2614 42.5758 65.5367 44.183 68.6058 56.3666C68.6587 56.7295 68.9233 56.885 69.082 56.885C69.2937 56.885 69.5053 56.6777 69.5053 56.3666V56.3148C69.3995 55.226 68.0237 47.9159 67.3887 43.9238C67.2829 43.0943 67.9179 42.4203 68.7116 42.4203H84.057C88.2373 42.6795 89.5072 43.9756 89.5072 49.0564V74.6161C89.5072 80.7856 89.1898 82.1854 82.4695 82.1854C82.0462 82.1854 81.8875 82.3928 81.8875 82.652C81.8875 82.8076 82.0462 83.0668 82.4166 83.0668H99.3494C99.8257 83.0668 100.037 82.8594 100.037 82.6002C100.037 82.4446 99.8257 82.1854 99.3494 82.1854C93.1584 82.1854 92.2059 78.3489 92.2059 74.6161V66.4764C92.2059 63.8841 92.5234 61.7585 95.91 61.7585C99.1378 61.7585 102.736 61.5511 105.17 63.936C106.969 65.6987 108.133 67.9799 109.932 69.7426C111.679 71.4535 113.742 72.9052 116.071 73.8902C116.335 73.9939 116.653 74.0976 116.917 74.2013C117.711 74.4605 118.505 74.6679 119.298 74.8234C119.246 80.3708 118.24 82.1336 112.314 82.1336C111.89 82.1336 111.679 82.341 111.679 82.5483C111.679 82.7557 111.89 83.0149 112.314 83.0149H139.882C141.893 83.0149 142.264 83.5852 142.899 83.5852C143.428 83.5852 143.534 83.1705 143.586 82.8076C143.904 80.1116 145.703 69.8463 146.021 68.3946C146.126 67.8243 145.968 67.5133 145.65 67.5133C145.438 67.5133 145.068 67.8243 144.962 68.3428C141.417 82.1336 141.099 82.1336 130.993 82.1336C123.267 82.1336 122.05 79.2821 121.944 75.2382C125.648 75.5493 129.141 74.6679 132.527 72.2312C139.988 67.0467 145.333 56.8332 147.449 48.2269C148.613 43.5609 148.984 38.7393 148.56 33.9695C148.56 33.7622 148.508 33.6066 148.508 33.3993C148.772 33.6066 148.984 33.814 149.248 34.0214C150.889 35.3175 152.582 36.5618 154.275 37.7542C156.233 39.1022 158.085 40.6576 160.096 41.9537C152.265 45.4273 148.613 54.2928 148.613 62.0177C148.613 73.1644 155.122 83.9482 167.557 83.9482C181.527 83.9482 187.241 73.2162 187.241 61.8103C187.241 53.878 183.379 44.4941 174.066 41.4352C174.701 40.8131 175.283 40.1391 175.812 39.4651C178.352 36.1989 180.786 32.8808 183.643 29.9256C189.146 24.119 196.449 19.5048 204.598 18.8826C213.011 18.2087 220.419 23.4968 220.737 32.1031C220.948 34.8509 219.89 38.3764 218.99 41.4352C216.768 41.5389 215.445 41.6426 211.847 41.6426C206.344 41.6426 206.291 41.3315 201.476 41.3315C195.814 41.3315 195.073 41.6426 191.104 41.6426C187.876 41.6426 187.982 41.3315 182.003 41.3315C181.579 41.3315 181.368 41.5389 181.368 41.7981C181.368 42.0055 181.579 42.2647 182.003 42.2647C188.141 42.2647 188.935 43.2498 191.104 48.2788L205.55 81.8225C205.92 82.6002 205.973 82.9631 206.132 82.9631C206.291 82.9631 206.502 82.5483 206.714 81.8225L215.022 57.5072C215.233 56.7295 215.921 56.6777 216.186 57.4553L226.61 81.8225C226.981 82.6002 227.139 82.9631 227.245 82.9631C227.404 82.9631 227.563 82.5483 227.774 81.8225L238.728 46.4642C239.574 43.8719 239.733 42.4721 245.924 42.3166C251.798 42.524 252.062 44.857 252.062 49.1083V74.5642C252.062 80.8893 251.745 82.1336 245.025 82.1336C244.601 82.1336 244.443 82.341 244.443 82.6002C244.443 82.7557 244.601 83.0149 244.972 83.0149H270.212C272.276 83.0149 272.541 83.5852 273.228 83.5852C273.916 83.5852 273.916 82.6002 274.022 82.2373C274.657 77.312 275.927 70.8832 276.456 68.3428C276.562 67.8762 276.297 67.5133 275.98 67.5133C275.821 67.5133 275.557 67.6688 275.504 68.0317C272.54 82.0299 271.165 82.0817 260.74 82.0817C255.978 82.0817 254.814 77.8304 254.814 73.4236V66.3727C254.814 63.7804 255.131 61.6548 258.518 61.6548C266.032 61.6548 266.879 62.0695 270.636 67.4614C271.059 68.0317 271.641 68.4983 271.641 68.4983C271.958 68.4983 272.117 68.3428 272.117 68.0836C272.117 68.0317 272.064 67.928 272.011 67.7725C267.831 61.4992 266.349 55.3297 266.191 54.241C266.138 53.878 265.979 53.7743 265.767 53.7743C265.556 53.7743 265.344 53.9817 265.344 54.3446V54.3965C265.45 55.7445 265.503 56.7814 265.503 57.6627C265.503 60.9808 264.339 60.9808 258.518 60.9808C255.237 60.9808 254.814 59.2699 254.814 56.885V49.0564C254.814 44.7533 255.819 42.2129 260.053 42.2129C267.778 42.2129 270.318 42.3166 273.758 56.2111C273.81 56.574 274.075 56.7295 274.234 56.7295C274.445 56.7295 274.657 56.5221 274.657 56.2111V56.1592C274.551 55.1223 273.281 48.3825 272.593 44.2867C272.435 43.3017 273.176 42.4203 274.234 42.3684L279.949 42.2647C280.319 42.2647 280.689 42.2647 281.06 42.3684C284.393 42.9387 285.24 44.7533 285.24 48.3306V76.7417C285.24 81.4077 283.282 81.978 278.202 81.978C277.779 81.978 277.62 82.1854 277.62 82.3928C277.62 82.6002 277.779 82.8594 278.202 82.8594C283.864 82.8594 284.658 82.5483 287.092 82.5483C289.209 82.5483 290.479 82.8594 295.029 82.8594C295.347 82.8594 295.506 82.652 295.506 82.4446C295.506 82.2373 295.347 81.978 295.029 81.978C291.325 81.978 288.045 81.978 288.045 78.1934V66.7874C288.045 66.1653 288.733 65.7505 290.003 65.7505C293.601 65.7505 301.591 69.0686 307.782 78.1934L307.888 78.3489C308.311 78.971 308.523 79.4895 308.523 79.9561C308.523 81.5633 305.454 81.9262 299.157 81.9262C298.733 81.9262 298.575 82.1336 298.575 82.3928C298.575 82.5483 298.733 82.8076 299.157 82.8076C307.888 82.8076 308.364 82.4965 311.01 82.4965C313.973 82.4965 314.026 82.8076 318.524 82.8076C319 82.8076 319.159 82.6002 319.159 82.341C319.159 82.1854 319 81.9262 318.524 81.9262C315.984 81.9262 313.761 81.9262 311.327 78.8155C311.274 78.7636 311.274 78.7118 311.221 78.66L310.904 78.1415C308.047 73.4754 303.231 68.6539 300.003 67.0467C299.316 66.6838 298.998 66.4764 298.998 66.269C298.998 64.9729 311.01 65.8024 311.01 54.1891C311.01 48.0714 307.57 44.0793 301.908 42.2647L313.761 42.1092C313.761 42.1092 317.836 41.85 320.535 41.85C321.011 41.85 321.381 41.9018 322.016 41.9537C322.863 42.0055 323.233 43.0424 322.651 43.6127C321.222 45.1681 320.323 47.2419 320.323 49.9378C320.323 56.5221 326.726 59.8402 332.387 62.8472C337.203 65.3358 343.605 68.6539 343.605 73.8384C343.605 78.3489 341.118 82.8076 334.187 82.8076C327.255 82.8076 323.815 82.8076 320.058 67.3577C319.9 66.8911 319.635 66.6838 319.423 66.6838C319.265 66.6838 319.106 66.8393 319.106 67.1504V67.3577C319.635 70.8314 321.275 80.4745 321.646 82.3928C321.699 82.8076 321.699 83.326 322.175 83.326C322.757 83.326 323.286 82.8076 324.768 82.8076C327.308 82.8076 328.842 83.7408 333.975 83.7408C339.796 83.7408 346.569 81.5114 346.569 72.6978C346.569 66.3727 339.425 63.1583 334.028 60.3587C328.789 57.6109 323.339 55.1742 323.339 49.0564C323.339 44.4422 327.89 41.2278 331.276 41.2278C337.15 41.2278 342.388 41.2278 345.722 55.4852C345.828 55.9 346.04 56.0555 346.198 56.0555C346.357 56.0555 346.569 55.9 346.569 55.4852C346.569 53.1004 344.188 42.0055 344.135 41.2278C344.029 40.3465 343.711 40.2428 343.447 40.2428C343.182 40.2428 342.918 40.3465 342.706 40.5539C342.441 40.7612 342.177 40.9686 341.859 41.0723C341.595 41.176 341.33 41.176 341.013 41.176C340.695 41.1242 340.431 41.1242 340.113 41.0723C339.796 41.0205 339.478 40.9686 339.161 40.8649C338.896 40.8131 338.631 40.7094 338.42 40.5539C338.208 40.4502 338.049 40.3465 337.838 40.1909C337.679 40.0354 337.52 39.8799 337.414 39.7243C337.309 39.517 337.203 39.3096 337.15 39.1022C337.044 38.843 336.991 38.6356 336.991 38.3764C336.938 38.0653 336.938 37.8061 336.885 37.495C336.885 37.1321 336.832 36.821 336.832 36.4581C336.832 36.4063 336.832 36.3026 336.832 36.2507V21.8378C336.832 21.423 336.885 21.1638 337.15 20.7491C340.536 14.735 341.066 13.75 345.563 6.02507C347.997 1.72194 348.474 1.72193 353.289 1.72193C353.765 1.72193 353.977 1.51455 353.977 1.25533C354.083 0.996103 353.818 0.788724 353.342 0.788724ZM27.3849 41.85C27.0145 41.6945 26.697 41.5908 26.3266 41.4871C26.697 41.5908 27.0145 41.7463 27.3849 41.85ZM36.1159 61.9659C36.1159 78.5563 26.3266 82.9631 19.7122 82.9631C13.5741 82.9631 4.15521 77.7786 4.15521 62.2251C4.15521 47.0863 15.0028 41.5389 19.7122 41.5389C25.3742 41.4871 36.1159 47.0863 36.1159 61.9659ZM71.7278 33.9695C71.7278 37.5987 71.6219 39.5688 70.2991 40.5539C69.0291 41.4871 68.0237 41.2278 62.7322 41.4871C61.6739 41.5389 60.5627 41.4871 59.5044 41.4871C57.9169 41.4871 56.2766 41.4871 54.6891 41.4871C54.5833 41.4871 54.4775 41.4871 54.3716 41.4871C51.1967 41.2797 49.6093 40.4502 49.6093 37.8061V20.9564C49.6093 20.0751 50.5617 18.6753 51.9904 18.6753H69.2408C70.6166 18.6753 71.7278 19.764 71.7278 21.112V33.9695ZM306.671 7.99518C306.829 7.99518 307.041 8.20256 307.2 8.77286L313.391 24.8448C313.814 25.9336 314.026 26.7631 314.026 27.3852C314.026 28.4221 313.391 28.8369 312.015 28.8369H302.332C300.215 28.8369 299.263 28.4221 299.263 27.2297C299.263 26.7112 299.421 25.9336 299.792 25.0004L305.718 9.49869C306.089 8.56548 306.353 7.99518 306.671 7.99518ZM146.021 31.3773C145.809 31.5328 145.597 31.6365 145.438 31.7921C143.481 32.9845 141.417 33.9177 139.194 34.0732C135.067 34.2806 129.881 31.9476 128.506 27.8C127.447 24.6374 128.982 21.112 132.21 19.9195C136.919 23.6524 141.47 27.6444 146.021 31.3773ZM146.285 30.0812C142.846 27.0223 139.459 23.9635 135.808 21.112C135.12 20.5935 134.432 20.0232 133.744 19.5048C140.2 18.2605 145.333 23.9634 146.285 30.0812ZM74.4794 8.56548C74.4794 3.38097 75.4847 1.72193 80.9879 1.72193C85.2211 1.77378 87.761 2.13669 89.8247 5.66216C87.0202 6.80275 85.327 9.29131 84.9565 12.1946C84.8507 12.9723 84.7978 13.8018 84.8507 14.5795C84.9565 16.0312 85.4328 17.6902 84.8507 19.09C84.5332 19.8158 83.8453 20.1269 83.1045 20.2825C81.5171 20.5935 79.7709 20.4898 78.1305 20.4898C74.8498 20.4898 74.4264 18.779 74.4264 16.3941V8.56548H74.4794ZM136.76 66.5801C134.009 70.1574 130.305 73.5273 125.701 74.4605C124.484 74.6679 123.214 74.7197 121.891 74.6679C121.891 74.5642 121.891 74.5124 121.891 74.4087V48.4862C121.891 44.5459 122.209 42.3684 129.035 42.3684C129.405 42.3684 129.511 42.1611 129.511 41.9018C129.511 41.6945 129.405 41.4352 129.035 41.4352C123.743 41.4352 124.431 41.7463 120.568 41.7463C117.076 41.7463 116.706 41.4352 112.261 41.4352C111.837 41.4352 111.626 41.6426 111.626 41.9018C111.626 42.1092 111.837 42.3684 112.261 42.3684C117.182 42.3684 119.246 43.4572 119.246 48.4343V74.305C117.923 74.0458 116.653 73.5791 115.436 73.0607C112.419 71.4535 109.88 68.9649 108.133 66.1135C104.853 60.5142 103.636 55.4334 103.477 54.4483C103.424 54.0854 103.265 53.9817 103.053 53.9817C102.895 53.9817 102.63 54.1891 102.63 54.552V54.6039C102.736 55.9518 102.789 56.9887 102.789 57.8701C102.789 61.1882 101.625 61.1882 95.8041 61.1882C92.5234 61.1882 92.1001 59.4773 92.1001 57.0924V49.2638C92.1001 45.3236 92.4176 42.4203 97.3387 42.4203C105.064 42.4203 107.551 42.4203 111.044 56.4184C111.097 56.7814 111.361 56.9369 111.52 56.9369C111.732 56.9369 111.943 56.7295 111.943 56.4184V56.3666C111.837 55.0705 109.985 45.531 109.562 42.4203C109.456 41.4871 109.403 40.9168 108.768 40.9168C108.133 40.9168 107.657 41.4871 105.911 41.4871H95.7512C94.64 41.4871 93.7934 40.502 93.9521 39.4133C94.64 34.9546 95.5925 29.9775 96.0687 27.8C96.1745 27.3334 95.91 26.9705 95.5925 26.9705C95.4337 26.9705 95.1692 27.126 95.1162 27.4889C92.6821 38.7911 91.3593 41.0205 85.3799 41.4352C85.3799 41.4352 83.7924 41.5908 81.9933 41.5389C81.7287 41.5389 81.4641 41.5389 81.1996 41.5389H79.8238C75.4847 41.5389 74.4264 37.1321 74.4264 32.8808V25.8299C74.4264 23.2376 74.7439 21.112 78.1305 21.112C85.6444 21.112 86.4911 21.5267 90.248 26.9186C90.6714 27.4889 91.2534 27.9555 91.2534 27.9555C91.5709 27.9555 91.7297 27.8 91.7297 27.5408C91.7297 27.4889 91.6768 27.3852 91.6238 27.2297C90.2481 25.104 89.031 22.8747 88.0256 20.5417C87.0732 18.2605 86.1207 15.9275 86.0678 13.3871C86.0148 11.5206 86.4382 9.65422 87.6023 8.15072C88.2902 7.26935 89.1898 6.54352 90.1422 6.02507C91.2534 8.09887 92.3117 11.1577 93.423 15.6164C93.4759 15.9793 93.7404 16.1349 93.8992 16.1349C94.1108 16.1349 94.3225 15.9275 94.3225 15.6164V15.5646C94.2167 14.6313 93.2113 9.08393 92.4705 4.98817C95.6454 4.05496 99.1378 4.36603 102.366 4.83264C113.478 6.69906 122.791 12.4539 131.469 19.2456C128.029 20.5935 126.019 23.8079 127.183 28.1111C128.611 32.9326 134.326 35.836 139.3 35.7323C141.893 35.6286 144.327 34.5917 146.444 33.3993C146.497 33.3993 146.55 33.3474 146.55 33.2956C147.079 45.0644 143.639 56.9369 136.76 66.5801ZM183.908 61.9659C183.908 78.5563 174.118 82.9631 167.504 82.9631C161.366 82.9631 151.947 77.7786 151.947 62.2251C151.947 51.7005 157.186 45.7902 162.001 43.198C162.9 43.6646 163.906 44.0793 164.911 44.3904C168.033 45.3236 170.573 44.4422 172.69 42.7314C178.034 45.0644 183.908 50.9747 183.908 61.9659ZM162.53 42.8869C164.435 41.9537 166.234 41.4871 167.557 41.4871C168.88 41.4871 170.467 41.7981 172.161 42.4721C170.203 44.0275 167.927 44.8052 165.07 43.9238C164.17 43.6646 163.324 43.3016 162.53 42.8869ZM218.726 42.3684C218.567 42.9387 218.408 43.509 218.25 44.0275C217.562 46.3087 216.874 48.5898 216.186 50.871L215.128 48.3306C214.598 47.0863 214.334 46.1531 214.334 45.3755C214.387 43.2498 216.186 42.5758 218.726 42.3684ZM206.714 77.5712C206.291 77.5712 205.92 76.4306 205.391 75.1863L194.015 48.3306C193.485 47.0863 193.327 46.1013 193.327 45.3236C193.327 42.7832 195.919 42.3684 201.264 42.3684C209.254 42.3684 209.889 42.7832 212.217 48.3825L214.651 54.0854C214.81 54.5002 214.81 54.8631 214.704 55.226L207.296 76.7417C207.085 77.3638 206.926 77.5712 206.714 77.5712ZM236.982 48.3306L228.462 76.638C228.303 77.2601 228.039 77.5712 227.88 77.5712C227.51 77.5712 227.192 76.5862 226.769 75.6529L216.821 52.1672C217.773 48.9009 218.726 45.5828 219.678 42.3166C220.155 42.3166 220.684 42.2647 221.213 42.2647L224.97 42.3166C232.695 42.3166 237.352 42.524 237.352 46.2568C237.352 46.879 237.246 47.6048 236.982 48.3306ZM254.708 41.4352H245.025C244.972 41.4352 240.739 41.7463 238.622 41.7463C233.278 41.7463 232.907 41.4352 225.393 41.4352C222.906 41.4352 221.266 41.4871 219.943 41.4871C220.26 40.4502 220.578 39.3614 220.895 38.3245C224.864 26.7112 217.191 15.9275 204.492 16.8088C195.761 17.3791 188.035 22.6673 182.638 29.0961C179.886 32.2068 177.664 35.7323 175.23 39.1022C174.648 39.8799 174.066 40.6576 173.378 41.3315C171.631 40.8131 169.674 40.5539 167.504 40.5539C164.964 40.5539 162.689 41.0205 160.625 41.85C158.561 40.4502 156.656 38.7911 154.699 37.2876C152.582 35.6804 150.518 33.9177 148.508 32.155C149.83 31.2736 151.047 30.2885 152.317 29.3035C161.313 21.7341 170.467 14.1647 181.368 9.60238C194.332 4.00311 208.619 1.46271 222.747 1.35902C224.335 1.35902 225.869 1.41086 227.457 1.46271C228.991 1.51455 230.526 1.51455 232.06 1.67009C233.119 1.72193 234.23 1.82562 235.288 1.98116C236.241 2.08485 237.246 2.29223 238.04 2.81068C239.733 3.84758 240.474 5.92138 241.215 7.68411C241.215 7.73596 241.268 7.73596 241.268 7.7878C241.268 7.7878 252.909 34.8509 255.343 40.502C255.608 40.8649 255.237 41.4352 254.708 41.4352ZM256.983 36.9247C256.56 36.9247 256.19 35.7841 255.661 34.5398L244.284 7.68411C243.755 6.43983 243.596 5.45478 243.596 4.6771C243.596 2.13669 246.189 1.72193 251.533 1.72193C259.523 1.72193 260.158 2.13669 262.487 7.73596L264.921 13.4389C265.079 13.8537 265.079 14.2166 264.974 14.5795L257.566 36.0952C257.354 36.7173 257.142 36.9247 256.983 36.9247ZM275.768 41.5389L273.916 41.5908C273.705 41.5908 273.493 41.5908 273.334 41.5908C270.953 41.4871 273.44 41.5908 268.625 41.4352H258.201C257.513 41.4352 257.036 40.8131 257.248 40.1909C258.941 35.162 265.185 16.9644 265.185 16.9644C265.397 16.1867 266.085 16.1349 266.349 16.9125C266.349 16.9125 274.393 35.6286 276.456 40.4502C276.774 40.9686 276.35 41.5389 275.768 41.5389ZM276.985 35.0064L265.397 7.68411C264.868 6.43983 264.603 5.55847 264.603 4.72895C264.603 1.98116 267.567 1.67009 271.429 1.67009L275.186 1.72193C282.912 1.72193 287.568 1.92931 287.568 5.66216C287.568 6.23245 287.463 6.95828 287.198 7.68411L278.679 35.9915C278.52 36.6136 278.255 36.9247 278.097 36.9247C277.779 36.9247 277.409 35.9397 276.985 35.0064ZM286.616 41.5389C286.457 41.5389 282.594 41.5389 282.224 41.5389C281.748 41.5389 281.272 41.4871 280.795 41.4871C280.372 41.4871 280.002 41.4871 279.578 41.4871C279.472 41.4871 279.367 41.4871 279.261 41.4871C278.202 41.4871 278.255 40.7612 278.361 40.3465C278.361 40.2428 278.414 40.1909 278.414 40.0873C278.467 39.9317 278.52 39.7762 278.573 39.6207C278.626 39.4133 278.679 39.2577 278.732 39.0504C278.785 38.843 278.837 38.6356 278.943 38.4282C278.996 38.2208 279.102 37.9616 279.155 37.7542C279.208 37.495 279.314 37.2358 279.367 37.0284C279.472 36.7692 279.525 36.51 279.631 36.2507C279.737 35.9915 279.79 35.6804 279.896 35.4212C280.002 35.1101 280.054 34.8509 280.16 34.5398C280.266 34.2288 280.372 33.9177 280.425 33.6066C280.531 33.2956 280.637 32.9326 280.742 32.6216C280.848 32.3105 280.954 31.9476 281.06 31.6365C281.166 31.2736 281.272 30.9625 281.377 30.5996C281.483 30.2367 281.589 29.8738 281.695 29.5109C281.801 29.148 281.906 28.785 282.012 28.4221C282.118 28.0592 282.224 27.6963 282.33 27.3334C282.436 26.9705 282.541 26.6075 282.7 26.1928C282.806 25.8299 282.912 25.4151 283.071 25.0522C283.176 24.6893 283.282 24.2745 283.441 23.9116C283.547 23.5487 283.653 23.1339 283.811 22.771C283.917 22.4081 284.023 21.9933 284.182 21.6304C284.288 21.2675 284.394 20.9046 284.552 20.4898C284.658 20.1269 284.764 19.764 284.923 19.4011C285.029 19.0382 285.134 18.6753 285.24 18.3123C285.346 17.9494 285.452 17.5865 285.558 17.2236C285.663 16.8607 285.769 16.4978 285.875 16.1867C285.981 15.8238 286.087 15.5127 286.193 15.1498C286.298 14.8387 286.404 14.4758 286.51 14.1647C286.616 13.8537 286.722 13.5426 286.828 13.2315C286.933 12.9205 287.039 12.6094 287.092 12.2983C287.198 11.9873 287.251 11.728 287.357 11.417C287.463 11.1577 287.516 10.8467 287.621 10.5874C287.727 10.3282 287.78 10.069 287.886 9.80976C287.939 9.55053 288.045 9.34315 288.098 9.08393C288.15 8.87655 288.256 8.66917 288.309 8.40994C288.362 8.20256 288.415 7.99518 288.468 7.83965C288.521 7.68411 288.574 7.47673 288.627 7.3212C288.68 7.16566 288.733 7.01013 288.785 6.85459C288.838 6.7509 288.838 6.59537 288.891 6.49167C288.944 6.38799 288.944 6.2843 288.997 6.23245C288.997 6.1806 289.05 6.07692 289.05 6.02507C289.05 5.97323 289.05 5.97323 289.103 5.92138C289.897 3.38097 290.108 1.98116 296.035 1.77378C302.067 1.98116 305.718 3.22544 305.718 5.45478C305.718 5.76585 305.665 6.02507 305.56 6.38799L293.019 38.9467C292.119 41.0723 289.579 41.5389 286.616 41.5389ZM307.835 54.241C307.835 62.0177 302.438 65.0766 295.294 65.0766C290.902 65.0766 287.939 64.5581 287.939 63.1583V47.864C287.939 42.6795 289.579 42.6277 292.119 42.4721C299.951 41.85 307.835 45.8939 307.835 54.241ZM313.973 41.3834C313.814 41.3834 313.656 41.3834 313.444 41.3834L303.549 41.4871C296.723 41.4352 294.871 40.8649 294.871 38.9467C294.871 38.2727 295.082 37.3913 295.453 36.2507C296.088 34.1769 296.564 33.1919 296.987 31.9994C297.516 30.5478 298.046 29.6664 301.591 29.6664H311.539C314.873 29.6664 315.296 30.0293 316.46 33.0882C317.36 35.473 316.936 34.5917 317.995 37.3395C318.312 38.0135 318.418 38.6356 318.418 39.1022C318.524 40.502 317.307 41.1242 313.973 41.3834ZM342.653 9.13578L337.097 18.7789C336.727 19.3492 336.515 19.6603 336.25 19.6603C336.039 19.6603 335.774 19.3492 335.404 18.7789L328.26 6.18061C327.572 4.93633 327.202 3.95127 327.202 3.22544C327.202 2.24039 327.837 1.72193 329.266 1.72193H339.055C343.764 1.72193 345.563 1.82562 345.563 3.12175C345.669 4.15865 344.505 5.92138 342.653 9.13578Z" fill="white"/>
</svg>