<?xml version="1.0" encoding="utf-8"?>
<!-- Generator: Adobe Illustrator 28.0.0, SVG Export Plug-In . SVG Version: 6.00 Build 0)  -->
<svg version="1.1" id="Ebene_1" xmlns="http://www.w3.org/2000/svg" xmlns:xlink="http://www.w3.org/1999/xlink" x="0px" y="0px"
	 viewBox="0 0 100 91" style="enable-background:new 0 0 100 91;" xml:space="preserve">
<style type="text/css">
	.st0{fill:none;stroke:#000000;stroke-miterlimit:10;}
	.st1{fill:none;stroke:#000000;stroke-width:0.4;stroke-miterlimit:10;}
	.st2{fill:none;stroke:#000000;stroke-width:3;stroke-miterlimit:10;}
	.st3{fill:none;stroke:#000000;stroke-width:3;stroke-miterlimit:10;stroke-dasharray:0.2012,0.3019,8.049341e-02,0.322;}
	.st4{fill:none;stroke:#000000;stroke-width:3;stroke-miterlimit:10;stroke-dasharray:6.0756,9.1134,2.4302,9.7209;}
	.st5{fill:none;stroke:#000000;stroke-width:3;stroke-miterlimit:10;stroke-dasharray:8.3869,12.5803,3.3548,13.419;}
	.st6{fill:none;stroke:#000000;stroke-width:3;stroke-miterlimit:10;stroke-dasharray:5.6479,8.4718,2.2592,9.0366;}
	.st7{fill:none;stroke:#000000;stroke-width:3;stroke-miterlimit:10;stroke-dasharray:4.4626,6.6939,1.785,7.1402;}
	.st8{fill:none;stroke:#000000;stroke-width:3;stroke-miterlimit:10;stroke-dasharray:4.5193,6.7789,1.8077,7.2308;}
	.st9{fill:none;stroke:#000000;stroke-width:3;stroke-miterlimit:10;stroke-dasharray:2.3637,3.5456,0.9455,3.782;}
	.st10{fill:none;stroke:#000000;stroke-width:3;stroke-miterlimit:10;stroke-dasharray:2.7391,4.1086,1.0956,4.3825;}
	.st11{fill:none;stroke:#000000;stroke-width:3;stroke-miterlimit:10;stroke-dasharray:5.1517,7.7276,2.0607,8.2428;}
	.st12{fill:none;stroke:#000000;stroke-width:3;stroke-miterlimit:10;stroke-dasharray:4.3791,6.5687,1.7516,7.0066;}
	.st13{fill:none;stroke:#000000;stroke-width:3;stroke-miterlimit:10;stroke-dasharray:4.5518,6.8277,1.8207,7.2828;}
	.st14{fill:none;stroke:#000000;stroke-width:3;stroke-miterlimit:10;stroke-dasharray:7.6921,11.5381,3.0768,12.3073;}
	.st15{fill:none;stroke:#000000;stroke-width:3;stroke-miterlimit:10;stroke-dasharray:2.1384,3.2076,0.8554,3.4215;}
	.st16{fill:none;stroke:#000000;stroke-width:3;stroke-miterlimit:10;stroke-dasharray:7.2127,10.819,2.8851,11.5403;}
	.st17{fill:none;stroke:#000000;stroke-width:3;stroke-miterlimit:10;stroke-dasharray:8.6546,12.982,3.4619,13.8474;}
	
		.st18{fill:none;stroke:#000000;stroke-width:3;stroke-miterlimit:10;stroke-dasharray:10.3856,4.3273,8.6546,12.982,3.4619,13.8474;}
	.st19{fill:none;stroke:#000000;stroke-width:3;stroke-miterlimit:10;stroke-dasharray:9.635,14.4524,3.854,15.4159;}
	.st20{fill:none;stroke:#000000;stroke-width:3;stroke-miterlimit:10;stroke-dasharray:11.562,4.8175,9.635,14.4524,3.854,15.4159;}
	.st21{fill:none;stroke:#000000;stroke-width:3;stroke-miterlimit:10;stroke-dasharray:4.382,6.573,1.7528,7.0112;}
	.st22{fill:none;stroke:#000000;stroke-width:3;stroke-miterlimit:10;stroke-dasharray:1.5489,2.3233,0.6196,2.4782;}
	.st23{fill:none;stroke:#000000;stroke-width:3;stroke-miterlimit:10;stroke-dasharray:2.1725,3.2587,0.869,3.476;}
	.st24{fill:none;stroke:#000000;stroke-width:3;stroke-miterlimit:10;stroke-dasharray:4.9538,7.4307,1.9815,7.9261;}
	.st25{fill:none;stroke:#000000;stroke-width:3;stroke-miterlimit:10;stroke-dasharray:6.4636,9.6954,2.5855,10.3418;}
	.st26{fill:none;stroke:#000000;stroke-width:3;stroke-miterlimit:10;stroke-dasharray:5.0488,7.5731,2.0195,8.078;}
	.st27{fill:none;stroke:#000000;stroke-width:3;stroke-miterlimit:10;stroke-dasharray:5.8694,8.8041,2.3478,9.3911;}
	.st28{fill:none;stroke:#000000;stroke-width:3;stroke-miterlimit:10;stroke-dasharray:4.0616,6.0924,1.6246,6.4985;}
	.st29{fill:none;stroke:#000000;stroke-width:3;stroke-miterlimit:10;stroke-dasharray:3.0322,4.5483,1.2129,4.8516;}
	.st30{fill:none;stroke:#000000;stroke-width:3;stroke-miterlimit:10;stroke-dasharray:8.348,12.522,3.3392,13.3568;}
	.st31{fill:none;stroke:#000000;stroke-width:3;stroke-miterlimit:10;stroke-dasharray:10.0176,4.174,8.348,12.522,3.3392,13.3568;}
	.st32{fill:none;stroke:#000000;stroke-width:3;stroke-miterlimit:10;stroke-dasharray:10.982,16.473,4.3928,17.5712;}
	
		.st33{fill:none;stroke:#000000;stroke-width:3;stroke-miterlimit:10;stroke-dasharray:13.1784,5.491,10.982,16.473,4.3928,17.5712;}
	.st34{fill:none;stroke:#000000;stroke-width:3;stroke-miterlimit:10;stroke-dasharray:6.0947,9.1421,2.4379,9.7516;}
	.st35{fill:none;stroke:#000000;stroke-width:3;stroke-miterlimit:10;stroke-dasharray:7.3137,3.0474,6.0947,9.1421,2.4379,9.7516;}
	.st36{fill:none;stroke:#000000;stroke-width:3;stroke-miterlimit:10;stroke-dasharray:9.5647,14.347,3.8259,15.3035;}
	
		.st37{fill:none;stroke:#000000;stroke-width:3;stroke-miterlimit:10;stroke-dasharray:11.4776,4.7823,9.5647,14.347,3.8259,15.3035;}
	.st38{fill:none;stroke:#000000;stroke-width:3;stroke-miterlimit:10;stroke-dasharray:11.0394,16.559,4.4157,17.663;}
	
		.st39{fill:none;stroke:#000000;stroke-width:3;stroke-miterlimit:10;stroke-dasharray:13.2472,5.5197,11.0394,16.559,4.4157,17.663;}
	.st40{fill:none;stroke:#000000;stroke-width:3;stroke-miterlimit:10;stroke-dasharray:10.4496,15.6744,4.1798,16.7194;}
	
		.st41{fill:none;stroke:#000000;stroke-width:3;stroke-miterlimit:10;stroke-dasharray:12.5395,5.2248,10.4496,15.6744,4.1798,16.7194;}
	.st42{fill:none;stroke:#000000;stroke-width:3;stroke-miterlimit:10;stroke-dasharray:9.1124,13.6686,3.645,14.5798;}
	
		.st43{fill:none;stroke:#000000;stroke-width:3;stroke-miterlimit:10;stroke-dasharray:10.9349,4.5562,9.1124,13.6686,3.645,14.5798;}
	.st44{fill:none;stroke:#000000;stroke-width:3;stroke-miterlimit:10;stroke-dasharray:2.0437,3.0655,0.8175,3.2699;}
	.st45{fill:none;stroke:#000000;stroke-width:3;stroke-miterlimit:10;stroke-dasharray:9.2865,13.9297,3.7146,14.8584;}
	
		.st46{fill:none;stroke:#000000;stroke-width:3;stroke-miterlimit:10;stroke-dasharray:11.1438,4.6432,9.2865,13.9297,3.7146,14.8584;}
	.st47{fill:none;stroke:#000000;stroke-width:3;stroke-miterlimit:10;stroke-dasharray:10.2894,15.4341,4.1158,16.4631;}
	
		.st48{fill:none;stroke:#000000;stroke-width:3;stroke-miterlimit:10;stroke-dasharray:12.3473,5.1447,10.2894,15.4341,4.1158,16.4631;}
	.st49{fill:none;stroke:#000000;stroke-width:3;stroke-miterlimit:10;stroke-dasharray:8.8626,13.2939,3.545,14.1802;}
	
		.st50{fill:none;stroke:#000000;stroke-width:3;stroke-miterlimit:10;stroke-dasharray:10.6351,4.4313,8.8626,13.2939,3.545,14.1802;}
	.st51{fill:none;stroke:#000000;stroke-width:3;stroke-miterlimit:10;stroke-dasharray:0.6699,1.0048,0.268,1.0718;}
	.st52{fill:none;stroke:#000000;stroke-width:3;stroke-miterlimit:10;stroke-dasharray:1.8914,2.8371,0.7566,3.0263;}
	.st53{fill:none;stroke:#000000;stroke-width:3;stroke-miterlimit:10;stroke-dasharray:3.2335,4.8502,1.2934,5.1736;}
	.st54{fill:none;stroke:#000000;stroke-width:3;stroke-miterlimit:10;stroke-dasharray:5.6825,8.5238,2.273,9.092;}
	.st55{fill:none;stroke:#000000;stroke-width:3;stroke-miterlimit:10;stroke-dasharray:6.7312,10.0968,2.6925,10.77;}
	.st56{fill:none;stroke:#000000;stroke-width:3;stroke-miterlimit:10;stroke-dasharray:6.8977,10.3466,2.7591,11.0364;}
	.st57{fill:none;stroke:#000000;stroke-width:3;stroke-miterlimit:10;stroke-dasharray:11.5682,17.3522,4.6273,18.5091;}
	
		.st58{fill:none;stroke:#000000;stroke-width:3;stroke-miterlimit:10;stroke-dasharray:13.8818,5.7841,11.5682,17.3522,4.6273,18.5091;}
	.st59{fill:none;stroke:#000000;stroke-width:3;stroke-miterlimit:10;stroke-dasharray:2.8025,4.2038,1.121,4.484;}
	.st60{fill:none;stroke:#000000;stroke-width:3;stroke-miterlimit:10;stroke-dasharray:8.346,12.519,3.3384,13.3536;}
	.st61{fill:none;stroke:#000000;stroke-width:3;stroke-miterlimit:10;stroke-dasharray:10.0152,4.173,8.346,12.519,3.3384,13.3536;}
	.st62{fill:none;stroke:#000000;stroke-width:3;stroke-miterlimit:10;stroke-dasharray:4.4559,6.6838,1.7823,7.1294;}
	.st63{fill:none;stroke:#000000;stroke-width:3;stroke-miterlimit:10;stroke-dasharray:3.566,5.349,1.4264,5.7056;}
	.st64{fill:none;stroke:#000000;stroke-width:3;stroke-miterlimit:10;stroke-dasharray:2.3618,3.5427,0.9447,3.7788;}
	.st65{fill:none;stroke:#000000;stroke-width:3;stroke-miterlimit:10;stroke-dasharray:10.4725,15.7087,4.189,16.7559;}
	.st66{fill:none;stroke:#000000;stroke-width:3;stroke-miterlimit:10;stroke-dasharray:4.4785,6.7177,1.7914,7.1655;}
	.st67{fill:none;stroke:#000000;stroke-width:3;stroke-miterlimit:10;stroke-dasharray:4.7187,7.078,1.8875,7.5499;}
	.st68{fill:none;stroke:#000000;stroke-width:3;stroke-miterlimit:10;stroke-dasharray:0.7554,1.1331,0.3022,1.2087;}
	.st69{fill:none;stroke:#000000;stroke-width:3;stroke-miterlimit:10;stroke-dasharray:7.8234,11.7352,3.1294,12.5175;}
	
		.st70{fill:none;stroke:#000000;stroke-width:3;stroke-miterlimit:10;stroke-dasharray:9.3881,3.9117,7.8234,11.7352,3.1294,12.5175;}
	.st71{fill:none;stroke:#000000;stroke-width:3;stroke-miterlimit:10;stroke-dasharray:2.2977,3.4466,0.9191,3.6764;}
	.st72{fill:none;stroke:#000000;stroke-width:3;stroke-miterlimit:10;stroke-dasharray:5.7931,8.6897,2.3173,9.269;}
	.st73{fill:none;stroke:#000000;stroke-width:3;stroke-miterlimit:10;stroke-dasharray:6.9518,2.8966,5.7931,8.6897,2.3173,9.269;}
	.st74{fill:none;stroke:#000000;stroke-width:3;stroke-miterlimit:10;stroke-dasharray:9.1927,13.7891,3.6771,14.7084;}
	.st75{fill:none;stroke:#000000;stroke-width:3;stroke-miterlimit:10;stroke-dasharray:4.9489,7.4233,1.9795,7.9182;}
	.st76{fill:none;stroke:#000000;stroke-width:3;stroke-miterlimit:10;stroke-dasharray:5.6865,8.5297,2.2746,9.0984;}
	.st77{fill:none;stroke:#000000;stroke-width:3;stroke-miterlimit:10;stroke-dasharray:10.3637,15.5455,4.1455,16.5818;}
	
		.st78{fill:none;stroke:#000000;stroke-width:3;stroke-miterlimit:10;stroke-dasharray:12.4364,5.1818,10.3637,15.5455,4.1455,16.5818;}
	.st79{fill:none;stroke:#000000;stroke-width:3;stroke-miterlimit:10;stroke-dasharray:11.1405,16.7108,4.4562,17.8249;}
	.st80{fill:none;stroke:#000000;stroke-width:3;stroke-miterlimit:10;stroke-dasharray:5.6165,8.4248,2.2466,8.9864;}
	.st81{fill:none;stroke:#000000;stroke-width:3;stroke-miterlimit:10;stroke-dasharray:6.7398,2.8083,5.6165,8.4248,2.2466,8.9864;}
	.st82{fill:none;stroke:#000000;stroke-width:3;stroke-miterlimit:10;stroke-dasharray:7.1766,10.765,2.8707,11.4826;}
	.st83{fill:none;stroke:#000000;stroke-width:3;stroke-miterlimit:10;stroke-dasharray:9.3505,14.0258,3.7402,14.9609;}
	
		.st84{fill:none;stroke:#000000;stroke-width:3;stroke-miterlimit:10;stroke-dasharray:11.2207,4.6753,9.3505,14.0258,3.7402,14.9609;}
	.st85{fill:none;stroke:#000000;stroke-width:3;stroke-miterlimit:10;stroke-dasharray:10.8289,16.2433,4.3315,17.3262;}
	
		.st86{fill:none;stroke:#000000;stroke-width:3;stroke-miterlimit:10;stroke-dasharray:12.9946,5.4144,10.8289,16.2433,4.3315,17.3262;}
	.st87{fill:none;stroke:#000000;stroke-width:3;stroke-miterlimit:10;stroke-dasharray:10.0969,15.1453,4.0388,16.155;}
	
		.st88{fill:none;stroke:#000000;stroke-width:3;stroke-miterlimit:10;stroke-dasharray:12.1163,5.0484,10.0969,15.1453,4.0388,16.155;}
	.st89{fill:none;stroke:#000000;stroke-width:3;stroke-miterlimit:10;stroke-dasharray:9.8233,14.735,3.9293,15.7173;}
	
		.st90{fill:none;stroke:#000000;stroke-width:3;stroke-miterlimit:10;stroke-dasharray:11.788,4.9117,9.8233,14.735,3.9293,15.7173;}
	.st91{fill:none;stroke:#000000;stroke-width:3;stroke-miterlimit:10;stroke-dasharray:9.2163,13.8244,3.6865,14.746;}
	
		.st92{fill:none;stroke:#000000;stroke-width:3;stroke-miterlimit:10;stroke-dasharray:11.0595,4.6081,9.2163,13.8244,3.6865,14.746;}
	.st93{fill:none;stroke:#000000;stroke-width:3;stroke-miterlimit:10;stroke-dasharray:3.9399,5.9098,1.5759,6.3038;}
	.st94{fill:none;stroke:#000000;stroke-width:3;stroke-miterlimit:10;stroke-dasharray:1.7945,2.6918,0.7178,2.8713;}
	.st95{fill:none;stroke:#000000;stroke-width:3;stroke-miterlimit:10;stroke-dasharray:5.8339,8.7509,2.3336,9.3343;}
	.st96{fill:none;stroke:#000000;stroke-width:3;stroke-miterlimit:10;stroke-dasharray:7.0007,2.917,5.8339,8.7509,2.3336,9.3343;}
	.st97{fill:none;stroke:#000000;stroke-width:3;stroke-miterlimit:10;stroke-dasharray:8.001,12.0015,3.2004,12.8016;}
	
		.st98{fill:none;stroke:#000000;stroke-width:3;stroke-miterlimit:10;stroke-dasharray:9.6012,4.0005,8.001,12.0015,3.2004,12.8016;}
	.st99{fill:none;stroke:#000000;stroke-width:3;stroke-miterlimit:10;stroke-dasharray:6.3181,9.4772,2.5273,10.109;}
	.st100{fill:none;stroke:#000000;stroke-width:3;stroke-miterlimit:10;stroke-dasharray:9.3291,13.9937,3.7316,14.9266;}
	
		.st101{fill:none;stroke:#000000;stroke-width:3;stroke-miterlimit:10;stroke-dasharray:11.1949,4.6646,9.3291,13.9937,3.7316,14.9266;}
	.st102{fill:none;stroke:#000000;stroke-width:3;stroke-miterlimit:10;stroke-dasharray:10.7744,16.1616,4.3098,17.239;}
	
		.st103{fill:none;stroke:#000000;stroke-width:3;stroke-miterlimit:10;stroke-dasharray:12.9293,5.3872,10.7744,16.1616,4.3098,17.239;}
	.st104{fill:none;stroke:#000000;stroke-width:3;stroke-miterlimit:10;stroke-dasharray:9.1892,13.7837,3.6757,14.7027;}
	
		.st105{fill:none;stroke:#000000;stroke-width:3;stroke-miterlimit:10;stroke-dasharray:11.027,4.5946,9.1892,13.7837,3.6757,14.7027;}
	.st106{fill:none;stroke:#000000;stroke-width:3;stroke-miterlimit:10;stroke-dasharray:0.4289,0.6433,0.1715,0.6862;}
	.st107{fill:none;stroke:#000000;stroke-width:3;stroke-miterlimit:10;stroke-dasharray:6.6626,9.9938,2.665,10.6601;}
	
		.st108{fill:none;stroke:#000000;stroke-width:3;stroke-miterlimit:10;stroke-dasharray:7.9951,3.3313,6.6626,9.9938,2.665,10.6601;}
	.st109{fill:none;stroke:#000000;stroke-width:3;stroke-miterlimit:10;stroke-dasharray:6.0688,9.1032,2.4275,9.7101;}
	
		.st110{fill:none;stroke:#000000;stroke-width:3;stroke-miterlimit:10;stroke-dasharray:7.2826,3.0344,6.0688,9.1032,2.4275,9.7101;}
	.st111{fill:none;stroke:#000000;stroke-width:3;stroke-miterlimit:10;stroke-dasharray:5.7238,8.5857,2.2895,9.1581;}
	.st112{fill:none;stroke:#000000;stroke-width:3;stroke-miterlimit:10;stroke-dasharray:5.4561,8.1842,2.1825,8.7298;}
	
		.st113{fill:none;stroke:#000000;stroke-width:3;stroke-miterlimit:10;stroke-dasharray:6.5474,2.7281,5.4561,8.1842,2.1825,8.7298;}
	.st114{fill:none;stroke:#000000;stroke-width:3;stroke-miterlimit:10;stroke-dasharray:1.5018,2.2527,0.6007,2.4029;}
	.st115{fill:none;stroke:#000000;stroke-width:3;stroke-miterlimit:10;stroke-dasharray:10.3378,15.5067,4.1351,16.5405;}
	
		.st116{fill:none;stroke:#000000;stroke-width:3;stroke-miterlimit:10;stroke-dasharray:12.4054,5.1689,10.3378,15.5067,4.1351,16.5405;}
	.st117{fill:none;stroke:#000000;stroke-width:3;stroke-miterlimit:10;stroke-dasharray:10.5998,15.8997,4.2399,16.9597;}
	
		.st118{fill:none;stroke:#000000;stroke-width:3;stroke-miterlimit:10;stroke-dasharray:12.7198,5.2999,10.5998,15.8997,4.2399,16.9597;}
	.st119{fill:none;stroke:#000000;stroke-width:3;stroke-miterlimit:10;stroke-dasharray:8.918,13.377,3.5672,14.2688;}
	.st120{fill:none;stroke:#000000;stroke-width:3;stroke-miterlimit:10;stroke-dasharray:7.3549,11.0323,2.942,11.7678;}
	
		.st121{fill:none;stroke:#000000;stroke-width:3;stroke-miterlimit:10;stroke-dasharray:8.8259,3.6774,7.3549,11.0323,2.942,11.7678;}
	.st122{fill:none;stroke:#000000;stroke-width:3;stroke-miterlimit:10;stroke-dasharray:5.9539,8.9308,2.3816,9.5262;}
	.st123{fill:none;stroke:#000000;stroke-width:3;stroke-miterlimit:10;stroke-dasharray:0.6493,0.974,0.2597,1.0389;}
	.st124{fill:none;stroke:#000000;stroke-width:3;stroke-miterlimit:10;stroke-dasharray:4.9349,7.4024,1.974,7.8959;}
	.st125{fill:none;stroke:#000000;stroke-width:3;stroke-miterlimit:10;stroke-dasharray:6.5613,9.8419,2.6245,10.4981;}
	.st126{fill:none;stroke:#000000;stroke-width:3;stroke-miterlimit:10;stroke-dasharray:3.7825,5.6738,1.513,6.052;}
	.st127{fill:none;stroke:#000000;stroke-width:3;stroke-miterlimit:10;stroke-dasharray:5.5045,8.2567,2.2018,8.8072;}
	
		.st128{fill:none;stroke:#000000;stroke-width:3;stroke-miterlimit:10;stroke-dasharray:6.6054,2.7522,5.5045,8.2567,2.2018,8.8072;}
	.st129{fill:none;stroke:#000000;stroke-width:3;stroke-miterlimit:10;stroke-dasharray:6.6941,10.0412,2.6776,10.7106;}
	
		.st130{fill:none;stroke:#000000;stroke-width:3;stroke-miterlimit:10;stroke-dasharray:8.0329,3.3471,6.6941,10.0412,2.6776,10.7106;}
	.st131{fill:none;stroke:#000000;stroke-width:3;stroke-miterlimit:10;stroke-dasharray:10.9168,16.3752,4.3667,17.4669;}
	
		.st132{fill:none;stroke:#000000;stroke-width:3;stroke-miterlimit:10;stroke-dasharray:13.1002,5.4584,10.9168,16.3752,4.3667,17.4669;}
	.st133{fill:none;stroke:#000000;stroke-width:3;stroke-miterlimit:10;stroke-dasharray:10.0112,15.0168,4.0045,16.018;}
	
		.st134{fill:none;stroke:#000000;stroke-width:3;stroke-miterlimit:10;stroke-dasharray:12.0135,5.0056,10.0112,15.0168,4.0045,16.018;}
	.st135{fill:none;stroke:#000000;stroke-width:3;stroke-miterlimit:10;stroke-dasharray:8.8543,13.2814,3.5417,14.1668;}
	.st136{fill:none;stroke:#000000;stroke-width:3;stroke-miterlimit:10;stroke-dasharray:11.6325,17.4487,4.653,18.6119;}
	
		.st137{fill:none;stroke:#000000;stroke-width:3;stroke-miterlimit:10;stroke-dasharray:13.9589,5.8162,11.6325,17.4487,4.653,18.6119;}
	.st138{fill:none;stroke:#000000;stroke-width:3;stroke-miterlimit:10;stroke-dasharray:10.3541,15.5311,4.1416,16.5665;}
	
		.st139{fill:none;stroke:#000000;stroke-width:3;stroke-miterlimit:10;stroke-dasharray:12.4249,5.177,10.3541,15.5311,4.1416,16.5665;}
	.st140{fill:none;stroke:#000000;stroke-width:3;stroke-miterlimit:10;stroke-dasharray:9.4488,14.1732,3.7795,15.1181;}
	
		.st141{fill:none;stroke:#000000;stroke-width:3;stroke-miterlimit:10;stroke-dasharray:11.3386,4.7244,9.4488,14.1732,3.7795,15.1181;}
	.st142{fill:none;stroke:#000000;stroke-width:3;stroke-miterlimit:10;stroke-dasharray:4.0562,6.0842,1.6225,6.4899;}
	.st143{fill:none;stroke:#000000;stroke-width:3;stroke-miterlimit:10;stroke-dasharray:6.5224,9.7837,2.609,10.4359;}
	
		.st144{fill:none;stroke:#000000;stroke-width:3;stroke-miterlimit:10;stroke-dasharray:7.8269,3.2612,6.5224,9.7837,2.609,10.4359;}
	.st145{fill:none;stroke:#000000;stroke-width:3;stroke-miterlimit:10;stroke-dasharray:8.1267,12.1901,3.2507,13.0028;}
	
		.st146{fill:none;stroke:#000000;stroke-width:3;stroke-miterlimit:10;stroke-dasharray:9.7521,4.0634,8.1267,12.1901,3.2507,13.0028;}
	.st147{fill:none;stroke:#000000;stroke-width:3;stroke-miterlimit:10;stroke-dasharray:4.2823,6.4235,1.7129,6.8517;}
	.st148{fill:none;stroke:#000000;stroke-width:3;stroke-miterlimit:10;stroke-dasharray:2.8008,4.2012,1.1203,4.4813;}
	.st149{fill:none;stroke:#000000;stroke-width:3;stroke-miterlimit:10;stroke-dasharray:9.9707,14.9561,3.9883,15.9532;}
	
		.st150{fill:none;stroke:#000000;stroke-width:3;stroke-miterlimit:10;stroke-dasharray:11.9649,4.9854,9.9707,14.9561,3.9883,15.9532;}
	.st151{fill:none;stroke:#000000;stroke-width:3;stroke-miterlimit:10;stroke-dasharray:9.7614,14.6421,3.9046,15.6183;}
	
		.st152{fill:none;stroke:#000000;stroke-width:3;stroke-miterlimit:10;stroke-dasharray:11.7137,4.8807,9.7614,14.6421,3.9046,15.6183;}
	.st153{fill:none;stroke:#000000;stroke-width:3;stroke-miterlimit:10;stroke-dasharray:11.333,16.9995,4.5332,18.1328;}
	
		.st154{fill:none;stroke:#000000;stroke-width:3;stroke-miterlimit:10;stroke-dasharray:13.5996,5.6665,11.333,16.9995,4.5332,18.1328;}
	.st155{fill:none;stroke:#000000;stroke-width:3;stroke-miterlimit:10;stroke-dasharray:9.6819,14.5229,3.8728,15.4911;}
	
		.st156{fill:none;stroke:#000000;stroke-width:3;stroke-miterlimit:10;stroke-dasharray:11.6183,4.841,9.6819,14.5229,3.8728,15.4911;}
	.st157{fill:none;stroke:#000000;stroke-width:3;stroke-miterlimit:10;stroke-dasharray:10.7718,16.1577,4.3087,17.2349;}
	
		.st158{fill:none;stroke:#000000;stroke-width:3;stroke-miterlimit:10;stroke-dasharray:12.9262,5.3859,10.7718,16.1577,4.3087,17.2349;}
	.st159{fill:none;stroke:#000000;stroke-width:3;stroke-miterlimit:10;stroke-dasharray:10.758,16.1371,4.3032,17.2129;}
	
		.st160{fill:none;stroke:#000000;stroke-width:3;stroke-miterlimit:10;stroke-dasharray:12.9096,5.379,10.758,16.1371,4.3032,17.2129;}
	.st161{fill:none;stroke:#000000;stroke-width:3;stroke-miterlimit:10;stroke-dasharray:9.498,14.247,3.7992,15.1968;}
	
		.st162{fill:none;stroke:#000000;stroke-width:3;stroke-miterlimit:10;stroke-dasharray:11.3976,4.749,9.498,14.247,3.7992,15.1968;}
	.st163{fill:none;stroke:#000000;stroke-width:3;stroke-miterlimit:10;stroke-dasharray:11.4005,17.1008,4.5602,18.2408;}
	
		.st164{fill:none;stroke:#000000;stroke-width:3;stroke-miterlimit:10;stroke-dasharray:13.6806,5.7003,11.4005,17.1008,4.5602,18.2408;}
	
		.st165{fill:none;stroke:#000000;stroke-width:3;stroke-miterlimit:10;stroke-dasharray:11.461,4.7754,9.5508,14.3262,3.8203,15.2813;}
	.st166{fill:none;stroke:#000000;stroke-width:3;stroke-miterlimit:10;stroke-dasharray:11.1077,16.6615,4.4431,17.7723;}
	
		.st167{fill:none;stroke:#000000;stroke-width:3;stroke-miterlimit:10;stroke-dasharray:13.3292,5.5538,11.1077,16.6615,4.4431,17.7723;}
	.st168{fill:none;stroke:#000000;stroke-width:3;stroke-miterlimit:10;stroke-dasharray:10.7747,16.1621,4.3099,17.2395;}
	
		.st169{fill:none;stroke:#000000;stroke-width:3;stroke-miterlimit:10;stroke-dasharray:12.9296,5.3874,10.7747,16.1621,4.3099,17.2395;}
	.st170{fill:none;stroke:#000000;stroke-width:3;stroke-miterlimit:10;stroke-dasharray:7.5828,11.3742,3.0331,12.1325;}
	
		.st171{fill:none;stroke:#000000;stroke-width:3;stroke-miterlimit:10;stroke-dasharray:9.0994,3.7914,7.5828,11.3742,3.0331,12.1325;}
	.st172{fill:none;stroke:#000000;stroke-width:3;stroke-miterlimit:10;stroke-dasharray:11.1292,16.6937,4.4517,17.8066;}
	
		.st173{fill:none;stroke:#000000;stroke-width:3;stroke-miterlimit:10;stroke-dasharray:13.355,5.5646,11.1292,16.6937,4.4517,17.8066;}
	.st174{fill:none;stroke:#000000;stroke-width:3;stroke-miterlimit:10;stroke-dasharray:7.3348,11.0021,2.9339,11.7356;}
	
		.st175{fill:none;stroke:#000000;stroke-width:3;stroke-miterlimit:10;stroke-dasharray:8.8017,3.6674,7.3348,11.0021,2.9339,11.7356;}
	.st176{fill:none;stroke:#000000;stroke-width:3;stroke-miterlimit:10;stroke-dasharray:10.7121,16.0681,4.2848,17.1393;}
	.st177{fill:none;stroke:#000000;stroke-width:3;stroke-miterlimit:10;stroke-dasharray:9.2744,13.9116,3.7098,14.839;}
	
		.st178{fill:none;stroke:#000000;stroke-width:3;stroke-miterlimit:10;stroke-dasharray:11.1293,4.6372,9.2744,13.9116,3.7098,14.839;}
	.st179{fill:none;stroke:#000000;stroke-width:3;stroke-miterlimit:10;stroke-dasharray:7.9379,11.9068,3.1751,12.7006;}
	
		.st180{fill:none;stroke:#000000;stroke-width:3;stroke-miterlimit:10;stroke-dasharray:9.5254,3.9689,7.9379,11.9068,3.1751,12.7006;}
	.st181{fill:none;stroke:#000000;stroke-width:3;stroke-miterlimit:10;stroke-dasharray:9.8284,14.7425,3.9313,15.7254;}
	
		.st182{fill:none;stroke:#000000;stroke-width:3;stroke-miterlimit:10;stroke-dasharray:11.794,4.9142,9.8284,14.7425,3.9313,15.7254;}
	.st183{fill:none;stroke:#000000;stroke-width:3;stroke-miterlimit:10;stroke-dasharray:8.7889,13.1833,3.5156,14.0622;}
	
		.st184{fill:none;stroke:#000000;stroke-width:3;stroke-miterlimit:10;stroke-dasharray:10.5467,4.3944,8.7889,13.1833,3.5156,14.0622;}
	.st185{fill:none;stroke:#000000;stroke-width:3;stroke-miterlimit:10;stroke-dasharray:8.6807,13.0211,3.4723,13.8892;}
	
		.st186{fill:none;stroke:#000000;stroke-width:3;stroke-miterlimit:10;stroke-dasharray:10.4169,4.3404,8.6807,13.0211,3.4723,13.8892;}
	.st187{fill:none;stroke:#000000;stroke-width:3;stroke-miterlimit:10;stroke-dasharray:8.7599,13.1399,3.504,14.0159;}
	
		.st188{fill:none;stroke:#000000;stroke-width:3;stroke-miterlimit:10;stroke-dasharray:10.5119,4.38,8.7599,13.1399,3.504,14.0159;}
	.st189{fill:none;stroke:#000000;stroke-width:3;stroke-miterlimit:10;stroke-dasharray:10.7078,16.0618,4.2831,17.1326;}
	
		.st190{fill:none;stroke:#000000;stroke-width:3;stroke-miterlimit:10;stroke-dasharray:12.8494,5.3539,10.7078,16.0618,4.2831,17.1326;}
	.st191{fill:none;stroke:#000000;stroke-width:3;stroke-miterlimit:10;stroke-dasharray:10.8476,16.2715,4.3391,17.3562;}
	
		.st192{fill:none;stroke:#000000;stroke-width:3;stroke-miterlimit:10;stroke-dasharray:13.0172,5.4238,10.8476,16.2715,4.3391,17.3562;}
	.st193{fill:none;stroke:#000000;stroke-width:3;stroke-miterlimit:10;stroke-dasharray:7.2503,10.8754,2.9001,11.6004;}
	
		.st194{fill:none;stroke:#000000;stroke-width:3;stroke-miterlimit:10;stroke-dasharray:8.7003,3.6251,7.2503,10.8754,2.9001,11.6004;}
	.st195{fill:none;stroke:#000000;stroke-width:3;stroke-miterlimit:10;stroke-dasharray:7.2442,10.8663,2.8977,11.5907;}
	
		.st196{fill:none;stroke:#000000;stroke-width:3;stroke-miterlimit:10;stroke-dasharray:8.693,3.6221,7.2442,10.8663,2.8977,11.5907;}
	.st197{fill:none;stroke:#000000;stroke-width:3;stroke-miterlimit:10;stroke-dasharray:5.1299,7.6949,2.052,8.2079;}
	.st198{fill:none;stroke:#000000;stroke-width:3;stroke-miterlimit:10;stroke-dasharray:6.1559,2.565,5.1299,7.6949,2.052,8.2079;}
	.st199{fill:none;stroke:#000000;stroke-width:3;stroke-miterlimit:10;stroke-dasharray:7.0431,10.5646,2.8172,11.2689;}
	.st200{fill:none;stroke:#000000;stroke-width:3;stroke-miterlimit:10;stroke-dasharray:1.0637,1.5955,0.4255,1.7019;}
	.st201{fill:none;stroke:#000000;stroke-width:3;stroke-miterlimit:10;stroke-dasharray:10.5357,15.8036,4.2143,16.8572;}
	
		.st202{fill:none;stroke:#000000;stroke-width:3;stroke-miterlimit:10;stroke-dasharray:12.6429,5.2679,10.5357,15.8036,4.2143,16.8572;}
	.st203{fill:none;stroke:#000000;stroke-width:3;stroke-miterlimit:10;stroke-dasharray:6.0252,9.0379,2.4101,9.6404;}
	
		.st204{fill:none;stroke:#000000;stroke-width:3;stroke-miterlimit:10;stroke-dasharray:7.2303,3.0126,6.0252,9.0379,2.4101,9.6404;}
	.st205{fill:none;stroke:#000000;stroke-width:3;stroke-miterlimit:10;stroke-dasharray:5.4912,8.2368,2.1965,8.786;}
	.st206{fill:none;stroke:#000000;stroke-width:3;stroke-miterlimit:10;stroke-dasharray:6.5895,2.7456,5.4912,8.2368,2.1965,8.786;}
	.st207{fill:none;stroke:#000000;stroke-width:3;stroke-miterlimit:10;stroke-dasharray:9.5292,14.2937,3.8117,15.2467;}
	
		.st208{fill:none;stroke:#000000;stroke-width:3;stroke-miterlimit:10;stroke-dasharray:11.435,4.7646,9.5292,14.2937,3.8117,15.2467;}
	.st209{fill:none;stroke:#000000;stroke-width:3;stroke-miterlimit:10;stroke-dasharray:9.4398,14.1597,3.7759,15.1037;}
	
		.st210{fill:none;stroke:#000000;stroke-width:3;stroke-miterlimit:10;stroke-dasharray:11.3278,4.7199,9.4398,14.1597,3.7759,15.1037;}
	.st211{fill:none;stroke:#000000;stroke-width:3;stroke-miterlimit:10;stroke-dasharray:9.6829,14.5244,3.8732,15.4927;}
	.st212{fill:none;stroke:#000000;stroke-width:3;stroke-miterlimit:10;stroke-dasharray:9.7421,14.6132,3.8968,15.5874;}
	.st213{fill:none;stroke:#000000;stroke-width:3;stroke-miterlimit:10;stroke-dasharray:5.1724,7.7586,2.069,8.2758;}
	.st214{fill:none;stroke:#000000;stroke-width:3;stroke-miterlimit:10;stroke-dasharray:6.2069,2.5862,5.1724,7.7586,2.069,8.2758;}
	.st215{fill:none;stroke:#000000;stroke-width:3;stroke-miterlimit:10;stroke-dasharray:9.1306,13.6959,3.6522,14.6089;}
	.st216{fill:none;stroke:#000000;stroke-width:3;stroke-miterlimit:10;stroke-dasharray:8.2158,12.3238,3.2863,13.1454;}
	
		.st217{fill:none;stroke:#000000;stroke-width:3;stroke-miterlimit:10;stroke-dasharray:9.859,4.1079,8.2158,12.3238,3.2863,13.1454;}
	.st218{fill:none;stroke:#000000;stroke-width:3;stroke-miterlimit:10;stroke-dasharray:8.4961,12.7441,3.3984,13.5937;}
	
		.st219{fill:none;stroke:#000000;stroke-width:3;stroke-miterlimit:10;stroke-dasharray:10.1953,4.248,8.4961,12.7441,3.3984,13.5937;}
	.st220{fill:none;stroke:#000000;stroke-width:3;stroke-miterlimit:10;stroke-dasharray:7.8907,11.836,3.1563,12.6251;}
	
		.st221{fill:none;stroke:#000000;stroke-width:3;stroke-miterlimit:10;stroke-dasharray:9.4688,3.9453,7.8907,11.836,3.1563,12.6251;}
	.st222{fill:none;stroke:#000000;stroke-width:3;stroke-miterlimit:10;stroke-dasharray:6.7413,10.112,2.6965,10.7862;}
	.st223{fill:none;stroke:#000000;stroke-width:3;stroke-miterlimit:10;stroke-dasharray:8.3845,12.5768,3.3538,13.4153;}
	.st224{fill:none;stroke:#000000;stroke-width:3;stroke-miterlimit:10;stroke-dasharray:6.509,9.7634,2.6036,10.4143;}
	.st225{fill:none;stroke:#000000;stroke-width:3;stroke-miterlimit:10;stroke-dasharray:10.8345,16.2518,4.3338,17.3352;}
	.st226{fill:none;stroke:#000000;stroke-width:3;stroke-miterlimit:10;stroke-dasharray:5.6806,8.5209,2.2723,9.089;}
	.st227{fill:none;stroke:#000000;stroke-width:3;stroke-miterlimit:10;stroke-dasharray:6.8168,2.8403,5.6806,8.5209,2.2723,9.089;}
	.st228{fill:none;stroke:#000000;stroke-width:3;stroke-miterlimit:10;stroke-dasharray:8.6446,12.9669,3.4578,13.8314;}
	
		.st229{fill:none;stroke:#000000;stroke-width:3;stroke-miterlimit:10;stroke-dasharray:10.3735,4.3223,8.6446,12.9669,3.4578,13.8314;}
	.st230{fill:none;stroke:#000000;stroke-width:3;stroke-miterlimit:10;stroke-dasharray:6.1133,9.1699,2.4453,9.7813;}
	
		.st231{fill:none;stroke:#000000;stroke-width:3;stroke-miterlimit:10;stroke-dasharray:7.3359,3.0566,6.1133,9.1699,2.4453,9.7813;}
	.st232{fill:none;stroke:#000000;stroke-width:3;stroke-miterlimit:10;stroke-dasharray:10.1832,15.2748,4.0733,16.2931;}
	.st233{fill:none;stroke:#000000;stroke-width:3;stroke-miterlimit:10;stroke-dasharray:8.7,13.05,3.48,13.92;}
	.st234{fill:none;stroke:#000000;stroke-width:3;stroke-miterlimit:10;stroke-dasharray:5.8349,8.7523,2.3339,9.3358;}
	
		.st235{fill:none;stroke:#000000;stroke-width:3;stroke-miterlimit:10;stroke-dasharray:7.0018,2.9174,5.8349,8.7523,2.3339,9.3358;}
	.st236{fill:none;stroke:#000000;stroke-width:3;stroke-miterlimit:10;stroke-dasharray:4.4228,6.6342,1.7691,7.0765;}
	.st237{fill:none;stroke:#000000;stroke-width:3;stroke-miterlimit:10;stroke-dasharray:5.5318,8.2978,2.2127,8.8509;}
	.st238{fill:none;stroke:#000000;stroke-width:3;stroke-miterlimit:10;stroke-dasharray:4.5993,6.899,1.8397,7.359;}
	.st239{fill:none;stroke:#000000;stroke-width:3;stroke-miterlimit:10;stroke-dasharray:5.0806,7.6209,2.0322,8.1289;}
	.st240{fill:none;stroke:#000000;stroke-width:3;stroke-miterlimit:10;stroke-dasharray:7.9237,11.8855,3.1695,12.6779;}
	.st241{fill:none;stroke:#000000;stroke-width:3;stroke-miterlimit:10;stroke-dasharray:6.7048,10.0572,2.6819,10.7276;}
	.st242{fill:none;stroke:#000000;stroke-width:3;stroke-miterlimit:10;stroke-dasharray:3.4301,5.1451,1.372,5.4881;}
	.st243{fill:none;stroke:#000000;stroke-width:3;stroke-miterlimit:10;stroke-dasharray:3.7931,5.6897,1.5172,6.069;}
	.st244{fill:none;stroke:#000000;stroke-width:3;stroke-miterlimit:10;stroke-dasharray:7.7759,11.6639,3.1104,12.4415;}
	.st245{fill:none;stroke:#000000;stroke-width:3;stroke-miterlimit:10;stroke-dasharray:0.1968,0.2952,7.872781e-02,0.3149;}
	.st246{fill:none;stroke:#000000;stroke-width:3;stroke-miterlimit:10;stroke-dasharray:5.6466,8.4698,2.2586,9.0345;}
	.st247{fill:none;stroke:#000000;stroke-width:3;stroke-miterlimit:10;stroke-dasharray:5.7668,8.6502,2.3067,9.2269;}
	.st248{fill:none;stroke:#000000;stroke-width:3;stroke-miterlimit:10;stroke-dasharray:9.3851,14.0776,3.754,15.0161;}
	.st249{fill:none;stroke:#000000;stroke-width:3;stroke-miterlimit:10;stroke-dasharray:3.928,5.8921,1.5712,6.2849;}
	.st250{fill:none;stroke:#000000;stroke-width:3;stroke-miterlimit:10;stroke-dasharray:3.2085,4.8127,1.2834,5.1335;}
	.st251{fill:none;stroke:#000000;stroke-width:3;stroke-miterlimit:10;stroke-dasharray:5.2769,7.9153,2.1107,8.443;}
	.st252{fill:none;stroke:#000000;stroke-width:3;stroke-miterlimit:10;stroke-dasharray:4.2512,6.3768,1.7005,6.8019;}
	.st253{fill:none;stroke:#000000;stroke-width:3;stroke-miterlimit:10;stroke-dasharray:7.6505,11.4757,3.0602,12.2408;}
	.st254{fill:none;stroke:#000000;stroke-width:3;stroke-miterlimit:10;stroke-dasharray:7.8377,11.7565,3.1351,12.5403;}
	.st255{fill:none;stroke:#000000;stroke-width:3;stroke-miterlimit:10;stroke-dasharray:3.6191,5.4287,1.4477,5.7906;}
	.st256{fill:none;stroke:#000000;stroke-width:3;stroke-miterlimit:10;stroke-dasharray:3.2965,4.9448,1.3186,5.2744;}
	.st257{fill:none;stroke:#000000;stroke-width:3;stroke-miterlimit:10;stroke-dasharray:4.6421,6.9631,1.8568,7.4273;}
	.st258{fill:none;stroke:#000000;stroke-width:3;stroke-miterlimit:10;stroke-dasharray:4.8098,7.2147,1.9239,7.6957;}
	.st259{fill:none;stroke:#000000;stroke-width:3;stroke-miterlimit:10;stroke-dasharray:2.523,3.7844,1.0092,4.0367;}
	.st260{fill:none;stroke:#000000;stroke-width:3;stroke-miterlimit:10;stroke-dasharray:2.5695,3.8543,1.0278,4.1112;}
	.st261{fill:none;stroke:#000000;stroke-width:3;stroke-miterlimit:10;stroke-dasharray:3.5621,5.3432,1.4248,5.6994;}
	.st262{fill:none;stroke:#000000;stroke-width:3;stroke-miterlimit:10;stroke-dasharray:3.8241,5.7362,1.5296,6.1186;}
	.st263{fill:none;stroke:#000000;stroke-width:3;stroke-miterlimit:10;stroke-dasharray:4.0542,6.0813,1.6217,6.4867;}
	.st264{fill:none;stroke:#000000;stroke-width:3;stroke-miterlimit:10;stroke-dasharray:3.9316,5.8974,1.5727,6.2906;}
	.st265{fill:none;stroke:#000000;stroke-width:3;stroke-miterlimit:10;stroke-dasharray:1.8667,2.8001,0.7467,2.9868;}
	.st266{fill:none;stroke:#000000;stroke-width:3;stroke-miterlimit:10;stroke-dasharray:2.0402,3.0603,0.8161,3.2643;}
	.st267{fill:none;stroke:#000000;stroke-width:3;stroke-miterlimit:10;stroke-dasharray:3.4674,5.2011,1.387,5.5478;}
	.st268{fill:none;stroke:#000000;stroke-width:3;stroke-miterlimit:10;stroke-dasharray:3.0853,4.6279,1.2341,4.9365;}
	.st269{fill:none;stroke:#000000;stroke-width:3;stroke-miterlimit:10;stroke-dasharray:2.9359,4.4039,1.1744,4.6975;}
	.st270{fill:none;stroke:#000000;stroke-width:3;stroke-miterlimit:10;stroke-dasharray:2.5939,3.8909,1.0376,4.1503;}
	.st271{fill:none;stroke:#000000;stroke-width:3;stroke-miterlimit:10;stroke-dasharray:6.5857,2.744,5.4881,8.2321,2.1952,8.7809;}
	.st272{fill:none;stroke:#000000;stroke-width:3;stroke-miterlimit:10;stroke-dasharray:3.7201,5.5801,1.488,5.9521;}
	.st273{fill:none;stroke:#000000;stroke-width:3;stroke-miterlimit:10;stroke-dasharray:3.6372,5.4559,1.4549,5.8196;}
	.st274{fill:none;stroke:#000000;stroke-width:3;stroke-miterlimit:10;stroke-dasharray:5.5648,8.3472,2.2259,8.9037;}
	.st275{fill:none;stroke:#000000;stroke-width:3;stroke-miterlimit:10;stroke-dasharray:2.5397,3.8096,1.0159,4.0635;}
	.st276{fill:none;stroke:#000000;stroke-width:3;stroke-miterlimit:10;stroke-dasharray:2.4196,3.6293,0.9678,3.8713;}
	.st277{fill:none;stroke:#000000;stroke-width:3;stroke-miterlimit:10;stroke-dasharray:3.0917,4.6376,1.2367,4.9468;}
	.st278{fill:none;stroke:#000000;stroke-width:3;stroke-miterlimit:10;stroke-dasharray:3.1226,4.684,1.2491,4.9962;}
</style>
<g>
	<g>
		<g>
			<g>
				<path d="M80.7,28.2l-0.5,0l0-0.2c0.2-2.4,0.4-4.6,1.3-5c0.2-0.1,0.5-0.1,0.8,0c0.5-0.2,0.8-0.4,1.2-0.7c0.7-0.5,1.4-1,2.5-0.8
					c-0.1-0.4,0.2-0.7,0.5-1c0,0,0,0,0,0c0,0-0.1,0-0.1,0c-0.1,0-0.2-0.1-0.2-0.2L85.9,20l0.2-0.2c0,0,0,0,0,0
					c-0.4,0-0.6-0.1-0.7-0.3c-0.1-0.2-0.1-0.4,0-0.6c-0.3,0.1-0.9,0.4-1.6,0.7l-0.5,0.2l0.1-0.5c0.1-0.4,0.1-0.7,0.2-0.9
					c-0.2,0.2-0.3,0.5-0.5,0.8l-0.7,1.1l0.2-1.4c0-0.1,0-0.1,0-0.2c-0.3,0.3-0.8,0.5-1.4,0.3l-0.1,0c-0.3,0.8-0.8,2-1.7,1.8l-0.2,0
					l0-0.2c-0.1-0.6-0.2-0.9-0.3-0.9c0,0-0.2,0.1-0.3,0.2c-0.1,0.1-0.3,0.2-0.5,0.3l-1,0.5l0.7-0.9c0.3-0.5,0.3-0.9,0.1-1.3
					c-0.1,0.1-0.1,0.3-0.2,0.4c-0.2,0.5-0.4,0.7-0.6,0.7c-0.1,0-0.2-0.1-0.3-0.3c-0.1,0.5-0.1,1.1-0.2,1.7l-0.1,1.2L76.4,21
					c-0.2-0.5-0.3-1-0.4-1.4c-0.2-0.7-0.3-1.2-0.6-1.6c-0.1,0.6,0,1.2,0,1.5c0,0.3,0,0.5-0.2,0.6c-0.2,0-0.3,0-0.6-0.8
					c-0.1-0.2-0.2-0.5-0.3-0.8c0,0.1,0,0.1,0,0.2c-0.1,0.6-0.1,0.8-0.3,0.8c-0.2,0-0.3-0.1-0.5-0.6c-0.1-0.3-0.2-0.6-0.4-1
					c-0.1,0.1-0.1,0.1-0.2,0.1c-0.3,0-0.4-0.2-0.6-0.6c-0.9-0.3-1.9-0.8-2.9-1.3c-0.8-0.4-1.6-0.8-2.4-1.2l0.2-0.5
					c0.8,0.3,1.7,0.8,2.5,1.2c1.1,0.6,2.1,1.1,2.9,1.3l0.1,0l0.1,0.1c0.1,0.1,0.1,0.2,0.1,0.3c0-0.1,0-0.1,0.1-0.2l0.2-0.5l0.3,0.5
					c0.2,0.5,0.4,0.9,0.5,1.2c0-0.3,0.1-0.6,0.1-1l0.1-1l0.3,0.9c0.2,0.5,0.3,0.8,0.4,1.2c0-0.3,0-0.7,0.1-1.1l0.1-0.4l0.3,0.3
					c0.5,0.5,0.8,1.2,1,2.2c0,0,0,0.1,0,0.1c0.1-0.7,0.2-1.5,0.4-2l0.4-1l0.1,1.1c0,0.2,0,0.6,0.1,0.9c0.1-0.2,0.3-0.6,0.5-0.9
					l0.3-0.5l0.3,0.8c0.1,0.4,0.3,0.8,0.2,1.3c0.2-0.1,0.4-0.2,0.6-0.1c0.2,0.1,0.4,0.4,0.5,1.1c0.5-0.1,0.9-1.1,1.1-1.6
					c0.2-0.4,0.3-0.7,0.5-0.6c0.2,0,0.3,0.2,0.3,0.5c0.5,0.1,0.8-0.3,1-0.6c0.1-0.1,0.2-0.3,0.4-0.2c0.1,0.1,0.2,0.1,0.2,0.3
					c0.3-0.4,0.5-0.6,0.7-0.5c0.2,0.1,0.3,0.3,0.1,1.3c1.7-0.8,1.9-0.7,2-0.5c0.2,0.2,0,0.4-0.1,0.6c0,0.1-0.2,0.2-0.2,0.3
					c0,0,0.1,0,0.3,0c0.2,0,0.4,0,0.8-0.1l0.2,0l0.1,0.2c0.1,0.2,0,0.3,0,0.4c-0.1,0.2-0.3,0.3-0.5,0.4c0.1,0.1,0.1,0.1,0.1,0.2
					c0,0.1,0,0.3-0.1,0.4c-0.4,0.4-0.5,0.5-0.3,0.9l0.3,0.5L86.3,22c-1.1-0.3-1.7,0.1-2.5,0.6c-0.4,0.3-0.9,0.6-1.4,0.8l-0.1,0
					l-0.1,0c-0.2-0.1-0.4-0.1-0.4,0c-0.6,0.3-0.8,2.6-1,4.6L80.7,28.2z"/>
			</g>
			<g>
				<path d="M80.5,30.3L80,30.2l0-0.2l0.5,0.1C80.5,30.1,80.5,30.2,80.5,30.3z M80.6,29.1L80.1,29l0.1-0.6l0.5,0L80.6,29.1z"/>
			</g>
			<g>
				<path d="M75.3,52.1l-0.4-0.3c0.3-0.5,0.6-1.2,0.8-1.9c0.4-1.1,0.8-2.1,1.5-2.4c0.4-0.1,0.8-0.1,1.2,0.2c0,0,0,0,0,0
					c0.1-0.1,0.2-0.1,0.4-0.1c-0.1-0.1-0.1-0.3,0-0.4c0.1-0.2,0.4-0.2,0.8-0.1c-0.1,0-0.1-0.1-0.2-0.1l-1.1-0.8l1.3,0.4
					c0.4,0.1,1,0.2,1.5,0.3c-0.1,0-0.1-0.1-0.2-0.1l-0.2-0.1l0.3-0.8l0.1,0c0.4-0.3,1.2-0.3,1.8-0.4c0,0,0,0,0,0
					c-0.1,0-0.2-0.1-0.3-0.1l-1.1-0.4l1.2-0.1c0.4,0,0.7,0,0.9-0.1c-0.2-0.1-0.3-0.2-0.3-0.4c0-0.2,0.3-0.3,0.8-0.4
					c-0.1,0-0.3,0-0.5,0c-0.4,0-0.8,0-1.1-0.3l-0.2-0.1l0.1-0.2c0.3-0.5,0.7-0.6,1.1-0.7c0,0,0,0,0,0c-0.2,0-0.4,0-0.6,0
					c-0.4,0-0.7,0-0.8-0.2c-0.1-0.2,0-0.3,0.2-0.6c-0.4,0-0.9,0-1.2-0.1c-0.6-0.1-1.2-0.2-1.7,0.2c-0.5,0.2-0.9,0.1-1.3-0.3
					c-1-1.3-1.1-5.4-0.5-6.2l0.1-0.1l0.1,0c0.2,0,0.4,0.1,0.6,0.1c0.3,0.1,0.4,0.1,0.5-0.1l0.1-0.1c0.2-0.2,0.2-0.3,0-0.6
					c-0.2-0.3-0.4-0.7,0-1.2c0.4-0.4,0.7-1.1,0.9-2.3l0.5,0.1c-0.2,1.3-0.6,2.1-1,2.5c-0.1,0.2-0.1,0.3,0.1,0.6
					c0.2,0.3,0.4,0.8-0.1,1.2c-0.3,0.5-0.8,0.3-1,0.2c-0.1,0-0.2-0.1-0.2-0.1c-0.4,0.9-0.3,4.4,0.6,5.5c0.3,0.3,0.5,0.3,0.6,0.2
					c0.7-0.5,1.4-0.4,2.1-0.3c0.6,0.1,1.1,0.2,1.8-0.1l1.2-0.5l-0.9,0.9c-0.3,0.3-0.4,0.5-0.5,0.6c0.1,0,0.2,0,0.3,0
					c0.5,0,1.1-0.1,1.5,0.3l0.2,0.2l-0.3,0.2C84.3,43,84,43,83.8,43.1c-0.3,0.1-0.5,0.1-0.6,0.3c0.1,0,0.3,0,0.5,0
					c0.4,0,1,0,1.2,0.7l0.1,0.3l-0.3,0c-0.3,0-0.5,0.1-0.6,0.1c0.2,0.1,0.4,0.2,0.3,0.5c0,0.2-0.2,0.3-0.7,0.4
					c0.2,0.1,0.2,0.2,0.2,0.4c0,0.3-0.3,0.3-1,0.3c-0.5,0-1.2,0.1-1.5,0.2l-0.1,0.2c0.6,0.3,0.9,0.5,0.8,0.8
					c-0.1,0.3-0.9,0.2-1.5,0.1c0.2,0.2,0.2,0.3,0.2,0.5c-0.1,0.2-0.4,0.2-0.9,0c-0.1,0-0.4-0.1-0.5-0.2c0.1,0.1,0.2,0.2,0.3,0.3
					l0.9,0.9l-1.2-0.5c-0.2-0.1-0.4-0.2-0.5-0.2l-0.1,0c0.1,0.1,0.1,0.3,0.2,0.4c0.2,0.4,0.4,0.8,0.4,1.1l0.1,1.2l-0.6-1
					c-0.1-0.2-0.4-0.5-0.6-0.7c-0.4-0.4-0.8-0.7-0.7-1.1c0,0,0-0.1,0-0.1c-0.1,0-0.3,0-0.4,0c-0.5,0.2-0.9,1.2-1.2,2.1
					C75.9,50.8,75.6,51.6,75.3,52.1z M78.2,48.2c0,0.1,0.2,0.2,0.3,0.3c-0.1-0.1-0.1-0.3-0.2-0.4C78.3,48.2,78.3,48.2,78.2,48.2z"/>
			</g>
			<g>
				<path d="M73.8,53.2c-0.1,0-0.2,0-0.3-0.1l0.3-0.4l0.1,0.5C73.9,53.2,73.8,53.2,73.8,53.2z M74.7,52.8l-0.3-0.4
					c0.1-0.1,0.2-0.2,0.3-0.3l0.4,0.3C74.9,52.5,74.8,52.7,74.7,52.8z"/>
			</g>
			<g>
				<path d="M73.8,57.6c-1.3-0.9-2.9-1.7-5.5-1.1l-0.5,0.1l0.2-0.5c0.3-0.8,1.4-1.4,2.6-2.1c0.8-0.4,1.5-0.9,2-1.4
					c0.1-0.1,0.2-0.2,0.2-0.2l0.3,0.4c0,0-0.1,0.1-0.1,0.1c-0.5,0.5-1.4,1-2.1,1.5c-0.8,0.5-1.6,0.9-2.1,1.4
					c2.4-0.4,4.1,0.5,5.3,1.3L73.8,57.6z"/>
			</g>
			<g>
				<path d="M74.1,57.8l0.1-0.2l0.2-0.2l-0.2,0.2l0.2-0.2L74.1,57.8z M73.9,57.6L73.9,57.6l0.2-0.5l0.1,0.1L73.9,57.6z"/>
			</g>
			<g>
				<path d="M81.9,65.6L81,64.8c-0.6-0.6-1.1-1.1-1.6-1.5c-0.9-0.8-1.5-1.5-1.9-1.8c0,0.1,0,0.1,0,0.2l-0.5,0.1
					c-0.1-0.5-0.2-0.8,0-0.9c0.3-0.2,0.5,0,2.6,2.1c0.1,0.1,0.2,0.2,0.4,0.4c-0.4-0.6-0.8-1-1.1-1.3c-0.8-0.8-1.2-1.3-0.5-2.5
					c-1.4,0.7-2.5-0.2-3.8-1.1c-0.2-0.1-0.4-0.3-0.5-0.4l0.3-0.4c0.2,0.1,0.4,0.3,0.5,0.4c1.6,1.2,2.6,2,4.3,0.3l0.4,0.3
					c-1.5,1.9-1.2,2.2-0.4,3c0.6,0.6,1.4,1.4,2,3L81.9,65.6z"/>
			</g>
			<g>
				<path d="M66.7,78.2l-0.1-0.5c0.8-0.2,1.6-0.6,2.3-1l0.3,0.4C68.4,77.6,67.6,77.9,66.7,78.2z M76.6,71l-0.4-0.3
					c1.1-1.5,1.6-3.2,1.6-5.1c0-0.3,0-0.5,0-0.8l0.5,0c0,0.3,0,0.5,0,0.8C78.3,67.6,77.7,69.4,76.6,71z"/>
			</g>
			<g>
				<path d="M53.9,78.1c0-0.5-0.1-1-0.1-1.4c-0.2-1.7-0.3-3.3-0.2-4.6l0.1-0.7L54,72c0.4,0.6,0.5,1.4,0.7,2.1
					c0.2,1.1,0.4,2.1,1.3,2.5c0.2,0.1,0.4,0.2,0.6,0.2l-0.2,0.5c-0.2-0.1-0.4-0.2-0.7-0.3c-1.1-0.6-1.3-1.8-1.6-2.9
					c-0.1-0.3-0.1-0.6-0.2-1c0,1,0.1,2.2,0.3,3.4c0,0.5,0.1,1,0.1,1.4L53.9,78.1z"/>
			</g>
			<g>
				<path d="M54,78.5l0.2-0.1l0.2,0l-0.2,0l0.3,0L54,78.5z M53.9,78.3l0-0.1l0.5,0l0,0.1L53.9,78.3z"/>
			</g>
			<g>
				<path d="M47.8,84.9c-0.1,0-0.2,0-0.4,0l0-0.5c0.8,0,1.7,0,2.5-0.1c1.1-0.1,2.3-0.1,3.3,0c0.9-1.5,0.8-3.7,0.7-5.6l0.5,0
					c0.2,2.1,0.2,4.4-0.8,6l-0.1,0.1l-0.2,0c-1-0.1-2.2,0-3.4,0C49.3,84.9,48.5,84.9,47.8,84.9z"/>
			</g>
			<g>
				<path d="M45.6,84.7c-0.3-0.1-0.6-0.2-0.9-0.3l-0.1,0l0-0.1c-0.1-0.1-0.1-0.3-0.1-0.6c0-0.1,0-0.3,0-0.5c0-0.2,0-0.3,0-0.5
					c0-0.7-0.2-0.7-0.3-0.8l0.1-0.5c0.7,0.1,0.7,0.9,0.7,1.3c0,0.2,0,0.3,0,0.5c0,0.2,0,0.3,0,0.4c0,0.1,0,0.3,0,0.3
					c0.2,0.1,0.4,0.2,0.7,0.2L45.6,84.7z M38.9,81.6c-0.5-0.1-0.9-0.3-1.4-0.5l0.2-0.5c0.4,0.2,0.9,0.3,1.3,0.5L38.9,81.6z"/>
			</g>
			<g>
				<path d="M32.6,77.9c-0.5-0.4-0.9-0.9-1.3-1.3c-1.4-1.4-2.4-2.3-3.1-1.9l-0.8,0.4l0.5-0.8c0.6-1,0.1-2-0.5-3.2
					c-0.4-0.7-0.7-1.5-0.8-2.3l0.5-0.1c0.1,0.7,0.4,1.4,0.8,2.1c0.5,1,1,2.1,0.7,3.2c0,0,0,0,0,0c0.9,0,1.8,0.9,3.1,2.2
					c0.4,0.4,0.8,0.8,1.3,1.3L32.6,77.9z"/>
			</g>
			<g>
				<path d="M26.5,67.9c0-0.2,0-0.5,0-0.7c0-0.4,0-0.7,0.1-1.2l0.5,0.1C27,66.5,27,66.9,27,67.2c0,0.2,0,0.4,0,0.6L26.5,67.9z
					 M27.7,63.5l-0.5-0.1c0-0.2,0.1-0.5,0.1-0.7l0.5,0.1C27.8,63,27.7,63.2,27.7,63.5z"/>
			</g>
			<g>
				<path d="M23.9,64.4l0.2-1.4c0.1-0.4,0.2-0.8,0.3-1.1c-0.1,0.2-0.2,0.4-0.3,0.5c-0.3,0.5-0.4,0.8-0.7,0.7
					c-0.3-0.1-0.2-0.4-0.2-0.8c0.1-1.1,0.7-2.2,1.4-3.2c0.8-1.3,1.6-2.6,1-3.9l-0.4-0.9l0.8,0.6c0.6,0.4,0.9,0.2,1.5-0.3
					c0.1-0.1,0.3-0.2,0.4-0.3c1.2-3.8,2.7-5.1,6.5-5.6c0.2-0.7-0.2-1.8-0.5-2.8c-0.1-0.3-0.2-0.6-0.3-0.8l-0.7-0.5
					c-0.1-0.1-0.2-0.2-0.3-0.3c-0.1-0.1-0.1-0.1-0.2-0.2c0,0,0,0.1,0,0.1L32.1,45l-0.4-0.8c-0.1-0.2-0.2-0.3-0.2-0.5
					c-0.1-0.3-0.3-0.6-0.5-0.8c0,0.2,0,0.3,0,0.5c0,0.6,0,1.2-0.6,1.8L30,45.5L29.9,45c-0.1-0.7-0.2-1-0.2-1.1
					c-0.2,0.2-0.5,0.8-0.7,1.2c-0.1,0.2-0.2,0.4-0.2,0.5l-0.9,1.9l0.4-2c0.3-1.3,0.2-1.7,0.2-1.8c-0.1,0.1-0.4,0.3-1,1.3l-0.6,1
					l0.2-1.1C27,44.4,27,44.1,27,44c-0.1,0.1-0.3,0.4-0.4,0.5c-0.2,0.3-0.4,0.5-0.6,0.4c-0.2-0.1-0.2-0.2,0.3-1.7
					c-0.4-0.4-1.5,0-2.4,0.3c-0.6,0.2-1.1,0.4-1.5,0.4c-0.3,0-0.8,0.3-1.3,0.7L20.8,44c0.7-0.4,1.1-0.7,1.5-0.7
					c0.3,0,0.9-0.2,1.4-0.4c1.2-0.4,2.5-0.8,3,0l0.1,0.1l0,0.1c-0.1,0.2-0.1,0.3-0.2,0.5c0.2-0.2,0.4-0.3,0.6-0.2
					c0.2,0.1,0.3,0.2,0.3,0.5c0.5-0.6,0.8-0.9,1.1-0.7c0.2,0.1,0.3,0.2,0.3,0.8c0.2-0.4,0.5-0.7,0.8-0.6c0.3,0,0.4,0.3,0.6,0.9
					c0.1-0.3,0.1-0.6,0.1-1c0-0.3,0-0.6,0.1-0.9l0.1-0.3l0.3,0.1c0.6,0.3,0.8,0.8,1,1.2c0,0,0,0,0,0c0.1,0,0.2,0,0.2,0
					c-0.2-0.7-0.3-1.5-0.1-1.8c0.1-0.1,0.2-0.2,0.4-0.2c0.2,0,0.5,0.2,1.1,1.5l0,0.1c0,0.7,0.3,1.7,0.6,2.6c0.5,1.3,0.9,2.5,0.5,3.3
					l-0.1,0.1l-0.1,0c-4,0.4-5.1,1.8-6.3,5.3l0,0.1l-0.1,0c-0.2,0.1-0.3,0.2-0.5,0.4c-0.4,0.3-0.9,0.8-1.5,0.6
					c0.3,1.3-0.5,2.6-1.2,3.8c-0.5,0.9-1.1,1.8-1.3,2.7c0.3-0.5,0.7-1.1,1-1.2l0.4-0.2L25.1,61c0.8-1.5,1.3-2.4,1.9-2.3
					c0.4,0.1,0.6,0.6,0.7,1.1l-0.5,0.1c-0.1-0.6-0.3-0.7-0.3-0.7c0,0,0,0,0,0c-0.3,0-1.2,1.8-1.6,2.7c-0.2,0.5-0.5,1-0.7,1.3
					L23.9,64.4z M32.5,42.1c-0.1,0.4,0.1,1.4,0.5,2.1l0.2,0.4c-0.1-0.5-0.2-0.9-0.2-1.4C32.8,42.5,32.6,42.2,32.5,42.1z"/>
			</g>
			<g>
				<path d="M19,45.6c0,0-0.1,0-0.1,0l0.1-0.5c0,0,0,0,0,0c0.4,0,1-0.4,1.2-0.6l0.3,0.4C19.9,45.3,19.4,45.6,19,45.6z M19.4,43.6
					l-0.3-0.4c0.2-0.1,0.4-0.2,0.6-0.3l0.2,0.5C19.7,43.4,19.5,43.5,19.4,43.6z"/>
			</g>
			<g>
				<path d="M22.2,42.4L21.9,42c0.1-0.1,0.3-0.2,0.4-0.3c-0.2,0-0.4,0.1-0.5,0.2l-0.1,0.1c-0.4,0.1-0.8,0.1-0.9-0.2
					c-0.1-0.3,0.2-0.5,1.3-1.1c0.2-0.1,0.4-0.2,0.5-0.3c0.1-0.1,0.1-0.1,0.1-0.1c0,0-0.1-0.1-0.2-0.2c-0.1-0.1-0.2-0.2-0.3-0.4
					c0,0,0,0,0,0c-0.2,0-0.4,0-0.6-0.1c-0.1-0.1-0.2-0.3-0.2-0.5l0-0.2c-0.2,0-0.3,0.1-0.4,0.1c-1,0.2-2,0.4-2.5,0.2l-0.1-0.1
					c-0.3-0.3-1.3-0.1-2,0c-0.8,0.2-1.3,0.3-1.5,0c-0.1-0.1-0.1-0.2-0.1-0.3c-0.3,0.1-0.5,0.1-0.6-0.1c-0.1-0.2,0-0.4,0.1-0.6
					c0.1-0.1,0.2-0.3,0.2-0.4c0,0,0,0,0,0c0,0-0.1-0.1-1-0.1l-2.3,0.1l2.2-0.6c0.3-0.1,0.5-0.1,0.6-0.2c-0.1,0-0.2-0.1-0.3-0.1
					c-0.3-0.1-0.7-0.2-0.9-0.4l-0.3-0.2l0.4-0.2c0.2-0.1,0.5-0.1,0.8-0.2c0.3,0,0.7-0.1,0.8-0.2c0,0,0-0.1,0-0.2l-0.1-0.4l0.4,0.1
					c0.1,0,0.1,0,0.2,0.1c0,0,0.1,0,0.2,0.1c-0.3-0.2-1-0.8-0.8-1.2c0.1-0.3,0.5-0.2,0.7-0.2l0,0l-0.6-0.7l1,0.4
					c0.6,0.2,0.9,0.4,1.2,0.5c0-0.2-0.1-0.6-0.1-1.2l0-1.7l0.5,1.7c0.2,0.5,0.3,0.9,0.5,1.1c0-0.2-0.1-0.4-0.2-0.7L17.2,33l0.3,0
					c0.3,0,0.5,0.3,0.7,0.6l0.3,0l0,0l0,0c0,0.6,1.2,1.6,1.9,1.6c0.2,0,0.3,0,0.3-0.3l0-0.1c0.1-0.3,0.2-0.5,0.4-0.5
					c0.2,0,0.2,0.3,0.3,0.5c0,0.1,0,0.3,0.1,0.4c0,0,0,0,0,0c0.8-0.8,1.3-0.6,2.1,0c0,0,0.1,0,0.1,0c0-0.1-0.1-0.3-0.2-0.4
					c0-0.1-0.1-0.2-0.1-0.3l-0.1-0.2l0.2-0.1c0.5-0.2,0.9,0.3,1.2,0.6c0,0,0.1,0.1,0.1,0.1c-0.4-0.9-1-1.6-1.3-2
					c-0.3-0.3-0.4-0.5-0.2-0.7c0.2-0.2,0.2-0.2,1.3,0.6c0.4,0.3,0.9,0.6,1.5,1c0-1-0.6-1.7-1.3-2.4c-0.5-0.5-0.9-1-1.2-1.6l-0.3-0.7
					l0.7,0.3c0.6,0.3,1.5,0.8,2.1,1.6c-0.1-0.4-0.4-0.7-0.7-1.1c-0.3-0.4-0.6-0.8-0.8-1.2l-0.2-0.6l0.6,0.3c1.2,0.6,2.3,2.9,2.6,4.4
					l0.4,0c0,0.3,0,0.6-0.3,0.7c-0.3,0.1-0.4-0.2-0.5-0.3l0-0.1c-0.1-0.4-0.2-1-0.4-1.5c0,0.1,0,0.2-0.1,0.4l-0.1,0.4
					c0.2,0.5,0.4,1.1,0.3,1.8l-0.1,0.4l-0.3-0.2c-0.7-0.5-1.3-0.9-1.7-1.2c0.4,0.6,0.8,1.3,1.1,2.1l0.1,0.4l-0.4,0
					c-0.4,0-0.7-0.3-1-0.6c-0.1-0.1-0.3-0.3-0.4-0.4c0.2,0.4,0.3,0.7,0,0.9c-0.2,0.2-0.6,0-0.7-0.1c-0.8-0.6-1-0.6-1.5-0.1l-0.1,0
					c-0.2,0.1-0.4,0.1-0.5,0.1c-0.1-0.1-0.2-0.1-0.2-0.2c-0.1,0.2-0.4,0.3-0.7,0.3c-0.7,0-1.7-0.7-2.2-1.5c-0.1,0-0.1,0-0.2,0
					c0,0.3,0,0.4-0.1,0.5c-0.1,0.1-0.2,0.1-0.3,0.1c-0.2,0-0.3-0.2-0.5-0.4c0,0.2,0,0.3-0.1,0.4c-0.2,0.1-0.3,0-0.6-0.1
					c-0.1,0-0.1-0.1-0.2-0.1c0.2,0.3,0.2,0.4,0.1,0.6c-0.1,0.1-0.3,0.1-0.7-0.1c0,0,0,0,0,0c0.2,0.2,0.5,0.5,0.3,0.7
					c-0.2,0.2-0.5,0.2-1,0c0,0.1-0.1,0.2-0.1,0.2c-0.2,0.3-0.6,0.3-1.1,0.4c0,0,0.1,0,0.1,0c0.5,0.2,0.8,0.3,0.8,0.6
					c0,0.1,0,0.2-0.1,0.3c0.2,0.1,0.3,0.1,0.4,0.3c0.2,0.3,0,0.6-0.1,0.8c0.1,0,0.2-0.1,0.4-0.1l0.7-0.2l-0.4,0.6
					c-0.1,0.1-0.1,0.2-0.1,0.2c0.2,0,0.6-0.1,1-0.1c0.9-0.2,1.8-0.4,2.4,0c0.4,0.1,1.4-0.1,2.3-0.3c1.7-0.3,3.2-0.6,3.4,0.2l0,0.2
					l-0.2,0.1c-0.5,0.3-1,0.4-1.6,0.4l0,0.1c0,0.1,0.1,0.2,0.2,0.4c0.1,0.2,0.3,0.4,0.3,0.6c0,0.2-0.1,0.3-0.3,0.4
					c-0.1,0.1-0.3,0.2-0.5,0.3c-0.1,0-0.2,0.1-0.3,0.2c0.3-0.1,0.6-0.1,0.7,0c0.1,0.1,0.2,0.3,0,0.6l0,0.1
					C22.6,42.1,22.4,42.2,22.2,42.4z M21.9,38.8c0.1,0,0.2,0,0.3,0c0.5,0,1,0,1.4-0.1C23.3,38.6,22.6,38.7,21.9,38.8z M15.5,35.6
					L15.5,35.6L15.5,35.6z M24.7,30.5c0.2,0.2,0.3,0.4,0.5,0.5c0.2,0.3,0.5,0.5,0.7,0.8C25.7,31.3,25.3,30.9,24.7,30.5z"/>
			</g>
			<g>
				<path d="M27.3,30.5c-0.1-1.1-0.1-2.2-0.1-3.4c0-0.5,0-0.9,0-1.4l0.5,0c0,0.4,0,0.9,0,1.3c0,1.2,0.1,2.3,0.1,3.4L27.3,30.5z
					 M30.7,20.1l-0.3-0.4c0.5-0.4,1-0.7,1.6-1.1l0.3,0.4C31.7,19.3,31.2,19.7,30.7,20.1z"/>
			</g>
			<g>
				<path d="M38.7,15.1l-0.1-0.1l-0.4,0.1l0.1-0.5c0.3-1.1,3.5-3.3,4.6-3.2c0.2,0,0.3,0.1,0.4,0.1l0.4-0.1c1.1-0.1,1.8,0.6,2.3,1.2
					c0.2,0.3,0.5,0.5,0.7,0.7c0.1,0,0.3,0,0.3-0.1c0.1-0.1-0.1-0.5-0.3-0.7l-0.1-0.1c-0.1-0.2-0.1-0.5-0.1-0.6l0.5,0.2
					c0,0,0,0.1,0,0.2c0.3,0.3,0.6,0.9,0.4,1.3c-0.1,0.2-0.3,0.5-0.9,0.4l-0.1,0c-0.3-0.2-0.6-0.5-0.9-0.8c0,0-0.1-0.1-0.1-0.1
					c0,0.1,0.1,0.2,0.1,0.3c0,0.2-0.1,0.3-0.2,0.4c-0.2,0.1-0.6,0-1.1-0.3l-0.1,0C42.4,13.6,40.6,14.2,38.7,15.1z M43,11.9
					c-0.1,0-0.2,0-0.3,0.1c-0.9,0.3-2.5,1.3-3.3,2.2c0.3-0.2,0.6-0.4,0.9-0.6c1-0.6,2.2-1.3,3.2-1.1l0-0.1c0,0,0-0.1,0-0.1
					c-0.1,0-0.5,0-0.5-0.4C43.1,11.9,43,11.9,43,11.9z M43.1,12.9c-0.6,0-1.3,0.3-1.9,0.7c0.8-0.3,1.6-0.5,2.4-0.6
					C43.4,12.9,43.3,12.9,43.1,12.9z M44.1,12.4c0.7,0.6,1,0.7,1.2,0.7c-0.1-0.2-0.4-0.6-1.1-1C44.2,12.2,44.1,12.3,44.1,12.4z"/>
			</g>
			<g>
				<path d="M47.4,11.9l-0.2-0.5c0.2-0.1,0.5-0.1,0.7-0.1l0.1,0l0.1,0.5l-0.2,0C47.8,11.9,47.6,11.9,47.4,11.9z M48.6,10.7
					c0-0.1,0-0.2,0-0.3l0.5-0.1c0,0.1,0.1,0.3,0.1,0.4L48.6,10.7z"/>
			</g>
			<g>
				<path d="M51.6,10.4l-0.1-0.1c-0.4-0.3-0.6-0.7-0.8-1.1c-0.2-0.5-0.4-0.9-0.9-1.1c-1.3-0.2-1.5,0-1.6,0c-0.1,0.1,0.2,0.6,0.3,0.9
					l-0.4,0.2c-0.3-0.5-0.5-1-0.2-1.4c0.3-0.4,0.9-0.4,2.1-0.2c0.7,0.2,1,0.8,1.2,1.3c0.1,0.3,0.3,0.6,0.5,0.8c0,0,0.1-0.1,0.1-0.1
					C51.8,9.5,52,9,52.6,9.3c1.5,0.4,3,0.6,4.1,0.5c0.2-0.1,0.4-0.2,0.7,0L57,10.1c0,0,0.1,0,0.1,0c0,0-0.1,0-0.2,0.1l-0.1,0
					c-1.2,0.2-2.9,0-4.4-0.5c-0.1-0.1-0.2-0.1-0.2-0.1c0,0-0.1,0.1-0.1,0.2c-0.1,0.2-0.2,0.3-0.4,0.4L51.6,10.4z"/>
			</g>
			<g>
				<path d="M62,14.3L62,13.8l0.4,0c0.2,0,0.4-0.1,0.7-0.1l0.1,0.5c-0.2,0-0.4,0-0.6,0.1L62,14.3z M58.5,13l0-0.1l0-0.1
					c0.1-0.4,0.1-0.7,0.1-0.9c0-0.6-0.1-0.6-0.5-0.6c-0.1,0-0.2,0-0.3,0l0.1-0.5c0.1,0,0.1,0,0.2,0c0.4,0,0.9,0.1,0.9,1.1
					c0,0.3,0,0.6-0.1,1l-0.1,0L58.5,13z"/>
			</g>
		</g>
		<g>
			<g>
				<path d="M75.3,32.2c-0.4-0.7-0.9-1.5-1.4-2.2c-0.6-0.9-1.2-1.7-1.6-2.6c-0.6,0.6-0.9,0.6-1.3,0.3c-0.2-0.1-0.5-0.3-1.1,0
					L69.1,28l0.4-0.6c0.1-0.1,0.1-0.2,0.2-0.3c-0.1,0-0.3,0-0.4-0.2c-0.1-0.1-0.1-0.3-0.1-0.6c-1.2,0-2.7-0.4-4.1-0.8
					c-0.5-0.2-1-0.3-1.5-0.4c0.1,0.2,0.1,0.4,0,0.5l-0.1,0.1L63,25.5c-0.3-0.1-0.8-0.4-1.1-0.4c0,0.1,0.1,0.2,0.2,0.5l0,0.1
					c0.1,0.4,0.2,0.7,0,0.9c-0.2,0.1-0.3,0-0.5-0.4c0.2,0.4,0.3,0.8,0.1,1c-0.2,0.1-0.4,0-0.8-0.4c0,0.1-0.1,0.2-0.2,0.3
					c-0.3,0.1-0.4-0.2-0.8-0.9c-0.2-0.3-0.4-0.7-0.6-1.1c0.5,1.6,1,3.2,1.3,4.8l-0.5,0.1c-0.4-1.9-0.9-3.8-1.6-5.7l-0.2-0.5l0.5,0.2
					c0.6,0.2,1.1,1.2,1.5,2c0,0.1,0.1,0.2,0.1,0.2l0-0.7l0.4,0.5c-0.2-0.3-0.3-0.5-0.5-0.7L60.3,25l0-0.1c0-0.1,0-0.5,0.3-0.6
					c0.3-0.1,0.5,0.2,0.8,0.6c0-0.1,0-0.1,0.1-0.2c0.2-0.3,0.7-0.1,1.5,0.2c0-0.1,0-0.2,0-0.3c0.1-0.2,0.4-0.2,0.5-0.2
					c0.6,0.1,1.1,0.3,1.7,0.5c1.5,0.5,3.1,1,4.3,0.8l0.4-0.1l-0.1,0.4c-0.1,0.4-0.1,0.5-0.1,0.5c0,0,0.1,0,0.1,0
					c0.1,0,0.3,0,0.4,0.2c0.1,0.1,0.1,0.2,0,0.4c0.5-0.1,0.8,0.1,1,0.2c0.2,0.1,0.3,0.2,0.9-0.5l0.3-0.3l0.2,0.4
					c0.4,0.9,1,1.9,1.7,2.8c0.5,0.7,1,1.5,1.4,2.2L75.3,32.2z"/>
			</g>
			<g>
				<path d="M61.3,37.5l-0.5,0c0-0.3,0-0.6,0-0.9l0.5,0C61.3,36.9,61.3,37.2,61.3,37.5z M60.7,33.2c-0.1-0.7-0.2-1.5-0.3-2.2
					l0.5-0.1c0.1,0.8,0.2,1.5,0.3,2.2L60.7,33.2z"/>
			</g>
			<g>
				<path d="M58.1,47l0.2-0.4c0.9-1.7,1.6-3.6,2-5.6l0.5,0.1c-0.4,1.8-1,3.6-1.8,5.2c0.6-0.3,0.9-0.9,1.2-1.5c0.2-0.5,0.4-1,0.9-1
					c0.4,0,0.7,0.2,1.2,0.9c0.9,0.6,3.3,0.8,3.9,0.2c0.2-0.2,0.2-0.6-0.2-1.2l-0.2-0.3l0.3-0.1c0.3-0.1,0.5,0,0.7,0.1
					c0.1,0,0.3,0.1,0.3,0.1c0,0,0.1,0,0.1-0.3c0.2-0.7,0.4-1.1,0.7-1.2c0.3-0.1,0.6,0.2,0.9,0.4c0.2,0.2,0.4,0.3,0.4,0.3l0.1-0.1
					l0.1,0c0.6,0.1,1.1,0.1,1.5,0.1l0,0.5c-0.4,0-0.9-0.1-1.4-0.1c-0.4,0.2-0.7-0.1-1-0.4c-0.1-0.1-0.3-0.3-0.4-0.3
					c0,0-0.2,0.1-0.4,0.8c0,0.2-0.1,0.5-0.3,0.7c-0.3,0.1-0.5,0-0.8-0.1c0.3,0.6,0.1,1.1-0.2,1.3c-0.9,0.9-3.6,0.5-4.6-0.2L61.9,45
					c-0.5-0.7-0.7-0.7-0.8-0.7c-0.1,0-0.3,0.4-0.5,0.7c-0.3,0.8-0.8,1.8-2.1,1.9L58.1,47z"/>
			</g>
			<g>
				<path d="M72.5,43.4l0-0.5c1.3,0,1.9-0.3,2.2-1.1l0.5,0.2C74.7,43.2,73.8,43.4,72.5,43.4z M75.8,37.7l-0.5,0l0.1-0.6l0-0.1
					c0.1-0.2,0.2-0.3,0.3-0.5l0.4,0.2c-0.1,0.2-0.2,0.3-0.3,0.5L75.8,37.7z"/>
			</g>
		</g>
		<g>
			<g>
				<path d="M37.5,44.5c-0.1-0.2-0.2-0.4-0.4-0.6c-0.5-0.7-1.8-3.4-1.1-4.3c0.1-0.2,0.3-0.3,0.6-0.4c0-0.1-0.1-0.2,0-0.3
					c0-0.1,0.1-0.2,0.2-0.3c-0.4,0-0.7-0.1-0.7-0.3c-0.1-0.3,0.2-0.5,0.8-0.8c0.4-0.2,1-0.6,1.1-0.8c0,0,0,0-0.1-0.1
					c-0.4-0.7-0.9-0.8-1.7-0.4l-1,0.5l0.7-0.9c0.7-0.9,1-1.3,1.3-1.9c0.1-0.2,0.2-0.3,0.3-0.5c-0.3,0.1-0.5,0.1-0.6-0.1
					c-0.1-0.1-0.2-0.3-0.1-0.6c0.2-0.4,0.6-0.9,1.2-1.2c-0.3-0.1-0.5-0.2-0.6-0.4c0-0.3,0.2-0.5,1.3-1c-0.2,0-0.5,0.1-1,0.3
					c-0.5,0.2-0.9,0.4-1.2,0.1c-0.2-0.2-0.2-0.5,0-1.2c0.2-0.3,0.4-0.5,0.6-0.7c0.2-0.1,0.4-0.3,0.4-0.4c0-0.1-0.1-0.2-0.1-0.3l0,0
					c0,0,0,0,0,0.1c-0.3,0.4-0.7,1-1.3,1l-0.4,0l0.4-0.8c-0.8,0.4-1.2,0.5-1.5,0.3c-0.3-0.2-0.1-0.7,0.1-1.4
					c0.2-0.7,0.5-1.6,0.5-2.5v-0.1l0.5,0v0.1c0,1-0.3,2-0.5,2.7C35.1,27.7,35,28,35,28.2c0.1,0,0.5-0.1,1.6-0.7l0.8-0.4L37,27.7
					c0.2-0.3,0.3-0.5,0.6-0.4c0.2,0.1,0.3,0.3,0.3,0.5c0.2,0.2,0.2,0.4,0.2,0.6c0,0.3-0.3,0.5-0.6,0.8c-0.2,0.1-0.4,0.3-0.5,0.5
					c-0.1,0.5-0.1,0.6-0.1,0.6h0c0.1,0,0.4-0.1,0.6-0.2c0.6-0.3,1.5-0.6,1.8,0.2l0.1,0.2l-0.2,0.1c-0.7,0.3-1,0.5-1.2,0.6
					c0.2,0,0.4,0,0.6,0.1c0.5,0,0.7,0.1,0.7,0.3c0,0.3-0.3,0.4-0.5,0.4l0,0l0,0c0,0,0,0,0,0c-0.5,0-1,0.4-1.2,0.7
					c-0.2,0.2-0.3,0.4-0.3,0.5c0.1,0,0.3,0,0.8-0.3l0.9-0.5l-0.5,0.8c-0.3,0.5-0.5,0.9-0.7,1.2c-0.2,0.4-0.5,0.8-0.8,1.3
					c0.5-0.1,1.1,0.1,1.5,0.8c0.2,0.2,0.2,0.4,0.1,0.5c-0.1,0.5-0.7,0.9-1.3,1.2c-0.1,0-0.1,0.1-0.2,0.1l0,0
					c0.3-0.1,0.8-0.2,1.2,0.2l0.2,0.2l-0.2,0.2c-0.2,0.2-0.6,0.3-0.8,0.3c-0.1,0-0.1,0-0.2,0c0,0,0.1,0.1,0.2,0.3l0.5,0.6l-0.7-0.2
					c-0.5-0.1-0.6,0-0.6,0.1c-0.4,0.6,0.5,3,1.1,3.8c0.1,0.2,0.2,0.4,0.3,0.6L37.5,44.5z"/>
			</g>
			<g>
				<path d="M39.7,46.5c-0.1-0.1-0.2-0.1-0.3-0.2l0.3-0.4c0.1,0.1,0.2,0.1,0.3,0.2L39.7,46.5z M38.3,45.5c-0.2-0.2-0.4-0.4-0.6-0.6
					l0.4-0.3c0.2,0.2,0.4,0.4,0.5,0.6L38.3,45.5z"/>
			</g>
			<g>
				<path d="M47.2,49l-0.5-0.2c-0.8-0.3-1.7-0.5-2.6-0.7c-1-0.3-2.1-0.5-3.1-0.9l0.2-0.5c1,0.4,2,0.7,3.1,0.9
					c0.7,0.2,1.4,0.4,2.1,0.6c-0.8-1.9-1.4-3.6-2-5.1l0.5-0.2c0.6,1.6,1.3,3.4,2.2,5.6L47.2,49z"/>
			</g>
			<g>
				<path d="M43.8,41.2c-0.4-1.3-0.7-2.6-0.9-3.7l0.5-0.1c0.2,1.1,0.5,2.3,0.9,3.6L43.8,41.2z M43,31.8l-0.5-0.1
					c0.1-0.5,0.1-1,0.2-1.5l0.5,0.1C43.1,30.9,43,31.4,43,31.8z"/>
			</g>
			<g>
				<path d="M45.1,24.7l-0.5-0.2c0.6-1.4,1.4-3,2.1-4.5c-0.3,0.3-0.6,0.5-0.9,0.4c-0.3,0-0.5-0.3-0.6-0.6c-0.1-0.3-0.3-0.4-0.6-0.5
					c-0.1,0-0.2-0.1-0.3-0.1c-0.4-0.3-0.5-0.5-0.5-0.8c0-0.5,0.6-0.7,1.1-1l0.2,0.4c-0.3,0.2-0.8,0.4-0.9,0.6c0,0.1,0.1,0.2,0.3,0.3
					c0,0,0.1,0,0.2,0.1c0.3,0.1,0.8,0.3,0.9,0.8c0.1,0.2,0.2,0.3,0.2,0.3c0.2,0.1,0.5-0.3,0.7-0.6c0.3-0.3,0.5-0.5,0.7-0.5
					c0.1,0,0.2,0.1,0.3,0.2l0.1,0.1l-0.1,0.1C46.8,21.1,45.8,23,45.1,24.7z"/>
			</g>
			<g>
				<path d="M37.7,18.7l-0.4-0.2c0.3-0.5,0.5-0.9,0.8-1.4l0.4,0.3C38.2,17.8,37.9,18.2,37.7,18.7z M45.3,16.2
					c-0.6-1.5-1.5-2.3-2.5-2.3l-0.1,0l0-0.5l0.1,0c1.2,0,2.2,0.9,2.9,2.6L45.3,16.2z"/>
			</g>
		</g>
		<g>
			<g>
				<path d="M50.3,78.7l-0.5,0c0,0,0,0,0,0l0,0c0,0,0-0.1,0-0.1c0-1.3-1-2.8-3.1-4.6l0.3-0.4c1.3,1.1,2.3,2.1,2.8,3.1
					c0-1.1-0.1-2.5-0.2-4l0.5,0c0.2,2.8,0.2,5.2,0.2,5.9C50.3,78.7,50.3,78.7,50.3,78.7C50.3,78.7,50.3,78.7,50.3,78.7
					C50.3,78.7,50.3,78.7,50.3,78.7z"/>
			</g>
			<g>
				<path d="M49.4,69.8c-0.2-2.8-0.6-4.7-1-5.8l0.5-0.2c0.4,1.1,0.7,3.1,1,5.9L49.4,69.8z M40.7,68.3l-0.1-0.5
					c0.4-0.1,0.9-0.1,1.7,0c0.2,0,0.5,0,0.7-0.1l0.1,0.5c-0.2,0-0.5,0.1-0.7,0.1C41.5,68.2,41,68.2,40.7,68.3z"/>
			</g>
		</g>
		<g>
			<g>
				<path d="M46.6,45.4l-0.5-1.2c-0.8-1.8-1.3-3.8-1.7-5.8l0.5-0.1c0.3,1.5,0.7,3,1.2,4.4c0-1.6,0-3.1,0-4.6l0.5,0c0,1.9,0,3.8,0,6
					L46.6,45.4z"/>
			</g>
			<g>
				<path d="M46.7,34.4l-0.5,0c0.2-2.7,0.5-5.2,0.9-7.3l0.5,0.1C47.2,29.3,46.9,31.8,46.7,34.4z M45.1,26.7l-0.5-0.1
					c0.1-0.3,0.2-0.6,0.2-0.9c0.2-0.6,0.4-1.3,0.6-1.9l0.5,0.2c-0.2,0.6-0.4,1.3-0.6,1.9C45.2,26.1,45.1,26.4,45.1,26.7z"/>
			</g>
		</g>
		<g>
			<path d="M68.4,24.7c-1.7,0-6.3-1.5-7-1.8l-0.1-0.1l0-0.1c-0.2-1.1-1.1-1.8-2.1-2.4c-0.6-0.4-1.1-0.8-1.4-1.2l-0.2-0.2l0.3-0.1
				c0.6-0.3,1.9-0.3,3.3-0.2c1.3,0,3.2,0.1,3.4-0.3c0-0.1,0-0.3-0.4-0.7l-0.3-0.3l0.4-0.1c1-0.2,5.8,2.5,6.2,3.3l0.1,0.2l-0.3,0.1
				c-0.3,0.1-0.5,0.1-0.8,0.1c0.3,0.3,0.4,0.5,0.3,0.7c-0.1,0.1-0.2,0.2-0.4,0.2c0.2,0.2,0.2,0.3,0.1,0.4c-0.1,0.1-0.2,0.4-1.7-0.3
				c0,0.1,0,0.2-0.1,0.3c-0.1,0.2-0.3,0.2-0.5,0.2c0,0.1,0,0.1,0,0.2c0,0.1-0.1,0.1-0.1,0.2c0,0,0,0,0.1,0c0.5,0.1,1,0.1,1.1,0.5
				c0.1,0.2,0,0.3,0,0.4c0.6,0.4,0.9,0.6,0.8,0.9C68.9,24.6,68.7,24.7,68.4,24.7z M61.7,22.5c1.3,0.6,5.4,1.6,6.6,1.7
				c-0.1-0.1-0.3-0.2-0.6-0.3l-0.3-0.1l0.2-0.2c0.1-0.1,0.1-0.2,0.1-0.2c-0.1-0.1-0.5-0.1-0.7-0.1c-0.3,0-0.5-0.1-0.7-0.1
				c-0.3-0.1-0.6-0.3-0.5-0.5c0-0.2,0.3-0.2,0.5-0.2c0.1,0,0.2,0,0.2,0c0,0,0,0,0,0l-0.5-0.4l0.6,0l0.3,0c0.1,0,0.2,0,0.3,0
				c0-0.1,0-0.1-0.1-0.3L67,20.9l0.6,0.3c0.4,0.2,0.7,0.3,1,0.4c-0.1-0.1-0.3-0.2-0.5-0.3L66,20l2.2,0.8c0.4,0.1,0.6,0.2,0.8,0.3
				c-0.2-0.2-0.4-0.4-0.6-0.6c-0.4-0.3-0.7-0.7-1-0.9l-0.3-0.4l0.5,0c0.5,0,0.8,0.3,1.1,0.6c0.3,0.3,0.6,0.5,0.9,0.6
				c-0.9-0.8-3.6-2.3-4.9-2.7c0.2,0.3,0.2,0.5,0.1,0.8C64.6,19,63.3,19,61.1,19c-1,0-2.1,0-2.7,0.1c0.3,0.3,0.7,0.5,1.1,0.8
				C60.4,20.5,61.4,21.2,61.7,22.5z"/>
		</g>
		<g>
			<g>
				<path d="M55.1,44.3l-0.2-1.1c-0.2-1-0.3-1.7-0.4-2.2c0,0.3,0,0.6,0,1.1l0,0.5l-0.4-0.2c-0.3-0.2-0.4-0.7-0.4-1.3
					c0-0.2,0-0.4,0-0.5c0.1-1.6,0-3.1,0-4.4l0.5,0c0,1.1,0.1,2.5,0,3.9c0.1-0.1,0.1-0.1,0.2-0.1c0.2,0,0.4,0,0.8,2.1
					c0.4-1.5,0.6-3.1,0.7-4.7l0.5,0c-0.2,2-0.5,4-1.1,5.9L55.1,44.3z"/>
			</g>
			<g>
				<path d="M56.5,36.5l-0.5,0c0-0.4,0-0.9,0-1.3l0.5,0C56.5,35.6,56.5,36.1,56.5,36.5z M56,33.2c0-0.2,0-0.4,0-0.5l0.5,0
					c0,0.2,0,0.4,0,0.5L56,33.2z"/>
			</g>
			<g>
				<path d="M53.5,30.8c0-2.5,0.1-4.3,0.4-6L54,24l0.3,0.7c0.9,1.7,1.5,3.6,1.9,5.8l-0.5,0.1c-0.3-1.8-0.8-3.4-1.5-4.9
					C54,27.1,54,28.7,54,30.8L53.5,30.8z"/>
			</g>
			<g>
				<path d="M53.6,34.4l0-0.4l0.5,0l0,0.4L53.6,34.4z M53.5,32.4c0-0.4,0-0.7,0-1.1l0.5,0c0,0.4,0,0.7,0,1.1L53.5,32.4z"/>
			</g>
		</g>
		<g>
			<g>
				<path d="M47.6,78.9c-1.7,0-5.8-1.6-8.1-2.9c-1.5-0.9-2.2-1.6-2.1-2.2l0-0.2l0.2,0c0.2,0,0.4-0.2,0.5-0.4c0.2-0.3,0.6-0.6,1-0.5
					c0.7,0.2,1.3,0.3,2,0.4c0.7,0.1,1.5,0.3,2.2,0.4l-0.1,0.5c-0.7-0.2-1.4-0.3-2.2-0.4c-0.7-0.1-1.3-0.2-2-0.4
					c-0.2,0-0.3,0.1-0.6,0.4c-0.2,0.2-0.3,0.4-0.6,0.5c0.1,0.2,0.4,0.7,1.8,1.5c2.8,1.6,7.1,3,8.1,2.8c-0.5-2-1.5-3.3-3.5-4l0.2-0.5
					c2.1,0.8,3.4,2.2,3.8,4.5l0,0.2l-0.1,0.1C48.1,78.9,47.9,78.9,47.6,78.9z"/>
			</g>
			<g>
				<path d="M44.2,74.4L44,74.3l0.2-0.5l0.2,0.1L44.2,74.4z M43.7,74.2L43.7,74.2l0-0.5l0.1,0L43.7,74.2z"/>
			</g>
		</g>
		<g>
			<g>
				<path d="M33.5,29.2l-0.4-0.5c-0.4-0.4-0.6-1.2-0.7-1.8c0,0.1,0,0.2,0,0.3c0.1,0.7,0.2,1.3,0.2,1.7L32,29c0-0.3,0-0.8-0.2-1.7
					l0,0l0,0c0.2-1.4,0.2-1.6,0.5-1.6c0,0,0,0,0,0c0.3,0,0.3,0.2,0.4,0.8c0,0.1,0.1,0.2,0.1,0.4c0-0.2,0-0.3,0.2-0.3
					c0.2-0.1,0.3,0,0.6,0.5c0.2-0.4,0.4-1.1,0.8-2c0.4-0.9,0.8-2,1.2-3.1l0.5,0.2c-0.4,1.1-0.8,2.1-1.2,3.1
					c-0.5,1.2-0.9,2.3-0.9,2.5l-0.1,0.8l-0.3-0.6c0,0.3,0,0.5,0,0.8L33.5,29.2z"/>
			</g>
			<g>
				<path d="M32.3,23.3l-0.5-0.1c0.1-0.6,0.3-1.1,0.5-1.6l0.5,0.2C32.6,22.2,32.4,22.8,32.3,23.3z M36.7,20.2L36.3,20
					c0.5-1.4,0.7-2.3,0.7-2.8c0-0.1,0-0.1,0-0.2c0,0-0.1,0.1-0.2,0.1l-0.2,0.1l-0.2-0.4l0.2-0.1c0.2-0.1,0.3-0.2,0.5-0.2
					c0.1,0,0.5,0.1,0.5,0.7C37.5,17.7,37.2,18.7,36.7,20.2z"/>
			</g>
		</g>
		<g>
			<g>
				<path d="M77.4,34.8c-0.1,0-0.2,0-0.3-0.1l-0.2-0.1l0-0.2c0-1-0.7-2.1-1.4-3.1c-0.9-1.4-1.9-2.8-1.2-4.2l0.3-0.6l0.1,0.7
					c0.1-0.3,0.2-0.5,0.3-0.7l0.3-0.2l0.1,0.4c0.2,1,0.4,1,0.8,1c0.2,0,0.5,0,0.9,0.2c0-0.5,0.1-0.8,0.3-1c0.1-0.1,0.2-0.1,0.3-0.1
					c-0.1-0.3-0.4-0.8-0.1-1c0.6-0.4,2.3,1.2,2.4,1.2l0.1,0.1c0,0.1,0.1,0.2,0.1,0.3l-0.5,0.1c0-0.1,0-0.1-0.1-0.2
					c-0.4-0.4-1.3-1-1.6-1.1c0,0.1,0.1,0.2,0.2,0.4c0.2,0.4,0.3,0.6,0.1,0.8c-0.2,0.1-0.3,0-0.4,0c0,0-0.2-0.1-0.2-0.1
					c0,0-0.1,0.2,0,1.1l0.1,0.8l-0.5-0.6c-0.4-0.4-0.7-0.4-1-0.4c-0.4,0-0.8-0.1-1.1-0.7c0,0.1,0,0.2-0.1,0.3
					c-0.1,0.4-0.1,0.6-0.4,0.6c-0.1,0-0.2,0-0.2-0.1c0,0.9,0.7,1.8,1.3,2.8c0.7,1,1.4,2.1,1.5,3.2c0.1,0,0.3,0,0.5-0.1
					c0.8-0.5,1.6-2.4,1.9-4.4l0.5,0.1c-0.2,1.8-1,4.1-2.1,4.8C77.9,34.7,77.7,34.8,77.4,34.8z"/>
			</g>
			<g>
				<path d="M80.3,29.6l-0.5-0.1c0-0.1,0-0.3,0-0.4l0.5,0C80.3,29.3,80.3,29.5,80.3,29.6z M79.8,28.5l0-0.2l0.5,0l0,0.2L79.8,28.5z"
					/>
			</g>
		</g>
		<g>
			<g>
				<path d="M52.2,26.6l-0.5,0c0.1-1.2,0.1-2.6,0.2-4c-0.3,1.3-0.7,2.6-0.9,3.9l-0.5-0.1c0.4-2,0.9-4,1.5-5.8l0.5-1.7l-0.1,1.8
					C52.4,22.6,52.3,24.8,52.2,26.6z"/>
			</g>
			<g>
				<path d="M50.1,33.8l-0.5,0c0-0.3,0-0.6,0-0.9l0.5,0C50.1,33.3,50.1,33.5,50.1,33.8z M50.5,29.7L50,29.6c0.1-0.7,0.2-1.5,0.3-2.2
					l0.5,0.1C50.7,28.3,50.5,29,50.5,29.7z"/>
			</g>
			<g>
				<path d="M51.8,44.3l-0.5-1c-0.8-1.6-1.3-3.5-1.5-5.9l0.5,0c0.2,1.7,0.5,3.2,1,4.5c0-1.3,0-2.9,0-4.7l0.5,0c-0.1,2.5-0.1,4.4,0,6
					L51.8,44.3z"/>
			</g>
			<g>
				<path d="M51.8,36.1l-0.5,0c0-0.7,0.1-1.4,0.1-2.1l0.5,0C51.8,34.7,51.8,35.4,51.8,36.1z M52,30.8l-0.5,0l0-0.8l0.5,0L52,30.8z"
					/>
			</g>
		</g>
		<g>
			<g>
				<path d="M49.4,29.8l-0.5-0.1l0.3-1.4c0.3-1.3,0.5-2.6,0.7-3.8c-1.1,1-1.8,2.5-2.2,4.6L47.2,29c0.5-2.5,1.4-4.3,2.9-5.3l0.5-0.3
					l-0.1,0.6c-0.2,1.5-0.6,3-0.9,4.5L49.4,29.8z"/>
			</g>
			<g>
				<path d="M47.2,34.1l-0.5,0l0-0.6l0.5,0L47.2,34.1z M47.4,31.3l-0.5,0c0-0.5,0.1-1,0.2-1.5l0.5,0.1
					C47.5,30.3,47.5,30.8,47.4,31.3z"/>
			</g>
			<g>
				<path d="M47.4,43c-0.7-1-0.5-2.1-0.4-3.2c0,0,0,0,0-0.1c-0.1,0.1-0.2,0.1-0.3,0.1c-0.2,0-0.3-0.3-0.4-0.7l0,0l0,0
					c0.1-0.7,0.2-1.6,0.3-2.8l0.5,0c0,0.2,0,0.4,0,0.5l0,0c0.7,0.9,0.5,1.9,0.4,3c-0.1,1-0.3,2,0.3,2.8L47.4,43z"/>
			</g>
			<g>
				<path d="M48.9,44.1l-0.2-0.5c0,0-0.1,0-0.1,0.1c0,0,0,0,0-0.1c0-0.3-0.2-1-0.4-1.5c-0.1-0.3-0.2-0.6-0.3-0.9
					c0-0.1,0-0.3-0.1-0.4l0.5-0.1c0,0.1,0,0.2,0.1,0.4c0,0.2,0.1,0.5,0.2,0.8c0.2,0.6,0.4,1.3,0.4,1.7
					C49.2,43.9,49.1,44.1,48.9,44.1z M48.4,36.1l-0.5,0c0-0.4,0.1-0.9,0.1-1.3l0.5,0.1C48.5,35.2,48.4,35.7,48.4,36.1z"/>
			</g>
		</g>
		<g>
			<g>
				<path d="M52.9,30.9c-0.1-0.7-0.1-1.4-0.2-2c0-0.4-0.1-0.7-0.1-1.1c-0.1,1-0.2,2.1-0.2,3.1l-0.5,0c0.1-1.5,0.2-3.1,0.4-4.5
					l0.1-1.5l0.5,0c0.1,1.3,0.2,2.6,0.4,3.9c0.1,0.7,0.1,1.3,0.2,2L52.9,30.9z"/>
			</g>
			<g>
				<path d="M51.9,35.3h-0.2c0-0.2,0-0.4,0-0.5l0.5,0c0,0.2,0,0.3,0,0.5L51.9,35.3z M52.2,32.8l-0.5,0c0-0.4,0-0.9,0.1-1.3l0.5,0
					C52.2,32,52.2,32.4,52.2,32.8z"/>
			</g>
			<g>
				<path d="M52.9,44.3l-0.3-0.9c-0.5-1.7-0.8-3.7-0.9-6l0.5,0c0.1,1.8,0.3,3.4,0.6,4.8c0.3-1.5,0.4-3,0.4-4.8l0.5,0
					c0,2.3-0.2,4.2-0.6,6L52.9,44.3z"/>
			</g>
			<g>
				<path d="M53.2,36.7c0-0.4,0-0.9,0-1.3l0.5,0c0,0.4,0,0.9,0,1.3L53.2,36.7z M53.1,33.5l0-0.5l0.5,0l0,0.5L53.1,33.5z"/>
			</g>
		</g>
		<g>
			<g>
				<path d="M30.6,29.7l-0.5-1.3c-0.9-2.6-1.5-4.2-1.4-5.5l0.5,0c-0.1,1.1,0.4,2.6,1.1,4.8c0.5-2.8,1.2-5.9,2.8-8.7
					c-2,1.1-3.3,2-3.7,3.1L29,21.9c0.6-1.3,2.1-2.3,4.8-3.8l0.9-0.5l-0.5,0.8c-2.1,3.3-2.9,7-3.4,10.3L30.6,29.7z"/>
			</g>
			<g>
				<path d="M29.3,22.7l-0.5-0.1l0-0.1L29.3,22.7L29.3,22.7z M29.4,22.4l-0.5-0.2c0-0.1,0-0.1,0.1-0.2l0.5,0.2
					C29.4,22.2,29.4,22.3,29.4,22.4z"/>
			</g>
		</g>
		<g>
			<path d="M61.7,75.3c-0.7,0-1.3-0.2-1.8-0.5c-0.5-0.1-0.7-0.4-0.7-0.7c0-0.3,0.2-0.6,0.8-0.6c1.1-0.1,2.2-0.6,3.2-1
				c1.1-0.5,2.3-1.1,3.5-1.1l0.1,0.5l0,0h0c-1.1,0-2.2,0.5-3.3,1c-1.1,0.5-2.2,1-3.4,1.1c-0.1,0-0.3,0-0.3,0.1
				c0,0.1,0.1,0.2,0.3,0.2l0.1,0l0.1,0c0.7,0.5,1.7,0.6,3,0.2l0.1,0.5C62.7,75.2,62.2,75.3,61.7,75.3z"/>
		</g>
		<g>
			<g>
				<path d="M59.1,43.2l0-2c0-1.9,0-4-0.1-6l0.5,0c0.1,1.2,0.1,2.5,0.1,3.7c0.2-1.2,0.4-2.4,0.4-3.6l0.5,0c-0.1,2-0.4,4.1-0.9,6
					L59.1,43.2z"/>
			</g>
			<g>
				<path d="M60.6,34.6l-0.5,0c0-0.2,0-0.5,0-0.7c0-0.2,0-0.5,0-0.7l0.5,0c0,0.2,0,0.5,0,0.7C60.6,34.1,60.6,34.4,60.6,34.6z
					 M59.9,31.1c0-0.2,0-0.4-0.1-0.6l0.5-0.1c0,0.2,0.1,0.4,0.1,0.6L59.9,31.1z"/>
			</g>
			<g>
				<path d="M58.4,28.8c-0.4-2.1-0.9-4-1.6-5.7l-0.6-1.4l1,1.2c1.2,1.4,2.1,3.3,2.7,5.4l-0.5,0.1c-0.4-1.4-0.9-2.7-1.6-3.8
					c0.4,1.3,0.8,2.6,1,4.1L58.4,28.8z"/>
			</g>
			<g>
				<path d="M58.9,33.2l0-0.5l0.5,0l0,0.5L58.9,33.2z M58.7,30.7c-0.1-0.4-0.1-0.9-0.2-1.3l0.5-0.1c0.1,0.4,0.1,0.9,0.2,1.3
					L58.7,30.7z"/>
			</g>
		</g>
		<g>
			<g>
				<path d="M71.9,20.8l-0.5-0.4c-0.5-0.4-1-0.9-1.5-1.4l-0.7-0.1c-1.6-0.3-3.4-1.4-5.2-2.5c-0.9-0.6-1.8-1.1-2.6-1.5l-0.6-0.3
					l0.6-0.2c1.9-0.5,4.1-0.3,6,0.7l-0.2,0.4c-1.6-0.8-3.4-1.1-5-0.8c0.7,0.4,1.3,0.8,2,1.2c1.4,0.8,2.8,1.7,4.1,2.2
					c-1.1-1-2.5-2.1-4-2.9l-1.2-0.6l1.3,0.1c2.1,0.2,3.8,1.8,5.4,3.5c0.4,0.4,0.9,0.9,1.3,1.3c-0.5-1.4-1.7-2.7-3.2-3.7l0.3-0.4
					c2,1.2,3.3,2.9,3.7,4.8L71.9,20.8z"/>
			</g>
			<g>
				<path d="M67.7,15.8l-0.1-0.1l0.2-0.4l0.1,0.1L67.7,15.8z M67.4,15.6l0.1-0.2L67.4,15.6l0.2-0.5l-0.1,0.2L67.4,15.6z"/>
			</g>
		</g>
		<g>
			<g>
				<path d="M53.9,70.7c-0.7,0-0.7-0.2-0.8-1.1c0-0.6-0.1-1.7-0.5-3.5l-0.1-0.6l0.5,0.3c1.3,0.8,2,0.8,2.6,0.8c1,0,1.4,0.2,1.8,2.4
					L57,69.2c-0.4-2-0.7-2-1.4-2c-0.5,0-1.3,0-2.4-0.6c0.3,1.5,0.3,2.5,0.4,3c0,0.3,0,0.6,0.1,0.6c0,0,0.3,0,0.5,0c0.2,0,0.6,0,1,0
					l0,0.5c-0.4,0-0.7,0-0.9,0C54.1,70.7,54,70.7,53.9,70.7z"/>
			</g>
			<g>
				<path d="M57.7,70.9l-0.4-0.3c0,0,0,0,0,0c0,0,0-0.1,0-0.1l0.2-0.1l0.2,0c0,0.1,0,0.2,0,0.2C57.7,70.7,57.7,70.8,57.7,70.9z
					 M56.3,70.7c-0.3,0-0.6,0-0.8-0.1l0-0.5c0.2,0,0.5,0,0.8,0.1L56.3,70.7z"/>
			</g>
		</g>
		<g>
			<path d="M44.1,73.4l-0.8,0c-1.2-0.1-6.1-1.1-7.3-3.6c-0.5-1-0.3-2.1,0.4-3.2l0.2-0.3l0.2,0.3c1.3,2.4,3.4,3.9,5.4,5.4
				c0.4,0.3,0.9,0.6,1.3,1L44.1,73.4z M36.6,67.1c-0.5,0.8-0.6,1.6-0.2,2.4c0.9,1.8,4.2,2.9,6,3.2c-0.2-0.1-0.4-0.3-0.5-0.4
				C39.9,70.8,38,69.3,36.6,67.1z"/>
		</g>
		<g>
			<g>
				<path d="M58.6,39l-0.5-0.1c0.2-1.7,0-3.5-0.4-5.9l0.5-0.1c0.1,0.6,0.2,1.1,0.2,1.6c0-0.5,0-1-0.1-1.6l0.5,0
					C59,35.1,58.9,37.2,58.6,39z"/>
			</g>
			<g>
				<path d="M58.4,32.6c0-0.2,0-0.4-0.1-0.7l0.5-0.1c0,0.2,0,0.4,0.1,0.7L58.4,32.6z M58.2,31l0-0.3l0.5-0.1l0,0.3L58.2,31z"/>
			</g>
			<g>
				<path d="M57.1,29.9c-0.4-1.9-0.8-4-0.9-6l0-1.2l0.5,1.1c0.8,1.6,1.4,3.6,1.8,5.8L58,29.7c-0.3-1.6-0.7-3-1.2-4.3
					c0.2,1.5,0.5,3,0.8,4.4L57.1,29.9z"/>
			</g>
			<g>
				<path d="M57.5,32l0-0.2l0.5-0.1l0,0.2L57.5,32z M57.3,30.8l-0.1-0.6l0.5-0.1l0.1,0.6L57.3,30.8z"/>
			</g>
		</g>
		<g>
			<g>
				<path d="M64.2,65.1c-1,0-2-0.3-2.3-1.1l-0.1-0.3l0.4,0c0.9,0,1.5,0,2.1,0.1c1.5,0.1,2.3,0.1,3.6-0.7l0.3,0.4
					c-1.4,0.9-2.4,0.9-3.9,0.8c-0.5,0-1-0.1-1.6-0.1c0.8,0.8,3,0.5,5-0.2l0.2,0.5C67,64.7,65.5,65.1,64.2,65.1z"/>
			</g>
			<g>
				<path d="M68.6,64.1l-0.2-0.5c0.5-0.2,1.1-0.4,1.5-0.6l0.2,0.4C69.7,63.7,69.2,63.9,68.6,64.1z M70.3,62.2l-0.1-0.5
					c0.3,0,0.5,0,0.7,0l0,0.5h0C70.8,62.2,70.6,62.2,70.3,62.2z"/>
			</g>
		</g>
		<g>
			<g>
				<path d="M49.2,42.7l-0.4-1c-0.5-1.1-0.5-3.9-0.4-6.1l0.5,0c-0.1,1.5-0.1,2.8,0,3.9c0.1-1,0.2-2,0.3-2.9l0.1-1l0.5,0.1l-0.1,1
					c-0.2,1.6-0.3,3.3-0.4,5L49.2,42.7z"/>
			</g>
			<g>
				<path d="M49.7,35.6l-0.2,0l-0.2-0.1L49.7,35.6L49.7,35.6z M49.8,35.4l-0.5,0L49.8,35.4z"/>
			</g>
			<g>
				<path d="M49.8,35.4l-0.5-0.1c0.2-1.7,0.3-3.1,0.3-4.5c-0.3,1.1-0.5,2.7-0.7,4.5l-0.5,0c0.2-2.7,0.6-5,1.2-6l0.4-0.8l0,0.9
					C50.1,31.4,50,33.4,49.8,35.4z"/>
			</g>
			<g>
				<path d="M48.9,35.5l-0.5,0l0.3,0L48.9,35.5z M48.9,35.3l-0.5,0l0-0.1L48.9,35.3L48.9,35.3z"/>
			</g>
		</g>
		<g>
			<path d="M28.7,32.5l-0.2-0.7c-0.8-2.9-1.4-5.8-0.3-8.7l0.3-0.7l0.2,0.7c1,3.6,1.1,6.5,0.3,8.7L28.7,32.5z M28.5,24
				c-0.6,2.2-0.2,4.5,0.3,6.8C29.3,29,29.2,26.7,28.5,24z"/>
		</g>
		<g>
			<path d="M74.4,47.9l-0.2-0.1c-0.2-0.1-0.4-0.2-0.6-0.3l-0.3,0.2l0.2-0.2c-0.2-0.1-0.5-0.2-0.7-0.3c-0.9-0.3-1.8-0.7-2.6-1.2
				l-0.3-0.2l0.3-0.2c1-0.7,3.6-1.6,4.5-0.7c0.4,0.3,0.4,0.9,0.1,1.6c0.1,0,0.1,0,0.2,0.1c0.1,0.1,0.2,0.4-0.4,1.2L74.4,47.9z
				 M74.1,47.3C74.2,47.3,74.2,47.3,74.1,47.3c0.1,0,0.2-0.1,0.2-0.1c0,0,0,0-0.1,0L74.1,47.3z M70.8,45.9c0.6,0.4,1.4,0.7,2.1,0.9
				c0.3,0.1,0.6,0.2,0.8,0.3l0.2-0.3c0.3-0.4,0.7-1.2,0.4-1.5C73.8,44.8,71.9,45.2,70.8,45.9z"/>
		</g>
		<g>
			<g>
				<path d="M58.9,71.7l0.7-1.1c0.7-1.2,2.1-3.5,3.4-3.6c0.4,0,0.7,0.1,0.9,0.4l-0.4,0.3c-0.2-0.2-0.3-0.2-0.5-0.2
					c-0.9,0.1-2.1,1.9-2.8,3c0,0,0,0,0,0c1.2-0.5,3.3-1.4,3.5-2.4c-0.1-0.1-0.1-0.2-0.2-0.3l0.4-0.3c0.1,0.1,0.2,0.3,0.3,0.5l0,0.1
					l0,0.1c-0.1,1.2-2.3,2.2-3.8,2.8c-0.3,0.1-0.6,0.2-0.8,0.3L58.9,71.7z"/>
			</g>
			<g>
				<polygon points="63.6,67.9 63.5,67.8 63.9,67.5 64,67.5 				"/>
			</g>
		</g>
		<g>
			<path d="M32.6,56.7l0.2-0.5c0.4-0.7,1.1-1.2,2.3-1.4c1.7-0.4,3.9-0.1,4.9,0.6l0.4,0.3l-0.5,0.1c-1.2,0.3-2.4,0.3-3.6,0.4
				c-1.1,0.1-2.1,0.1-3.2,0.3L32.6,56.7z M36.8,55.1c-0.5,0-1.1,0.1-1.6,0.2c-0.7,0.2-1.2,0.4-1.6,0.7c0.9-0.1,1.7-0.2,2.6-0.2
				c0.9-0.1,1.9-0.1,2.9-0.3C38.5,55.3,37.6,55.1,36.8,55.1z"/>
		</g>
		<g>
			<path d="M57.2,38.6l-0.1-1.9c-0.1-1.7-0.4-3.6-0.7-5.5c-0.3-1.9-0.5-3.7-0.6-5.4l-0.2-2.3l0.6,2.2c0.9,3,2,7.4,1.3,11L57.2,38.6z
				 M56.6,29c0.1,0.7,0.2,1.4,0.3,2.1c0.1,0.9,0.2,1.8,0.4,2.7C57.2,32.2,57,30.5,56.6,29z"/>
		</g>
		<g>
			<path d="M76.2,42.8L76,42.5c-0.8-1.3-0.8-4.5,0.2-5.7l0.3-0.4l0.1,0.4c0.5,1.4,1.1,4.4-0.2,5.7L76.2,42.8z M76.3,37.6
				c-0.5,1.1-0.5,3.2,0,4.3C76.9,40.9,76.7,39,76.3,37.6z"/>
		</g>
		<g>
			<path d="M41.4,54.4c-0.7,0-1.8-0.6-2.1-0.8c-1.1-0.7-2.3-1.9-2.2-2.8l0-0.4l0.3,0.2c0.7,0.3,1.3,0.8,1.9,1.2
				c0.8,0.6,1.7,1.2,2.7,1.5l0.1,0.1l0,0.2c0,0.4-0.1,0.7-0.3,0.8C41.7,54.3,41.6,54.4,41.4,54.4z M37.7,51.3c0.3,0.5,1,1.2,1.9,1.8
				c1,0.7,1.8,0.9,2,0.7c0,0,0.1-0.1,0.1-0.1c-1-0.4-1.8-1-2.6-1.5C38.6,51.8,38.1,51.5,37.7,51.3z"/>
		</g>
		<g>
			<path d="M45,79.2L43.1,79c-4-0.5-6.9-2.4-8.3-5.1l-1-1.9l1.4,1.6c2,2.4,4.8,3.6,7.6,4.7L45,79.2z M37,75.9
				c1.1,0.9,2.3,1.5,3.5,1.9C39.2,77.3,38.1,76.7,37,75.9z"/>
		</g>
		<g>
			<path d="M58.7,70.2c-0.1,0-0.1,0-0.1,0c-0.3-0.2-0.2-0.6,0.4-1.7c0.1-0.7,0.7-0.9,1.3-1.1c-0.3,0-0.4-0.2-0.5-0.3
				c-0.2-0.2-0.1-0.6,0.2-0.8c0.4-0.4,1.3-0.6,2.3,0.1l0.2,0.1l-0.1,0.2C61.9,67.2,59.6,70.2,58.7,70.2z M60.8,67.7
				c-0.1,0-0.3,0.1-0.4,0.1c-0.6,0.1-0.9,0.3-1,0.7l0,0.1c-0.3,0.5-0.4,0.8-0.5,0.9C59.4,69.3,60.2,68.5,60.8,67.7z M60.8,66.4
				c-0.3,0-0.5,0.1-0.6,0.2c-0.1,0.1-0.1,0.2-0.1,0.2c0,0,0.3,0.1,1.2-0.2l0.1-0.1C61.2,66.5,61,66.4,60.8,66.4z"/>
		</g>
		<g>
			<path d="M66.6,68.6c-0.3,0-0.6-0.1-0.9-0.2c-0.7-0.3-1.2-1-1.1-1.8l0-0.2l0.2,0c1.7-0.4,2.2-0.4,2.3-0.1c0.1,0.2,0.1,0.3,0,0.5
				c0.1,0,0.2-0.1,0.4-0.2l0.3-0.1l0.1,0.3c0.3,0.9,0,1.3-0.3,1.5C67.4,68.5,67,68.6,66.6,68.6z M65.1,66.8c0.1,0.7,0.6,1,0.8,1.1
				c0.5,0.2,1,0.2,1.3-0.1c0.2-0.2,0.2-0.5,0.2-0.7c-0.8,0.3-0.9,0.4-1.1,0.2c-0.2-0.2,0-0.4,0.1-0.5c0-0.1,0.1-0.2,0.2-0.2
				C66.5,66.5,66.2,66.5,65.1,66.8z"/>
		</g>
		<g>
			<path d="M32.3,55.8l0.1-0.6c0.1-1,0.8-1.7,1.9-2c1.6-0.5,3.6-0.1,4.4,0.8l0.5,0.5l-0.7-0.1c-1.1-0.2-3.9-0.5-5.6,1L32.3,55.8z
				 M35.8,53.5c-0.5,0-0.9,0.1-1.3,0.2c-0.5,0.1-1,0.4-1.3,0.9c1.4-0.8,3.1-0.9,4.3-0.8C37,53.6,36.4,53.5,35.8,53.5z"/>
		</g>
		<g>
			<path d="M37.6,73.8c-0.4,0-0.9-0.5-1.1-1.7c0,0,0,0,0,0c-0.6,0-1.2-1.7-1.2-2.2c0-0.4,0.3-0.4,0.4-0.4h0.1l0.1,0
				c2.2,1.6,2.4,2.9,2.4,3.4C38.2,73.5,37.9,73.8,37.6,73.8z M37,71.5c0,1.4,0.5,1.8,0.6,1.8c0.1,0,0.2-0.1,0.2-0.4
				c0-0.3-0.1-1.4-1.9-2.7c0.1,0.5,0.4,1.1,0.6,1.3c0,0,0,0,0,0l0.2,0L37,71.5z M36.4,71.6L36.4,71.6L36.4,71.6z"/>
		</g>
		<g>
			<path d="M79.8,27.3c-0.1-0.2-0.5-0.4-0.8-0.6c-0.6-0.4-1.2-0.8-1.2-1.2c0-0.1,0-0.3,0.2-0.5c0.6-0.5,1.1-0.8,1.5-0.8
				c0.6,0,0.9,0.5,0.9,1.6c0,0.4,0,0.9-0.1,1.4l-0.3,0L79.8,27.3z M79.5,24.7c-0.1,0-0.5,0.1-1.1,0.7c0,0-0.1,0.1-0.1,0.1
				c0,0.2,0.6,0.6,0.9,0.8c0.2,0.1,0.4,0.3,0.6,0.4c0-0.3,0.1-0.6,0.1-0.9C79.9,25.4,79.9,24.7,79.5,24.7z"/>
		</g>
		<g>
			<path d="M33.9,60.3L33.9,60c-0.1-0.5,0.1-1,0.6-1.4c1.2-0.8,3.8-0.8,4.7-0.3l0.6,0.3l-0.7,0.1c-1.6,0.3-3.3,0.6-4.8,1.4
				L33.9,60.3z M37.3,58.4c-0.9,0-1.9,0.2-2.5,0.6c-0.2,0.1-0.3,0.3-0.4,0.5c1.1-0.5,2.2-0.8,3.4-1C37.6,58.4,37.5,58.4,37.3,58.4z"
				/>
		</g>
		<g>
			<path d="M58.5,68.3l-0.1-0.2l-0.2,0.1c-0.1-0.4-0.2-0.7-0.3-0.9c-0.2-0.4-0.3-0.6-0.3-0.9c0-0.5,0.4-0.9,1.1-1.4l0.1,0
				c0.1,0,0.2,0,0.3,0c0.2,0,0.7,0.1,0.7,0.9C59.7,66.6,59.1,68,58.5,68.3z M58.9,65.3c-0.7,0.5-0.8,0.7-0.8,0.9
				c0,0.2,0.1,0.4,0.2,0.7c0.1,0.2,0.2,0.4,0.2,0.6c0.3-0.4,0.7-1.3,0.7-1.9C59.2,65.3,59.1,65.3,58.9,65.3
				C59,65.3,59,65.3,58.9,65.3z"/>
		</g>
		<g>
			<path d="M36.2,52.8c-0.3,0-0.7-0.1-1.1-0.1c-0.4-0.1-0.9-0.1-1.3-0.1l-0.8,0l0.6-0.5c0.8-0.7,1.7-0.9,2.4-0.8
				c0.5,0.1,0.9,0.4,1.1,1l0.1,0.2l-0.2,0.1C36.8,52.7,36.5,52.8,36.2,52.8z M34.6,52.1c0.2,0,0.4,0,0.6,0.1c0.5,0.1,1,0.1,1.4,0.1
				c-0.2-0.2-0.4-0.4-0.6-0.4C35.5,51.7,35,51.8,34.6,52.1z"/>
		</g>
		<g>
			<path d="M74,52.6c-0.1,0-0.1,0-0.2,0l-0.2,0l-0.1-0.1c-0.2-0.7,0.4-1.3,0.9-1.8c0.4-0.3,0.7-0.7,0.8-1l0.4-1.2l0.1,1.2
				c0.1,0.7-0.3,1.9-0.9,2.5C74.6,52.5,74.3,52.6,74,52.6z M75.2,50.7c-0.1,0.1-0.2,0.2-0.4,0.3c-0.5,0.4-0.8,0.8-0.8,1.1
				c0.2,0,0.4-0.1,0.5-0.3C74.8,51.6,75.1,51.2,75.2,50.7z"/>
		</g>
		<g>
			<path d="M34.1,62l-0.2-0.3c-0.2-0.2-0.3-0.7,0.3-1.3c0.9-0.8,3.2-1.5,3.8-1l0.3,0.3l-0.4,0.1c-1.3,0.4-2.6,0.8-3.6,1.9L34.1,62z
				 M35.6,60.2c-0.4,0.2-0.8,0.4-1.1,0.6c-0.1,0.1-0.1,0.1-0.2,0.2C34.8,60.7,35.2,60.4,35.6,60.2z"/>
		</g>
		<g>
			<path d="M68.6,67.4c-0.2,0-0.5,0-0.7-0.2c-0.3-0.2-0.4-0.4-0.5-0.7l0-0.1l0.1-0.1c0.6-0.8,1.6-0.3,2.3,0c0.2,0.1,0.3,0.2,0.5,0.2
				l0.6,0.2L70.3,67C69.9,67.1,69.2,67.4,68.6,67.4z M68,66.5c0,0.2,0.1,0.2,0.2,0.3c0.3,0.2,0.9,0.1,1.3-0.1
				C68.8,66.4,68.3,66.2,68,66.5z"/>
		</g>
		<g>
			<path d="M46.5,17.8c0,0-0.1,0-0.1,0c-0.1,0-0.3-0.1-0.3-0.4c-0.2-0.5-0.1-1.4,0.3-1.9c0.2-0.3,0.4-0.3,0.6-0.3
				c0.3,0,0.5,0.3,0.6,0.8l0.1,0.3l-0.3,0c0.1,0.1,0.2,0.1,0.5,0.1l1.1,0.1l-1,0.4c-0.1,0-0.3,0.2-0.4,0.3
				C47.1,17.6,46.8,17.8,46.5,17.8z M46.5,16.2c-0.1,0.3-0.1,0.8,0,1c0,0.1,0,0.1,0,0.1c0.1,0,0.4-0.3,0.6-0.4c0,0,0,0,0,0
				C46.9,16.9,46.8,16.7,46.5,16.2L46.5,16.2z M46.8,15.8c0,0-0.1,0-0.1,0.2l0.2,0C46.8,15.8,46.8,15.8,46.8,15.8z"/>
		</g>
		<g>
			<path d="M73.1,20.6l-0.9-0.7c-1.1-0.8-1.8-1.9-2.4-3l-0.4-0.7l0.8,0.4c1.3,0.6,1.8,1.8,2.4,2.9L73.1,20.6z"/>
		</g>
		<g>
			<path d="M75.4,66.9l-0.2-0.1l-0.2,0.1c-0.1-0.2-0.4-0.5-0.6-0.8c-0.4-0.5-0.7-0.9-0.7-1.2c0-0.1,0.1-0.5,0.7-0.5
				c0.1,0,0.3,0,0.5,0l0.1,0l0.1,0.1c0.4,0.4,0.6,1.3,0.6,1.9C75.5,66.6,75.4,66.8,75.4,66.9z M74.3,64.9c-0.2,0-0.2,0-0.2,0
				c0,0.1,0.4,0.6,0.6,0.8c0.1,0.1,0.2,0.2,0.2,0.3c-0.1-0.4-0.2-0.9-0.4-1.1C74.5,64.9,74.4,64.9,74.3,64.9z"/>
		</g>
		<g>
			<path d="M32,64.2L31.8,64c-0.2-0.3-0.3-0.8,0-1.3c0.3-0.6,0.9-1.2,1.6-1.2l0.3,0l0,0.3c-0.1,1-0.8,1.7-1.5,2.3L32,64.2z M33,62.1
				c-0.3,0.2-0.6,0.5-0.8,0.9c-0.1,0.2-0.1,0.4-0.1,0.5C32.5,63,32.9,62.6,33,62.1z"/>
		</g>
		<g>
			<path d="M31.3,56.5L31,56c-0.4-0.6-0.4-1.4-0.1-2c0.3-0.6,0.8-1,1.5-1.2l0.8-0.2l-0.5,0.6c-0.5,0.6-0.7,1.3-1,2.1
				c-0.1,0.2-0.1,0.4-0.2,0.6L31.3,56.5z M31.6,53.7c-0.1,0.1-0.2,0.3-0.3,0.5c-0.1,0.2-0.2,0.5-0.1,0.8
				C31.3,54.6,31.4,54.1,31.6,53.7z"/>
		</g>
		<g>
			<path d="M59.5,42.2l1.3-7.4l0.2,1.7c0.2,1.5,0,3.6-0.8,4.8L59.5,42.2z"/>
		</g>
		<g>
			<path d="M32.5,33.5l-0.2-0.4c-0.3-0.7-0.7-1.9-0.3-2.8l0.1-0.2l0.2,0.1c0.3,0.2,0.5,0.5,0.6,0.9c0.2,0.6,0,1.5-0.3,2L32.5,33.5z
				 M32.4,30.9c-0.1,0.4,0,1,0.2,1.4c0.1-0.3,0.1-0.7,0-1C32.6,31.2,32.5,31,32.4,30.9z"/>
		</g>
		<g>
			<path d="M75.6,59.7l-0.2-0.2c-0.2-0.2-0.6-0.3-1-0.5c-0.7-0.3-1.6-0.6-1.6-1.5l0-0.4l0.4,0.2c0.1,0.1,0.3,0.1,0.4,0.2
				c1.2,0.5,2.2,1,2.3,1.6c0,0.2,0,0.3-0.1,0.4L75.6,59.7z M73.5,58.1c0.3,0.2,0.6,0.4,1,0.5c0,0,0.1,0,0.1,0
				C74.4,58.5,74,58.3,73.5,58.1z"/>
		</g>
		<g>
			<path d="M73.5,69.2l-0.4-0.3c-0.9-0.7-1.5-1.2-1-2.1l0.1-0.2l0.2,0.1c0.5,0.1,0.9,0.5,1.1,0.9c0.2,0.4,0.2,0.8,0.1,1.2L73.5,69.2
				z M72.5,67.3c-0.1,0.3,0.1,0.5,0.7,1c0-0.1-0.1-0.3-0.1-0.4C72.9,67.6,72.7,67.4,72.5,67.3z"/>
		</g>
		<g>
			<path d="M63.8,70.7c-0.3,0-0.6-0.1-0.9-0.3l-0.2-0.2L63,70c0.7-0.5,1.8-0.5,2.8-0.6l0.9,0l-0.8,0.5
				C65.1,70.4,64.4,70.7,63.8,70.7z M63.7,70.2c0.3,0,0.6,0,0.9-0.2C64.3,70,64,70.1,63.7,70.2z"/>
		</g>
		<g>
			<path d="M57.5,40.2l-0.1-0.4c-0.2-0.7-0.2-2.7,0.6-3.1l0.5-0.3l-0.2,0.6c-0.1,0.3-0.1,0.7-0.1,1.1c0,0.7,0,1.5-0.5,1.9L57.5,40.2
				z"/>
		</g>
		<g>
			<path d="M71.5,58c-0.6,0-1.4-0.3-1.7-0.8l-0.2-0.2l0.2-0.1c0.7-0.4,1.7-0.1,2.1,0.7l0.1,0.2L72,57.9C71.8,58,71.7,58,71.5,58z
				 M70.6,57.3c0.2,0.1,0.5,0.2,0.8,0.3C71.1,57.3,70.8,57.2,70.6,57.3z"/>
		</g>
		<g>
			<path d="M68.7,74.4l0.9-1.1c0.2-0.2,0.3-0.5,0.5-0.7c0.3-0.5,0.6-1,1.1-1.3l0.3-0.2l0.1,0.4c0.2,1.1-0.8,1.7-1.7,2.2L68.7,74.4z
				 M71.1,72.2c-0.1,0.1-0.2,0.2-0.2,0.3C70.9,72.4,71,72.3,71.1,72.2z"/>
		</g>
		<g>
			<path d="M70.7,57.7H67l0.6-0.5c0.7-0.5,2.1-0.6,2.7,0L70.7,57.7z"/>
		</g>
		<g>
			<path d="M61.9,17.6c-0.5,0-0.8-0.4-0.8-0.8s0.3-0.7,0.7-0.7l0.1,0c0.5,0,0.7,0.4,0.7,0.8c0,0.4-0.2,0.6-0.5,0.7
				C62,17.6,61.9,17.6,61.9,17.6z M61.8,16.6c-0.2,0-0.3,0.1-0.3,0.2c0,0.1,0.1,0.3,0.4,0.3h0c0.1,0,0.1-0.1,0.1-0.2
				C62.1,16.8,62,16.6,61.8,16.6z"/>
		</g>
		<g>
			<path d="M58.7,41.8l-0.5-0.2c0.1-0.3,0.1-0.7,0.1-1.1c0-0.5-0.1-1.1,0.3-1.7l0.2-0.3l0.2,0.2C59.4,39.3,59.1,41,58.7,41.8z"/>
		</g>
		<g>
			<path d="M50.3,22.7L50.3,22.7c-0.3-0.1-0.4-0.3-0.4-0.6c0-0.5,0.6-1.3,1-1.5l0.1,0.2l0.2,0.1c-0.1,0.1-0.1,0.3-0.1,0.5
				C51,22,50.9,22.5,50.3,22.7L50.3,22.7z M50.6,21.7c-0.1,0.1-0.1,0.2-0.1,0.3C50.5,22,50.5,21.9,50.6,21.7z"/>
		</g>
		<g>
			<path d="M36.3,76.7l-0.4-0.2c-0.7-0.3-1.2-0.9-1.7-1.7l-0.2-0.3l0.4,0c0.3,0,0.6,0.1,1,0.5c0.3,0.3,0.9,0.9,0.9,1.3L36.3,76.7z"
				/>
		</g>
		<g>
			<path d="M36.9,74.7l-0.3-0.3c-0.1-0.1-0.2-0.3-0.4-0.5c-0.5-0.6-1.1-1.2-0.9-1.9l0.2-0.7l0.3,0.7c0.1,0.2,0.3,0.5,0.6,0.8
				c0.5,0.5,0.9,1.1,0.7,1.5L36.9,74.7z"/>
		</g>
	</g>
</g>
</svg>
