<svg width="27" height="23" viewBox="0 0 27 23" fill="none" xmlns="http://www.w3.org/2000/svg">
<path d="M1.53042 5.11101C2.35031 5.1252 2.9974 5.71257 2.9974 6.41151V9.64281C2.9974 10.3475 3.66564 10.9276 4.49273 10.9241C4.50443 10.9241 4.51612 10.9241 4.52782 10.9241C5.34726 10.9153 6.00335 10.341 6.00335 9.64281V3.83391C5.99885 3.13573 6.65989 2.56907 7.47618 2.55718C8.31451 2.5453 9.0003 3.14455 9.0003 3.85883V9.64242C9.0003 10.3463 9.66674 10.9257 10.4929 10.9237C10.5033 10.9237 10.5132 10.9237 10.5235 10.9237C11.3443 10.9172 12.0022 10.3417 12.0022 9.64242V1.30001C12.0022 0.601456 12.6493 0.0148534 13.4687 0.00028419C14.3111 -0.0146684 14.9992 0.562349 14.9992 1.27662V9.64281C14.9992 10.3452 15.6633 10.9237 16.4877 10.9241C16.4981 10.9241 16.508 10.9241 16.5183 10.9241C17.3405 10.9199 18.0006 10.3433 18.0006 9.64281V3.85729C18.0006 3.15874 18.6477 2.57213 19.4671 2.55757C20.2866 2.543 20.9976 3.11963 20.9976 3.83391V9.64089C20.9976 10.3437 21.6608 10.9218 22.4852 10.9241C22.4956 10.9241 22.5055 10.9241 22.5158 10.9241C23.3407 10.9218 24.0035 10.3437 24.0035 9.64089V6.39119C23.999 5.69302 24.66 5.1229 25.4759 5.11063C26.3138 5.09836 27 5.69838 27 6.41266V16.5893C27 17.2878 26.3529 17.8744 25.5335 17.889C24.6911 17.9039 24.0031 17.3269 24.0031 16.6126V13.3591C24.0031 12.6563 23.3398 12.0782 22.5154 12.0759C22.505 12.0759 22.4951 12.0759 22.4848 12.0759C21.6599 12.0782 20.9971 12.6563 20.9971 13.3591V19.1465C20.9971 19.8451 20.35 20.4317 19.5306 20.4463C18.6882 20.4612 18.0001 19.8842 18.0001 19.1699V13.3572C18.0001 12.6567 17.34 12.0801 16.5179 12.0759C16.5075 12.0759 16.4976 12.0759 16.4873 12.0759C15.6629 12.0763 14.9987 12.6548 14.9987 13.3572V21.7C14.9987 22.3985 14.3516 22.9851 13.5322 22.9997C12.6898 23.0147 12.0018 22.4377 12.0018 21.7234V13.3572C12.0018 12.6579 11.3439 12.0824 10.5231 12.0759C10.5127 12.0759 10.5028 12.0759 10.4925 12.0759C9.66629 12.074 8.99985 12.6533 8.99985 13.3572V19.1465C8.99985 19.8451 8.35276 20.4317 7.53333 20.4463C6.71389 20.4608 6.0029 19.8842 6.0029 19.1699V13.3572C6.0029 12.659 5.34681 12.0847 4.52737 12.0759C4.51567 12.0759 4.50397 12.0759 4.49228 12.0759C3.66519 12.0724 2.99695 12.6525 2.99695 13.3572V16.5893C2.99695 17.2878 2.34986 17.8744 1.53042 17.889C0.710989 17.9036 0 17.3269 0 16.6126V6.39119C0 5.67691 0.687588 5.09606 1.52997 5.11101H1.53042Z" fill="black"/>
</svg>
