<svg width="355" height="260" viewBox="0 0 355 260" fill="none" xmlns="http://www.w3.org/2000/svg">
<path d="M331.007 213.866H203.917C194.302 213.866 186.172 206.324 185.91 196.702C185.636 186.721 193.642 178.544 203.551 178.544H303.288C331.026 178.544 354.013 156.239 354 128.472C353.987 109.509 343.438 93.0123 327.889 84.535C321.386 80.9897 316.425 75.0765 314.569 67.9075C307.478 40.5459 280.164 19.2807 255.367 8.75604C244.844 4.40619 233.851 1.43652 222.217 1.01135C215.989 0.723538 210.76 5.9499 211.047 12.1901C211.296 18.1164 216.296 22.7214 222.217 22.4728C226.413 22.2962 230.831 22.6363 235.269 23.3755C239.714 24.1146 244.184 25.2593 248.589 26.718C259.537 30.4333 271.602 36.6147 281.674 44.8304C291.432 52.7844 290.203 66.318 282.354 73.5459C279.073 76.5679 274.105 77.0454 270.341 74.6579C270.321 74.6448 270.308 74.6383 270.289 74.6252C262.798 69.9941 258.426 60.7973 260.361 52.2938C261.459 47.1852 258.217 42.155 253.112 41.0561C246.406 39.5844 240.498 45.6284 241.831 52.2938C242.537 59.319 245.367 65.8078 249.622 71.0341C252.04 74.0103 250.001 78.4583 246.165 78.4583H109.317C105.48 78.4583 103.441 74.0103 105.859 71.0341C110.107 65.8078 112.937 59.319 113.65 52.2938C114.983 45.6284 109.075 39.5778 102.369 41.0561C97.2644 42.155 94.0226 47.1917 95.1206 52.2938C97.0552 60.7973 92.6827 69.9941 85.1926 74.6252C85.173 74.6383 85.16 74.6448 85.1403 74.6579C81.3691 77.0454 76.4084 76.5745 73.1274 73.5459C65.2778 66.3114 64.0491 52.7844 73.8071 44.8304C83.8789 36.6147 95.9507 30.4333 106.892 26.718C111.297 25.2593 115.767 24.1146 120.212 23.3755C124.65 22.6363 129.068 22.2962 133.264 22.4728C139.185 22.7214 144.185 18.1164 144.434 12.1901C144.728 5.9499 139.493 0.723538 133.264 1.01135C121.63 1.44306 110.637 4.40619 100.114 8.75604C75.3888 19.248 48.1669 40.4216 40.9709 67.6654C39.0624 74.8934 34.0429 80.8327 27.4613 84.3584C11.5399 92.8815 0.768771 109.758 1.0106 129.132C1.35046 156.631 24.1999 178.544 51.6832 178.544H150.244C159.858 178.544 167.989 186.086 168.251 195.708C168.512 205.33 160.519 213.866 150.61 213.866H23.9973C11.3503 213.866 0.762235 224.221 1.00406 236.871C1.24589 249.522 11.2392 259 23.5463 259H331.445C343.752 259 353.752 249.136 353.987 236.871C354.229 224.221 343.641 213.866 330.994 213.866H331.007Z" fill="white" stroke="black" stroke-width="0.3" stroke-miterlimit="10"/>
</svg>
