<svg width="45" height="45" viewBox="0 0 45 45" fill="none" xmlns="http://www.w3.org/2000/svg">
<g filter="url(#filter0_i_4206_21573)">
<circle cx="22.5" cy="22.5" r="22.5" fill="url(#paint0_radial_4206_21573)"/>
</g>
<mask id="mask0_4206_21573" style="mask-type:alpha" maskUnits="userSpaceOnUse" x="0" y="0" width="45" height="45">
<circle cx="22.5" cy="22.5" r="22.5" fill="url(#paint1_radial_4206_21573)"/>
</mask>
<g mask="url(#mask0_4206_21573)">
<g filter="url(#filter1_i_4206_21573)">
<path d="M17.7168 6C19.9935 6.00008 22.0866 7.03138 23.46 8.82812C24.0148 9.55119 24.432 10.3117 24.7041 11.0947C25.1241 12.304 26.1221 13.2294 27.3682 13.5684C27.7107 13.6613 28.0607 13.707 28.4072 13.707C29.3223 13.7069 30.2211 13.3892 30.9365 12.79C31.2348 12.5406 31.5688 12.3713 31.9268 12.2871C32.0489 12.2581 32.1698 12.2442 32.29 12.2441C32.8087 12.2442 33.3273 12.508 33.7109 12.9668C34.1169 13.4526 34.3406 14.113 34.3408 14.8252C34.3408 15.5366 34.1169 16.1986 33.7109 16.6846C33.6867 16.7124 33.6619 16.7407 33.6377 16.7676C32.9124 17.5566 32.5478 18.6069 32.6299 19.6699C32.7121 20.733 33.2344 21.7157 34.0723 22.3857C34.7361 22.9175 36.3405 24.5637 36.8965 28.3633V28.3672L36.8984 28.3643C37.1842 30.4145 36.9107 32.1056 36.1094 33.2598L36.0918 33.2852C35.3968 34.3017 34.2481 34.96 32.9414 35.0918C31.4909 35.238 30.2417 36.17 29.7012 37.5088C29.1609 38.8476 29.4171 40.3737 30.3662 41.4678C31.2461 42.4804 31.8362 43.6699 32.1182 45H13.6367C13.5272 44.2016 13.5962 43.4772 13.8477 42.7881C13.9524 42.4997 14.0915 42.2192 14.2637 41.9492C14.9535 40.8678 15.0607 39.519 14.5479 38.3457C14.0358 37.1724 12.9697 36.3241 11.7012 36.0801C11.62 36.0656 11.5373 36.0457 11.4561 36.0254C10.0976 35.6807 8.90326 34.9384 8.08594 33.9326C7.28332 32.946 6.905 31.7853 7.02051 30.667V30.6621C7.22631 28.8769 8.37042 27.0644 9.9375 26.0449C10.8818 25.4301 11.5123 24.4413 11.665 23.333C11.8176 22.2257 11.479 21.1049 10.7354 20.2627C9.77512 19.1753 9.27713 17.4106 9.36816 15.4219C9.47303 13.1544 10.3043 10.8962 11.71 9.06543C13.2019 7.11561 15.4399 6 17.7168 6ZM27.2139 14.8398C25.923 14.8873 24.7381 15.5615 24.0479 16.6416C23.4518 17.5758 22.6253 18.4005 21.5947 19.0908C21.594 19.0916 21.5926 19.0925 21.5918 19.0928C20.1744 20.0232 18.7406 20.7216 17.333 21.166C16.1429 21.5417 15.2061 22.4567 14.8105 23.6289C14.4151 24.8014 14.6087 26.0897 15.332 27.0977C16.0367 28.0803 16.4773 29.3684 16.5713 30.7227C16.5801 30.8511 16.5849 30.9839 16.5869 31.1123C16.5977 31.9071 16.4751 32.6514 16.2246 33.3252C15.745 34.6129 15.9912 36.057 16.8711 37.1191C17.6209 38.0241 18.7367 38.536 19.8984 38.5361C20.099 38.5361 20.3023 38.5212 20.5049 38.4902C21.1607 38.3886 21.8364 38.3369 22.5127 38.3369C22.8954 38.3369 23.2834 38.3528 23.6641 38.3867C23.7804 38.3973 23.8973 38.4023 24.0127 38.4023C25.383 38.4021 26.6644 37.6909 27.375 36.5127C28.1451 35.2347 28.1073 33.6328 27.2773 32.3926C26.4757 31.193 26.1957 29.7891 26.4688 28.332C26.7742 26.6968 27.5083 25.1053 28.5361 23.8486C29.001 23.2795 29.5086 22.8063 30.042 22.4414C30.9737 21.8034 31.5807 20.7978 31.7061 19.6836L31.707 19.6846C31.8322 18.5703 31.4626 17.4576 30.6953 16.6328C30.6289 16.5613 30.5654 16.4845 30.5059 16.4053C29.7658 15.4179 28.5966 14.837 27.3594 14.8369C27.3106 14.8369 27.2626 14.8379 27.2139 14.8398ZM12.2891 26.8193C12.1651 26.8194 12.041 26.8359 11.917 26.8682C11.8148 26.8948 11.7131 26.9266 11.6123 26.9639C11.5115 27.0012 11.4114 27.0435 11.3125 27.0908C10.1112 27.6652 9.07388 28.9509 8.7002 30.3281C8.64327 30.5378 8.60049 30.7492 8.57617 30.9609C8.53286 31.3995 8.60786 31.842 8.7793 32.2646C8.80679 32.3324 8.83576 32.4001 8.86816 32.4668C9.24355 33.239 9.94301 33.9296 10.835 34.3867C11.1695 34.5581 11.5313 34.6962 11.9131 34.7939C12.0721 34.835 12.2318 34.8615 12.3887 34.8721L12.5449 34.877H12.5459C13.1643 34.8769 13.7361 34.629 14.1992 34.1602C14.2126 34.1466 14.2251 34.1321 14.2383 34.1182C14.2971 34.0561 14.3535 33.9914 14.4072 33.9238C14.5269 33.7732 14.6348 33.6097 14.7285 33.4336C14.7449 33.4029 14.7598 33.3713 14.7754 33.3398C14.8265 33.2365 14.8729 33.1293 14.915 33.0186C14.9651 32.8872 15.0096 32.7512 15.0469 32.6104C15.0594 32.563 15.071 32.5151 15.082 32.4668C15.107 32.3575 15.1292 32.2459 15.1465 32.1318C15.1777 31.9263 15.1964 31.7133 15.2021 31.4941C15.2041 31.4212 15.2041 31.3477 15.2031 31.2734C15.2021 31.1689 15.1973 31.0625 15.1904 30.959C15.1064 29.7255 14.6988 28.6101 14.0439 27.8174C13.5846 27.2622 13.0378 26.9141 12.5127 26.8359C12.4393 26.825 12.3662 26.8196 12.2939 26.8193C12.2925 26.8193 12.2905 26.8193 12.2891 26.8193ZM32.0381 23.2812C30.5094 23.4973 28.4333 25.81 27.8789 28.8105C27.6639 29.9756 27.9087 31.0793 28.5859 32.0029C29.3552 33.0506 30.5818 33.7274 32.041 33.9092C32.1669 33.9219 32.2921 33.9287 32.415 33.9287C33.4373 33.9286 34.3209 33.487 34.8369 32.7178C34.8408 32.712 34.8458 32.7049 34.8496 32.6992C35.4446 31.841 35.634 30.4866 35.4004 28.793C34.9624 25.7525 33.5001 23.2777 32.1406 23.2773C32.1065 23.2773 32.0722 23.2783 32.0381 23.2812ZM17.7979 7.85742C16.0671 7.85743 14.4902 8.68076 13.3574 10.1787C10.7752 13.5811 11.0584 18.0066 12.5098 19.2217C12.9477 19.592 13.5824 19.7793 14.3955 19.7793H14.3965C16.1089 19.7791 18.4202 18.9249 20.5801 17.4932C22.002 16.5285 22.9099 15.2452 23.1348 13.8779C23.3477 12.583 22.947 11.2217 21.9736 9.93945C20.9757 8.61717 19.5287 7.85751 17.7979 7.85742ZM32.3467 13.1836C32.3028 13.1836 32.2587 13.1895 32.2119 13.2002C31.4354 13.3829 31.0101 14.1658 31.002 14.8115C31.0099 15.4584 31.4351 16.2401 32.2148 16.4238C32.2578 16.4346 32.3027 16.4395 32.3467 16.4395V16.4385C32.8518 16.4384 33.4169 15.7699 33.417 14.8115C33.4167 13.8524 32.8527 13.1837 32.3467 13.1836Z" fill="white"/>
</g>
</g>
<defs>
<filter id="filter0_i_4206_21573" x="0" y="0" width="45" height="45" filterUnits="userSpaceOnUse" color-interpolation-filters="sRGB">
<feFlood flood-opacity="0" result="BackgroundImageFix"/>
<feBlend mode="normal" in="SourceGraphic" in2="BackgroundImageFix" result="shape"/>
<feColorMatrix in="SourceAlpha" type="matrix" values="0 0 0 0 0 0 0 0 0 0 0 0 0 0 0 0 0 0 127 0" result="hardAlpha"/>
<feOffset/>
<feGaussianBlur stdDeviation="2.2"/>
<feComposite in2="hardAlpha" operator="arithmetic" k2="-1" k3="1"/>
<feColorMatrix type="matrix" values="0 0 0 0 0 0 0 0 0 0 0 0 0 0 0 0 0 0 0.27 0"/>
<feBlend mode="normal" in2="shape" result="effect1_innerShadow_4206_21573"/>
</filter>
<filter id="filter1_i_4206_21573" x="7.00024" y="6" width="30.0083" height="39" filterUnits="userSpaceOnUse" color-interpolation-filters="sRGB">
<feFlood flood-opacity="0" result="BackgroundImageFix"/>
<feBlend mode="normal" in="SourceGraphic" in2="BackgroundImageFix" result="shape"/>
<feColorMatrix in="SourceAlpha" type="matrix" values="0 0 0 0 0 0 0 0 0 0 0 0 0 0 0 0 0 0 127 0" result="hardAlpha"/>
<feOffset/>
<feGaussianBlur stdDeviation="3.15"/>
<feComposite in2="hardAlpha" operator="arithmetic" k2="-1" k3="1"/>
<feColorMatrix type="matrix" values="0 0 0 0 0 0 0 0 0 0 0 0 0 0 0 0 0 0 0.29 0"/>
<feBlend mode="normal" in2="shape" result="effect1_innerShadow_4206_21573"/>
</filter>
<radialGradient id="paint0_radial_4206_21573" cx="0" cy="0" r="1" gradientUnits="userSpaceOnUse" gradientTransform="translate(22.5 22.5) rotate(90) scale(22.5)">
<stop stop-color="white"/>
<stop offset="1" stop-color="#FAFAFA"/>
</radialGradient>
<radialGradient id="paint1_radial_4206_21573" cx="0" cy="0" r="1" gradientUnits="userSpaceOnUse" gradientTransform="translate(22.5 22.5) rotate(90) scale(22.5)">
<stop stop-color="white"/>
<stop offset="1" stop-color="#FAFAFA"/>
</radialGradient>
</defs>
</svg>
