<svg width="22" height="29" viewBox="0 0 22 29" fill="none" xmlns="http://www.w3.org/2000/svg">
<path d="M17.9996 21.0256C17.8069 21.0256 17.6169 21.0401 17.4314 21.0664C16.8814 21.1444 16.335 21.1679 15.8005 21.1407C7.4784 20.7094 7.4784 8.29246 15.8005 7.86107C16.335 7.83298 16.8814 7.85654 17.4314 7.93539C17.6169 7.96167 17.8069 7.97617 17.9996 7.97617C20.2606 7.97617 22.0834 6.10562 21.997 3.83268C21.9197 1.80987 20.2988 0.14413 18.2742 0.00909482C16.1286 -0.133191 14.3168 1.4111 14.0377 3.44298C13.404 8.01967 9.15572 11.2089 4.56831 10.5527C4.38285 10.5264 4.19285 10.5119 4.00011 10.5119C1.79096 10.5119 0 12.2973 0 14.4995C0 16.7018 1.79096 18.4872 4.00011 18.4872C4.19285 18.4872 4.38285 18.4727 4.56831 18.4464C9.15663 17.7902 13.404 20.9803 14.0377 25.557C14.3159 27.588 16.1286 29.1332 18.2742 28.9909C20.2997 28.8568 21.9197 27.1901 21.997 25.1682C22.0843 22.8953 20.2606 21.0247 17.9996 21.0247V21.0256Z" fill="black"/>
</svg>
