<?xml version="1.0" encoding="utf-8"?>
<!-- Generator: Adobe Illustrator 28.0.0, SVG Export Plug-In . SVG Version: 6.00 Build 0)  -->
<svg version="1.1" id="Ebene_1" xmlns="http://www.w3.org/2000/svg" xmlns:xlink="http://www.w3.org/1999/xlink" x="0px" y="0px"
	 viewBox="0 0 100 91" style="enable-background:new 0 0 100 91;" xml:space="preserve">
<style type="text/css">
	.st0{fill:none;stroke:#000000;stroke-miterlimit:10;}
	.st1{fill:none;stroke:#000000;stroke-width:0.4;stroke-miterlimit:10;}
	.st2{fill:none;stroke:#000000;stroke-width:3;stroke-miterlimit:10;}
	.st3{fill:none;stroke:#000000;stroke-width:3;stroke-miterlimit:10;stroke-dasharray:0.2012,0.3019,8.049341e-02,0.322;}
	.st4{fill:none;stroke:#000000;stroke-width:3;stroke-miterlimit:10;stroke-dasharray:6.0756,9.1134,2.4302,9.7209;}
	.st5{fill:none;stroke:#000000;stroke-width:3;stroke-miterlimit:10;stroke-dasharray:8.3869,12.5803,3.3548,13.419;}
	.st6{fill:none;stroke:#000000;stroke-width:3;stroke-miterlimit:10;stroke-dasharray:5.6479,8.4718,2.2592,9.0366;}
	.st7{fill:none;stroke:#000000;stroke-width:3;stroke-miterlimit:10;stroke-dasharray:4.4626,6.6939,1.785,7.1402;}
	.st8{fill:none;stroke:#000000;stroke-width:3;stroke-miterlimit:10;stroke-dasharray:4.5193,6.7789,1.8077,7.2308;}
	.st9{fill:none;stroke:#000000;stroke-width:3;stroke-miterlimit:10;stroke-dasharray:2.3637,3.5456,0.9455,3.782;}
	.st10{fill:none;stroke:#000000;stroke-width:3;stroke-miterlimit:10;stroke-dasharray:2.7391,4.1086,1.0956,4.3825;}
	.st11{fill:none;stroke:#000000;stroke-width:3;stroke-miterlimit:10;stroke-dasharray:5.1517,7.7276,2.0607,8.2428;}
	.st12{fill:none;stroke:#000000;stroke-width:3;stroke-miterlimit:10;stroke-dasharray:4.3791,6.5687,1.7516,7.0066;}
	.st13{fill:none;stroke:#000000;stroke-width:3;stroke-miterlimit:10;stroke-dasharray:4.5518,6.8277,1.8207,7.2828;}
	.st14{fill:none;stroke:#000000;stroke-width:3;stroke-miterlimit:10;stroke-dasharray:7.6921,11.5381,3.0768,12.3073;}
	.st15{fill:none;stroke:#000000;stroke-width:3;stroke-miterlimit:10;stroke-dasharray:2.1384,3.2076,0.8554,3.4215;}
	.st16{fill:none;stroke:#000000;stroke-width:3;stroke-miterlimit:10;stroke-dasharray:7.2127,10.819,2.8851,11.5403;}
	.st17{fill:none;stroke:#000000;stroke-width:3;stroke-miterlimit:10;stroke-dasharray:8.6546,12.982,3.4619,13.8474;}
	
		.st18{fill:none;stroke:#000000;stroke-width:3;stroke-miterlimit:10;stroke-dasharray:10.3856,4.3273,8.6546,12.982,3.4619,13.8474;}
	.st19{fill:none;stroke:#000000;stroke-width:3;stroke-miterlimit:10;stroke-dasharray:9.635,14.4524,3.854,15.4159;}
	.st20{fill:none;stroke:#000000;stroke-width:3;stroke-miterlimit:10;stroke-dasharray:11.562,4.8175,9.635,14.4524,3.854,15.4159;}
	.st21{fill:none;stroke:#000000;stroke-width:3;stroke-miterlimit:10;stroke-dasharray:4.382,6.573,1.7528,7.0112;}
	.st22{fill:none;stroke:#000000;stroke-width:3;stroke-miterlimit:10;stroke-dasharray:1.5489,2.3233,0.6196,2.4782;}
	.st23{fill:none;stroke:#000000;stroke-width:3;stroke-miterlimit:10;stroke-dasharray:2.1725,3.2587,0.869,3.476;}
	.st24{fill:none;stroke:#000000;stroke-width:3;stroke-miterlimit:10;stroke-dasharray:4.9538,7.4307,1.9815,7.9261;}
	.st25{fill:none;stroke:#000000;stroke-width:3;stroke-miterlimit:10;stroke-dasharray:6.4636,9.6954,2.5855,10.3418;}
	.st26{fill:none;stroke:#000000;stroke-width:3;stroke-miterlimit:10;stroke-dasharray:5.0488,7.5731,2.0195,8.078;}
	.st27{fill:none;stroke:#000000;stroke-width:3;stroke-miterlimit:10;stroke-dasharray:5.8694,8.8041,2.3478,9.3911;}
	.st28{fill:none;stroke:#000000;stroke-width:3;stroke-miterlimit:10;stroke-dasharray:4.0616,6.0924,1.6246,6.4985;}
	.st29{fill:none;stroke:#000000;stroke-width:3;stroke-miterlimit:10;stroke-dasharray:3.0322,4.5483,1.2129,4.8516;}
	.st30{fill:none;stroke:#000000;stroke-width:3;stroke-miterlimit:10;stroke-dasharray:8.348,12.522,3.3392,13.3568;}
	.st31{fill:none;stroke:#000000;stroke-width:3;stroke-miterlimit:10;stroke-dasharray:10.0176,4.174,8.348,12.522,3.3392,13.3568;}
	.st32{fill:none;stroke:#000000;stroke-width:3;stroke-miterlimit:10;stroke-dasharray:10.982,16.473,4.3928,17.5712;}
	
		.st33{fill:none;stroke:#000000;stroke-width:3;stroke-miterlimit:10;stroke-dasharray:13.1784,5.491,10.982,16.473,4.3928,17.5712;}
	.st34{fill:none;stroke:#000000;stroke-width:3;stroke-miterlimit:10;stroke-dasharray:6.0947,9.1421,2.4379,9.7516;}
	.st35{fill:none;stroke:#000000;stroke-width:3;stroke-miterlimit:10;stroke-dasharray:7.3137,3.0474,6.0947,9.1421,2.4379,9.7516;}
	.st36{fill:none;stroke:#000000;stroke-width:3;stroke-miterlimit:10;stroke-dasharray:9.5647,14.347,3.8259,15.3035;}
	
		.st37{fill:none;stroke:#000000;stroke-width:3;stroke-miterlimit:10;stroke-dasharray:11.4776,4.7823,9.5647,14.347,3.8259,15.3035;}
	.st38{fill:none;stroke:#000000;stroke-width:3;stroke-miterlimit:10;stroke-dasharray:11.0394,16.559,4.4157,17.663;}
	
		.st39{fill:none;stroke:#000000;stroke-width:3;stroke-miterlimit:10;stroke-dasharray:13.2472,5.5197,11.0394,16.559,4.4157,17.663;}
	.st40{fill:none;stroke:#000000;stroke-width:3;stroke-miterlimit:10;stroke-dasharray:10.4496,15.6744,4.1798,16.7194;}
	
		.st41{fill:none;stroke:#000000;stroke-width:3;stroke-miterlimit:10;stroke-dasharray:12.5395,5.2248,10.4496,15.6744,4.1798,16.7194;}
	.st42{fill:none;stroke:#000000;stroke-width:3;stroke-miterlimit:10;stroke-dasharray:9.1124,13.6686,3.645,14.5798;}
	
		.st43{fill:none;stroke:#000000;stroke-width:3;stroke-miterlimit:10;stroke-dasharray:10.9349,4.5562,9.1124,13.6686,3.645,14.5798;}
	.st44{fill:none;stroke:#000000;stroke-width:3;stroke-miterlimit:10;stroke-dasharray:2.0437,3.0655,0.8175,3.2699;}
	.st45{fill:none;stroke:#000000;stroke-width:3;stroke-miterlimit:10;stroke-dasharray:9.2865,13.9297,3.7146,14.8584;}
	
		.st46{fill:none;stroke:#000000;stroke-width:3;stroke-miterlimit:10;stroke-dasharray:11.1438,4.6432,9.2865,13.9297,3.7146,14.8584;}
	.st47{fill:none;stroke:#000000;stroke-width:3;stroke-miterlimit:10;stroke-dasharray:10.2894,15.4341,4.1158,16.4631;}
	
		.st48{fill:none;stroke:#000000;stroke-width:3;stroke-miterlimit:10;stroke-dasharray:12.3473,5.1447,10.2894,15.4341,4.1158,16.4631;}
	.st49{fill:none;stroke:#000000;stroke-width:3;stroke-miterlimit:10;stroke-dasharray:8.8626,13.2939,3.545,14.1802;}
	
		.st50{fill:none;stroke:#000000;stroke-width:3;stroke-miterlimit:10;stroke-dasharray:10.6351,4.4313,8.8626,13.2939,3.545,14.1802;}
	.st51{fill:none;stroke:#000000;stroke-width:3;stroke-miterlimit:10;stroke-dasharray:0.6699,1.0048,0.268,1.0718;}
	.st52{fill:none;stroke:#000000;stroke-width:3;stroke-miterlimit:10;stroke-dasharray:1.8914,2.8371,0.7566,3.0263;}
	.st53{fill:none;stroke:#000000;stroke-width:3;stroke-miterlimit:10;stroke-dasharray:3.2335,4.8502,1.2934,5.1736;}
	.st54{fill:none;stroke:#000000;stroke-width:3;stroke-miterlimit:10;stroke-dasharray:5.6825,8.5238,2.273,9.092;}
	.st55{fill:none;stroke:#000000;stroke-width:3;stroke-miterlimit:10;stroke-dasharray:6.7312,10.0968,2.6925,10.77;}
	.st56{fill:none;stroke:#000000;stroke-width:3;stroke-miterlimit:10;stroke-dasharray:6.8977,10.3466,2.7591,11.0364;}
	.st57{fill:none;stroke:#000000;stroke-width:3;stroke-miterlimit:10;stroke-dasharray:11.5682,17.3522,4.6273,18.5091;}
	
		.st58{fill:none;stroke:#000000;stroke-width:3;stroke-miterlimit:10;stroke-dasharray:13.8818,5.7841,11.5682,17.3522,4.6273,18.5091;}
	.st59{fill:none;stroke:#000000;stroke-width:3;stroke-miterlimit:10;stroke-dasharray:2.8025,4.2038,1.121,4.484;}
	.st60{fill:none;stroke:#000000;stroke-width:3;stroke-miterlimit:10;stroke-dasharray:8.346,12.519,3.3384,13.3536;}
	.st61{fill:none;stroke:#000000;stroke-width:3;stroke-miterlimit:10;stroke-dasharray:10.0152,4.173,8.346,12.519,3.3384,13.3536;}
	.st62{fill:none;stroke:#000000;stroke-width:3;stroke-miterlimit:10;stroke-dasharray:4.4559,6.6838,1.7823,7.1294;}
	.st63{fill:none;stroke:#000000;stroke-width:3;stroke-miterlimit:10;stroke-dasharray:3.566,5.349,1.4264,5.7056;}
	.st64{fill:none;stroke:#000000;stroke-width:3;stroke-miterlimit:10;stroke-dasharray:2.3618,3.5427,0.9447,3.7788;}
	.st65{fill:none;stroke:#000000;stroke-width:3;stroke-miterlimit:10;stroke-dasharray:10.4725,15.7087,4.189,16.7559;}
	.st66{fill:none;stroke:#000000;stroke-width:3;stroke-miterlimit:10;stroke-dasharray:4.4785,6.7177,1.7914,7.1655;}
	.st67{fill:none;stroke:#000000;stroke-width:3;stroke-miterlimit:10;stroke-dasharray:4.7187,7.078,1.8875,7.5499;}
	.st68{fill:none;stroke:#000000;stroke-width:3;stroke-miterlimit:10;stroke-dasharray:0.7554,1.1331,0.3022,1.2087;}
	.st69{fill:none;stroke:#000000;stroke-width:3;stroke-miterlimit:10;stroke-dasharray:7.8234,11.7352,3.1294,12.5175;}
	
		.st70{fill:none;stroke:#000000;stroke-width:3;stroke-miterlimit:10;stroke-dasharray:9.3881,3.9117,7.8234,11.7352,3.1294,12.5175;}
	.st71{fill:none;stroke:#000000;stroke-width:3;stroke-miterlimit:10;stroke-dasharray:2.2977,3.4466,0.9191,3.6764;}
	.st72{fill:none;stroke:#000000;stroke-width:3;stroke-miterlimit:10;stroke-dasharray:5.7931,8.6897,2.3173,9.269;}
	.st73{fill:none;stroke:#000000;stroke-width:3;stroke-miterlimit:10;stroke-dasharray:6.9518,2.8966,5.7931,8.6897,2.3173,9.269;}
	.st74{fill:none;stroke:#000000;stroke-width:3;stroke-miterlimit:10;stroke-dasharray:9.1927,13.7891,3.6771,14.7084;}
	.st75{fill:none;stroke:#000000;stroke-width:3;stroke-miterlimit:10;stroke-dasharray:4.9489,7.4233,1.9795,7.9182;}
	.st76{fill:none;stroke:#000000;stroke-width:3;stroke-miterlimit:10;stroke-dasharray:5.6865,8.5297,2.2746,9.0984;}
	.st77{fill:none;stroke:#000000;stroke-width:3;stroke-miterlimit:10;stroke-dasharray:10.3637,15.5455,4.1455,16.5818;}
	
		.st78{fill:none;stroke:#000000;stroke-width:3;stroke-miterlimit:10;stroke-dasharray:12.4364,5.1818,10.3637,15.5455,4.1455,16.5818;}
	.st79{fill:none;stroke:#000000;stroke-width:3;stroke-miterlimit:10;stroke-dasharray:11.1405,16.7108,4.4562,17.8249;}
	.st80{fill:none;stroke:#000000;stroke-width:3;stroke-miterlimit:10;stroke-dasharray:5.6165,8.4248,2.2466,8.9864;}
	.st81{fill:none;stroke:#000000;stroke-width:3;stroke-miterlimit:10;stroke-dasharray:6.7398,2.8083,5.6165,8.4248,2.2466,8.9864;}
	.st82{fill:none;stroke:#000000;stroke-width:3;stroke-miterlimit:10;stroke-dasharray:7.1766,10.765,2.8707,11.4826;}
	.st83{fill:none;stroke:#000000;stroke-width:3;stroke-miterlimit:10;stroke-dasharray:9.3505,14.0258,3.7402,14.9609;}
	
		.st84{fill:none;stroke:#000000;stroke-width:3;stroke-miterlimit:10;stroke-dasharray:11.2207,4.6753,9.3505,14.0258,3.7402,14.9609;}
	.st85{fill:none;stroke:#000000;stroke-width:3;stroke-miterlimit:10;stroke-dasharray:10.8289,16.2433,4.3315,17.3262;}
	
		.st86{fill:none;stroke:#000000;stroke-width:3;stroke-miterlimit:10;stroke-dasharray:12.9946,5.4144,10.8289,16.2433,4.3315,17.3262;}
	.st87{fill:none;stroke:#000000;stroke-width:3;stroke-miterlimit:10;stroke-dasharray:10.0969,15.1453,4.0388,16.155;}
	
		.st88{fill:none;stroke:#000000;stroke-width:3;stroke-miterlimit:10;stroke-dasharray:12.1163,5.0484,10.0969,15.1453,4.0388,16.155;}
	.st89{fill:none;stroke:#000000;stroke-width:3;stroke-miterlimit:10;stroke-dasharray:9.8233,14.735,3.9293,15.7173;}
	
		.st90{fill:none;stroke:#000000;stroke-width:3;stroke-miterlimit:10;stroke-dasharray:11.788,4.9117,9.8233,14.735,3.9293,15.7173;}
	.st91{fill:none;stroke:#000000;stroke-width:3;stroke-miterlimit:10;stroke-dasharray:9.2163,13.8244,3.6865,14.746;}
	
		.st92{fill:none;stroke:#000000;stroke-width:3;stroke-miterlimit:10;stroke-dasharray:11.0595,4.6081,9.2163,13.8244,3.6865,14.746;}
	.st93{fill:none;stroke:#000000;stroke-width:3;stroke-miterlimit:10;stroke-dasharray:3.9399,5.9098,1.5759,6.3038;}
	.st94{fill:none;stroke:#000000;stroke-width:3;stroke-miterlimit:10;stroke-dasharray:1.7945,2.6918,0.7178,2.8713;}
	.st95{fill:none;stroke:#000000;stroke-width:3;stroke-miterlimit:10;stroke-dasharray:5.8339,8.7509,2.3336,9.3343;}
	.st96{fill:none;stroke:#000000;stroke-width:3;stroke-miterlimit:10;stroke-dasharray:7.0007,2.917,5.8339,8.7509,2.3336,9.3343;}
	.st97{fill:none;stroke:#000000;stroke-width:3;stroke-miterlimit:10;stroke-dasharray:8.001,12.0015,3.2004,12.8016;}
	
		.st98{fill:none;stroke:#000000;stroke-width:3;stroke-miterlimit:10;stroke-dasharray:9.6012,4.0005,8.001,12.0015,3.2004,12.8016;}
	.st99{fill:none;stroke:#000000;stroke-width:3;stroke-miterlimit:10;stroke-dasharray:6.3181,9.4772,2.5273,10.109;}
	.st100{fill:none;stroke:#000000;stroke-width:3;stroke-miterlimit:10;stroke-dasharray:9.3291,13.9937,3.7316,14.9266;}
	
		.st101{fill:none;stroke:#000000;stroke-width:3;stroke-miterlimit:10;stroke-dasharray:11.1949,4.6646,9.3291,13.9937,3.7316,14.9266;}
	.st102{fill:none;stroke:#000000;stroke-width:3;stroke-miterlimit:10;stroke-dasharray:10.7744,16.1616,4.3098,17.239;}
	
		.st103{fill:none;stroke:#000000;stroke-width:3;stroke-miterlimit:10;stroke-dasharray:12.9293,5.3872,10.7744,16.1616,4.3098,17.239;}
	.st104{fill:none;stroke:#000000;stroke-width:3;stroke-miterlimit:10;stroke-dasharray:9.1892,13.7837,3.6757,14.7027;}
	
		.st105{fill:none;stroke:#000000;stroke-width:3;stroke-miterlimit:10;stroke-dasharray:11.027,4.5946,9.1892,13.7837,3.6757,14.7027;}
	.st106{fill:none;stroke:#000000;stroke-width:3;stroke-miterlimit:10;stroke-dasharray:0.4289,0.6433,0.1715,0.6862;}
	.st107{fill:none;stroke:#000000;stroke-width:3;stroke-miterlimit:10;stroke-dasharray:6.6626,9.9938,2.665,10.6601;}
	
		.st108{fill:none;stroke:#000000;stroke-width:3;stroke-miterlimit:10;stroke-dasharray:7.9951,3.3313,6.6626,9.9938,2.665,10.6601;}
	.st109{fill:none;stroke:#000000;stroke-width:3;stroke-miterlimit:10;stroke-dasharray:6.0688,9.1032,2.4275,9.7101;}
	
		.st110{fill:none;stroke:#000000;stroke-width:3;stroke-miterlimit:10;stroke-dasharray:7.2826,3.0344,6.0688,9.1032,2.4275,9.7101;}
	.st111{fill:none;stroke:#000000;stroke-width:3;stroke-miterlimit:10;stroke-dasharray:5.7238,8.5857,2.2895,9.1581;}
	.st112{fill:none;stroke:#000000;stroke-width:3;stroke-miterlimit:10;stroke-dasharray:5.4561,8.1842,2.1825,8.7298;}
	
		.st113{fill:none;stroke:#000000;stroke-width:3;stroke-miterlimit:10;stroke-dasharray:6.5474,2.7281,5.4561,8.1842,2.1825,8.7298;}
	.st114{fill:none;stroke:#000000;stroke-width:3;stroke-miterlimit:10;stroke-dasharray:1.5018,2.2527,0.6007,2.4029;}
	.st115{fill:none;stroke:#000000;stroke-width:3;stroke-miterlimit:10;stroke-dasharray:10.3378,15.5067,4.1351,16.5405;}
	
		.st116{fill:none;stroke:#000000;stroke-width:3;stroke-miterlimit:10;stroke-dasharray:12.4054,5.1689,10.3378,15.5067,4.1351,16.5405;}
	.st117{fill:none;stroke:#000000;stroke-width:3;stroke-miterlimit:10;stroke-dasharray:10.5998,15.8997,4.2399,16.9597;}
	
		.st118{fill:none;stroke:#000000;stroke-width:3;stroke-miterlimit:10;stroke-dasharray:12.7198,5.2999,10.5998,15.8997,4.2399,16.9597;}
	.st119{fill:none;stroke:#000000;stroke-width:3;stroke-miterlimit:10;stroke-dasharray:8.918,13.377,3.5672,14.2688;}
	.st120{fill:none;stroke:#000000;stroke-width:3;stroke-miterlimit:10;stroke-dasharray:7.3549,11.0323,2.942,11.7678;}
	
		.st121{fill:none;stroke:#000000;stroke-width:3;stroke-miterlimit:10;stroke-dasharray:8.8259,3.6774,7.3549,11.0323,2.942,11.7678;}
	.st122{fill:none;stroke:#000000;stroke-width:3;stroke-miterlimit:10;stroke-dasharray:5.9539,8.9308,2.3816,9.5262;}
	.st123{fill:none;stroke:#000000;stroke-width:3;stroke-miterlimit:10;stroke-dasharray:0.6493,0.974,0.2597,1.0389;}
	.st124{fill:none;stroke:#000000;stroke-width:3;stroke-miterlimit:10;stroke-dasharray:4.9349,7.4024,1.974,7.8959;}
	.st125{fill:none;stroke:#000000;stroke-width:3;stroke-miterlimit:10;stroke-dasharray:6.5613,9.8419,2.6245,10.4981;}
	.st126{fill:none;stroke:#000000;stroke-width:3;stroke-miterlimit:10;stroke-dasharray:3.7825,5.6738,1.513,6.052;}
	.st127{fill:none;stroke:#000000;stroke-width:3;stroke-miterlimit:10;stroke-dasharray:5.5045,8.2567,2.2018,8.8072;}
	
		.st128{fill:none;stroke:#000000;stroke-width:3;stroke-miterlimit:10;stroke-dasharray:6.6054,2.7522,5.5045,8.2567,2.2018,8.8072;}
	.st129{fill:none;stroke:#000000;stroke-width:3;stroke-miterlimit:10;stroke-dasharray:6.6941,10.0412,2.6776,10.7106;}
	
		.st130{fill:none;stroke:#000000;stroke-width:3;stroke-miterlimit:10;stroke-dasharray:8.0329,3.3471,6.6941,10.0412,2.6776,10.7106;}
	.st131{fill:none;stroke:#000000;stroke-width:3;stroke-miterlimit:10;stroke-dasharray:10.9168,16.3752,4.3667,17.4669;}
	
		.st132{fill:none;stroke:#000000;stroke-width:3;stroke-miterlimit:10;stroke-dasharray:13.1002,5.4584,10.9168,16.3752,4.3667,17.4669;}
	.st133{fill:none;stroke:#000000;stroke-width:3;stroke-miterlimit:10;stroke-dasharray:10.0112,15.0168,4.0045,16.018;}
	
		.st134{fill:none;stroke:#000000;stroke-width:3;stroke-miterlimit:10;stroke-dasharray:12.0135,5.0056,10.0112,15.0168,4.0045,16.018;}
	.st135{fill:none;stroke:#000000;stroke-width:3;stroke-miterlimit:10;stroke-dasharray:8.8543,13.2814,3.5417,14.1668;}
	.st136{fill:none;stroke:#000000;stroke-width:3;stroke-miterlimit:10;stroke-dasharray:11.6325,17.4487,4.653,18.6119;}
	
		.st137{fill:none;stroke:#000000;stroke-width:3;stroke-miterlimit:10;stroke-dasharray:13.9589,5.8162,11.6325,17.4487,4.653,18.6119;}
	.st138{fill:none;stroke:#000000;stroke-width:3;stroke-miterlimit:10;stroke-dasharray:10.3541,15.5311,4.1416,16.5665;}
	
		.st139{fill:none;stroke:#000000;stroke-width:3;stroke-miterlimit:10;stroke-dasharray:12.4249,5.177,10.3541,15.5311,4.1416,16.5665;}
	.st140{fill:none;stroke:#000000;stroke-width:3;stroke-miterlimit:10;stroke-dasharray:9.4488,14.1732,3.7795,15.1181;}
	
		.st141{fill:none;stroke:#000000;stroke-width:3;stroke-miterlimit:10;stroke-dasharray:11.3386,4.7244,9.4488,14.1732,3.7795,15.1181;}
	.st142{fill:none;stroke:#000000;stroke-width:3;stroke-miterlimit:10;stroke-dasharray:4.0562,6.0842,1.6225,6.4899;}
	.st143{fill:none;stroke:#000000;stroke-width:3;stroke-miterlimit:10;stroke-dasharray:6.5224,9.7837,2.609,10.4359;}
	
		.st144{fill:none;stroke:#000000;stroke-width:3;stroke-miterlimit:10;stroke-dasharray:7.8269,3.2612,6.5224,9.7837,2.609,10.4359;}
	.st145{fill:none;stroke:#000000;stroke-width:3;stroke-miterlimit:10;stroke-dasharray:8.1267,12.1901,3.2507,13.0028;}
	
		.st146{fill:none;stroke:#000000;stroke-width:3;stroke-miterlimit:10;stroke-dasharray:9.7521,4.0634,8.1267,12.1901,3.2507,13.0028;}
	.st147{fill:none;stroke:#000000;stroke-width:3;stroke-miterlimit:10;stroke-dasharray:4.2823,6.4235,1.7129,6.8517;}
	.st148{fill:none;stroke:#000000;stroke-width:3;stroke-miterlimit:10;stroke-dasharray:2.8008,4.2012,1.1203,4.4813;}
	.st149{fill:none;stroke:#000000;stroke-width:3;stroke-miterlimit:10;stroke-dasharray:9.9707,14.9561,3.9883,15.9532;}
	
		.st150{fill:none;stroke:#000000;stroke-width:3;stroke-miterlimit:10;stroke-dasharray:11.9649,4.9854,9.9707,14.9561,3.9883,15.9532;}
	.st151{fill:none;stroke:#000000;stroke-width:3;stroke-miterlimit:10;stroke-dasharray:9.7614,14.6421,3.9046,15.6183;}
	
		.st152{fill:none;stroke:#000000;stroke-width:3;stroke-miterlimit:10;stroke-dasharray:11.7137,4.8807,9.7614,14.6421,3.9046,15.6183;}
	.st153{fill:none;stroke:#000000;stroke-width:3;stroke-miterlimit:10;stroke-dasharray:11.333,16.9995,4.5332,18.1328;}
	
		.st154{fill:none;stroke:#000000;stroke-width:3;stroke-miterlimit:10;stroke-dasharray:13.5996,5.6665,11.333,16.9995,4.5332,18.1328;}
	.st155{fill:none;stroke:#000000;stroke-width:3;stroke-miterlimit:10;stroke-dasharray:9.6819,14.5229,3.8728,15.4911;}
	
		.st156{fill:none;stroke:#000000;stroke-width:3;stroke-miterlimit:10;stroke-dasharray:11.6183,4.841,9.6819,14.5229,3.8728,15.4911;}
	.st157{fill:none;stroke:#000000;stroke-width:3;stroke-miterlimit:10;stroke-dasharray:10.7718,16.1577,4.3087,17.2349;}
	
		.st158{fill:none;stroke:#000000;stroke-width:3;stroke-miterlimit:10;stroke-dasharray:12.9262,5.3859,10.7718,16.1577,4.3087,17.2349;}
	.st159{fill:none;stroke:#000000;stroke-width:3;stroke-miterlimit:10;stroke-dasharray:10.758,16.1371,4.3032,17.2129;}
	
		.st160{fill:none;stroke:#000000;stroke-width:3;stroke-miterlimit:10;stroke-dasharray:12.9096,5.379,10.758,16.1371,4.3032,17.2129;}
	.st161{fill:none;stroke:#000000;stroke-width:3;stroke-miterlimit:10;stroke-dasharray:9.498,14.247,3.7992,15.1968;}
	
		.st162{fill:none;stroke:#000000;stroke-width:3;stroke-miterlimit:10;stroke-dasharray:11.3976,4.749,9.498,14.247,3.7992,15.1968;}
	.st163{fill:none;stroke:#000000;stroke-width:3;stroke-miterlimit:10;stroke-dasharray:11.4005,17.1008,4.5602,18.2408;}
	
		.st164{fill:none;stroke:#000000;stroke-width:3;stroke-miterlimit:10;stroke-dasharray:13.6806,5.7003,11.4005,17.1008,4.5602,18.2408;}
	
		.st165{fill:none;stroke:#000000;stroke-width:3;stroke-miterlimit:10;stroke-dasharray:11.461,4.7754,9.5508,14.3262,3.8203,15.2813;}
	.st166{fill:none;stroke:#000000;stroke-width:3;stroke-miterlimit:10;stroke-dasharray:11.1077,16.6615,4.4431,17.7723;}
	
		.st167{fill:none;stroke:#000000;stroke-width:3;stroke-miterlimit:10;stroke-dasharray:13.3292,5.5538,11.1077,16.6615,4.4431,17.7723;}
	.st168{fill:none;stroke:#000000;stroke-width:3;stroke-miterlimit:10;stroke-dasharray:10.7747,16.1621,4.3099,17.2395;}
	
		.st169{fill:none;stroke:#000000;stroke-width:3;stroke-miterlimit:10;stroke-dasharray:12.9296,5.3874,10.7747,16.1621,4.3099,17.2395;}
	.st170{fill:none;stroke:#000000;stroke-width:3;stroke-miterlimit:10;stroke-dasharray:7.5828,11.3742,3.0331,12.1325;}
	
		.st171{fill:none;stroke:#000000;stroke-width:3;stroke-miterlimit:10;stroke-dasharray:9.0994,3.7914,7.5828,11.3742,3.0331,12.1325;}
	.st172{fill:none;stroke:#000000;stroke-width:3;stroke-miterlimit:10;stroke-dasharray:11.1292,16.6937,4.4517,17.8066;}
	
		.st173{fill:none;stroke:#000000;stroke-width:3;stroke-miterlimit:10;stroke-dasharray:13.355,5.5646,11.1292,16.6937,4.4517,17.8066;}
	.st174{fill:none;stroke:#000000;stroke-width:3;stroke-miterlimit:10;stroke-dasharray:7.3348,11.0021,2.9339,11.7356;}
	
		.st175{fill:none;stroke:#000000;stroke-width:3;stroke-miterlimit:10;stroke-dasharray:8.8017,3.6674,7.3348,11.0021,2.9339,11.7356;}
	.st176{fill:none;stroke:#000000;stroke-width:3;stroke-miterlimit:10;stroke-dasharray:10.7121,16.0681,4.2848,17.1393;}
	.st177{fill:none;stroke:#000000;stroke-width:3;stroke-miterlimit:10;stroke-dasharray:9.2744,13.9116,3.7098,14.839;}
	
		.st178{fill:none;stroke:#000000;stroke-width:3;stroke-miterlimit:10;stroke-dasharray:11.1293,4.6372,9.2744,13.9116,3.7098,14.839;}
	.st179{fill:none;stroke:#000000;stroke-width:3;stroke-miterlimit:10;stroke-dasharray:7.9379,11.9068,3.1751,12.7006;}
	
		.st180{fill:none;stroke:#000000;stroke-width:3;stroke-miterlimit:10;stroke-dasharray:9.5254,3.9689,7.9379,11.9068,3.1751,12.7006;}
	.st181{fill:none;stroke:#000000;stroke-width:3;stroke-miterlimit:10;stroke-dasharray:9.8284,14.7425,3.9313,15.7254;}
	
		.st182{fill:none;stroke:#000000;stroke-width:3;stroke-miterlimit:10;stroke-dasharray:11.794,4.9142,9.8284,14.7425,3.9313,15.7254;}
	.st183{fill:none;stroke:#000000;stroke-width:3;stroke-miterlimit:10;stroke-dasharray:8.7889,13.1833,3.5156,14.0622;}
	
		.st184{fill:none;stroke:#000000;stroke-width:3;stroke-miterlimit:10;stroke-dasharray:10.5467,4.3944,8.7889,13.1833,3.5156,14.0622;}
	.st185{fill:none;stroke:#000000;stroke-width:3;stroke-miterlimit:10;stroke-dasharray:8.6807,13.0211,3.4723,13.8892;}
	
		.st186{fill:none;stroke:#000000;stroke-width:3;stroke-miterlimit:10;stroke-dasharray:10.4169,4.3404,8.6807,13.0211,3.4723,13.8892;}
	.st187{fill:none;stroke:#000000;stroke-width:3;stroke-miterlimit:10;stroke-dasharray:8.7599,13.1399,3.504,14.0159;}
	
		.st188{fill:none;stroke:#000000;stroke-width:3;stroke-miterlimit:10;stroke-dasharray:10.5119,4.38,8.7599,13.1399,3.504,14.0159;}
	.st189{fill:none;stroke:#000000;stroke-width:3;stroke-miterlimit:10;stroke-dasharray:10.7078,16.0618,4.2831,17.1326;}
	
		.st190{fill:none;stroke:#000000;stroke-width:3;stroke-miterlimit:10;stroke-dasharray:12.8494,5.3539,10.7078,16.0618,4.2831,17.1326;}
	.st191{fill:none;stroke:#000000;stroke-width:3;stroke-miterlimit:10;stroke-dasharray:10.8476,16.2715,4.3391,17.3562;}
	
		.st192{fill:none;stroke:#000000;stroke-width:3;stroke-miterlimit:10;stroke-dasharray:13.0172,5.4238,10.8476,16.2715,4.3391,17.3562;}
	.st193{fill:none;stroke:#000000;stroke-width:3;stroke-miterlimit:10;stroke-dasharray:7.2503,10.8754,2.9001,11.6004;}
	
		.st194{fill:none;stroke:#000000;stroke-width:3;stroke-miterlimit:10;stroke-dasharray:8.7003,3.6251,7.2503,10.8754,2.9001,11.6004;}
	.st195{fill:none;stroke:#000000;stroke-width:3;stroke-miterlimit:10;stroke-dasharray:7.2442,10.8663,2.8977,11.5907;}
	
		.st196{fill:none;stroke:#000000;stroke-width:3;stroke-miterlimit:10;stroke-dasharray:8.693,3.6221,7.2442,10.8663,2.8977,11.5907;}
	.st197{fill:none;stroke:#000000;stroke-width:3;stroke-miterlimit:10;stroke-dasharray:5.1299,7.6949,2.052,8.2079;}
	.st198{fill:none;stroke:#000000;stroke-width:3;stroke-miterlimit:10;stroke-dasharray:6.1559,2.565,5.1299,7.6949,2.052,8.2079;}
	.st199{fill:none;stroke:#000000;stroke-width:3;stroke-miterlimit:10;stroke-dasharray:7.0431,10.5646,2.8172,11.2689;}
	.st200{fill:none;stroke:#000000;stroke-width:3;stroke-miterlimit:10;stroke-dasharray:1.0637,1.5955,0.4255,1.7019;}
	.st201{fill:none;stroke:#000000;stroke-width:3;stroke-miterlimit:10;stroke-dasharray:10.5357,15.8036,4.2143,16.8572;}
	
		.st202{fill:none;stroke:#000000;stroke-width:3;stroke-miterlimit:10;stroke-dasharray:12.6429,5.2679,10.5357,15.8036,4.2143,16.8572;}
	.st203{fill:none;stroke:#000000;stroke-width:3;stroke-miterlimit:10;stroke-dasharray:6.0252,9.0379,2.4101,9.6404;}
	
		.st204{fill:none;stroke:#000000;stroke-width:3;stroke-miterlimit:10;stroke-dasharray:7.2303,3.0126,6.0252,9.0379,2.4101,9.6404;}
	.st205{fill:none;stroke:#000000;stroke-width:3;stroke-miterlimit:10;stroke-dasharray:5.4912,8.2368,2.1965,8.786;}
	.st206{fill:none;stroke:#000000;stroke-width:3;stroke-miterlimit:10;stroke-dasharray:6.5895,2.7456,5.4912,8.2368,2.1965,8.786;}
	.st207{fill:none;stroke:#000000;stroke-width:3;stroke-miterlimit:10;stroke-dasharray:9.5292,14.2937,3.8117,15.2467;}
	
		.st208{fill:none;stroke:#000000;stroke-width:3;stroke-miterlimit:10;stroke-dasharray:11.435,4.7646,9.5292,14.2937,3.8117,15.2467;}
	.st209{fill:none;stroke:#000000;stroke-width:3;stroke-miterlimit:10;stroke-dasharray:9.4398,14.1597,3.7759,15.1037;}
	
		.st210{fill:none;stroke:#000000;stroke-width:3;stroke-miterlimit:10;stroke-dasharray:11.3278,4.7199,9.4398,14.1597,3.7759,15.1037;}
	.st211{fill:none;stroke:#000000;stroke-width:3;stroke-miterlimit:10;stroke-dasharray:9.6829,14.5244,3.8732,15.4927;}
	.st212{fill:none;stroke:#000000;stroke-width:3;stroke-miterlimit:10;stroke-dasharray:9.7421,14.6132,3.8968,15.5874;}
	.st213{fill:none;stroke:#000000;stroke-width:3;stroke-miterlimit:10;stroke-dasharray:5.1724,7.7586,2.069,8.2758;}
	.st214{fill:none;stroke:#000000;stroke-width:3;stroke-miterlimit:10;stroke-dasharray:6.2069,2.5862,5.1724,7.7586,2.069,8.2758;}
	.st215{fill:none;stroke:#000000;stroke-width:3;stroke-miterlimit:10;stroke-dasharray:9.1306,13.6959,3.6522,14.6089;}
	.st216{fill:none;stroke:#000000;stroke-width:3;stroke-miterlimit:10;stroke-dasharray:8.2158,12.3238,3.2863,13.1454;}
	
		.st217{fill:none;stroke:#000000;stroke-width:3;stroke-miterlimit:10;stroke-dasharray:9.859,4.1079,8.2158,12.3238,3.2863,13.1454;}
	.st218{fill:none;stroke:#000000;stroke-width:3;stroke-miterlimit:10;stroke-dasharray:8.4961,12.7441,3.3984,13.5937;}
	
		.st219{fill:none;stroke:#000000;stroke-width:3;stroke-miterlimit:10;stroke-dasharray:10.1953,4.248,8.4961,12.7441,3.3984,13.5937;}
	.st220{fill:none;stroke:#000000;stroke-width:3;stroke-miterlimit:10;stroke-dasharray:7.8907,11.836,3.1563,12.6251;}
	
		.st221{fill:none;stroke:#000000;stroke-width:3;stroke-miterlimit:10;stroke-dasharray:9.4688,3.9453,7.8907,11.836,3.1563,12.6251;}
	.st222{fill:none;stroke:#000000;stroke-width:3;stroke-miterlimit:10;stroke-dasharray:6.7413,10.112,2.6965,10.7862;}
	.st223{fill:none;stroke:#000000;stroke-width:3;stroke-miterlimit:10;stroke-dasharray:8.3845,12.5768,3.3538,13.4153;}
	.st224{fill:none;stroke:#000000;stroke-width:3;stroke-miterlimit:10;stroke-dasharray:6.509,9.7634,2.6036,10.4143;}
	.st225{fill:none;stroke:#000000;stroke-width:3;stroke-miterlimit:10;stroke-dasharray:10.8345,16.2518,4.3338,17.3352;}
	.st226{fill:none;stroke:#000000;stroke-width:3;stroke-miterlimit:10;stroke-dasharray:5.6806,8.5209,2.2723,9.089;}
	.st227{fill:none;stroke:#000000;stroke-width:3;stroke-miterlimit:10;stroke-dasharray:6.8168,2.8403,5.6806,8.5209,2.2723,9.089;}
	.st228{fill:none;stroke:#000000;stroke-width:3;stroke-miterlimit:10;stroke-dasharray:8.6446,12.9669,3.4578,13.8314;}
	
		.st229{fill:none;stroke:#000000;stroke-width:3;stroke-miterlimit:10;stroke-dasharray:10.3735,4.3223,8.6446,12.9669,3.4578,13.8314;}
	.st230{fill:none;stroke:#000000;stroke-width:3;stroke-miterlimit:10;stroke-dasharray:6.1133,9.1699,2.4453,9.7813;}
	
		.st231{fill:none;stroke:#000000;stroke-width:3;stroke-miterlimit:10;stroke-dasharray:7.3359,3.0566,6.1133,9.1699,2.4453,9.7813;}
	.st232{fill:none;stroke:#000000;stroke-width:3;stroke-miterlimit:10;stroke-dasharray:10.1832,15.2748,4.0733,16.2931;}
	.st233{fill:none;stroke:#000000;stroke-width:3;stroke-miterlimit:10;stroke-dasharray:8.7,13.05,3.48,13.92;}
	.st234{fill:none;stroke:#000000;stroke-width:3;stroke-miterlimit:10;stroke-dasharray:5.8349,8.7523,2.3339,9.3358;}
	
		.st235{fill:none;stroke:#000000;stroke-width:3;stroke-miterlimit:10;stroke-dasharray:7.0018,2.9174,5.8349,8.7523,2.3339,9.3358;}
	.st236{fill:none;stroke:#000000;stroke-width:3;stroke-miterlimit:10;stroke-dasharray:4.4228,6.6342,1.7691,7.0765;}
	.st237{fill:none;stroke:#000000;stroke-width:3;stroke-miterlimit:10;stroke-dasharray:5.5318,8.2978,2.2127,8.8509;}
	.st238{fill:none;stroke:#000000;stroke-width:3;stroke-miterlimit:10;stroke-dasharray:4.5993,6.899,1.8397,7.359;}
	.st239{fill:none;stroke:#000000;stroke-width:3;stroke-miterlimit:10;stroke-dasharray:5.0806,7.6209,2.0322,8.1289;}
	.st240{fill:none;stroke:#000000;stroke-width:3;stroke-miterlimit:10;stroke-dasharray:7.9237,11.8855,3.1695,12.6779;}
	.st241{fill:none;stroke:#000000;stroke-width:3;stroke-miterlimit:10;stroke-dasharray:6.7048,10.0572,2.6819,10.7276;}
	.st242{fill:none;stroke:#000000;stroke-width:3;stroke-miterlimit:10;stroke-dasharray:3.4301,5.1451,1.372,5.4881;}
	.st243{fill:none;stroke:#000000;stroke-width:3;stroke-miterlimit:10;stroke-dasharray:3.7931,5.6897,1.5172,6.069;}
	.st244{fill:none;stroke:#000000;stroke-width:3;stroke-miterlimit:10;stroke-dasharray:7.7759,11.6639,3.1104,12.4415;}
	.st245{fill:none;stroke:#000000;stroke-width:3;stroke-miterlimit:10;stroke-dasharray:0.1968,0.2952,7.872781e-02,0.3149;}
	.st246{fill:none;stroke:#000000;stroke-width:3;stroke-miterlimit:10;stroke-dasharray:5.6466,8.4698,2.2586,9.0345;}
	.st247{fill:none;stroke:#000000;stroke-width:3;stroke-miterlimit:10;stroke-dasharray:5.7668,8.6502,2.3067,9.2269;}
	.st248{fill:none;stroke:#000000;stroke-width:3;stroke-miterlimit:10;stroke-dasharray:9.3851,14.0776,3.754,15.0161;}
	.st249{fill:none;stroke:#000000;stroke-width:3;stroke-miterlimit:10;stroke-dasharray:3.928,5.8921,1.5712,6.2849;}
	.st250{fill:none;stroke:#000000;stroke-width:3;stroke-miterlimit:10;stroke-dasharray:3.2085,4.8127,1.2834,5.1335;}
	.st251{fill:none;stroke:#000000;stroke-width:3;stroke-miterlimit:10;stroke-dasharray:5.2769,7.9153,2.1107,8.443;}
	.st252{fill:none;stroke:#000000;stroke-width:3;stroke-miterlimit:10;stroke-dasharray:4.2512,6.3768,1.7005,6.8019;}
	.st253{fill:none;stroke:#000000;stroke-width:3;stroke-miterlimit:10;stroke-dasharray:7.6505,11.4757,3.0602,12.2408;}
	.st254{fill:none;stroke:#000000;stroke-width:3;stroke-miterlimit:10;stroke-dasharray:7.8377,11.7565,3.1351,12.5403;}
	.st255{fill:none;stroke:#000000;stroke-width:3;stroke-miterlimit:10;stroke-dasharray:3.6191,5.4287,1.4477,5.7906;}
	.st256{fill:none;stroke:#000000;stroke-width:3;stroke-miterlimit:10;stroke-dasharray:3.2965,4.9448,1.3186,5.2744;}
	.st257{fill:none;stroke:#000000;stroke-width:3;stroke-miterlimit:10;stroke-dasharray:4.6421,6.9631,1.8568,7.4273;}
	.st258{fill:none;stroke:#000000;stroke-width:3;stroke-miterlimit:10;stroke-dasharray:4.8098,7.2147,1.9239,7.6957;}
	.st259{fill:none;stroke:#000000;stroke-width:3;stroke-miterlimit:10;stroke-dasharray:2.523,3.7844,1.0092,4.0367;}
	.st260{fill:none;stroke:#000000;stroke-width:3;stroke-miterlimit:10;stroke-dasharray:2.5695,3.8543,1.0278,4.1112;}
	.st261{fill:none;stroke:#000000;stroke-width:3;stroke-miterlimit:10;stroke-dasharray:3.5621,5.3432,1.4248,5.6994;}
	.st262{fill:none;stroke:#000000;stroke-width:3;stroke-miterlimit:10;stroke-dasharray:3.8241,5.7362,1.5296,6.1186;}
	.st263{fill:none;stroke:#000000;stroke-width:3;stroke-miterlimit:10;stroke-dasharray:4.0542,6.0813,1.6217,6.4867;}
	.st264{fill:none;stroke:#000000;stroke-width:3;stroke-miterlimit:10;stroke-dasharray:3.9316,5.8974,1.5727,6.2906;}
	.st265{fill:none;stroke:#000000;stroke-width:3;stroke-miterlimit:10;stroke-dasharray:1.8667,2.8001,0.7467,2.9868;}
	.st266{fill:none;stroke:#000000;stroke-width:3;stroke-miterlimit:10;stroke-dasharray:2.0402,3.0603,0.8161,3.2643;}
	.st267{fill:none;stroke:#000000;stroke-width:3;stroke-miterlimit:10;stroke-dasharray:3.4674,5.2011,1.387,5.5478;}
	.st268{fill:none;stroke:#000000;stroke-width:3;stroke-miterlimit:10;stroke-dasharray:3.0853,4.6279,1.2341,4.9365;}
	.st269{fill:none;stroke:#000000;stroke-width:3;stroke-miterlimit:10;stroke-dasharray:2.9359,4.4039,1.1744,4.6975;}
	.st270{fill:none;stroke:#000000;stroke-width:3;stroke-miterlimit:10;stroke-dasharray:2.5939,3.8909,1.0376,4.1503;}
	.st271{fill:none;stroke:#000000;stroke-width:3;stroke-miterlimit:10;stroke-dasharray:6.5857,2.744,5.4881,8.2321,2.1952,8.7809;}
	.st272{fill:none;stroke:#000000;stroke-width:3;stroke-miterlimit:10;stroke-dasharray:3.7201,5.5801,1.488,5.9521;}
	.st273{fill:none;stroke:#000000;stroke-width:3;stroke-miterlimit:10;stroke-dasharray:3.6372,5.4559,1.4549,5.8196;}
	.st274{fill:none;stroke:#000000;stroke-width:3;stroke-miterlimit:10;stroke-dasharray:5.5648,8.3472,2.2259,8.9037;}
	.st275{fill:none;stroke:#000000;stroke-width:3;stroke-miterlimit:10;stroke-dasharray:2.5397,3.8096,1.0159,4.0635;}
	.st276{fill:none;stroke:#000000;stroke-width:3;stroke-miterlimit:10;stroke-dasharray:2.4196,3.6293,0.9678,3.8713;}
	.st277{fill:none;stroke:#000000;stroke-width:3;stroke-miterlimit:10;stroke-dasharray:3.0917,4.6376,1.2367,4.9468;}
	.st278{fill:none;stroke:#000000;stroke-width:3;stroke-miterlimit:10;stroke-dasharray:3.1226,4.684,1.2491,4.9962;}
</style>
<g>
	<g>
		<g>
			<g>
				<path d="M80.4,39.2c0.1,0,0.2,0,0.2-0.1l1.4-2.7c0-0.1,0-0.2-0.1-0.2c-0.1,0-0.2,0-0.2,0.1L80.3,39
					C80.3,39.1,80.3,39.2,80.4,39.2z"/>
			</g>
		</g>
		<g>
			<g>
				<path d="M82,36.1c0.1,0,0.2,0,0.2-0.1l1.5-2.8c0-0.1,0-0.2-0.1-0.2s-0.2,0-0.2,0.1L82,35.9C81.9,35.9,82,36,82,36.1z"/>
			</g>
		</g>
		<g>
			<g>
				<path d="M84,32c0.1,0,0.2,0,0.2-0.1l0.5-3.1c0-0.1,0-0.2-0.1-0.2s-0.2,0-0.2,0.1l-0.5,3.1C83.9,31.9,83.9,32,84,32z"/>
			</g>
		</g>
		<g>
			<g>
				<path d="M84.7,28c0.1,0,0.1,0,0.2-0.1l0.5-3c0-0.1,0-0.1-0.1-0.2c-0.1,0-0.1,0-0.2,0.1l-0.5,3C84.6,27.9,84.6,28,84.7,28z"/>
			</g>
		</g>
		<g>
			<g>
				<path d="M86.2,23.6c0.1,0,0.1-0.1,0.1-0.2l-0.7-3.2c0-0.1-0.1-0.1-0.2-0.1c-0.1,0-0.1,0.1-0.1,0.2l0.7,3.2
					C86,23.5,86.1,23.6,86.2,23.6z"/>
			</g>
		</g>
		<g>
			<g>
				<path d="M85.3,19.4c0-0.1,0-0.1-0.1-0.2l-2.8-0.6c-0.1,0-0.1,0-0.2,0.1s0,0.1,0.1,0.2l2.8,0.6C85.2,19.5,85.3,19.5,85.3,19.4z"
					/>
			</g>
		</g>
		<g>
			<g>
				<path d="M82.1,18.7c0-0.1,0-0.1-0.1-0.2L79.2,18c-0.1,0-0.1,0-0.2,0.1s0,0.1,0.1,0.2l2.8,0.6C82.1,18.8,82.1,18.8,82.1,18.7z"/>
			</g>
		</g>
		<g>
			<g>
				<path d="M77.2,17.7c0-0.1,0-0.1-0.1-0.2l-2.7-1.2c-0.1,0-0.1,0-0.2,0.1s0,0.1,0.1,0.2l2.7,1.2C77.1,17.8,77.1,17.8,77.2,17.7z"
					/>
			</g>
		</g>
		<g>
			<g>
				<path d="M74.3,16.4c0-0.1,0-0.2-0.1-0.2L71.4,15c-0.1,0-0.2,0-0.2,0.1s0,0.2,0.1,0.2l2.9,1.3C74.2,16.6,74.3,16.5,74.3,16.4z"/>
			</g>
		</g>
		<g>
			<g>
				<path d="M70.8,14.9c0-0.1,0-0.2-0.1-0.2L68,13.5c-0.1,0-0.2,0-0.2,0.1c0,0.1,0,0.2,0.1,0.2l2.8,1.2C70.7,15,70.8,15,70.8,14.9z"
					/>
			</g>
		</g>
		<g>
			<g>
				<path d="M67.4,13.4c0-0.1,0-0.2-0.1-0.2l-2.9-1.3c-0.1,0-0.2,0-0.2,0.1s0,0.2,0.1,0.2l2.9,1.3C67.3,13.5,67.4,13.5,67.4,13.4z"
					/>
			</g>
		</g>
		<g>
			<g>
				<path d="M61.1,11.6c0.1,0,0.1,0,0.1-0.1l0.3-2.9c0-0.1,0-0.1-0.1-0.1s-0.1,0-0.1,0.1L61,11.5C60.9,11.5,61,11.6,61.1,11.6z"/>
			</g>
		</g>
		<g>
			<g>
				<path d="M61.8,8.3c0.1,0,0.1-0.1,0.1-0.2l-0.7-2.9c0-0.1-0.1-0.1-0.2-0.1c-0.1,0-0.1,0.1-0.1,0.2l0.7,2.9
					C61.6,8.3,61.7,8.3,61.8,8.3z"/>
			</g>
		</g>
		<g>
			<g>
				<path d="M62.1,5.2C62,5.2,62,5.3,62,5.4l0,3.3c0,0.1,0.1,0.1,0.2,0.1c0.1,0,0.1-0.1,0.1-0.2l0-3.3C62.3,5.3,62.2,5.2,62.1,5.2z"
					/>
			</g>
		</g>
		<g>
			<g>
				<path d="M60.7,8.7c-0.1,0-0.2,0-0.2,0.1l-1.6,2.9c0,0.1,0,0.2,0.1,0.2c0.1,0,0.2,0,0.2-0.1l1.6-2.9C60.8,8.8,60.8,8.7,60.7,8.7z
					"/>
			</g>
		</g>
		<g>
			<g>
				<path d="M57.7,13c0-0.1-0.1-0.1-0.2-0.1L54.7,14c-0.1,0-0.1,0.1-0.1,0.2c0,0.1,0.1,0.1,0.2,0.1l2.8-1.1
					C57.7,13.1,57.7,13,57.7,13z"/>
			</g>
		</g>
		<g>
			<g>
				<path d="M53.6,13c-0.1,0-0.1,0.1,0,0.2l1.5,2.6c0,0.1,0.1,0.1,0.2,0c0.1,0,0.1-0.1,0-0.2L53.8,13C53.8,13,53.7,12.9,53.6,13z"/>
			</g>
		</g>
		<g>
			<g>
				<path d="M54.7,13.4c0,0.1,0.1,0.1,0.2,0.1l3-1.2c0.1,0,0.1-0.1,0.1-0.2s-0.1-0.1-0.2-0.1l-3,1.2C54.7,13.2,54.7,13.3,54.7,13.4z
					"/>
			</g>
		</g>
		<g>
			<g>
				<path d="M57.7,14.5c0,0.1,0.1,0.1,0.2,0l2.4-1.9c0.1,0,0.1-0.1,0-0.2c0-0.1-0.1-0.1-0.2,0l-2.4,1.9
					C57.6,14.4,57.6,14.4,57.7,14.5z"/>
			</g>
		</g>
		<g>
			<g>
				<path d="M59.7,11.1c0,0.1,0.1,0.1,0.2,0.1l3.1-0.5c0.1,0,0.1-0.1,0.1-0.2c0-0.1-0.1-0.1-0.2-0.1L59.8,11
					C59.7,11,59.7,11,59.7,11.1z"/>
			</g>
		</g>
		<g>
			<g>
				<path d="M64.6,11.7c0,0.1,0,0.1,0,0.2l2.5,1.7c0.1,0,0.1,0,0.2,0c0-0.1,0-0.1,0-0.2l-2.5-1.7C64.7,11.6,64.6,11.6,64.6,11.7z"/>
			</g>
		</g>
		<g>
			<g>
				<path d="M68.2,15.6c-0.1,0-0.2,0-0.2,0l-1.6,2.6c0,0.1,0,0.2,0,0.2s0.2,0,0.2,0l1.6-2.6C68.3,15.7,68.3,15.6,68.2,15.6z"/>
			</g>
		</g>
		<g>
			<g>
				<path d="M64,18.1c0.1,0,0.1-0.1,0.1-0.2L62.4,15c0-0.1-0.1-0.1-0.2-0.1c-0.1,0-0.1,0.1-0.1,0.2l1.6,2.8
					C63.8,18.1,63.9,18.1,64,18.1z"/>
			</g>
		</g>
		<g>
			<g>
				<path d="M63,17.6c-0.1,0-0.1,0.1-0.1,0.2l0.2,3.1c0,0.1,0.1,0.1,0.2,0.1c0.1,0,0.1-0.1,0.1-0.2l-0.2-3.1
					C63.2,17.7,63.1,17.6,63,17.6z"/>
			</g>
		</g>
		<g>
			<g>
				<path d="M62.8,23.7c0-0.1,0-0.2-0.1-0.2L59.9,22c-0.1,0-0.2,0-0.2,0.1c0,0.1,0,0.2,0.1,0.2l2.8,1.6
					C62.7,23.8,62.8,23.8,62.8,23.7z"/>
			</g>
		</g>
		<g>
			<g>
				<path d="M61.9,18.6c-0.1,0-0.1,0.1-0.1,0.2l0.4,2.9c0,0.1,0.1,0.1,0.2,0.1c0.1,0,0.1-0.1,0.1-0.2L62,18.8
					C62,18.7,61.9,18.6,61.9,18.6z"/>
			</g>
		</g>
		<g>
			<g>
				<path d="M61.3,23.6c0.1,0,0.1-0.1,0.1-0.1l0.2-2.9c0-0.1-0.1-0.1-0.1-0.1c-0.1,0-0.1,0.1-0.1,0.1l-0.2,2.9
					C61.2,23.5,61.2,23.6,61.3,23.6z"/>
			</g>
		</g>
		<g>
			<g>
				<path d="M61.3,19.4c0.1,0,0.1-0.1,0.1-0.2l-0.8-3.1c0-0.1-0.1-0.1-0.2-0.1s-0.1,0.1-0.1,0.2l0.8,3.1
					C61.1,19.3,61.2,19.4,61.3,19.4z"/>
			</g>
		</g>
		<g>
			<g>
				<path d="M60.7,18.9c-0.1,0-0.1,0.1-0.1,0.2l0.9,2.9c0,0.1,0.1,0.1,0.2,0.1c0.1,0,0.1-0.1,0.1-0.2L60.9,19
					C60.9,19,60.8,18.9,60.7,18.9z"/>
			</g>
		</g>
		<g>
			<g>
				<path d="M60.9,24c0.1-0.1,0.1-0.1,0-0.2l-2.1-2.1c-0.1-0.1-0.1-0.1-0.2,0c-0.1,0.1-0.1,0.1,0,0.2l2.1,2.1
					C60.7,24.1,60.8,24.1,60.9,24z"/>
			</g>
		</g>
		<g>
			<g>
				<path d="M58.6,20.5c0.1-0.1,0.1-0.1,0-0.2l-2.2-2.4c-0.1-0.1-0.1-0.1-0.2,0c-0.1,0.1-0.1,0.1,0,0.2l2.2,2.4
					C58.4,20.6,58.5,20.6,58.6,20.5z"/>
			</g>
		</g>
		<g>
			<g>
				<path d="M56.6,19.3c0.1,0,0.1-0.1,0.1-0.2l-1.5-2.7c0-0.1-0.1-0.1-0.2-0.1c-0.1,0-0.1,0.1-0.1,0.2l1.5,2.7
					C56.5,19.3,56.6,19.3,56.6,19.3z"/>
			</g>
		</g>
		<g>
			<g>
				<path d="M57.2,17.7c-0.1,0-0.1,0.1-0.1,0.2l1.6,2.8c0,0.1,0.1,0.1,0.2,0.1s0.1-0.1,0.1-0.2l-1.6-2.8
					C57.4,17.7,57.3,17.7,57.2,17.7z"/>
			</g>
		</g>
		<g>
			<g>
				<path d="M58.8,20.9c-0.1,0-0.1,0.1,0,0.2l1.9,2.2c0,0.1,0.1,0.1,0.2,0c0.1,0,0.1-0.1,0-0.2L59,20.9C59,20.9,58.9,20.9,58.8,20.9
					z"/>
			</g>
		</g>
		<g>
			<g>
				<path d="M59.1,24.4c0.1,0,0.1-0.1,0-0.2l-1.6-2.6c0-0.1-0.1-0.1-0.2,0c-0.1,0-0.1,0.1,0,0.2l1.6,2.6
					C59,24.4,59.1,24.4,59.1,24.4z"/>
			</g>
		</g>
		<g>
			<g>
				<path d="M55.6,18.4c-0.1,0-0.1,0.1-0.1,0.2l1.4,2.9c0,0.1,0.1,0.1,0.2,0.1c0.1,0,0.1-0.1,0.1-0.2l-1.4-2.9
					C55.8,18.4,55.7,18.4,55.6,18.4z"/>
			</g>
		</g>
		<g>
			<g>
				<path d="M54.1,19.8c-0.1,0.1-0.1,0.1,0,0.2l2.3,2.1c0.1,0.1,0.1,0.1,0.2,0c0.1-0.1,0.1-0.1,0-0.2l-2.3-2.1
					C54.3,19.7,54.2,19.7,54.1,19.8z"/>
			</g>
		</g>
		<g>
			<g>
				<path d="M55.7,21.5c0-0.1-0.1-0.1-0.2-0.1l-2.8,1.3c-0.1,0-0.1,0.1-0.1,0.2c0,0.1,0.1,0.1,0.2,0.1l2.8-1.3
					C55.7,21.6,55.7,21.5,55.7,21.5z"/>
			</g>
		</g>
		<g>
			<g>
				<path d="M52.1,22.3c0-0.1,0-0.2-0.1-0.2l-3-1.2c-0.1,0-0.2,0-0.2,0.1c0,0.1,0,0.2,0.1,0.2l3,1.2C52,22.4,52.1,22.4,52.1,22.3z"
					/>
			</g>
		</g>
		<g>
			<g>
				<path d="M49.7,21.1c-0.1,0-0.2,0-0.2,0.1l-0.8,3c0,0.1,0,0.2,0.1,0.2c0.1,0,0.2,0,0.2-0.1l0.8-3C49.8,21.2,49.8,21.2,49.7,21.1z
					"/>
			</g>
		</g>
		<g>
			<g>
				<path d="M46,21.9c0.1,0,0.1-0.1,0.1-0.2l-0.7-2.8c0-0.1-0.1-0.1-0.2-0.1s-0.1,0.1-0.1,0.2l0.7,2.8C45.8,21.9,45.9,21.9,46,21.9z
					"/>
			</g>
		</g>
		<g>
			<g>
				<path d="M46.3,18.4c0.1,0,0.1-0.1,0.1-0.2l-1.3-2.9c0-0.1-0.1-0.1-0.2-0.1s-0.1,0.1-0.1,0.2l1.3,2.9
					C46.1,18.4,46.2,18.4,46.3,18.4z"/>
			</g>
		</g>
		<g>
			<g>
				<path d="M43.2,14.8c0.1-0.1,0-0.2,0-0.2l-2.4-2.1c-0.1-0.1-0.2,0-0.2,0s0,0.2,0,0.2l2.4,2.1C43,14.9,43.1,14.9,43.2,14.8z"/>
			</g>
		</g>
		<g>
			<g>
				<path d="M40.1,12.9c0-0.1,0-0.1-0.1-0.2l-2.7-1.2c-0.1,0-0.1,0-0.2,0.1s0,0.1,0.1,0.2L40,13C40,13,40.1,13,40.1,12.9z"/>
			</g>
		</g>
		<g>
			<g>
				<path d="M38.9,11.6c-0.1,0-0.1,0.1-0.1,0.2l1.3,2.9c0,0.1,0.1,0.1,0.2,0.1c0.1,0,0.1-0.1,0.1-0.2L39,11.7
					C39,11.6,38.9,11.6,38.9,11.6z"/>
			</g>
		</g>
		<g>
			<g>
				<path d="M39.6,15.1c0,0.1,0,0.2,0,0.2l2.6,1.7c0.1,0,0.2,0,0.2,0c0-0.1,0-0.2,0-0.2l-2.6-1.7C39.7,15.1,39.6,15.1,39.6,15.1z"/>
			</g>
		</g>
		<g>
			<g>
				<path d="M43.6,18.8c-0.1,0-0.1,0.1-0.1,0.2l1.2,2.7c0,0.1,0.1,0.1,0.2,0.1s0.1-0.1,0.1-0.2l-1.2-2.7
					C43.7,18.8,43.7,18.8,43.6,18.8z"/>
			</g>
		</g>
		<g>
			<g>
				<path d="M44.4,23.6c0.1,0,0.1-0.1,0.1-0.2l-1.2-2.8c0-0.1-0.1-0.1-0.2-0.1c-0.1,0-0.1,0.1-0.1,0.2l1.2,2.8
					C44.2,23.6,44.3,23.7,44.4,23.6z"/>
			</g>
		</g>
		<g>
			<g>
				<path d="M42.9,21.9c0.1,0,0.1-0.1,0.1-0.1l0-2.9c0-0.1-0.1-0.1-0.1-0.1c-0.1,0-0.1,0.1-0.1,0.1l0,2.9
					C42.7,21.8,42.8,21.9,42.9,21.9z"/>
			</g>
		</g>
		<g>
			<g>
				<path d="M42.5,22.7c0.1,0,0.1-0.1,0.1-0.2l-0.1-3.3c0-0.1-0.1-0.1-0.2-0.1c-0.1,0-0.1,0.1-0.1,0.2l0.1,3.3
					C42.4,22.6,42.5,22.7,42.5,22.7z"/>
			</g>
		</g>
		<g>
			<g>
				<path d="M41.7,20.2c0.1,0,0.1-0.1,0.1-0.2l-1.5-2.7c0-0.1-0.1-0.1-0.2-0.1s-0.1,0.1-0.1,0.2l1.5,2.7
					C41.5,20.3,41.6,20.3,41.7,20.2z"/>
			</g>
		</g>
		<g>
			<g>
				<path d="M40.6,20.4c0-0.1,0-0.1-0.1-0.2l-3.1-0.3c-0.1,0-0.1,0-0.2,0.1c0,0.1,0,0.1,0.1,0.2l3.1,0.3
					C40.5,20.6,40.6,20.5,40.6,20.4z"/>
			</g>
		</g>
		<g>
			<g>
				<path d="M35.5,20c-0.1,0-0.1,0-0.2,0l-2,2.2c0,0.1,0,0.1,0,0.2c0.1,0,0.1,0,0.2,0l2-2.2C35.6,20.2,35.6,20.1,35.5,20z"/>
			</g>
		</g>
		<g>
			<g>
				<path d="M35,23.5c-0.1,0-0.1,0.1-0.1,0.2l1.5,2.6c0,0.1,0.1,0.1,0.2,0.1c0.1,0,0.1-0.1,0.1-0.2l-1.5-2.6
					C35.2,23.5,35.1,23.5,35,23.5z"/>
			</g>
		</g>
		<g>
			<g>
				<path d="M35.3,29.1c0,0.1,0.1,0.1,0.2,0.1l3.1-0.3c0.1,0,0.1-0.1,0.1-0.2c0-0.1-0.1-0.1-0.2-0.1l-3.1,0.3
					C35.4,28.9,35.3,29,35.3,29.1z"/>
			</g>
		</g>
		<g>
			<g>
				<path d="M37,26.5c0.1,0,0.1,0,0.2-0.1l0.3-3c0-0.1,0-0.1-0.1-0.2c-0.1,0-0.1,0-0.2,0.1l-0.3,3C36.8,26.5,36.9,26.5,37,26.5z"/>
			</g>
		</g>
		<g>
			<g>
				<path d="M40.6,22c-0.1,0-0.1,0.1-0.1,0.2l1,2.8c0,0.1,0.1,0.1,0.2,0.1c0.1,0,0.1-0.1,0.1-0.2l-1-2.8C40.7,22.1,40.6,22,40.6,22z
					"/>
			</g>
		</g>
		<g>
			<g>
				<path d="M41.5,24.8c-0.1,0.1-0.1,0.2,0,0.2l2.3,2.3c0.1,0.1,0.2,0.1,0.2,0c0.1-0.1,0.1-0.2,0-0.2l-2.3-2.3
					C41.6,24.8,41.5,24.8,41.5,24.8z"/>
			</g>
		</g>
		<g>
			<g>
				<path d="M44.3,26.9c0,0.1,0,0.1,0,0.2l2.4,1.8c0.1,0,0.1,0,0.2,0c0-0.1,0-0.1,0-0.2l-2.4-1.8C44.5,26.8,44.4,26.8,44.3,26.9z"/>
			</g>
		</g>
		<g>
			<g>
				<path d="M44.3,32.7c0.1,0,0.1-0.1,0.1-0.1l-0.3-2.9c0-0.1-0.1-0.1-0.1-0.1c-0.1,0-0.1,0.1-0.1,0.1l0.3,2.9
					C44.2,32.7,44.3,32.8,44.3,32.7z"/>
			</g>
		</g>
		<g>
			<g>
				<path d="M45,30c-0.1,0-0.1,0-0.2,0.1l-0.9,2.7c0,0.1,0,0.1,0.1,0.2c0.1,0,0.1,0,0.2-0.1l0.9-2.7C45.1,30.1,45.1,30.1,45,30z"/>
			</g>
		</g>
		<g>
			<g>
				<path d="M44.5,30.1c-0.1,0-0.1,0-0.2,0.1l-0.6,3c0,0.1,0,0.1,0.1,0.2s0.1,0,0.2-0.1l0.6-3C44.6,30.2,44.6,30.1,44.5,30.1z"/>
			</g>
		</g>
		<g>
			<g>
				<path d="M43.7,34c-0.1,0-0.2,0-0.2,0.1l-0.6,3.1c0,0.1,0,0.2,0.1,0.2s0.2,0,0.2-0.1l0.6-3.1C43.9,34.1,43.8,34,43.7,34z"/>
			</g>
		</g>
		<g>
			<g>
				<path d="M41.9,36.7c0.1,0,0.1-0.1,0.1-0.1l0-3.3c0-0.1-0.1-0.1-0.1-0.1c-0.1,0-0.1,0.1-0.1,0.1l0,3.3
					C41.8,36.6,41.8,36.7,41.9,36.7z"/>
			</g>
		</g>
		<g>
			<g>
				<path d="M42,32.4c0.1,0,0.1-0.1,0.1-0.1l0.1-2.9c0-0.1-0.1-0.1-0.1-0.1c-0.1,0-0.1,0.1-0.1,0.1l-0.1,2.9
					C41.9,32.3,41.9,32.4,42,32.4z"/>
			</g>
		</g>
		<g>
			<g>
				<path d="M43.1,30.8c-0.1,0-0.2,0-0.2,0.1l-0.4,3.2c0,0.1,0,0.2,0.1,0.2s0.2,0,0.2-0.1l0.4-3.2C43.2,30.9,43.2,30.8,43.1,30.8z"
					/>
			</g>
		</g>
		<g>
			<g>
				<path d="M41.2,36.7c0.1,0,0.1-0.1,0.1-0.2l-0.1-3.3c0-0.1-0.1-0.1-0.2-0.1c-0.1,0-0.1,0.1-0.1,0.2l0.1,3.3
					C41.1,36.7,41.1,36.7,41.2,36.7z"/>
			</g>
		</g>
		<g>
			<g>
				<path d="M41.1,31.6c0.1,0,0.1-0.1,0.1-0.1l0-3.1c0-0.1-0.1-0.1-0.1-0.1c-0.1,0-0.1,0.1-0.1,0.1l0,3.1
					C41,31.5,41.1,31.6,41.1,31.6z"/>
			</g>
		</g>
		<g>
			<g>
				<path d="M42.1,28.4c-0.1,0-0.1,0-0.2,0.1l-1.1,2.7c0,0.1,0,0.1,0.1,0.2c0.1,0,0.1,0,0.2-0.1l1.1-2.7
					C42.2,28.5,42.2,28.4,42.1,28.4z"/>
			</g>
		</g>
		<g>
			<g>
				<path d="M39.9,32.6c0.1,0,0.1-0.1,0.1-0.2l-0.6-3.1c0-0.1-0.1-0.1-0.2-0.1s-0.1,0.1-0.1,0.2l0.6,3.1
					C39.7,32.6,39.8,32.6,39.9,32.6z"/>
			</g>
		</g>
		<g>
			<g>
				<path d="M40.2,30.5c-0.1,0-0.2,0-0.2,0.1l-1.3,2.8c0,0.1,0,0.2,0.1,0.2s0.2,0,0.2-0.1l1.3-2.8C40.3,30.7,40.3,30.6,40.2,30.5z"
					/>
			</g>
		</g>
		<g>
			<g>
				<path d="M38.7,33.2c-0.1,0-0.1,0.1-0.1,0.2l0.8,2.9c0,0.1,0.1,0.1,0.2,0.1c0.1,0,0.1-0.1,0.1-0.2l-0.8-2.9
					C38.8,33.2,38.7,33.1,38.7,33.2z"/>
			</g>
		</g>
		<g>
			<g>
				<path d="M39.6,37.3c0,0.1,0,0.2,0,0.2l2.6,1.9c0.1,0,0.2,0,0.2,0c0-0.1,0-0.2,0-0.2l-2.6-1.9C39.8,37.2,39.7,37.2,39.6,37.3z"/>
			</g>
		</g>
		<g>
			<g>
				<path d="M43.8,39c0,0.1,0,0.2,0.1,0.2l2.8,1.2c0.1,0,0.2,0,0.2-0.1s0-0.2-0.1-0.2L44,39C43.9,38.9,43.8,39,43.8,39z"/>
			</g>
		</g>
		<g>
			<g>
				<path d="M48.6,40.8c0,0.1,0,0.2,0,0.2l2.7,1.8c0.1,0,0.2,0,0.2,0c0-0.1,0-0.2,0-0.2l-2.7-1.8C48.7,40.7,48.6,40.8,48.6,40.8z"/>
			</g>
		</g>
		<g>
			<g>
				<path d="M51.8,44.7c0-0.1,0-0.1-0.1-0.2l-2.8-0.9c-0.1,0-0.1,0-0.2,0.1c0,0.1,0,0.1,0.1,0.2l2.8,0.9
					C51.7,44.8,51.8,44.8,51.8,44.7z"/>
			</g>
		</g>
		<g>
			<g>
				<path d="M48.9,43.8c0-0.1,0-0.2-0.1-0.2l-2.9-0.9c-0.1,0-0.2,0-0.2,0.1c0,0.1,0,0.2,0.1,0.2l2.9,0.9
					C48.8,43.9,48.9,43.9,48.9,43.8z"/>
			</g>
		</g>
		<g>
			<g>
				<path d="M43.7,42.4c0-0.1,0-0.1-0.1-0.1l-2.9-0.4c-0.1,0-0.1,0-0.1,0.1c0,0.1,0,0.1,0.1,0.1l2.9,0.4
					C43.7,42.5,43.7,42.5,43.7,42.4z"/>
			</g>
		</g>
		<g>
			<g>
				<path d="M40.3,41.9c0-0.1,0-0.2-0.1-0.2l-3.3-0.4c-0.1,0-0.2,0-0.2,0.1c0,0.1,0,0.2,0.1,0.2l3.3,0.4
					C40.2,42.1,40.3,42,40.3,41.9z"/>
			</g>
		</g>
		<g>
			<g>
				<path d="M37,42.1c0-0.1-0.1-0.1-0.2,0l-2.5,1.4c-0.1,0-0.1,0.1,0,0.2c0,0.1,0.1,0.1,0.2,0l2.5-1.4C37,42.3,37,42.2,37,42.1z"/>
			</g>
		</g>
		<g>
			<g>
				<path d="M34.2,43.7c0-0.1-0.1-0.1-0.2-0.1l-2.6,1.5c-0.1,0-0.1,0.1-0.1,0.2c0,0.1,0.1,0.1,0.2,0.1l2.6-1.5
					C34.2,43.9,34.2,43.8,34.2,43.7z"/>
			</g>
		</g>
		<g>
			<g>
				<path d="M30,46.1c0-0.1-0.1-0.1-0.2-0.1l-3,1.2c-0.1,0-0.1,0.1-0.1,0.2c0,0.1,0.1,0.1,0.2,0.1l3-1.2C30,46.2,30.1,46.1,30,46.1z
					"/>
			</g>
		</g>
		<g>
			<g>
				<path d="M32.2,44.6c0.1-0.1,0.1-0.1,0-0.2l-2.2-2.4c-0.1-0.1-0.1-0.1-0.2,0c-0.1,0.1-0.1,0.1,0,0.2l2.2,2.4
					C32,44.6,32.1,44.6,32.2,44.6z"/>
			</g>
		</g>
		<g>
			<g>
				<path d="M28.8,44.6c0.1,0,0.1-0.1,0-0.2l-2-2.3c0-0.1-0.1-0.1-0.2,0c-0.1,0-0.1,0.1,0,0.2l2,2.3C28.6,44.7,28.7,44.7,28.8,44.6z
					"/>
			</g>
		</g>
		<g>
			<g>
				<path d="M27,41.6c0.1,0,0.1-0.1,0.1-0.2l-0.1-3.3c0-0.1-0.1-0.1-0.2-0.1c-0.1,0-0.1,0.1-0.1,0.2l0.1,3.3
					C26.9,41.6,27,41.6,27,41.6z"/>
			</g>
		</g>
		<g>
			<g>
				<path d="M28.9,38.6c0-0.1,0-0.2-0.1-0.2l-3-1.1c-0.1,0-0.2,0-0.2,0.1c0,0.1,0,0.2,0.1,0.2l3,1.1C28.8,38.7,28.9,38.6,28.9,38.6z
					"/>
			</g>
		</g>
		<g>
			<g>
				<path d="M27.3,38.5c-0.1,0-0.1,0.1-0.1,0.1l0,2.9c0,0.1,0.1,0.1,0.1,0.1c0.1,0,0.1-0.1,0.1-0.1l0-2.9
					C27.4,38.6,27.4,38.5,27.3,38.5z"/>
			</g>
		</g>
		<g>
			<g>
				<path d="M27.4,43.5c-0.1,0-0.1,0.1-0.1,0.1l0.2,2.9c0,0.1,0.1,0.1,0.1,0.1c0.1,0,0.1-0.1,0.1-0.1l-0.2-2.9
					C27.5,43.5,27.4,43.5,27.4,43.5z"/>
			</g>
		</g>
		<g>
			<g>
				<path d="M28,47.8c-0.1,0-0.1,0.1-0.1,0.2l0.9,3c0,0.1,0.1,0.1,0.2,0.1c0.1,0,0.1-0.1,0.1-0.2l-0.9-3
					C28.2,47.8,28.1,47.7,28,47.8z"/>
			</g>
		</g>
		<g>
			<g>
				<path d="M31.6,51.5c-0.1,0-0.1,0.1-0.1,0.1l0.3,2.9c0,0.1,0.1,0.1,0.1,0.1c0.1,0,0.1-0.1,0.1-0.1l-0.3-2.9
					C31.7,51.6,31.7,51.5,31.6,51.5z"/>
			</g>
		</g>
		<g>
			<g>
				<path d="M30.1,56.5c0,0.1,0.1,0.1,0.1,0.1l3.1,0.2c0.1,0,0.1-0.1,0.1-0.1c0-0.1-0.1-0.1-0.1-0.1l-3.1-0.2
					C30.2,56.3,30.1,56.4,30.1,56.5z"/>
			</g>
		</g>
		<g>
			<g>
				<path d="M32.4,59.3c0-0.1-0.1-0.1-0.2-0.1l-2.9,1.3c-0.1,0-0.1,0.1-0.1,0.2c0,0.1,0.1,0.1,0.2,0.1l2.9-1.3
					C32.4,59.4,32.5,59.3,32.4,59.3z"/>
			</g>
		</g>
		<g>
			<g>
				<path d="M28.5,61c0-0.1-0.1-0.1-0.2-0.1l-2.9,1.3c-0.1,0-0.1,0.1-0.1,0.2c0,0.1,0.1,0.1,0.2,0.1l2.9-1.3
					C28.5,61.1,28.6,61.1,28.5,61z"/>
			</g>
		</g>
		<g>
			<g>
				<path d="M25.6,62.3c0-0.1-0.1-0.1-0.2-0.1l-2.8,1.2c-0.1,0-0.1,0.1-0.1,0.2c0,0.1,0.1,0.1,0.2,0.1l2.8-1.2
					C25.6,62.4,25.6,62.3,25.6,62.3z"/>
			</g>
		</g>
		<g>
			<g>
				<path d="M19.8,63.5c0,0.1,0.1,0.1,0.2,0.1l2.9-1.1c0.1,0,0.1-0.1,0.1-0.2c0-0.1-0.1-0.1-0.2-0.1l-2.9,1.1
					C19.8,63.3,19.7,63.4,19.8,63.5z"/>
			</g>
		</g>
		<g>
			<g>
				<path d="M23.8,63c-0.1,0-0.1,0-0.2,0l-1.5,2.5c0,0.1,0,0.1,0,0.2c0.1,0,0.1,0,0.2,0l1.5-2.5C23.9,63.2,23.8,63.1,23.8,63z"/>
			</g>
		</g>
		<g>
			<g>
				<path d="M21.8,66.4c-0.1,0-0.2,0-0.2,0L20,69.1c0,0.1,0,0.2,0,0.2c0.1,0,0.2,0,0.2,0l1.6-2.7C21.9,66.5,21.9,66.4,21.8,66.4z"/>
			</g>
		</g>
		<g>
			<g>
				<path d="M18.1,69c-0.1,0-0.1,0-0.2,0.1l-1,2.7c0,0.1,0,0.1,0.1,0.2c0.1,0,0.1,0,0.2-0.1l1-2.7C18.2,69.1,18.2,69,18.1,69z"/>
			</g>
		</g>
		<g>
			<g>
				<path d="M16.8,72.6c-0.1,0-0.1,0-0.2,0.1l-1,2.8c0,0.1,0,0.1,0.1,0.2c0.1,0,0.1,0,0.2-0.1l1-2.8C16.9,72.7,16.9,72.7,16.8,72.6z
					"/>
			</g>
		</g>
		<g>
			<g>
				<path d="M14.9,76.9c-0.1,0-0.1,0.1-0.1,0.1l-0.2,2.9c0,0.1,0.1,0.1,0.1,0.1c0.1,0,0.1-0.1,0.1-0.1l0.2-2.9
					C15.1,77,15,76.9,14.9,76.9z"/>
			</g>
		</g>
		<g>
			<g>
				<path d="M15.5,81.1c-0.1,0-0.1,0.1-0.1,0.2l0.9,2.8c0,0.1,0.1,0.1,0.2,0.1s0.1-0.1,0.1-0.2l-0.9-2.8
					C15.6,81.1,15.6,81.1,15.5,81.1z"/>
			</g>
		</g>
		<g>
			<g>
				<path d="M16.3,83.6c0,0.1,0,0.1,0.1,0.1l2.9,0.2c0.1,0,0.1,0,0.1-0.1c0-0.1,0-0.1-0.1-0.1l-2.9-0.2
					C16.4,83.5,16.3,83.6,16.3,83.6z"/>
			</g>
		</g>
		<g>
			<g>
				<path d="M20.4,84.9c0.1,0,0.2,0,0.2-0.1l1.1-3.1c0-0.1,0-0.2-0.1-0.2c-0.1,0-0.2,0-0.2,0.1l-1.1,3.1
					C20.2,84.8,20.3,84.9,20.4,84.9z"/>
			</g>
		</g>
		<g>
			<g>
				<path d="M23.5,83c0,0.1,0.1,0.1,0.2,0.1l2.8-1.5c0.1,0,0.1-0.1,0.1-0.2c0-0.1-0.1-0.1-0.2-0.1l-2.8,1.5
					C23.4,82.8,23.4,82.9,23.5,83z"/>
			</g>
		</g>
		<g>
			<g>
				<path d="M27.5,82.1c0.1,0,0.2,0,0.2,0l1.8-2.5c0-0.1,0-0.2,0-0.2c-0.1,0-0.2,0-0.2,0l-1.8,2.5C27.5,81.9,27.5,82,27.5,82.1z"/>
			</g>
		</g>
		<g>
			<g>
				<path d="M30.7,80c0,0.1,0.1,0.1,0.2,0l2.5-1.5c0.1,0,0.1-0.1,0-0.2c0-0.1-0.1-0.1-0.2,0l-2.5,1.5C30.7,79.9,30.7,80,30.7,80z"/>
			</g>
		</g>
		<g>
			<g>
				<path d="M32.5,77.5c0.1,0.1,0.1,0.1,0.2,0l2.1-2.1c0.1-0.1,0.1-0.1,0-0.2c-0.1-0.1-0.1-0.1-0.2,0l-2.1,2.1
					C32.5,77.4,32.5,77.5,32.5,77.5z"/>
			</g>
		</g>
		<g>
			<g>
				<path d="M34.7,77.3c0.1,0,0.1,0,0.2-0.1l0.5-2.9c0-0.1,0-0.1-0.1-0.2c-0.1,0-0.1,0-0.2,0.1l-0.5,2.9
					C34.5,77.2,34.6,77.3,34.7,77.3z"/>
			</g>
		</g>
		<g>
			<g>
				<path d="M37.1,77.6c0.1,0,0.1-0.1,0.1-0.2l-1-3.1c0-0.1-0.1-0.1-0.2-0.1c-0.1,0-0.1,0.1-0.1,0.2l1,3.1
					C36.9,77.6,37,77.6,37.1,77.6z"/>
			</g>
		</g>
		<g>
			<g>
				<path d="M35.7,73.7c0.1,0,0.1-0.1,0.1-0.2l-0.9-2.7c0-0.1-0.1-0.1-0.2-0.1s-0.1,0.1-0.1,0.2l0.9,2.7
					C35.6,73.6,35.7,73.7,35.7,73.7z"/>
			</g>
		</g>
		<g>
			<g>
				<path d="M38.1,73.3c0,0.1,0.1,0.1,0.1,0.1l3.2,0c0.1,0,0.1-0.1,0.1-0.1c0-0.1-0.1-0.1-0.1-0.1l-3.2,0
					C38.2,73.1,38.1,73.2,38.1,73.3z"/>
			</g>
		</g>
		<g>
			<g>
				<path d="M41.2,73.7c0.1,0,0.2,0,0.2-0.1l1.5-2.8c0-0.1,0-0.2-0.1-0.2s-0.2,0-0.2,0.1l-1.5,2.8C41.1,73.5,41.1,73.6,41.2,73.7z"
					/>
			</g>
		</g>
		<g>
			<g>
				<path d="M43.7,69.3c0.1,0,0.1,0,0.2-0.1l0.9-2.7c0-0.1,0-0.1-0.1-0.2s-0.1,0-0.2,0.1l-0.9,2.7C43.6,69.2,43.6,69.3,43.7,69.3z"
					/>
			</g>
		</g>
		<g>
			<g>
				<path d="M45.7,65.6c0.1,0,0.1,0,0.2,0l1.6-2.4c0-0.1,0-0.1,0-0.2c-0.1,0-0.1,0-0.2,0l-1.6,2.4C45.6,65.5,45.6,65.6,45.7,65.6z"
					/>
			</g>
		</g>
		<g>
			<g>
				<path d="M47.6,61.3c0,0.1,0.1,0.1,0.2,0.1l3.2-0.1c0.1,0,0.1-0.1,0.1-0.2c0-0.1-0.1-0.1-0.2-0.1l-3.2,0.1
					C47.6,61.2,47.6,61.3,47.6,61.3z"/>
			</g>
		</g>
		<g>
			<g>
				<path d="M51.4,57.9c-0.1,0-0.1,0.1-0.1,0.2l0.3,3.2c0,0.1,0.1,0.1,0.2,0.1c0.1,0,0.1-0.1,0.1-0.2L51.5,58
					C51.5,57.9,51.5,57.9,51.4,57.9z"/>
			</g>
		</g>
		<g>
			<g>
				<path d="M52.1,57.7c0,0.1,0.1,0.1,0.2,0.1l2.9-0.6c0.1,0,0.1-0.1,0.1-0.2c0-0.1-0.1-0.1-0.2-0.1l-2.9,0.6
					C52.1,57.6,52.1,57.7,52.1,57.7z"/>
			</g>
		</g>
		<g>
			<g>
				<path d="M54.1,59.5c0,0.1,0,0.1,0,0.2l2.4,1.8c0.1,0,0.1,0,0.2,0c0-0.1,0-0.1,0-0.2l-2.4-1.8C54.3,59.5,54.2,59.5,54.1,59.5z"/>
			</g>
		</g>
		<g>
			<g>
				<path d="M57.9,60.4c-0.1,0.1-0.1,0.1,0,0.2l2.3,2.1c0.1,0.1,0.1,0.1,0.2,0c0.1-0.1,0.1-0.1,0-0.2l-2.3-2.1
					C58,60.3,58,60.3,57.9,60.4z"/>
			</g>
		</g>
		<g>
			<g>
				<path d="M59.5,61.5c0.1,0,0.1,0,0.2,0l1.6-2.3c0-0.1,0-0.1,0-0.2s-0.1,0-0.2,0l-1.6,2.3C59.4,61.3,59.5,61.4,59.5,61.5z"/>
			</g>
		</g>
		<g>
			<g>
				<path d="M63,56.7c-0.1,0-0.2,0-0.2,0.1l-0.4,3.2c0,0.1,0,0.2,0.1,0.2c0.1,0,0.2,0,0.2-0.1l0.4-3.2C63.1,56.8,63.1,56.7,63,56.7z
					"/>
			</g>
		</g>
		<g>
			<g>
				<path d="M62.4,60.7c-0.1,0-0.1,0.1-0.1,0.2l1.4,2.7c0,0.1,0.1,0.1,0.2,0.1s0.1-0.1,0.1-0.2l-1.4-2.7
					C62.6,60.7,62.5,60.6,62.4,60.7z"/>
			</g>
		</g>
		<g>
			<g>
				<path d="M62.5,61.1c0.1,0,0.1,0,0.2-0.1l0.7-2.8c0-0.1,0-0.1-0.1-0.2S63,58,63,58.1l-0.7,2.8C62.3,61,62.4,61,62.5,61.1z"/>
			</g>
		</g>
		<g>
			<g>
				<path d="M64.6,55.7c-0.1,0-0.1,0.1-0.1,0.1l0.1,3c0,0.1,0.1,0.1,0.1,0.1s0.1-0.1,0.1-0.1l-0.1-3C64.7,55.8,64.7,55.7,64.6,55.7z
					"/>
			</g>
		</g>
		<g>
			<g>
				<path d="M64.3,59.9c-0.1,0-0.1,0.1,0,0.2l1.6,2.5c0,0.1,0.1,0.1,0.2,0c0.1,0,0.1-0.1,0-0.2l-1.6-2.5
					C64.5,59.9,64.4,59.9,64.3,59.9z"/>
			</g>
		</g>
		<g>
			<g>
				<path d="M66.5,62.6c0.1,0.1,0.2,0,0.2,0l2.1-2.5c0.1-0.1,0-0.2,0-0.2c-0.1-0.1-0.2,0-0.2,0l-2.1,2.5
					C66.4,62.5,66.4,62.6,66.5,62.6z"/>
			</g>
		</g>
		<g>
			<g>
				<path d="M69.3,57.5c-0.1,0-0.1,0.1-0.1,0.2l1.6,2.8c0,0.1,0.1,0.1,0.2,0.1c0.1,0,0.1-0.1,0.1-0.2l-1.6-2.8
					C69.4,57.5,69.4,57.4,69.3,57.5z"/>
			</g>
		</g>
		<g>
			<g>
				<path d="M70.8,59.3c0.1,0,0.1-0.1,0-0.2L69,56.9c0-0.1-0.1-0.1-0.2,0c-0.1,0-0.1,0.1,0,0.2l1.8,2.2
					C70.7,59.3,70.7,59.3,70.8,59.3z"/>
			</g>
		</g>
		<g>
			<g>
				<path d="M70.5,54.8c-0.1,0.1-0.1,0.1,0,0.2l2,2.6c0.1,0.1,0.1,0.1,0.2,0c0.1-0.1,0.1-0.1,0-0.2l-2-2.6
					C70.6,54.7,70.5,54.7,70.5,54.8z"/>
			</g>
		</g>
		<g>
			<g>
				<path d="M72.7,59.1c0.1,0,0.1,0,0.2,0l1.6-2.4c0-0.1,0-0.1,0-0.2s-0.1,0-0.2,0l-1.6,2.4C72.6,59,72.6,59,72.7,59.1z"/>
			</g>
		</g>
		<g>
			<g>
				<path d="M73.9,57.1c0.1,0,0.1-0.1,0-0.2l-1.8-2.3c0-0.1-0.1-0.1-0.2,0s-0.1,0.1,0,0.2l1.8,2.3C73.7,57.1,73.8,57.1,73.9,57.1z"
					/>
			</g>
		</g>
		<g>
			<g>
				<path d="M75.4,53.3c0,0.1,0,0.1,0.1,0.2l2.8,0.8c0.1,0,0.1,0,0.2-0.1s0-0.1-0.1-0.2l-2.8-0.8C75.5,53.2,75.5,53.2,75.4,53.3z"/>
			</g>
		</g>
		<g>
			<g>
				<path d="M79.1,54c0-0.1,0-0.1,0-0.2l-2.4-1.6c-0.1,0-0.1,0-0.2,0s0,0.1,0,0.2l2.4,1.6C79,54,79.1,54,79.1,54z"/>
			</g>
		</g>
		<g>
			<g>
				<path d="M75.5,51.6c0-0.1,0-0.1,0-0.2L73,49.9c-0.1,0-0.1,0-0.2,0s0,0.1,0,0.2l2.4,1.6C75.3,51.7,75.4,51.7,75.5,51.6z"/>
			</g>
		</g>
		<g>
			<g>
				<path d="M75.4,49.6c0,0.1,0,0.1,0.1,0.2l3,0.6c0.1,0,0.1,0,0.2-0.1c0-0.1,0-0.1-0.1-0.2l-3-0.6C75.5,49.5,75.4,49.6,75.4,49.6z"
					/>
			</g>
		</g>
		<g>
			<g>
				<path d="M79.8,46.7c-0.1,0-0.1,0.1-0.1,0.2l1.4,2.7c0,0.1,0.1,0.1,0.2,0.1s0.1-0.1,0.1-0.2L80,46.8
					C79.9,46.7,79.8,46.7,79.8,46.7z"/>
			</g>
		</g>
		<g>
			<g>
				<path d="M80.8,49.5c0.1,0,0.1,0,0.2-0.1l0.8-2.9c0-0.1,0-0.1-0.1-0.2c-0.1,0-0.1,0-0.2,0.1l-0.8,2.9
					C80.7,49.4,80.8,49.4,80.8,49.5z"/>
			</g>
		</g>
		<g>
			<g>
				<path d="M81.1,46.4c0.1,0,0.1-0.1,0.1-0.1l0-3c0-0.1-0.1-0.1-0.1-0.1s-0.1,0.1-0.1,0.1l0,3C80.9,46.4,81,46.4,81.1,46.4z"/>
			</g>
		</g>
		<g>
			<g>
				<path d="M80.1,44.7c0-0.1-0.1-0.1-0.2-0.1L77,45.5c-0.1,0-0.1,0.1-0.1,0.2s0.1,0.1,0.2,0.1l2.9-0.8
					C80.1,44.9,80.1,44.8,80.1,44.7z"/>
			</g>
		</g>
		<g>
			<g>
				<path d="M76.8,43.8c0.1,0,0.2,0,0.2-0.1l1.6-2.8c0-0.1,0-0.2-0.1-0.2s-0.2,0-0.2,0.1l-1.6,2.8C76.7,43.7,76.7,43.8,76.8,43.8z"
					/>
			</g>
		</g>
		<g>
			<g>
				<path d="M79.5,40.1c0.1,0,0.1,0,0.2,0l2-2.3c0-0.1,0-0.1,0-0.2c-0.1,0-0.1,0-0.2,0l-2,2.3C79.4,40,79.4,40.1,79.5,40.1z"/>
			</g>
		</g>
		<g>
			<g>
				<path d="M67.5,20.4c-0.1,0-0.1,0-0.2,0.1l-0.5,3c0,0.1,0,0.1,0.1,0.2c0.1,0,0.1,0,0.2-0.1l0.5-3C67.7,20.4,67.6,20.4,67.5,20.4z
					"/>
			</g>
		</g>
		<g>
			<g>
				<path d="M65.9,16.4c0,0.1,0,0.2,0.1,0.2l3.1,1.1c0.1,0,0.2,0,0.2-0.1c0-0.1,0-0.2-0.1-0.2l-3.1-1.1C66,16.3,66,16.3,65.9,16.4z"
					/>
			</g>
		</g>
		<g>
			<g>
				<path d="M65,22.9c0.1,0,0.1,0,0.2-0.1l0.6-3c0-0.1,0-0.1-0.1-0.2s-0.1,0-0.2,0.1l-0.6,3C64.9,22.8,65,22.9,65,22.9z"/>
			</g>
		</g>
		<g>
			<g>
				<path d="M69.3,19.5c-0.1,0-0.2,0-0.2,0.1l-1.2,2.7c0,0.1,0,0.2,0.1,0.2s0.2,0,0.2-0.1l1.2-2.7C69.4,19.6,69.3,19.5,69.3,19.5z"
					/>
			</g>
		</g>
		<g>
			<g>
				<path d="M70.8,21c-0.1-0.1-0.1-0.1-0.2,0l-2.1,2.2c-0.1,0.1-0.1,0.1,0,0.2c0.1,0.1,0.1,0.1,0.2,0l2.1-2.2
					C70.9,21.1,70.9,21,70.8,21z"/>
			</g>
		</g>
		<g>
			<g>
				<path d="M70.9,17.7c-0.1,0.1-0.1,0.1,0,0.2L73,20c0.1,0.1,0.1,0.1,0.2,0c0.1-0.1,0.1-0.1,0-0.2l-2.1-2.1
					C71.1,17.6,71,17.6,70.9,17.7z"/>
			</g>
		</g>
		<g>
			<g>
				<path d="M71,20.2c-0.1,0-0.1,0-0.2,0l-1.9,2.4c0,0.1,0,0.1,0,0.2s0.1,0,0.2,0l1.9-2.4C71,20.3,71,20.2,71,20.2z"/>
			</g>
		</g>
		<g>
			<g>
				<path d="M71.8,16.8c-0.1,0-0.1,0.1-0.1,0.1l0.1,2.9c0,0.1,0.1,0.1,0.1,0.1c0.1,0,0.1-0.1,0.1-0.1L72,17
					C72,16.9,71.9,16.8,71.8,16.8z"/>
			</g>
		</g>
		<g>
			<g>
				<path d="M68.3,18.3c0.1,0,0.1,0,0.2,0l2-2.1c0-0.1,0-0.1,0-0.2c-0.1,0-0.1,0-0.2,0l-2,2.1C68.3,18.1,68.3,18.2,68.3,18.3z"/>
			</g>
		</g>
		<g>
			<g>
				<path d="M70.9,15c-0.1,0-0.1,0-0.2,0.1l-1,2.7c0,0.1,0,0.1,0.1,0.2c0.1,0,0.1,0,0.2-0.1l1-2.7C71,15.1,70.9,15.1,70.9,15z"/>
			</g>
		</g>
		<g>
			<g>
				<path d="M67.8,17.5c0.1,0,0.1,0,0.2-0.1l1.1-2.8c0-0.1,0-0.1-0.1-0.2c-0.1,0-0.1,0-0.2,0.1l-1.1,2.8
					C67.7,17.4,67.7,17.5,67.8,17.5z"/>
			</g>
		</g>
		<g>
			<g>
				<path d="M66.6,20.6c0.1,0,0.1,0,0.2-0.1l1.1-2.7c0-0.1,0-0.1-0.1-0.2c-0.1,0-0.1,0-0.2,0.1l-1.1,2.7
					C66.5,20.5,66.5,20.5,66.6,20.6z"/>
			</g>
		</g>
		<g>
			<g>
				<path d="M81.5,28.2c0-0.1-0.1-0.1-0.2,0l-2.5,1.7c-0.1,0-0.1,0.1,0,0.2s0.1,0.1,0.2,0l2.5-1.7C81.6,28.3,81.6,28.3,81.5,28.2z"
					/>
			</g>
		</g>
		<g>
			<g>
				<path d="M85.3,25.7c0-0.1-0.1-0.1-0.2,0l-2.7,1.8c-0.1,0-0.1,0.1,0,0.2s0.1,0.1,0.2,0l2.7-1.8C85.3,25.8,85.3,25.8,85.3,25.7z"
					/>
			</g>
		</g>
		<g>
			<g>
				<path d="M85.2,21c-0.1,0-0.1,0.1-0.1,0.2l0.5,3c0,0.1,0.1,0.1,0.2,0.1s0.1-0.1,0.1-0.2l-0.5-3C85.4,21.1,85.3,21,85.2,21z"/>
			</g>
		</g>
		<g>
			<g>
				<path d="M81.6,19.2c0,0.1,0,0.1,0.1,0.2l3,0.5c0.1,0,0.1,0,0.2-0.1c0-0.1,0-0.1-0.1-0.2l-3-0.5C81.7,19.1,81.6,19.2,81.6,19.2z"
					/>
			</g>
		</g>
		<g>
			<g>
				<path d="M77.4,18.5c0,0.1,0,0.1,0.1,0.2l3,0.5c0.1,0,0.1,0,0.2-0.1c0-0.1,0-0.1-0.1-0.2l-3-0.5C77.5,18.4,77.4,18.5,77.4,18.5z"
					/>
			</g>
		</g>
		<g>
			<g>
				<path d="M74.4,17.1c0,0.1,0,0.1,0.1,0.2l2.8,1.1c0.1,0,0.1,0,0.2-0.1s0-0.1-0.1-0.2L74.5,17C74.5,17,74.4,17,74.4,17.1z"/>
			</g>
		</g>
		<g>
			<g>
				<path d="M72.1,20.7c0.1,0,0.1-0.1,0.1-0.2l-0.7-3c0-0.1-0.1-0.1-0.2-0.1c-0.1,0-0.1,0.1-0.1,0.2l0.7,3
					C72,20.7,72,20.8,72.1,20.7z"/>
			</g>
		</g>
		<g>
			<g>
				<path d="M69.4,22.2c0,0.1,0.1,0.1,0.2,0l2.3-1.7c0.1,0,0.1-0.1,0-0.2s-0.1-0.1-0.2,0L69.4,22C69.3,22.1,69.3,22.2,69.4,22.2z"/>
			</g>
		</g>
		<g>
			<g>
				<path d="M72.5,24c0.1,0,0.1-0.1,0.1-0.2l-1.2-2.6c0-0.1-0.1-0.1-0.2-0.1c-0.1,0-0.1,0.1-0.1,0.2l1.2,2.6
					C72.4,24,72.5,24,72.5,24z"/>
			</g>
		</g>
		<g>
			<g>
				<path d="M68.3,25.2c0,0.1,0.1,0.1,0.2,0l2.2-1.9c0.1,0,0.1-0.1,0-0.2c0-0.1-0.1-0.1-0.2,0L68.3,25C68.3,25,68.3,25.1,68.3,25.2z
					"/>
			</g>
		</g>
		<g>
			<g>
				<path d="M64.6,28.7c0.1,0.1,0.1,0.1,0.2,0l2.2-2c0.1-0.1,0.1-0.1,0-0.2c-0.1-0.1-0.1-0.1-0.2,0l-2.2,2
					C64.6,28.6,64.6,28.7,64.6,28.7z"/>
			</g>
		</g>
		<g>
			<g>
				<path d="M67.5,29.5c0-0.1-0.1-0.1-0.2-0.1L64.5,30c-0.1,0-0.1,0.1-0.1,0.2s0.1,0.1,0.2,0.1l2.8-0.6
					C67.5,29.7,67.5,29.6,67.5,29.5z"/>
			</g>
		</g>
		<g>
			<g>
				<path d="M71.8,28.6c0-0.1-0.1-0.1-0.2-0.1l-3.2,0.7c-0.1,0-0.1,0.1-0.1,0.2c0,0.1,0.1,0.1,0.2,0.1l3.2-0.7
					C71.8,28.7,71.8,28.7,71.8,28.6z"/>
			</g>
		</g>
		<g>
			<g>
				<path d="M75.9,28.9c0-0.1,0-0.1-0.1-0.1l-2.9-0.3c-0.1,0-0.1,0-0.1,0.1c0,0.1,0,0.1,0.1,0.1l2.9,0.3
					C75.8,29,75.9,28.9,75.9,28.9z"/>
			</g>
		</g>
		<g>
			<g>
				<path d="M79.4,29.2c0-0.1-0.1-0.2-0.1-0.2L76,28.7c-0.1,0-0.2,0.1-0.2,0.1s0.1,0.2,0.1,0.2l3.3,0.3
					C79.3,29.3,79.3,29.3,79.4,29.2z"/>
			</g>
		</g>
		<g>
			<g>
				<path d="M34.1,62.7c-0.1,0-0.1,0.1-0.1,0.2l1,2.9c0,0.1,0.1,0.1,0.2,0.1c0.1,0,0.1-0.1,0.1-0.2l-1-2.9
					C34.2,62.8,34.2,62.7,34.1,62.7z"/>
			</g>
		</g>
		<g>
			<g>
				<path d="M31.3,59.1c0,0.1,0,0.2,0.1,0.2l2.9,1.4c0.1,0,0.2,0,0.2-0.1c0-0.1,0-0.2-0.1-0.2L31.5,59C31.4,59,31.3,59,31.3,59.1z"
					/>
			</g>
		</g>
		<g>
			<g>
				<path d="M26.9,61.4c0,0.1,0.1,0.1,0.2,0.1l2.9-0.9c0.1,0,0.1-0.1,0.1-0.2c0-0.1-0.1-0.1-0.2-0.1L27,61.2
					C26.9,61.2,26.8,61.3,26.9,61.4z"/>
			</g>
		</g>
		<g>
			<g>
				<path d="M26.2,66.2c0.1,0,0.1,0,0.2-0.1l0.8-2.9c0-0.1,0-0.1-0.1-0.2c-0.1,0-0.1,0-0.2,0.1L26.1,66
					C26.1,66.1,26.1,66.2,26.2,66.2z"/>
			</g>
		</g>
		<g>
			<g>
				<path d="M24.4,69.3c0,0.1,0.1,0.1,0.2,0l2.5-1.7c0.1,0,0.1-0.1,0-0.2c0-0.1-0.1-0.1-0.2,0l-2.5,1.7
					C24.3,69.1,24.3,69.2,24.4,69.3z"/>
			</g>
		</g>
		<g>
			<g>
				<path d="M21.8,71.9c0.1,0,0.1,0,0.2,0l1.6-2.5c0-0.1,0-0.1,0-0.2c-0.1,0-0.1,0-0.2,0l-1.6,2.5C21.7,71.8,21.7,71.8,21.8,71.9z"
					/>
			</g>
		</g>
		<g>
			<g>
				<path d="M25.6,74.3c0-0.1-0.1-0.1-0.2-0.1l-3,0.4c-0.1,0-0.1,0.1-0.1,0.2c0,0.1,0.1,0.1,0.2,0.1l3-0.4
					C25.5,74.4,25.6,74.3,25.6,74.3z"/>
			</g>
		</g>
		<g>
			<g>
				<path d="M27.5,75.9c0-0.1,0-0.1-0.1-0.2l-2.7-1c-0.1,0-0.1,0-0.2,0.1c0,0.1,0,0.1,0.1,0.2l2.7,1C27.4,76,27.5,75.9,27.5,75.9z"
					/>
			</g>
		</g>
		<g>
			<g>
				<path d="M31.8,75.7c0-0.1,0-0.1-0.1-0.2L28.8,75c-0.1,0-0.1,0-0.2,0.1c0,0.1,0,0.1,0.1,0.2l2.9,0.5
					C31.7,75.8,31.8,75.7,31.8,75.7z"/>
			</g>
		</g>
		<g>
			<g>
				<path d="M34.3,72.5c-0.1,0-0.1,0-0.2,0l-1.4,2.5c0,0.1,0,0.1,0,0.2c0.1,0,0.1,0,0.2,0l1.4-2.5C34.4,72.7,34.4,72.6,34.3,72.5z"
					/>
			</g>
		</g>
		<g>
			<g>
				<path d="M34.9,67.3c-0.1,0-0.1,0.1-0.1,0.1l0.3,3c0,0.1,0.1,0.1,0.1,0.1c0.1,0,0.1-0.1,0.1-0.1l-0.3-3
					C35.1,67.4,35,67.3,34.9,67.3z"/>
			</g>
		</g>
		<g>
			<g>
				<path d="M34.6,64c-0.1,0-0.1,0.1-0.1,0.1l0.3,2.9c0,0.1,0.1,0.1,0.1,0.1c0.1,0,0.1-0.1,0.1-0.1l-0.3-2.9
					C34.8,64.1,34.7,64,34.6,64z"/>
			</g>
		</g>
		<g>
			<g>
				<path d="M30.4,52.1c0.1-0.1,0-0.1,0-0.2l-2.2-2.1c-0.1-0.1-0.1,0-0.2,0c-0.1,0.1,0,0.1,0,0.2l2.2,2.1
					C30.2,52.1,30.3,52.1,30.4,52.1z"/>
			</g>
		</g>
		<g>
			<g>
				<path d="M34.9,51.5c0-0.1-0.1-0.1-0.2-0.1l-3.1,1.1c-0.1,0-0.1,0.1-0.1,0.2c0,0.1,0.1,0.1,0.2,0.1l3.1-1.1
					C34.8,51.7,34.9,51.6,34.9,51.5z"/>
			</g>
		</g>
		<g>
			<g>
				<path d="M38.8,49.9c0-0.1-0.1-0.1-0.2-0.1L35.8,51c-0.1,0-0.1,0.1-0.1,0.2c0,0.1,0.1,0.1,0.2,0.1l2.8-1.2
					C38.8,50,38.9,49.9,38.8,49.9z"/>
			</g>
		</g>
		<g>
			<g>
				<path d="M42,47.3c-0.1,0-0.1,0-0.2,0.1L40.3,50c0,0.1,0,0.1,0.1,0.2c0.1,0,0.1,0,0.2-0.1l1.5-2.6C42,47.4,42,47.3,42,47.3z"/>
			</g>
		</g>
		<g>
			<g>
				<path d="M40.8,42.6c-0.1,0-0.1,0.1-0.1,0.2l0.4,3c0,0.1,0.1,0.1,0.2,0.1s0.1-0.1,0.1-0.2l-0.4-3C40.9,42.7,40.9,42.6,40.8,42.6z
					"/>
			</g>
		</g>
		<g>
			<g>
				<path d="M38,39.8c-0.1,0-0.1,0.1,0,0.2l1.9,2.3c0,0.1,0.1,0.1,0.2,0c0.1,0,0.1-0.1,0-0.2l-1.9-2.3C38.2,39.8,38.1,39.8,38,39.8z
					"/>
			</g>
		</g>
		<g>
			<g>
				<path d="M32.9,43c0,0.1,0.1,0.1,0.2,0.1l2.8-1.3c0.1,0,0.1-0.1,0.1-0.2c0-0.1-0.1-0.1-0.2-0.1L33,42.8
					C32.9,42.9,32.9,43,32.9,43z"/>
			</g>
		</g>
		<g>
			<g>
				<path d="M30.5,45.5c0.1,0.1,0.1,0.1,0.2,0l2.1-2c0.1-0.1,0.1-0.1,0-0.2c-0.1-0.1-0.1-0.1-0.2,0l-2.1,2
					C30.4,45.3,30.4,45.4,30.5,45.5z"/>
			</g>
		</g>
		<g>
			<g>
				<path d="M28.8,49.6c0.1,0,0.1-0.1,0.1-0.1l-0.3-2.9c0-0.1-0.1-0.1-0.1-0.1s-0.1,0.1-0.1,0.1l0.3,2.9
					C28.7,49.5,28.8,49.6,28.8,49.6z"/>
			</g>
		</g>
		<g>
			<g>
				<path d="M38,50.5c0,0.1,0.1,0.1,0.2,0.1l2.9-0.8c0.1,0,0.1-0.1,0.1-0.2c0-0.1-0.1-0.1-0.2-0.1l-2.9,0.8
					C38,50.3,37.9,50.4,38,50.5z"/>
			</g>
		</g>
		<g>
			<g>
				<path d="M33.6,51.6c0,0.1,0.1,0.1,0.2,0.1l3.2-0.8c0.1,0,0.1-0.1,0.1-0.2c0-0.1-0.1-0.1-0.2-0.1l-3.2,0.8
					C33.6,51.5,33.6,51.6,33.6,51.6z"/>
			</g>
		</g>
		<g>
			<g>
				<path d="M33.1,57.1c0.1,0,0.1,0,0.2-0.1l0.7-3c0-0.1,0-0.1-0.1-0.2c-0.1,0-0.1,0-0.2,0.1L33,57C33,57,33,57.1,33.1,57.1z"/>
			</g>
		</g>
		<g>
			<g>
				<path d="M38.4,56.8c0-0.1-0.1-0.1-0.2-0.1l-2.8,1.2c-0.1,0-0.1,0.1-0.1,0.2s0.1,0.1,0.2,0.1l2.8-1.2
					C38.4,57,38.4,56.9,38.4,56.8z"/>
			</g>
		</g>
		<g>
			<g>
				<path d="M42.2,54.9c0-0.1-0.1-0.1-0.2-0.1l-2.7,1.5c-0.1,0-0.1,0.1-0.1,0.2c0,0.1,0.1,0.1,0.2,0.1l2.7-1.5
					C42.2,55,42.3,54.9,42.2,54.9z"/>
			</g>
		</g>
		<g>
			<g>
				<path d="M42.3,51.2c-0.1,0-0.1,0.1-0.1,0.2l1,2.8c0,0.1,0.1,0.1,0.2,0.1s0.1-0.1,0.1-0.2l-1-2.8C42.4,51.2,42.3,51.2,42.3,51.2z
					"/>
			</g>
		</g>
		<g>
			<g>
				<path d="M56.7,47c-0.1,0-0.1,0.1-0.1,0.1l-0.1,3c0,0.1,0.1,0.1,0.1,0.1c0.1,0,0.1-0.1,0.1-0.1l0.1-3C56.9,47,56.8,47,56.7,47z"
					/>
			</g>
		</g>
		<g>
			<g>
				<path d="M50.5,48.6c0,0.1,0.1,0.1,0.2,0.1l3-1.2c0.1,0,0.1-0.1,0.1-0.2c0-0.1-0.1-0.1-0.2-0.1l-3,1.2
					C50.5,48.4,50.5,48.5,50.5,48.6z"/>
			</g>
		</g>
		<g>
			<g>
				<path d="M52,50.8c0-0.1-0.1-0.1-0.2-0.1l-2.8,1.2c-0.1,0-0.1,0.1-0.1,0.2c0,0.1,0.1,0.1,0.2,0.1L52,51C52,51,52.1,50.9,52,50.8z
					"/>
			</g>
		</g>
		<g>
			<g>
				<path d="M55.6,49.4c0-0.1-0.1-0.1-0.2-0.1l-2.8,1.1c-0.1,0-0.1,0.1-0.1,0.2c0,0.1,0.1,0.1,0.2,0.1l2.8-1.1
					C55.6,49.6,55.6,49.5,55.6,49.4z"/>
			</g>
		</g>
		<g>
			<g>
				<path d="M40.5,68.8c0,0.1,0,0.1,0,0.2l2.4,1.9c0.1,0,0.1,0,0.2,0c0-0.1,0-0.1,0-0.2l-2.4-1.9C40.6,68.7,40.5,68.8,40.5,68.8z"/>
			</g>
		</g>
		<g>
			<g>
				<path d="M39.7,66.1c0,0.1,0,0.2,0.1,0.2l2.9,1.6c0.1,0,0.2,0,0.2-0.1c0-0.1,0-0.2-0.1-0.2l-2.9-1.6
					C39.8,66.1,39.7,66.1,39.7,66.1z"/>
			</g>
		</g>
		<g>
			<g>
				<path d="M38.3,68.7c0.1,0,0.1-0.1,0.1-0.2l-1-2.9c0-0.1-0.1-0.1-0.2-0.1c-0.1,0-0.1,0.1-0.1,0.2l1,2.9
					C38.2,68.7,38.3,68.7,38.3,68.7z"/>
			</g>
		</g>
		<g>
			<g>
				<path d="M41.7,71.2c0-0.1,0-0.1,0-0.2l-2.5-1.7c-0.1,0-0.1,0-0.2,0s0,0.1,0,0.2l2.5,1.7C41.6,71.3,41.6,71.3,41.7,71.2z"/>
			</g>
		</g>
		<g>
			<g>
				<path d="M62.8,38.7c-0.1,0-0.1,0.1-0.1,0.2l1.1,2.8c0,0.1,0.1,0.1,0.2,0.1c0.1,0,0.1-0.1,0.1-0.2L63,38.8
					C62.9,38.7,62.8,38.7,62.8,38.7z"/>
			</g>
		</g>
		<g>
			<g>
				<path d="M61.2,34.5c-0.1,0-0.1,0.1-0.1,0.2l1.2,3c0,0.1,0.1,0.1,0.2,0.1c0.1,0,0.1-0.1,0.1-0.2l-1.2-3
					C61.3,34.6,61.2,34.5,61.2,34.5z"/>
			</g>
		</g>
		<g>
			<g>
				<path d="M59.9,37.1c0.1,0,0.1-0.1,0.1-0.2l-0.3-3c0-0.1-0.1-0.1-0.2-0.1s-0.1,0.1-0.1,0.2l0.3,3C59.8,37.1,59.8,37.2,59.9,37.1z
					"/>
			</g>
		</g>
		<g>
			<g>
				<path d="M61.2,40.9c0.1,0,0.1-0.1,0.1-0.2l-0.9-2.9c0-0.1-0.1-0.1-0.2-0.1c-0.1,0-0.1,0.1-0.1,0.2l0.9,2.9
					C61.1,40.9,61.1,40.9,61.2,40.9z"/>
			</g>
		</g>
		<g>
			<g>
				<path d="M62.6,41.3c0.1,0,0.1-0.1,0-0.2L61,38.6c0-0.1-0.1-0.1-0.2,0c-0.1,0-0.1,0.1,0,0.2l1.7,2.5
					C62.5,41.3,62.6,41.3,62.6,41.3z"/>
			</g>
		</g>
		<g>
			<g>
				<path d="M43.1,62.1c0-0.1-0.1-0.1-0.2,0l-2.5,1.7c-0.1,0-0.1,0.1,0,0.2c0,0.1,0.1,0.1,0.2,0l2.5-1.7
					C43.1,62.3,43.2,62.2,43.1,62.1z"/>
			</g>
		</g>
		<g>
			<g>
				<path d="M40.8,60.3c0,0.1,0.1,0.1,0.2,0.1l3.3-0.1c0.1,0,0.1-0.1,0.1-0.2c0-0.1-0.1-0.1-0.2-0.1l-3.3,0.1
					C40.8,60.2,40.8,60.2,40.8,60.3z"/>
			</g>
		</g>
		<g>
			<g>
				<path d="M37.3,62.5c0.1,0,0.1,0,0.2-0.1l0.6-3c0-0.1,0-0.1-0.1-0.2c-0.1,0-0.1,0-0.2,0.1l-0.6,3C37.1,62.4,37.2,62.5,37.3,62.5z
					"/>
			</g>
		</g>
		<g>
			<g>
				<path d="M42.5,63.7c0-0.1,0-0.2-0.1-0.2l-2.7-1.3c-0.1,0-0.2,0-0.2,0.1s0,0.2,0.1,0.2l2.7,1.3C42.4,63.8,42.5,63.8,42.5,63.7z"
					/>
			</g>
		</g>
		<g>
			<g>
				<path d="M42.1,66C42,66,42,66.1,42,66.2l1.5,2.7c0,0.1,0.1,0.1,0.2,0.1s0.1-0.1,0.1-0.2L42.3,66C42.2,66,42.1,65.9,42.1,66z"/>
			</g>
		</g>
		<g>
			<g>
				<path d="M37.7,64c0,0.1,0,0.2,0.1,0.2l3,1.2c0.1,0,0.2,0,0.2-0.1s0-0.2-0.1-0.2l-3-1.2C37.8,63.9,37.7,63.9,37.7,64z"/>
			</g>
		</g>
		<g>
			<g>
				<path d="M41.6,67.9c0-0.1,0-0.1,0-0.2L39.1,66c-0.1,0-0.1,0-0.2,0s0,0.1,0,0.2l2.5,1.7C41.5,68,41.6,68,41.6,67.9z"/>
			</g>
		</g>
		<g>
			<g>
				<path d="M21.4,70.7c-0.1-0.1-0.1,0-0.2,0l-2,2.3c-0.1,0.1,0,0.1,0,0.2c0.1,0.1,0.1,0,0.2,0l2-2.3C21.5,70.8,21.5,70.7,21.4,70.7
					z"/>
			</g>
		</g>
		<g>
			<g>
				<path d="M24.3,67.2c-0.1-0.1-0.2,0-0.2,0l-2,2.6c-0.1,0.1,0,0.2,0,0.2c0.1,0.1,0.2,0,0.2,0l2-2.6C24.4,67.3,24.4,67.2,24.3,67.2
					z"/>
			</g>
		</g>
		<g>
			<g>
				<path d="M22.6,66.3c-0.1,0-0.1,0.1-0.1,0.1l-0.2,3c0,0.1,0.1,0.1,0.1,0.1c0.1,0,0.1-0.1,0.1-0.1l0.2-3
					C22.7,66.3,22.6,66.3,22.6,66.3z"/>
			</g>
		</g>
		<g>
			<g>
				<path d="M18.5,70.7c0.1,0.1,0.1,0.1,0.2,0l2.2-2c0.1-0.1,0.1-0.1,0-0.2c-0.1-0.1-0.1-0.1-0.2,0l-2.2,2
					C18.5,70.6,18.5,70.6,18.5,70.7z"/>
			</g>
		</g>
		<g>
			<g>
				<path d="M47.1,57.2c0.1,0,0.1,0,0.2-0.1l0.3-3c0-0.1,0-0.1-0.1-0.2c-0.1,0-0.1,0-0.2,0.1l-0.3,3C46.9,57.2,47,57.2,47.1,57.2z"
					/>
			</g>
		</g>
		<g>
			<g>
				<path d="M52.4,54.9c-0.1-0.1-0.2-0.1-0.2,0l-2.4,2.3c-0.1,0.1-0.1,0.2,0,0.2c0.1,0.1,0.2,0.1,0.2,0l2.4-2.3
					C52.4,55,52.4,54.9,52.4,54.9z"/>
			</g>
		</g>
		<g>
			<g>
				<path d="M49,54.7c0,0.1,0.1,0.1,0.2,0.1l2.9-1c0.1,0,0.1-0.1,0.1-0.2c0-0.1-0.1-0.1-0.2-0.1l-2.9,1C49,54.5,49,54.6,49,54.7z"/>
			</g>
		</g>
		<g>
			<g>
				<path d="M46.4,50.1c-0.1,0-0.1,0.1,0,0.2l1.6,2.6c0,0.1,0.1,0.1,0.2,0c0.1,0,0.1-0.1,0-0.2l-1.6-2.6
					C46.6,50.1,46.5,50,46.4,50.1z"/>
			</g>
		</g>
		<g>
			<g>
				<path d="M48.1,52.7c0-0.1-0.1-0.1-0.2,0l-2.8,1.7c-0.1,0-0.1,0.1,0,0.2c0,0.1,0.1,0.1,0.2,0l2.8-1.7
					C48.1,52.8,48.1,52.7,48.1,52.7z"/>
			</g>
		</g>
		<g>
			<g>
				<path d="M44.6,18.2c0.1,0,0.1-0.1,0.1-0.2l-1.4-2.7c0-0.1-0.1-0.1-0.2-0.1s-0.1,0.1-0.1,0.2l1.4,2.7
					C44.4,18.2,44.5,18.2,44.6,18.2z"/>
			</g>
		</g>
		<g>
			<g>
				<path d="M45.4,14.5c-0.1,0-0.1,0.1-0.1,0.2l0.5,3.2c0,0.1,0.1,0.1,0.2,0.1c0.1,0,0.1-0.1,0.1-0.2l-0.5-3.2
					C45.6,14.5,45.5,14.5,45.4,14.5z"/>
			</g>
		</g>
		<g>
			<g>
				<path d="M58.6,33.8c-0.1,0-0.1,0-0.2,0.1l-0.4,3c0,0.1,0,0.1,0.1,0.2c0.1,0,0.1,0,0.2-0.1l0.4-3C58.7,33.9,58.7,33.8,58.6,33.8z
					"/>
			</g>
		</g>
		<g>
			<g>
				<path d="M56.1,38.8c0.1,0,0.1-0.1,0.1-0.2l-1-3.1c0-0.1-0.1-0.1-0.2-0.1s-0.1,0.1-0.1,0.2l1,3.1C55.9,38.8,56,38.8,56.1,38.8z"
					/>
			</g>
		</g>
		<g>
			<g>
				<path d="M56.8,35.3c-0.1,0-0.1,0.1-0.1,0.2l1.4,2.7c0,0.1,0.1,0.1,0.2,0.1c0.1,0,0.1-0.1,0.1-0.2L57,35.4
					C56.9,35.3,56.8,35.3,56.8,35.3z"/>
			</g>
		</g>
		<g>
			<g>
				<path d="M56.6,54.7c0-0.1-0.1-0.1-0.2,0l-2.3,1.9c-0.1,0-0.1,0.1,0,0.2c0,0.1,0.1,0.1,0.2,0l2.3-1.9
					C56.6,54.8,56.6,54.7,56.6,54.7z"/>
			</g>
		</g>
		<g>
			<g>
				<path d="M60,51.8c-0.1-0.1-0.1-0.1-0.2,0l-2.5,2.1c-0.1,0.1-0.1,0.1,0,0.2s0.1,0.1,0.2,0L60,52C60.1,51.9,60.1,51.8,60,51.8z"/>
			</g>
		</g>
		<g>
			<g>
				<path d="M54.9,52.7c0,0.1,0.1,0.1,0.2,0.1l2.8-1.1c0.1,0,0.1-0.1,0.1-0.2c0-0.1-0.1-0.1-0.2-0.1L55,52.5
					C54.9,52.5,54.9,52.6,54.9,52.7z"/>
			</g>
		</g>
		<g>
			<g>
				<path d="M57.2,53.4c0,0.1,0.1,0.1,0.2,0l2.4-1.8c0.1,0,0.1-0.1,0-0.2s-0.1-0.1-0.2,0l-2.4,1.8C57.1,53.2,57.1,53.3,57.2,53.4z"
					/>
			</g>
		</g>
		<g>
			<g>
				<path d="M58.5,54.2c-0.1-0.1-0.2,0-0.2,0l-2.1,2.5c-0.1,0.1,0,0.2,0,0.2c0.1,0.1,0.2,0,0.2,0l2.1-2.5
					C58.6,54.4,58.6,54.3,58.5,54.2z"/>
			</g>
		</g>
		<g>
			<g>
				<path d="M64.6,19.5c0.1,0,0.2,0,0.2-0.1l1.3-2.8c0-0.1,0-0.2-0.1-0.2c-0.1,0-0.2,0-0.2,0.1l-1.3,2.8
					C64.5,19.4,64.6,19.5,64.6,19.5z"/>
			</g>
		</g>
		<g>
			<g>
				<path d="M62.7,23.6c0.1,0,0.2,0,0.2-0.1l1.4-2.9c0-0.1,0-0.2-0.1-0.2c-0.1,0-0.2,0-0.2,0.1l-1.4,2.9
					C62.6,23.4,62.6,23.5,62.7,23.6z"/>
			</g>
		</g>
		<g>
			<g>
				<path d="M66.3,18.9c-0.1,0-0.1,0-0.2,0.1l-0.7,3c0,0.1,0,0.1,0.1,0.2c0.1,0,0.1,0,0.2-0.1l0.7-3C66.5,19,66.4,18.9,66.3,18.9z"
					/>
			</g>
		</g>
		<g>
			<g>
				<path d="M63.6,41.7c0.1,0,0.1-0.1,0.1-0.2l-0.5-3c0-0.1-0.1-0.1-0.2-0.1c-0.1,0-0.1,0.1-0.1,0.2l0.5,3
					C63.5,41.7,63.5,41.8,63.6,41.7z"/>
			</g>
		</g>
		<g>
			<g>
				<path d="M65.1,38.9c-0.1,0-0.2,0.1-0.2,0.1l-0.1,3.3c0,0.1,0.1,0.2,0.1,0.2c0.1,0,0.2-0.1,0.2-0.1l0.1-3.3
					C65.2,39,65.2,38.9,65.1,38.9z"/>
			</g>
		</g>
		<g>
			<g>
				<path d="M63,34.7c-0.1,0-0.1,0.1,0,0.2l1.8,2.4c0,0.1,0.1,0.1,0.2,0c0.1,0,0.1-0.1,0-0.2l-1.8-2.4C63.1,34.7,63,34.7,63,34.7z"
					/>
			</g>
		</g>
		<g>
			<g>
				<path d="M63.5,41c0.1,0,0.1-0.1,0.1-0.2l-0.6-3c0-0.1-0.1-0.1-0.2-0.1c-0.1,0-0.1,0.1-0.1,0.2l0.6,3C63.4,41,63.4,41,63.5,41z"
					/>
			</g>
		</g>
		<g>
			<g>
				<path d="M62.7,31.1c-0.1,0-0.1,0.1-0.1,0.2l0.9,2.9c0,0.1,0.1,0.1,0.2,0.1c0.1,0,0.1-0.1,0.1-0.2l-0.9-2.9
					C62.8,31.1,62.7,31,62.7,31.1z"/>
			</g>
		</g>
		<g>
			<g>
				<path d="M62.3,35.9c0.1,0,0.1-0.1,0.1-0.2l-1.6-2.8c0-0.1-0.1-0.1-0.2-0.1c-0.1,0-0.1,0.1-0.1,0.2l1.6,2.8
					C62.2,36,62.2,36,62.3,35.9z"/>
			</g>
		</g>
		<g>
			<g>
				<path d="M70.5,45.1c-0.1,0-0.1,0-0.2,0l-1.8,2.4c0,0.1,0,0.1,0,0.2c0.1,0,0.1,0,0.2,0l1.8-2.4C70.6,45.3,70.6,45.2,70.5,45.1z"
					/>
			</g>
		</g>
		<g>
			<g>
				<path d="M69.3,43.9c0.1,0.1,0.1,0.1,0.2,0l2.5-2.1c0.1-0.1,0.1-0.1,0-0.2c-0.1-0.1-0.1-0.1-0.2,0l-2.5,2.1
					C69.3,43.8,69.3,43.9,69.3,43.9z"/>
			</g>
		</g>
		<g>
			<g>
				<path d="M68.1,46.4c0.1,0,0.2,0,0.2,0l1.6-2.6c0-0.1,0-0.2,0-0.2c-0.1,0-0.2,0-0.2,0l-1.6,2.6C68.1,46.2,68.1,46.3,68.1,46.4z"
					/>
			</g>
		</g>
		<g>
			<g>
				<path d="M52.4,47.4c0.1,0,0.1-0.1,0.1-0.1l-0.1-3c0-0.1-0.1-0.1-0.1-0.1c-0.1,0-0.1,0.1-0.1,0.1l0.1,3
					C52.3,47.3,52.4,47.4,52.4,47.4z"/>
			</g>
		</g>
		<g>
			<g>
				<path d="M36.6,65.7c0.1,0,0.1-0.1,0.1-0.2l-0.5-3c0-0.1-0.1-0.1-0.2-0.1s-0.1,0.1-0.1,0.2l0.5,3C36.4,65.7,36.5,65.7,36.6,65.7z
					"/>
			</g>
		</g>
		<g>
			<g>
				<path d="M40.1,67.9c0-0.1-0.1-0.1-0.2-0.1l-3,1.4c-0.1,0-0.1,0.1-0.1,0.2c0,0.1,0.1,0.1,0.2,0.1l3-1.4
					C40.2,68,40.2,67.9,40.1,67.9z"/>
			</g>
		</g>
		<g>
			<g>
				<path d="M37,62.6c-0.1,0-0.1,0.1-0.1,0.2l1,2.9c0,0.1,0.1,0.1,0.2,0.1s0.1-0.1,0.1-0.2l-1-2.9C37.2,62.7,37.1,62.6,37,62.6z"/>
			</g>
		</g>
		<g>
			<g>
				<path d="M47.4,60.9c-0.1,0-0.1,0.1,0,0.2l2,2.3c0,0.1,0.1,0.1,0.2,0c0.1,0,0.1-0.1,0-0.2l-2-2.3C47.6,60.8,47.5,60.8,47.4,60.9z
					"/>
			</g>
		</g>
		<g>
			<g>
				<path d="M66,41.1c0-0.1,0-0.1,0-0.2l-2.5-1.8c-0.1,0-0.1,0-0.2,0c0,0.1,0,0.1,0,0.2l2.5,1.8C65.8,41.1,65.9,41.1,66,41.1z"/>
			</g>
		</g>
		<g>
			<g>
				<path d="M64.7,34c-0.1,0-0.1,0.1-0.1,0.2l0.7,3.2c0,0.1,0.1,0.1,0.2,0.1s0.1-0.1,0.1-0.2l-0.7-3.2C64.8,34.1,64.7,34,64.7,34z"
					/>
			</g>
		</g>
		<g>
			<g>
				<path d="M64.9,41.3c0.1,0,0.1-0.1,0.1-0.2l-1-2.9c0-0.1-0.1-0.1-0.2-0.1c-0.1,0-0.1,0.1-0.1,0.2l1,2.9
					C64.7,41.2,64.8,41.3,64.9,41.3z"/>
			</g>
		</g>
		<g>
			<g>
				<path d="M43.4,64.6c0-0.1-0.1-0.1-0.2-0.1l-2.8,1.3c-0.1,0-0.1,0.1-0.1,0.2c0,0.1,0.1,0.1,0.2,0.1l2.8-1.3
					C43.4,64.7,43.5,64.6,43.4,64.6z"/>
			</g>
		</g>
		<g>
			<g>
				<path d="M39.3,63.2c0,0.1,0.1,0.2,0.1,0.2l3.3,0.1c0.1,0,0.2-0.1,0.2-0.1c0-0.1-0.1-0.2-0.1-0.2L39.4,63
					C39.3,63,39.3,63.1,39.3,63.2z"/>
			</g>
		</g>
		<g>
			<g>
				<path d="M42.9,64.9c0-0.1,0-0.1-0.1-0.2l-3-0.5c-0.1,0-0.1,0-0.2,0.1c0,0.1,0,0.1,0.1,0.2l3,0.5C42.8,65.1,42.9,65,42.9,64.9z"
					/>
			</g>
		</g>
		<g>
			<g>
				<path d="M64.9,40.2c0,0.1,0.1,0.1,0.2,0l2.5-1.6c0.1,0,0.1-0.1,0-0.2c0-0.1-0.1-0.1-0.2,0L64.9,40C64.8,40,64.8,40.1,64.9,40.2z
					"/>
			</g>
		</g>
		<g>
			<g>
				<path d="M67.2,39.9c-0.1,0-0.2,0-0.2,0.1l-1,3.1c0,0.1,0,0.2,0.1,0.2s0.2,0,0.2-0.1l1-3.1C67.3,40,67.2,39.9,67.2,39.9z"/>
			</g>
		</g>
		<g>
			<g>
				<path d="M56.9,24.7c0-0.1-0.1-0.1-0.2-0.1l-3,0.5c-0.1,0-0.1,0.1-0.1,0.2s0.1,0.1,0.2,0.1l3-0.5C56.9,24.8,56.9,24.7,56.9,24.7z
					"/>
			</g>
		</g>
		<g>
			<g>
				<path d="M53.5,23.2c0,0.1,0.1,0.2,0.1,0.2l3.3,0.2c0.1,0,0.2-0.1,0.2-0.1c0-0.1-0.1-0.2-0.1-0.2L53.6,23
					C53.6,23,53.5,23.1,53.5,23.2z"/>
			</g>
		</g>
		<g>
			<g>
				<path d="M55.5,25.1c0-0.1,0-0.2-0.1-0.2l-2.8-1.2c-0.1,0-0.2,0-0.2,0.1c0,0.1,0,0.2,0.1,0.2l2.8,1.2
					C55.4,25.2,55.5,25.2,55.5,25.1z"/>
			</g>
		</g>
		<g>
			<g>
				<path d="M61.8,30.4c0-0.1,0-0.2,0-0.2l-2.6-1.6c-0.1,0-0.2,0-0.2,0s0,0.2,0,0.2l2.6,1.6C61.7,30.5,61.7,30.5,61.8,30.4z"/>
			</g>
		</g>
		<g>
			<g>
				<path d="M59.1,29.6c0.1,0.1,0.1,0.1,0.2,0l2.6-2c0.1-0.1,0.1-0.1,0-0.2s-0.1-0.1-0.2,0l-2.6,2C59.1,29.4,59.1,29.5,59.1,29.6z"
					/>
			</g>
		</g>
		<g>
			<g>
				<path d="M63.4,24.7c-0.1,0-0.1,0.1-0.1,0.2l0.7,2.9c0,0.1,0.1,0.1,0.2,0.1s0.1-0.1,0.1-0.2l-0.7-2.9
					C63.5,24.7,63.5,24.6,63.4,24.7z"/>
			</g>
		</g>
		<g>
			<g>
				<path d="M61.9,29c0.1,0,0.2-0.1,0.2-0.1l0.2-3.3c0-0.1-0.1-0.2-0.1-0.2S62,25.5,62,25.6l-0.2,3.3C61.7,28.9,61.8,29,61.9,29z"/>
			</g>
		</g>
		<g>
			<g>
				<path d="M65.4,26.5c-0.1,0-0.2,0-0.2,0.1l-1.3,2.7c0,0.1,0,0.2,0.1,0.2s0.2,0,0.2-0.1l1.3-2.7C65.5,26.6,65.5,26.5,65.4,26.5z"
					/>
			</g>
		</g>
		<g>
			<g>
				<path d="M64.1,26.5c0.1,0,0.2,0,0.2-0.1l1.4-3c0-0.1,0-0.2-0.1-0.2c-0.1,0-0.2,0-0.2,0.1l-1.4,3C64,26.4,64,26.5,64.1,26.5z"/>
			</g>
		</g>
		<g>
			<g>
				<path d="M70.7,41.1c0.1,0.1,0.1,0.1,0.2,0L73,39c0.1-0.1,0.1-0.1,0-0.2c-0.1-0.1-0.1-0.1-0.2,0l-2.2,2.1
					C70.6,41,70.6,41.1,70.7,41.1z"/>
			</g>
		</g>
		<g>
			<g>
				<path d="M72.3,41.5c-0.1,0-0.2,0-0.2,0l-1.8,2.8c0,0.1,0,0.2,0,0.2c0.1,0,0.2,0,0.2,0l1.8-2.8C72.4,41.6,72.4,41.6,72.3,41.5z"
					/>
			</g>
		</g>
		<g>
			<g>
				<path d="M61.9,37.7c0.1,0,0.1-0.1,0.1-0.2l-0.7-3c0-0.1-0.1-0.1-0.2-0.1s-0.1,0.1-0.1,0.2l0.7,3C61.7,37.7,61.8,37.7,61.9,37.7z
					"/>
			</g>
		</g>
		<g>
			<g>
				<path d="M62.7,35.8c-0.1,0-0.1,0.1-0.1,0.2l1.2,3c0,0.1,0.1,0.1,0.2,0.1c0.1,0,0.1-0.1,0.1-0.2l-1.2-3
					C62.9,35.8,62.8,35.8,62.7,35.8z"/>
			</g>
		</g>
		<g>
			<g>
				<path d="M56.4,39.2c0.1,0,0.1-0.1,0-0.2l-1.5-2.6c0-0.1-0.1-0.1-0.2,0c-0.1,0-0.1,0.1,0,0.2l1.5,2.6
					C56.2,39.2,56.3,39.3,56.4,39.2z"/>
			</g>
		</g>
		<g>
			<g>
				<path d="M60.5,40.1c-0.1-0.1-0.1-0.1-0.2,0l-2.4,2.2c-0.1,0.1-0.1,0.1,0,0.2c0.1,0.1,0.1,0.1,0.2,0l2.4-2.2
					C60.6,40.3,60.6,40.2,60.5,40.1z"/>
			</g>
		</g>
		<g>
			<g>
				<path d="M55.5,35.9c-0.1,0-0.1,0.1,0,0.2l1.9,2.3c0,0.1,0.1,0.1,0.2,0s0.1-0.1,0-0.2l-1.9-2.3C55.7,35.9,55.6,35.9,55.5,35.9z"
					/>
			</g>
		</g>
		<g>
			<g>
				<path d="M59.9,42.7c-0.1,0-0.1,0-0.2,0.1l-0.6,3c0,0.1,0,0.1,0.1,0.2c0.1,0,0.1,0,0.2-0.1l0.6-3C60,42.8,60,42.7,59.9,42.7z"/>
			</g>
		</g>
		<g>
			<g>
				<path d="M60.3,45.2c0-0.1,0-0.2-0.1-0.2l-3.2-0.8c-0.1,0-0.2,0-0.2,0.1s0,0.2,0.1,0.2l3.2,0.8C60.2,45.3,60.3,45.3,60.3,45.2z"
					/>
			</g>
		</g>
		<g>
			<g>
				<path d="M32.9,74.9c0.1,0.1,0.1,0.1,0.2,0l2.2-2.1c0.1-0.1,0.1-0.1,0-0.2c-0.1-0.1-0.1-0.1-0.2,0l-2.2,2.1
					C32.9,74.8,32.9,74.9,32.9,74.9z"/>
			</g>
		</g>
		<g>
			<g>
				<path d="M35.8,73.8c-0.1-0.1-0.2-0.1-0.2,0l-2.3,2.3c-0.1,0.1-0.1,0.2,0,0.2s0.2,0.1,0.2,0l2.3-2.3C35.9,74,35.9,73.9,35.8,73.8
					z"/>
			</g>
		</g>
		<g>
			<g>
				<path d="M35.1,58.7c-0.1,0-0.1,0.1,0,0.2l1.9,2.3c0,0.1,0.1,0.1,0.2,0c0.1,0,0.1-0.1,0-0.2l-1.9-2.3
					C35.2,58.7,35.1,58.7,35.1,58.7z"/>
			</g>
		</g>
		<g>
			<g>
				<path d="M36.3,62.1c0.1-0.1,0.1-0.1,0-0.2l-2.1-2.5c-0.1-0.1-0.1-0.1-0.2,0s-0.1,0.1,0,0.2l2.1,2.5
					C36.2,62.1,36.3,62.1,36.3,62.1z"/>
			</g>
		</g>
		<g>
			<g>
				<path d="M58.2,44.1c0.1-0.1,0.1-0.1,0-0.2l-2-2.3c-0.1-0.1-0.1-0.1-0.2,0s-0.1,0.1,0,0.2l2,2.3C58.1,44.1,58.2,44.1,58.2,44.1z"
					/>
			</g>
		</g>
		<g>
			<g>
				<path d="M56.9,41.3c0,0.1,0,0.2,0,0.2l2.8,1.7c0.1,0,0.2,0,0.2,0c0-0.1,0-0.2,0-0.2l-2.8-1.7C57,41.2,56.9,41.3,56.9,41.3z"/>
			</g>
		</g>
		<g>
			<g>
				<path d="M43.2,64.6c-0.1,0-0.1,0-0.2,0l-2,2.3c0,0.1,0,0.1,0,0.2c0.1,0,0.1,0,0.2,0l2-2.3C43.3,64.7,43.3,64.6,43.2,64.6z"/>
			</g>
		</g>
		<g>
			<g>
				<path d="M41.6,66.1c0-0.1,0-0.2-0.1-0.2l-3.1-1.1c-0.1,0-0.2,0-0.2,0.1c0,0.1,0,0.2,0.1,0.2l3.1,1.1
					C41.5,66.2,41.6,66.1,41.6,66.1z"/>
			</g>
		</g>
		<g>
			<g>
				<path d="M74,36.2c-0.1,0-0.1,0-0.2,0l-1.7,2.5c0,0.1,0,0.1,0,0.2s0.1,0,0.2,0l1.7-2.5C74.1,36.3,74.1,36.2,74,36.2z"/>
			</g>
		</g>
		<g>
			<g>
				<path d="M72.4,36.4c0.1,0,0.2,0,0.2,0l1.8-2.7c0-0.1,0-0.2,0-0.2c-0.1,0-0.2,0-0.2,0l-1.8,2.7C72.3,36.3,72.3,36.4,72.4,36.4z"
					/>
			</g>
		</g>
		<g>
			<g>
				<path d="M32.9,56.4c0-0.1-0.1-0.1-0.2,0l-2.5,1.8c-0.1,0-0.1,0.1,0,0.2c0,0.1,0.1,0.1,0.2,0l2.5-1.8
					C32.9,56.5,32.9,56.4,32.9,56.4z"/>
			</g>
		</g>
		<g>
			<g>
				<path d="M73.2,44.2c0,0.1,0.1,0.1,0.2,0l2.4-1.8c0.1,0,0.1-0.1,0-0.2c0-0.1-0.1-0.1-0.2,0L73.2,44
					C73.1,44.1,73.1,44.2,73.2,44.2z"/>
			</g>
		</g>
		<g>
			<g>
				<path d="M75.7,43.8c0-0.1-0.1-0.1-0.2,0l-2.6,1.9c-0.1,0-0.1,0.1,0,0.2s0.1,0.1,0.2,0l2.6-1.9C75.7,44,75.7,43.9,75.7,43.8z"/>
			</g>
		</g>
		<g>
			<g>
				<path d="M50.8,52.6c0.1,0,0.1,0,0.2,0l1.6-2.5c0-0.1,0-0.1,0-0.2c-0.1,0-0.1,0-0.2,0l-1.6,2.5C50.7,52.5,50.7,52.5,50.8,52.6z"
					/>
			</g>
		</g>
		<g>
			<g>
				<path d="M58.4,27.3c0.1,0,0.1-0.1,0-0.2l-1.7-2.5c0-0.1-0.1-0.1-0.2,0s-0.1,0.1,0,0.2l1.7,2.5C58.2,27.3,58.3,27.3,58.4,27.3z"
					/>
			</g>
		</g>
		<g>
			<g>
				<path d="M71,37.3c0.1,0,0.2,0,0.2-0.1l1-2.8c0-0.1,0-0.2-0.1-0.2c-0.1,0-0.2,0-0.2,0.1l-1,2.8C70.9,37.2,70.9,37.2,71,37.3z"/>
			</g>
		</g>
		<g>
			<g>
				<path d="M73.3,34.6c-0.1,0-0.2,0-0.2,0.1L72,37.7c0,0.1,0,0.2,0.1,0.2c0.1,0,0.2,0,0.2-0.1l1.1-3.1
					C73.4,34.7,73.3,34.6,73.3,34.6z"/>
			</g>
		</g>
		<g>
			<g>
				<path d="M43.4,19.7c0.1,0,0.1-0.1,0-0.2L41.8,17c0-0.1-0.1-0.1-0.2,0s-0.1,0.1,0,0.2l1.7,2.5C43.3,19.7,43.4,19.7,43.4,19.7z"/>
			</g>
		</g>
		<g>
			<g>
				<path d="M43.7,17.9c-0.1,0-0.1,0.1,0,0.2l1.8,2.7c0,0.1,0.1,0.1,0.2,0c0.1,0,0.1-0.1,0-0.2L43.9,18
					C43.8,17.9,43.8,17.9,43.7,17.9z"/>
			</g>
		</g>
		<g>
			<g>
				<path d="M61.7,27.9c0.1,0,0.1-0.1,0.1-0.2l-0.9-2.9c0-0.1-0.1-0.1-0.2-0.1c-0.1,0-0.1,0.1-0.1,0.2l0.9,2.9
					C61.5,27.9,61.6,28,61.7,27.9z"/>
			</g>
		</g>
		<g>
			<g>
				<path d="M63.7,35.3c0.1,0,0.1-0.1,0.1-0.1l-0.2-3c0-0.1-0.1-0.1-0.1-0.1c-0.1,0-0.1,0.1-0.1,0.1l0.2,3
					C63.6,35.3,63.6,35.3,63.7,35.3z"/>
			</g>
		</g>
		<g>
			<g>
				<path d="M25,76.2c0.1,0,0.1-0.1,0.1-0.2l-1.3-2.8c0-0.1-0.1-0.1-0.2-0.1s-0.1,0.1-0.1,0.2l1.3,2.8C24.8,76.2,24.9,76.3,25,76.2z
					"/>
			</g>
		</g>
		<g>
			<g>
				<path d="M49.8,59c0,0.1,0.1,0.1,0.2,0.1l2.7-1.4c0.1,0,0.1-0.1,0.1-0.2c0-0.1-0.1-0.1-0.2-0.1l-2.7,1.4
					C49.8,58.8,49.8,58.9,49.8,59z"/>
			</g>
		</g>
		<g>
			<g>
				<path d="M29.2,43.7c0,0.1,0.1,0.1,0.2,0.1l2.8-1.1c0.1,0,0.1-0.1,0.1-0.2c0-0.1-0.1-0.1-0.2-0.1l-2.8,1.1
					C29.2,43.6,29.2,43.6,29.2,43.7z"/>
			</g>
		</g>
		<g>
			<g>
				<path d="M63,26.9c0.1,0,0.1,0,0.2,0l1.7-2.5c0-0.1,0-0.1,0-0.2s-0.1,0-0.2,0L63,26.7C62.9,26.8,62.9,26.9,63,26.9z"/>
			</g>
		</g>
		<g>
			<g>
				<path d="M65.2,25.6c-0.1,0-0.2,0-0.2,0.1l-1.1,3.1c0,0.1,0,0.2,0.1,0.2c0.1,0,0.2,0,0.2-0.1l1.1-3.1
					C65.3,25.7,65.2,25.6,65.2,25.6z"/>
			</g>
		</g>
		<g>
			<g>
				<path d="M47.5,25.6c0-0.1,0-0.2-0.1-0.2L44.8,24c-0.1,0-0.2,0-0.2,0.1c0,0.1,0,0.2,0.1,0.2l2.7,1.4
					C47.4,25.7,47.5,25.7,47.5,25.6z"/>
			</g>
		</g>
		<g>
			<g>
				<path d="M46.4,23.7c0,0.1,0,0.2,0.1,0.2l2.9,1.5c0.1,0,0.2,0,0.2-0.1s0-0.2-0.1-0.2l-2.9-1.5C46.5,23.6,46.4,23.6,46.4,23.7z"/>
			</g>
		</g>
		<g>
			<g>
				<path d="M70,40.9c-0.1,0-0.1,0-0.2,0L68,43.4c0,0.1,0,0.1,0,0.2s0.1,0,0.2,0l1.8-2.5C70.1,41.1,70.1,41,70,40.9z"/>
			</g>
		</g>
		<g>
			<g>
				<path d="M67.6,42.8c0.1,0,0.2,0,0.2-0.1l1.2-3c0-0.1,0-0.2-0.1-0.2c-0.1,0-0.2,0-0.2,0.1l-1.2,3C67.5,42.7,67.5,42.8,67.6,42.8z
					"/>
			</g>
		</g>
		<g>
			<g>
				<path d="M45.9,59.7c0,0.1,0.1,0.1,0.1,0.1l3-0.2c0.1,0,0.1-0.1,0.1-0.1c0-0.1-0.1-0.1-0.1-0.1l-3,0.2
					C46,59.6,45.9,59.6,45.9,59.7z"/>
			</g>
		</g>
		<g>
			<g>
				<path d="M57.6,39.2c-0.1,0.1-0.1,0.1,0,0.2l2.1,2.2c0.1,0.1,0.1,0.1,0.2,0c0.1-0.1,0.1-0.1,0-0.2l-2.1-2.2
					C57.7,39.2,57.6,39.1,57.6,39.2z"/>
			</g>
		</g>
	</g>
	<g>
		<g>
			<g>
				<path d="M29.1,37.6c-0.1,0-0.1,0.1-0.1,0.2l1.3,2.6c0,0.1,0.1,0.1,0.2,0.1c0.1,0,0.1-0.1,0.1-0.2l-1.3-2.6
					C29.2,37.6,29.1,37.6,29.1,37.6z"/>
			</g>
		</g>
		<g>
			<g>
				<path d="M28.7,42.7c0.1,0.1,0.2,0.1,0.2,0l2.3-2.3c0.1-0.1,0.1-0.2,0-0.2c-0.1-0.1-0.2-0.1-0.2,0l-2.3,2.3
					C28.7,42.5,28.7,42.6,28.7,42.7z"/>
			</g>
		</g>
		<g>
			<g>
				<path d="M31.6,41.6c0.1,0,0.2,0,0.2-0.1l0.8-3.2c0-0.1,0-0.2-0.1-0.2c-0.1,0-0.2,0-0.2,0.1l-0.8,3.2
					C31.4,41.5,31.5,41.6,31.6,41.6z"/>
			</g>
		</g>
		<g>
			<g>
				<path d="M33.4,36.7c0.1,0,0.1,0,0.1-0.1l0.3-2.9c0-0.1,0-0.1-0.1-0.1c-0.1,0-0.1,0-0.1,0.1l-0.3,2.9
					C33.3,36.6,33.3,36.7,33.4,36.7z"/>
			</g>
		</g>
		<g>
			<g>
				<path d="M32.8,34c-0.1,0-0.1,0-0.2,0.1L31.9,37c0,0.1,0,0.1,0.1,0.2s0.1,0,0.2-0.1l0.7-2.9C32.9,34.1,32.9,34,32.8,34z"/>
			</g>
		</g>
		<g>
			<g>
				<path d="M33.8,35.9c-0.1,0-0.2,0-0.2,0.1l-0.4,3.1c0,0.1,0,0.2,0.1,0.2c0.1,0,0.2,0,0.2-0.1l0.4-3.1C34,36,33.9,35.9,33.8,35.9z
					"/>
			</g>
		</g>
		<g>
			<g>
				<path d="M33,39.4c-0.1,0-0.1,0-0.2,0l-1.5,2.5c0,0.1,0,0.1,0,0.2s0.1,0,0.2,0l1.5-2.5C33.1,39.5,33.1,39.4,33,39.4z"/>
			</g>
		</g>
		<g>
			<g>
				<path d="M29.8,38.1c0.1,0,0.2,0,0.2,0l1.6-2.6c0-0.1,0-0.2,0-0.2c-0.1,0-0.2,0-0.2,0l-1.6,2.6C29.7,37.9,29.7,38,29.8,38.1z"/>
			</g>
		</g>
		<g>
			<g>
				<path d="M30.4,37.8c0-0.1-0.1-0.1-0.2,0l-2.4,1.8c-0.1,0-0.1,0.1,0,0.2c0,0.1,0.1,0.1,0.2,0l2.4-1.8
					C30.5,38,30.5,37.9,30.4,37.8z"/>
			</g>
		</g>
	</g>
	<g>
		<g>
			<g>
				<path d="M26.6,56.1c0-0.1-0.1-0.1-0.2,0l-2.2,1.8c-0.1,0-0.1,0.1,0,0.2c0,0.1,0.1,0.1,0.2,0l2.2-1.8
					C26.6,56.2,26.6,56.2,26.6,56.1z"/>
			</g>
		</g>
		<g>
			<g>
				<path d="M24.3,56.3c0,0.1,0,0.1,0.1,0.2l2.8,0.8c0.1,0,0.1,0,0.2-0.1c0-0.1,0-0.1-0.1-0.2l-2.8-0.8
					C24.4,56.2,24.3,56.2,24.3,56.3z"/>
			</g>
		</g>
		<g>
			<g>
				<path d="M26.7,56.9c0.1,0.1,0.1,0,0.2,0l2.1-2.3c0.1-0.1,0-0.1,0-0.2c-0.1-0.1-0.1,0-0.2,0l-2.1,2.3
					C26.7,56.8,26.7,56.9,26.7,56.9z"/>
			</g>
		</g>
		<g>
			<g>
				<path d="M28.5,55.4c0-0.1-0.1-0.1-0.2-0.1l-2.8,0.8c-0.1,0-0.1,0.1-0.1,0.2s0.1,0.1,0.2,0.1l2.8-0.8
					C28.5,55.6,28.5,55.5,28.5,55.4z"/>
			</g>
		</g>
	</g>
	<g>
		<g>
			<g>
				<path d="M24.6,56.9c0.1,0,0.1-0.1,0.1-0.1l0-3c0-0.1-0.1-0.1-0.1-0.1s-0.1,0.1-0.1,0.1l0,3C24.4,56.8,24.5,56.9,24.6,56.9z"/>
			</g>
		</g>
		<g>
			<g>
				<path d="M23.2,54.9c-0.1,0-0.2,0-0.2,0.1l-0.7,3.1c0,0.1,0,0.2,0.1,0.2s0.2,0,0.2-0.1l0.7-3.1C23.3,55,23.3,55,23.2,54.9z"/>
			</g>
		</g>
	</g>
	<g>
		<g>
			<g>
				<path d="M19.4,63.2c0.1,0.1,0.1,0.1,0.2,0l2.1-2c0.1-0.1,0.1-0.1,0-0.2c-0.1-0.1-0.1-0.1-0.2,0l-2.1,2
					C19.4,63,19.4,63.1,19.4,63.2z"/>
			</g>
		</g>
		<g>
			<g>
				<path d="M21.7,61c-0.1,0-0.1,0-0.2,0l-1.6,2.6c0,0.1,0,0.1,0,0.2c0.1,0,0.1,0,0.2,0l1.6-2.6C21.8,61.1,21.7,61.1,21.7,61z"/>
			</g>
		</g>
		<g>
			<g>
				<path d="M19.6,64.6c0.1,0,0.2,0,0.2,0l1.9-2.6c0-0.1,0-0.2,0-0.2c-0.1,0-0.2,0-0.2,0l-1.9,2.6C19.6,64.5,19.6,64.6,19.6,64.6z"
					/>
			</g>
		</g>
	</g>
	<g>
		<g>
			<g>
				<path d="M27.5,52.5c0-0.1,0-0.2-0.1-0.2l-3-1.1c-0.1,0-0.2,0-0.2,0.1c0,0.1,0,0.2,0.1,0.2l3,1.1C27.4,52.6,27.5,52.5,27.5,52.5z
					"/>
			</g>
		</g>
		<g>
			<g>
				<path d="M25,54.2c0,0.1,0.1,0.1,0.2,0.1l2.7-1.4c0.1,0,0.1-0.1,0.1-0.2s-0.1-0.1-0.2-0.1L25.1,54C25,54.1,25,54.2,25,54.2z"/>
			</g>
		</g>
	</g>
	<g>
		<g>
			<g>
				<path d="M60.5,3.3c-0.1,0-0.1,0.1-0.1,0.2l0.7,2.9c0,0.1,0.1,0.1,0.2,0.1s0.1-0.1,0.1-0.2l-0.7-2.9C60.6,3.3,60.5,3.3,60.5,3.3z
					"/>
			</g>
		</g>
		<g>
			<g>
				<path d="M60.8,5.9c0.1,0,0.1-0.1,0.1-0.1l0.1-2.8c0-0.1-0.1-0.1-0.1-0.1c-0.1,0-0.1,0.1-0.1,0.1l-0.1,2.8
					C60.7,5.8,60.8,5.9,60.8,5.9z"/>
			</g>
		</g>
	</g>
	<g>
		<g>
			<g>
				<path d="M22.5,57.9c0-0.1,0-0.1-0.1-0.2l-2.8-1c-0.1,0-0.1,0-0.2,0.1s0,0.1,0.1,0.2l2.8,1C22.4,58,22.5,58,22.5,57.9z"/>
			</g>
		</g>
		<g>
			<g>
				<path d="M22.2,57.8c0,0.1,0.1,0.1,0.1,0.1l2.9,0.1c0.1,0,0.1-0.1,0.1-0.1c0-0.1-0.1-0.1-0.1-0.1l-2.9-0.1
					C22.2,57.7,22.2,57.7,22.2,57.8z"/>
			</g>
		</g>
	</g>
	<g>
		<g>
			<g>
				<path d="M58.3,20.4c0.1,0.1,0.1,0.1,0.2,0l2.2-2.2c0.1-0.1,0.1-0.1,0-0.2c-0.1-0.1-0.1-0.1-0.2,0l-2.2,2.2
					C58.3,20.2,58.3,20.3,58.3,20.4z"/>
			</g>
		</g>
		<g>
			<g>
				<path d="M58.6,17.9c-0.1,0.1-0.1,0.2,0,0.2l2.3,2.3c0.1,0.1,0.2,0.1,0.2,0c0.1-0.1,0.1-0.2,0-0.2l-2.3-2.3
					C58.8,17.9,58.7,17.9,58.6,17.9z"/>
			</g>
		</g>
	</g>
	<g>
		<g>
			<g>
				<path d="M44.4,27.2c-0.1,0-0.1,0-0.2,0.1l-0.5,2.9c0,0.1,0,0.1,0.1,0.2c0.1,0,0.1,0,0.2-0.1l0.5-2.9
					C44.5,27.3,44.4,27.2,44.4,27.2z"/>
			</g>
		</g>
		<g>
			<g>
				<path d="M42.3,31.8c0.1,0,0.1,0,0.2-0.1l1-2.8c0-0.1,0-0.1-0.1-0.2c-0.1,0-0.1,0-0.2,0.1l-1,2.8C42.2,31.7,42.2,31.8,42.3,31.8z
					"/>
			</g>
		</g>
		<g>
			<g>
				<path d="M43.1,29c0.1,0,0.1-0.1,0.1-0.1l0.1-3.1c0-0.1-0.1-0.1-0.1-0.1c-0.1,0-0.1,0.1-0.1,0.1L43,28.9C43,28.9,43,29,43.1,29z"
					/>
			</g>
		</g>
	</g>
	<g>
		<g>
			<g>
				<path d="M56.5,14.1c-0.1,0-0.1,0-0.2,0l-2,2.3c0,0.1,0,0.1,0,0.2s0.1,0,0.2,0l2-2.3C56.6,14.2,56.6,14.1,56.5,14.1z"/>
			</g>
		</g>
		<g>
			<g>
				<path d="M55.4,14.5c0,0.1,0.1,0.1,0.2,0l2.3-1.9c0.1,0,0.1-0.1,0-0.2s-0.1-0.1-0.2,0l-2.3,1.9C55.3,14.4,55.3,14.4,55.4,14.5z"
					/>
			</g>
		</g>
	</g>
	<g>
		<g>
			<path d="M58.9,17.2c0-0.1-0.1-0.1-0.2-0.1L56,18.5c-0.1,0-0.1,0.1-0.1,0.2c0,0.1,0.1,0.1,0.2,0.1l2.7-1.4
				C58.9,17.4,58.9,17.3,58.9,17.2z"/>
		</g>
	</g>
	<g>
		<g>
			<g>
				<path d="M27,58.6c-0.1-0.1-0.2,0-0.2,0L24.7,61c-0.1,0.1,0,0.2,0,0.2c0.1,0.1,0.2,0,0.2,0l2.1-2.4C27.1,58.7,27.1,58.6,27,58.6z
					"/>
			</g>
		</g>
		<g>
			<g>
				<path d="M24.8,58.4c0,0.1,0.1,0.1,0.2,0.1l2.8-1.6c0.1,0,0.1-0.1,0.1-0.2c0-0.1-0.1-0.1-0.2-0.1l-2.8,1.6
					C24.8,58.3,24.8,58.4,24.8,58.4z"/>
			</g>
		</g>
	</g>
	<g>
		<g>
			<g>
				<path d="M57.7,5.6c-0.1,0-0.1,0.1,0,0.2l1.9,2.2c0,0.1,0.1,0.1,0.2,0c0.1,0,0.1-0.1,0-0.2l-1.9-2.2C57.8,5.5,57.7,5.5,57.7,5.6z
					"/>
			</g>
		</g>
		<g>
			<g>
				<path d="M57.6,7.4c0.1-0.1,0.1-0.1,0-0.2l-2-2.4c-0.1-0.1-0.1-0.1-0.2,0c-0.1,0.1-0.1,0.1,0,0.2l2,2.4
					C57.5,7.4,57.6,7.4,57.6,7.4z"/>
			</g>
		</g>
	</g>
	<g>
		<g>
			<g>
				<path d="M63.6,5.9c-0.1,0-0.1,0-0.1,0.1L63.1,9c0,0.1,0,0.1,0.1,0.1c0.1,0,0.1,0,0.1-0.1l0.3-2.9C63.7,6,63.7,6,63.6,5.9z"/>
			</g>
		</g>
		<g>
			<g>
				<path d="M62.7,6.4c0.1,0,0.2,0,0.2-0.1l1-3c0-0.1,0-0.2-0.1-0.2s-0.2,0-0.2,0.1l-1,3C62.6,6.3,62.6,6.4,62.7,6.4z"/>
			</g>
		</g>
	</g>
	<g>
		<g>
			<path d="M27.9,51.9c0,0.1,0.1,0.1,0.2,0.1l3.2-0.3c0.1,0,0.1-0.1,0.1-0.2c0-0.1-0.1-0.1-0.2-0.1L28,51.8
				C27.9,51.8,27.9,51.8,27.9,51.9z"/>
		</g>
	</g>
	<g>
		<g>
			<path d="M24,61.6c0.1,0,0.1-0.1,0.1-0.2l-0.7-2.8c0-0.1-0.1-0.1-0.2-0.1c-0.1,0-0.1,0.1-0.1,0.2l0.7,2.8
				C23.8,61.5,23.9,61.6,24,61.6z"/>
		</g>
	</g>
	<g>
		<g>
			<g>
				<path d="M58.9,5c-0.1,0-0.1,0.1,0,0.2l1.4,2.5c0,0.1,0.1,0.1,0.2,0c0.1,0,0.1-0.1,0-0.2L59.1,5C59.1,5,59,4.9,58.9,5z"/>
			</g>
		</g>
		<g>
			<g>
				<path d="M58.6,6.9c0.1,0,0.1-0.1,0.1-0.2l-1.5-2.6C57.1,4,57.1,4,57,4s-0.1,0.1-0.1,0.2l1.5,2.6C58.5,6.9,58.6,6.9,58.6,6.9z"/>
			</g>
		</g>
	</g>
	<g>
		<g>
			<g>
				<path d="M53,22.4c0.1-0.1,0-0.2,0-0.2l-2.5-2.1c-0.1-0.1-0.2,0-0.2,0c-0.1,0.1,0,0.2,0,0.2l2.5,2.1C52.8,22.5,52.9,22.5,53,22.4
					z"/>
			</g>
		</g>
		<g>
			<g>
				<path d="M51.6,20.3c0,0.1,0,0.2,0.1,0.2l2.7,1.3c0.1,0,0.2,0,0.2-0.1s0-0.2-0.1-0.2l-2.7-1.3C51.7,20.2,51.6,20.2,51.6,20.3z"/>
			</g>
		</g>
	</g>
	<g>
		<g>
			<g>
				<path d="M55.1,16.4c0.1,0,0.1,0,0.2,0l1.5-2.5c0-0.1,0-0.1,0-0.2s-0.1,0-0.2,0L55,16.2C55,16.3,55,16.4,55.1,16.4z"/>
			</g>
		</g>
		<g>
			<g>
				<path d="M54.2,15.5c0,0.1,0,0.2,0.1,0.2l3.1,0.6c0.1,0,0.2,0,0.2-0.1s0-0.2-0.1-0.2l-3.1-0.6C54.3,15.4,54.2,15.5,54.2,15.5z"/>
			</g>
		</g>
	</g>
	<g>
		<g>
			<path d="M23.8,58.2c-0.1,0-0.1,0.1,0,0.2l1.6,2.3c0,0.1,0.1,0.1,0.2,0s0.1-0.1,0-0.2l-1.6-2.3C23.9,58.2,23.8,58.2,23.8,58.2z"/>
		</g>
	</g>
	<g>
		<g>
			<path d="M56.8,10.4c0-0.1,0-0.2-0.1-0.2l-2.8-1.5c-0.1,0-0.2,0-0.2,0.1c0,0.1,0,0.2,0.1,0.2l2.8,1.5
				C56.7,10.5,56.8,10.5,56.8,10.4z"/>
		</g>
	</g>
	<g>
		<g>
			<g>
				<path d="M84.4,37c0-0.1,0-0.1-0.1-0.2l-2.6-1.3c-0.1,0-0.1,0-0.2,0.1c0,0.1,0,0.1,0.1,0.2l2.6,1.3C84.3,37.1,84.4,37,84.4,37z"
					/>
			</g>
		</g>
		<g>
			<g>
				<path d="M82.4,38.3c-0.1,0-0.1,0-0.2,0l-1.5,2.4c0,0.1,0,0.1,0,0.2s0.1,0,0.2,0l1.5-2.4C82.5,38.4,82.4,38.3,82.4,38.3z"/>
			</g>
		</g>
	</g>
	<g>
		<g>
			<g>
				<path d="M55.5,17.4c0.1,0.1,0.1,0.1,0.2,0l2.4-2.1c0.1-0.1,0.1-0.1,0-0.2c-0.1-0.1-0.1-0.1-0.2,0l-2.4,2.1
					C55.4,17.2,55.4,17.3,55.5,17.4z"/>
			</g>
		</g>
		<g>
			<g>
				<path d="M58.5,15.8c-0.1,0-0.1,0-0.2,0l-1.6,2.4c0,0.1,0,0.1,0,0.2c0.1,0,0.1,0,0.2,0l1.6-2.4C58.6,15.9,58.6,15.8,58.5,15.8z"
					/>
			</g>
		</g>
	</g>
	<g>
		<g>
			<path d="M24.5,56.3c-0.1,0-0.2,0-0.2,0.1l-1,2.9c0,0.1,0,0.2,0.1,0.2c0.1,0,0.2,0,0.2-0.1l1-2.9C24.6,56.4,24.5,56.3,24.5,56.3z"
				/>
		</g>
	</g>
	<g>
		<g>
			<path d="M21.7,61.1c0.1,0.1,0.1,0.1,0.2,0l2.3-2.1c0.1-0.1,0.1-0.1,0-0.2c-0.1-0.1-0.1-0.1-0.2,0l-2.3,2.1
				C21.6,61,21.6,61.1,21.7,61.1z"/>
		</g>
	</g>
	<g>
		<g>
			<path d="M32.7,31.9c0.1,0,0.1-0.1,0.1-0.2l-0.4-3c0-0.1-0.1-0.1-0.2-0.1c-0.1,0-0.1,0.1-0.1,0.2l0.4,3
				C32.6,31.9,32.6,31.9,32.7,31.9z"/>
		</g>
	</g>
	<g>
		<g>
			<path d="M20.6,58.9c0,0.1,0.1,0.2,0.1,0.2l3.3,0.1c0.1,0,0.2-0.1,0.2-0.1c0-0.1-0.1-0.2-0.1-0.2l-3.3-0.1
				C20.6,58.8,20.6,58.8,20.6,58.9z"/>
		</g>
	</g>
	<g>
		<g>
			<path d="M55.2,10.5c0,0.1,0,0.1,0.1,0.2l3,0.5c0.1,0,0.1,0,0.2-0.1c0-0.1,0-0.1-0.1-0.2l-3-0.5C55.3,10.3,55.2,10.4,55.2,10.5z"
				/>
		</g>
	</g>
</g>
</svg>
